<svg xmlns="http://www.w3.org/2000/svg" viewBox="0 0 72 72"><path d="M71.7 31.8c-.2-1.5-1-1.9-2.9-2.5-1.4-.5-11.1-3.6-11.1-3.6s-6.8-2.6-11.8 1.1c-.7.5-1.4 1-2.1 1.6.6-.7 1.1-1.4 1.6-2.1 3.6-5 1-11.8 1-11.8s-3.1-9.7-3.6-11.1c-.6-1.9-1-2.7-2.5-2.9-1.5-.2-2.1.4-3.3 2-.9 1.2-6.8 9.5-6.8 9.5s-4.5 5.6-2.6 11.5c.2.8.6 1.6.9 2.5-.5-.8-1-1.5-1.5-2.2-3.7-5-10.9-4.6-10.9-4.6H4.4c-2 0-2.9.1-3.5 1.5-.7 1.3-.3 2.1.9 3.7.9 1.2 6.9 9.4 6.9 9.4s4 6 10.2 6.1c.8 0 1.7 0 2.6-.1-.9.2-1.7.5-2.5.7-5.9 1.9-7.8 8.9-7.8 8.9S8 59.1 7.6 60.5c-.6 1.9-.7 2.8.3 3.8s1.9.9 3.8.3c1.4-.5 11.1-3.7 11.1-3.7s7-1.9 8.9-7.8c.3-.8.5-1.7.7-2.5-.1.9-.1 1.8-.1 2.6 0 6.2 6.1 10.1 6.1 10.1s8.2 6 9.4 6.9c1.6 1.2 2.4 1.6 3.7.9 1.3-.7 1.5-1.5 1.5-3.6V56s.3-7.2-4.6-10.9c-.7-.5-1.4-1-2.2-1.5.9.3 1.7.7 2.5.9 5.9 1.9 11.5-2.6 11.5-2.6s8.3-5.9 9.5-6.8c1.6-1.2 2.2-1.9 2-3.3zM21 31c.6-1.2 3.6-1 6.6.5 3 1.5 4.9 3.8 4.3 5-.6 1.2-3.6 1-6.6-.5-3-1.5-5-3.7-4.3-5zm8.8 15c-2.4 2.4-5.1 3.5-6.1 2.5s.2-3.7 2.5-6.1c2.4-2.4 5.1-3.5 6.1-2.5 1.1 1-.1 3.7-2.5 6.1zm5-11c-1.4-.2-2-3.1-1.5-6.4.5-3.3 2.1-5.9 3.4-5.6 1.4.2 2 3.1 1.5 6.4-.5 3.3-2.1 5.8-3.4 5.6zm6.5 16.4c-1.2.6-3.5-1.3-5-4.3s-1.8-5.9-.5-6.6c1.2-.6 3.5 1.3 5 4.3s1.7 5.9.5 6.6zM43.7 39c-3.3.5-6.2-.1-6.4-1.5-.2-1.4 2.3-2.9 5.6-3.4s6.2.1 6.4 1.5c.3 1.3-2.3 2.8-5.6 3.4z" fill="#fff"/></svg>