<svg width="72" height="72" viewBox="0 0 72 72" version="1.1" xmlns="http://www.w3.org/2000/svg" xmlns:xlink="http://www.w3.org/1999/xlink">
<g id="Canvas" fill="none">
<g id="akroma-logo-white-transparent" clip-path="url(#clip0)">
<g id="Logo/Tile/White">
<g id="Logo/Tile/White_2" clip-path="url(#clip1)">
<g id="Logo" clip-path="url(#clip2)">
<g id="Vector">
<path d="M 40.0108 13.9742L 0 0L 8.61771 46.2129L 55.1533 54.9161L 40.0108 13.9742ZM 28.8693 12.8097L 38.3488 16.1194L 41.919 26.171L 40.294 25.7174L 31.8363 23.4742L 28.8693 12.8097ZM 24.3143 11.2161L 28.7462 26.4161L 43.5194 30.3387L 46.1048 37.6936L 23.2063 31.9323L 17.6171 8.85032L 24.3143 11.2161ZM 12.4341 42.7071L 4.67819 4.29032L 12.865 7.17097L 19.513 35.7323L 47.9514 42.3516L 51.0292 50.4419L 12.4341 42.7071Z" transform="translate(10.8467 7)" fill="white"/>
</g>
<g id="Vector_2" opacity="0.2">
<path d="M 1.84665 0L 0 2.81935L 8.24838 48.7871L 13.3575 42.9645L 1.84665 0Z" transform="translate(9 7)" fill="white"/>
</g>
<g id="Vector_3" opacity="0.5">
<path d="M 0 5.94516L 46.5356 14.1581L 48.7516 12.0742L 46.7326 10.5419L 5.23218 0L 0 5.94516Z" transform="translate(17.2484 49.8419)" fill="white"/>
</g>
<g id="Vector_4" opacity="0.5">
<path d="M 8.55616 2.5129L 6.84494 4.0329L 0.369331 1.83871L 0 0L 8.55616 2.5129Z" transform="translate(15.5248 11.2903)" fill="white"/>
</g>
<g id="Vector_5" opacity="0.2">
<path d="M 2.20367 0L 1.20225e-05 2.13291L 6.26631 31.16L 7.97753 29.4807L 2.20367 0Z" transform="translate(22.3698 13.1903)" fill="white"/>
</g>
<g id="Vector_6" opacity="0.5">
<path d="M 30.5313 7.10967L 29.0294 9.53678L 0 2.72128L 2.70842 0L 30.5313 7.10967Z" transform="translate(28.6361 41.629)" fill="white"/>
</g>
<g id="Vector_7" opacity="0.2">
<path d="M 1.13261 -2.99269e-06L 6.01124e-06 1.86323L 2.04362 7.72256L 4.16113 8.15159L 1.13261 -2.99269e-06Z" transform="translate(57.6655 49.3026)" fill="white"/>
</g>
<g id="Vector_8" opacity="0.5">
<path d="M 7.17732 1.61806L 5.69999 3.50581L 0.406263 1.69161L -6.01123e-06 5.98538e-06L 7.17732 1.61806Z" transform="translate(28.4761 15.8625)" fill="white"/>
</g>
<g id="Vector_9" opacity="0.2">
<path d="M 4.27191 17.1613L 0 1.88774L 1.47732 0L 5.39223 15.9355L 4.27191 17.1613Z" transform="translate(34.176 17.4806)" fill="white"/>
</g>
<g id="Vector_10" opacity="0.5">
<path d="M -6.01124e-06 1.96129L 15.1179 5.78579L 16.2875 4.16774L 1.63737 0L -6.01124e-06 1.96129Z" transform="translate(38.4479 32.6807)" fill="white"/>
</g>
<g id="Vector_11" opacity="0.2">
<path d="M 2.09287 7.03612L 0 1.15225L 0.849446 5.98538e-06L 3.42246 7.35485L 2.09287 7.03612Z" transform="translate(53.5659 37.3142)" fill="white"/>
</g>
<g id="Vector_12" opacity="0.5">
<path d="M 9.72572 2.81935L 1.20225e-05 0L 0.369343 1.47097L 8.2484 4.29032L 9.72572 2.81935Z" transform="translate(39.7283 19.8097)" fill="white"/>
</g>
<g id="Vector_13" opacity="0.2">
<path d="M 1.47734 0L 1.20225e-05 1.47097L 3.07778 10.0516L 4.80132 10.5419L 1.47734 0Z" transform="translate(47.9767 22.629)" fill="white"/>
</g>
</g>
</g>
</g>
</g>
</g>
<defs>

<clipPath id="clip0">
<rect width="72" height="72" fill="white"/>
</clipPath>
<clipPath id="clip1">
<rect width="57" height="57" fill="white" transform="translate(9 7)"/>
</clipPath>
<clipPath id="clip2">
<rect width="57" height="57" fill="white" transform="translate(9 7)"/>
</clipPath>

</defs>
</svg>

