<svg width="72" height="72" xmlns="http://www.w3.org/2000/svg"><g clip-path="url(#clip0)"><g clip-path="url(#clip1)" fill="none"><g clip-path="url(#clip2)" fill="#fff"><path d="M50.858 20.974L10.846 7l8.617 46.213L66 61.916 50.858 20.974zM39.716 19.81l9.48 3.31 3.57 10.051-1.625-.454-8.458-2.243-2.967-10.664zm-4.555-1.594l4.432 15.2 14.773 3.923 2.585 7.355-22.898-5.762-5.59-23.082 6.698 2.366zm-11.88 31.491L15.525 11.29l8.187 2.881 6.648 28.561 28.438 6.62 3.078 8.09-38.595-7.735z"/><path d="M10.847 7L9 9.82l8.248 45.967 5.11-5.822L10.846 7z" opacity=".2"/><path d="M17.248 55.787L63.784 64 66 61.916l-2.019-1.532-41.5-10.542-5.233 5.945zm6.833-41.984l-1.711 1.52-6.476-2.194-.37-1.839 8.557 2.513z" opacity=".5"/><path d="M24.573 13.19l-2.203 2.133 6.266 29.027 1.711-1.679-5.774-29.48z" opacity=".2"/><path d="M59.167 48.739l-1.502 2.427-29.029-6.816 2.709-2.721 27.822 7.11z" opacity=".5"/><path d="M58.798 49.303l-1.132 1.863 2.043 5.86 2.118.428-3.029-8.151z" opacity=".2"/><path d="M35.653 17.48l-1.477 1.888-5.294-1.814-.406-1.691 7.177 1.618z" opacity=".5"/><path d="M38.448 34.642l-4.272-15.274 1.477-1.887 3.915 15.935-1.12 1.226z" opacity=".2"/><path d="M38.448 34.642l15.118 3.824 1.17-1.618-14.65-4.167-1.638 1.961z" opacity=".5"/><path d="M55.659 44.35l-2.093-5.884.85-1.152 2.572 7.355-1.33-.319z" opacity=".2"/><path d="M49.454 22.63l-9.726-2.82.37 1.47 7.879 2.82 1.477-1.471z" opacity=".5"/><path d="M49.454 22.629L47.977 24.1l3.077 8.58 1.724.49-3.324-10.541z" opacity=".2"/></g></g></g><defs><clipPath id="clip0"><path fill="#fff" d="M0 0h72v72H0z"/></clipPath><clipPath id="clip1"><path fill="#fff" transform="translate(9 7)" d="M0 0h57v57H0z"/></clipPath><clipPath id="clip2"><path fill="#fff" transform="translate(9 7)" d="M0 0h57v57H0z"/></clipPath></defs></svg>