<?xml version="1.0" encoding="UTF-8"?>
<svg version="1.1" viewBox="0 0 512 512" xmlns="http://www.w3.org/2000/svg">
<title>Alpha Bot System icon</title>
<g fill="#fff" fill-rule="evenodd">
<path d="m210.79 143.71c61.044 0 110.76 48.496 112.73 109.06l0.024168 0.9956c-1.1768-36.287-30.963-65.342-67.536-65.342-37.319 0-67.572 30.253-67.572 67.572s30.253 67.572 67.572 67.572v0.003673l0.49686-0.003673c24.721 0 44.809 19.84 45.208 44.466l0.006058 0.74769c0 24.971-20.243 45.214-45.214 45.214-0.1658 0-0.3314-8.92e-4 -0.49678-0.002673l-7.3e-5 0.002673c-87.179 0-157.87-70.606-158-157.75 0.13575-62.175 50.58-112.54 112.79-112.54z" opacity=".89749"/>
<path d="m143.71 301.21c0-61.556 49.313-111.59 110.59-112.77-36.534 0.90219-65.872 30.801-65.872 67.551 0 37.319 30.253 67.572 67.572 67.572 0.16541 8.93e-4 0.33103 0 0.49686 0 24.971 0 45.214 20.243 45.214 45.214s-20.243 45.214-45.214 45.214c-0.16583 0-0.33145 0-0.49686-0.002674-0.11217 4e-6 -0.22432-1.1e-4 -0.33643-3.4e-4 -61.907-0.44795-111.95-50.771-111.95-112.78z" opacity=".49591"/>
<path d="m256 98c86.388 0 156.58 69.331 157.98 155.39l0.021167 2.6128v113.28c-0.26957 24.743-20.409 44.717-45.214 44.717-24.971 0-45.214-20.243-45.214-45.214l0.003673 0.49684-0.003673 1.9e-5v-113.28c0-0.74638-0.012101-1.4899-0.036118-2.2305l-0.024168-0.9956c-1.9643-60.567-51.682-109.06-112.73-109.06-62.207 0-112.65 50.362-112.79 112.54-2.04e-4 -0.082739-2.678e-4 -0.16558-2.678e-4 -0.24843 0-87.261 70.739-158 158-158z"/>
</g>
</svg>