<?xml version="1.0" encoding="UTF-8" standalone="no"?>
<svg xmlns="http://www.w3.org/2000/svg" height="72" width="72">
  <g fill="#0d597f">
    <path d="M26.168 43.65v-7.578l-5.455 5.462c.532.374 1.087.714 1.662 1.019.472.25.961.466 1.464.646.454.161.876.272 1.264.343a6.4 6.4 0 0 0 1.065.107m27.893-.63c.01.008.063.054.16.116.1.063.243.144.434.223.232.095.472.168.718.216.287.06.625.098 1.013.098.324 0 .681-.028 1.073-.097a8.14 8.14 0 0 0 1.277-.337c.51-.18 1.005-.397 1.483-.65a15.71 15.71 0 0 0 1.688-1.03l-4.14-4.057L44.046 23.73l-6.021 6.022-8.122-8.375L9.52 41.529c.54.38 1.104.724 1.687 1.032.477.252.972.469 1.48.65.416.146.843.259 1.277.336.392.068.75.097 1.073.097a5.05 5.05 0 0 0 1.012-.098c.246-.048.486-.12.718-.216.15-.062.295-.136.433-.223.098-.063.151-.108.161-.116l9.202-9.202 3.29-3.155 9.112 9.112 3.184 3.274c.01.007.062.053.16.115.1.063.243.144.434.223.232.095.472.168.718.216.287.06.625.098 1.013.098.324 0 .682-.028 1.073-.097.435-.077.862-.19 1.278-.337.509-.18 1.004-.397 1.482-.65a15.71 15.71 0 0 0 1.688-1.03l-7.311-7.161 1.36-1.361 6.328 6.327 3.69 3.657m-.079-38.164L71.958 36 53.982 67.144H18.018L.042 36 18.018 4.856z"/>
    <path d="M42.766 34.483l-4.788-4.78.34-.342 4.822 4.77z"/>
  </g>
</svg>
