<?xml version="1.0" encoding="utf-8"?>
<svg viewBox="12 428.147 72.001 71.853" xmlns="http://www.w3.org/2000/svg">
  <g transform="matrix(0.014815, 0, 0, -0.014815, 10.222222, 507.40741)" fill="#FFF" stroke="none">
    <path d="M120 2932 l0 -2419 332 -6 c182 -4 1276 -7 2430 -7 l2098 0 0 2088 c0 1148 -3 2239 -7 2425 l-6 337 -2424 0 -2423 0 0 -2418z m4780 -2 l0 -2360 -2355 0 -2355 0 0 2360 0 2360 2355 0 2355 0 0 -2360z" style="fill: rgb(255, 255, 255);"/>
    <path d="M1460 4010 c-199 -34 -309 -92 -410 -216 -40 -49 -76 -152 -104 -296 -2 -9 3 -19 11 -22 8 -3 95 -6 194 -6 135 0 181 3 184 13 2 6 12 39 21 72 25 89 77 137 171 159 137 31 320 12 381 -39 62 -52 80 -155 40 -227 -41 -73 -103 -92 -383 -118 -214 -20 -325 -45 -435 -98 -66 -33 -70 -36 -129 -93 -88 -86 -125 -181 -125 -324 0 -196 85 -336 254 -418 143 -69 372 -86 545 -42 85 22 190 83 254 148 l48 48 7 -48 c3 -26 13 -66 20 -88 l14 -40 197 -3 c222 -3 204 -11 168 78 -16 41 -18 97 -23 615 -5 512 -8 576 -24 625 -44 135 -138 231 -273 281 -152 55 -410 72 -603 39z m510 -971 c0 -146 -26 -224 -101 -300 -34 -35 -79 -69 -115 -86 -55 -26 -67 -28 -194 -28 -130 0 -137 1 -177 27 -65 43 -94 87 -100 158 -12 127 59 212 199 238 91 17 189 32 287 42 52 6 113 19 135 30 67 30 66 31 66 -81z" style="fill: rgb(255, 255, 255);"/>
    <path d="M2674 2127 c-2 -7 -3 -76 -2 -152 l3 -140 770 0 770 0 3 153 3 152 -771 0 c-623 0 -772 -2 -776 -13z" style="fill: rgb(255, 255, 255);"/>
  </g>
</svg>