<svg version="1.0" viewBox="0 0 72 72" xmlns="http://www.w3.org/2000/svg"><g transform="matrix(.014107 0 0 -.013424 -.11286 70.295)" fill="#fff" style=""><path d="m1554 4259c-677-60-1252-519-1464-1168-61-187-82-321-82-531s21-344 82-531c325-992 1449-1460 2383-993l87 44 88-44c769-385 1704-139 2182 577 125 186 221 427 262 656 15 88 20 158 20 291 0 210-21 344-82 531-325 992-1449 1460-2382 993l-88-44-87 44c-195 97-411 158-629 176-133 11-160 11-290-1zm428-363c98-19 287-93 402-158 157-88 335-253 444-411 59-86 138-248 183-377 64-180 64-600 0-780-78-220-177-391-310-532-158-168-305-267-525-353-140-55-224-73-389-81-202-10-384 14-527 71-36 15-73 28-84 30-21 5-201 105-262 146-65 44-225 201-287 282-31 41-57 77-57 80s-23 45-51 93c-49 85-82 154-74 154 2 0-9 32-25 71-49 117-64 220-64 429s15 312 64 429c16 39 27 71 25 71-8 0 25 69 74 154 28 48 51 90 51 93s26 39 57 80c62 81 222 238 287 282 60 41 241 141 262 146 11 2 53 17 94 33 91 36 150 50 255 62 108 12 362 4 457-14z"/><path d="m1757 3163c-2-5-28-107-56-228-29-121-75-312-101-425-50-207-80-343-80-361 0-5 31-9 69-9h69l31 138c18 75 58 247 90 382s71 299 86 365 30 126 33 133c3 9-14 12-66 12-39 0-73-3-75-7z"/><path d="m1220 2730-92-100 27-32c15-18 56-63 91-100l64-68h91 91l-86 93c-47 50-86 98-86 104 0 7 36 52 80 100 44 49 80 91 80 96 0 4-38 7-84 7h-83l-93-100z"/><path d="m1920 2824c0-3 17-22 38-43 78-78 133-144 130-157-2-7-40-54-86-103l-83-91h93l93 1 85 93c47 52 85 98 85 104 0 5-40 52-90 105l-90 97h-87c-49 0-88-3-88-6z"/></g></svg>