<svg xmlns="http://www.w3.org/2000/svg" width="40" height="40" viewBox="0 0 40 40">
  <g fill="none" fill-rule="evenodd">
    <path fill="#FFFFFF" fill-rule="nonzero" d="M24.3201621,20.5673759 C23.8784195,19.3029382 23.1205674,18.1884498 22.1317123,17.325228 L21.7507599,17.0091185 L21.7304965,16.9888551 C21.6048632,16.8834853 21.47923,16.7983789 21.3495441,16.7132725 L21.3292806,16.6930091 C21.2036474,16.6079027 21.0780142,16.5227964 20.9280648,16.4417427 C20.9078014,16.4417427 20.9078014,16.4214792 20.887538,16.4214792 C20.7619048,16.3363728 20.6119554,16.2755826 20.4863222,16.2107396 C20.4660588,16.2107396 20.4660588,16.1904762 20.4457953,16.1904762 C20.3201621,16.1256332 20.1702128,16.064843 20.0243161,16 C20.0040527,16 20.0040527,15.9797366 19.9837893,15.9797366 C19.858156,15.9392097 19.7325228,15.8743668 19.6028369,15.8338399 C19.266464,15.7082067 18.9098278,15.6028369 18.5491388,15.5379939 C18.2735562,16.064843 17.8966565,16.526849 17.4751773,16.9280648 C18.1276596,16.9685917 18.7598784,17.1388045 19.3272543,17.3698075 C19.6636272,17.5157042 20,17.6859169 20.295846,17.8763931 C20.3161094,17.8763931 20.3363728,17.8966565 20.3363728,17.8966565 C20.4214792,17.9371834 20.4822695,18.0020263 20.5673759,18.0668693 C20.6079027,18.0871327 20.6322188,18.1073961 20.6727457,18.1519757 C20.7375887,18.1925025 20.8186424,18.2573455 20.8834853,18.3221884 C20.9240122,18.3627153 20.9685917,18.3870314 21.0091185,18.4275583 C21.0739615,18.4924012 21.1347518,18.5329281 21.1995947,18.597771 L21.325228,18.7234043 L21.4954407,18.893617 L21.621074,19.0192503 C21.6616008,19.0840932 21.7264438,19.1448835 21.7669706,19.189463 C21.8074975,19.2299899 21.852077,19.2948328 21.8926039,19.3353597 L22.0182371,19.5258359 C22.0587639,19.5906788 22.1033435,19.6312057 22.1236069,19.6960486 L22.2492401,19.8865248 C22.289767,19.9513678 22.3140831,20.0121581 22.3546099,20.0567376 C22.3951368,20.1215805 22.4194529,20.1823708 22.4599797,20.2472138 C22.5005066,20.3120567 22.5248227,20.372847 22.5653495,20.43769 C22.585613,20.5025329 22.6301925,20.5633232 22.6504559,20.6281662 C22.6909828,20.7132725 22.7152989,20.7983789 22.7558257,20.8591692 C22.9260385,21.2806484 23.0516717,21.7223911 23.112462,22.2046606 L23.3029382,22.9422492 C23.3880446,23.2583587 24.1458967,25.9533941 25.9128673,26.8571429 C27.935157,27.9108409 30.6058764,29.2158055 31.6595745,29.7183384 L17.7953394,38.0020263 L17.7953394,32.3161094 C17.7953394,31.4123607 19.5866261,30.3586626 20.4052685,30.0020263 L20.4457953,29.9817629 C20.6160081,29.8966565 20.7821682,29.8115502 20.952381,29.7061803 L21.0172239,29.6656535 C21.3738602,29.4549139 21.710233,29.2036474 22.0263425,28.9280648 C22.0466059,28.9078014 22.0911854,28.887538 22.1114488,28.8429585 C22.1519757,28.822695 22.1762918,28.7781155 22.2168186,28.7578521 C22.3221884,28.6727457 22.4072948,28.5673759 22.5126646,28.4822695 L22.5531915,28.4417427 C22.6585613,28.3363728 22.7639311,28.231003 22.8490375,28.1053698 C22.8693009,28.064843 22.9138804,28.0405268 22.9341439,28 C23.0192503,27.9148936 23.0800405,27.8095238 23.1651469,27.704154 C23.1854103,27.6838906 23.2056738,27.639311 23.2299899,27.6190476 L23.4812563,27.2380952 C23.4812563,27.2178318 23.5015198,27.2178318 23.5015198,27.1975684 C23.6068896,27.0273556 23.7122594,26.8409321 23.8176292,26.6707194 C23.3961499,26.1641337 23.0800405,25.6170213 22.8287741,25.1144883 C22.7234043,25.4305978 22.5775076,25.7467072 22.4275583,26.0182371 C22.3627153,26.1438703 22.2816616,26.2695035 22.2168186,26.3991895 C22.1965552,26.4194529 22.1965552,26.4397163 22.1762918,26.4397163 C22.1114488,26.5450861 22.0303951,26.6504559 21.9655522,26.7355623 C21.9452888,26.7558257 21.9250253,26.8004053 21.9007092,26.8206687 C21.8358663,26.9260385 21.7548126,27.0111449 21.6697062,27.0962513 C21.6494428,27.1165147 21.6494428,27.1367781 21.6291793,27.1367781 C21.1225937,27.704154 20.514691,28.1904762 19.8176292,28.526849 L19.6919959,28.591692 C19.3353597,28.7375887 16.2391084,30.147923 16.2391084,32.2755826 L16.2391084,37.9614995 L2.34245187,29.6859169 C3.24620061,29.1388045 5.86018237,27.5825735 8.00405268,26.9057751 C8.84701114,26.6301925 10.6342452,27.768997 11.6474164,28.591692 L11.7122594,28.656535 C11.8378926,28.7821682 11.9878419,28.9078014 12.1337386,29.0131712 L12.1742655,29.0536981 C12.4903749,29.3049645 12.8267477,29.5602837 13.2077001,29.7467072 L13.4589666,29.8723404 C13.47923,29.8723404 13.4994934,29.8926039 13.4994934,29.8926039 C13.7304965,30.0182371 13.9614995,30.1236069 14.2168186,30.2289767 C14.2573455,30.2492401 14.2816616,30.2492401 14.3221884,30.2695035 C14.3424519,30.2695035 14.3627153,30.289767 14.4072948,30.289767 C14.7639311,30.4154002 15.1246201,30.52077 15.4812563,30.6058764 C15.7568389,30.0790274 16.154002,29.6170213 16.5754813,29.2158055 C15.9635258,29.1752786 15.3961499,29.0455927 14.8490375,28.8348531 C14.8287741,28.8145897 14.7841945,28.8145897 14.7639311,28.7943262 C14.6990881,28.7740628 14.6382979,28.7537994 14.5734549,28.7092199 C14.5531915,28.6889564 14.508612,28.6889564 14.4883485,28.668693 C14.4235056,28.6484296 14.3627153,28.6038501 14.3181358,28.5835866 C13.8966565,28.372847 13.5197568,28.141844 13.1590679,27.845998 L12.6119554,27.3394124 C12.591692,27.3191489 11.9189463,26.7071935 10.970618,26.1600811 C9.60081054,25.3819656 8.44579534,25.1266464 7.55825735,25.402229 C5.72644377,25.9898683 3.64336373,27.1084093 2.37892604,27.845998 L16.2553191,2.9260385 L16.2553191,13.852077 C16.2553191,14.2330294 15.6879433,15.2421479 13.7710233,16.1053698 L13.6453901,16.1702128 C13.4549139,16.2553191 13.2887538,16.360689 13.0982776,16.4660588 L13.0577508,16.4863222 C12.7011145,16.6970618 12.3647416,16.9483283 12.0243161,17.2239108 C11.8135765,17.3941236 11.6231003,17.5805471 11.4569402,17.7710233 L11.4366768,17.7912867 C11.2462006,17.9817629 11.0800405,18.1722391 10.9300912,18.378926 L10.9098278,18.3991895 C10.8247214,18.5045593 10.7639311,18.6099291 10.6788247,18.7152989 C10.6788247,18.7355623 10.6585613,18.7355623 10.6585613,18.7558257 C10.5937183,18.8611955 10.5329281,18.9463019 10.4680851,19.0516717 C10.4680851,19.0719352 10.4478217,19.0719352 10.4478217,19.0921986 L10.2573455,19.408308 C10.2370821,19.4285714 10.2370821,19.4488349 10.2168186,19.4934144 C10.1519757,19.5987842 10.1114488,19.704154 10.070922,19.7892604 C10.070922,19.8095238 10.0506586,19.8297872 10.0506586,19.8297872 C10.0101317,19.935157 9.96555218,20.0202634 9.92502533,20.1256332 C9.9047619,20.1661601 9.9047619,20.1904762 9.88449848,20.231003 L9.75886525,20.5471125 C9.73860182,20.5876393 9.73860182,20.6119554 9.7183384,20.6524823 C9.69807497,20.7375887 9.67781155,20.7983789 9.63323202,20.8834853 C9.61296859,20.9240122 9.61296859,20.9685917 9.59270517,21.0091185 C9.57244174,21.1144883 9.52786221,21.2198582 9.50759878,21.3049645 C9.48733536,21.3454914 9.48733536,21.4103343 9.46707194,21.4508612 C9.44680851,21.5157042 9.44680851,21.5967579 9.42654509,21.6616008 C9.40628166,21.7264438 9.40628166,21.787234 9.38601824,21.852077 C9.36575481,21.9371834 9.36575481,22.0222898 9.34549139,22.1033435 C9.34549139,22.1681864 9.32522796,22.2087133 9.32522796,22.2735562 C9.32522796,22.3586626 9.30496454,22.4194529 9.30496454,22.5045593 C9.30496454,22.5896657 9.30496454,22.6504559 9.28470111,22.7355623 L9.28470111,23.0516717 C9.28470111,23.4326241 9.30496454,23.8297872 9.3698075,24.1904762 C9.91691996,24.3161094 10.4842958,24.5471125 11.0962513,24.8429585 C10.9260385,24.295846 10.8449848,23.7284701 10.8206687,23.1367781 L10.8206687,23.0314083 C10.8206687,22.8855117 10.8206687,22.7558257 10.8409321,22.6099291 L10.8409321,22.5045593 C10.8409321,22.378926 10.8611955,22.2735562 10.881459,22.147923 L10.881459,22.1073961 C10.9017224,21.9817629 10.9219858,21.8561297 10.9463019,21.7061803 C10.9463019,21.6656535 10.9665653,21.6413374 10.9665653,21.6008105 C10.9868288,21.4954407 11.0314083,21.3900709 11.0516717,21.2847011 C11.0516717,21.2644377 11.0719352,21.2441743 11.0719352,21.2198582 L11.1975684,20.8389058 C11.2178318,20.8186424 11.2178318,20.7740628 11.2380952,20.7537994 C11.2786221,20.6484296 11.3232016,20.5430598 11.3637285,20.4579534 C11.3839919,20.43769 11.3839919,20.4174265 11.4042553,20.372847 C11.4690983,20.2472138 11.5096251,20.141844 11.5947315,20.0364742 C11.6149949,20.0162107 11.6149949,19.9959473 11.6352584,19.9716312 C11.7001013,19.8662614 11.7406282,19.781155 11.8054711,19.6757852 C11.8257345,19.6555218 11.8257345,19.6352584 11.845998,19.6109422 C11.9108409,19.5055724 11.9918946,19.4002026 12.077001,19.2948328 C12.077001,19.2948328 12.077001,19.2745694 12.0972644,19.2745694 C12.1823708,19.1691996 12.2431611,19.0840932 12.3282675,18.9787234 C12.3485309,18.95846 12.3485309,18.9381966 12.3687943,18.9138804 C12.7497467,18.4924012 13.1671733,18.1357649 13.6534954,17.8196555 L14.3059777,17.5035461 C14.662614,17.3576494 17.7386018,15.9027356 17.7386018,13.7791287 L17.7386018,2.91793313 L31.7325228,28.064843 C30.4924012,27.4528875 28.2796353,26.3586626 26.5734549,25.4751773 C25.5845998,24.9685917 24.9321175,23.1813576 24.7416413,22.5288754 L24.5511651,21.7710233 C24.5511651,21.3698075 24.4457953,20.9685917 24.3201621,20.5673759 Z M33.7953394,28.4822695 L18.3627153,0.798378926 C18.0871327,0.295845998 17.5845998,0 17.0131712,0 C16.4417427,0 15.9392097,0.295845998 15.6676798,0.798378926 L0.235055724,28.4822695 C-0.166160081,29.1995947 0.0648429585,30.1236069 0.782168186,30.5450861 L16.2350557,39.7852077 C16.4863222,39.9311044 16.7619048,39.9959473 17.0334347,39.9959473 C17.3049645,39.9959473 17.5805471,39.9311044 17.8318136,39.7852077 L33.2644377,30.5653495 C33.9614995,30.1276596 34.2168186,29.1995947 33.7953394,28.4822695 Z" transform="translate(3.556)"/>
    <rect width="40" height="40"/>
  </g>
</svg>
