<svg xmlns="http://www.w3.org/2000/svg" width="40" height="40"><g fill="none" fill-rule="evenodd"><path fill="#FFF" fill-rule="nonzero" d="M27.876 20.567a7.65 7.65 0 0 0-2.188-3.242l-.381-.316-.02-.02a3.924 3.924 0 0 0-.381-.276l-.02-.02a4.57 4.57 0 0 0-.402-.251c-.02 0-.02-.02-.04-.02-.126-.086-.276-.146-.402-.211-.02 0-.02-.02-.04-.02-.126-.065-.276-.126-.422-.191-.02 0-.02-.02-.04-.02-.126-.04-.251-.106-.381-.146a6.145 6.145 0 0 0-1.054-.296 5.386 5.386 0 0 1-1.074 1.39c.653.04 1.285.21 1.852.442.337.146.673.316.969.506.02 0 .04.02.04.02.085.041.146.106.231.17.04.021.065.041.106.086.065.04.146.105.21.17.041.04.086.065.126.106.065.064.126.105.19.17l.126.125.17.17.126.126c.04.065.105.126.146.17.04.041.085.106.126.146l.125.19c.04.066.085.106.106.171l.125.19c.04.065.065.126.106.17.04.066.064.126.105.191.04.065.065.126.105.19.02.066.065.126.085.191.041.085.065.17.106.231.17.422.296.863.356 1.346l.19.737c.086.316.844 3.011 2.61 3.915a218.91 218.91 0 0 0 5.748 2.861L21.35 38.002v-5.686c0-.904 1.792-1.957 2.61-2.314l.04-.02c.171-.085.337-.17.507-.276l.065-.04a6.87 6.87 0 0 0 1.01-.738c.02-.02.064-.04.084-.085.041-.02.065-.065.106-.085.105-.085.19-.19.296-.276l.04-.04c.106-.106.21-.211.296-.337.02-.04.065-.064.085-.105.085-.085.146-.19.231-.296.02-.02.04-.065.065-.085l.251-.38c0-.021.02-.021.02-.041.106-.17.211-.357.317-.527a8.024 8.024 0 0 1-.99-1.557 5.549 5.549 0 0 1-.4.904c-.065.126-.146.252-.211.381-.02.02-.02.04-.04.04-.066.106-.147.211-.211.297-.02.02-.041.064-.065.085-.065.105-.146.19-.231.275-.02.02-.02.04-.04.04a5.864 5.864 0 0 1-1.812 1.39l-.126.066c-.357.146-3.453 1.556-3.453 3.684v5.685L5.898 29.686c.904-.547 3.518-2.103 5.662-2.78.843-.276 2.63.863 3.643 1.686l.065.065c.126.125.276.25.422.356l.04.04c.316.252.653.507 1.034.694l.251.125c.02 0 .04.02.04.02.231.126.462.232.718.337.04.02.065.02.105.04.02 0 .04.02.085.02.357.126.718.232 1.074.317.276-.527.673-.989 1.094-1.39a5.815 5.815 0 0 1-1.726-.381c-.02-.02-.065-.02-.085-.04a.657.657 0 0 1-.19-.086c-.02-.02-.065-.02-.086-.04-.064-.02-.125-.065-.17-.085a6.044 6.044 0 0 1-1.159-.738l-.547-.507a10.15 10.15 0 0 0-1.641-1.179c-1.37-.778-2.525-1.033-3.413-.758-1.832.588-3.915 1.706-5.18 2.444l13.877-24.92v10.926c0 .381-.567 1.39-2.484 2.253l-.126.065c-.19.085-.356.19-.547.296l-.04.02a8.65 8.65 0 0 0-1.034.738c-.21.17-.4.357-.567.547l-.02.02c-.19.19-.357.381-.507.588l-.02.02c-.085.106-.146.21-.231.316 0 .02-.02.02-.02.04-.065.106-.126.191-.19.297 0 .02-.021.02-.021.04l-.19.316c-.02.02-.02.04-.041.085-.065.106-.106.211-.146.296 0 .02-.02.04-.02.04-.04.106-.085.191-.126.297-.02.04-.02.064-.04.105l-.126.316c-.02.04-.02.065-.04.105a.89.89 0 0 1-.086.231c-.02.041-.02.086-.04.126-.02.105-.065.21-.085.296-.02.04-.02.105-.04.146-.021.065-.021.146-.041.21-.02.065-.02.126-.041.191-.02.085-.02.17-.04.251 0 .065-.02.106-.02.17 0 .086-.021.146-.021.232 0 .085 0 .145-.02.23v.317c0 .38.02.778.085 1.138.547.126 1.114.357 1.726.653a6.616 6.616 0 0 1-.275-1.706v-.106c0-.145 0-.275.02-.421v-.105c0-.126.02-.231.04-.357v-.04l.065-.402c0-.04.02-.065.02-.105.02-.106.065-.21.086-.316 0-.02.02-.04.02-.065l.126-.381c.02-.02.02-.065.04-.085.04-.106.085-.21.126-.296.02-.02.02-.04.04-.085.065-.126.106-.231.19-.337.021-.02.021-.04.041-.064.065-.106.106-.19.17-.296.02-.02.02-.04.041-.065.065-.105.146-.21.231-.316 0 0 0-.02.02-.02.085-.106.146-.19.231-.296.02-.02.02-.04.04-.065a6.418 6.418 0 0 1 1.285-1.094l.653-.316c.357-.146 3.433-1.601 3.433-3.725V2.918l13.994 25.147a329.059 329.059 0 0 1-5.16-2.59c-.988-.506-1.64-2.294-1.831-2.946l-.19-.758c0-.401-.106-.802-.232-1.204zm9.475 7.915L21.92.798A1.515 1.515 0 0 0 20.569 0c-.571 0-1.074.296-1.345.798L3.79 28.482a1.53 1.53 0 0 0 .547 2.063l15.453 9.24c.251.146.527.21.798.21.272 0 .548-.064.799-.21l15.432-9.22c.697-.437.953-1.365.531-2.083z"/><path d="M0 0h40v40H0z"/></g></svg>