<svg xmlns="http://www.w3.org/2000/svg" viewBox="0 0 19.05 19.05">
  <defs/>
  <g stroke-width=".756">
    <path fill="#787878" d="M16.445 9.261h-.005c-.1.31-.176.647-.19 1.03-.028.72.045 1.159-.038 1.625-.083.467-.328.926-.951 1.647-.742.857-1.918 1.52-3.277 1.744-.252.162-.52.31-.8.441 1.057.398 2.163.42 3.04.132 1.544-.506 1.424-.87 2.116-1.93.218-.335.47-.59.723-.8.72.315 1.43.516 1.871.466.238-.55-.006-1.19-.41-1.793.332-1.03-.172-2.062-1.287-2.427a2.403 2.403 0 00-.792-.135zm.836 1.513a.421.43 48.68 01.323.141.421.43 48.68 01-.044.6.421.43 48.68 01-.6-.033.421.43 48.68 01.044-.6.421.43 48.68 01.277-.108zm-6.91 4.586l.038.022.04-.015-.078-.007z"/>
    <path fill="#ececec" d="M10.898 2.853c-.604-.004-1.223.237-1.755.753-.699.679-.916 1.29-.793 2.052l.033.209-.208-.034c-1.535-.25-3.435-.123-5.597.75.636.273 1.802.728 3.096 1.35l.41.197-.446.09C3.93 8.566 1.902 9.567.05 11.75c.828-.064 2.522-.263 4.288-.26.981.001 1.949.069 2.737.273.788.205 1.418.55 1.654 1.14l.016.041-.007.043c-.04.22-.077.42-.113.582-.083.374-.405.676-.828.944-.423.27-.96.504-1.518.704-1.115.4-2.302.655-2.826.703-.111.01-.156.05-.199.129a.77.77 0 00-.07.328c-.005.171.018.314.037.41 3.411.28 5.948-.57 7.778-1.297 2.057-.943 3.357-2.805 3.639-4.482.177-1.05.139-1.565-.032-2.004-.17-.438-.497-.828-.912-1.571a4.857 4.857 0 01-.507-1.384l-.02-.092.074-.058c.762-.611 1.383-1.278 1.608-1.764-.462-.492-1.261-.596-2.155-.5l-.074.008-.051-.053c-.477-.485-1.068-.734-1.671-.737zm.267 1.135a.569.558 76.403 01.556.437.569.558 76.403 01-.409.684.569.558 76.403 01-.676-.422.569.558 76.403 01.409-.684.569.558 76.403 01.12-.015z" color="#000" font-family="sans-serif" font-weight="400" overflow="visible" style="line-height:normal;font-variant-ligatures:normal;font-variant-position:normal;font-variant-caps:normal;font-variant-numeric:normal;font-variant-alternates:normal;font-variant-east-asian:normal;font-feature-settings:normal;font-variation-settings:normal;text-indent:0;text-align:start;text-decoration-line:none;text-decoration-style:solid;text-decoration-color:#000;text-transform:none;text-orientation:mixed;white-space:normal;shape-padding:0;shape-margin:0;inline-size:0;isolation:auto;mix-blend-mode:normal;solid-color:#000;solid-opacity:1"/>
    <path fill="#b2b2b2" d="M14.915 5.318a2.49 2.49 0 00-.604.064l-.04.01c-.23.227-.487.455-.762.679.089.39.22.797.452 1.213.403.722.735 1.108.93 1.61.195.5.23 1.09.048 2.165-.224 1.331-1.035 2.742-2.32 3.783.998-.291 1.848-.828 2.411-1.478.608-.702.81-1.1.882-1.5.07-.4.004-.839.032-1.583.019-.48.12-.899.25-1.268l.032-.088.093-.012c.832-.108 1.583-.32 1.972-.571-.125-.561-.655-.997-1.357-1.328l-.067-.031-.017-.072c-.223-.957-.97-1.573-1.935-1.593zm.483 1.18a.487.497 17.73 01.146.023.487.497 17.73 01.313.622.487.497 17.73 01-.615.324.487.497 17.73 01-.313-.62.487.497 17.73 01.47-.348z" color="#000" font-family="sans-serif" font-weight="400" overflow="visible" style="line-height:normal;font-variant-ligatures:normal;font-variant-position:normal;font-variant-caps:normal;font-variant-numeric:normal;font-variant-alternates:normal;font-variant-east-asian:normal;font-feature-settings:normal;font-variation-settings:normal;text-indent:0;text-align:start;text-decoration-line:none;text-decoration-style:solid;text-decoration-color:#000;text-transform:none;text-orientation:mixed;white-space:normal;shape-padding:0;shape-margin:0;inline-size:0;isolation:auto;mix-blend-mode:normal;solid-color:#000;solid-opacity:1"/>
  </g>
</svg>
