<svg id="Layer_1" data-name="Layer 1" xmlns="http://www.w3.org/2000/svg" viewBox="0 0 72.01 14.38"><g id="Logos_callstack-dark" data-name="Logos/callstack-dark"><g id="callstack-logo"><path id="Shape" d="M12.35,39.73a5,5,0,0,1-2.37.56,3.81,3.81,0,0,1-4.06-3.76,3.89,3.89,0,0,1,4.16-3.79,4.76,4.76,0,0,1,2.15.51v2.07a3.88,3.88,0,0,0-2-.68,1.89,1.89,0,1,0,0,3.78,3.75,3.75,0,0,0,2.12-.72v2Zm5.66,0a3.58,3.58,0,0,1-2,.6,3,3,0,0,1-1.68-.47,2,2,0,0,1-.86-1.69,2.08,2.08,0,0,1,.89-1.75,3.61,3.61,0,0,1,2-.5,5.4,5.4,0,0,1,1.26.13v-.28a1.1,1.1,0,0,0-.28-.77,1.75,1.75,0,0,0-1.13-.31,4.59,4.59,0,0,0-2.11.57V33.3a5.71,5.71,0,0,1,2.54-.56,3.81,3.81,0,0,1,2.42.69,2.4,2.4,0,0,1,.81,2v2.46c0,.34.13.57.44.57a.78.78,0,0,0,.37-.09V40a2.44,2.44,0,0,1-1.07.21A2.11,2.11,0,0,1,18,39.68Zm-.38-2.4a3.58,3.58,0,0,0-.8-.1c-.58,0-1.15.18-1.15.74s.41.72.93.72a2,2,0,0,0,1-.3V37.29Zm4.22-7.08h2.24v9.92H21.85Zm4.1,0h2.24v9.92H26Zm3.89,7.55a6.31,6.31,0,0,0,2.87.83c.62,0,1-.16,1-.56,0-.55-.82-.5-1.91-.78-1.37-.34-2.18-.91-2.18-2.09,0-1.52,1.37-2.4,3.17-2.4a6.78,6.78,0,0,1,2.77.58v1.88a6.13,6.13,0,0,0-2.71-.76c-.59,0-.94.17-.94.5,0,.51.78.51,1.86.75,1.38.34,2.23.87,2.23,2.12,0,1.58-1.41,2.45-3.26,2.45a7,7,0,0,1-2.86-.6l0-1.92Zm12.21,2.13a3.35,3.35,0,0,1-1.64.4,2.57,2.57,0,0,1-1.89-.72,3,3,0,0,1-.63-2.16V34.75H36.71V32.9h1.18V30.09h2.24v2.82h1.92v1.85H40.13v2.42c0,.7.16,1.23.84,1.23a2.71,2.71,0,0,0,1.08-.29v1.77Zm5.43-.2a3.58,3.58,0,0,1-2,.6,3,3,0,0,1-1.68-.47,2,2,0,0,1-.86-1.69,2.05,2.05,0,0,1,.89-1.75,3.61,3.61,0,0,1,2-.5,5.26,5.26,0,0,1,1.25.13v-.28A1,1,0,0,0,46.8,35a1.71,1.71,0,0,0-1.12-.31,4.59,4.59,0,0,0-2.11.57V33.3a5.71,5.71,0,0,1,2.54-.56,3.81,3.81,0,0,1,2.42.69,2.4,2.4,0,0,1,.81,2v2.46c0,.34.13.57.44.57a.78.78,0,0,0,.37-.09V40a2.48,2.48,0,0,1-1.08.21,2.1,2.1,0,0,1-1.56-.57Zm-.39-2.4a3.56,3.56,0,0,0-.79-.1c-.58,0-1.16.18-1.16.74s.41.72.93.72a2.05,2.05,0,0,0,1-.3V37.29Zm10.2,2.44a5,5,0,0,1-2.38.56,3.81,3.81,0,0,1-4.06-3.76A3.89,3.89,0,0,1,55,32.74a4.73,4.73,0,0,1,2.15.51v2.07a3.88,3.88,0,0,0-2-.68,1.9,1.9,0,0,0-1.7,2.88,1.92,1.92,0,0,0,1.73.9,3.79,3.79,0,0,0,2.13-.72v2Zm1.58-9.64h2.24V36h0l2.54-3.07h2.54l-2.77,3.23,3,4H63.78l-2.64-3.69h0V40.1H58.87ZM1.4,37.84c0-.75-.21-1-1-1H0V35.19H.42c.77,0,1-.3,1-1V31.2a2.24,2.24,0,0,1,2.54-2.39,5.86,5.86,0,0,1,1,.09v1.57a2.74,2.74,0,0,0-.56-.06c-.65,0-.93.28-.93,1.06v2.58c0,1.09-.25,1.67-1,1.93v0c.77.25,1,.83,1,1.92v2.59c0,.78.28,1.06.93,1.06A2.74,2.74,0,0,0,5,41.52v1.57a7,7,0,0,1-1,.08A2.24,2.24,0,0,1,1.4,40.78V37.84Zm67.13.09c0-1.08.25-1.67,1-1.92v0c-.77-.25-1-.84-1-1.93V31.47c0-.78-.28-1.06-.93-1.06a2.74,2.74,0,0,0-.56.06V28.9a5.86,5.86,0,0,1,1-.09A2.24,2.24,0,0,1,70.6,31.2v2.94c0,.75.21,1,1,1H72V36.8h-.42c-.77,0-1,.3-1,1.05V40.8a2.24,2.24,0,0,1-2.54,2.39,5.86,5.86,0,0,1-1-.09V41.53a2.74,2.74,0,0,0,.56.06c.65,0,.93-.28.93-1.06v-2.6Z" transform="translate(0 -28.81)"/></g></g></svg>