<?xml version="1.0" encoding="UTF-8" standalone="no"?>
<!-- Created with Inkscape (http://www.inkscape.org/) -->

<svg
   xmlns:dc="http://purl.org/dc/elements/1.1/"
   xmlns:cc="http://creativecommons.org/ns#"
   xmlns:rdf="http://www.w3.org/1999/02/22-rdf-syntax-ns#"
   xmlns:svg="http://www.w3.org/2000/svg"
   xmlns="http://www.w3.org/2000/svg"
   xmlns:sodipodi="http://sodipodi.sourceforge.net/DTD/sodipodi-0.dtd"
   xmlns:inkscape="http://www.inkscape.org/namespaces/inkscape"
   width="40px"
   height="40px"
   viewBox="0 0 264.58334 264.58334"
   version="1.1"
   id="svg8"
   inkscape:version="0.92.2 (5c3e80d, 2017-08-06)"
   sodipodi:docname="logo-icon.svg">
  <defs
     id="defs2" />
  <sodipodi:namedview
     id="base"
     pagecolor="#ffffff"
     bordercolor="#666666"
     borderopacity="1.0"
     inkscape:pageopacity="0.0"
     inkscape:pageshadow="2"
     inkscape:zoom="0.6066976"
     inkscape:cx="794.32719"
     inkscape:cy="527.7246"
     inkscape:document-units="mm"
     inkscape:current-layer="layer1"
     showgrid="false"
     inkscape:window-width="1920"
     inkscape:window-height="1027"
     inkscape:window-x="1358"
     inkscape:window-y="-8"
     inkscape:window-maximized="1" />
  <metadata
     id="metadata5">
    <rdf:RDF>
      <cc:Work
         rdf:about="">
        <dc:format>image/svg+xml</dc:format>
        <dc:type
           rdf:resource="http://purl.org/dc/dcmitype/StillImage" />
        <dc:title></dc:title>
      </cc:Work>
    </rdf:RDF>
  </metadata>
  <g
     inkscape:label="Layer 1"
     inkscape:groupmode="layer"
     id="layer1"
     transform="translate(21.922625,-7.4702334)">
    <path
       style="fill:#000000;stroke-width:0.26458335"
       d="M 66.183627,265.15514 C 56.745524,264.65969 48.68467,262.60878 41.372642,258.84251 40.539361,258.4133 38.964616,257.65806 37.87321,257.1642 24.668504,251.189 11.885448,240.21503 5.3734354,229.26385 3.4022131,225.94886 0.05129391,219.27419 -1.5038444,215.56503 -5.9989,204.84389 -9.8521502,188.4103 -10.143331,178.71879 c -0.07318,-2.43582 -0.192384,-6.45282 -0.26489,-8.92668 -0.152211,-5.19338 0.20511,-13.08629 0.8085137,-17.85937 0.8601896,-6.80432 3.3934155,-17.79264 5.6861487,-24.66468 2.1973093,-6.58603 6.7584464,-16.67504 10.5905644,-23.42582 C 8.9828893,99.78012 13.961004,92.463118 17.584904,87.809438 20.301222,84.32124 26.564407,77.47227 29.838462,74.409818 38.698329,66.122576 49.734513,59.357588 62.041498,54.669914 l 3.398497,-1.294471 -0.15184,-1.455208 c -0.08351,-0.800365 -0.385892,-3.48133 -0.671959,-5.9577 -0.627142,-5.428957 -1.135007,-13.040705 -0.979453,-14.679801 0.06214,-0.654844 0.124835,-1.505309 0.139313,-1.889922 0.01519,-0.403609 0.222102,-0.775071 0.489342,-0.878502 0.643424,-0.249028 6.775207,-0.862203 11.840104,-1.184004 3.93341,-0.249912 12.436426,-0.6661 27.252088,-1.333878 3.34698,-0.150857 8.52619,-0.391016 11.50937,-0.533687 13.3103,-0.63657 28.48537,-0.822469 43.65625,-0.534803 33.41959,0.633692 66.69552,2.220169 67.58995,3.222446 0.12563,0.140772 -0.34359,5.723215 -0.64133,7.630267 -0.14768,0.945885 -0.51625,3.327135 -0.81903,5.291667 -1.16446,7.555336 -5.02205,27.99366 -7.06625,37.438542 l -0.45813,2.116667 -2.91041,0.164777 c -1.60073,0.09063 -10.82808,0.179914 -20.50521,0.198419 l -17.5948,0.03364 0.076,72.859307 0.076,72.8593 -0.60512,0.16211 c -0.33282,0.0891 -4.33857,0.16373 -8.90167,0.16571 -7.79889,0.003 -8.28479,0.0314 -8.10072,0.46664 0.10769,0.25466 0.31642,0.9574 0.46384,1.56164 0.31706,1.2996 0.56101,1.04101 -5.23325,5.54747 -16.48517,12.8213 -29.26115,19.78247 -46.69896,25.44457 -5.02862,1.63281 -7.18878,2.22907 -11.112495,3.06736 -8.995792,1.92194 -18.821483,2.57812 -29.897918,1.99667 z m 12.964584,-17.02999 c 8.381138,-0.39917 22.511419,-5.43302 33.072919,-11.78211 6.89351,-4.14406 16.79403,-11.30631 21.27713,-15.39235 l 1.3011,-1.18586 -0.33325,-2.49677 c -0.76914,-5.76264 -3.02733,-18.67479 -4.62433,-26.44157 -1.5795,-7.68169 -1.78745,-9.47948 -0.99308,-8.58573 0.41198,0.46352 9.98071,17.35344 15.09642,26.64694 2.78462,5.05872 5.54765,9.98956 6.14005,10.95743 1.24404,2.03252 3.0058,4.46533 3.41823,4.72023 0.41157,0.25436 -4.60471,-9.6804 -7.86825,-15.5831 -1.53835,-2.78239 -4.94188,-8.80937 -7.5634,-13.39327 -2.62151,-4.58391 -5.71124,-10.06078 -6.86606,-12.17084 -1.15482,-2.11005 -2.19831,-3.94004 -2.31887,-4.06664 -0.12145,-0.12755 -0.90703,0.29258 -1.76171,0.94217 -5.43595,4.13147 -14.99141,9.43613 -22.10836,12.27332 -1.3491,0.53783 -2.5173,1.0771 -2.59599,1.19837 -0.21593,0.33277 -4.817896,2.42903 -7.662132,3.49022 -5.210374,1.94399 -6.152333,2.10908 -12.760024,2.23639 -6.72561,0.12958 -10.015204,-0.13541 -14.038392,-1.13085 -7.07793,-1.75127 -14.420165,-5.50453 -17.622542,-9.00844 -3.143268,-3.43924 -6.890065,-10.07992 -8.573275,-15.19495 -1.497426,-4.55047 -1.643566,-5.74864 -1.629678,-13.36146 0.01347,-7.38583 0.356601,-10.4257 1.833798,-16.24618 4.998207,-19.69401 18.414969,-35.96397 39.148619,-47.473924 1.737752,-0.964684 3.283056,-1.795143 3.434009,-1.845458 0.313185,-0.104397 0.336489,0.06647 -1.937568,-14.206316 -1.671365,-10.490073 -3.05227,-20.070917 -3.336811,-23.151042 -0.0941,-1.018646 -0.223038,-2.041417 -0.286525,-2.272827 -0.09233,-0.336537 0.33419,-0.515099 2.131155,-0.892204 1.235625,-0.259302 2.337816,-0.462039 2.449317,-0.450522 0.111498,0.01151 0.421494,1.246444 0.688877,2.744285 0.979477,5.486874 9.10109,35.969925 11.405283,42.807727 1.154986,3.427471 1.048462,2.833151 -0.640212,-3.571875 C 93.08118,88.86647 89.291138,73.712099 88.969994,72.028568 88.817322,71.228204 88.080309,67.358672 87.332189,63.42961 c -1.423236,-7.474726 -1.609048,-8.023553 -3.381563,-9.988021 -1.16735,-1.293765 -1.532871,-1.282785 -6.935224,0.208296 -16.379339,4.520792 -28.950365,10.593308 -39.406775,19.035697 -2.940477,2.374106 -8.82213,8.193913 -13.515584,13.373468 -7.679037,8.474353 -16.5432006,22.80466 -21.59855,34.91744 -2.51041887,6.01504 -4.7819647,13.56997 -6.5777649,21.87696 -2.0919649,9.67699 -2.6191901,16.09399 -2.3654692,28.79075 0.1908222,9.54915 0.3773992,11.60569 1.6202739,17.85937 1.8794379,9.45664 4.4760236,18.30797 7.4320363,25.3346 l 1.4865792,3.53369 2.7082483,2.65554 c 7.1554844,7.01623 19.6712794,15.78322 28.2741084,19.80528 13.40235,6.26597 25.075696,8.19736 44.075706,7.29247 z m 79.242709,-33.35621 c 2.03729,-0.21095 4.4353,-0.38602 5.32889,-0.38904 l 1.62473,-0.005 0.15827,-2.84427 c 0.087,-1.56435 0.22372,-4.33256 0.30372,-6.15157 0.08,-1.81901 0.43746,-9.73666 0.79435,-17.59479 1.28997,-28.40268 2.03317,-53.20134 2.37485,-79.24271 0.28807,-21.95519 0.81984,-31.524821 1.87539,-33.749223 1.03482,-2.180728 1.60147,-2.244196 22.06299,-2.471121 l 14.41486,-0.159864 0.87324,-2.38125 c 0.48028,-1.309688 3.05678,-8.929688 5.72554,-16.933334 2.66876,-8.003646 5.4109,-16.082486 6.09365,-17.952979 0.68274,-1.870491 1.18217,-3.460065 1.10985,-3.532386 -0.21836,-0.21836 -15.24789,-0.816788 -41.70595,-1.660591 -25.77948,-0.822162 -49.64453,-0.826116 -66.675,-0.01105 -10.34242,0.494982 -30.966667,1.061506 -38.695318,1.062915 l -7.606771,0.0014 v 0.806473 c 0,0.44356 0.415956,4.52145 0.924345,9.061981 1.194271,10.666227 1.227508,10.927043 1.435436,11.263479 0.118899,0.192381 0.772443,0.07732 2.016911,-0.355087 6.603699,-2.294543 12.48191,-3.182622 14.358954,-2.169353 1.332645,0.719394 2.819662,3.287078 3.460708,5.975734 1.35867,5.698482 1.908085,8.163449 2.85057,12.78917 l 1.010788,4.960938 12.966457,-1.59e-4 12.96646,-1.59e-4 v 5.357972 c 0,58.999844 0.17507,103.650684 0.40642,103.650684 0.40133,0 8.08256,-4.66728 9.75524,-5.9275 l 1.43042,-1.07769 0.95083,1.13092 c 0.52296,0.62201 2.03348,3.12091 3.35671,5.55312 1.32322,2.4322 4.1635,7.45828 6.31172,11.16906 4.88695,8.44161 10.04752,17.67547 11.49681,20.57136 0.96741,1.93303 0.53306,1.84576 6.24393,1.25443 z m -63.980841,-22.5005 c 5.055,-0.75059 9.568381,-2.35676 17.159651,-6.10656 l 4.09098,-2.0208 0.0331,-42.49636 c 0.0182,-23.373 0.1075,-46.574393 0.19844,-51.558654 l 0.16535,-9.062294 -10.9319,2.65e-4 c -10.289719,2.64e-4 -10.923428,0.02751 -10.787858,0.463335 0.393287,1.264312 5.926808,22.554428 6.079788,23.391858 l 0.1769,0.96843 -1.396591,0.45753 c -2.051217,0.67199 -4.84958,2.23937 -9.466385,5.30219 -10.317313,6.84456 -18.753143,15.18391 -23.783203,23.51118 -3.305789,5.47275 -6.106589,12.23706 -7.219667,17.43649 -0.678206,3.16805 -0.817565,10.25173 -0.258426,13.13597 2.798201,14.43411 13.427575,24.56389 28.016542,26.69972 2.437908,0.35691 4.957701,0.318 7.923289,-0.12235 z"
       id="path3712"
       inkscape:connector-curvature="0"
       sodipodi:nodetypes="cccsscsssssssccscccssssccscccsccccccccsccccscccsccccccccccccscssssscsccccssscsssssssssscsscccccssscsccsccssccsscscsscccssccscsccccccsscccccsccssscc" />
  </g>
</svg>
