<?xml version="1.0" encoding="UTF-8"?>
<svg xmlns="http://www.w3.org/2000/svg" xmlns:xlink="http://www.w3.org/1999/xlink" width="72px" height="72px" viewBox="0 0 72 72" version="1.1">
<g id="surface1">
<path style=" stroke:none;fill-rule:nonzero;fill:rgb(100%,100%,100%);fill-opacity:1;" d="M 23.972656 70.125 C 21.40625 69.988281 19.214844 69.433594 17.222656 68.40625 C 17 68.285156 16.566406 68.082031 16.269531 67.949219 C 12.675781 66.324219 9.199219 63.332031 7.425781 60.355469 C 6.890625 59.453125 5.980469 57.636719 5.558594 56.628906 C 4.332031 53.707031 3.285156 49.238281 3.203125 46.597656 C 3.1875 45.9375 3.152344 44.84375 3.136719 44.171875 C 3.09375 42.761719 3.1875 40.609375 3.355469 39.3125 C 3.589844 37.457031 4.277344 34.46875 4.902344 32.597656 C 5.5 30.808594 6.738281 28.0625 7.78125 26.222656 C 8.410156 25.121094 9.765625 23.128906 10.75 21.863281 C 11.488281 20.910156 13.191406 19.046875 14.082031 18.214844 C 16.496094 15.957031 19.5 14.121094 22.847656 12.84375 L 23.777344 12.488281 L 23.734375 12.09375 C 23.707031 11.878906 23.625 11.152344 23.546875 10.472656 C 23.378906 8.996094 23.238281 6.925781 23.28125 6.480469 C 23.300781 6.300781 23.316406 6.074219 23.324219 5.964844 C 23.324219 5.855469 23.378906 5.753906 23.453125 5.730469 C 23.628906 5.660156 25.296875 5.488281 26.675781 5.40625 C 27.746094 5.339844 30.0625 5.222656 34.09375 5.042969 C 35.003906 5 36.410156 4.9375 37.222656 4.894531 C 40.84375 4.722656 44.972656 4.671875 49.105469 4.75 C 58.199219 4.921875 67.253906 5.355469 67.496094 5.628906 C 67.53125 5.667969 67.402344 7.1875 67.324219 7.703125 C 67.28125 7.964844 67.183594 8.609375 67.097656 9.144531 C 66.78125 11.199219 65.734375 16.761719 65.175781 19.332031 L 65.050781 19.90625 L 64.261719 19.953125 C 63.824219 19.980469 61.3125 20 58.683594 20.003906 L 53.890625 20.015625 L 53.933594 59.671875 L 53.769531 59.714844 C 53.675781 59.738281 52.589844 59.761719 51.34375 59.761719 C 49.222656 59.761719 49.09375 59.765625 49.140625 59.886719 C 49.171875 59.953125 49.230469 60.144531 49.265625 60.3125 C 49.355469 60.667969 49.421875 60.59375 47.84375 61.824219 C 43.359375 65.308594 39.878906 67.203125 35.136719 68.746094 C 33.765625 69.1875 33.183594 69.347656 32.113281 69.578125 C 29.660156 70.105469 26.988281 70.28125 23.972656 70.125 Z M 27.503906 65.488281 C 29.785156 65.378906 33.628906 64.011719 36.503906 62.28125 C 38.378906 61.15625 41.074219 59.203125 42.292969 58.09375 L 42.644531 57.769531 L 42.558594 57.09375 C 42.347656 55.519531 41.734375 52.011719 41.296875 49.894531 C 40.871094 47.808594 40.8125 47.316406 41.03125 47.558594 C 41.140625 47.6875 43.746094 52.28125 45.136719 54.8125 C 45.894531 56.1875 46.644531 57.53125 46.808594 57.792969 C 47.144531 58.34375 47.625 59.011719 47.738281 59.078125 C 47.847656 59.144531 46.484375 56.441406 45.597656 54.839844 C 45.175781 54.078125 44.25 52.4375 43.535156 51.191406 C 42.824219 49.941406 41.984375 48.453125 41.671875 47.878906 C 41.355469 47.308594 41.074219 46.808594 41.042969 46.769531 C 41.003906 46.738281 40.792969 46.855469 40.558594 47.03125 C 39.078125 48.15625 36.480469 49.597656 34.542969 50.371094 C 34.175781 50.515625 33.859375 50.660156 33.839844 50.699219 C 33.777344 50.785156 32.527344 51.355469 31.75 51.644531 C 30.332031 52.175781 30.078125 52.21875 28.28125 52.253906 C 26.449219 52.292969 25.550781 52.21875 24.457031 51.949219 C 22.53125 51.46875 20.535156 50.449219 19.660156 49.496094 C 18.808594 48.558594 17.785156 46.75 17.332031 45.359375 C 16.921875 44.121094 16.886719 43.796875 16.886719 41.722656 C 16.890625 39.714844 16.984375 38.886719 17.386719 37.300781 C 18.746094 31.941406 22.394531 27.515625 28.042969 24.386719 C 28.511719 24.121094 28.933594 23.894531 28.972656 23.878906 C 29.058594 23.855469 29.066406 23.902344 28.449219 20.015625 C 27.996094 17.160156 27.613281 14.550781 27.535156 13.714844 C 27.515625 13.4375 27.480469 13.160156 27.464844 13.097656 C 27.4375 13.003906 27.550781 12.957031 28.042969 12.855469 C 28.375 12.785156 28.675781 12.730469 28.707031 12.734375 C 28.738281 12.734375 28.824219 13.074219 28.894531 13.480469 C 29.160156 14.972656 31.371094 23.265625 32 25.128906 C 32.3125 26.0625 32.285156 25.902344 31.824219 24.15625 C 31.296875 22.152344 30.265625 18.027344 30.175781 17.566406 C 30.136719 17.347656 29.933594 16.296875 29.730469 15.230469 C 29.34375 13.191406 29.292969 13.046875 28.8125 12.511719 C 28.496094 12.15625 28.394531 12.160156 26.921875 12.566406 C 22.46875 13.796875 19.046875 15.449219 16.199219 17.746094 C 15.402344 18.390625 13.796875 19.980469 12.519531 21.386719 C 10.433594 23.691406 8.019531 27.59375 6.644531 30.886719 C 5.964844 32.527344 5.34375 34.582031 4.855469 36.84375 C 4.285156 39.472656 4.140625 41.21875 4.207031 44.675781 C 4.261719 47.277344 4.3125 47.832031 4.652344 49.535156 C 5.160156 52.109375 5.871094 54.515625 6.671875 56.433594 L 7.078125 57.390625 L 7.816406 58.113281 C 9.761719 60.027344 13.167969 62.410156 15.511719 63.503906 C 19.15625 65.207031 22.332031 65.734375 27.503906 65.488281 Z M 49.066406 56.410156 C 49.625 56.355469 50.277344 56.308594 50.515625 56.308594 L 50.957031 56.300781 L 51.003906 55.53125 C 51.027344 55.105469 51.0625 54.347656 51.089844 53.855469 C 51.109375 53.359375 51.203125 51.207031 51.300781 49.066406 C 51.652344 41.339844 51.855469 34.589844 51.949219 27.503906 C 52.027344 21.53125 52.171875 18.925781 52.457031 18.316406 C 52.738281 17.730469 52.894531 17.707031 58.464844 17.644531 L 62.386719 17.605469 L 62.625 16.957031 C 62.753906 16.597656 63.453125 14.527344 64.183594 12.347656 C 64.90625 10.171875 65.652344 7.972656 65.839844 7.464844 C 66.027344 6.953125 66.160156 6.519531 66.140625 6.5 C 66.082031 6.441406 61.988281 6.28125 54.792969 6.050781 C 47.777344 5.828125 41.28125 5.824219 36.644531 6.046875 C 33.832031 6.183594 28.21875 6.332031 26.121094 6.332031 L 24.046875 6.339844 L 24.046875 6.558594 C 24.046875 6.675781 24.160156 7.785156 24.300781 9.019531 C 24.625 11.921875 24.636719 11.996094 24.691406 12.089844 C 24.722656 12.140625 24.902344 12.109375 25.238281 11.988281 C 27.035156 11.363281 28.636719 11.125 29.144531 11.402344 C 29.511719 11.59375 29.910156 12.292969 30.089844 13.027344 C 30.457031 14.578125 30.609375 15.246094 30.863281 16.503906 L 31.140625 17.855469 L 38.199219 17.855469 L 38.199219 19.3125 C 38.199219 35.371094 38.246094 47.519531 38.308594 47.519531 C 38.417969 47.519531 40.503906 46.25 40.964844 45.90625 L 41.347656 45.613281 L 41.609375 45.921875 C 41.75 46.089844 42.160156 46.769531 42.519531 47.433594 C 42.878906 48.09375 43.65625 49.464844 44.238281 50.472656 C 45.566406 52.769531 46.972656 55.28125 47.371094 56.066406 C 47.628906 56.59375 47.515625 56.574219 49.066406 56.410156 Z M 31.65625 50.285156 C 33.03125 50.082031 34.261719 49.644531 36.328125 48.625 L 37.4375 48.078125 L 37.449219 36.511719 C 37.453125 30.152344 37.480469 23.839844 37.503906 22.484375 L 37.546875 20.015625 L 34.574219 20.015625 C 31.769531 20.015625 31.597656 20.019531 31.636719 20.140625 C 31.746094 20.484375 33.25 26.28125 33.292969 26.503906 L 33.339844 26.769531 L 32.957031 26.894531 C 32.402344 27.078125 31.640625 27.503906 30.386719 28.339844 C 27.578125 30.203125 25.28125 32.46875 23.910156 34.734375 C 23.011719 36.222656 22.25 38.066406 21.949219 39.480469 C 21.761719 40.34375 21.722656 42.269531 21.875 43.058594 C 22.640625 46.984375 25.53125 49.738281 29.5 50.324219 C 30.167969 50.417969 30.847656 50.40625 31.65625 50.285156 Z M 31.65625 50.285156 "/>
</g>
</svg>
