<svg id="ClamAV" xmlns="http://www.w3.org/2000/svg" viewBox="0 0 72 72"><defs><style>.cls-1{fill:#ffffff;}</style></defs><path class="cls-1" d="M60.33,43.47c-1.17-3.38-1.95-5.13-3.7-5.28-1-.08-11.29,6.06-13.77,7.39s-5.7,2.75-5.52,4.27c.28,2.34,2.88,6.52,6.24,7.35a13.66,13.66,0,0,0,6.56.15A14.9,14.9,0,0,0,56.74,54,10.15,10.15,0,0,0,60.33,43.47ZM53.59,55.25a14.51,14.51,0,0,1-5.89,1.51,9.52,9.52,0,0,1-7.13-2.87,9.37,9.37,0,0,1-2-3.75A.82.82,0,0,1,39.06,49c3-1.61,14.69-8,16.22-8.88a.69.69,0,0,1,.92.08,7.48,7.48,0,0,1,2,2.56A9.38,9.38,0,0,1,53.59,55.25Z"/><path class="cls-1" d="M49.51,48.73a36.28,36.28,0,0,1,.61,7.36,2,2,0,0,0,.15.67,16.9,16.9,0,0,0,.39-14.9,24,24,0,0,0-3-4.63c-2.18-2.51-5.55.32-5.55.32C44.47,39.07,47.83,41.52,49.51,48.73Z"/><path class="cls-1" d="M29.14,45.58c-2.48-1.33-12.76-7.47-13.77-7.39-1.75.15-2.53,1.9-3.7,5.28A10.15,10.15,0,0,0,15.26,54a14.9,14.9,0,0,0,6.6,3.35,13.66,13.66,0,0,0,6.56-.15c3.36-.83,6-5,6.24-7.35C34.84,48.33,31.61,46.91,29.14,45.58Zm4.29,4.56a9.37,9.37,0,0,1-2,3.75,9.52,9.52,0,0,1-7.13,2.87,14.51,14.51,0,0,1-5.89-1.51,9.38,9.38,0,0,1-4.62-12.51,7.48,7.48,0,0,1,2-2.56.69.69,0,0,1,.92-.08C18.25,41,29.94,47.37,33,49A.82.82,0,0,1,33.43,50.14Z"/><path class="cls-1" d="M22.49,48.73a36.28,36.28,0,0,0-.61,7.36,2,2,0,0,1-.15.67,16.9,16.9,0,0,1-.39-14.9,24,24,0,0,1,3-4.63c2.18-2.51,5.55.32,5.55.32C27.53,39.07,24.17,41.52,22.49,48.73Z"/><path class="cls-1" d="M15.36,24.81l0,0a10.22,10.22,0,0,0-1.88-1.29,5.23,5.23,0,0,1-.47-.31L12.77,23l-.49-.37-.14-.1a32.35,32.35,0,0,1-5.94-6c-.19-.24-.35-.48-.52-.72l-.18-.24L5.1,15l-.33-.51c-.06-.1-.12-.19-.17-.29A29.12,29.12,0,0,1,.91,4.83,24.13,24.13,0,0,1,.72,2c.35.75.72,1.49,1.13,2.22h0c.17.31.35.62.53.92.09.15.18.29.27.45L3,6.16c.11.19.23.37.36.56l.24.36L4,7.62l.31.44c.11.15.22.31.34.46s.29.39.44.58l.24.32.52.64.23.28.47.54.35.4c.11.13.23.25.35.38l.57.61.15.15A37.85,37.85,0,0,0,10.78,15c.4.31.79.59,1.18.85a11.06,11.06,0,0,0,3.48,1.4c2.24.57,3.1.1,3.3-.23a1.2,1.2,0,0,0-.11-1.21,1.91,1.91,0,0,0-1.89-1,10.86,10.86,0,0,0-2.35.38c-1.59.36-1.79.17-1.79.17C9.13,13.11,4.29,8.75.87.8.65.3.58.15.32.21A.31.31,0,0,0,.07.52C-.3,4.31.72,15,6.42,23.15a6.75,6.75,0,0,1,.84,1.37,3.78,3.78,0,0,1-.34,2.81c-1,2-.26,6.61,1.7,6.77,1.14.09,1.83-1.72,2.37-2.56a50.41,50.41,0,0,1,3.59-4.26,3,3,0,0,0,1-1.8A1.18,1.18,0,0,0,15.36,24.81Z"/><path class="cls-1" d="M36.07,5.61A29.55,29.55,0,0,1,58.79,16.5a11.11,11.11,0,0,0,2.65-1.7c-.4-.44-.8-.87-1.22-1.29a34.15,34.15,0,0,0-48.29,0c-.44.44-.87.9-1.28,1.36a10.88,10.88,0,0,0,2.67,1.67A29.55,29.55,0,0,1,36.07,5.61Z"/><path class="cls-1" d="M61.84,20.85a33.24,33.24,0,0,1,4.52,16.81,32.79,32.79,0,0,1-8.87,22.66A29.29,29.29,0,0,1,36.07,69.7c-16.7,0-30.28-14.37-30.28-32a33.19,33.19,0,0,1,4.46-16.72,34,34,0,0,1-2.42-2.48A34.15,34.15,0,0,0,60.22,61.8a34.14,34.14,0,0,0,4-43.43C63.42,19.31,62.6,20.14,61.84,20.85Z"/><path class="cls-1" d="M65.58,23.15C71.28,15,72.3,4.31,71.93.52a.31.31,0,0,0-.25-.31c-.26-.06-.33.09-.55.59-3.42,8-8.26,12.31-11.73,14.57,0,0-.2.19-1.79-.17a10.86,10.86,0,0,0-2.35-.38,1.91,1.91,0,0,0-1.89,1A1.2,1.2,0,0,0,53.26,17c.2.33,1.06.8,3.3.23A11.06,11.06,0,0,0,60,15.82c.39-.26.78-.54,1.18-.85a37.85,37.85,0,0,0,2.84-2.55l.15-.15.57-.61c.12-.13.24-.25.35-.38l.35-.4.47-.54.23-.28.52-.64.24-.32c.15-.19.3-.38.44-.58s.23-.31.34-.46L68,7.62l.37-.54.24-.36c.13-.19.25-.37.36-.56l.35-.55.27-.45c.18-.3.36-.61.53-.92h0c.41-.73.78-1.47,1.13-2.22a24.13,24.13,0,0,1-.19,2.82,29.12,29.12,0,0,1-3.69,9.32l-.17.29L66.9,15l-.4.6-.18.24-.52.72a32.68,32.68,0,0,1-5.94,6l-.14.11-.49.35-.21.15c-.3.21-.47.31-.47.31a9.87,9.87,0,0,0-1.88,1.29l0,0a1.19,1.19,0,0,0-.24.68,3.09,3.09,0,0,0,1,1.79A50.41,50.41,0,0,1,61,31.54c.54.84,1.23,2.65,2.37,2.56,2-.16,2.71-4.75,1.7-6.77a3.78,3.78,0,0,1-.34-2.81A6.75,6.75,0,0,1,65.58,23.15Z"/></svg>
