<?xml version="1.0" encoding="utf-8"?>
<svg version="1.1" xmlns="http://www.w3.org/2000/svg" xmlns:xlink="http://www.w3.org/1999/xlink" height="74" width="103.70396694214878">
  <defs>
    <rect id="rect-1" opacity="1" x="0" y="0" width="103.70396694214878" height="74"/>
    <path id="path-2" opacity="1" fill-rule="evenodd" d="M101.19652892561983,32.150247933884295 C99.13553719008264,32.150247933884295 97.75338842975206,30.927107438016527 97.75338842975206,28.48082644628099 L97.75338842975206,14.163966942148761 C97.75338842975206,5.039338842975207 93.99834710743802,0 84.29884297520661,0 L79.79157024793389,0 L79.79157024793389,9.632231404958679 L81.16760330578512,9.632231404958679 C84.98380165289257,9.632231404958679 86.8001652892562,11.736033057851241 86.8001652892562,15.503305785123967 L86.8001652892562,28.132231404958677 C86.8001652892562,33.63636363636363 88.43305785123967,35.8502479338843 91.99851239669422,37 C88.43305785123967,38.08247933884297 86.8001652892562,40.38198347107438 86.8001652892562,45.867768595041326 L86.8001652892562,55.24314049586777 C86.8001652892562,57.86066115702479 86.8001652892562,60.410909090909094 86.11520661157024,63.02842975206612 C85.44074561638749,65.47124711818738 84.29152636070886,67.75721670452823 82.73322314049588,69.75570247933885 C81.86094459912668,70.87776698401795 80.8499057714458,71.88469589776517 79.72429752066117,72.75239669421488 L79.72429752066117,74 L84.23768595041324,74 C93.94330578512397,74 97.69223140495868,68.9606611570248 97.69223140495868,59.83603305785124 L97.69223140495868,45.5497520661157 C97.69223140495868,42.9995041322314 99.00710743801653,41.8803305785124 101.13537190082644,41.8803305785124 L103.70396694214875,41.8803305785124 L103.70396694214875,32.21752066115703 L101.19652892561983,32.21752066115703 "/>
    <path id="path-3" opacity="1" fill-rule="evenodd" d="M70.56909090909089,14.54314049586777 L56.61305785123965,14.54314049586777 C56.46169161218178,14.543176267257184 56.31669543690302,14.482221736049523 56.21082034307617,14.374045009748183 C56.10494524924933,14.265868283446846 56.04712264840748,14.119594934705184 56.050413223140474,13.968264462809918 L56.050413223140474,12.885785123966944 C56.04878248874695,12.73493792608516 56.10714687236262,12.589622142684119 56.21266507836886,12.481810062634276 C56.31818328437509,12.373997982584434 56.462210465820135,12.312522384293 56.61305785123966,12.310909090909094 L70.56909090909089,12.310909090909094 C70.72100114481151,12.310900308698756 70.86660215117743,12.371661883026754 70.97344296036151,12.479651518116032 C71.08028376954559,12.58764115320531 71.13948468332083,12.7338836702028 71.1378512396694,12.885785123966945 L71.1378512396694,13.968264462809918 C71.1411744143915,14.120661724806599 71.08252080732369,14.267885605371742 70.97531198533632,14.376247210391229 "/>
    <path id="path-4" opacity="1" fill-rule="evenodd" d="M72.89305785123965,28.321818181818184 L62.747107438016506,28.321818181818184 C62.59681912190677,28.321827060173803 62.45277358323237,28.261709824859537 62.34707967151032,28.15486706627094 C62.24138575978827,28.048024307682347 62.18282924099887,27.903337289256044 62.18446280991734,27.753057851239667 L62.18446280991734,26.664462809917357 C62.18283207552381,26.513615612035572 62.24119645913949,26.36829982863453 62.34671466514572,26.260487748584687 C62.45223287115195,26.152675668534844 62.596260052597,26.091200070243413 62.74710743801651,26.089586776859505 L72.89305785123965,26.089586776859505 C73.04390523665916,26.091200070243413 73.1879324181042,26.15267566853485 73.29345062411043,26.26048774858469 C73.39896883011666,26.368299828634534 73.45733321373234,26.513615612035576 73.45570247933881,26.664462809917357 L73.45570247933881,27.75305785123967 "/>
    <path id="path-5" opacity="1" fill-rule="evenodd" d="M76.90495867768593,21.435537190082638 L56.61305785123965,21.435537190082638 C56.46221046582013,21.43392389669873 56.31818328437508,21.372448298407292 56.21266507836886,21.264636218357452 C56.10714687236262,21.15682413830761 56.04878248874695,21.011508354906567 56.050413223140474,20.860661157024786 L56.050413223140474,19.778181818181807 C56.04712264840748,19.62685134628654 56.10494524924933,19.48057799754488 56.21082034307617,19.37240127124354 C56.31669543690302,19.264224544942202 56.461691612181774,19.20327001373454 56.61305785123965,19.203305785123955 L76.8376859504132,19.203305785123955 C76.98905218947107,19.203270013734542 77.13404836474982,19.264224544942206 77.23992345857665,19.372401271243543 C77.3457985524035,19.48057799754488 77.40362115324535,19.626851346286543 77.40033057851235,19.778181818181807 L77.40033057851235,20.860661157024786 C77.41956622507338,21.004394015300313 77.37640876758527,21.149491172977704 77.28174631155134,21.259346368868925 "/>
    <path id="path-6" opacity="1" fill-rule="evenodd" d="M40.51652892561983,17.668264462809923 C41.88707717070149,17.655793381235192 43.254281280553315,17.805652089972707 44.58958677685948,18.114710743801652 L44.58958677685948,15.503305785123967 C44.5895867768595,11.803305785123968 46.46710743801652,9.632231404958679 50.22826446280991,9.632231404958679 L51.61041322314049,9.632231404958679 L51.61041322314049,0 L47.09702479338843,0 C37.38528925619835,0 33.642479338842975,5.039338842975208 33.642479338842975,14.163966942148761 L33.642479338842975,18.88528925619835 "/>
    <path id="path-7" opacity="1" fill-rule="evenodd" d="M77.19386896865578,66.6130522717184 C74.08350630796558,70.63208531552664 69.47063028020057,73.21123285043785 64.41792282101501,73.75632900721118 L42.40097397874278,73.82360301756256 C40.03608449926285,73.80423784158094 37.77603840422775,72.84490877419105 36.11931345545363,71.15720628136094 C34.46258850667949,69.4695037885308 33.5452875036448,67.1920755281779 33.56973116534238,64.82723308784517 L33.56973116534238,48.03930959561254 C33.56973116534238,43.446329434349636 36.6398723650148,39.104097857123705 40.45614349767533,39.042939665895176 L42.4009739787436,39.042939665895176 C43.1648910289835,39.05628522231629 43.777149845277194,39.67942863978931 43.77703328138474,40.443462245028606 L43.77703328138474,59.1150580271001 C43.75575472385984,60.44211585596537 44.26722680030162,61.72234191144633 45.19705921929225,62.66941473375569 C46.12689163828286,63.61648755606503 47.39750616570185,64.15139050130261 48.72473095177315,64.1544929843313 L62.58929290328183,64.1544929843313 C63.47690432700502,64.17316539732995 64.36258338094636,64.06400030463486 65.2190951261088,63.83035457082006 C67.06355525169141,63.28755715876839 68.68725790627703,62.17152934473265 69.85488602123169,60.64401280781344 C72.10337164480445,57.7775164382769 72.50494151645616,53.87418085969102 70.88717884383234,50.60993010782701 C69.26941617120853,47.345679355963 65.92014038420116,45.30126288580857 62.277386128016346,45.354465000679895 C60.25176139667183,45.462857598506915 58.22129594531835,45.44243038068646 56.19826191990002,45.293306809451366 C53.134236539350454,44.90801020471161 52.443148978468024,42.93260062802995 50.99981566547463,40.12543965064023 C49.68267520151556,37.23527600183652 47.26493833350661,34.99149287934006 44.28464626858157,33.89341996445259 C41.41203774381814,32.87589926457875 38.25059235431918,33.05888390009368 35.51456164640978,34.40103295164943 C33.027895996706135,35.70747883927937 31.062173345252404,37.824244943643926 29.94305042549031,40.400651511168626 C28.2606913678416,43.839666989017786 24.562482720328674,45.81204493435802 20.769321741210184,45.293306809451366 C19.5458887617649,45.10839119953672 18.297691789430516,45.17288137644067 17.09983026749816,45.48289720225982 C13.058013416799884,46.479106869057645 10.04627139905192,49.86032813353498 9.522330374282769,53.990001602148894 C9.471446783884481,54.455010947798435 9.451017157417839,54.922849393884555 9.46117218305423,55.390524181282345 C9.496111405520713,56.79024605216375 8.907990357623138,58.13327651424764 7.855655483193349,59.056874574633824 C6.803320608763563,59.98047263502002 5.395332753606901,60.389358179881604 4.011977344591839,60.17309473535373 C1.6329237058018615,59.855072140965355 8.181490749860417e-16,57.64726143761527 0,55.200933788473876 C0.004025719388352049,54.381982311553955 0.06738842934022167,53.564398957336266 0.18959039280845716,52.75460613933254 C1.2416810170216563,44.733064932891025 7.075797939036209,38.16241497753243 14.916482840639476,36.16850467815406 C17.12189412443547,35.61455329336063 19.409198095134826,35.46330946196475 21.66834715226964,35.72204988218577 C21.73562116262103,35.72204988218577 21.73562116262103,35.66089169095723 21.79677935384957,35.66089169095723 C25.187480115882305,28.287641660191895 32.571565322383826,23.573603017562565 40.68703839781455,23.601251449519747 C48.802511473245254,23.628899881476922 59.55584661834656,35.85048208376569 59.49468842711801,35.789323892537155 C61.77668850276348,35.480769762589894 63.98692178773008,35.52435182736388 66.13035217541398,35.97891428534561 C74.02587466301772,37.507869066058966 79.88700566385197,44.65114580155178 80.88999999999993,52.75460613933255 C80.88999999999993,62.6694147337557 80.38349505368798,62.596984374470786 77.19386896865578,66.6130522717184Z"/>
  </defs>
  <g opacity="1">
    <g opacity="1">
      <use xlink:href="#path-2" fill="rgb(255,255,255)" fill-opacity="1"/>
    </g>
    <g opacity="1">
      <use xlink:href="#path-3" fill="rgb(255,255,255)" fill-opacity="1"/>
    </g>
    <g opacity="1">
      <use xlink:href="#path-4" fill="rgb(255,255,255)" fill-opacity="1"/>
    </g>
    <g opacity="1">
      <use xlink:href="#path-5" fill="rgb(255,255,255)" fill-opacity="1"/>
    </g>
    <g opacity="1">
      <use xlink:href="#path-6" fill="rgb(255,255,255)" fill-opacity="1"/>
    </g>
    <g opacity="1">
      <use xlink:href="#path-7" fill="rgb(255,255,255)" fill-opacity="1"/>
    </g>
  </g>
</svg>