<svg width="72" height="72" viewBox="0 0 36 35" xmlns="http://www.w3.org/2000/svg"><g transform="translate(.91 .273)" fill="#FFF" fill-rule="nonzero"><circle cx="19.773" cy="17.727" r="2.727"/><path d="M22.58 19.773a5.11 5.11 0 01-1.907 1.347v.015a22.89 22.89 0 002.567 6.084 9.593 9.593 0 01-3.228 1.037l-.16.014-.192.015-.381.03c-.235 0-.47.015-.704 0a9.174 9.174 0 01-2.831-.489 9.158 9.158 0 01-1.247-.503 9.216 9.216 0 01-1.056-.592 8.645 8.645 0 01-.836-.607c-.25-.193-.44-.385-.616-.533-.323-.311-.5-.504-.5-.504s.148.208.426.563c.147.178.323.385.543.607.25.266.499.503.777.74.323.281.66.533 1.013.77.396.266.806.503 1.232.71.455.223.939.415 1.423.578a11.307 11.307 0 002.376.474l.381.03.191.014h.22c.528 0 1.056-.03 1.584-.104a10.929 10.929 0 002.626-.695c.323.444.66.873 1.012 1.288-.014.014-.03.014-.044.03l-.425.266-.059.03-.015.014c-.073.03.089-.044.074-.03h-.015l-.03.015c-.043.015-.087.045-.131.06l-.264.133-.147.074-.073.044-.03.015h-.014c-.015 0 .088-.044.044-.015l-.015.015-.308.133c-.103.045-.22.09-.323.148l-.044.015c.074-.03.015 0 .03-.015h-.015l-.015.015-.088.03-.176.074a12.723 12.723 0 01-5.046.858l-.22-.014-.25-.015-.513-.045c-.308-.044-.63-.074-.953-.148a12.981 12.981 0 01-3.667-1.258c-.279-.148-.543-.296-.807-.444-.264-.148-.499-.326-.748-.489-.44-.31-.88-.651-1.276-1.006-.352-.311-.675-.637-.983-.977-.294-.297-.499-.593-.69-.83-.19-.236-.308-.429-.41-.562l-.147-.207s.044.074.117.207c.088.133.191.355.352.607.162.252.352.562.616.903.28.385.587.755.895 1.095.382.415.778.815 1.203 1.17.235.192.47.4.719.577.25.193.513.385.792.563.572.37 1.159.696 1.775.992a13.9 13.9 0 001.98.74c.338.104.704.178 1.056.266l.5.09.248.044.28.044c.689.089 1.378.133 2.067.133a14.735 14.735 0 003.682-.518l.176-.044.088-.03.132-.044c.118-.045.235-.074.338-.119l.323-.103.352-.134c.102-.044.19-.074.278-.103a.519.519 0 00.132-.06l.03-.014h.014l.088-.045.015-.014.059-.03.44-.222c.234-.119.41-.207.557-.267.382.37.763.726 1.174 1.052 0 0 1.921 1.998 2.977 1.184.998-.77-.146-3.198-.146-3.198a22.467 22.467 0 00-8.23-10.925zM16.189 16.965a22.233 22.233 0 00-6.435-.906c.058-1.164.351-2.3.85-3.35l.073-.143.088-.173.176-.33c.117-.201.22-.403.366-.59a9.703 9.703 0 011.906-2.098 8.21 8.21 0 011.085-.777 9.494 9.494 0 011.07-.575c.308-.143.63-.273.952-.388.294-.115.558-.172.763-.23.425-.1.689-.158.689-.158s-.25.015-.704.072c-.22.029-.498.058-.806.13a11.87 11.87 0 00-1.026.258c-.396.13-.792.273-1.188.446-.44.187-.85.417-1.246.661-.44.273-.85.56-1.245.891-.41.345-.792.705-1.144 1.107-.176.187-.352.417-.528.633l-.22.302-.102.158-.117.172a9.521 9.521 0 00-.748 1.366 10.104 10.104 0 00-.82 2.674v.043a19.85 19.85 0 00-1.584.201v-.273-.575c.015-.072-.014.1-.014.086V15.556c0-.043.014-.086.014-.144.015-.1.015-.187.03-.287 0-.058.014-.1.014-.158v-.13c0-.014-.014.1-.014.043v-.014l.044-.33c.014-.116.029-.23.058-.346v-.043c-.015.072 0 .015-.015.029v-.044l.015-.085.03-.187A13.301 13.301 0 018.433 9.23l.132-.187.147-.201.308-.403c.205-.23.395-.488.63-.718a12.964 12.964 0 012.99-2.401c.264-.158.528-.302.806-.431.264-.144.543-.259.792-.374a14.808 14.808 0 011.524-.546c.44-.13.895-.23 1.349-.317.41-.086.762-.115 1.055-.158.294-.028.528-.043.69-.057h.234l-.25-.015c-.16 0-.395-.014-.688-.014-.293.014-.66 0-1.085.043-.469.043-.938.1-1.392.187-.557.1-1.1.23-1.628.403-.278.086-.571.186-.864.301-.294.101-.587.23-.88.374-.616.288-1.202.604-1.774.963-.586.374-1.143.805-1.67 1.265-.264.216-.528.49-.777.733l-.338.374-.176.187-.175.216c-.44.517-.85 1.078-1.202 1.653a13.902 13.902 0 00-1.51 3.32l-.059.173-.03.086-.028.13c-.03.115-.06.23-.088.345-.03.115-.06.215-.088.33-.03.13-.044.245-.074.36-.014.1-.044.2-.058.287-.015.043-.015.086-.03.144V15.326l-.014.086v.086c-.015.173-.03.331-.059.49-.044.445-.073.732-.088.862-.513.13-1.026.287-1.524.46 0 0-2.683.618-2.536 1.912.146 1.221 2.785 1.466 2.785 1.466 4.559.92 9.293.417 13.544-1.438a5.033 5.033 0 01-.146-2.285zM34.726 15.952a14.19 14.19 0 00-.34-2.083c-.075-.352-.193-.689-.282-1.04l-.163-.485-.09-.234-.103-.264a12.8 12.8 0 00-.919-1.863 14.2 14.2 0 00-2.282-2.948l-.133-.132-.06-.073-.103-.088c-.09-.088-.178-.161-.267-.25a3.911 3.911 0 01-.252-.234 4.144 4.144 0 00-.297-.234l-.237-.191-.118-.088-.03-.03-.074-.058-.015-.015-.06-.044a21.26 21.26 0 00-.414-.278c-.237-.162-.415-.294-.548-.382.148-.557.266-1.129.355-1.7.148-.866.756-2.655-.489-3.168-1.17-.484-2.697 1.715-2.697 1.715a22.177 22.177 0 00-5.335 12.568c.77.162 1.511.499 2.134.983h.015a22.48 22.48 0 003.868-5.045 9.272 9.272 0 012.564 2.346l.103.132.104.162.208.322c.118.206.251.396.355.616a9.832 9.832 0 011.156 4.033c.03.41.03.807 0 1.217-.015.338-.06.69-.118 1.027a6.72 6.72 0 01-.163.792c-.119.425-.193.674-.193.674s.104-.234.282-.645c.074-.205.177-.47.266-.777.104-.337.193-.69.252-1.027.074-.41.134-.836.163-1.26.03-.47.03-.954 0-1.423a10.488 10.488 0 00-.207-1.525 13.167 13.167 0 00-.445-1.54 8.417 8.417 0 00-.326-.763l-.163-.337-.089-.176-.044-.19a9.872 9.872 0 00-.875-1.335 10.97 10.97 0 00-1.97-1.995 17.62 17.62 0 00.622-1.54l.089.044.444.235.06.03.014.014c.06.044-.089-.059-.074-.044l.03.015.118.073.252.161.134.088.074.044.03.03h.014c.015.014-.074-.059-.044-.03l.015.015c.089.073.178.132.281.205l.297.22.044.03c-.06-.044-.015-.015-.03-.03h.015l.015.015.074.059.148.117a12.78 12.78 0 013.246 3.974l.104.205.104.235.222.455c.118.293.252.586.34.894.43 1.217.682 2.508.727 3.799.015.308.015.615.015.923 0 .308-.03.602-.045.88a12.15 12.15 0 01-.252 1.613c-.103.455-.222.895-.37 1.335-.119.396-.267.733-.37 1.012-.12.279-.223.484-.282.63-.074.147-.104.22-.104.22s.044-.073.133-.205c.074-.132.208-.337.356-.601.133-.264.311-.587.474-.968.193-.425.37-.865.504-1.32.178-.528.311-1.07.43-1.628.06-.293.118-.6.148-.909a9.9 9.9 0 00.089-.953c.044-.66.044-1.335-.015-2.01z"/></g></svg>