<?xml version="1.0" encoding="UTF-8"?>
<svg width="72px" height="59px" viewBox="0 0 72 59" version="1.1" xmlns="http://www.w3.org/2000/svg" xmlns:xlink="http://www.w3.org/1999/xlink">
    <defs>
        <polygon id="path-1" points="13.2330063 51.8371039 13.2330063 25.9185521 0.201332045 25.9185521 0.201332045 19.438914 6.71716913 19.438914 6.71716913 12.959276 13.2330063 12.959276 13.2330063 6.47963803 19.7488434 6.47963803 19.7488434 0 52.3280288 0 52.3280288 6.47963803 58.8438661 6.47963803 58.8438661 12.959276 65.3597029 12.959276 65.3597029 19.438914 71.8755402 19.438914 71.8755402 25.9185521 65.3597029 25.9185521 58.8438661 25.9185521 58.8438661 58.3167421 52.3280288 58.3167421 52.3280288 19.438914 19.7488434 19.438914 19.7488434 51.8371039 26.2646804 51.8371039 26.2646804 32.39819 39.2963547 32.39819 39.2963547 51.8371039 58.8438661 51.8371039 58.8438661 58.3167421 13.2330063 58.3167421"></polygon>
    </defs>
    <g id="Page-1" stroke="none" stroke-width="1" fill="none" fill-rule="evenodd">
        <g id="Artboard" transform="translate(0.000000, -7.000000)">
            <g id="Group" transform="translate(0.000000, 7.000000)">
                <mask id="mask-2" fill="white">
                    <use xlink:href="#path-1"></use>
                </mask>
                <use id="Rectangle" fill="#FFFFFF" fill-rule="nonzero" xlink:href="#path-1"></use>
            </g>
        </g>
    </g>
</svg>