<svg xmlns="http://www.w3.org/2000/svg" width="72" height="72" viewBox="0 0 57.6 57.6"><path fill="#fff" d="M14.366 7.215L0 14.43v28.723l14.4 7.232L28.8 57.6l14.4-7.215 14.4-7.232V14.43L43.2 7.198C35.276 3.23 28.783-.017 28.749 0c-.017 0-6.493 3.249-14.383 7.215zm12.15 11.028l2.3 1.145 2.284-1.162 2.301-1.163v-2.804c0-1.539.051-2.838.136-2.872.188-.086 10.174 5.078 10.157 5.266-.017.085-3.374 1.846-7.447 3.932l-7.43 3.761-7.123-3.573c-3.92-1.966-7.345-3.71-7.618-3.881l-.494-.308 5.266-2.633 5.265-2.65.052 2.89.034 2.889zM16.734 27.2l7.465 3.813v15.302l-5.283-2.65c-2.914-1.453-5.283-2.684-5.283-2.736 0-.05 1.346-.752 2.982-1.555l2.982-1.454v-4.188l-2.385-1.18-2.386-1.197-2.812 1.42c-1.55.769-2.846 1.401-2.897 1.401-.051 0-.085-2.428-.085-5.385 0-2.958.05-5.386.12-5.386.05 0 3.458 1.71 7.582 3.795zm31.749 1.659l-.137 5.3-2.777-1.402-2.795-1.402-2.386 1.197-2.386 1.18v1.812c0 .991.051 1.949.102 2.137.069.222.835.701 2.267 1.402 1.176.598 2.403 1.282 2.727 1.556l.579.479-5.147 2.615-5.129 2.6V30.945l7.55-3.745c4.14-2.068 7.566-3.727 7.583-3.71.034.035.017 2.445-.051 5.369z"/></svg>
