<?xml version="1.0" encoding="UTF-8"?><svg width="72" height="72" version="1.1" viewBox="0 0 640 640" xmlns="http://www.w3.org/2000/svg" xmlns:xlink="http://www.w3.org/1999/xlink"><defs><path id="a" d="m356.44 284.44v72h-72v-72h72z"/><path id="b" d="m640 284.44h-142.22v-71.11h71.11v-71.11h-71.11v-71.11h-71.11v71.11h-71.11v-142.22h-71.12v142.22h-71.11v-71.11h-71.11v71.11h-71.11v71.11h71.11v71.11h-142.22v71.12h142.22v71.11h-71.11v71.11h71.11v71.11h71.11v-71.11h71.11v142.22h71.12v-142.22h71.11v71.11h71.11v-71.11h71.11v-71.11h-71.11v-71.11h142.22v-71.12zm-426.67 142.23v-213.34h213.34v213.34h-213.34z"/></defs><use fill="#ffffff" xlink:href="#a"/><use fill-opacity="0" stroke="#000000" stroke-opacity="0" xlink:href="#a"/><use fill="#ffffff" xlink:href="#b"/><use fill-opacity="0" stroke="#000000" stroke-opacity="0" xlink:href="#b"/></svg>