<svg width="72" height="72" viewBox="0 0 72 72" fill="none" xmlns="http://www.w3.org/2000/svg">
<path fill-rule="evenodd" clip-rule="evenodd" d="M72 36C72 55.8823 55.8823 72 36 72C16.1177 72 0 55.8823 0 36C0 16.1177 16.1177 0 36 0C55.8823 0 72 16.1177 72 36ZM9.25714 36L17.0899 28.1672V17.0899H28.1672L36 9.25714L43.8328 17.0899H54.9101V28.1672L62.7429 36L54.9101 43.8328V54.9101H43.8328L36 62.7429L28.1672 54.9101H17.0899V43.8328L9.25714 36ZM36 50.4C43.9529 50.4 50.4 43.9529 50.4 36C50.4 28.0471 43.9529 21.6 36 21.6C28.0471 21.6 21.6 28.0471 21.6 36C21.6 43.9529 28.0471 50.4 36 50.4Z" fill="white"/>
</svg>
