<svg xmlns="http://www.w3.org/2000/svg" width="72" height="72" viewBox="0 0 1000 1000" version="1.1">
	<path d="M 349 234.638 C 342.413 237.714, 336.852 243.286, 334.053 249.614 C 332.122 253.977, 332 256.155, 332 286.127 L 332 318 300.626 318 C 265.837 318, 264.050 318.259, 256.558 324.399 C 254.294 326.254, 251.105 330.185, 249.471 333.136 L 246.500 338.500 246.187 363.250 L 245.873 388 261.937 388 L 278 388 278 370.122 C 278 356.183, 278.303 351.994, 279.373 351.105 C 280.341 350.302, 288.241 350.044, 306.123 350.233 L 331.500 350.500 331.160 386 C 330.973 405.525, 330.716 421.607, 330.589 421.738 C 330.461 421.869, 311.377 422.280, 288.178 422.651 L 246 423.325 246 455.162 L 246 487 261.975 487 L 277.949 487 278.225 471.250 L 278.500 455.500 304.500 455.500 L 330.500 455.500 331.257 463 C 331.674 467.125, 331.899 481.750, 331.757 495.500 L 331.500 520.500 288.750 520.761 L 246 521.021 246 553.011 L 246 585 262 585 L 278 585 278 569.500 L 278 554 304.358 554 L 330.715 554 331.358 560.147 C 331.711 563.527, 332 578.083, 332 592.493 L 332 618.693 319.843 619.346 C 313.157 619.706, 293.807 620, 276.843 620 L 246 620 246 660 L 246 700 261.982 700 L 277.964 700 278.232 676.250 L 278.500 652.500 304.500 652.500 L 330.500 652.500 330.810 656.250 C 330.981 658.313, 331.523 660, 332.014 660 C 332.505 660, 333.755 661.918, 334.791 664.261 C 337.327 669.994, 342.339 674.802, 348.994 677.885 L 354.500 680.436 566.692 680.831 C 724.512 681.124, 780.589 680.929, 785.534 680.067 C 795.488 678.334, 801.627 674.090, 806.603 665.500 L 809.500 660.500 809.500 456.500 C 809.500 255.658, 809.470 252.439, 807.533 248.533 C 804.781 242.982, 798.746 237.256, 792.664 234.424 L 787.500 232.020 571 232.045 L 354.500 232.070 349 234.638 M 364.012 265.711 C 362.012 268.254, 362 269.402, 362 455.989 L 362 643.708 364.324 646.215 L 366.647 648.722 569.574 648.308 C 681.183 648.080, 773.435 647.704, 774.579 647.471 C 775.722 647.238, 777.184 645.891, 777.829 644.477 C 778.711 642.541, 778.995 595.799, 778.978 455.203 C 778.957 279.814, 778.851 268.371, 777.228 266.369 L 775.500 264.237 570.762 263.695 L 366.025 263.153 364.012 265.711 M 465.251 347 C 465.693 347.888, 478.768 367.330, 482.736 373 C 486.844 378.870, 493.511 388.431, 500.867 399 C 503.355 402.575, 506.768 407.075, 508.452 409 C 511.183 412.122, 529.950 438.483, 532.512 442.796 C 533.069 443.733, 534.345 445.718, 535.348 447.206 C 536.384 448.743, 536.845 450.471, 536.414 451.206 C 535.469 452.819, 512.464 485.369, 506.522 493.500 C 497.626 505.674, 494.684 509.798, 485.196 523.399 C 479.863 531.044, 473.376 540.269, 470.780 543.899 C 468.184 547.530, 465.360 551.737, 464.504 553.250 L 462.949 556 499.974 556 C 527.315 556, 537 555.698, 537 554.844 C 537 554.209, 538.212 552.100, 539.693 550.158 C 542.687 546.233, 545.565 542.074, 557.449 524.500 C 561.913 517.900, 570.680 505.300, 576.932 496.500 C 595.371 470.547, 603.598 458.880, 611.485 447.500 C 628.575 422.841, 632.945 416.788, 637.474 411.500 C 643.955 403.933, 683 348.169, 683 346.480 C 683 346.216, 666.591 346, 646.535 346 C 612.218 346, 610.013 346.108, 609.091 347.831 C 608.552 348.837, 604.818 354.350, 600.794 360.081 C 581.220 387.955, 574.628 397, 573.888 397 C 573.444 397, 569.125 391.357, 564.291 384.461 C 559.456 377.564, 553.331 368.902, 550.680 365.211 C 548.029 361.520, 543.979 355.636, 541.680 352.136 L 537.500 345.773 501.251 346.136 C 481.314 346.336, 465.114 346.725, 465.251 347 M 617.379 474.750 C 614.782 478.462, 611.678 482.850, 610.481 484.500 C 609.284 486.150, 606.297 490.425, 603.843 494 C 601.389 497.575, 596.595 504.550, 593.191 509.500 C 589.787 514.450, 587.003 518.950, 587.005 519.500 C 587.007 520.050, 588.694 522.750, 590.754 525.500 C 592.814 528.250, 596.300 533.115, 598.500 536.310 C 600.700 539.506, 603.736 543.781, 605.247 545.810 C 606.758 547.840, 608.783 551.075, 609.747 553 L 611.500 556.500 648.285 556 L 685.070 555.500 682.040 551 C 678.719 546.067, 676.847 543.380, 663.471 524.347 C 658.506 517.281, 653.686 510.375, 652.762 509 C 651.837 507.625, 647.935 502.225, 644.089 497 C 640.244 491.775, 634.038 483.129, 630.299 477.786 C 626.559 472.443, 623.185 468.055, 622.801 468.036 C 622.416 468.016, 619.976 471.038, 617.379 474.750 M 695 716.514 C 695 726.971, 694.247 730.018, 691 732.698 C 689.818 733.674, 642.479 733.943, 467.613 733.968 L 245.726 734 246.245 740.460 C 247.114 751.283, 254.456 761.001, 264.989 765.268 L 270.500 767.500 487 767.743 L 703.500 767.986 709.500 764.658 C 716.293 760.889, 722.387 753.754, 724.154 747.500 C 725.236 743.670, 726.946 707.271, 726.083 706.414 C 725.854 706.186, 718.767 706, 710.333 706 L 695 706 695 716.514 M 1.762 999.707 C 3.006 999.946, 4.806 999.937, 5.762 999.687 C 6.718 999.437, 5.700 999.241, 3.500 999.252 C 1.300 999.263, 0.518 999.468, 1.762 999.707 M 12.750 999.737 C 15.638 999.939, 20.363 999.939, 23.250 999.737 C 26.138 999.535, 23.775 999.370, 18 999.370 C 12.225 999.370, 9.863 999.535, 12.750 999.737 " stroke="none" fill="black" fill-rule="evenodd"/>
</svg>