<?xml version="1.0" encoding="UTF-8" standalone="no"?>
<svg
   xmlns:dc="http://purl.org/dc/elements/1.1/"
   xmlns:cc="http://creativecommons.org/ns#"
   xmlns:rdf="http://www.w3.org/1999/02/22-rdf-syntax-ns#"
   xmlns:svg="http://www.w3.org/2000/svg"
   xmlns="http://www.w3.org/2000/svg"
   viewBox="0 0 40 40"
   height="40"
   width="40"
   xml:space="preserve"
   version="1.1"
   id="svg3355"><metadata
     id="metadata3361"><rdf:RDF><cc:Work
         rdf:about=""><dc:format>image/svg+xml</dc:format><dc:type
           rdf:resource="http://purl.org/dc/dcmitype/StillImage" /><dc:title></dc:title></cc:Work></rdf:RDF></metadata><defs
     id="defs3359"><clipPath
       id="clipPath3371"
       clipPathUnits="userSpaceOnUse"><path
         id="path3373"
         d="M 0,500 500,500 500,0 0,0 0,500 Z" /></clipPath></defs><g
     transform="matrix(1.25,0,0,-1.25,0,40)"
     id="g3363"><path
       id="path3365"
       style="fill:#2c2f33;fill-opacity:1;fill-rule:nonzero;stroke:none"
       d="M 0,0 32,0 32,32 0,32 0,0 Z" /><g
       transform="matrix(0.064,0,0,0.064,-1.2800001e-8,-2.4906697e-7)"
       id="g3367"><g
         clip-path="url(#clipPath3371)"
         id="g3369"><g
           transform="translate(120.9542,191.9286)"
           id="g3375"><path
             id="path3377"
             style="fill:#cdcccc;fill-opacity:1;fill-rule:nonzero;stroke:none"
             d="m 0,0 c 43.857,0 69.108,24.919 69.108,78.411 0,53.16 -25.251,76.418 -69.108,76.418 l -16.613,0 L -16.613,0 0,0 Z m -55.154,186.06 57.812,0 c 66.45,0 105.988,-35.883 105.988,-107.649 0,-72.099 -39.538,-109.642 -103.995,-109.642 l -59.805,0 0,217.291 z" /></g><g
           transform="translate(177.9423,164.0623)"
           id="g3379"><path
             id="path3381"
             style="fill:#33b5e4;fill-opacity:1;fill-rule:nonzero;stroke:none"
             d="m 0,0 c 16.692,-11.79 19.052,-13.73 32.342,-13.73 20.268,0 31.84,10.964 31.84,41.863 l 0,145.86 37.601,0 0,-149.183 c 0,-39.538 -23.557,-74.092 -68.744,-74.092 -30.742,-1.994 -57.102,19.097 -63.833,40.577 5.6,0.845 11.454,2.02 17.861,3.843 C -8.754,-3.672 -3.235,-1.761 0,0" /></g><g
           transform="translate(311.5818,172.925)"
           id="g3383"><path
             id="path3385"
             style="fill:#33b5e4;fill-opacity:1;fill-rule:nonzero;stroke:none"
             d="m 0,0 c 15.616,-14.619 36.548,-24.587 56.816,-24.587 24.254,0 37.877,10.965 37.877,27.91 0,17.941 -13.956,23.589 -33.891,31.895 l -29.57,12.958 c -21.597,8.971 -43.858,25.916 -43.858,57.813 0,34.554 30.568,61.135 72.764,61.135 25.584,0 50.171,-10.633 67.116,-27.578 L 107.318,114.96 c -13.623,11.628 -28.574,18.606 -47.18,18.606 -20.6,0 -33.89,-9.636 -33.89,-25.584 0,-16.945 16.613,-23.258 34.554,-30.567 L 90.041,65.121 c 25.916,-10.964 43.858,-27.244 43.858,-58.808 0,-35.219 -29.239,-64.458 -78.08,-64.458 -29.239,0 -57.48,11.629 -78.079,31.897 L 0,0 Z" /></g><g
           transform="translate(237.7289,179.6881)"
           id="g3387"><path
             id="path3389"
             style="fill:#3c9765;fill-opacity:1;fill-rule:nonzero;stroke:none"
             d="m 0,0 c 0,-16.652 -13.499,-30.152 -30.152,-30.152 -16.652,0 -30.152,13.5 -30.152,30.152 0,16.652 13.5,30.152 30.152,30.152 C -13.499,30.152 0,16.652 0,0" /></g><g
           transform="translate(237.7289,179.6881)"
           id="g3391"><path
             id="path3393"
             style="fill:none;stroke:#2c2f33;stroke-width:7;stroke-linecap:butt;stroke-linejoin:miter;stroke-miterlimit:10;stroke-dasharray:none;stroke-opacity:1"
             d="m 0,0 c 0,-16.652 -13.499,-30.152 -30.152,-30.152 -16.652,0 -30.152,13.5 -30.152,30.152 0,16.652 13.5,30.152 30.152,30.152 C -13.499,30.152 0,16.652 0,0 Z" /></g></g></g></g></svg>