<svg width="72" height="72" viewBox="0 0 72 72" fill="none" xmlns="http://www.w3.org/2000/svg">
<rect width="72" height="72" fill="white"/>
<g clip-path="url(#clip0)">
<path d="M61.3531 62.1854C31.3078 84.2686 0 62.1854 0 62.1854C14.0536 51.648 27.5492 50.3264 38.2866 52.1763C21.6363 38.9373 17.9698 18.2135 17.9698 18.2135C35.2591 20.8344 45.7242 29.5735 52.0265 38.5774C49.4875 17.2819 61.3531 0 61.3531 0C85.1282 32.5724 61.3531 62.1854 61.3531 62.1854Z" fill="white"/>
<path d="M67.5469 51.3308C71.5528 42.2834 72.4626 33.8884 71.808 26.618C71.4387 22.2444 70.4718 17.944 68.935 13.8401C65.7897 5.19912 61.3531 0 61.3531 0C70.0251 23.6926 64.1988 43.7576 58.2491 55.9068C58.4434 51.4313 56.8977 45.7047 52.0264 38.5774C39.3712 20.0586 17.9698 18.2135 17.9698 18.2135C46.2602 29.8155 51.403 47.7957 51.595 58.7863C49.9806 56.1764 46.19 53.6639 38.2866 52.1763C16.3078 48.0377 0 62.1854 0 62.1854C39.6513 50.7851 50.437 68.3842 50.437 68.3842C51.6129 67.9698 52.866 67.3869 54.0887 66.7439C56.1752 65.696 58.864 64.161 61.3531 62.1854C61.3531 62.1854 64.6326 58.1117 67.5469 51.3308Z" fill="white"/>
</g>
<defs>
<clipPath id="clip0">
<rect width="72" height="72" fill="white"/>
</clipPath>
</defs>
</svg>
