<?xml version="1.0" standalone="no"?>
<!DOCTYPE svg PUBLIC "-//W3C//DTD SVG 20010904//EN"
 "http://www.w3.org/TR/2001/REC-SVG-20010904/DTD/svg10.dtd">
<svg version="1.0" xmlns="http://www.w3.org/2000/svg"
 width="72.000000pt" height="72.000000pt" viewBox="0 0 72.000000 72.000000"
 preserveAspectRatio="xMidYMid meet">

<g transform="translate(0.000000,72.000000) scale(0.100000,-0.100000)"
fill="#000000" stroke="none">
<path d="M285 706 c-147 -35 -243 -137 -275 -288 -15 -73 -1 -149 43 -231 49
-93 133 -152 250 -177 95 -19 217 17 300 90 44 38 92 130 107 202 19 96 -17
218 -90 301 -37 42 -129 91 -198 106 -63 13 -72 13 -137 -3z m33 -114 c3 -30
6 -32 42 -32 36 0 39 2 42 33 2 24 8 32 23 32 15 0 21 -8 23 -32 3 -31 6 -33
39 -33 49 0 73 -24 73 -71 0 -35 2 -38 33 -41 24 -2 32 -8 32 -23 0 -15 -8
-21 -32 -23 -29 -3 -33 -7 -33 -32 0 -25 4 -29 33 -32 24 -2 32 -8 32 -23 0
-14 -8 -21 -30 -25 -27 -5 -30 -9 -33 -50 -4 -55 -24 -78 -73 -86 -32 -5 -38
-11 -41 -33 -4 -37 -42 -36 -46 1 -3 25 -7 28 -42 28 -35 0 -39 -3 -42 -27 -2
-20 -9 -29 -26 -31 -18 -3 -23 2 -28 27 -5 21 -12 31 -25 31 -54 0 -89 42 -89
105 0 29 -4 34 -27 37 -20 2 -28 9 -28 23 0 14 8 21 28 23 22 3 27 8 27 32 0
24 -5 29 -27 32 -38 4 -39 42 -2 46 22 3 28 10 32 39 8 48 33 73 74 73 23 0
33 5 33 16 0 56 53 71 58 16z"/>
<path d="M217 504 c-4 -4 -7 -72 -7 -151 l0 -144 148 3 147 3 0 145 0 145
-141 3 c-77 1 -143 -1 -147 -4z m231 -146 c3 -87 3 -87 -23 -94 -42 -10 -145
1 -156 17 -10 16 -12 129 -3 154 5 13 21 15 93 13 l86 -3 3 -87z"/>
<path d="M320 360 l0 -40 40 0 40 0 0 40 0 40 -40 0 -40 0 0 -40z"/>
</g>
</svg>
