<svg xmlns="http://www.w3.org/2000/svg" width="72" height="72" viewBox="0 0 1727 1599.65"><defs><style>.a{fill:#fff;}</style></defs><path class="a" d="M920.62,203.67c-315.83,47.52-471.41,363.16-392,621.39a11.71,11.71,0,0,1-8.5,14.91C141.59,926.86,86.9,1313.51,169.05,1483.61a11.57,11.57,0,0,0,12.24,6.4c27.85-4.59,9.09-33.68,6.54-53.25C110,1020.69,617,868.46,840.08,1154.94a11.71,11.71,0,0,0,12.74,4c77.83-24.46,25-68.21,59.14-110.74a13.3,13.3,0,0,0,1.64-2.67c10.52-22.89,38.36-35.17,54.13-44.17a11.71,11.71,0,0,0,5.87-9.49c4.7-80-7.72-54.9-37.44-61.38-291.35-52-397.46-414.67-185.95-607.21,108.13-99.57,180.36-83.7,183.8-106.7C935.15,208.94,928.23,202.53,920.62,203.67Z" transform="translate(-136 -203.54)"/><path class="a" d="M1078.38,203.67c315.83,47.52,471.41,363.16,392,621.39a11.71,11.71,0,0,0,8.5,14.91c378.55,86.89,433.24,473.54,351.09,643.64a11.57,11.57,0,0,1-12.24,6.4c-27.85-4.59-9.09-33.68-6.54-53.25,77.86-416.07-429.16-568.3-652.25-281.82a11.71,11.71,0,0,1-12.74,4c-77.83-24.46-25-68.21-59.14-110.74a13.3,13.3,0,0,1-1.64-2.67c-10.52-22.89-38.36-35.17-54.13-44.17a11.71,11.71,0,0,1-5.87-9.49c-4.7-80,7.72-54.9,37.44-61.38,291.35-52,397.46-414.67,186-607.21-108.13-99.57-180.36-83.7-183.8-106.7C1063.85,208.94,1070.77,202.53,1078.38,203.67Z" transform="translate(-136 -203.54)"/><path class="a" d="M258.72,1613c199.11,249.72,550.25,226.58,734.14,28.65a11.71,11.71,0,0,1,17.16-.1c264.57,284.35,626.73,138.33,732.94-17.89a11.57,11.57,0,0,0-.57-13.8c-17.91-21.81-33.72,9-49.39,21-321.35,275.52-706.75-87.4-570.25-423.86a11.71,11.71,0,0,0-2.94-13c-60.11-55.16-71.58,12.47-125.48,4.18a13,13,0,0,0-3.12-.09c-25.08,2.34-49.65-15.63-65.33-24.78a11.73,11.73,0,0,0-11.15-.34c-71.62,35.94-43.68,34.15-34.43,63.13C981,1514.28,720,1787.58,447.5,1700.71c-140.31-43.83-162.7-114.31-184.33-105.79C256,1597.74,253.92,1606.94,258.72,1613Z" transform="translate(-136 -203.54)"/><path class="a" d="M735,672.67c228.34-116.06,401-65.63,523.19-2.29a11.72,11.72,0,0,1,5.93,13.38c-48.69,186.61-128.77,78.06-187.51,72.62a9.63,9.63,0,0,1-1.2-.17C822.68,703.4,827.06,903.78,729.6,687.92A11.71,11.71,0,0,1,735,672.67Z" transform="translate(-136 -203.54)"/><path class="a" d="M755.5,1550.49C540.66,1411.08,497.73,1236.42,491.31,1099A11.73,11.73,0,0,1,500,1087.1c192.35-51,126.09,71.9,162.91,145.1a8.75,8.75,0,0,1,.37.83c86.3,219.09,240.84,130.43,108.05,314.5A11.71,11.71,0,0,1,755.5,1550.49Z" transform="translate(-136 -203.54)"/><path class="a" d="M1245.49,1550c214.84-139.41,257.77-314.07,264.19-451.53a11.71,11.71,0,0,0-8.73-11.86c-192.34-51-126.08,71.9-162.9,145.1a8.58,8.58,0,0,0-.37.82c-86.3,219.1-240.85,130.44-108,314.51A11.71,11.71,0,0,0,1245.49,1550Z" transform="translate(-136 -203.54)"/></svg>