<svg width="72" height="72" fill="none" xmlns="http://www.w3.org/2000/svg"><path d="M13.046 25.468v17.036a1.575 1.575 0 0 1-.448 1.095 1.52 1.52 0 0 1-1.077.458H4.982a1.52 1.52 0 0 1-1.082-.454 1.575 1.575 0 0 1-.452-1.099v-9.256c.002-.413.165-.808.452-1.099a1.52 1.52 0 0 1 1.082-.454h5.142M68.972 44.057h-4.835M68.852 31.823h-9.59M64.16 25.47v18.587M32.096 25.748H26.29c-1.045 0-1.893.862-1.893 1.926v14.367c0 1.064.848 1.926 1.893 1.926h5.805c1.045 0 1.893-.862 1.893-1.926V27.674c0-1.064-.848-1.926-1.893-1.926zM52.859 44.057h-8.851M48.803 25.47v18.587M48.601 25.448h-4.867" stroke="#29e3c1" stroke-width="5.556" stroke-linecap="round" stroke-linejoin="round" style="fill:#fff;stroke:#fff"/></svg>