<svg width="72" height="72" xmlns="http://www.w3.org/2000/svg"><g fill="none" fill-rule="evenodd"><path d="M0 0h72v72H0z"/><path d="M0 13.454c0-.512.377-.978.86-.978h11.7c9.258 0 16.829 8.088 16.829 17.988 0 9.996-7.571 18.095-16.83 18.095H.862c-.484 0-.861-.465-.861-.978V13.454zm12.027 27.484c5.404 0 9.336-4.585 9.336-10.444 0-5.811-3.92-10.396-9.336-10.396H7.436v20.84h4.591z" fill="#FFF" fill-rule="nonzero"/><path d="M19.687 23.576c-.283-.667.094-1.335.814-1.335h6.386c.377 0 .72.31.814.573l7.92 18.798h.283l7.92-18.798c.094-.263.436-.573.814-.573h6.385c.72 0 1.098.668.815 1.335l-1.429 1.765-.389 2.42-13.243 30.48c-.141.31-.436.56-.814.56h-.484c-.39 0-.673-.262-.814-.56L19.687 23.576z" fill="#FFF" fill-rule="nonzero"/><path d="M58.87 12c4.803 0 8.344 1.595 11.613 4.784.436.417.436 1.024.047 1.44l-3.741 4.166c-.33.357-.862.357-1.204 0a9.406 9.406 0 0 0-6.479-2.619c-5.417 0-9.406 4.832-9.406 10.592 0 5.713 4.037 10.437 9.453 10.437 2.254 0 4.697-.868 6.432-2.463.33-.31.956-.31 1.251.047l3.741 4.273c.33.357.283 1.023-.047 1.392-3.257 3.392-7.388 4.987-11.66 4.987-9.594 0-17.324-8.176-17.324-18.47C41.546 20.27 49.276 12 58.87 12z" fill="#FFF" fill-rule="nonzero"/></g></svg>