<svg xmlns="http://www.w3.org/2000/svg" width="72" height="72" viewBox="0 0 72 72"><path d="M35.773.648c-1.722 1.079-3.882 3.739-4.601 5.68-.863 2.445-.79 4.496.324 8.125.54 1.692.863 3.344.754 3.633-.105.289-.645.648-1.223.754-1.652.433-2.55 1.223-3.484 3.058l-.898 1.762-1.622-.18c-.898-.109-2.046-.074-2.55.036-1.078.285-1.078.285-.215 4.347.215.973.5 2.446.61 3.239.109.789.25 1.796.359 2.265.253 1.188 2.515 3.524 4.457 4.602 1.152.61 1.691 1.113 1.546 1.437-.105.29 0 .719.215 1.008.434.504-.285 1.293-2.191 2.48l-.973.61-3.664-4.168c-2.015-2.3-3.883-4.242-4.137-4.352-.574-.214-1.582.504-5.714 4.098-1.657 1.402-2.914 2.805-2.985 3.273-.074.504.395 1.329 1.508 2.516 1.152 1.223 1.656 2.086 1.656 2.734 0 .684.215 1.043.72 1.188.394.105.718.5.718.86 0 .398.36.827.863 1.007.465.18.934.613 1.043.899.14.359.684.578 1.402.578 1.004 0 1.618.394 3.704 2.515 1.363 1.368 2.695 2.516 2.945 2.516.219 0 .937-.54 1.547-1.148l1.117-1.188-.254 2.371c-.285 2.879.434 4.746 2.66 7.086.828.824 1.512 1.582 1.512 1.652 0 .07-1.293-.18-2.914-.574-2.84-.683-2.91-.683-4.207 0-1.438.754-3.02 2.77-2.875 3.63.11.503 1.008.577 6.219.577 9.207-.035 10.644-.433 9.312-2.699-.43-.684-.539-1.363-.36-2.191.4-2.086.579-2.23 2.59-1.727 3.524.863 6.258 2.914 6.258 4.711 0 .574.25 1.113.645 1.328.937.504 12.656 1.656 13.844 1.332.793-.18.972-.43.972-1.293 0-1.512-.613-2.66-1.8-3.383-.899-.5-1.618-.574-4.887-.359l-3.813.254.43-.828c.289-.54.36-1.508.219-2.95-.22-1.617-.145-2.085.215-2.011.324.07.464-.469.503-1.871.036-2.157-.503-3.414-1.656-3.774-.394-.11-.719-.539-.719-.898 0-.36-.43-1.008-.968-1.442-.938-.718-1.907-.824-3.703-.32-.399.106-.504-.11-.434-.758.07-.863.07-.863-.61.22-1.581 2.585-4.89 4.386-9.027 4.815l-2.695.325 2.695-.11c3.274-.105 5.395-.968 7.696-3.09 1.402-1.296 1.691-1.44 1.87-.898.325.824-.144 1.543-2.015 2.98-1.113.864-1.582 1.477-1.617 2.266-.11 1.402-1.078 2.805-2.266 3.238-1.508.61-5.394.07-7.117-.937-1.297-.754-3.203-2.984-2.879-3.344.074-.07.684.219 1.332.613.684.43 1.473.754 1.762.754.289-.035-.035-.285-.719-.574-2.015-.863-4.027-3.129-2.23-2.516.394.141.254-.074-.325-.613-1.257-1.078-1.472-1.797-1.043-3.738.22-.898.29-1.727.22-1.836-.11-.07-.29.469-.434 1.223-.145.972-.72 1.98-1.797 3.164l-1.617 1.761-1.442-1.363c-1.078-1.078-1.398-1.691-1.398-2.625 0-.898-.18-1.258-.723-1.402-.36-.11-.789-.469-.898-.863-.106-.36-.504-.754-.899-.864-.36-.11-.754-.574-.863-1.043-.215-.933-1.113-1.332-2.192-.933-.539.215-1.007 0-1.87-.828-.645-.614-1.188-1.293-1.188-1.512 0-.215 1.008-1.258 2.266-2.262 1.222-1.008 2.699-2.23 3.273-2.734.574-.54 1.332-.934 1.652-.934.504 0 4.89 4.672 7.91 8.485l.938 1.148 1.184-2.66c1.296-2.875 2.085-3.848 1.726-2.086l-.215 1.043.504-1.078c.469-1.004.43-1.078-.394-1.367-.47-.18-.864-.54-.864-.825 0-.648.43-.648 1.977 0 .863.36 1.258.79 1.258 1.293 0 .684.074.719 1.008.215 1.043-.539 8.34-.719 8.34-.215 0 .434-1.438.719-3.739.719-1.187 0-2.05.074-1.976.18.285.289 4.925.36 4.746.074-.075-.145.18-.254.574-.254.504 0 .754-.215.754-.719 0-.43.254-.718.648-.718 1.188 0 4.961-2.051 5.969-3.274.934-1.113 1.008-1.363.863-3.594l-.18-2.41 1.188.719c.68.398 1.223.613 1.223.469 0-.11-.649-1.008-1.442-1.942-2.226-2.66-2.011-4.316 1.657-11.683 1.257-2.52 2.3-4.785 2.3-5.035 0-.215-.289.144-.613.789-.32.683-1.832 2.34-3.344 3.742-1.543 1.363-2.984 2.875-3.234 3.379-.54.933-.648 1.008-1.402.539-.395-.25-.25-.574.754-1.547 1.656-1.547 2.05-3.129 2.015-7.656-.035-3.848.61-6.223 2.3-7.985.43-.465.684-.898.61-.968-.105-.11-.644.43-1.222 1.148-1.653 2.086-2.301 4.422-2.336 8.414 0 4.277-.36 5.5-1.617 5.18-.54-.145-1.333.07-2.196.574-.754.43-1.258.61-1.113.43.144-.25-.828-.645-2.55-1.043-1.513-.395-2.806-.72-2.88-.754-.07-.035.395-1.653 1.008-3.633 1.043-3.2 1.148-3.848 1.008-6.973-.145-2.734-.36-3.847-1.043-5.215-.973-2.011-1.512-2.23-3.024-1.293zM37.68 2.77c.11 2.265-.07 2.84-2.446 8.34-.644 1.511-1.222 3.597-1.328 4.78-.11 1.153-.324 2.087-.433 2.087-.575 0-2.301-5.391-2.48-7.586-.145-2.012-.036-2.696.718-4.313.504-1.082 1.367-2.484 1.906-3.164C34.77 1.582 36.637.29 37.215.47c.215.07.394 1.113.465 2.3zm2.23 15.925c.54.18-.035.22-1.437.11-2.336-.18-5.899.468-7.84 1.437-.465.215-1.223 1.078-1.653 1.836-1.402 2.516-2.265 2.082-.933-.469.644-1.332 1.617-1.906 5.031-3.02.863-.288 5.824-.214 6.832.106zm-13.664 5.72c0 .503-1.078 2.983-1.867 4.276-.863 1.368-1.367 1.043-1.367-.898 0-1.652.574-2.95 1.508-3.344 1.082-.43 1.726-.43 1.726-.035zm11.473.07c1.328.468 1.437.937.25 1.402-1.043.394-1.832 2.48-1.512 3.992.18.969.145 1.008-.5.683-.363-.18-1.262-.359-1.98-.359h-1.293l.574-1.078c.719-1.402.719-3.453-.035-3.883-1.727-.972 2.05-1.62 4.496-.758zm-10.395.109c0 .07-.25.718-.539 1.402-.285.719-.539 1.508-.504 1.762 0 .25.145.105.324-.324.504-1.223 1.907-1.977 2.95-1.582.468.18 1.078.574 1.367.933.43.54.394.54-.469.145-1.832-.828-3.738 1.437-2.77 3.273.364.645.325.754-.07.645-.25-.07-.718-.68-1.043-1.293-.574-1.114-.61-1.149-.828-.36-.36 1.293-1.258 2.336-1.582 1.832-.285-.465 2.41-6.578 2.914-6.578.145 0 .25.07.25.145zm2.52 3.234c0 .719-.938 1.438-1.258.938-.36-.578.07-1.442.719-1.442.285 0 .539.219.539.504zm7.91 1.117c-.215 1.078-.29 1.184-.324.465-.035-.898.289-2.226.504-2.012.07.07-.036.754-.18 1.547zm6.074-.324c1.008 1.293.973 2.77-.18 3.988-.789.903-.863.903-.359.11 1.223-1.871.395-3.992-1.617-4.028-2.086-.07-3.129 2.157-1.871 4.028l.613.898-.793-.683c-1.113-.97-1.078-3.2.11-4.348 1.222-1.262 3.093-1.223 4.097.035zm-.824 1.043c.14.285.105.79 0 1.113-.18.47-.324.504-.758.145-.285-.254-.539-.754-.539-1.113 0-.829 1.008-.903 1.297-.145zM28.87 31.676h.793l-.758.324c-.644.25-3.199-.035-3.558-.43-.035-.039.035-.504.215-.937l.324-.863 1.117.937c.61.504 1.437.934 1.867.969zm1.871-1.113c-.11.18-.574.359-1.008.324-.754 0-.754-.04-.07-.325 1.004-.433 1.328-.433 1.078 0zm5.031.789c.543.253 1.262 1.043 1.657 1.8.574 1.149.968 1.438 2.73 1.942 1.117.32 2.625.5 3.383.394 1.148-.144 1.402-.074 1.402.43 0 1.078-.828 1.727-3.238 2.59-1.293.43-2.586 1.008-2.91 1.293-.793.648-2.625.578-5.863-.25-5.391-1.367-8.989-4.063-9.454-7.082-.218-1.258-.18-1.332.36-.864.36.25.61.825.61 1.223 0 .574.109.645.433.324.25-.254 1.113-.324 2.48-.18 1.903.18 2.227.106 3.774-.937 1.797-1.187 3.129-1.367 4.636-.683zm6.114 1.296c-.215.25-1.617-.324-1.617-.648 0-.145.394-.11.863.11.504.25.828.464.754.538zm3.058.43c0 1.367-1.261 1.942-3.418 1.582l-1.437-.25 1.472-.324c.829-.18 1.872-.684 2.34-1.152.465-.465.899-.864.97-.899.034-.035.073.469.073 1.043zm-16.398 10.57c-.36.72-.754 1.297-.899 1.297-.394 0-1.148-1.082-.933-1.332.394-.394 2.23-1.437 2.336-1.367.074.035-.18.684-.504 1.402zm-12.223 2.59c.145.325.035.828-.215 1.114-.359.433-.324.539.25.468.395-.035.934-.07 1.188-.035.61.035.539 1.438-.11 1.688-.503.218-4.132-1.543-4.132-1.977 0-.144.25-.61.574-1.043.648-.933 2.121-1.043 2.445-.215zm3.45 3.918c0 .793-.54.938-1.294.36-.574-.43-.609-.575-.18-.864.65-.394 1.473-.105 1.473.504zm27.507 1.762c1.403.613 1.582 1.078.649 1.621-.578.32-.54.36.18.395.464 0 1.363.504 1.976 1.148.969.973 1.043 1.188.539 1.297-.793.14-.828.574-.11 1.148.29.254.54.758.54 1.118 0 1.113-1.328.824-1.977-.399-.285-.574-1.508-2.086-2.695-3.379-1.188-1.258-2.156-2.445-2.156-2.66 0-.215.359-.469.824-.539.433-.074.828-.18.898-.215.04 0 .649.215 1.332.465zm-22.113 2.16c-1.508 1.543-2.05.824-.648-.902 1.007-1.258 1.187-1.364 1.402-.79.18.43-.07.97-.754 1.692zm2.195 12.332c-1.87.54-2.554 1.043-2.554 1.977 0 .61-.899 1.293-1.258.933-.11-.07.144-.754.504-1.472.36-.72.539-1.332.36-1.332-.395 0-1.438 1.043-1.942 1.98-.215.36-.614.574-.864.5-.683-.25 1.008-2.55 2.371-3.234.973-.469 1.512-.504 3.06-.215l1.905.394zm0 0" fill="#fff"/><path d="M35.633 26.465c0 .394.105.5.215.215.109-.254.07-.578-.035-.684-.11-.144-.22.07-.18.469zm-3.274 6.867c.614.79.684 1.004.215 1.258-.754.43-1.652-.035-1.652-.828 0-.36-.145-.684-.36-.684-.574 0-.433.649.325 1.402.36.36 1.472.754 2.515.899 1.547.215 2.086.11 2.985-.43.683-.433.933-.793.683-.937-.215-.14-.394-.106-.394.11 0 .612-1.442 1.187-2.375.972-1.149-.29-1.078-.793.144-1.442l.97-.539-.97-.035c-.539 0-1.402-.18-1.906-.36l-.969-.359zm.575 3.953c.757.54 1.8.613 2.086.145.109-.18-.43-.395-1.258-.47-1.258-.105-1.367-.07-.828.325zM50.156 3.523c-1.582.973-3.738 3.524-4.566 5.36-.36.86-.899 3.234-1.149 5.246-.254 2.016-.613 3.992-.718 4.387-.254.683-.254.683.25.074.289-.36.613-1.871.754-3.598.144-1.617.468-3.773.757-4.781.97-3.344 4.063-6.473 6.758-6.832 1.008-.106 1.297.035 1.692.758.25.5.539.824.644.718.11-.074-.105-.578-.43-1.082-.718-1.113-2.41-1.218-3.992-.25zm4.676 5.68c0 2.086.105 3.418.25 2.95.29-1.114.29-5.356 0-6.114-.145-.32-.25 1.078-.25 3.164zM52.277 40.27c-.968.394-1.293 1.222-1.043 2.66.22.972.075 1.187-.968 1.836-.649.394-1.332.644-1.473.609-.184-.035-.219.07-.11.254.395.61-.214 3.629-.718 3.629-.613 0-.684-2.551-.145-3.594.43-.793-.36-1.582-1.332-1.332-.5.145-.465.18.18.215.758.039.793.144.613 1.906-.144 1.043-.289 2.121-.36 2.34-.214.68-2.374.574-3.378-.145-.504-.324-.758-.398-.613-.18.394.645-1.617.54-2.59-.144-.43-.289-.79-.469-.79-.36 0 .106.395.466.864.755.574.394 2.086.613 4.746.754 2.695.144 3.992.324 4.172.648.14.254.754.684 1.363.934.758.324 1.078.683 1.078 1.261 0 .97 1.153 2.082 2.051 1.903.793-.14 1.043-1.688.504-3.235l-.394-1.078 1.043 1.114c1.078 1.152 2.12 1.402 2.84.683.753-.754.468-1.762-.829-3.055-.683-.683-1.258-1.296-1.258-1.332 0-.035.934 0 2.122.075 2.3.18 2.804-.254 2.195-1.871-.434-1.114-1.442-1.438-3.813-1.114-1.043.106-2.086.14-2.265 0-.215-.11-.18-.828.144-1.836.719-2.48.215-3.129-1.836-2.3zm1.512 1.152c-.11.644-.289 1.582-.394 2.082-.325 1.547.105 1.726 2.84 1.332 2.335-.36 2.515-.36 3.128.43 1.149 1.441.54 1.945-2.05 1.656-1.258-.11-2.446-.145-2.66 0-.215.144.214.683 1.042 1.293 1.582 1.117 2.336 2.265 2.047 3.058-.32.825-1.258.575-2.586-.757-1.511-1.508-2.734-1.797-1.836-.395.325.434.684 1.438.828 2.195.36 2.047-.359 1.508-2.84-2.086-1.976-2.878-2.12-3.238-1.69-3.992.253-.468.827-1.078 1.296-1.332.719-.36.86-.718.86-2.156 0-1.258.183-1.832.648-2.086 1.187-.719 1.617-.465 1.367.758zm-22.473 1.223c0 .394.11.5.215.214.11-.254.074-.578-.035-.683-.105-.145-.215.07-.18.469zm3.274.68c0 .577.07.792.18.433.07-.324.07-.828 0-1.078-.11-.215-.18.035-.18.644zm0 0" fill="#fff"/><path d="M35.668 44.367c-.074 1.656-.11 1.727-.934 1.512-.863-.215-.863-.215-.324.863 1.508 3.055-2.48 6.004-4.531 3.38-.434-.54-.754-.755-.754-.54 0 .25.395.828.898 1.293 2.086 2.121 5.211.219 5.211-3.2 0-.683.18-1.292.399-1.366.215-.07.324-.864.215-1.903l-.11-1.8zm7.836-.863c.289.18.723.36.902.36.215 0 .106-.18-.18-.36-.288-.18-.683-.36-.902-.36-.18 0-.105.18.18.36zm-12.547 1.152c-.035.719-1.113.899-1.113.215 0-.215-.074-.324-.18-.215-.11.11-.074.54.106.973.289.789.289.789.937.07.36-.394.574-.933.465-1.187-.145-.285-.215-.25-.215.144zm0 0" fill="#fff"/><path d="M31.281 47.316c0 .18.25.684.54 1.079.288.359.538.503.538.289 0-.18-.25-.684-.539-1.079-.289-.359-.539-.503-.539-.289zm-1.797 7.875c.504.29 1.149.504 1.438.504.289 0 0-.215-.684-.504-1.511-.683-1.941-.683-.754 0zm3.125 2.59c.649.07 1.801.07 2.52 0 .754-.074.25-.144-1.152-.144-1.368 0-1.977.07-1.368.144zm0 0" fill="#fff"/></svg>
