<?xml version="1.0" encoding="UTF-8"?>
<svg width="110px" height="110px" viewBox="0 0 110 110" version="1.1" xmlns="http://www.w3.org/2000/svg" xmlns:xlink="http://www.w3.org/1999/xlink">
    <!-- Generator: Sketch 42 (36781) - http://www.bohemiancoding.com/sketch -->
    <title>electron-icon</title>
    <desc>Created with Sketch.</desc>
    <defs></defs>
    <g id="Icon" stroke="none" stroke-width="1" fill="none" fill-rule="evenodd">
        <g id="electron-icon">
            <g id="Icon" transform="translate(6.000000, 2.000000)">
                <path d="M33.9550239,23.7668345 C20.7116462,21.3547731 9.84672253,23.6510715 5.65379147,30.9134411 C2.54297264,36.3015374 3.63575986,43.5033939 7.96429681,51.053126 M15.1424957,60.7333049 C20.621784,66.7546367 27.8833772,72.6032938 36.4423452,77.5448163 C56.8450102,89.3243004 78.0256747,92.1419357 88.0842276,85.2834407 M97.4597468,81.4663524 C97.4597468,78.4300404 94.9983295,75.9686231 91.9620175,75.9686231 C88.9257054,75.9686231 86.4642881,78.4300404 86.4642881,81.4663524 C86.4642881,84.5026645 88.9257054,86.9640817 91.9620175,86.9640817 C94.9983295,86.9640817 97.4597468,84.5026645 97.4597468,81.4663524 L97.4597468,81.4663524 Z" id="Swoosh-Right" stroke="#2F3242" stroke-width="3" stroke-linecap="round"></path>
                <path d="M84.3560423,59.005967 C93.026596,48.7630616 96.4473623,38.2344469 92.2631633,30.9872015 C89.2032873,25.6873408 82.5901449,23.0322334 74.0924185,22.9217197 M61.9397006,24.2416289 C53.9190031,25.9600984 45.1320918,29.3427429 36.4849308,34.3351836 C15.4801077,46.4623239 2.28905638,64.0529141 4.07934687,76.2511779" id="Swoosh-Left" stroke="#2F3242" stroke-width="3" stroke-linecap="round"></path>
                <path d="M28.6498084,85.0473317 C33.1834827,97.7069811 40.5999471,105.956237 48.9797702,105.956237 C55.0524723,105.956237 60.619254,101.624032 64.9496257,94.4205997 M70.1782272,82.4552852 C72.5807096,74.7778595 73.9694488,65.7017273 73.9694488,55.9768802 C73.9694488,32.1108859 65.6054457,12.1519268 54.4200803,7.18528465" id="Swoosh-Top" stroke="#2F3242" stroke-width="3" stroke-linecap="round"></path>
                <path d="M97.4597468,81.4663524 C97.4597468,78.4300404 94.9983295,75.9686231 91.9620175,75.9686231 C88.9257054,75.9686231 86.4642881,78.4300404 86.4642881,81.4663524 C86.4642881,84.5026645 88.9257054,86.9640817 91.9620175,86.9640817 C94.9983295,86.9640817 97.4597468,84.5026645 97.4597468,81.4663524 L97.4597468,81.4663524 Z" id="Electron-Right" stroke="#2F3242" stroke-width="3" stroke-linecap="round"></path>
                <path d="M5.89756569,86.9640817 C8.93387774,86.9640817 11.395295,84.5026645 11.395295,81.4663524 C11.395295,78.4300404 8.93387774,75.9686231 5.89756569,75.9686231 C2.86125363,75.9686231 0.399836384,78.4300404 0.399836384,81.4663524 C0.399836384,84.5026645 2.86125363,86.9640817 5.89756569,86.9640817 L5.89756569,86.9640817 L5.89756569,86.9640817 Z" id="Electron-Left" stroke="#2F3242" stroke-width="3" stroke-linecap="round"></path>
                <ellipse id="Electron-Top" stroke="#2F3242" stroke-width="3" stroke-linecap="round" cx="48.9797702" cy="5.99752288" rx="5.4977293" ry="5.4977293"></ellipse>
                <path d="M50.0412978,60.8916841 C47.3267926,61.4782009 44.6524598,59.753084 44.0647952,57.0385788 C43.4794263,54.3240736 45.2033953,51.6497408 47.9179005,51.0620763 C50.6324057,50.4755595 53.3067385,52.2006763 53.8944031,54.9151815 C54.4809198,57.6296867 52.755803,60.3040196 50.0412978,60.8916841 Z" id="Nucleus" fill="#2F3242"></path>
            </g>
        </g>
    </g>
</svg>