<svg width="96" height="96" viewBox="0 0 72 72" xmlns="http://www.w3.org/2000/svg"><g fill="#fff"><path d="M40.129 21.289v-2.492c0-.574-.473-1.047-1.047-1.047h-.605c-.141-.008-.27-.086-.645-.242a1.909 1.909 0 0 0-.738-.164h-.438c-.261 0-.511.07-.738.164-.371.156-.5.234-.64.242h-.606c-.574 0-1.047.473-1.047 1.047v2.492c0 .574.473 1.047 1.047 1.047h4.406c.578 0 1.05-.473 1.05-1.047zm-3.25-.078c-.648 0-1.172-.524-1.172-1.168a1.17 1.17 0 0 1 2.34 0c0 .644-.523 1.168-1.168 1.168z"/><path d="M34.254 26.664v-1.77l-9.61 8.786a4.65 4.65 0 0 0-5.324-4.867l10.73-13.977c0 .046-.003.093-.003.136 0 2.047.898 3.88 2.324 5.13V18.8c0-.297.054-.578.156-.836a5.209 5.209 0 1 1 8.633-.156c.144.3.226.637.226.988v1.305a6.813 6.813 0 0 0 2.32-5.129 6.825 6.825 0 0 0-6.828-6.828c-1.98 0-3.761.84-5.007 2.188l-.008-.008-.078.101a6.939 6.939 0 0 0-.621.809L16.269 30.636h.004a4.65 4.65 0 0 0 6.523 6.488l.008.004.082-.074c.176-.137 11.367-10.391 11.367-10.391zM16.977 33.41a3.027 3.027 0 1 1 6.055 0 3.027 3.027 0 0 1-6.055 0z"/><path d="M35.578 42.852l.008-19.234 2.582.004-.012 19.23z"/><path d="M43.133 41.535l-1.86 2.633h-8.816l-1.855-2.633h-1.555v8.316h15.641v-8.316zm-6.266 6.168a1.352 1.352 0 1 1 .001-2.704 1.352 1.352 0 0 1 0 2.704zM29.047 52.555c0 .8 3.5 1.453 7.82 1.453 4.317 0 7.82-.652 7.82-1.453v-1.559h-15.64z"/><path d="M48.652 41.535h-2.633v12.699c0 2.508-.129 4.144-.39 4.918-.38 1.133-1.07 2.043-2.075 2.738-1 .692-2.218 1.04-3.652 1.04h-6.05c-1.434 0-2.653-.348-3.653-1.04-1-.695-1.691-1.605-2.074-2.738-.258-.773-.387-2.41-.387-4.918V41.535h-2.637v13.18c0 2.762.325 4.844.97 6.242a7.372 7.372 0 0 0 2.91 3.29c1.296.792 2.921 1.187 4.874 1.187h6.047c1.953 0 3.578-.395 4.875-1.188a7.395 7.395 0 0 0 2.91-3.289c.645-1.398.965-3.48.965-6.242z"/></g></svg>