<?xml version="1.0" encoding="UTF-8"?>
<svg width="72pt" height="72pt" version="1.1" viewBox="0 0 72 72" xmlns="http://www.w3.org/2000/svg">
<g fill="#fff">
<path d="m40.129 21.289v-2.4922c0-0.57422-0.47266-1.0469-1.0469-1.0469h-0.60547c-0.14062-0.007812-0.26953-0.085938-0.64453-0.24219-0.22266-0.09375-0.47266-0.16406-0.73828-0.16406h-0.4375c-0.26172 0-0.51172 0.070312-0.73828 0.16406-0.37109 0.15625-0.5 0.23438-0.64062 0.24219h-0.60547c-0.57422 0-1.0469 0.47266-1.0469 1.0469v2.4922c0 0.57422 0.47266 1.0469 1.0469 1.0469h4.4062c0.57812 0 1.0508-0.47266 1.0508-1.0469zm-3.25-0.078124c-0.64844 0-1.1719-0.52344-1.1719-1.168s0.52344-1.168 1.1719-1.168c0.64453 0 1.168 0.52344 1.168 1.168s-0.52344 1.168-1.168 1.168z"/>
<path d="m34.254 26.664v-1.7695l-9.6094 8.7852c0.003907-0.089844 0.007813-0.17969 0.007813-0.26953 0-2.5664-2.082-4.6484-4.6484-4.6484-0.23047 0-0.46094 0.015625-0.68359 0.050781l10.73-13.977c0 0.046874-0.003906 0.09375-0.003906 0.13672 0 2.0469 0.89844 3.8789 2.3242 5.1289v-1.3008c0-0.29688 0.054687-0.57812 0.15625-0.83594-0.59375-0.84766-0.94531-1.8789-0.94531-2.9922 0-2.875 2.332-5.207 5.2109-5.207 2.875 0 5.207 2.332 5.207 5.207 0 1.0469-0.30859 2.0195-0.83984 2.8359 0.14453 0.30078 0.22656 0.63672 0.22656 0.98828v1.3047c1.4219-1.25 2.3203-3.0859 2.3203-5.1289 0-3.7734-3.0547-6.8281-6.8281-6.8281-1.9805 0-3.7617 0.83984-5.0078 2.1875l-0.007813-0.007812-0.078125 0.10156c-0.22656 0.25391-0.43359 0.52344-0.62109 0.80859l-14.895 19.402h0.003907c-0.57813 0.77344-0.91797 1.7344-0.91797 2.7734 0 2.5664 2.082 4.6484 4.6484 4.6484 1.0508 0 2.0156-0.34766 2.793-0.93359l0.007813 0.003906 0.082031-0.074218c0.17578-0.13672 11.367-10.391 11.367-10.391zm-17.277 6.7461c0-1.6719 1.3555-3.0273 3.0273-3.0273s3.0273 1.3555 3.0273 3.0273-1.3555 3.0273-3.0273 3.0273-3.0273-1.3555-3.0273-3.0273z"/>
<path d="m35.578 42.852 0.007813-19.234 2.582 0.003906-0.011719 19.23z"/>
<path d="m43.133 41.535-1.8594 2.6328h-8.8164l-1.8555-2.6328h-1.5547v8.3164h15.641v-8.3164zm-6.2656 6.168c-0.74609 0-1.3516-0.60547-1.3516-1.3516 0-0.74609 0.60547-1.3516 1.3516-1.3516 0.74609 0 1.3516 0.60547 1.3516 1.3516 0 0.74609-0.60547 1.3516-1.3516 1.3516z"/>
<path d="m29.047 52.555c0 0.80078 3.5 1.4531 7.8203 1.4531 4.3164 0 7.8203-0.65234 7.8203-1.4531v-1.5586h-15.641z"/>
<path d="m48.652 41.535h-2.6328v12.699c0 2.5078-0.12891 4.1445-0.39062 4.918-0.37891 1.1328-1.0703 2.043-2.0742 2.7383-1 0.69141-2.2188 1.0391-3.6523 1.0391h-6.0508c-1.4336 0-2.6523-0.34766-3.6523-1.0391-1-0.69531-1.6914-1.6055-2.0742-2.7383-0.25781-0.77344-0.38672-2.4102-0.38672-4.918v-12.699h-2.6367v13.18c0 2.7617 0.32422 4.8438 0.96875 6.2422 0.64453 1.4023 1.6133 2.4961 2.9102 3.2891 1.2969 0.79297 2.9219 1.1875 4.875 1.1875h6.0469c1.9531 0 3.5781-0.39453 4.875-1.1875 1.293-0.79297 2.2656-1.8867 2.9102-3.2891 0.64453-1.3984 0.96484-3.4805 0.96484-6.2422z"/>
</g>
</svg>
