<svg xmlns="http://www.w3.org/2000/svg" viewBox="303.745 244.132 35.629 21.343" width="72" height="72"><path d="M0 0h10.639l2.339-4.055.862-1.492 2.116-3.665-1.536-2.66.876-1.402 2.346 4.062-2.992 5.186-.862 1.493-2.306 3.993H-.843l-5.172-8.956h1.686Z" style="fill:#fff;fill-opacity:1" transform="matrix(1 0 0 -1 311.115 245.592)"/><path d="M0 0h-10.639l-4.898 8.482h11.802L-6.47 5.747l1.033-1.032L-.94 9.212l-4.497 4.497-1.033-1.032 2.736-2.735h-14.274l6.526-11.402H.843l1.872 3.241-.879 1.401Z" style="fill:#fff;fill-opacity:1" transform="matrix(1 0 0 -1 321.753 264.016)"/><path d="m0 0 3.931-6.285-3.478-6.547-7.409-.263-.358.569-.591.949-.876 1.402-.591.945-1.515 2.423 1.537 2.895-.862 1.492-2.361-4.449 2.372-3.795.591-.946.88-1.401.591-.949.391-.624 9.095.321 4.27 8.037L.792 1.489l-.423-.015-8.672-.306-.004-.007.814-1.416Z" style="fill:#fff;fill-opacity:1" transform="matrix(1 0 0 -1 333.757 248.256)"/></svg>
