<svg width="216" height="100" viewBox="0 0 216 100" fill="none" xmlns="http://www.w3.org/2000/svg">
<path d="M38 41H49H52H63V44H52H49H38V41Z" fill="white"/>
<path d="M67 38H81V41H67V38Z" fill="white"/>
<path d="M67 44H79V47H67V44Z" fill="white"/>
<path d="M66 50H77V53H66V50Z" fill="white"/>
<path d="M34 38H20V41H34V38Z" fill="white"/>
<path d="M34 44H22V47H34V44Z" fill="white"/>
<path d="M35 50H24V53H35V50Z" fill="white"/>
<path d="M52 53V50H49V53H52Z" fill="white"/>
<path fill-rule="evenodd" clip-rule="evenodd" d="M50.5 30C48.6764 30 45.6292 30.6791 42.7617 31.435C40.2003 32.1185 37.6562 32.8618 35.1318 33.6644C34.4047 33.8972 33.7601 34.3241 33.2721 34.8962C32.784 35.4682 32.4723 36.1621 32.3727 36.8983C30.7975 48.3706 34.4526 56.8729 38.8873 62.4976C40.7679 64.9037 43.0102 67.0226 45.5394 68.7834C46.4139 69.3928 47.3405 69.9286 48.3091 70.385C49.0517 70.7232 49.8446 71 50.5 71C51.1554 71 51.9509 70.7232 52.6909 70.385C53.6595 69.9285 54.5861 69.3927 55.4606 68.7834C57.9898 67.0226 60.2322 64.9038 62.1127 62.4976C66.5474 56.8729 70.2025 48.3706 68.6273 36.8983C68.5277 36.1621 68.216 35.4682 67.7279 34.8962C67.2399 34.3241 66.5953 33.8972 65.8682 33.6644C64.1292 33.1134 61.1719 32.2037 58.2383 31.435C55.3708 30.6791 52.3236 30 50.5 30ZM52 50V53H49V50H52ZM52 50V44H63V41H52V33.1252C53.4468 33.33 55.2541 33.7605 56.9834 34.225C59.4413 34.8812 61.9191 35.6578 63.3761 36.1281C63.9852 36.3269 64.5253 36.6913 64.9342 37.1797C65.3431 37.668 65.6043 38.2604 65.6878 38.8888C67.0075 48.6822 63.9451 55.9403 60.2296 60.7419C58.654 62.7959 56.7753 64.6047 54.6562 66.1078C53.9235 66.628 53.1471 67.0853 52.3356 67.475C52.2249 67.5266 52.1127 67.5764 52 67.6236V53H61V50H52ZM49 53V67.6233C48.8874 67.5762 48.7752 67.5264 48.6644 67.475C47.8529 67.0854 47.0765 66.628 46.3438 66.1078C44.2248 64.6046 42.3461 62.7958 40.7704 60.7419C37.0549 55.9403 33.9925 48.6822 35.3122 38.8888C35.3957 38.2604 35.6569 37.668 36.0658 37.1797C36.4747 36.6913 37.0148 36.3269 37.6239 36.1281C39.739 35.443 41.8705 34.8085 44.0166 34.225C45.7459 33.7605 47.5532 33.33 49 33.1252V41H38V44H49V50H40V53H49Z" fill="white"/>
<path d="M110.34 63.536H115.048V66H101.408V63.536H105.412V37.664H101.408V35.2H125.212V42.416H122.396V38.632L121.516 37.664H110.34V49.72H118.304L118.964 49.06V46.948H121.78V55H118.964V52.888L118.304 52.184H110.34V63.536ZM128.822 37.664V35.2H133.398C134.718 35.2 136.141 35.1413 137.666 35.024C139.221 34.9067 140.717 34.848 142.154 34.848C143.767 34.848 145.351 35.0093 146.906 35.332C148.461 35.6253 149.839 36.1387 151.042 36.872C152.245 37.6053 153.213 38.588 153.946 39.82C154.709 41.0227 155.09 42.5333 155.09 44.352C155.09 46.0827 154.709 47.5787 153.946 48.84C153.183 50.072 152.171 51.084 150.91 51.876C149.678 52.668 148.241 53.2547 146.598 53.636C144.985 54.0173 143.313 54.208 141.582 54.208C141.406 54.208 141.142 54.208 140.79 54.208C140.438 54.208 140.057 54.208 139.646 54.208C139.265 54.1787 138.898 54.1493 138.546 54.12C138.194 54.0907 137.93 54.0613 137.754 54.032V63.536H142.154V66H128.822V63.536H132.826V37.664H128.822ZM137.754 51.524C137.901 51.5827 138.121 51.6267 138.414 51.656C138.737 51.656 139.074 51.6707 139.426 51.7C139.778 51.7293 140.115 51.744 140.438 51.744C140.79 51.744 141.054 51.744 141.23 51.744C142.374 51.744 143.445 51.612 144.442 51.348C145.469 51.0547 146.363 50.6147 147.126 50.028C147.889 49.4413 148.49 48.6787 148.93 47.74C149.37 46.8013 149.59 45.672 149.59 44.352C149.59 41.9467 148.827 40.172 147.302 39.028C145.806 37.884 143.753 37.312 141.142 37.312C140.35 37.312 139.69 37.3413 139.162 37.4C138.634 37.4293 138.165 37.488 137.754 37.576V51.524ZM163.889 66H153.109V63.536H156.541L167.937 35.2H172.601L183.029 63.536H186.329V66H173.745V63.536H177.661L174.801 55.792H163.097L160.105 63.536H163.889V66ZM164.109 53.328H174.053L170.445 43.164L169.345 38.5H169.169L167.893 43.252L164.109 53.328Z" fill="white"/>
</svg>
