<svg width="350" height="120" viewBox="0 0 350 120" fill="none" xmlns="http://www.w3.org/2000/svg">
<g clip-path="url(#clip0)">
<path d="M161 98H164.5C166.9 98 168.4 96.9 168.8 94.4L173.5 68.1H185.4C187.8 68.1 189.3 67 189.7 64.5L190.1 62.2C190.6 59.4 189.2 57.9 186.5 57.9H175.3L178.7 38.2H193.7C196.1 38.2 197.6 37.1 198 34.6L198.4 32.3C198.9 29.5 197.5 28 194.8 28H172.6C170.2 28 168.7 29.1 168.3 31.6L157.4 93.7C156.9 96.5 158.3 98 161 98ZM235.603 32C235.603 29.5 234.003 28 231.503 28H224.303C222.003 28 220.503 29.1 219.703 31.2L197.303 93.4C196.303 96.1 197.603 98 200.503 98H203.703C206.003 98 207.503 96.9 208.203 94.7L212.303 82.4H225.203L225.003 94C225.003 96.7 226.303 98 228.903 98H232.403C235.003 98 236.403 96.7 236.403 94L235.603 32ZM215.503 72.8L225.903 41.7L225.403 72.8H215.503ZM292.812 49.4L294.212 41.6C296.112 31.2 288.212 27.2 279.612 27.2H279.412C268.812 27.2 261.512 31.2 259.612 41.6L258.012 50.8C256.912 57 260.812 61.4 266.212 64.8L273.512 69.4C276.612 71.3 277.512 73.3 276.812 77.1L275.812 82.6C275.112 86.9 272.212 88.8 268.712 88.8C265.212 88.8 263.112 86.9 263.812 82.6L264.912 76.3C265.412 73.5 264.012 72 261.312 72H258.012C255.612 72 254.012 73.2 253.612 75.6L252.112 84.2C250.212 95.1 257.312 98.8 266.912 98.8H267.112C278.712 98.8 285.012 95 286.912 84.2L288.712 74.1C290.012 67 286.612 64 280.412 60.1L273.012 55.5C270.012 53.6 269.312 51.6 269.912 48L270.812 43.2C271.512 38.8 274.312 37.2 277.712 37.2C281.112 37.2 283.312 38.8 282.612 43.2L281.612 48.7C281.112 51.5 282.512 53 285.212 53H288.512C290.912 53 292.412 51.9 292.812 49.4ZM341.418 28H314.518C312.118 28 310.618 29.1 310.218 31.6L309.818 33.9C309.318 36.7 310.718 38.2 313.418 38.2H320.718L311.018 93.7C310.518 96.5 311.918 98 314.618 98H318.118C320.518 98 322.018 96.9 322.418 94.4L332.318 38.2H340.318C342.718 38.2 344.218 37.1 344.618 34.6L345.018 32.3C345.518 29.5 344.118 28 341.418 28Z" fill="#F9F9F9"/>
<path fill-rule="evenodd" clip-rule="evenodd" d="M113.652 28.3344C124.932 25.2136 136.213 32.0794 139.346 43.3144C142.166 54.8615 135.586 66.4085 124.932 69.5293C124.62 69.8414 123.993 69.8414 123.679 69.8414C120.545 87.6301 107.385 103.234 88.8983 108.228C71.3511 113.221 53.4905 107.291 41.897 95.1201C40.3302 93.5597 38.1369 92.9355 36.2568 93.5597H35.9434C34.0634 93.8718 32.1833 92.9355 31.87 91.063C31.5567 89.1905 32.4967 87.6301 34.3768 87.0059L73.8578 76.0831C75.7379 75.771 77.6179 76.7072 77.9313 78.5797C78.2446 80.4522 77.3046 82.0126 75.4245 82.6368L55.0573 88.2543C51.2972 89.5026 49.7304 94.1838 53.1773 96.3684C62.8909 102.61 75.1112 105.107 86.3916 101.986C101.745 97.9288 113.026 85.1334 116.159 70.1535C108.012 69.2172 100.806 63.2877 98.6119 54.5494C96.4185 45.8111 99.5519 37.0728 106.132 32.0794C96.1051 21.1566 80.438 16.1632 65.3976 20.2203C52.8639 23.6532 43.1503 32.7036 38.1369 43.9386C36.5701 47.6836 40.0169 50.8044 43.777 49.8681L45.9703 49.244C47.8504 48.9319 49.7304 49.8681 50.0438 51.7406C50.3572 53.6131 49.4172 55.1735 47.5371 55.7977L11.1894 65.7843C9.30935 66.0964 7.42929 65.1602 7.11595 63.2877C6.80261 61.4152 7.74263 59.8548 9.62269 59.2306L25.2898 54.8614C27.4832 54.2373 29.0499 52.6769 29.3632 50.4923C33.1234 33.0157 45.9703 18.6599 63.8308 13.6666C82.0047 8.67325 100.492 15.227 112.086 28.9586C112.254 28.8749 112.4 28.7912 112.535 28.7135C112.903 28.5015 113.194 28.3344 113.652 28.3344ZM103.938 48.9319C103.938 57.3581 110.832 63.9118 118.979 63.9118C127.439 63.9118 134.02 57.3581 134.02 48.9319C134.02 40.5057 127.126 33.9519 118.979 33.9519C110.832 33.9519 103.938 40.5057 103.938 48.9319ZM78.3262 63.9744L90.8489 60.5303C92.7273 59.9042 93.6664 58.3387 93.3533 56.4601C93.0402 54.5815 91.1619 53.6422 89.2835 53.9553L76.7609 57.3994C74.8825 58.0256 73.9433 59.5911 74.2563 61.4696C74.5694 63.3482 76.4478 64.2875 78.3262 63.9744ZM66.4296 66.7923L57.3507 69.2971C55.4723 69.9233 53.5939 68.6709 53.2808 66.7923C52.9678 64.9137 53.907 63.3482 55.7854 62.722L64.8643 60.2172C66.7427 59.9041 68.6211 60.8434 68.9342 62.722C69.2473 64.6006 68.3081 66.1661 66.4296 66.7923ZM43.5756 66.1661C45.4539 65.853 47.3323 66.7923 47.6453 68.6709C47.9584 70.2364 47.0192 72.115 45.1408 72.7412L4.12919 84.0128C2.25078 84.3259 0.372392 83.3866 0.0593262 81.508C-0.25374 79.6294 0.685458 78.0639 2.56385 77.4377L43.5756 66.1661Z" fill="#F9F9F9"/>
</g>
<defs>
<clipPath id="clip0">
<rect width="350" height="120" fill="white"/>
</clipPath>
</defs>
</svg>
