<svg width="72" height="72" viewBox="0 0 72 72" fill="none" xmlns="http://www.w3.org/2000/svg">
<path fill-rule="evenodd" clip-rule="evenodd" d="M57.2017 19.9339C62.6807 18.418 68.1596 21.7529 69.6817 27.2099C71.0513 32.8185 67.8552 38.427 62.6807 39.9428C62.5287 40.0944 62.2243 40.0944 62.0718 40.0944C60.5498 48.7347 54.1576 56.3137 45.1783 58.7394C36.6554 61.1645 27.9802 58.2843 22.3491 52.3727C21.5881 51.6148 20.5227 51.3116 19.6095 51.6148H19.4573C18.5442 51.7663 17.631 51.3116 17.4788 50.4021C17.3266 49.4926 17.7832 48.7347 18.6964 48.4315L37.8729 43.1261C38.7861 42.9745 39.6993 43.4292 39.8515 44.3387C40.0037 45.2482 39.5471 46.0062 38.6339 46.3093L28.7412 49.0378C26.9149 49.6442 26.1539 51.9179 27.8281 52.979C32.5461 56.0106 38.4817 57.2235 43.9608 55.7075C51.4183 53.7369 56.8973 47.522 58.4194 40.246C54.462 39.7912 50.9619 36.9112 49.8963 32.6669C48.831 28.4226 50.3529 24.1782 53.5492 21.7529C48.6788 16.4475 41.069 14.0221 33.7637 15.9927C27.6759 17.6601 22.9578 22.056 20.5227 27.5131C19.7617 29.3321 21.4359 30.8479 23.2622 30.3931L24.3276 30.09C25.2408 29.9384 26.1539 30.3931 26.3061 31.3026C26.4583 32.2121 26.0017 32.97 25.0886 33.2732L7.43395 38.1238C6.52077 38.2754 5.6076 37.8207 5.4554 36.9112C5.30321 36.0017 5.75979 35.2438 6.67297 34.9406L14.2827 32.8184C15.3481 32.5153 16.1091 31.7574 16.2612 30.6963C18.0876 22.2076 24.3276 15.2348 33.0027 12.8095C41.83 10.3841 50.8095 13.5674 56.4409 20.237C56.5225 20.1964 56.5932 20.1557 56.6588 20.118C56.8378 20.015 56.9789 19.9339 57.2017 19.9339ZM52.4835 29.9384C52.4835 34.0311 55.8321 37.2143 59.789 37.2143C63.8983 37.2143 67.0944 34.0311 67.0944 29.9384C67.0944 25.8456 63.7459 22.6624 59.789 22.6624C55.8321 22.6624 52.4835 25.8456 52.4835 29.9384ZM40.0434 37.2447L46.1258 35.5719C47.0382 35.2678 47.4943 34.5074 47.3423 33.5949C47.1902 32.6825 46.2779 32.2262 45.3655 32.3783L39.2831 34.0512C38.3707 34.3553 37.9145 35.1157 38.0666 36.0281C38.2186 36.9406 39.131 37.3968 40.0434 37.2447ZM34.2645 38.6133L29.8547 39.83C28.9424 40.1341 28.03 39.5258 27.8779 38.6133C27.7259 37.7009 28.1821 36.9405 29.0944 36.6363L33.5042 35.4197C34.4166 35.2676 35.3289 35.7239 35.481 36.6363C35.6331 37.5488 35.1769 38.3092 34.2645 38.6133ZM23.1653 38.3093C24.0776 38.1573 24.99 38.6135 25.142 39.526C25.2941 40.2864 24.8379 41.1988 23.9256 41.503L4.00561 46.9778C3.09324 47.1298 2.18088 46.6736 2.02882 45.7611C1.87675 44.8487 2.33294 44.0883 3.2453 43.7841L23.1653 38.3093Z" fill="#F9F9F9"/>
</svg>
