<svg width="72" height="72" fill="#fff" xmlns="http://www.w3.org/2000/svg"><path d="M72 35.891C72 16.195 55.805 0 35.891 0 15.976 0 0 16.194 0 35.891v28.012C0 68.28 3.502 72 8.097 72H35.89C55.805 72 72 55.806 72 35.891" opacity=".4"/><path d="M46.614 8.59c-9.41 0-17.07 7.66-17.07 16.852v8.972h-8.973c-9.191 0-16.85 7.441-16.85 16.851s7.659 16.851 16.85 16.851c9.41 0 17.07-7.44 17.07-16.85v-8.973h8.973c9.191 0 16.851-7.44 16.851-16.851 0-9.192-7.66-16.851-16.851-16.851zm0 7.88c4.815 0 8.754 4.157 8.754 8.972 0 5.033-3.94 8.972-8.754 8.972h-7.66c-.875 0-1.313-.656-1.313-1.313v-7.66c0-4.814 3.94-8.972 8.973-8.972zM20.571 42.292h7.66c.875 0 1.313.657 1.313 1.313v7.66c0 5.033-3.94 8.972-8.973 8.972-4.815 0-8.973-3.939-8.973-8.972 0-4.815 4.159-8.973 8.973-8.973z" opacity=".5"/><path d="M29.544 34.391v-8.973c0-9.191 7.66-16.85 16.851-16.85 1.532 0 2.407.218 3.72.437 1.97.656 3.502 2.188 3.502 3.94 0 2.188-1.532 3.72-3.94 3.72-1.094 0-1.531-.22-3.282-.22-4.815 0-8.754 4.159-8.754 8.973v7.66c0 .875.438 1.313 1.094 1.313h5.91a3.922 3.922 0 0 1 3.938 3.94 3.922 3.922 0 0 1-3.939 3.938h-7.003v8.973c0 9.41-7.66 16.851-17.07 16.851-1.313 0-2.407 0-3.72-.438-1.751-.437-3.283-1.97-3.283-3.939 0-2.188 1.532-3.72 3.94-3.72 1.093 0 1.531.219 3.063.219 5.033 0 8.973-3.94 8.973-8.973v-7.66c0-.656-.438-1.313-1.313-1.313h-5.69a3.923 3.923 0 0 1-3.94-3.939 3.924 3.924 0 0 1 3.94-3.94h7.003"/></svg>