<?xml version="1.0" encoding="UTF-8"?>
<svg width="72" height="72" fill="#ffffff" viewBox="0 0 72 72" xmlns="http://www.w3.org/2000/svg">
 <path d="m72 35.891c0-19.696-16.195-35.891-36.109-35.891-19.915 0-35.891 16.194-35.891 35.891v28.012c0 4.3769 3.5015 8.0973 8.0973 8.0973h27.793c19.915 0 36.109-16.194 36.109-36.109" opacity=".4"/>
 <path d="m46.614 8.5907c-9.4103 0-17.07 7.6595-17.07 16.851v8.9727h-8.9726c-9.1915 0-16.851 7.4407-16.851 16.851 0 9.4104 7.6596 16.851 16.851 16.851 9.4103 0 17.07-7.4407 17.07-16.851v-8.9726h8.9726c9.1915 0 16.851-7.4407 16.851-16.851 0-9.1915-7.6596-16.851-16.851-16.851zm0 7.8784c4.8146 0 8.7538 4.158 8.7538 8.9726 0 5.0335-3.9392 8.9727-8.7538 8.9727h-7.6596c-0.87538 0-1.3131-0.6566-1.3131-1.3131v-7.6596c0-4.8146 3.9392-8.9726 8.9726-8.9726zm-26.043 25.824h7.6596c0.87538 0 1.3131 0.6565 1.3131 1.3131v7.6595c0 5.0335-3.9392 8.9727-8.9726 8.9727-4.8146 0-8.9726-3.9392-8.9726-8.9727 0-4.8146 4.1581-8.9726 8.9726-8.9726z" opacity=".5"/>
 <path d="m29.544 34.391v-8.9727c0-9.1915 7.6596-16.851 16.851-16.851 1.5319 0 2.4073 0.2188 3.7204 0.4376 1.9696 0.6566 3.5015 2.1885 3.5015 3.9393 0 2.1884-1.5319 3.7203-3.9392 3.7203-1.0942 0-1.5319-0.2188-3.2827-0.2188-4.8146 0-8.7538 4.158-8.7538 8.9726v7.6596c0 0.8754 0.43769 1.3131 1.0942 1.3131h5.9088c2.1884 0 3.9392 1.7507 3.9392 3.9392 0 2.1884-1.7508 3.9392-3.9392 3.9392h-7.003v8.9726c0 9.4104-7.6596 16.851-17.07 16.851-1.3131 0-2.4073 0-3.7204-0.4377-1.7508-0.4377-3.2827-1.9696-3.2827-3.9392 0-2.1885 1.5319-3.7204 3.9392-3.7204 1.0942 0 1.5319 0.2189 3.0638 0.2189 5.0334 0 8.9726-3.9392 8.9726-8.9727v-7.6595c0-0.6566-0.43769-1.3131-1.3131-1.3131h-5.69c-2.1884 0-3.9392-1.7508-3.9392-3.9392 0-2.1885 1.7508-3.9392 3.9392-3.9392h7.003"/>
</svg>
