<svg fill="none" height="72" viewBox="0 0 72 72" width="72" xmlns="http://www.w3.org/2000/svg"><path d="m8.4375 0h55.125c4.6602 0 8.4375 3.77734 8.4375 8.4375v55.125c0 4.6602-3.7773 8.4375-8.4375 8.4375h-55.125c-4.66016 0-8.4375-3.7773-8.4375-8.4375v-55.125c0-4.66016 3.77734-8.4375 8.4375-8.4375z" fill="#000"/><g fill="#fff"><path d="m9.47266 30.7773c-2.6836-9.0117-1.34375-17.6328 10.04684-20.89449 2.8907-.82812 7.293-1.42578 10.2813-1.47266 10.914-.17187 33.5078-.03515 34.0234.00391.2852.02344-.8086 4.35154-2.7226 7.21484-3.1289 4.6797-7.586 6.8789-13.2188 7.1641-6.9375.3515-13.8945.4179-20.8398.4179-6.8789.0039-12.7813 2.0782-17.31644 7.4805-.04687.0586-.16797.0586-.2539.0859z"/><path d="m43.7812 28.6602-18.3984-.0313c-9.543.082-17.25389 7.8945-17.25389 17.5234 0 9.625 7.71089 17.4375 17.25389 17.5196v-22.6094h18.3984z"/></g></svg>