<?xml version="1.0" encoding="UTF-8" standalone="no"?>
<svg
   xmlns:dc="http://purl.org/dc/elements/1.1/"
   xmlns:cc="http://creativecommons.org/ns#"
   xmlns:rdf="http://www.w3.org/1999/02/22-rdf-syntax-ns#"
   xmlns:svg="http://www.w3.org/2000/svg"
   xmlns="http://www.w3.org/2000/svg"
   xmlns:sodipodi="http://sodipodi.sourceforge.net/DTD/sodipodi-0.dtd"
   xmlns:inkscape="http://www.inkscape.org/namespaces/inkscape"
   inkscape:export-ydpi="96"
   inkscape:export-xdpi="96"
   inkscape:export-filename="N:\!Mod REPOs\fbw-branding\png\WHITE\FBW-Logo-WHITE.png"
   inkscape:version="1.0 (4035a4fb49, 2020-05-01)"
   height="72"
   width="72"
   sodipodi:docname="FBW-Logo-WHITE.svg"
   version="1.1"
   viewBox="0 0 71.999999 72.000001"
   data-name="Layer 1"
   id="Layer_1">
  <metadata
     id="metadata51">
    <rdf:RDF>
      <cc:Work
         rdf:about="">
        <dc:format>image/svg+xml</dc:format>
        <dc:type
           rdf:resource="http://purl.org/dc/dcmitype/StillImage" />
        <dc:title></dc:title>
      </cc:Work>
    </rdf:RDF>
  </metadata>
  <sodipodi:namedview
     inkscape:document-rotation="0"
     inkscape:current-layer="Layer_1"
     inkscape:window-maximized="1"
     inkscape:window-y="-8"
     inkscape:window-x="1912"
     inkscape:cy="45.042459"
     inkscape:cx="42.897794"
     inkscape:zoom="6.6384419"
     showgrid="false"
     id="namedview49"
     inkscape:window-height="1017"
     inkscape:window-width="2560"
     inkscape:pageshadow="2"
     inkscape:pageopacity="0"
     guidetolerance="10"
     gridtolerance="10"
     objecttolerance="10"
     borderopacity="1"
     bordercolor="#666666"
     pagecolor="#000000" />
  <defs
     id="defs4">
    <style
       id="style2">.cls-1{fill:#fff;}.cls-2{fill:#01c2cb;}.cls-3{fill:#649aae;}.cls-4{fill:#669bb0;}.cls-5{fill:#595757;}.cls-6{fill:#679aaf;}.cls-7{fill:#585858;}.cls-8{fill:#05c3cc;}.cls-9{fill:#06c4cc;}.cls-10{fill:#679bb0;}.cls-11{fill:#05c4cd;}.cls-12{fill:#06c2cb;}.cls-13{fill:#595555;}.cls-14{fill:#565959;}.cls-15{fill:#595858;}.cls-16{fill:#feffff;}.cls-17{fill:#fefefe;}.cls-18{fill:#fdfeff;}</style>
  </defs>
  <path
     style="fill:#ffffff;fill-opacity:1;stroke-width:0.214138"
     id="path8"
     d="m 42.804355,66.695102 c -0.156321,0.01927 -0.312641,0.04925 -0.468962,0.05568 -0.214138,0 -0.441124,0 -0.661686,0 H 1.2166397 c -0.31478271,0 -0.62956537,-0.01285 -0.94648942,-0.02141 A 0.2912275,0.2912275 0 0 1 0.0174676,66.493812 c 0,-0.03212 -0.01498966,-0.0621 -0.017131034,-0.09208 0,-0.916516 0,-1.830885 0,-2.747395 A 0.40043782,0.40043782 0 0 1 0.32154337,63.245334 C 1.0496121,63.031197 1.7776809,62.817059 2.5036083,62.602921 4.7456318,61.947659 6.9619588,61.217449 9.1311754,60.343766 a 43.870425,43.870425 0 0 0 8.7496736,-4.674629 38.908851,38.908851 0 0 0 6.668253,-5.858812 42.660546,42.660546 0 0 0 5.353446,-7.432726 q 2.374789,-4.149992 4.588975,-8.389922 5.441243,-10.347141 10.863214,-20.702849 c 0.687382,-1.314806 1.368341,-2.631754 2.057865,-3.9444195 0.160603,-0.3083586 0.323348,-0.6167171 0.511789,-0.9079446 a 6.672536,6.672536 0 0 1 4.775275,-3.0835853 8.0944115,8.0944115 0 0 1 1.22701,-0.087797 q 4.164981,0 8.336387,0 a 2.5568062,2.5568062 0 0 1 0.856551,0.0621 c 0.04925,0.3961551 -0.134906,0.740917 -0.252682,1.0963859 Q 61.367967,10.952867 59.851871,15.479742 L 43.059179,65.782868 c -0.0985,0.301941 -0.169169,0.6103 -0.254824,0.912234 z"
     class="cls-2" />
  <path
     style="fill:#787878;fill-opacity:1;stroke-width:0.214138"
     id="path10"
     d="m 42.804355,66.6902 c 0.08565,-0.301934 0.15632,-0.610293 0.254824,-0.907951 L 59.851871,15.479123 q 1.509672,-4.529016 3.015061,-9.0601737 c 0.117776,-0.3554688 0.301934,-0.7002308 0.252682,-1.0963858 a 4.1285781,4.1285781 0 0 1 0.556759,-0.072807 q 3.740989,0 7.484118,0 a 1.7602133,1.7602133 0 0 1 0.456114,0.081372 c 0.04925,0.012848 0.09208,0.083514 0.113493,0.1370482 a 0.38116541,0.38116541 0 0 1 0.01285,0.1841586 c -0.203432,1.2120203 -0.413288,2.4218993 -0.614577,3.6403438 -0.214138,1.3062414 -0.428276,2.6146234 -0.642414,3.9208644 -0.154179,0.9315 -0.319065,1.862999 -0.475386,2.794499 -0.156321,0.9315 -0.308358,1.865141 -0.462538,2.798782 -0.154179,0.933641 -0.306217,1.865141 -0.462537,2.796641 -0.156321,0.931499 -0.316925,1.86514 -0.475387,2.79664 -0.173451,1.025721 -0.349044,2.0493 -0.518213,3.077161 -0.214138,1.3041 -0.428276,2.612482 -0.642414,3.918723 -0.154179,0.9315 -0.319065,1.862999 -0.475386,2.783792 -0.156321,0.920793 -0.306217,1.867282 -0.462538,2.798782 l -0.486093,2.890861 c -0.154179,0.9315 -0.306217,1.865141 -0.462537,2.796641 l -0.486093,2.890861 -0.462538,2.798782 c -0.154179,0.9315 -0.306217,1.865141 -0.462538,2.796641 l -0.483952,2.890861 -0.464679,2.796641 -0.483951,2.890861 -0.464679,2.798782 q -0.241976,1.44543 -0.486093,2.88872 c -0.04069,0.248399 -0.100645,0.494664 -0.137049,0.745206 -0.08351,0.554617 -0.141331,0.588879 -0.749482,0.586738 -0.09422,0 -0.188442,0 -0.282662,0 q -8.43275,0 -16.863357,0 c -0.304076,0 -0.618859,-0.02784 -0.9315,-0.05996 z"
     class="cls-3" />
</svg>
