<svg version="1.1" id="svg8" xmlns="http://www.w3.org/2000/svg" x="0" y="0" width="72" height="72" viewBox="0 0 461.4 580.7" xml:space="preserve">
  <style>
    .st0{fill:#fff}
  </style>
  <path class="st0" d="M442.2 175.5c-1-11.4-3.1-22.7-6.3-33.6-6.3-20.1-11.3-30.6-20.4-42.9-16.7-22.6-43.4-43.1-73.6-56.5-29.9-13.3-62-20.9-97.5-23.3-7.2-.5-26.7-.5-33.9 0-19.3 1.1-38.4 4.3-57 9.5-5.9 1.7-21.8 7.1-28.1 9.6-7.7 3.3-15.2 7-22.4 11.3-23.7 14.4-43.5 34.3-57.8 58-10.3 17.3-18.9 41-22.7 62.2-2.1 10.9-3.2 22.1-3.1 33.2-.1 6.6-.3 14-.5 16.4-.5 5.8-.1 9.5 2.7 23.1 1.6 8 3.7 21.1 4.4 27.8.8 7.4.8 12.1.4 29.2-.3 13.2-.3 14.3.5 19.2.4 2.8 1.1 6.1 1.4 7.3 1.2 4.4 3.1 8.6 5.4 12.6 3 4.1 6.7 7.7 10.9 10.6 1.5.9 4.8 2.9 7.2 4.4 2.4 1.5 7.1 4 10.4 5.6 7.5 3.7 8.1 3.7 10 .7 2.5-4 3-6.2 3-12.5 0-3.1.1-5.5.2-5.5.6.4 2.6 5.7 3.1 8.1.6 3.2.3 11.2-.6 15-.3 1.5-1.1 4.5-1.8 6.6-3 10.2-4.3 25-3.8 41.6.3 8.1.6 9.3 3.5 11.8 1.7 1.6 4 2.2 6.2 1.8l1-.2-.2-4.1c-.1-2.3-.1-4.6.2-6.9.5-2.7 1.8-6.3 2.4-6.3.2 0 .3 2.2.3 4.8-.1 3.6.2 7.1.9 10.6.4 2.5.6 2.8 2 4 2.1 1.6 4.8 2.2 7.4 1.8 1.5-.3 1.6-.4 1.5-1.6-.3-4.3-.2-8.6.5-12.8.6-3 1.5-5.3 2-5.3.2 0 .4 2.9.4 6.4.1 6.5.5 10.5 1.3 13.7.5 1.8.7 2 2.8 3 2.1 1 2.6 1.1 6.4 1.1 1.9.1 3.9-.1 5.8-.5l1.7-.5-.3-3c-.2-2-.1-4 .2-5.9.6-3.8 1.9-9.5 2.3-9.9.7-.7 1.2 2.1 1.5 8.3.3 6.6 1 12.1 1.6 12.7 1 .5 2.1.8 3.1 1v-.1c4.2 1 10.2.8 12.8-.4 1.8-.9 1.9-1 1.9-2.4 0-.8-.4-4-.9-7-.9-5.8-.9-10.2.1-10.2 1.2 0 4.2 10.3 4.7 16l.2 2.9 2 .5c6.3 1.6 11.4.6 16-3.4l2-1.7-.3-2.6c-.1-1.3-.7-4.5-1.2-7-1.1-5.4-1.6-9.6-1.1-9.6s1.9 2 3 4.4c1.7 3.9 2.7 8 3 12.2l.1 2.9 1.4.4c4.4 1.2 11.1-.6 14-3.6 1.8-2 1.8-2.5-.1-9.7-1.6-6-1.8-7-1.2-7s3.9 6.8 4.7 10.1l.9 3.2h1.6c2.4 0 4-.8 6.7-3.2 2.2-1.9 2.8-2.3 5.2-2.8 1.6-.4 3.1-1 4.5-1.8 2.1-1.3 4-3.7 4-5-.6-2.4-1.3-4.8-2.2-7.1-1.2-3.4-2.1-6.3-1.9-6.5.5-.5 3.3 2.6 4.8 5.2.8 1.5 1.5 3 2.1 4.6.6 1.9.8 2 1.8 1.9 3.2-.4 6.9-3.5 8.1-6.7s1.3-3.3 2.6-3.9c5.1-2.3 6.7-9.2 4.1-17.5-.9-2.6-1.4-5.3-1.5-8.1-.2-5 .2-7.2 2.2-11.5.6-1 1-2.1 1.3-3.3-.3-.3-5.4 1.2-7.8 2.2-2.5 1.1-4.3 1.3-4.3.7 0-.5 2.8-2.4 5.4-3.7 4.9-2 10.1-3.4 15.4-4.1 2.2-.2 4.3-.5 4.6-.6.6-.2 3.8-.5 7.8-.7-.9-4.7-1.6-8.7-2-10.5-.6-3.3-1.1-6-1.2-6 0 0-3-.8-6.5-1.7-9.7-2.5-11.3-3-11.4-3.7-.1-.7.1-.9 9.5-4.4 4.1-1.5 7.5-2.8 7.5-2.8s.9-11.9 2.1-33.4c.6-10.6.8-12.5 1.3-12.4.4.1.8.8.9 1.7.2.9 1.3 7.1 2.6 13.8 1.9 10.1 6.3 28.8 7 29.4.1.1 5.5 1.2 12.1 2.5 7 1.4 12.1 2.6 12.3 2.9s.1.7-.3 1-5.4 1.8-11.3 3.3-10.9 3-11.3 3.2c-.3.2-.7 1.3-.9 3.3-.6 5.9-.9 9.7-1.3 13.3 18.9-.9 34.7-3.2 41.6-6 3.4-1.4 7.9-4.8 14.3-10.7 3.9-3.7 7.2-6.4 8.2-6.9 3-1.4 6.8-.3 9.6 2.9 2.5 2.7 3.1 4.9 3.1 10.5 0 2.2-.1 4.5-.4 6.7-.5 2.5-.1 3 2.1 3 4.2 0 16.8-5.4 25.6-11 21.7-13.8 39.5-33.9 53.6-60.8 12.4-23.7 19.8-49.7 21.7-76.4.9-9.5.9-19 .4-28.5zM31 265.7c-.1 0-.1 0 0 0-.1 0-.2-.1-.2-.2s.1-.2.2-.2.2.1.2.2c-.1.2-.1.2-.2.2zm.8 14.7c-.1.1-.2 0-.2-.2s.1-.4.2-.2c.1 0 .1.3 0 .4zm57.4-.1c-4 7.7-9 11.9-18.2 15.3v.1c-4.6 1.7-5 1.8-8.4 1.8-5.7-.1-8.4-.7-12.8-3-2-1-3.9-2.3-5.6-3.9-2.1-2.2-6.3-10.1-7-13.1-.3-1.5-.5-10.1-.6-31.9l-.1-29.9 1.7-4c2.2-5.7 6.6-10.2 12.3-12.5 3.6-1.3 9.2-2.2 11.6-2 3.6.4 7.1 1.3 10.5 2.7 2.7 1.3 9.6 7.3 12 10.3 5.2 6.6 9 16.2 10.5 26.5 2 12.6-1 34.2-5.9 43.6zm44.1 61.3c0 5.1 0 5.2-1.3 7.6-.6 1.2-1.3 2.3-2.2 3.2-1.6 1.4-2.7 1.1-5.5-1.7-1.7-1.6-3.2-3.5-4.2-5.6-1.4-2.8-5.4-13.8-7.8-21.4-1-3-5.7-12.5-6.6-13.3-.5-.4-.6 1-.8 11.6-.4 16.1-1 21.4-3 25.3-1.4 2.7-4.1 3.7-5.6 2.1-1.2-1.3-1.6-2.9-1.9-7.6-.3-5.2.9-15 3.1-24.6 1.3-5.3 2.3-10.7 2.9-16.1.6-5.2.6-5.3 2.3-6.6 1.7-1.3 2.9-1.4 5.1-.3 2.5 1.3 3.6 2.2 6.5 5.5 7.4 8.5 15 22.3 17.7 32.3 1.1 3.1 1.5 6.3 1.3 9.6zM282.8 246c-1.6.8-13.9 4.4-29.5 8.8.1 1.2.1 2.6.1 3.9 0 8.1-.6 11.7-2.9 18.6-2.6 7.8-4.5 11.2-9 16.2-2.4 2.6-9.6 8.4-12.1 9.6-4.5 2-9.2 3.5-14 4.4-1 9.7-3.6 32.4-4.4 38.5-.2 1.7-.6 4.4-.8 6.2s-.5 4.4-.6 5.9c-.3 7.3-1.6 28.5-1.8 31.3l-.3 3.2-1.3.1c-1.1.1-1.4-.1-1.7-.8-.2-.5-1.3-6.3-2.5-12.9-1.2-6.6-3-17-4.2-23.2-1.5-7.9-5.3-29-8.8-48.5-1.7-.4-3.5-1-5.6-1.8-9.5-3.3-15.3-6.9-19.9-12.6-2.8-3.5-4.1-5.8-5.8-11-1.5-4.3-2.6-8.7-3-13.2-.3-2.2-1-6.8-1.6-10.8-9.7-2.6-17.8-5-18.8-5.5-.9-.4-1.2-.9-1.2-1.6 0-.5-.1-1-.3-1.4-.5-.7.2-1.3 3.2-2.6 2-.9 8.3-3.4 15.4-6.1-.2-4.1-.3-8.3-.3-12.4-.1-3 .5-6 1.6-8.7 2.1-5.8 6-12.1 9.4-14.7 5-3.9 12-6.6 19.3-7.3.4-7.5 1.3-21.8 1.9-32 .6-10.1 1.5-25.8 2.1-34.8.5-9 1.1-19.1 1.3-22.4 0-2.2.3-4.5.7-6.7.7-.8 1.9-.9 2.7-.2.2.3 1.3 5.5 2.4 11.5s3.1 17.5 4.6 25.6c1.5 8 3.6 19.8 4.8 26.2 1.2 6.4 2.2 12.4 2.4 13.4s1 4.3 1.8 7.4c1.4 5 2.9 10.8 4.4 16.5 5.8 2.2 11.4 4.9 16.6 8.2 8.4 5.5 15.4 13.5 20.9 24 38 7.7 35.1 7.1 35.9 8.1.4.5.4.7-.1 1-.5.3-.5.4-.1.6.6.4.3 1.4-.9 2zm2.8-72.4c-1.1.6-14.9 4.9-18.4 5.8-1.1.2-2.1.6-3.2 1-.1.1-1 6.2-1.8 13.4-1.3 11.7-1.7 16.5-1.8 22.5 0 1.6-.5 2.2-1 1.3v-.1c-.5-1.4-.9-2.8-1.2-4.3-.6-2.2-2.3-8.9-3.9-14.9s-3.2-12.4-3.6-14.2l-.7-3.2-7.5-1.7c-9.8-2.2-10.5-2.4-10.8-3-.3-.6.1-.7 8.4-2.8 2.4-.6 5.5-1.4 6.8-1.8l2.5-.7.7-7.1c.4-3.9 1-9.7 1.4-12.7.3-3.1.9-7.8 1.2-10.5.5-4.6 1-6.3 1.7-5.3.4 1.6.8 3.3 1 5 .4 2.5 1 5.3 1.2 6.1.2.9.7 3.3 1.1 5.3.9 5 4.9 18 5.6 18.4.8.4 10.4 1.5 16.3 1.8 6.8.3 8 .7 6 1.7z"/>
  <path class="st0" d="M338.7 407.1c-.2-.5-.7-2.8-1.2-5.1s-1.2-5.9-1.6-7.9c-.8-3.5-.8-4.9-.9-27-.1-22.5-.1-23.4-.9-26.5-1.5-5.6-2.9-7.3-6.1-7.3-2.9 0-5.7 3-7.9 8.7-2.2 4.9-5 9.6-8.3 13.8-3.1 3.7-5.8 5.6-9.8 6.8-4.3 1.3-6.3 1-12.2-2l-4.4-2.2h-3.8c-6.2 0-8.4 1-10.3 4.5-.8 1.4-1.3 3-1.3 4.6-.2 2.5 1 14.7 2 21.1 1.3 7.8 1 23.8-.5 27.9-.9 2.7-2.4 4.6-6.2 8.3-1.4 1.3-2.8 2.8-4 4.3-.4.8-9.4 6.7-10.1 6.7-.9-.5-1.8-1.1-2.5-1.9-1.2-1-2.4-1.9-3.7-2.8-.9-.7-2.2-.9-3.3-.5-3.3.8-4.2 1.3-6.6 3.7-2.4 2.4-2.6 2.5-5 2.9-2.1.3-4.1 1.1-5.9 2.3-.7.5-.7.6-.1 1.4 2.8 3.8 3.4 4.8 3.9 6.4.9 2.7.7 7.4-.3 7.1-.6-.9-1.1-2-1.4-3.1-.7-2-1.7-3.9-2.9-5.6-1.6-2.3-2-2.6-2.7-2.5l-1.6.4c-1.7.8-3.1 1.9-4.3 3.3-.4.7-.5 1-.2 1.3.9.8.4.9-3.1.9-4 0-6.5.7-8.5 2.6-1.3 1.2-1.3 1.5.1 3.6 1.8 2.7 2.5 5.9 2.1 9.1-.5 4.4-1 3.9-3.5-2.8-.6-1.7-1.3-3.3-2.1-4.9-.8-1.2-.9-1.2-2.6-1-2 .5-4 1.2-5.9 2.1-1.8.9-3.7 1.6-5.7 2.1-1.3.2-1.7.4-2.5 1.8-1.2 1.9-1.2 2.5.1 6 .7 1.6 1 3.4.8 5.2-.2 2.5-.8 3.9-1.5 3.7-.4-.1-1-1.8-3.5-9.6-.7-2.1-1.3-3.4-1.8-3.6-1.7-.9-6.9.8-8.8 2.9-1.3 1.5-1.3 1-.6 6.6 1 8.3.9 9.1-1 6.5-1.5-2.5-2.5-5.2-2.9-8.1-.2-1.8-.3-2-1.7-2.7-.9-.6-2.1-.7-3.1-.3-1 .3-1.9.7-2.7 1.4l-1.1 1 .2 7c.3 7.6.1 8.6-1.3 7.4-1.2-1-2-4-2.2-8.1-.1-2.8-.4-4-1-5.1l-.8-1.4-2.4.2c-2.5.2-4.8 1.2-6.6 2.8l-1.4 1.1-.1 5.3c-.1 5.9-.4 8.4-.9 8.4s-1.8-2.9-2.3-5c-.3-2-.4-4-.3-6 .1-4.5 0-4.9-2.1-5.9-1.5-.6-3.3-.5-4.8.3-1.3 1-1.8 3-1.8 7.3-.1 7.9-.9 9.6-2.5 5.6-1.1-2.6-1.3-5.5-.8-8.3.4-1.2.3-2.5-.2-3.6-.6-1.9-2.4-3.2-4.4-3.3-4.2 0-5.3 2.3-5.6 11.2 0 1.8-.1 3.6-.3 5.4-.4.7-1.3-.1-2-1.8-1-2.4-1-11 0-13.1.9-1.9.8-2.2-.3-2.7-2.1-.9-5.8.4-6.4 2.4-.3 1.2.2 6.9 1.1 10.4.5 2 .5 4.8.1 4.8s-2.5-3.1-3.1-4.6c-1.1-2.8-1.5-8.9-.8-11.2 0-.1.1-.2.1-.3.3-1.2-.4-2.4-1.5-2.7-2-.9-7.4 1.8-7.4 3.7 0 .7 2.7 9.2 4.7 14.9.6 1.8 2.5 6.2 4.1 9.8 1.6 3.6 3.6 8.2 4.5 10.2l1.6 3.7.3 6.8c.5 12.5 2.9 21.8 7.9 30.1 2.3 4.1 5.5 7.6 9.4 10.2 4.2 2.9 6.1 3.8 9.6 4.6 3.5.8 9.8.4 18.2-.9 6.7-.9 13.3-2.6 19.6-5.1 19.3-7.3 37.7-16.6 54.9-27.8 5-3.2 14.5-9.6 17.3-11.7.7-.5 5-3.5 9.4-6.5s11.5-8 15.6-11l12.1-9c6.3-4.7 9.2-7 18.5-15 4.4-3.8 9.9-8.3 12.3-10 6.7-4.9 14-12.4 18-18.2 3.7-5.4 4.8-7.4 6.5-11.5 2.9-7 3.7-14.7 2.3-22.2-.7-2.4-1.2-4.8-1.4-5.2zm-8.3-14c-.1 0-.2-.1-.2-.2s.1-.2.2-.2.2.1.2.2-.1.2-.2.2z"/>
</svg>
