<?xml version="1.0" encoding="utf-8"?>
<!-- Generator: Adobe Illustrator 24.3.0, SVG Export Plug-In . SVG Version: 6.00 Build 0)  -->
<svg version="1.1" id="svg8" xmlns="http://www.w3.org/2000/svg" xmlns:xlink="http://www.w3.org/1999/xlink" x="0px" y="0px"
	 viewBox="0 0 461.4 580.7" style="enable-background:new 0 0 461.4 580.7;" xml:space="preserve">
<style type="text/css">
	.st0{fill:#FFFFFF;}
</style>
<g>
	<path class="st0" d="M442.2,175.5c-1-11.4-3.1-22.7-6.3-33.6c-6.3-20.1-11.3-30.6-20.4-42.9c-16.7-22.6-43.4-43.1-73.6-56.5
		c-29.9-13.3-62-20.9-97.5-23.3c-7.2-0.5-26.7-0.5-33.9,0c-19.3,1.1-38.4,4.3-57,9.5c-5.9,1.7-21.8,7.1-28.1,9.6
		c-7.7,3.3-15.2,7-22.4,11.3c-23.7,14.4-43.5,34.3-57.8,58c-10.3,17.3-18.9,41-22.7,62.2c-2.1,10.9-3.2,22.1-3.1,33.2
		c-0.1,6.6-0.3,14-0.5,16.4c-0.5,5.8-0.1,9.5,2.7,23.1c1.6,8,3.7,21.1,4.4,27.8c0.8,7.4,0.8,12.1,0.4,29.2
		c-0.3,13.2-0.3,14.3,0.5,19.2c0.4,2.8,1.1,6.1,1.4,7.3c1.2,4.4,3.1,8.6,5.4,12.6c3,4.1,6.7,7.7,10.9,10.6c1.5,0.9,4.8,2.9,7.2,4.4
		c2.4,1.5,7.1,4,10.4,5.6c7.5,3.7,8.1,3.7,10,0.7c2.5-4,3-6.2,3-12.5c0-3.1,0.1-5.5,0.2-5.5c0.6,0.4,2.6,5.7,3.1,8.1
		c0.6,3.2,0.3,11.2-0.6,15c-0.3,1.5-1.1,4.5-1.8,6.6c-3,10.2-4.3,25-3.8,41.6c0.3,8.1,0.6,9.3,3.5,11.8c1.7,1.6,4,2.2,6.2,1.8l1-0.2
		l-0.2-4.1c-0.1-2.3-0.1-4.6,0.2-6.9c0.5-2.7,1.8-6.3,2.4-6.3c0.2,0,0.3,2.2,0.3,4.8c-0.1,3.6,0.2,7.1,0.9,10.6c0.4,2.5,0.6,2.8,2,4
		c2.1,1.6,4.8,2.2,7.4,1.8c1.5-0.3,1.6-0.4,1.5-1.6c-0.3-4.3-0.2-8.6,0.5-12.8c0.6-3,1.5-5.3,2-5.3c0.2,0,0.4,2.9,0.4,6.4
		c0.1,6.5,0.5,10.5,1.3,13.7c0.5,1.8,0.7,2,2.8,3c2.1,1,2.6,1.1,6.4,1.1c1.9,0.1,3.9-0.1,5.8-0.5l1.7-0.5l-0.3-3
		c-0.2-2-0.1-4,0.2-5.9c0.6-3.8,1.9-9.5,2.3-9.9c0.7-0.7,1.2,2.1,1.5,8.3c0.3,6.6,1,12.1,1.6,12.7c1,0.5,2.1,0.8,3.1,1l0-0.1
		c4.2,1,10.2,0.8,12.8-0.4c1.8-0.9,1.9-1,1.9-2.4c0-0.8-0.4-4-0.9-7c-0.9-5.8-0.9-10.2,0.1-10.2c1.2,0,4.2,10.3,4.7,16l0.2,2.9
		l2,0.5c6.3,1.6,11.4,0.6,16-3.4l2-1.7l-0.3-2.6c-0.1-1.3-0.7-4.5-1.2-7c-1.1-5.4-1.6-9.6-1.1-9.6c0.5,0,1.9,2,3,4.4
		c1.7,3.9,2.7,8,3,12.2l0.1,2.9l1.4,0.4c4.4,1.2,11.1-0.6,14-3.6c1.8-2,1.8-2.5-0.1-9.7c-1.6-6-1.8-7-1.2-7s3.9,6.8,4.7,10.1
		l0.9,3.2h1.6c2.4,0,4-0.8,6.7-3.2c2.2-1.9,2.8-2.3,5.2-2.8c1.6-0.4,3.1-1,4.5-1.8c2.1-1.3,4-3.7,4-5c-0.6-2.4-1.3-4.8-2.2-7.1
		c-1.2-3.4-2.1-6.3-1.9-6.5c0.5-0.5,3.3,2.6,4.8,5.2c0.8,1.5,1.5,3,2.1,4.6c0.6,1.9,0.8,2,1.8,1.9c3.2-0.4,6.9-3.5,8.1-6.7
		s1.3-3.3,2.6-3.9c5.1-2.3,6.7-9.2,4.1-17.5c-0.9-2.6-1.4-5.3-1.5-8.1c-0.2-5,0.2-7.2,2.2-11.5c0.6-1,1-2.1,1.3-3.3
		c-0.3-0.3-5.4,1.2-7.8,2.2c-2.5,1.1-4.3,1.3-4.3,0.7c0-0.5,2.8-2.4,5.4-3.7c4.9-2,10.1-3.4,15.4-4.1c2.2-0.2,4.3-0.5,4.6-0.6
		c0.6-0.2,3.8-0.5,7.8-0.7c-0.9-4.7-1.6-8.7-2-10.5c-0.6-3.3-1.1-6-1.2-6c0,0-3-0.8-6.5-1.7c-9.7-2.5-11.3-3-11.4-3.7
		c-0.1-0.7,0.1-0.9,9.5-4.4c4.1-1.5,7.5-2.8,7.5-2.8s0.9-11.9,2.1-33.4c0.6-10.6,0.8-12.5,1.3-12.4c0.4,0.1,0.8,0.8,0.9,1.7
		c0.2,0.9,1.3,7.1,2.6,13.8c1.9,10.1,6.3,28.8,7,29.4c0.1,0.1,5.5,1.2,12.1,2.5c7,1.4,12.1,2.6,12.3,2.9s0.1,0.7-0.3,1
		s-5.4,1.8-11.3,3.3s-10.9,3-11.3,3.2c-0.3,0.2-0.7,1.3-0.9,3.3c-0.6,5.9-0.9,9.7-1.3,13.3c18.9-0.9,34.7-3.2,41.6-6
		c3.4-1.4,7.9-4.8,14.3-10.7c3.9-3.7,7.2-6.4,8.2-6.9c3-1.4,6.8-0.3,9.6,2.9c2.5,2.7,3.1,4.9,3.1,10.5c0,2.2-0.1,4.5-0.4,6.7
		c-0.5,2.5-0.1,3,2.1,3c4.2,0,16.8-5.4,25.6-11c21.7-13.8,39.5-33.9,53.6-60.8c12.4-23.7,19.8-49.7,21.7-76.4
		C442.7,194.5,442.7,185,442.2,175.5z M31,265.7C30.9,265.7,30.9,265.7,31,265.7c-0.1,0-0.2-0.1-0.2-0.2c0-0.1,0.1-0.2,0.2-0.2
		c0.1,0,0.2,0.1,0.2,0.2C31.1,265.7,31.1,265.7,31,265.7z M31.8,280.4c-0.1,0.1-0.2,0-0.2-0.2s0.1-0.4,0.2-0.2c0,0,0,0,0,0
		C31.9,280,31.9,280.3,31.8,280.4z M89.2,280.3c-4,7.7-9,11.9-18.2,15.3l0,0.1c-4.6,1.7-5,1.8-8.4,1.8c-5.7-0.1-8.4-0.7-12.8-3
		c-2-1-3.9-2.3-5.6-3.9c-2.1-2.2-6.3-10.1-7-13.1c-0.3-1.5-0.5-10.1-0.6-31.9l-0.1-29.9l1.7-4c2.2-5.7,6.6-10.2,12.3-12.5
		c3.6-1.3,9.2-2.2,11.6-2c3.6,0.4,7.1,1.3,10.5,2.7c2.7,1.3,9.6,7.3,12,10.3c5.2,6.6,9,16.2,10.5,26.5
		C97.1,249.3,94.1,270.9,89.2,280.3z M133.3,341.6c0,5.1,0,5.2-1.3,7.6c-0.6,1.2-1.3,2.3-2.2,3.2h0c-1.6,1.4-2.7,1.1-5.5-1.7
		c-1.7-1.6-3.2-3.5-4.2-5.6c-1.4-2.8-5.4-13.8-7.8-21.4c-1-3-5.7-12.5-6.6-13.3c-0.5-0.4-0.6,1-0.8,11.6c-0.4,16.1-1,21.4-3,25.3
		c-1.4,2.7-4.1,3.7-5.6,2.1c-1.2-1.3-1.6-2.9-1.9-7.6c-0.3-5.2,0.9-15,3.1-24.6c1.3-5.3,2.3-10.7,2.9-16.1c0.6-5.2,0.6-5.3,2.3-6.6
		c1.7-1.3,2.9-1.4,5.1-0.3c2.5,1.3,3.6,2.2,6.5,5.5c7.4,8.5,15,22.3,17.7,32.3C133.1,335.1,133.5,338.3,133.3,341.6z M282.8,246
		c-1.6,0.8-13.9,4.4-29.5,8.8c0.1,1.2,0.1,2.6,0.1,3.9c0,8.1-0.6,11.7-2.9,18.6c-2.6,7.8-4.5,11.2-9,16.2c-2.4,2.6-9.6,8.4-12.1,9.6
		c-4.5,2-9.2,3.5-14,4.4c-1,9.7-3.6,32.4-4.4,38.5c-0.2,1.7-0.6,4.4-0.8,6.2s-0.5,4.4-0.6,5.9c-0.3,7.3-1.6,28.5-1.8,31.3l-0.3,3.2
		l-1.3,0.1c-1.1,0.1-1.4-0.1-1.7-0.8l0,0c-0.2-0.5-1.3-6.3-2.5-12.9c-1.2-6.6-3-17-4.2-23.2c-1.5-7.9-5.3-29-8.8-48.5
		c-1.7-0.4-3.5-1-5.6-1.8c-9.5-3.3-15.3-6.9-19.9-12.6c-2.8-3.5-4.1-5.8-5.8-11c-1.5-4.3-2.6-8.7-3-13.2c-0.3-2.2-1-6.8-1.6-10.8
		c-9.7-2.6-17.8-5-18.8-5.5c-0.9-0.4-1.2-0.9-1.2-1.6c0-0.5-0.1-1-0.3-1.4c-0.5-0.7,0.2-1.3,3.2-2.6c2-0.9,8.3-3.4,15.4-6.1
		c-0.2-4.1-0.3-8.3-0.3-12.4c-0.1-3,0.5-6,1.6-8.7c2.1-5.8,6-12.1,9.4-14.7c5-3.9,12-6.6,19.3-7.3c0,0,0,0,0,0
		c0.4-7.5,1.3-21.8,1.9-32c0.6-10.1,1.5-25.8,2.1-34.8c0.5-9,1.1-19.1,1.3-22.4c0-2.2,0.3-4.5,0.7-6.7c0.7-0.8,1.9-0.9,2.7-0.2
		c0,0,0,0,0,0c0.2,0.3,1.3,5.5,2.4,11.5s3.1,17.5,4.6,25.6c1.5,8,3.6,19.8,4.8,26.2c1.2,6.4,2.2,12.4,2.4,13.4s1,4.3,1.8,7.4
		c1.4,5,2.9,10.8,4.4,16.5c5.8,2.2,11.4,4.9,16.6,8.2c8.4,5.5,15.4,13.5,20.9,24c38,7.7,35.1,7.1,35.9,8.1c0.4,0.5,0.4,0.7-0.1,1
		c-0.5,0.3-0.5,0.4-0.1,0.6C284.3,244.4,284,245.4,282.8,246z M285.6,173.6c-1.1,0.6-14.9,4.9-18.4,5.8c-1.1,0.2-2.1,0.6-3.2,1
		c-0.1,0.1-1,6.2-1.8,13.4c-1.3,11.7-1.7,16.5-1.8,22.5c0,1.6-0.5,2.2-1,1.3l0-0.1c-0.5-1.4-0.9-2.8-1.2-4.3
		c-0.6-2.2-2.3-8.9-3.9-14.9s-3.2-12.4-3.6-14.2l-0.7-3.2l-7.5-1.7c-9.8-2.2-10.5-2.4-10.8-3c-0.3-0.6,0.1-0.7,8.4-2.8
		c2.4-0.6,5.5-1.4,6.8-1.8l2.5-0.7l0.7-7.1c0.4-3.9,1-9.7,1.4-12.7c0.3-3.1,0.9-7.8,1.2-10.5c0.5-4.6,1-6.3,1.7-5.3
		c0.4,1.6,0.8,3.3,1,5c0.4,2.5,1,5.3,1.2,6.1c0.2,0.9,0.7,3.3,1.1,5.3c0.9,5,4.9,18,5.6,18.4c0.8,0.4,10.4,1.5,16.3,1.8
		C286.4,172.2,287.6,172.6,285.6,173.6z"/>
	<path class="st0" d="M338.7,407.1c-0.2-0.5-0.7-2.8-1.2-5.1c-0.5-2.3-1.2-5.9-1.6-7.9c-0.8-3.5-0.8-4.9-0.9-27
		c-0.1-22.5-0.1-23.4-0.9-26.5c-1.5-5.6-2.9-7.3-6.1-7.3c-2.9,0-5.7,3-7.9,8.7c-2.2,4.9-5,9.6-8.3,13.8c-3.1,3.7-5.8,5.6-9.8,6.8
		c-4.3,1.3-6.3,1-12.2-2l-4.4-2.2h-3.8c-6.2,0-8.4,1-10.3,4.5c-0.8,1.4-1.3,3-1.3,4.6c-0.2,2.5,1,14.7,2,21.1
		c1.3,7.8,1,23.8-0.5,27.9c-0.9,2.7-2.4,4.6-6.2,8.3c-1.4,1.3-2.8,2.8-4,4.3c-0.4,0.8-9.4,6.7-10.1,6.7c-0.9-0.5-1.8-1.1-2.5-1.9
		c-1.2-1-2.4-1.9-3.7-2.8c-0.9-0.7-2.2-0.9-3.3-0.5c-3.3,0.8-4.2,1.3-6.6,3.7c-2.4,2.4-2.6,2.5-5,2.9c-2.1,0.3-4.1,1.1-5.9,2.3
		c-0.7,0.5-0.7,0.6-0.1,1.4c2.8,3.8,3.4,4.8,3.9,6.4c0.9,2.7,0.7,7.4-0.3,7.1c-0.6-0.9-1.1-2-1.4-3.1c-0.7-2-1.7-3.9-2.9-5.6
		c-1.6-2.3-2-2.6-2.7-2.5l-1.6,0.4c-1.7,0.8-3.1,1.9-4.3,3.3c-0.4,0.7-0.5,1-0.2,1.3c0.9,0.8,0.4,0.9-3.1,0.9c-4,0-6.5,0.7-8.5,2.6
		c-1.3,1.2-1.3,1.5,0.1,3.6c1.8,2.7,2.5,5.9,2.1,9.1c-0.5,4.4-1,3.9-3.5-2.8c-0.6-1.7-1.3-3.3-2.1-4.9c-0.8-1.2-0.9-1.2-2.6-1
		c-2,0.5-4,1.2-5.9,2.1c-1.8,0.9-3.7,1.6-5.7,2.1c-1.3,0.2-1.7,0.4-2.5,1.8c-1.2,1.9-1.2,2.5,0.1,6c0.7,1.6,1,3.4,0.8,5.2
		c-0.2,2.5-0.8,3.9-1.5,3.7c-0.4-0.1-1-1.8-3.5-9.6c-0.7-2.1-1.3-3.4-1.8-3.6c-1.7-0.9-6.9,0.8-8.8,2.9c-1.3,1.5-1.3,1-0.6,6.6
		c1,8.3,0.9,9.1-1,6.5c-1.5-2.5-2.5-5.2-2.9-8.1c-0.2-1.8-0.3-2-1.7-2.7c-0.9-0.6-2.1-0.7-3.1-0.3c-1,0.3-1.9,0.7-2.7,1.4l-1.1,1
		l0.2,7c0.3,7.6,0.1,8.6-1.3,7.4c-1.2-1-2-4-2.2-8.1c-0.1-2.8-0.4-4-1-5.1l-0.8-1.4l-2.4,0.2c-2.5,0.2-4.8,1.2-6.6,2.8l-1.4,1.1
		l-0.1,5.3c-0.1,5.9-0.4,8.4-0.9,8.4s-1.8-2.9-2.3-5c-0.3-2-0.4-4-0.3-6c0.1-4.5,0-4.9-2.1-5.9c-1.5-0.6-3.3-0.5-4.8,0.3
		c-1.3,1-1.8,3-1.8,7.3c-0.1,7.9-0.9,9.6-2.5,5.6c-1.1-2.6-1.3-5.5-0.8-8.3c0.4-1.2,0.3-2.5-0.2-3.6c-0.6-1.9-2.4-3.2-4.4-3.3
		c-4.2,0-5.3,2.3-5.6,11.2c0,1.8-0.1,3.6-0.3,5.4c-0.4,0.7-1.3-0.1-2-1.8c-1-2.4-1-11,0-13.1c0.9-1.9,0.8-2.2-0.3-2.7
		c-2.1-0.9-5.8,0.4-6.4,2.4c-0.3,1.2,0.2,6.9,1.1,10.4c0.5,2,0.5,4.8,0.1,4.8s-2.5-3.1-3.1-4.6c-1.1-2.8-1.5-8.9-0.8-11.2
		c0-0.1,0.1-0.2,0.1-0.3c0.3-1.2-0.4-2.4-1.5-2.7c-2-0.9-7.4,1.8-7.4,3.7c0,0.7,2.7,9.2,4.7,14.9c0.6,1.8,2.5,6.2,4.1,9.8
		c1.6,3.6,3.6,8.2,4.5,10.2l1.6,3.7l0.3,6.8c0.5,12.5,2.9,21.8,7.9,30.1c2.3,4.1,5.5,7.6,9.4,10.2c4.2,2.9,6.1,3.8,9.6,4.6v0
		c3.5,0.8,9.8,0.4,18.2-0.9c6.7-0.9,13.3-2.6,19.6-5.1c19.3-7.3,37.7-16.6,54.9-27.8c5-3.2,14.5-9.6,17.3-11.7
		c0.7-0.5,5-3.5,9.4-6.5c4.4-3,11.5-8,15.6-11l12.1-9c6.3-4.7,9.2-7,18.5-15c4.4-3.8,9.9-8.3,12.3-10c6.7-4.9,14-12.4,18-18.2
		c3.7-5.4,4.8-7.4,6.5-11.5c2.9-7,3.7-14.7,2.3-22.2C339.4,409.9,338.9,407.5,338.7,407.1z M330.4,393.1
		C330.4,393.1,330.4,393.1,330.4,393.1c-0.1,0-0.2-0.1-0.2-0.2c0-0.1,0.1-0.2,0.2-0.2c0.1,0,0.2,0.1,0.2,0.2
		C330.6,393,330.5,393.1,330.4,393.1z"/>
</g>
</svg>
