<svg width="72" height="72" viewBox="0 0 144 144" xmlns="http://www.w3.org/2000/svg"><linearGradient id="a" x1="65.606" x2="65.606" y1="45.148" y2="4.852" gradientUnits="userSpaceOnUse"><stop stop-color="#fff" stop-opacity=".8" offset="0"/><stop stop-color="#fff" offset="1"/></linearGradient><path transform="translate(.558 47.149)" fill="url(#a)" d="M48.59 4.854h8.86l.004.004-.004-.007 25.16 40.28-8.848-15.94V4.851h8.86v40.295l-.005-.013.004.013.001.002h-8.86L48.594 4.86l8.856 15.914v24.374-.002h-8.86V4.851v.002z"/><linearGradient id="b" x1="107.24" x2="107.24" y1="45.148" y2="4.852" gradientUnits="userSpaceOnUse"><stop stop-color="#fffffd" stop-opacity=".8" offset="0"/><stop stop-color="#fff" offset="1"/></linearGradient><path transform="translate(.558 47.149)" fill="url(#b)" d="M114.83 37.262L95.969 22.906l-9.046 22.242h9.522l3.208-7.886h15.167l3.21 7.886h9.52L111.16 4.851h-7.85l-.84 2.065z"/><linearGradient id="c" x1="29.496" x2="29.496" y1="44.988" y2="5.013" gradientUnits="userSpaceOnUse"><stop stop-color="#fff" stop-opacity=".8" offset="0"/><stop stop-color="#fffffe" offset="1"/></linearGradient><path transform="translate(.558 47.149)" fill="url(#c)" d="M43.549 20.605H24.232v-6.802h19.317v-8.79H15.442v39.975h8.79V29.395h19.317z"/></svg>