<?xml version="1.0" encoding="UTF-8" standalone="no"?>
<svg
   xmlns:dc="http://purl.org/dc/elements/1.1/"
   xmlns:cc="http://creativecommons.org/ns#"
   xmlns:rdf="http://www.w3.org/1999/02/22-rdf-syntax-ns#"
   xmlns:svg="http://www.w3.org/2000/svg"
   xmlns="http://www.w3.org/2000/svg"
   height="40"
   width="40"
   xml:space="preserve"
   enable-background="new 0 0 300 300"
   viewBox="0 0 40.000001 39.999999"
   y="0px"
   x="0px"
   id="Layer_1"
   version="1.1"><metadata
     id="metadata844"><rdf:RDF><cc:Work
         rdf:about=""><dc:format>image/svg+xml</dc:format><dc:type
           rdf:resource="http://purl.org/dc/dcmitype/StillImage" /><dc:title></dc:title></cc:Work></rdf:RDF></metadata><defs
     id="defs842" /><g
     transform="matrix(0.13966546,0,0,0.1396648,-1.2361329,-0.90781992)"
     id="g817"><path
       style="fill:#ffffff"
       id="path815"
       d="m 108.7,149.8 c 0,0.4 0,0.8 0,1.2 0,0.4 0.1,0.8 0.1,1.2 0.7,5.3 3.1,9.7 7.6,12.7 4.4,3 10.6,2.9 15,-0.1 4.3,-2.9 6.6,-7 7.4,-12.1 0.8,-5 -0.2,-9.6 -3,-13.7 -3.1,-4.5 -7.4,-6.9 -13,-6.5 -3.5,0.2 -6.5,1.7 -8.9,4.2 -3.6,3.6 -5.1,8.1 -5.2,13.1 z m 86.7,-0.2 c 0,-0.5 -0.1,-1.3 -0.2,-2.1 -0.6,-4.7 -2.5,-8.7 -6.2,-11.7 -3.1,-2.6 -6.6,-3.7 -10.6,-3.2 -4.3,0.6 -7.7,2.9 -10.1,6.4 -2.9,4.2 -3.8,8.8 -3.1,13.8 0.6,4.3 2.5,8 5.8,10.9 5.5,4.9 13.8,4.6 19,-0.6 3.7,-3.7 5.4,-8.2 5.4,-13.5 z" /></g><polygon
     transform="matrix(0.13966546,0,0,0.1396648,-1.2361329,-0.90781992)"
     style="fill:#000000;fill-opacity:1"
     id="polygon821"
     points="28,78.1 152.1,6.5 276.1,78.1 276.1,221.3 152.1,292.9 28,221.3 " /><g
     transform="matrix(0.13966546,0,0,0.1396648,-1.2361329,-0.90781992)"
     id="g854"><g
       id="g833"><path
         style="fill:#ffffff"
         d="m 60.6,194.8 c 4,-1 7.9,-1.7 11.6,-2.9 12.4,-3.7 23.9,-9.7 35,-16.2 15,-8.8 29.8,-18 44.8,-26.8 13.2,-7.8 26.8,-14.9 41.4,-19.5 8.6,-2.8 17.4,-4.5 26.5,-4.3 1.5,0 2.9,0.1 4.4,0.3 0.5,0.1 1.1,0.5 1.3,0.9 6,9.3 8.6,19.5 7.4,30.5 -2.2,20.1 -12.4,35.8 -27.1,49 -0.5,0.5 -1.7,0.6 -2.5,0.4 -8.6,-2.3 -17.3,-3.7 -26.3,-3.6 -11.2,0.2 -21.9,3 -32.4,6.8 -9.7,3.5 -19.3,7.3 -29.1,10.3 -10.7,3.3 -21.8,3.9 -33,2.7 -2.1,-0.2 -3.6,-0.9 -5.1,-2.3 -7.1,-6.2 -13.2,-13.1 -16.1,-22.3 -0.2,-0.9 -0.5,-1.9 -0.8,-3 z m 149.6,-1.7 c 3.6,-5.4 9.7,-19.5 11.3,-25.7 1.6,-6.1 3.3,-25.1 2.4,-28.5 -1.9,19 -6.4,37 -13.7,54.2 z"
         id="path823" /><path
         style="fill:#ffffff"
         d="m 100.7,170 c 1.3,-2.4 2.5,-4.4 3.6,-6.5 11,-19.5 20.5,-39.7 27.6,-61 4.9,-14.7 8.8,-29.6 12.2,-44.7 1.9,-8.3 3.6,-16.6 5.3,-25 0.1,-0.5 0.3,-1 0.5,-1.9 5.3,2.9 10.5,5.5 15.6,8.6 24.2,14.7 44.5,33.5 60.5,56.9 7.6,11.2 13.7,23.2 17.5,36.3 0,0.1 0,0.2 0,0.5 -0.8,-1.4 -1.4,-2.8 -2.2,-4 -4.3,-7.1 -10.9,-10.9 -19,-12.2 -10.7,-1.7 -20.9,0.4 -31.1,3.3 -15.7,4.6 -30.3,11.6 -44.5,19.6 -15.8,8.8 -30.8,18.8 -45.2,29.7 -0.1,0.1 -0.3,0.2 -0.8,0.4 z M 160.9,43.5 c -0.2,0.1 -0.3,0.3 -0.5,0.4 16.1,16.7 31,34.2 38.2,56.9 -1.1,-4.5 -2.4,-8.9 -3.9,-13.2 -4.3,-11.5 -11.2,-21.4 -19.7,-30.1 -4.7,-4.8 -9.5,-9.4 -14.1,-14 z"
         id="path825" /><path
         style="fill:#ffffff"
         d="m 249.9,231.7 c -6.6,-2.4 -12.8,-4.9 -19.3,-7 -14.2,-4.6 -28.7,-7.4 -43.7,-6.8 -10.9,0.4 -21.4,2.8 -31.7,6 -9.3,2.9 -18.5,6.1 -27.9,8.6 -16.9,4.5 -33.5,2.8 -49.7,-3.2 -4.4,-1.6 -8.7,-3.6 -13.1,-5.5 -0.6,-0.2 -1.1,-0.5 -1.6,-1 3.4,0.8 6.9,1.7 10.3,2.4 17.1,3.7 33.8,2.5 50.2,-3.4 9.2,-3.3 18.3,-7 27.6,-10.1 10.5,-3.6 21.4,-5.3 32.6,-4.6 14.4,1 28,5.2 41,11.2 7.9,3.7 15.6,8 23.3,12 0.6,0.4 1.1,0.9 2,1.4 z"
         id="path827" /><path
         style="fill:#2c2c2c"
         d="m 210.2,193.1 c 7.2,-17.3 11.8,-35.2 13.7,-54.3 0.9,3.4 -0.8,22.4 -2.4,28.5 -1.6,6.3 -7.7,20.5 -11.3,25.8 z"
         id="path829" /><path
         style="fill:#2c2c2c"
         d="m 160.9,43.5 c 4.7,4.6 9.5,9.2 14.1,13.9 8.5,8.8 15.4,18.6 19.7,30.1 1.6,4.3 2.8,8.7 3.9,13.2 -7.2,-22.7 -22.1,-40.2 -38.2,-56.9 0.1,0 0.3,-0.2 0.5,-0.3 z"
         id="path831" /></g><path
       style="fill:#ffffff"
       d="m 101.5,118.7 c -1.8,-7.3 -3.6,-14.6 -5.4,-22 0.7,-0.2 1.4,-0.4 2,-0.5 0.1,0 0.4,0.1 0.5,0.2 1.2,1.9 3.1,2.8 4.8,4 1.8,1.3 3.9,2.1 5.5,3.8 3.5,3.8 3.5,8 1.4,12.4 -0.1,0.2 -0.4,0.3 -0.7,0.4 -0.1,-0.3 -0.2,-0.6 -0.2,-0.9 0.6,-2.9 -0.2,-5.5 -1.8,-7.8 -1.7,-2.4 -4.2,-3.7 -7.2,-4.3 0.1,0.6 0.2,1.2 0.4,1.7 1.4,5.3 2.9,10.6 4.2,15.9 0.2,0.8 0.1,1.8 -0.2,2.5 -1.3,2.9 -3.6,4.7 -6.7,5.2 -2.8,0.5 -5.8,-2.4 -5.6,-5.3 0.2,-3.8 2.9,-6.1 6.7,-5.7 0.7,0.2 1.4,0.3 2.3,0.4 z"
       id="path835" /><path
       style="fill:#ffffff"
       d="M 70.2,106.1 C 67.5,95 64.7,84 61.9,72.8 63,72.5 64,72.2 65,72 c 0.2,0 0.6,0.1 0.7,0.3 1.8,2.9 4.7,4.3 7.3,6.1 2.8,1.9 5.9,3.2 8.3,5.8 5.3,5.8 5.3,12.1 2.2,18.9 -0.1,0.3 -0.7,0.4 -1,0.6 -0.1,-0.4 -0.4,-0.9 -0.3,-1.3 C 83,98 81.9,94.1 79.4,90.5 76.8,86.8 73,84.9 68.4,84 c 0.2,1 0.3,1.8 0.5,2.6 2.2,8.1 4.4,16.1 6.4,24.2 0.3,1.2 0.2,2.7 -0.3,3.8 -2,4.4 -5.4,7.1 -10.2,7.9 -4.2,0.7 -8.8,-3.6 -8.6,-8.1 0.3,-5.8 4.4,-9.3 10.1,-8.7 1.5,0.1 2.7,0.3 3.9,0.4 z"
       id="path837" /></g></svg>