<?xml version="1.0" encoding="utf-8"?>
<!-- Generator: Adobe Illustrator 24.3.0, SVG Export Plug-In . SVG Version: 6.00 Build 0)  -->
<svg version="1.1" id="svg8" xmlns="http://www.w3.org/2000/svg" xmlns:xlink="http://www.w3.org/1999/xlink" x="0px" y="0px"
	 viewBox="0 0 461.4 580.7" style="enable-background:new 0 0 461.4 580.7;" xml:space="preserve">
<style type="text/css">
	.st0{fill:none;}
	.st1{fill:#FFFFFF;}
</style>
<g id="layer1">
	<g id="path959">
		<path id="path966" class="st0" d="M209.3,0.5c-20.6,1.2-41,4.6-60.9,10.1c-7.6,2.2-22.2,7.1-29.9,10.2
			c-8.7,3.6-17.1,7.8-25.2,12.7C67,49.4,44.9,71.6,29.1,98c-11.8,19.8-20.8,44.8-25,68.5c-2.3,12-3.4,24.1-3.4,36.3
			c-0.1,6.3-0.4,14.6-0.4,15c-0.6,7.4,0.2,14.6,3,28.4c1.4,7.1,3.6,20.6,4.1,26c0.7,6.6,0.7,9.9,0.3,26.8
			c-0.3,13.3-0.1,17.3,0.7,22.5c0.4,3.2,1,6.3,1.8,9.4c1.8,6.8,3.4,11.6,8.1,18.4s8.8,11.2,16.7,16c1.4,0.8,4.7,2.8,7.1,4.3
			c3.5,2.1,8,4.5,12,6.5c0.8,0.4,1.5,0.8,2.2,1.2c-2.2,12.1-3.1,24.3-2.6,36.6c0.1,4.3,0,7.5,1.5,12.7s6.1,10.6,8.3,12.6
			c4.7,4.2,10.7,6.6,17,6.6c4,2.5,8.1,3.1,12.5,3.2c0.1,0.1,0.3,0.3,0.4,0.4c-2,0.5-3.9,1.1-5.7,2c-2.4,1.2-4.7,2.7-6.6,4.6
			c-2.4,2.3-6.7,5.9-6.7,15.1c0,5.7,0.5,4.4,0.7,5.1s0.3,1.3,0.5,1.9c0.4,1.3,0.8,2.7,1.3,4.2c1,3.1,2.2,6.8,3.3,10
			c1.2,3.3,2.9,7.2,4.6,11.1c1.6,3.5,3.6,8.1,4.3,9.9l0.2,0.6l0.1,3.4c0.6,14.5,3.9,27.6,10.6,38.9c3.8,6.3,8.9,11.8,14.9,16
			c4.9,3.4,10.4,5.9,16.2,7.4l11.9,1.2l10.5-1.5c1-0.2,1.8-0.2,2.8-0.4c7.9-1.2,15.6-3.2,23.1-6.1c20.5-7.7,40.1-17.7,58.5-29.6
			c5.5-3.5,14.2-9.3,18.3-12.4c-1.1,0.8,4.5-3.1,8.9-6.1c4.8-3.2,11.7-8.2,16.2-11.5l12.1-8.9c6.5-4.8,10.2-7.7,19.6-15.8
			c4.2-3.5,10.1-8.3,11.2-9.2c8.6-6.3,16.1-13.9,22.3-22.6c3.3-4.7,6.1-9.6,8.3-14.9c4.2-10.3,5.4-21.7,3.4-32.7
			c-0.3-1.4-0.5-2.8-0.8-4s0.6,0.1-1.4-4.8c1.5,3.8,0.5,1.5,0.3,0.8c-0.2-0.7-0.4-1.7-0.6-2.7c-0.5-2.5-1.2-6-1.7-8.3l0,0
			c-0.3-1.3-0.2-0.1-0.3-3.1c-0.1-2.7-0.1-8.9-0.1-18.3c1.9-0.8,3.7-1.7,5.9-2.6c6-2.5,11.7-5.6,17.2-9
			c24.8-15.8,44.8-38.7,60.2-67.9c13.5-26,21.6-54.4,23.8-83.6l0,0c0.7-10.5,0.7-21.1,0-31.6c-1-12.7-3.4-25.3-7.1-37.6
			c-6.6-21-13-34.7-23.2-48.5c-19.2-26-48.2-48-81.1-62.6C317.5,11.1,283,2.9,245.6,0.5C233.5-0.2,221.3-0.2,209.3,0.5L209.3,0.5z"
			/>
		<path id="path968" class="st1" d="M135.1,561.2c-3.5-0.8-5.5-1.7-9.6-4.6c-3.9-2.6-7.1-6.1-9.4-10.2c-5-8.3-7.4-17.6-7.9-30.1
			l-0.3-6.8l-1.6-3.7c-0.9-2-2.9-6.6-4.4-10.2s-3.4-8-4.1-9.8c-2-5.7-4.7-14.2-4.7-14.9c0-1.9,5.3-4.6,7.4-3.7
			c1.2,0.3,1.9,1.5,1.5,2.7c0,0.1-0.1,0.2-0.1,0.3c-0.7,2.3-0.2,8.4,0.9,11.2c0.6,1.5,2.6,4.6,3.1,4.6s0.4-2.8-0.1-4.8
			c-0.9-3.5-1.4-9.2-1.1-10.4c0.6-2,4.2-3.4,6.4-2.4c1.1,0.5,1.1,0.8,0.3,2.7c-1,2.1-1,10.7,0,13.1c0.7,1.7,1.6,2.5,2,1.8
			c0.2-1.8,0.3-3.6,0.4-5.4c0.2-8.9,1.4-11.2,5.6-11.2c2,0.1,3.8,1.4,4.4,3.3c0.5,1.1,0.6,2.4,0.2,3.6c-0.5,2.8-0.3,5.7,0.8,8.3
			c1.6,4,2.4,2.2,2.5-5.6c0.1-4.3,0.6-6.3,1.9-7.3c1.5-0.8,3.2-0.9,4.8-0.3c2.1,1,2.2,1.4,2.1,5.9c-0.1,2,0,4,0.3,6
			c0.5,2.1,1.8,5,2.3,5s0.7-2.5,0.9-8.4l0.1-5.3l1.4-1.1c1.9-1.6,4.2-2.6,6.6-2.8l2.4-0.2l0.8,1.4c0.6,1.1,0.9,2.3,1,5.1
			c0.2,4.2,1.1,7.1,2.2,8.1c1.4,1.2,1.6,0.2,1.3-7.4l-0.2-7l1.1-1c0.8-0.6,1.7-1.1,2.7-1.4c1-0.4,2.2-0.3,3.1,0.3
			c1.4,0.7,1.5,0.9,1.7,2.7c0.4,2.9,1.4,5.7,2.9,8.1c1.9,2.6,2.1,1.8,1-6.5c-0.7-5.6-0.8-5.1,0.6-6.6c1.9-2,7.1-3.8,8.8-2.9
			c0.5,0.2,1.1,1.5,1.8,3.6c2.5,7.8,3.1,9.5,3.6,9.6c0.7,0.2,1.3-1.2,1.5-3.7c0.2-1.8-0.1-3.5-0.8-5.2c-1.2-3.5-1.2-4.1-0.1-6
			c0.8-1.3,1.2-1.6,2.5-1.8c2-0.5,3.9-1.2,5.7-2.1c1.9-0.9,3.9-1.6,5.9-2.1c1.7-0.2,1.8-0.2,2.6,1c0.8,1.6,1.5,3.2,2.1,4.9
			c2.4,6.7,3,7.1,3.5,2.8c0.4-3.2-0.3-6.4-2.1-9.1c-1.4-2.1-1.4-2.4-0.1-3.6c2-1.9,4.5-2.6,8.5-2.6c3.5,0,4-0.1,3.1-0.9
			c-0.3-0.3-0.2-0.7,0.2-1.3c1.2-1.4,2.6-2.6,4.3-3.3l1.6-0.4c0.7-0.2,1.1,0.2,2.7,2.5c1.2,1.8,2.1,3.6,2.9,5.6
			c0.3,1.1,0.8,2.1,1.4,3.1c1,0.3,1.2-4.4,0.3-7.1c-0.5-1.6-1.1-2.6-3.9-6.4c-0.6-0.8-0.6-0.9,0.1-1.4c1.7-1.2,3.8-2,5.9-2.3
			c2.4-0.4,2.6-0.5,5-2.9s3.3-2.9,6.6-3.7c1.1-0.4,2.3-0.2,3.3,0.5c1.3,0.8,2.5,1.7,3.7,2.8c0.8,0.7,1.6,1.4,2.5,1.9
			c0.8,0,9.7-5.9,10.1-6.7c1.2-1.5,2.6-2.9,4-4.3c3.8-3.7,5.2-5.7,6.2-8.3c1.5-4.2,1.7-20.1,0.5-27.9c-1-6.4-2.2-18.6-2-21.1
			c0.1-1.6,0.5-3.2,1.3-4.6c1.9-3.5,4.1-4.5,10.3-4.5h3.8l4.4,2.2c5.9,3,7.9,3.3,12.2,2c4-1.2,6.7-3.1,9.8-6.8
			c3.3-4.3,6.1-8.9,8.3-13.8c2.2-5.7,5-8.7,7.9-8.7c3.3,0,4.7,1.7,6.1,7.3c0.8,3.1,0.8,4,0.9,26.5c0.1,22.1,0.1,23.4,0.9,27
			c0.4,2,1.2,5.6,1.6,7.9c0.5,2.3,1,4.6,1.2,5.1s0.7,2.9,1.2,5.4c1.4,7.5,0.6,15.2-2.3,22.2c-1.7,4.1-2.9,6.1-6.5,11.5
			c-3.9,5.8-11.3,13.2-18,18.1c-2.3,1.7-7.9,6.2-12.3,10c-9.3,8-12.2,10.3-18.5,15l-12.1,9c-4.1,3-11.1,8-15.6,11
			c-4.4,3-8.7,5.9-9.4,6.5c-2.8,2.1-12.4,8.5-17.3,11.7c-17.3,11.2-35.7,20.6-54.9,27.8c-6.3,2.5-12.9,4.2-19.6,5.1
			C145,561.7,138.6,562,135.1,561.2L135.1,561.2z M330.6,392.9c0-0.1-0.1-0.2-0.2-0.2c-0.1,0-0.2,0.1-0.2,0.2c0,0.1,0.1,0.2,0.2,0.2
			c0,0,0,0,0,0C330.5,393.1,330.6,393,330.6,392.9z M126.7,437.1c-1.1-0.2-2.1-0.5-3.1-1c-0.6-0.6-1.2-6.1-1.6-12.7
			c-0.3-6.2-0.8-9-1.5-8.3c-0.4,0.4-1.8,6.1-2.3,9.9c-0.3,2-0.3,3.9-0.2,5.9l0.3,3l-1.7,0.5c-1.9,0.4-3.8,0.6-5.8,0.5
			c-3.8,0-4.2-0.1-6.4-1.1s-2.3-1.2-2.8-3c-0.9-3.3-1.2-7.3-1.3-13.7c-0.1-3.5-0.2-6.4-0.4-6.4c-0.5,0-1.4,2.3-2,5.3
			c-0.6,4.2-0.8,8.5-0.5,12.8c0.1,1.2,0,1.3-1.5,1.6c-2.6,0.4-5.3-0.2-7.4-1.8c-1.4-1.1-1.6-1.5-2-4c-0.7-3.5-0.9-7.1-0.9-10.6
			c0-2.6-0.2-4.8-0.3-4.8c-0.6,0-1.9,3.6-2.4,6.3c-0.3,2.3-0.4,4.6-0.2,6.9l0.2,4.1l-1,0.2c-2.3,0.4-4.6-0.3-6.2-1.8
			c-2.9-2.5-3.2-3.8-3.5-11.8c-0.6-16.6,0.8-31.4,3.8-41.6c0.6-2.1,1.4-5.1,1.8-6.6c0.9-3.8,1.2-11.8,0.6-15
			c-0.4-2.4-2.4-7.7-3.1-8.1c-0.2-0.1-0.3,2.4-0.2,5.5c0,6.3-0.5,8.5-3,12.5c-1.9,3-2.5,2.9-10-0.7c-3.3-1.6-8-4.2-10.4-5.6
			s-5.7-3.5-7.2-4.4c-4.2-2.9-7.9-6.5-10.9-10.6c-2.4-3.9-4.2-8.2-5.4-12.6c-0.3-1.2-1-4.5-1.4-7.3c-0.8-4.9-0.8-5.9-0.5-19.2
			c0.4-17,0.3-21.8-0.4-29.2c-0.7-6.8-2.8-19.9-4.4-27.8c-2.8-13.6-3.2-17.2-2.7-23.1c0.2-2.4,0.4-9.8,0.5-16.4
			c-0.1-11.1,1-22.3,3.1-33.2c3.8-21.2,12.4-44.9,22.7-62.2c14.3-23.7,34.2-43.6,57.8-58c7.2-4.2,14.7-8,22.4-11.3
			c6.4-2.5,22.2-7.9,28.1-9.6c18.6-5.2,37.7-8.4,57-9.5c7.2-0.5,26.7-0.5,33.9,0c35.5,2.4,67.6,10,97.5,23.3
			c30.2,13.4,56.9,33.9,73.6,56.5c9.1,12.3,14.1,22.8,20.4,42.9c3.2,11,5.4,22.2,6.3,33.6c0.5,9.5,0.5,19,0,28.5
			c-2,26.7-9.4,52.7-21.7,76.4c-14.1,26.8-31.9,47-53.6,60.8c-8.9,5.6-21.4,11-25.6,11c-2.2,0-2.6-0.5-2.1-3
			c0.3-2.2,0.4-4.4,0.4-6.7c0-5.6-0.6-7.8-3.1-10.5c-2.9-3.1-6.6-4.2-9.6-2.9c-1,0.5-4.3,3.2-8.2,6.9c-6.3,5.9-10.9,9.4-14.3,10.7
			c-7,2.8-22.9,5.1-41.9,6c-7.5,0.4-15.7,1-16.7,1.3c-0.3,0.1-2.4,0.4-4.6,0.6c-5.3,0.7-10.5,2-15.4,4.1c-2.5,1.2-5.4,3.2-5.4,3.7
			c0,0.7,1.8,0.4,4.3-0.7s7.5-2.5,7.9-2.2c-0.3,1.1-0.8,2.2-1.3,3.3c-2.1,4.3-2.5,6.4-2.2,11.5c0.1,2.8,0.5,5.5,1.5,8.1
			c2.6,8.3,1,15.2-4.1,17.5c-1.4,0.6-1.5,0.8-2.6,3.9s-4.9,6.3-8.1,6.7c-1,0.1-1.1,0-1.8-1.9c-0.6-1.6-1.3-3.2-2.1-4.6
			c-1.4-2.6-4.2-5.7-4.8-5.2c-0.1,0.1,0.7,3,1.9,6.5c0.9,2.3,1.6,4.7,2.2,7.1c0,1.3-1.9,3.7-4,5c-1.4,0.8-3,1.4-4.5,1.8
			c-2.4,0.6-3,0.9-5.2,2.8c-2.8,2.5-4.4,3.2-6.7,3.2h-1.6l-0.9-3.2c-0.9-3.3-4.1-10.1-4.7-10.1s-0.4,1,1.2,7
			c1.9,7.2,1.9,7.7,0.1,9.7c-2.9,3-9.6,4.8-14,3.6l-1.4-0.4l-0.1-2.9c-0.3-4.2-1.3-8.3-3-12.2c-1.1-2.4-2.5-4.4-3-4.4s0,4.2,1.1,9.6
			c0.5,2.5,1.1,5.7,1.2,7l0.3,2.6l-2,1.7c-4.6,4-9.7,5-16,3.4l-2-0.5l-0.2-2.9c-0.5-5.7-3.5-16-4.7-16c-1,0-1,4.4-0.1,10.1
			c0.5,3,0.9,6.2,0.9,7c0,1.4-0.1,1.5-1.9,2.4C136.9,437.8,130.9,438,126.7,437.1L126.7,437.1z M129.8,352.4c0.9-1,1.6-2.1,2.2-3.2
			c1.2-2.4,1.3-2.5,1.3-7.6c0.2-3.3-0.2-6.5-1.2-9.6c-2.7-9.9-10.3-23.8-17.7-32.3c-2.9-3.3-4-4.2-6.5-5.5c-2.2-1.1-3.4-1-5.1,0.3
			s-1.7,1.4-2.3,6.6c-0.6,5.4-1.6,10.8-2.9,16.1c-2.1,9.6-3.4,19.4-3.1,24.6c0.3,4.7,0.7,6.3,1.9,7.6c1.5,1.6,4.2,0.6,5.6-2.1
			c2-3.8,2.6-9.2,3-25.3c0.2-10.6,0.3-12,0.8-11.6c0.9,0.7,5.7,10.2,6.6,13.3c2.4,7.5,6.4,18.6,7.8,21.4c1,2.1,2.4,4,4.2,5.6
			C127.2,353.5,128.2,353.8,129.8,352.4L129.8,352.4z M211.3,308.2c6.2-0.7,12.3-2.4,18.1-5c2.5-1.2,9.7-7,12.1-9.6
			c4.5-5,6.4-8.4,9-16.2c2.3-6.9,2.9-10.5,2.9-18.6c0-10.1-1.3-16-5.5-24c-5.6-10.7-12.6-18.8-21.1-24.3c-6.7-4.2-14-7.5-21.6-9.9
			c-5.7-1.5-11.4-2.5-17.2-3c-9.5-0.6-19.6,2.3-26.1,7.5c-3.3,2.6-7.3,8.9-9.4,14.7c-1.1,2.8-1.7,5.7-1.6,8.7
			c-0.1,9.5,0.5,19,1.9,28.3c0.6,4.2,1.4,9.6,1.8,12c0.5,4.5,1.5,8.9,3,13.2c1.8,5.2,3,7.5,5.8,11c4.6,5.7,10.4,9.4,19.9,12.6
			c8,2.7,11.6,3.3,19.1,3.1C205.6,308.6,209.6,308.4,211.3,308.2L211.3,308.2z M71,295.7c9.2-3.4,14.1-7.6,18.2-15.4
			c4.9-9.4,7.9-31,6.1-43.5c-1.5-10.3-5.3-19.9-10.5-26.5c-2.4-3-9.3-9-12-10.3c-3.3-1.4-6.9-2.3-10.5-2.7c-2.5-0.2-8,0.7-11.6,2
			c-5.6,2.3-10.1,6.8-12.3,12.5l-1.7,4l0.1,29.9c0.1,21.8,0.2,30.4,0.6,31.9c0.7,3,4.9,10.9,7,13.1c1.6,1.6,3.5,2.9,5.6,3.9
			c4.3,2.3,7.1,2.9,12.8,3C65.9,297.6,66.4,297.5,71,295.7L71,295.7z M31.8,279.9c-0.1-0.1-0.2,0-0.2,0.2s0.1,0.4,0.2,0.2
			C31.9,280.3,31.9,280,31.8,279.9C31.8,279.9,31.8,279.9,31.8,279.9z M31.1,265.6c0-0.1-0.1-0.2-0.2-0.2c-0.1,0-0.2,0.1-0.2,0.2
			l0,0c0,0.1,0.1,0.2,0.2,0.2c0,0,0,0,0,0C31.1,265.7,31.1,265.7,31.1,265.6z"/>
	</g>
	<path id="path869" class="st1" d="M204.4,392c-0.2-0.5-1.3-6.3-2.5-12.9s-3-17-4.2-23.2c-2.5-13.7-12.2-67.3-15-82.9
		c-0.4-2.5-0.9-4.9-1.6-7.3c-1.6-0.6-3.2-1.1-4.8-1.5c-15.3-3.9-40.4-10.8-42.2-11.6c-0.9-0.4-1.2-0.9-1.2-1.6c0-0.5-0.1-1-0.3-1.4
		c-0.5-0.7,0.2-1.3,3.2-2.6c3.8-1.7,22.1-8.8,33.5-13c5-1.8,9.3-3.5,9.6-3.8s0.7-3.6,1-9.7c0.3-5.1,0.9-15.4,1.3-22.9
		s1.3-21.9,1.9-31.9s1.5-25.8,2.1-34.8s1.1-19.1,1.3-22.4c0-2.2,0.3-4.5,0.7-6.7c0.7-0.8,1.9-0.9,2.7-0.2c0,0,0,0,0,0
		c0.2,0.3,1.3,5.4,2.4,11.5s3.1,17.5,4.6,25.6s3.6,19.8,4.8,26.2s2.2,12.4,2.4,13.4s1,4.3,1.9,7.4c3.5,13.1,8.3,31.7,10,39.3
		c0.2,1,0.5,2,0.9,2.9c1.7,0.6,3.5,1,5.3,1.3l14.1,2.9c50.2,10.2,46.6,9.4,47.5,10.4c0.4,0.5,0.4,0.7-0.1,1
		c-0.5,0.3-0.5,0.4-0.1,0.6c0.9,0.3,0.6,1.3-0.6,1.9c-2.3,1.1-26.6,8.2-51.5,14.8c-6.3,1.7-11.4,3.1-11.5,3.2s-0.9,6.3-1.5,14.2
		c-0.7,8.4-0.9,10.4-1.5,15.2c-0.6,5.9-0.8,7.7-1.2,12c-0.8,7.8-3.8,34.1-4.6,40.7c-0.2,1.6-0.6,4.4-0.8,6.2s-0.5,4.4-0.6,5.9
		c-0.3,7.3-1.6,28.5-1.8,31.3l-0.3,3.2l-1.3,0.1C205.1,392.9,204.7,392.7,204.4,392L204.4,392z M258.7,381.8c0-0.1-1.4-7.6-3.1-16.7
		c-1.7-9-3.6-19.1-4.2-22.4s-1.1-6-1.2-6s-3-0.8-6.5-1.7c-9.7-2.5-11.3-3-11.4-3.7s0.1-0.9,9.5-4.4c4.1-1.5,7.5-2.8,7.5-2.9
		s0.9-11.9,2.1-33.4c0.6-10.6,0.8-12.5,1.4-12.4c0.4,0.1,0.8,0.8,0.9,1.7s1.3,7.1,2.6,13.8c1.9,10.1,6.3,28.8,7,29.4
		c0.1,0.1,5.5,1.2,12.1,2.5c7,1.4,12.1,2.6,12.3,2.9s0.1,0.7-0.3,1s-5.4,1.8-11.3,3.3s-10.9,3-11.3,3.2c-0.3,0.2-0.7,1.3-0.9,3.3
		c-0.9,9-1.3,13.2-2,19.1c-1,8.1-1.5,13.7-1.9,19.3c-0.2,3.3-0.4,4.3-0.8,4.3S258.7,382,258.7,381.8L258.7,381.8z M259.3,217.5
		c-0.5-1.4-0.9-2.8-1.2-4.3c-0.6-2.2-2.3-8.9-3.9-14.9s-3.2-12.4-3.6-14.2l-0.7-3.2l-7.5-1.7c-9.8-2.2-10.5-2.4-10.8-3
		s0.1-0.7,8.4-2.8c2.4-0.6,5.5-1.4,6.8-1.8l2.5-0.7l0.7-7.1c0.4-3.9,1-9.7,1.4-12.7s0.9-7.8,1.2-10.5c0.5-4.6,1-6.3,1.7-5.3
		c0.4,1.6,0.8,3.3,1,5c0.4,2.5,1,5.3,1.2,6.1c0.2,0.9,0.7,3.3,1.1,5.4c0.9,5,4.9,18,5.6,18.4c0.8,0.4,10.4,1.4,16.3,1.8
		c6.8,0.4,8,0.8,6,1.8c-1.1,0.6-14.9,4.9-18.4,5.8c-1.1,0.2-2.1,0.6-3.2,1c-0.1,0.1-1,6.2-1.8,13.4c-1.3,11.7-1.7,16.5-1.8,22.5
		c0,1.6-0.5,2.2-1,1.3L259.3,217.5z"/>
</g>
</svg>
