<svg id="svg8" xmlns="http://www.w3.org/2000/svg" viewBox="0 0 461.42 580.72"><defs><style>.cls-1{fill:#fff;}</style></defs><g id="layer1"><g id="path959"><path id="path966" class="cls-1" d="M264.69,28.13a288.78,288.78,0,0,0-60.86,10.15c-7.62,2.16-22.18,7.15-29.86,10.19a191.68,191.68,0,0,0-25.21,12.66,189.44,189.44,0,0,0-64.29,64.55c-11.75,19.82-20.81,44.81-25,68.48a193.42,193.42,0,0,0-3.4,36.3c-.07,6.32-.41,14.63-.44,15-.63,7.41.18,14.57,3,28.39,1.44,7.1,3.55,20.58,4.12,26.05.69,6.64.74,9.9.34,26.81-.31,13.3-.12,17.29.7,22.52a73.76,73.76,0,0,0,1.82,9.36C67.4,365.34,69,370.19,73.7,377s8.8,11.23,16.65,16c1.41.84,4.67,2.82,7.07,4.29,3.49,2.14,8,4.55,12,6.5.83.4,1.52.79,2.22,1.2A172.91,172.91,0,0,0,109,441.56c.14,4.28,0,7.48,1.54,12.71s6.07,10.57,8.33,12.56a25.58,25.58,0,0,0,17,6.64c4,2.5,8.13,3.15,12.47,3.18.12.08.32.3.44.37a29.32,29.32,0,0,0-5.72,2,25.11,25.11,0,0,0-6.6,4.57c-2.4,2.29-6.7,5.94-6.7,15.1,0,5.71.49,4.38.66,5.08s.33,1.27.51,1.9c.36,1.26.79,2.68,1.29,4.25,1,3.15,2.19,6.81,3.31,10,1.18,3.33,2.86,7.21,4.6,11.13,1.55,3.46,3.58,8.13,4.31,9.85l.24.57.14,3.44c.62,14.52,3.86,27.63,10.57,38.89a53,53,0,0,0,14.89,16,50.09,50.09,0,0,0,16.21,7.42l11.94,1.18,10.47-1.51c1-.16,1.79-.21,2.84-.38a110.77,110.77,0,0,0,23.08-6.07,304.85,304.85,0,0,0,58.52-29.64c5.46-3.5,14.16-9.33,18.3-12.37-1.07.79,4.46-3.08,8.85-6.06,4.77-3.23,11.73-8.15,16.2-11.46L348.81,532c6.51-4.79,10.16-7.74,19.59-15.81,4.15-3.55,10.07-8.33,11.25-9.21a97,97,0,0,0,22.28-22.64,79.64,79.64,0,0,0,8.34-14.9,58.46,58.46,0,0,0,3.44-32.69c-.26-1.43-.53-2.8-.79-4s.59.12-1.35-4.83c1.49,3.8.49,1.46.33.77s-.38-1.71-.58-2.69c-.5-2.49-1.24-6-1.72-8.26h0c-.29-1.33-.18-.14-.27-3.1-.09-2.73-.12-8.89-.15-18.33,1.93-.82,3.7-1.68,5.91-2.63a125,125,0,0,0,17.21-9c24.79-15.76,44.81-38.72,60.16-67.86a215.92,215.92,0,0,0,23.84-83.59h0a224,224,0,0,0,0-31.62,182.9,182.9,0,0,0-7.1-37.57c-6.56-21-13-34.72-23.19-48.49C466.82,89.53,437.84,67.6,404.92,53c-32-14.19-66.48-22.38-103.9-24.86a355.23,355.23,0,0,0-36.34,0Z" transform="translate(-55.42 -27.67)"/><path id="path968" class="cls-1" d="M190.55,588.9c-3.52-.78-5.49-1.71-9.65-4.57a29.15,29.15,0,0,1-9.39-10.19c-5-8.31-7.41-17.62-7.94-30.09l-.29-6.82-1.56-3.7c-.86-2-2.86-6.6-4.45-10.16s-3.41-8-4.06-9.79c-2-5.67-4.68-14.18-4.68-14.92,0-1.92,5.33-4.58,7.38-3.69a2.21,2.21,0,0,1,1.45,3c-.69,2.32-.23,8.44.85,11.2.6,1.54,2.64,4.62,3.06,4.62s.42-2.75-.08-4.8c-.85-3.5-1.45-9.21-1.1-10.43.57-2,4.21-3.35,6.36-2.41,1.11.48,1.15.84.28,2.73-1,2.11-1,10.71,0,13.12.67,1.66,1.56,2.47,2,1.8a43,43,0,0,0,.35-5.43c.25-8.86,1.42-11.2,5.57-11.2a4.88,4.88,0,0,1,4.43,3.31,5.09,5.09,0,0,1,.2,3.6,14.76,14.76,0,0,0,.79,8.32c1.6,4,2.39,2.23,2.53-5.63.08-4.34.57-6.31,1.85-7.32a5.49,5.49,0,0,1,4.75-.31c2.09,1,2.24,1.44,2.11,5.92a31.75,31.75,0,0,0,.32,6c.49,2.09,1.84,5,2.33,5s.74-2.5.85-8.42l.1-5.29,1.35-1.09a11.45,11.45,0,0,1,6.65-2.79l2.39-.22.82,1.43c.62,1.08.87,2.33,1,5.12.25,4.19,1.05,7.13,2.21,8.14,1.41,1.22,1.59.22,1.33-7.4l-.24-7,1.08-1a7.49,7.49,0,0,1,2.71-1.39,3.47,3.47,0,0,1,3.12.31c1.39.69,1.51.87,1.71,2.69a20.43,20.43,0,0,0,2.91,8.12c1.91,2.59,2.05,1.75,1-6.52-.71-5.61-.75-5.12.59-6.59,1.87-2.05,7.07-3.75,8.78-2.87.49.25,1.11,1.5,1.79,3.63,2.51,7.79,3.13,9.46,3.55,9.6.71.22,1.29-1.17,1.53-3.69a10,10,0,0,0-.78-5.17c-1.24-3.54-1.25-4.06-.06-6,.81-1.33,1.17-1.58,2.5-1.75a31.53,31.53,0,0,0,5.7-2.06,31.48,31.48,0,0,1,5.9-2.1c1.71-.23,1.81-.19,2.57,1a37,37,0,0,1,2.13,4.93c2.44,6.72,2.95,7.13,3.48,2.78a13.34,13.34,0,0,0-2.1-9.06c-1.38-2.08-1.38-2.38-.06-3.6,2-1.85,4.52-2.61,8.47-2.57,3.5,0,4-.11,3.14-.91-.31-.29-.25-.66.19-1.31a12.08,12.08,0,0,1,4.28-3.34l1.59-.43c.7-.19,1.11.19,2.69,2.46a26.13,26.13,0,0,1,2.86,5.62,9.7,9.7,0,0,0,1.39,3.06c1,.31,1.17-4.39.32-7.12-.5-1.6-1.12-2.61-3.91-6.36-.59-.79-.59-.88.1-1.39a13.23,13.23,0,0,1,5.89-2.32c2.36-.4,2.6-.54,5-2.94s3.3-2.94,6.57-3.69a3.39,3.39,0,0,1,3.28.47,30.2,30.2,0,0,1,3.71,2.75,12.42,12.42,0,0,0,2.55,1.87c.75,0,9.7-5.94,10.14-6.73a45.06,45.06,0,0,1,4-4.27c3.79-3.74,5.21-5.66,6.15-8.32,1.48-4.18,1.74-20.1.46-27.93-1.05-6.44-2.23-18.61-2.05-21.14a10.37,10.37,0,0,1,1.33-4.62c1.92-3.54,4.12-4.5,10.28-4.5h3.81l4.43,2.24c5.89,3,7.92,3.33,12.23,2,4-1.21,6.71-3.1,9.8-6.84a65,65,0,0,0,8.3-13.84c2.23-5.71,5-8.69,7.94-8.69,3.28,0,4.68,1.67,6.13,7.29.8,3.13.83,4,.88,26.49.06,22.08.1,23.44.87,26.95.44,2,1.19,5.6,1.65,7.93s1,4.62,1.18,5.08.7,2.87,1.15,5.35a39.19,39.19,0,0,1-2.32,22.18c-1.7,4.11-2.85,6.14-6.51,11.5-3.92,5.76-11.29,13.21-17.95,18.15-2.33,1.73-7.85,6.24-12.27,10-9.35,8-12.23,10.33-18.52,15l-12.13,9c-4.12,3-11.14,8-15.58,11s-8.69,5.93-9.43,6.47c-2.84,2.09-12.35,8.51-17.32,11.7a286.31,286.31,0,0,1-54.92,27.84A84.4,84.4,0,0,1,208.76,588c-8.36,1.35-14.75,1.67-18.21.91ZM386,420.58a.19.19,0,0,0-.19-.18.18.18,0,1,0,0,.36A.19.19,0,0,0,386,420.58ZM182.08,464.73a14,14,0,0,1-3.13-1c-.55-.57-1.22-6.06-1.55-12.69-.3-6.2-.82-9-1.52-8.27-.42.43-1.77,6.11-2.34,9.88a27.75,27.75,0,0,0-.18,5.92l.26,3-1.67.54a23.18,23.18,0,0,1-5.75.53c-3.77,0-4.24-.08-6.35-1.12s-2.31-1.22-2.76-3c-.85-3.29-1.23-7.26-1.32-13.74-.05-3.5-.24-6.37-.42-6.37-.49,0-1.38,2.28-2,5.26a59.61,59.61,0,0,0-.46,12.82c.11,1.24,0,1.3-1.46,1.61a9.64,9.64,0,0,1-7.37-1.78c-1.4-1.15-1.56-1.49-2-3.95a51,51,0,0,1-.86-10.61c0-2.65-.17-4.82-.34-4.82-.58,0-1.92,3.57-2.37,6.31a36.77,36.77,0,0,0-.22,6.88l.23,4.15-1,.23a7.17,7.17,0,0,1-6.24-1.82c-2.89-2.54-3.25-3.75-3.52-11.82-.55-16.57.8-31.39,3.78-41.61.62-2.12,1.4-5.1,1.75-6.62.87-3.83,1.2-11.77.61-15-.44-2.43-2.45-7.72-3.08-8.09-.16-.09-.27,2.36-.25,5.45,0,6.27-.48,8.5-3,12.48-1.85,3-2.53,2.94-10-.72-3.29-1.61-8-4.16-10.42-5.65s-5.67-3.46-7.19-4.37a45.48,45.48,0,0,1-10.91-10.56,51.83,51.83,0,0,1-5.43-12.57c-.33-1.19-1-4.48-1.4-7.33-.76-4.88-.78-5.94-.47-19.19.4-17.05.32-21.84-.44-29.19-.7-6.75-2.77-19.87-4.39-27.84-2.75-13.55-3.18-17.22-2.68-23.07.21-2.44.43-9.83.51-16.43a167.11,167.11,0,0,1,3.11-33.22c3.76-21.17,12.39-44.86,22.68-62.2a172,172,0,0,1,57.84-58.05,196.83,196.83,0,0,1,22.41-11.28c6.35-2.5,22.2-7.92,28.1-9.59a268.54,268.54,0,0,1,57-9.48c7.22-.47,26.72-.47,33.87,0,35.48,2.35,67.63,10,97.53,23.29,30.2,13.4,56.89,33.88,73.59,56.47,9.09,12.29,14.1,22.85,20.38,42.93a168.07,168.07,0,0,1,6.31,33.63,270.1,270.1,0,0,1,0,28.46A196.82,196.82,0,0,1,475.86,308c-14.14,26.83-31.89,47-53.63,60.77-8.88,5.64-21.4,11-25.63,11-2.25,0-2.63-.51-2.14-3a48.93,48.93,0,0,0,.38-6.68c0-5.6-.64-7.75-3.14-10.46-2.87-3.14-6.63-4.25-9.63-2.85-1,.46-4.29,3.23-8.21,6.9-6.33,5.94-10.89,9.37-14.27,10.73-6.95,2.8-22.86,5.09-41.91,6-7.53.37-15.73,1-16.75,1.28-.31.09-2.39.35-4.61.57a60.58,60.58,0,0,0-15.4,4.06c-2.55,1.25-5.39,3.18-5.39,3.69,0,.67,1.82.38,4.3-.67s7.54-2.49,7.85-2.21a14.37,14.37,0,0,1-1.33,3.28c-2.07,4.28-2.49,6.41-2.25,11.45a26.49,26.49,0,0,0,1.45,8.08c2.65,8.27,1,15.19-4.08,17.52-1.37.62-1.49.81-2.64,3.93s-4.91,6.28-8.06,6.66c-1,.12-1.14,0-1.75-1.9a33.08,33.08,0,0,0-2.09-4.65c-1.44-2.63-4.23-5.68-4.75-5.19-.15.15.71,3.05,1.92,6.45a54.61,54.61,0,0,1,2.2,7.13c0,1.31-1.88,3.66-4,5a17.69,17.69,0,0,1-4.54,1.79c-2.44.57-3.05.91-5.21,2.83-2.78,2.48-4.36,3.24-6.73,3.24h-1.65l-.86-3.23c-.87-3.28-4.06-10.06-4.73-10.06s-.43,1,1.18,7c1.92,7.21,1.93,7.7.09,9.66-2.87,3.05-9.59,4.8-14,3.63l-1.36-.36-.09-2.94a38.36,38.36,0,0,0-3-12.2c-1.13-2.38-2.51-4.42-3-4.43s0,4.17,1.08,9.6c.52,2.53,1.05,5.7,1.2,7L221,459l-2,1.71c-4.6,4-9.72,5-16,3.38l-2-.51-.24-2.87c-.49-5.74-3.5-16-4.7-16-1,0-1,4.35-.12,10.15.47,3,.87,6.2.88,7,0,1.41-.06,1.52-1.9,2.39-2.59,1.24-8.62,1.43-12.82.42Zm3.16-84.66a14.15,14.15,0,0,0,2.22-3.23c1.24-2.37,1.26-2.48,1.27-7.57a26.8,26.8,0,0,0-1.21-9.63c-2.74-9.92-10.34-23.76-17.73-32.27-2.9-3.33-4-4.22-6.54-5.48-2.18-1.07-3.38-1-5.1.32s-1.73,1.43-2.32,6.64a133,133,0,0,1-2.9,16.1c-2.14,9.56-3.37,19.4-3.09,24.57.26,4.66.67,6.31,1.88,7.59,1.51,1.6,4.23.59,5.61-2.06,2-3.82,2.62-9.21,3-25.26.22-10.64.32-12,.83-11.64.9.71,5.66,10.25,6.62,13.26,2.4,7.55,6.44,18.58,7.82,21.37a18.07,18.07,0,0,0,4.16,5.63c2.87,2.76,3.89,3.06,5.52,1.66Zm81.51-44.23a59.48,59.48,0,0,0,18.07-5c2.45-1.2,9.73-7,12.1-9.61,4.5-5,6.4-8.43,9-16.21,2.3-6.9,2.86-10.55,2.87-18.64,0-10.06-1.34-16-5.51-24q-8.36-16-21.06-24.29a91.39,91.39,0,0,0-21.58-9.86,107.37,107.37,0,0,0-17.23-3c-9.47-.6-19.62,2.32-26.12,7.5-3.3,2.62-7.27,8.87-9.35,14.72a21.13,21.13,0,0,0-1.6,8.73,182.91,182.91,0,0,0,1.86,28.35c.64,4.17,1.43,9.57,1.75,12A57.44,57.44,0,0,0,213,309.71c1.75,5.19,3,7.48,5.82,11,4.6,5.67,10.43,9.35,19.94,12.62,8,2.73,11.61,3.31,19.12,3.07,3.11-.1,7.09-.35,8.85-.56Zm-140.36-12.5c9.21-3.44,14.15-7.61,18.18-15.35,4.91-9.42,7.93-31,6.1-43.48-1.51-10.3-5.3-19.86-10.52-26.51-2.38-3-9.32-9-12-10.29A37.54,37.54,0,0,0,117.68,225c-2.47-.25-8,.7-11.63,2a22.17,22.17,0,0,0-12.28,12.47l-1.73,4,.09,29.9c.07,21.79.23,30.45.57,31.93.69,3,4.9,10.88,7,13.08a22,22,0,0,0,5.56,3.85c4.31,2.26,7.1,2.91,12.75,3,3.36,0,3.78-.06,8.39-1.79ZM87.2,307.56c-.14-.13-.25,0-.25.25s.11.38.25.25a.35.35,0,0,0,0-.5Zm-.64-14.33a.2.2,0,0,0-.19-.19.19.19,0,0,0-.19.19.18.18,0,0,0,.19.18A.19.19,0,0,0,86.56,293.23Z" transform="translate(-55.42 -27.67)"/></g><path id="path869" class="cls-1" d="M259.84,419.66c-.21-.51-1.33-6.32-2.49-12.91s-3-17-4.16-23.17c-2.52-13.72-12.21-67.32-15-82.89a58.66,58.66,0,0,0-1.58-7.31,31.63,31.63,0,0,0-4.84-1.47c-15.3-3.85-40.36-10.76-42.21-11.63-.89-.41-1.24-.86-1.24-1.57a3.16,3.16,0,0,0-.29-1.41c-.49-.72.23-1.31,3.2-2.61,3.79-1.67,22.07-8.75,33.51-13,5-1.84,9.29-3.53,9.56-3.75s.66-3.57,1-9.68c.28-5.11.86-15.41,1.3-22.88s1.29-21.85,1.87-31.95,1.52-25.75,2.07-34.76,1.12-19.07,1.27-22.36a40.5,40.5,0,0,1,.66-6.7,1.91,1.91,0,0,1,2.73-.2c.23.28,1.29,5.45,2.37,11.49s3.15,17.55,4.63,25.56,3.62,19.8,4.77,26.17S259.2,205,259.39,206s1,4.31,1.85,7.39c3.54,13.08,8.26,31.67,10,39.32a11.87,11.87,0,0,0,.89,2.87,36.86,36.86,0,0,0,5.29,1.29l14.09,2.86c50.2,10.2,46.59,9.41,47.48,10.43.42.5.41.69-.07,1s-.47.45-.08.61c.88.34.57,1.28-.62,1.86-2.34,1.14-26.65,8.16-51.48,14.85-6.26,1.69-11.44,3.12-11.5,3.18s-.85,6.28-1.54,14.2c-.74,8.38-.94,10.4-1.45,15.17-.63,5.88-.82,7.68-1.25,12-.77,7.8-3.75,34.12-4.61,40.74-.21,1.65-.59,4.44-.83,6.19s-.5,4.4-.57,5.86c-.34,7.3-1.56,28.49-1.8,31.29l-.27,3.2-1.34.13c-1.09.1-1.42-.06-1.72-.8Zm54.23-10.17c0-.13-1.39-7.64-3.09-16.67s-3.57-19.13-4.18-22.42-1.12-6-1.16-6-3-.78-6.49-1.68c-9.66-2.46-11.3-3-11.41-3.73s.14-.9,9.49-4.36c4.08-1.5,7.46-2.79,7.52-2.85s.88-11.89,2.14-33.38c.62-10.63.83-12.48,1.35-12.38.36.06.75.78.92,1.71s1.34,7.07,2.59,13.77c1.9,10.12,6.34,28.79,7,29.43.1.09,5.54,1.23,12.1,2.53,6.95,1.37,12.07,2.57,12.26,2.88s.1.69-.29,1-5.42,1.75-11.28,3.32-10.93,3-11.27,3.18-.71,1.28-.91,3.27c-.86,9-1.31,13.19-2,19.14-1,8.15-1.52,13.69-1.85,19.27-.2,3.3-.4,4.29-.84,4.29s-.58-.11-.58-.25Zm.65-164.28a40.24,40.24,0,0,1-1.24-4.29c-.56-2.17-2.31-8.89-3.89-14.94s-3.2-12.44-3.59-14.21l-.72-3.21-7.52-1.67c-9.75-2.16-10.5-2.37-10.77-3s.1-.72,8.43-2.81c2.4-.6,5.47-1.41,6.84-1.8l2.48-.7.69-7.14c.38-3.93,1-9.66,1.35-12.73s.92-7.81,1.23-10.52c.53-4.61,1.05-6.28,1.66-5.34a44.18,44.18,0,0,1,1.05,5c.44,2.52,1,5.28,1.22,6.14s.72,3.26,1.08,5.35c.87,5,4.86,18,5.65,18.39s10.44,1.45,16.32,1.78c6.79.38,8,.75,6,1.79-1.12.58-14.88,4.91-18.44,5.8a20.43,20.43,0,0,0-3.18,1c-.15.13-1,6.17-1.8,13.42-1.35,11.69-1.74,16.5-1.83,22.47,0,1.57-.49,2.18-1,1.34Z" transform="translate(-55.42 -27.67)"/></g></svg>
