<svg width="72" height="72" fill="none" xmlns="http://www.w3.org/2000/svg"><path fill-rule="evenodd" clip-rule="evenodd" d="M42.198 3.586c1.96 3.41.768 7.756-2.661 9.705l-21.322 12.12c-.564.321-.912.917-.912 1.562v19.03c0 .646.348 1.241.912 1.562l16.87 9.59a1.83 1.83 0 0 0 1.807 0l16.87-9.59c.564-.32.912-.916.912-1.561V34.169l-15.171 8.515c-3.44 1.93-7.802.722-9.743-2.7-1.94-3.422-.725-7.76 2.714-9.692l21.709-12.184c6.613-3.711 14.794 1.042 14.794 8.594v20.744c0 4.858-2.617 9.345-6.858 11.755L42.741 70.216a13.673 13.673 0 0 1-13.505 0L9.858 59.201A13.527 13.527 0 0 1 3 47.446V25.53c0-4.858 2.617-9.344 6.858-11.755L32.44.94c3.429-1.95 7.797-.765 9.757 2.647Z" fill="#fff"/></svg>