<svg xmlns="http://www.w3.org/2000/svg" width="72" height="72" viewBox="0 0 16 16"><g fill="#fff" stroke-width=".32"><path d="M6.373.4c-.731.162-1.454.388-2.132.73.015.598.054 1.172.133 1.754-.264.169-.54.314-.786.511-.25.192-.505.376-.731.6-.452-.298-.93-.58-1.423-.827C.902 3.74.406 4.357 0 5.048c.305.493.624.956.968 1.395h.01v4.237l.023.001 2.598.25a.28.28 0 0 1 .252.26l.08 1.147 2.266.161.156-1.058a.28.28 0 0 1 .277-.24h2.74a.28.28 0 0 1 .277.24l.156 1.058 2.266-.161.08-1.147a.28.28 0 0 1 .252-.26l2.597-.25a.283.283 0 0 1 .023 0v-.339h.002V6.443h.01c.343-.44.662-.902.967-1.396-.406-.69-.902-1.307-1.434-1.879-.492.248-.97.529-1.423.828-.226-.225-.48-.409-.73-.601-.246-.197-.524-.342-.786-.51.078-.583.117-1.157.132-1.756-.678-.34-1.4-.567-2.132-.73a15.143 15.143 0 0 0-.791 1.542 5.415 5.415 0 0 0-.83-.066h-.011a5.41 5.41 0 0 0-.83.066c-.233-.52-.5-1.05-.792-1.541zM4.318 6.599a1.565 1.565 0 1 1 0 3.129 1.565 1.565 0 0 1 0-3.13zm7.365 0a1.565 1.565 0 1 1 0 3.13 1.565 1.565 0 0 1 0-3.13zM8 7.514c.278 0 .504.205.504.458v1.441c0 .253-.226.458-.504.458s-.504-.205-.504-.458V7.972c0-.253.226-.458.504-.458z"/><path d="M12.69 11.466l-.08 1.153a.28.28 0 0 1-.259.26l-2.767.197h-.02a.28.28 0 0 1-.276-.238l-.16-1.077H6.872l-.159 1.077a.28.28 0 0 1-.296.238l-2.767-.198a.28.28 0 0 1-.26-.26l-.08-1.152-2.336-.225c.001.25.005.526.005.58 0 2.468 3.13 3.653 7.017 3.667h.01c3.888-.014 7.016-1.2 7.016-3.666 0-.056.004-.33.005-.581zm-7.184-3.21a1.039 1.039 0 1 1-2.077 0 1.039 1.039 0 0 1 2.077 0m4.988 0a1.039 1.039 0 1 0 2.077 0 1.039 1.039 0 0 0-2.077 0"/></g></svg>