<svg width="72" height="72" fill="none" xmlns="http://www.w3.org/2000/svg"><path opacity=".6" fill-rule="evenodd" clip-rule="evenodd" d="M36.367 70.96C57.547 70.2 72.272 51.79 71 35.322c-.295-3.421-3.32-6.072-6.738-5.908-3.418.164-6.056 3.076-5.892 6.503.48 10.01-8.49 22.239-22.648 22.632a6.27 6.27 0 0 0-.511.035l.276-.005c3.42-.084 6.262 2.628 6.346 6.058a6.208 6.208 0 0 1-5.466 6.323z" fill="url(#paint0_linear)"/><path d="M48.785 35.756c0-3.513 2.865-6.36 6.4-6.36h9.326c3.535 0 6.489 2.847 6.489 6.36 0 3.513-2.954 6.36-6.489 6.36h-9.326c-3.535 0-6.4-2.847-6.4-6.36zM29.216 35.765c0-3.518 2.847-6.37 6.355-6.37 3.508 0 6.355 2.852 6.355 6.37 0 3.518-2.847 6.37-6.355 6.37-3.508 0-6.355-2.852-6.355-6.37z" fill="#fff"/><path fill-rule="evenodd" clip-rule="evenodd" d="M41.75 6.005c.142 3.428-2.514 6.322-5.933 6.465-14.757.614-23.767 12.213-23.328 23.227.136 3.428-2.469 6.318-5.888 6.455-3.419.137-6.425-2.63-6.562-6.058C-.675 18.146 14.27.404 35.303.055c3.419-.142 6.305 2.522 6.447 5.95z" fill="#fff"/><path opacity=".7" fill-rule="evenodd" clip-rule="evenodd" d="M.02 35.437C.11 57.117 17.853 71.442 35.794 71c3.42-.084 6.125-2.933 6.04-6.363-.084-3.43-2.925-6.143-6.345-6.058-11.247.277-22.507-8.58-22.999-22.363-.131 3.196-2.643 5.806-5.887 5.936-3.42.137-6.426-2.63-6.562-6.058a31.02 31.02 0 0 1-.02-.657z" fill="url(#paint1_linear)"/><defs><linearGradient id="paint0_linear" x1="68.148" y1="42.797" x2="-31.951" y2="69.63" gradientUnits="userSpaceOnUse"><stop stop-color="#fff" stop-opacity=".89"/><stop offset="1" stop-color="#fff" stop-opacity=".51"/></linearGradient><linearGradient id="paint1_linear" x1="33.239" y1="60.994" x2="-19.959" y2="3.553" gradientUnits="userSpaceOnUse"><stop stop-color="#fff"/><stop offset="1" stop-color="#fff" stop-opacity=".8"/></linearGradient></defs></svg>