<svg width="1234" height="245" viewBox="0 0 1234 245" fill="none" xmlns="http://www.w3.org/2000/svg">
<path fill-rule="evenodd" clip-rule="evenodd" d="M221.494 101.381C233.273 100.815 243.701 109.953 244.718 121.744C249.124 178.78 197.865 242.567 124.306 244.61C112.517 244.938 102.696 235.62 102.369 223.799C102.043 211.977 111.334 202.129 123.123 201.801C171.923 200.446 202.838 158.295 201.188 123.795C200.623 111.983 209.714 101.948 221.494 101.381Z" fill="url(#paint0_linear)"/>
<path fill-rule="evenodd" clip-rule="evenodd" d="M21.6333 100.167C33.4265 100.167 42.9868 109.754 42.9868 121.58C42.9868 170.939 82.6746 202.883 122.315 201.905C134.105 201.614 143.897 210.962 144.187 222.784C144.478 234.607 135.155 244.427 123.366 244.718C61.3766 246.247 0.0678711 196.619 0.0678711 121.58C0.0678706 109.754 9.8401 100.167 21.6333 100.167Z" fill="url(#paint1_linear)"/>
<path d="M168.15 123.24C168.15 111.133 178.026 101.318 190.208 101.318L222.354 101.318C234.537 101.318 244.718 111.133 244.718 123.24C244.718 135.348 234.537 145.163 222.354 145.163H190.208C178.026 145.163 168.15 135.348 168.15 123.24Z" fill="url(#paint2_linear)"/>
<path d="M100.7 123.272C100.7 111.147 110.513 101.318 122.604 101.318C134.696 101.318 144.509 111.147 144.509 123.272C144.509 135.397 134.696 145.227 122.604 145.227C110.513 145.227 100.7 135.397 100.7 123.272Z" fill="url(#paint3_linear)"/>
<path fill-rule="evenodd" clip-rule="evenodd" d="M143.902 20.6961C144.392 32.5119 135.236 42.4882 123.453 42.9789C72.5875 45.0972 41.5346 85.0757 43.0461 123.036C43.5166 134.852 34.5366 144.814 22.7528 145.286C10.969 145.758 0.606359 136.221 0.135847 124.405C-2.3273 62.5448 49.1804 1.39121 121.681 0.190226C133.464 -0.300477 143.413 8.88031 143.902 20.6961Z" fill="url(#paint4_linear)"/>
<path d="M570.994 48.0619C564.396 48.0619 559.449 53.0307 559.449 59.6559C559.449 66.281 564.396 71.2498 570.758 71.2498C577.12 71.2498 582.303 66.281 582.303 59.8925C582.303 53.2673 577.355 48.0619 570.994 48.0619Z" fill="#1F344A"/>
<path fill-rule="evenodd" clip-rule="evenodd" d="M409.02 112.256H466.45L466.571 113.948C466.811 117.325 466.811 121.631 466.811 123.054V123.068C466.811 144.477 461.995 159.558 450.164 174.591L450.16 174.595L450.157 174.6C434.741 193.951 413.958 204.154 389.59 204.154C343.732 204.154 310.249 168.944 310.249 120.938C310.249 72.2379 343.482 37.0133 389.59 37.0133C413.948 37.0133 434.971 47.2079 450.159 66.3328L451.277 67.7412L433.685 82.0424L432.525 80.7428C426.406 73.8886 423.709 71.2033 419.676 68.5031L419.644 68.4816L419.613 68.4587C411.221 62.3093 400.529 58.8738 389.59 58.8738C358.26 58.8738 334.158 85.318 334.158 120.702C334.158 155.623 358.269 182.293 389.119 182.293C405.982 182.293 423.552 173.337 432.857 159.891L432.874 159.867L432.891 159.844C438.452 152.326 440.803 145.231 442.422 132.933H409.02V112.256ZM486.811 88.5947H508.365V100.938C510.347 97.5479 512.416 95.2676 515.311 93.0063C521.1 88.4568 529.055 85.992 537.172 85.992H543.236V108.096L541.185 107.838C539.428 107.618 537.65 107.616 536.465 107.616C527.411 107.616 519.496 111.81 514.416 119.352L514.411 119.359L514.407 119.365C509.977 125.816 508.365 131.796 508.365 144.126V201.314H486.811V88.5947ZM581.535 88.5947V201.314H559.981V88.5947H581.535ZM689.109 102.062C678.899 91.031 667.038 85.992 652.055 85.992C621.389 85.992 599.103 111.635 599.103 145.546C599.103 179.498 620.955 203.917 652.055 203.917C660.551 203.917 667.874 202.268 674.493 198.634C679.797 195.722 684.572 191.577 689.109 186.122V201.314H710.662V39.8526H689.109V102.062ZM809.669 122.049H788.03V119.045C788.03 114.499 786.211 110.889 783.036 108.375C779.818 105.827 775.071 104.303 769.119 104.303C763.404 104.303 758.956 105.767 755.978 108.16C753.039 110.521 751.386 113.894 751.386 118.099C751.386 120.324 751.665 122.052 752.282 123.496C752.888 124.914 753.871 126.174 755.467 127.386C758.772 129.895 764.504 132.069 774.315 134.799C788.295 138.607 795.983 142.258 801.513 147.811C807.273 153.595 810.762 161.865 810.762 170.39C810.762 180.395 806.633 188.839 799.434 194.748C792.266 200.633 782.166 203.917 770.297 203.917C757.661 203.917 747.533 200.957 740.297 194.949C733.034 188.917 728.927 180.017 727.954 168.653L727.785 166.677H749.099L749.257 168.324C749.811 174.105 751.939 178.35 755.35 181.174C758.785 184.018 763.744 185.606 770.297 185.606C776.123 185.606 780.754 184.086 783.887 181.595C786.982 179.134 788.737 175.639 788.737 171.337C788.737 169.168 788.386 167.374 787.66 165.823C786.937 164.278 785.794 162.871 784.06 161.542C780.52 158.828 774.655 156.533 765.37 154.172L765.356 154.169L765.342 154.165C753.437 150.937 744.556 146.752 738.641 141.093C732.651 135.363 729.832 128.246 729.832 119.519C729.832 109.524 733.894 101.081 741.003 95.1684C748.084 89.279 758.069 85.992 769.826 85.992C781.668 85.992 791.383 89.0269 798.283 94.9172C805.21 100.83 809.091 109.441 809.581 120.145L809.669 122.049ZM955.339 88.5947H976.893V99.9277C980.176 95.824 983.7 92.6677 987.651 90.4038C992.99 87.3447 998.973 85.992 1005.94 85.992C1013.62 85.992 1020.07 87.6471 1025.28 91.1877C1029.62 94.1388 1032.98 98.3185 1035.47 103.682C1039.14 98.0771 1043.32 93.8535 1048.34 90.9404C1054.26 87.5127 1061.2 85.992 1069.55 85.992C1082.42 85.992 1092.48 90.1508 1098.58 98.3103C1101.31 101.926 1103.08 105.416 1104.14 110.255C1105.19 115.016 1105.54 121.04 1105.54 129.693V201.314H1083.99V133.952C1083.99 127.309 1083.87 123.359 1083.45 120.524C1083.04 117.795 1082.37 116.119 1081.17 114.044C1078.28 109.073 1071.92 105.723 1063.9 105.723C1056.45 105.723 1050.88 108.215 1047.14 112.802C1043.35 117.447 1041.22 124.49 1041.22 133.952V201.314H1019.66V134.189C1019.66 123.609 1018.71 118.554 1016.35 114.24L1016.34 114.209L1016.32 114.177C1013.65 108.812 1007.81 105.723 1000.28 105.723C992.86 105.723 987.099 108.372 983.158 113.11C979.181 117.892 976.893 125.004 976.893 134.189V201.314H955.339V88.5947ZM1233.59 152.572H1143.48C1143.92 156.123 1144.51 158.884 1145.37 161.324C1146.38 164.184 1147.81 166.682 1149.97 169.529L1149.98 169.542L1149.99 169.556C1156.71 178.785 1166.53 183.713 1177.73 183.713C1190.52 183.713 1202.62 176.716 1208.65 165.952L1209.42 164.587L1228.55 171.757L1227.67 173.558C1218.39 192.434 1199.12 203.917 1177.73 203.917C1144.4 203.917 1120.53 179.395 1120.53 145.309C1120.53 110.792 1144.12 85.992 1177.02 85.992C1209.63 85.992 1233.98 110.73 1233.98 143.653V143.674C1233.98 145.093 1233.98 148.232 1233.74 150.915L1233.59 152.572ZM557.625 59.6559C557.625 52.035 563.38 46.2412 570.994 46.2412C578.444 46.2412 584.127 52.3456 584.127 59.8925C584.127 67.3256 578.087 73.0705 570.758 73.0705C563.355 73.0705 557.625 67.2519 557.625 59.6559ZM679.764 116.556C673.929 109.692 665.663 105.723 655.825 105.723C645.623 105.723 637.121 109.76 631.143 116.712C625.147 123.686 621.599 133.709 621.599 145.783C621.599 157.374 625.083 167.106 630.91 173.91C636.72 180.693 644.932 184.659 654.647 184.659C674.394 184.659 689.109 168.195 689.109 145.309C689.109 133.351 685.618 123.443 679.764 116.556ZM841.581 102.366C851.735 91.9534 866.124 85.992 883.06 85.992C916.191 85.992 939.782 110.787 939.782 145.309C939.782 178.223 914.496 203.917 882.353 203.917C865.749 203.917 851.537 197.822 841.481 187.324C831.43 176.832 825.631 162.049 825.631 144.836C825.631 127.506 831.43 112.775 841.581 102.366ZM908.179 116.799C902.158 110.085 893.536 106.196 883.06 106.196C872.336 106.196 863.534 110.094 857.4 116.812C851.251 123.545 847.656 133.253 847.656 145.073C847.656 156.77 851.249 166.421 857.37 173.127C863.478 179.818 872.223 183.713 882.824 183.713C903.097 183.713 917.757 167.898 917.757 145.073C917.757 133.246 914.216 123.532 908.179 116.799ZM1143.83 135.681H1211.06C1210.3 128.668 1208.71 124.568 1205.46 119.869C1198.97 111.121 1188.45 105.723 1177.02 105.723C1165.59 105.723 1155.34 111.114 1149.33 120.041C1146.49 124.527 1145.11 128.445 1143.83 135.681ZM570.994 48.0619C564.396 48.0619 559.449 53.0307 559.449 59.6559C559.449 66.281 564.396 71.2498 570.758 71.2498C577.12 71.2498 582.303 66.281 582.303 59.8925C582.303 53.2673 577.355 48.0619 570.994 48.0619Z" fill="#1F344A"/>
<defs>
<linearGradient id="paint0_linear" x1="131.849" y1="295.871" x2="198.611" y2="304.452" gradientUnits="userSpaceOnUse">
<stop stop-color="#1A7D75"/>
<stop offset="1" stop-color="#1A8864"/>
</linearGradient>
<linearGradient id="paint1_linear" x1="8.1347" y1="116.241" x2="-25.4943" y2="204.661" gradientUnits="userSpaceOnUse">
<stop offset="0.0129262" stop-color="#168A81"/>
<stop offset="1" stop-color="#31A97F"/>
</linearGradient>
<linearGradient id="paint2_linear" x1="57.6617" y1="127.831" x2="114.279" y2="213.676" gradientUnits="userSpaceOnUse">
<stop stop-color="#27A59B"/>
<stop offset="1" stop-color="#64D8A2"/>
</linearGradient>
<linearGradient id="paint3_linear" x1="37.4823" y1="127.87" x2="98.5345" y2="180.757" gradientUnits="userSpaceOnUse">
<stop stop-color="#27A59B"/>
<stop offset="1" stop-color="#64D8A2"/>
</linearGradient>
<linearGradient id="paint4_linear" x1="304.542" y1="-205.801" x2="124.854" y2="-266.451" gradientUnits="userSpaceOnUse">
<stop stop-color="#27A59B"/>
<stop offset="1" stop-color="#64D8A2"/>
</linearGradient>
</defs>
</svg>
