<svg width="72" height="72" xmlns="http://www.w3.org/2000/svg"><style>.st0{fill:#fff}</style><path class="st0" d="M64.633 24.04c1.991-4.825 1.991-14.63-.613-22.136-.69-1.38-2.758-.92-2.834.536v.536c-.46 7.2-3.064 11.107-6.97 13.022-.614.306-1.61.306-2.299-.154-4.596-2.91-10.11-4.595-16.009-4.595S24.572 13.01 19.9 15.844c-.613.383-1.378.46-1.991.154-3.983-1.456-6.74-5.822-7.2-13.099v-.536c0-1.455-2.145-1.915-2.758-.536-2.604 7.66-2.528 17.464-.613 22.213.996 2.375.996 5.056.153 7.507-1.072 3.064-1.608 6.51-1.532 9.958.383 15.779 13.788 29.26 29.644 29.49C52.3 71.3 65.858 57.897 65.858 41.122c0-3.37-.536-6.511-1.532-9.498-.766-2.452-.69-5.21.307-7.584zM35.525 63.948c-12.102-.306-22.137-10.188-22.29-22.367C12.93 28.636 23.5 18.066 36.368 18.372c12.179.153 22.137 10.188 22.366 22.367.23 12.868-10.264 23.362-23.209 23.209z"/><path class="st0" d="M39.432 38.67l-5.362-8.272c-.843-1.379-2.604-1.762-3.983-.92-.843.537-1.379 1.456-1.379 2.452 0 .536.153 1.072.46 1.532l3.6 5.668c.306.46.153.996-.077 1.379l-5.668 6.204c-1.072 1.15-.996 2.988.153 4.06.536.46 1.302.69 1.992.69.842 0 1.532-.384 2.068-.92l4.213-4.902c.383-.383.919-.383 1.149.077l2.987 4.29c.153.382.46.612.843.842.995.69 2.297.69 3.293.076.843-.536 1.379-1.455 1.379-2.45 0-.537-.153-1.073-.46-1.533z"/></svg>