<svg xmlns="http://www.w3.org/2000/svg" height="40" width="40"><g fill="#b90303"><path d="M8.483 33.38c.166-.187 2.203.15 2.328.18.743.175 1.477.648 2.212.824.687.164 1.564-.126 2.272-.138 2.626-.048 5.31.025 6.836-.87 1.788-1.049 2.716-3.143 3.376-5.053.432-1.246-.02-3.934-.09-5.254-.051-.94-1.472-3.531-2.103-3.838-5.471-2.667-5.928-.992-6.681 1.145-.335.95-2.214-.842-1.911-2.138.673-2.885 1.45-3.714 3.452-4.143.813-.175.979.462 1.563.558.404.066 1.188-.48 1.689-.48.52 0 .805.731 1.417.869.693.156 1.453-.15 2.056 0 .681.17 1.068 1.433 1.559 1.58.677.201.828-.12 1.27-.101.372.017.891.91 1.205 1.264 2.62 2.955 3.971 6.993 2.514 12.274-.165.6-.92 1.083-1.233 1.782-.368.819-.281 1.943-.549 2.65-.168.445-.908.815-1.233 1.097-1.573 1.364-3.566 3.897-6.08 4.249-.746.104-1.597-.252-2.375-.046-1.998.529-7.074.072-8.182-1.582-.684-1.02-4.53-3.468-3.312-4.829"/><path d="M7.902 20.033c.191 2.964 3.486 3.646 5.005 5.689 1.746 2.347 8.077 1.864 9.136-.81.732-1.847.56-4.077-.432-4.644-.826-.472-2.469-.547-2.78.085-.316.642 1.002 1.477.685 2.102-.103.205-1.352.682-1.599.594-4.772-1.7-5.042-3.353-5.14-7.856-.096-4.503 2.02-4.527 2.676-6.426.657-1.898 2.165-1.603 3.941-2.645 1.517-.89 3.048.438 4.986.385.704-.019 1.932-.697 2.803-.265 2.412 1.194 2.587.598 4.676-.048 1.25-.387-2.71-2.704-4.962-4.971-1.394-1.405-5.724-1.435-7.71-.91-.773.205-1.618-.149-2.36-.045-2.498.35-3.859 3.424-5.767 4.223-1.375.575-2.793 2.384-2.77 3.848"/></g></svg>