<svg xmlns="http://www.w3.org/2000/svg" xmlns:xlink="http://www.w3.org/1999/xlink" viewBox="0 0 118.07 142.64"><defs><style>.cls-1{isolation:isolate;}.cls-2{fill:url(#Sfumatura_senza_nome_25);}.cls-3{fill:url(#Sfumatura_senza_nome_24);}.cls-4{opacity:0.43;fill:url(#Sfumatura_senza_nome_23);}.cls-5{fill:url(#Sfumatura_senza_nome_22);}.cls-6{fill:url(#Sfumatura_senza_nome_21);}.cls-7{fill:url(#Sfumatura_senza_nome_20);}.cls-8{fill:url(#Sfumatura_senza_nome_19);}.cls-9{fill:url(#Sfumatura_senza_nome_18);}.cls-10{mix-blend-mode:color-burn;fill:url(#Sfumatura_senza_nome_17);}.cls-11{fill:url(#Sfumatura_senza_nome_16);}.cls-12{mix-blend-mode:soft-light;opacity:0.17;fill:url(#Sfumatura_senza_nome_15);}.cls-13{opacity:0.25;fill:url(#Sfumatura_senza_nome_14);}</style><linearGradient id="Sfumatura_senza_nome_25" x1="14.7" y1="5.11" x2="89.66" y2="5.11" gradientTransform="translate(22.27 149.45) rotate(-68.57)" gradientUnits="userSpaceOnUse"><stop offset="0"/><stop offset="0.5" stop-color="#313131"/><stop offset="0.67" stop-color="#2e2e2e"/><stop offset="0.8" stop-color="#252525"/><stop offset="0.9" stop-color="#151515"/><stop offset="1"/></linearGradient><linearGradient id="Sfumatura_senza_nome_24" x1="14.7" y1="5.11" x2="89.66" y2="5.11" gradientTransform="translate(22.27 149.45) rotate(-68.57)" gradientUnits="userSpaceOnUse"><stop offset="0"/><stop offset="0.03" stop-color="#040404" stop-opacity="0.94"/><stop offset="1" stop-color="#444" stop-opacity="0"/></linearGradient><linearGradient id="Sfumatura_senza_nome_23" x1="14.7" y1="6.42" x2="76.9" y2="6.42" gradientTransform="translate(22.27 149.45) rotate(-68.57)" gradientUnits="userSpaceOnUse"><stop offset="0" stop-color="#444" stop-opacity="0"/><stop offset="0.06" stop-color="#474747" stop-opacity="0.19"/><stop offset="0.18" stop-color="#4c4c4c" stop-opacity="0.49"/><stop offset="0.31" stop-color="#4f4f4f" stop-opacity="0.72"/><stop offset="0.46" stop-color="#525252" stop-opacity="0.88"/><stop offset="0.65" stop-color="#545454" stop-opacity="0.97"/><stop offset="1" stop-color="#545454"/></linearGradient><linearGradient id="Sfumatura_senza_nome_22" x1="8.33" y1="-27.86" x2="133.29" y2="-27.86" gradientTransform="translate(22.27 149.45) rotate(-68.57)" gradientUnits="userSpaceOnUse"><stop offset="0" stop-color="#737373"/><stop offset="0.5" stop-color="#b5b5b5"/><stop offset="1" stop-color="#cfcfcf"/></linearGradient><linearGradient id="Sfumatura_senza_nome_21" x1="44.53" y1="82.86" x2="44.53" y2="42.98" gradientTransform="translate(22.27 149.45) rotate(-68.57)" gradientUnits="userSpaceOnUse"><stop offset="0" stop-color="#535353"/><stop offset="0.5" stop-color="#2c2c2c"/><stop offset="1" stop-color="#2c2c2c"/></linearGradient><linearGradient id="Sfumatura_senza_nome_20" x1="44.73" y1="82.86" x2="44.73" y2="42.98" gradientTransform="translate(22.27 149.45) rotate(-68.57)" gradientUnits="userSpaceOnUse"><stop offset="0" stop-color="#535353"/><stop offset="1"/></linearGradient><linearGradient id="Sfumatura_senza_nome_19" x1="28.47" y1="38.49" x2="98.82" y2="38.49" gradientTransform="translate(22.27 149.45) rotate(-68.57)" gradientUnits="userSpaceOnUse"><stop offset="0" stop-color="#6c6c6c"/><stop offset="0.5" stop-color="#535353"/><stop offset="1" stop-color="#2c2c2c"/></linearGradient><linearGradient id="Sfumatura_senza_nome_18" x1="28.47" y1="38.49" x2="98.91" y2="38.49" gradientTransform="translate(22.27 149.45) rotate(-68.57)" gradientUnits="userSpaceOnUse"><stop offset="0" stop-color="#6c6c6c" stop-opacity="0"/><stop offset="0.05" stop-color="#6c6c6c" stop-opacity="0.22"/><stop offset="0.13" stop-color="#6d6d6d" stop-opacity="0.5"/><stop offset="0.21" stop-color="#6d6d6d" stop-opacity="0.72"/><stop offset="0.29" stop-color="#6d6d6d" stop-opacity="0.88"/><stop offset="0.39" stop-color="#6d6d6d" stop-opacity="0.97"/><stop offset="0.5" stop-color="#6d6d6d"/><stop offset="0.59" stop-color="#6a6a6a" stop-opacity="0.96"/><stop offset="0.69" stop-color="#636363" stop-opacity="0.85"/><stop offset="0.79" stop-color="#575757" stop-opacity="0.65"/><stop offset="0.89" stop-color="#454545" stop-opacity="0.39"/><stop offset="0.99" stop-color="#2f2f2f" stop-opacity="0.04"/><stop offset="1" stop-color="#2c2c2c" stop-opacity="0"/></linearGradient><linearGradient id="Sfumatura_senza_nome_17" x1="8.33" y1="-27.86" x2="131.75" y2="-27.86" gradientTransform="translate(22.27 149.45) rotate(-68.57)" gradientUnits="userSpaceOnUse"><stop offset="0" stop-color="#e9e9e9"/><stop offset="1" stop-color="#cfcfcf"/></linearGradient><linearGradient id="Sfumatura_senza_nome_16" x1="28.47" y1="38.49" x2="95.22" y2="38.49" gradientTransform="translate(22.27 149.45) rotate(-68.57)" gradientUnits="userSpaceOnUse"><stop offset="0" stop-color="#6c6c6c" stop-opacity="0"/><stop offset="0.29" stop-color="#535353" stop-opacity="0.39"/><stop offset="0.71" stop-color="#363636" stop-opacity="0.84"/><stop offset="1" stop-color="#2c2c2c"/></linearGradient><linearGradient id="Sfumatura_senza_nome_15" x1="31.16" y1="38.49" x2="98.91" y2="38.49" gradientTransform="translate(22.27 149.45) rotate(-68.57)" gradientUnits="userSpaceOnUse"><stop offset="0" stop-color="#6c6c6c" stop-opacity="0"/><stop offset="0.03" stop-color="gray" stop-opacity="0.14"/><stop offset="0.08" stop-color="#9e9e9e" stop-opacity="0.34"/><stop offset="0.13" stop-color="#b8b8b8" stop-opacity="0.51"/><stop offset="0.18" stop-color="#cecece" stop-opacity="0.66"/><stop offset="0.24" stop-color="#e0e0e0" stop-opacity="0.79"/><stop offset="0.3" stop-color="#ededed" stop-opacity="0.88"/><stop offset="0.36" stop-color="#f7f7f7" stop-opacity="0.95"/><stop offset="0.42" stop-color="#fdfdfd" stop-opacity="0.99"/><stop offset="0.5" stop-color="#fff"/><stop offset="0.56" stop-color="#fcfcfc" stop-opacity="0.98"/><stop offset="0.62" stop-color="#f1f1f1" stop-opacity="0.93"/><stop offset="0.69" stop-color="#e0e0e0" stop-opacity="0.85"/><stop offset="0.75" stop-color="#c7c7c7" stop-opacity="0.74"/><stop offset="0.82" stop-color="#a8a8a8" stop-opacity="0.59"/><stop offset="0.88" stop-color="#828282" stop-opacity="0.41"/><stop offset="0.95" stop-color="#555" stop-opacity="0.2"/><stop offset="1" stop-color="#2c2c2c" stop-opacity="0"/></linearGradient><linearGradient id="Sfumatura_senza_nome_14" x1="41.51" y1="25.85" x2="107.05" y2="-87.67" gradientTransform="translate(22.27 149.45) rotate(-68.57)" gradientUnits="userSpaceOnUse"><stop offset="0" stop-color="#737373" stop-opacity="0"/><stop offset="0.06" stop-color="#8b8b8b" stop-opacity="0.17"/><stop offset="0.15" stop-color="#adadad" stop-opacity="0.42"/><stop offset="0.24" stop-color="#cacaca" stop-opacity="0.63"/><stop offset="0.32" stop-color="#e0e0e0" stop-opacity="0.79"/><stop offset="0.39" stop-color="#f0f0f0" stop-opacity="0.9"/><stop offset="0.45" stop-color="#fafafa" stop-opacity="0.98"/><stop offset="0.5" stop-color="#fdfdfd"/><stop offset="0.59" stop-color="#fcfcfc" stop-opacity="0.99"/><stop offset="0.66" stop-color="#fbfbfb" stop-opacity="0.95"/><stop offset="0.72" stop-color="#f8f8f8" stop-opacity="0.89"/><stop offset="0.77" stop-color="#f4f4f4" stop-opacity="0.8"/><stop offset="0.82" stop-color="#eee" stop-opacity="0.68"/><stop offset="0.87" stop-color="#e8e8e8" stop-opacity="0.54"/><stop offset="0.92" stop-color="#e0e0e0" stop-opacity="0.38"/><stop offset="0.96" stop-color="#d8d8d8" stop-opacity="0.19"/><stop offset="1" stop-color="#cfcfcf" stop-opacity="0"/></linearGradient></defs><g class="cls-1"><g id="Layer_2" data-name="Layer 2"><g id="Layer_1-2" data-name="Layer 1"><path class="cls-2" d="M22.94,123.77s8.32-3.58,26-38.93c3.95-7.9,6.67-13,10.74-16.66,0,0,6.88-.46,3.57,10.63s-4.42,29.52-4.42,29.52-9.53,20-10.94,21.45-6.22,8.89-15.37,7.61S22.94,123.77,22.94,123.77Z"/><path class="cls-3" d="M22.94,123.77s8.33-3.57,26-38.93c3.93-7.85,6.67-13,10.74-16.66,0,0,6.88-.46,3.57,10.63s-4.42,29.52-4.42,29.52-9.53,20-10.94,21.45-6.22,8.89-15.37,7.61S22.94,123.77,22.94,123.77Z"/><path class="cls-4" d="M47.51,113.05c-10.2,21.19-13.9,17.22-13.9,17.22s-4.81-.64-9.79-1.56c1.07,3.59,3.44,7.95,8.68,8.68,9.15,1.28,14-6.17,15.37-7.61s10.94-21.45,10.94-21.45.9-14.73,3.45-25.78C58.31,90,53.32,101,47.51,113.05Z"/><path class="cls-5" d="M2.08,0s34.86-1,31.6,56c-3.5,61.15,4.66,84.55,17.29,68.76,0,0-12.81,26.23-36.47,12.22C.57,128.72-.07,114.51,0,97.49,0,97.49,4.22,41.81,2.08,0Z"/><path class="cls-6" d="M81.78,115.47s8.34,23.16,36,16.4a.25.25,0,0,1,.2.46,93.14,93.14,0,0,1-14,6.78C88.73,145,83.19,126,81.78,115.47Z"/><path class="cls-7" d="M81.78,115.47s8.34,23.16,36,16.4a.25.25,0,0,1,.2.46c-3.24,2-11.2,6.51-16.1,7.1C85.61,141.41,83.19,126,81.78,115.47Z"/><path class="cls-8" d="M76.76,65C68.6,59.23,59,68.84,59,68.84c8.65-3.4-3.35,19.35.67,46.65,2.85,19.38,17.65,25,17.65,25l0,0c13.11,5.63,26.68-1.33,26.68-1.33C64.64,135.61,91.73,75.76,76.76,65Z"/><path class="cls-9" d="M76.76,65C68.76,58.84,59,68.84,59,68.84c8.65-3.4-3.35,19.35.67,46.65,2.85,19.38,17.65,25,17.65,25l0,0c13.11,5.63,26.68-1.33,26.68-1.33C64.64,135.61,91.24,77.47,76.76,65Z"/><path class="cls-10" d="M14.43,73.94C19.35,9,2.08,0,2.08,0,4.56,37.47,0,97.49,0,97.49-.06,115.24.57,128.72,14.5,137,38.16,151,51,124.76,51,124.76,34.59,154.05,9.34,141,14.43,73.94Z"/><path class="cls-11" d="M72.23,74.15c.56-9.33-5.48-9.34-6.06-9.32a19.66,19.66,0,0,0-7.22,4c8.65-3.4-3.35,19.35.67,46.65,2.85,19.38,17.65,25,17.65,25l0,0c13.11,5.63,26.68-1.33,26.68-1.33C58.62,155.47,71.62,84.25,72.23,74.15Z"/><path class="cls-12" d="M59,68.84a19.66,19.66,0,0,1,7.22-4c.58,0,6.62,0,6.06,9.32-.61,10.1-15.16,81.29,31.76,65C64.64,135.61,91.24,77.47,76.76,65,68.76,58.84,59,68.84,59,68.84Z"/><path class="cls-13" d="M2.08,0h0S19.35,9,14.43,73.94c-3.9,51.27,10,71,24,64.3a31.89,31.89,0,0,0,9.62-8.88,50,50,0,0,0,2.9-4.6C38.34,140.55,30.18,117.15,33.68,56,36.94-1,2.08,0,2.08,0Z"/></g></g></g></svg>