<svg xmlns="http://www.w3.org/2000/svg" width="40" height="40"><g fill="none" fill-rule="evenodd"><g fill="#FFF" fill-rule="nonzero"><path d="M30.395 11.042c.134-.48.452-.692.961-.683.923.02 1.856.02 2.779 0 .413-.01.712.135.923.481.106 1.24.01 2.481.039 3.712.01.22-.039.442.048.663a8.431 8.431 0 0 0 0 2.308c.442.548.961 1.02 1.452 1.52 1.01 1.009 2.01 2.018 3.028 3.018.289.289.472.606.308.981-.163.375-.52.462-.923.462-1.106-.02-2.211.019-3.317-.02-.443-.01-.53.135-.53.549.01 4.25.01 8.49.01 12.74 0 .943-.182 1.125-1.115 1.125h-13.25c-.087-.182.038-.24.115-.307.731-.74 1.481-1.472 2.212-2.212a.771.771 0 0 1 .596-.25c.702.01 1.414.02 2.115 0 .337-.01.549.067.75.365.318.471.962.625 1.51.443.548-.193.923-.702.923-1.28 0-.576-.365-1.095-.913-1.278-.471-.154-1.289-.039-1.568.49-.144.27-.336.327-.625.318-.836-.02-1.663.01-2.5-.01a.913.913 0 0 0-.76.308c-.557.577-1.124 1.134-1.701 1.702-.106.105-.193.26-.423.298v-2.971c0-.174.144-.24.24-.347.904-.903 1.827-1.807 2.721-2.711.183-.193.375-.25.635-.25 1.442.01 2.885.01 4.327 0 .317 0 .52.077.711.356.462.644 1.424.711 2 .182a1.36 1.36 0 0 0-.01-2.01c-.576-.519-1.576-.442-2.018.203-.183.269-.375.326-.674.326-1.201-.01-2.394 0-3.663 0 .24-.384.558-.605.808-.884.163-.173.336-.337.51-.51.48-.49 1.172-.875 1.384-1.5.211-.615.096-1.365.058-2.048-.03-.529.115-.923.528-1.25.27-.221.53-.471.75-.74.424-.51.885-.789 1.597-.721.663.057 1.105-.625 1.067-1.472a1.238 1.238 0 0 0-1.192-1.153c-.798 0-1.481.298-1.423 1.528.019.327-.087.539-.308.74-.317.28-.616.587-1 .953v-2.28c0-.413.01-.836 0-1.25-.01-.49-.039-.932.471-1.278.462-.317.471-1.02.202-1.539-.26-.49-.721-.644-1.308-.644-.692.01-1.096.404-1.202.943-.105.557-.057 1.211.596 1.538.145.077.202.192.202.346-.01 1.318-.01 2.625-.019 3.943 0 .028-.029.048-.067.105-.433-.336-.74-.779-1.116-1.163-.105-.116-.028-.24-.01-.366.116-.653-.115-1.173-.653-1.461-.548-.298-1.212-.221-1.635.192a1.392 1.392 0 0 0-.269 1.587c.26.538.846.846 1.48.72.26-.057.414.02.587.193.5.52 1.01 1.03 1.53 1.53.172.172.25.345.25.586-.02.692.144 1.432-.068 2.048-.202.606-.904.97-1.356 1.461-.375.414-.75.827-1.115 1.24-.058-.028-.106-.067-.164-.095v-1.847c0-.23.193-.269.327-.375.645-.49.74-1.403.202-1.99-.413-.452-.923-.529-1.471-.365-.5.153-.808.528-.885 1.038-.086.548.068 1.039.558 1.337.24.153.308.317.308.586-.01.77-.01 1.539 0 2.308a.81.81 0 0 1-.27.673c-.673.654-1.326 1.337-1.99 2.01-.183-.193-.115-.366-.115-.51 0-4.49 0-8.971-.01-13.462a1 1 0 0 1 .337-.798c.49-.461.961-.942 1.432-1.423.145-.154.299-.24.51-.192.865.173 1.75-.481 1.789-1.318.028-.634-.683-1.336-1.375-1.375-.76-.038-1.356.51-1.337 1.28.01.49-.115.865-.51 1.192-.394.327-.74.702-1.096 1.077-.173.182-.288.24-.49.028a34.34 34.34 0 0 0-1.433-1.423c-.154-.154-.183-.298-.144-.51.125-.769-.202-1.317-.875-1.557a1.35 1.35 0 0 0-1.625.587c-.346.586-.221 1.394.346 1.826.288.222.644.414 1.058.24.202-.086.394-.038.557.135a130.53 130.53 0 0 0 1.664 1.664c.125.125.173.25.173.423 0 3.202 0 6.414-.01 9.616 0 .057-.019.115-.029.182-.192 0-.26-.144-.355-.24-.943-.933-1.885-1.875-2.837-2.808-.202-.192-.298-.385-.288-.673.019-.721.01-1.442 0-2.163 0-.25.067-.404.279-.549.548-.375.72-.961.519-1.557-.193-.558-.673-.894-1.289-.894-.596 0-1.106.365-1.279.903-.192.606-.01 1.202.53 1.568.22.144.297.288.288.538-.02.48-.01.952-.01 1.433-.192.058-.24-.096-.327-.173-.75-.721-1.48-1.462-2.24-2.173-.231-.221-.327-.443-.308-.76.02-.413.01-.836 0-1.25-.01-.587-.038-1.106.539-1.558.576-.442.432-1.394-.135-1.875a1.384 1.384 0 0 0-1.942.173c-.481.577-.414 1.49.211 1.923.317.222.375.452.366.789-.02.596.067 1.202-.02 1.779-.154.99.462 1.49 1.077 2.067.635.596 1.193 1.279 1.78 1.923h-1.52c-.202 0-.23-.192-.327-.317-.337-.433-.779-.615-1.308-.539-.567.077-.932.433-1.125.933-.221.587.039 1.289.51 1.539.702.375 1.5.269 1.894-.318.192-.288.404-.365.712-.336.163.01.327.029.48 0 1.366-.231 2.395.25 3.28 1.327.807.99 1.769 1.846 2.663 2.76.115.115.211.22.211.403-.01 2.28-.01 4.548-.01 6.827 0 .039-.028.077-.086.231a3399.22 3399.22 0 0 1-1.971-2.029c-.115-.115-.106-.26-.106-.404 0-.769.01-1.538-.01-2.307 0-.231.078-.375.27-.51.529-.375.711-.98.51-1.625-.154-.49-.702-.865-1.27-.865a1.35 1.35 0 0 0-1.279.913c-.202.596-.019 1.192.52 1.567.24.164.307.337.298.597-.02.355 0 .701-.01 1.057 0 .087-.01.221-.067.26-.125.086-.193-.058-.27-.135-.865-.836-1.711-1.682-2.576-2.519-.318-.308-.549-.567-.462-1.096.115-.731-.558-1.366-1.288-1.375-.808 0-1.424.577-1.414 1.365 0 .789.644 1.433 1.433 1.327.461-.067.711.106.99.394.923.981 1.856 1.943 2.779 2.923h-1.625c-.135 0-.183-.105-.25-.201-.394-.597-.942-.789-1.663-.587-.5.135-.866.635-.895 1.212A1.369 1.369 0 0 0 12 35.85c.596.212 1.192.029 1.606-.538.144-.202.288-.26.52-.26.768.01 1.538 0 2.307 0 .144 0 .288-.02.404.096.798.789 1.596 1.577 2.384 2.375.087.087.212.144.222.298-.145.116-.308.058-.452.058H5.914c-.856 0-1.03-.183-1.03-1.058 0-2.884 0-5.769-.009-8.654 0-.192.039-.384-.048-.567.096-.144.067-.308.067-.471v-3.164c0-.154.048-.317-.077-.461-1.26-.087-2.51-.03-3.769-.03-.49 0-.827-.163-.99-.643 0-.385.22-.645.48-.904 5.645-5.654 11.347-11.346 17.04-17.058.586-.587 1.153-1.192 1.768-1.76.49-.452.808-.47 1.28-.01 2.48 2.462 4.96 4.914 7.413 7.405.692.702 1.317 1.47 2.115 2.067.048.048.096.087.135.135.058.048.115.077.115-.039-.01-.548-.01-1.086-.01-1.625z"/><path d="M11.625 28.927c.317-.01.635.288.616.606-.03.375-.28.605-.625.605-.327 0-.549-.24-.587-.586-.029-.317.279-.615.596-.625zm1.327 5.73c-.01.337-.221.568-.567.558-.327-.01-.558-.23-.587-.586-.029-.308.26-.596.568-.587.317.01.576.28.586.616zm16.693-14.451c.038-.318.22-.53.586-.539.375 0 .548.231.567.577.02.279-.384.692-.644.673-.192-.01-.51-.423-.51-.711zm-17.433-3.78c0 .26-.423.712-.635.626-.27-.116-.538-.318-.538-.664 0-.355.211-.577.577-.567.375.01.548.27.596.606zm15.48.068c-.028.337-.23.539-.567.577-.279.038-.615-.308-.605-.606.01-.336.211-.529.528-.577.298-.038.625.28.645.606zM16.886 13.6c.365.029.548.24.567.596.01.288-.404.73-.644.654-.298-.096-.51-.337-.5-.673 0-.366.23-.539.577-.577zm6.51 6.635c.038-.347.22-.558.576-.568.366-.01.549.221.577.558.03.327-.365.721-.682.644-.27-.067-.443-.317-.471-.634zm.317-6.106c.01.327-.337.769-.616.72-.317-.057-.51-.316-.519-.643-.01-.347.173-.587.539-.597.365-.01.538.222.596.52zm-6.308 16.154c-.038.327-.26.519-.596.538-.27.02-.606-.356-.577-.644.038-.327.221-.529.558-.539.317-.01.615.308.615.645zm-6.27-5.221c-.374.01-.701-.299-.672-.597.029-.317.211-.538.557-.548.337-.01.645.28.616.596-.03.327-.202.53-.5.549zm12.79.278c-.03.298-.193.51-.54.52-.326.01-.643-.28-.624-.597.02-.326.211-.528.538-.557.327-.02.625.279.625.634zm-8.405-4.682c-.365.01-.673-.289-.653-.606.019-.337.201-.548.548-.539.375 0 .596.231.615.606.01.337-.221.49-.51.539zm12.097 14.51c-.289-.02-.5-.183-.52-.53-.019-.326.28-.634.606-.615.337.02.539.202.539.548 0 .318-.27.587-.625.596zm3.202-5.558c-.01.375-.318.673-.625.634-.318-.038-.53-.211-.53-.567.01-.337.299-.615.626-.587.336.03.52.222.529.52z"/></g><path d="M0 0h40v40H0z"/></g></svg>