<svg xmlns="http://www.w3.org/2000/svg" width="40" height="40" viewBox="0 0 40 40">
  <g fill="none" fill-rule="evenodd">
    <g fill="#FFFFFF" fill-rule="nonzero" transform="translate(0 2.667)">
      <path d="M30.3945994,8.37510158 C30.5292165,7.89432652 30.846528,7.68278549 31.3561496,7.692401 C32.2792377,7.711632 33.2119413,7.711632 34.1350294,7.692401 C34.548496,7.68278549 34.8465765,7.82701801 35.0581175,8.17317606 C35.1638881,9.41357572 35.067733,10.6539754 35.0965795,11.8847595 C35.106195,12.1059161 35.0581175,12.3270726 35.144657,12.5482291 C35.0388865,13.3174692 35.0388865,14.0867093 35.144657,14.8559494 C35.5869701,15.404033 36.1062072,15.8751926 36.5965977,16.3751986 C37.6062254,17.3848262 38.6062375,18.3944539 39.6254806,19.394466 C39.9139457,19.682931 40.0966402,20.0002426 39.9331767,20.3752471 C39.7697131,20.7502517 39.4139396,20.8367912 39.0100885,20.8367912 C37.9043059,20.8175602 36.7985233,20.8560222 35.6927406,20.8175602 C35.2504276,20.8079447 35.1638881,20.9521772 35.1638881,21.3656438 C35.1735036,25.6156953 35.1735036,29.8561314 35.1735036,34.1061829 C35.1735036,35.048502 34.990809,35.2311966 34.0581054,35.2311966 C29.8080539,35.2311966 25.5676178,35.2311966 21.3175663,35.2311966 C21.1444872,35.2311966 20.9714082,35.2311966 20.8079447,35.2311966 C20.7214052,35.048502 20.8464067,34.990809 20.9233307,34.9235005 C21.6541088,34.1831069 22.4041179,33.4523288 23.134896,32.7119352 C23.307975,32.5388562 23.481054,32.4619322 23.7310571,32.4619322 C24.4329887,32.4715477 25.1445358,32.4811632 25.8464673,32.4619322 C26.1830099,32.4523167 26.3945509,32.5292407 26.5964764,32.8273212 C26.913788,33.2984808 27.5580266,33.4523288 28.1061101,33.2696343 C28.6541937,33.0773243 29.0291983,32.5677027 29.0291983,31.9907726 C29.0291983,31.4138426 28.6638092,30.8946055 28.1157256,30.711911 C27.6445661,30.558063 26.8272485,30.673449 26.5483989,31.2023015 C26.4041664,31.4715356 26.2118564,31.5292286 25.9233914,31.5196131 C25.0868427,31.5003821 24.2599096,31.5292286 23.423361,31.5099976 C23.1060495,31.5003821 22.884893,31.5869216 22.6637364,31.8176936 C22.1060374,32.3946237 21.5387228,32.9523228 20.9617927,33.5196373 C20.8560222,33.6254079 20.7694827,33.7792559 20.5387107,33.8177179 C20.5387107,32.8177057 20.5387107,31.8273091 20.5387107,30.846528 C20.5387107,30.673449 20.6829432,30.6061405 20.7790982,30.5003699 C21.6829553,29.5965128 22.6060434,28.6926557 23.500285,27.7887986 C23.6829796,27.5964886 23.8752896,27.5387956 24.1349081,27.5387956 C25.5772333,27.5484111 27.0195585,27.5484111 28.4618837,27.5387956 C28.7791952,27.5387956 28.9811208,27.6157196 29.1734308,27.8945691 C29.6349748,28.5388077 30.596525,28.6061162 31.173455,28.0772636 C31.7600006,27.5387956 31.7600006,26.6060919 31.1638395,26.0676239 C30.5869095,25.5483868 29.5868973,25.6253108 29.1445843,26.2695494 C28.9618897,26.5387834 28.7695797,26.5964764 28.4714992,26.5964764 C27.2695615,26.5868609 26.0772394,26.5964764 24.8079932,26.5964764 C25.0483807,26.2118564 25.3656923,25.9906999 25.6156953,25.7118503 C25.7791588,25.5387713 25.9522379,25.3753078 26.1253169,25.2022288 C26.6060919,24.7118382 27.298408,24.3272181 27.5099491,23.7022106 C27.7214901,23.0868185 27.6061041,22.3368094 27.5676421,21.6541088 C27.5387956,21.1252562 27.6830281,20.7310207 28.0964946,20.4040936 C28.3657287,20.1829371 28.6253472,19.9329341 28.8465037,19.6637 C29.2695858,19.1540785 29.7311298,18.8752289 30.4426769,18.9425375 C31.1061465,19.0002305 31.5484596,18.3175299 31.5099976,17.4713658 C31.4811511,16.8463582 30.9330675,16.3271211 30.3176754,16.3175056 C29.5195888,16.3175056 28.8368882,16.6155862 28.8945812,17.8463703 C28.9138122,18.1732974 28.8080417,18.3848384 28.5868852,18.5867639 C28.2695737,18.8656134 27.9714931,19.1733095 27.5868731,19.5386985 C27.5868731,18.7117654 27.5868731,17.9906028 27.5868731,17.2598247 C27.5868731,16.8463582 27.5964886,16.4232761 27.5868731,16.0098096 C27.5772576,15.519419 27.5484111,15.077106 28.0580326,14.7309479 C28.5195767,14.4136364 28.5291922,13.7117048 28.2599582,13.1924677 C28.0003396,12.7020771 27.5387956,12.5482291 26.95225,12.5482291 C26.2599339,12.5578446 25.8560828,12.9520802 25.7503123,13.4905482 C25.6445418,14.0482473 25.6926193,14.7021014 26.3464734,15.0290284 C26.4907059,15.1059525 26.5483989,15.2213385 26.5483989,15.3751865 C26.5387834,16.6925102 26.5387834,18.0002183 26.5291679,19.317542 C26.5291679,19.3463885 26.5003214,19.3656195 26.4618594,19.4233125 C26.0291619,19.08677 25.7214658,18.6444569 25.3464613,18.2598369 C25.2406908,18.1444508 25.3176148,18.0194493 25.3368458,17.8944478 C25.4522318,17.2405937 25.2214598,16.7213567 24.6829917,16.4328916 C24.1349081,16.1348111 23.4714385,16.2117351 23.0483565,16.6252017 C22.6348899,17.0386682 22.5195039,17.6829068 22.7791224,18.2117594 C23.038741,18.7502274 23.6252866,19.0579235 24.2599096,18.932922 C24.5195282,18.8752289 24.6733762,18.952153 24.8464552,19.125232 C25.3464613,19.644469 25.8560828,20.1540906 26.3753199,20.6540967 C26.5483989,20.8271757 26.6253229,21.0002547 26.6253229,21.2406422 C26.6060919,21.9329583 26.7695555,22.6733519 26.5580144,23.288744 C26.3560889,23.8945206 25.6541573,24.2599096 25.2022288,24.7503002 C24.8272242,25.1637668 24.4522197,25.5772333 24.0868306,25.9906999 C24.0291376,25.9618534 23.9810601,25.9233914 23.9233671,25.8945449 C23.9233671,25.2791528 23.9233671,24.6637607 23.9233671,24.0483686 C23.9233671,23.8175966 24.1156771,23.7791346 24.2502941,23.6733641 C24.8945327,23.1829735 24.9906877,22.2695009 24.4522197,21.6829553 C24.0387531,21.2310267 23.5291315,21.1541027 22.981048,21.3175663 C22.4810419,21.4714143 22.1733459,21.8464188 22.0964219,22.3560404 C22.0098823,22.904124 22.1637304,23.3945145 22.6541209,23.6925951 C22.8945085,23.8464431 22.961817,24.0099066 22.961817,24.2791406 C22.9522015,25.0483807 22.9522015,25.8176208 22.961817,26.5868609 C22.9714325,26.8657105 22.8945085,27.067636 22.6925829,27.259946 C22.0194978,27.9138001 21.3656438,28.5965007 20.7021742,29.2695858 C20.5194797,29.0772758 20.5867882,28.9041967 20.5867882,28.7599642 C20.5867882,24.2695251 20.5867882,19.7887016 20.5771727,15.2982625 C20.5771727,14.9617199 20.6733277,14.7309479 20.9137152,14.5001759 C21.4041058,14.0386318 21.8752653,13.5578568 22.3464249,13.0770817 C22.4906574,12.9232337 22.6445054,12.8366942 22.8560465,12.8847717 C23.7214416,13.0578507 24.6060677,12.4039966 24.6445297,11.567448 C24.6733762,10.9328249 23.9618291,10.2308933 23.269513,10.1924313 C22.5098884,10.1539693 21.9137273,10.7020529 21.9329583,11.471293 C21.9425738,11.9616835 21.8175723,12.3366881 21.4233368,12.6636151 C21.0291012,12.9905422 20.6829432,13.3655467 20.3271696,13.7405513 C20.1540906,13.9232458 20.0387046,13.9809388 19.8367791,13.7693978 C19.375235,13.2790072 18.8944599,12.8078477 18.4040694,12.3463036 C18.2502214,12.1924556 18.2213749,12.0482231 18.2598369,11.836682 C18.3848384,11.0674419 18.0579113,10.5193584 17.3848262,10.2789708 C16.7598187,10.0578143 16.0867336,10.3078173 15.7598065,10.8655164 C15.4136485,11.452062 15.53865,12.2597641 16.1059646,12.6924616 C16.3944296,12.9136182 16.7502032,13.1059282 17.1636697,12.9328492 C17.3655952,12.8463097 17.5579053,12.8943872 17.7213688,13.0674662 C18.2694524,13.6251653 18.8271514,14.1828643 19.3848505,14.7309479 C19.509852,14.8559494 19.5579295,14.9809509 19.5579295,15.15403 C19.5579295,18.3559919 19.5579295,21.5675693 19.548314,24.7695312 C19.548314,24.8272242 19.529083,24.8849172 19.5194675,24.9522257 C19.3271575,24.9522257 19.259849,24.8079932 19.163694,24.7118382 C18.2213749,23.7791346 17.2790557,22.8368155 16.3271211,21.9041118 C16.1251956,21.7118018 16.0290406,21.5194918 16.0386561,21.2310267 C16.0578871,20.5098642 16.0482716,19.7887016 16.0386561,19.067539 C16.0386561,18.8175359 16.1059646,18.6636879 16.3175056,18.5194554 C16.8655892,18.1444508 17.0386682,17.5579053 16.8367427,16.9617442 C16.6444327,16.4040451 16.1636576,16.0675026 15.5482655,16.0675026 C14.9521044,16.0675026 14.4424829,16.4328916 14.2694038,16.9713597 C14.0770938,17.5771363 14.2597883,18.1732974 14.7982564,18.5386864 C15.0194129,18.6829189 15.096337,18.8271514 15.0867215,19.0771545 C15.0674905,19.5579295 15.077106,20.0290891 15.077106,20.5098642 C14.8847959,20.5675572 14.8367184,20.4137091 14.7501789,20.3367851 C14.0001698,19.6156225 13.2693917,18.8752289 12.5097671,18.1636819 C12.2789951,17.9425253 12.1828401,17.7213688 12.2020711,17.4040573 C12.2213021,16.9905907 12.2116866,16.5675086 12.2020711,16.1540421 C12.1924556,15.5674965 12.1636091,15.0482594 12.7405391,14.5963309 C13.3174692,14.1540178 13.1732367,13.2020832 12.6059221,12.7213081 C12.0193766,12.2309176 11.1539814,12.3174571 10.6635909,12.8943872 C10.1828158,13.4713172 10.2501243,14.3847899 10.8751319,14.8174874 C11.1924434,15.0386439 11.2501365,15.269416 11.240521,15.6059585 C11.22129,16.2021196 11.3078295,16.8078962 11.22129,17.3848262 C11.0674419,18.3752229 11.682834,18.8752289 12.2982261,19.452159 C12.9328492,20.0483201 13.4905482,20.7310207 14.0770938,21.3752593 C13.6251653,21.3752593 13.0963127,21.3752593 12.5578446,21.3752593 C12.3559191,21.3752593 12.3270726,21.1829492 12.2309176,21.0579477 C11.894375,20.6252502 11.452062,20.4425556 10.9232094,20.5194797 C10.3558948,20.5964037 9.99050579,20.9521772 9.79819577,21.4521833 C9.57703924,22.0387289 9.83665777,22.7406604 10.3078173,22.9906635 C11.0097489,23.365668 11.8078355,23.2598975 12.2020711,22.6733519 C12.3943811,22.3848869 12.6059221,22.3079629 12.9136182,22.3368094 C13.0770817,22.3464249 13.2405452,22.3656559 13.3943932,22.3368094 C14.7597944,22.1060374 15.788653,22.5868124 16.6732792,23.6637486 C17.4809813,24.6541452 18.4425314,25.5099248 19.336773,26.4233974 C19.452159,26.5387834 19.548314,26.6445539 19.548314,26.8272485 C19.5386985,29.1061223 19.5386985,31.3753806 19.5386985,33.6542544 C19.5386985,33.6927164 19.509852,33.7311784 19.452159,33.8850264 C18.7694584,33.1830948 18.1252198,32.5196252 17.4809813,31.8561556 C17.3655952,31.7407696 17.3752107,31.5965371 17.3752107,31.4523046 C17.3752107,30.6830645 17.3848262,29.9138244 17.3655952,29.1445843 C17.3655952,28.9138122 17.4425193,28.7695797 17.6348293,28.6349627 C18.1636819,28.2599582 18.3463764,27.6541816 18.1444508,27.009943 C17.9906028,26.5195524 17.4425193,26.1445479 16.8752047,26.1445479 C16.2982746,26.1445479 15.769422,26.5195524 15.596343,27.0580205 C15.3944175,27.6541816 15.577112,28.2503427 16.1155801,28.6253472 C16.3559676,28.7888107 16.4232761,28.9618897 16.4136606,29.2215083 C16.3944296,29.5772818 16.4136606,29.9234399 16.4040451,30.2792134 C16.4040451,30.3657529 16.3944296,30.5003699 16.3367366,30.538832 C16.2117351,30.6253715 16.1444266,30.4811389 16.0675026,30.4042149 C15.2021075,29.5676663 14.3559434,28.7215022 13.4905482,27.8849536 C13.1732367,27.5772576 12.9424647,27.317639 13.0290042,26.7887865 C13.1443902,26.0580084 12.4713051,25.4233853 11.740527,25.4137698 C10.9328249,25.4137698 10.3174328,25.9906999 10.3270483,26.779171 C10.3270483,27.5676421 10.9712869,28.2118807 11.759758,28.1061101 C12.2213021,28.0388016 12.4713051,28.2118807 12.7501547,28.5003457 C13.6732428,29.4811268 14.6059464,30.4426769 15.5290345,31.4234581 C15.0290284,31.4234581 14.4713294,31.4234581 13.9040148,31.4234581 C13.7693978,31.4234581 13.7213203,31.3176876 13.6540118,31.2215325 C13.2597762,30.6253715 12.7116926,30.4330614 11.9905301,30.634987 C11.490524,30.769604 11.1251349,31.26961 11.0962884,31.8465401 C11.0674419,32.4330857 11.4424465,32.9811693 12.0001456,33.1830948 C12.5963066,33.3946358 13.1924677,33.2119413 13.6059343,32.6446267 C13.7501668,32.4427012 13.8943993,32.3850082 14.1251713,32.3850082 C14.8944114,32.3946237 15.6636515,32.3850082 16.4328916,32.3850082 C16.5771241,32.3850082 16.7213567,32.3657772 16.8367427,32.4811632 C17.6348293,33.2696343 18.4329159,34.0581054 19.221387,34.856192 C19.3079265,34.9427315 19.432928,35.0004245 19.4425435,35.1542725 C19.298311,35.2696586 19.1348475,35.2119656 18.990615,35.2119656 C14.6347929,35.2119656 10.2693553,35.2119656 5.91353327,35.2119656 C5.05775365,35.2119656 4.88467463,35.029271 4.88467463,34.1542604 C4.88467463,31.26961 4.88467463,28.3849597 4.87505913,25.5003093 C4.87505913,25.3079993 4.91352114,25.1156893 4.82698162,24.9329947 C4.92313664,24.7887622 4.89429013,24.6252987 4.89429013,24.4618352 C4.89429013,23.40413 4.89429013,22.3560404 4.89429013,21.2983353 C4.89429013,21.1444872 4.94236764,20.9810237 4.81736612,20.8367912 C3.55773546,20.7502517 2.3077203,20.8079447 1.04808964,20.8079447 C0.557699072,20.8079447 0.221156529,20.6444812 0.0576930075,20.1637061 C0.0576930075,19.7790861 0.278849536,19.5194675 0.53846807,19.259849 C6.1827673,13.6059343 11.8847595,7.91355752 17.5771363,2.20194978 C18.1636819,1.61540421 18.7309964,1.00962763 19.3463885,0.442313057 C19.8367791,-0.00961550124 20.1540906,-0.0288465037 20.6252502,0.432697556 C23.1060495,2.89426587 25.5868488,5.34621869 28.0388016,7.83663351 C28.7311177,8.53856511 29.3561253,9.3078052 30.1542119,9.90396628 C30.2022894,9.95204379 30.2503669,9.99050579 30.2888289,10.0385833 C30.3465219,10.0866608 30.4042149,10.1155073 30.4042149,10.0001213 C30.3945994,9.45203772 30.3945994,8.91356965 30.3945994,8.37510158 Z"/>
      <path d="M11.625141 26.2599339C11.9424525 26.2503184 12.2597641 26.5483989 12.2405331 26.8657105 12.2116866 27.240715 11.9616835 27.4714871 11.6155255 27.4714871 11.2885985 27.4714871 11.0674419 27.2310995 11.0289799 26.8849415 11.0001334 26.5676299 11.3078295 26.2695494 11.625141 26.2599339zM12.9520802 31.9907726C12.9424647 32.3273152 12.7309236 32.5580872 12.3847656 32.5484717 12.0578386 32.5388562 11.8270665 32.3176997 11.79822 31.9619261 11.7693735 31.6542301 12.0578386 31.3657651 12.3655346 31.3753806 12.6828461 31.3849961 12.9424647 31.6542301 12.9520802 31.9907726zM29.6445903 17.5386743C29.6830523 17.2213627 29.8657469 17.0098217 30.2311359 17.0002062 30.6061405 17.0002062 30.7792195 17.2309782 30.7984505 17.5771363 30.8176815 17.8559858 30.4138304 18.2694524 30.1542119 18.2502214 29.9619019 18.2406059 29.6445903 17.8271393 29.6445903 17.5386743zM12.2116866 13.7597823C12.2116866 14.0194008 11.7886045 14.4713294 11.5770635 14.3847899 11.3078295 14.2694038 11.0385954 14.0674783 11.0385954 13.7213203 11.0385954 13.3655467 11.2501365 13.1443902 11.6155255 13.1540057 11.9905301 13.1636212 12.1636091 13.4232397 12.2116866 13.7597823zM27.6926436 13.8270908C27.6637971 14.1636333 27.4618716 14.3655589 27.125329 14.4040209 26.8464795 14.4424829 26.5099369 14.0963248 26.5195524 13.7982443 26.5291679 13.4617017 26.7310935 13.2693917 27.048405 13.2213142 27.3464855 13.1828522 27.6734126 13.5001637 27.6926436 13.8270908zM16.8848202 10.9328249C17.2502092 10.9616714 17.4329038 11.1732124 17.4521348 11.528986 17.4617503 11.817451 17.0482837 12.2597641 16.8078962 12.1828401 16.5098156 12.0866851 16.2982746 11.8462975 16.3078901 11.509755 16.3078901 11.1443659 16.5386621 10.9712869 16.8848202 10.9328249zM23.3945145 17.5675208C23.4329765 17.2213627 23.6156711 17.0098217 23.9714446 17.0002062 24.3368336 16.9905907 24.5195282 17.2213627 24.5483747 17.5579053 24.5772212 17.8848323 24.1829856 18.2790679 23.8656741 18.2021439 23.5964401 18.1348353 23.423361 17.8848323 23.3945145 17.5675208zM23.7118261 11.4616775C23.7214416 11.7886045 23.3752835 12.2309176 23.096434 12.1828401 22.7791224 12.1251471 22.5868124 11.8655285 22.5771969 11.5386015 22.5675814 11.1924434 22.7502759 10.9520559 23.115665 10.9424404 23.481054 10.9328249 23.6541331 11.1635969 23.7118261 11.4616775zM17.4040573 27.6157196C17.3655952 27.9426466 17.1444387 28.1349566 16.8078962 28.1541876 16.5386621 28.1734186 16.2021196 27.7984141 16.2309661 27.5099491 16.2694281 27.183022 16.4521226 26.9810965 16.7886652 26.971481 17.1059767 26.9618655 17.4040573 27.279177 17.4040573 27.6157196zM11.1347504 22.3945024C10.7597459 22.4041179 10.4328189 22.0964219 10.4616654 21.7983413 10.4905119 21.4810298 10.6732064 21.2598733 11.0193644 21.2502578 11.355907 21.2406422 11.663603 21.5291073 11.6347565 21.8464188 11.60591 22.1733459 11.432831 22.3752714 11.1347504 22.3945024zM23.9233671 22.6733519C23.8945206 22.9714325 23.7310571 23.1829735 23.384899 23.192589 23.057972 23.2022045 22.7406604 22.9137395 22.7598914 22.5964279 22.7791224 22.2695009 22.9714325 22.0675754 23.2983595 22.0387289 23.6252866 22.0194978 23.9233671 22.3175784 23.9233671 22.6733519zM15.519419 17.9906028C15.15403 18.0002183 14.8463339 17.7021378 14.8655649 17.3848262 14.8847959 17.0482837 15.0674905 16.8367427 15.4136485 16.8463582 15.788653 16.8463582 16.0098096 17.0771302 16.0290406 17.4521348 16.0386561 17.7886773 15.807884 17.9425253 15.519419 17.9906028zM27.6157196 32.5003942C27.3272545 32.4811632 27.1157135 32.3176997 27.0964825 31.9715416 27.0772515 31.6446146 27.375332 31.3369186 27.7022591 31.3561496 28.0388016 31.3753806 28.2407272 31.5580751 28.2407272 31.9042331 28.2407272 32.2215447 27.9714931 32.4907787 27.6157196 32.5003942zM30.8176815 26.9426345C30.808066 27.317639 30.5003699 27.6157196 30.1926739 27.5772576 29.8753624 27.5387956 29.6638213 27.3657165 29.6638213 27.009943 29.6734368 26.6734005 29.9619019 26.3945509 30.2888289 26.4233974 30.6253715 26.4522439 30.808066 26.6445539 30.8176815 26.9426345z"/>
    </g>
    <rect width="40" height="40"/>
  </g>
</svg>
