<?xml version="1.0" encoding="utf-8"?>
<!-- Generator: Adobe Illustrator 22.0.1, SVG Export Plug-In . SVG Version: 6.00 Build 0)  -->
<svg version="1.1" id="Layer_1" xmlns="http://www.w3.org/2000/svg" xmlns:xlink="http://www.w3.org/1999/xlink" x="0px" y="0px"
	 viewBox="0 0 72 72" enable-background="new 0 0 72 72" xml:space="preserve">
<path fill="#FFFFFF" d="M72,36c0,19.9-16.1,36-36,36S0,55.9,0,36S16.1,0,36,0S72,16.1,72,36z"/>
<path fill="#216194" d="M51.6,14.7c-2.3-0.7-4.7-1.3-7.2-1.7c0.2,1.2,0.4,2.4,0.6,3.7C48,15.8,49.6,15.9,51.6,14.7"/>
<path fill="#017F9F" d="M58.3,27.6c0.3,0,0.6,0.1,0.9,0.2c-0.1-0.6-0.2-1.3-0.4-1.9c0,0.2-0.1,0.4-0.2,0.5
	C58.5,26.7,58.4,27.2,58.3,27.6"/>
<path fill="#76B629" d="M33.3,62.5c-0.1-0.4-0.2-0.8-0.2-1.2c0,0,0-0.2,0-0.2c-1.2,0-2.4-0.2-3.6-0.3c1.7,6.9,4,11.2,6.5,11.2
	c0.4,0,0.6,0,1-0.2c-0.4-1-0.9-2.2-1.3-3.1C34.3,65.6,33.5,63.6,33.3,62.5"/>
<path fill="#A53589" d="M17,14.4c3.4-1.3,7.1-2.3,11-2.9c1.2-5.1,2.8-9.1,4.8-11.2h-0.1C26.3,1.7,20.7,6.9,17,14.4"/>
<path fill="#024F9D" d="M42.6,11.4c-1.7-6.9-4-11.2-6.6-11.2c-2.6,0-4.9,4.3-6.5,11.2C33.9,10.8,38.2,10.8,42.6,11.4"/>
<path fill="#50568C" d="M35.8,21.3c1.7-1.9,2.5-1.7,4.9-2.9c0.8-0.4,1.9-0.9,3-1.4c-0.2-1.5-0.5-3-0.8-4.3c-4.6-0.6-9.2-0.6-13.8,0
	c-0.4,1.7-0.6,3.4-0.9,5.2C31,18.2,33.6,19,35.8,21.3"/>
<path fill="#C6D200" d="M27.9,51.9c0.4,2.7,0.8,5.3,1.2,7.6c1.2,0.2,2.4,0.2,3.6,0.4c-0.2-0.6-0.4-1.1-0.8-1.9
	C31.4,57.1,29.6,54.3,27.9,51.9"/>
<path fill="#0369B2" d="M39.3,0.3c1.7,1.8,3.2,5.2,4.4,10.1c0.1,0.4,0.2,0.8,0.2,1.2c3.1,0.4,6.1,1.1,8.8,2.1c0.4-0.4,0.7-0.9,1-1.4
	C50.2,5.9,45.1,1.5,39.3,0.3"/>
<path fill="#017F9F" d="M60.6,28.1c5.1,1.2,9.2,2.8,11.3,4.8v-0.1c-1.1-5.3-4.8-9.9-10.3-13.5c-0.6,1.2-1.1,2.5-1.8,4.1
	C60.1,24.9,60.4,26.5,60.6,28.1"/>
<path fill="#007D75" d="M72,36.1c0-2.5-4.3-4.9-11.2-6.5c0.5,4.4,0.5,8.7,0,13.1C67.7,41,72,38.7,72,36.1"/>
<path fill="#008D6D" d="M52.1,40.5L49.9,43c-0.2,0.4-0.4,0.9-0.6,1.4c3.7-0.4,7.1-0.9,10.1-1.5c0.6-4.6,0.6-9.2,0-13.7
	c-0.4-0.1-1-0.2-1.5-0.3c0,0.1,0,0.2,0,0.3C57.2,32.1,56.5,35.3,52.1,40.5"/>
<path fill="#008051" d="M60.6,44.1c-0.6,3.9-1.5,7.6-2.9,11c7.5-3.7,12.8-9.3,14.1-15.7v0c-1.8,1.7-5.2,3.3-10.1,4.5
	C61.4,43.9,61,44,60.6,44.1"/>
<path fill="#46942B" d="M49.6,65.8c2.1-2.2,4-4.9,5.4-8c-1.4,0.6-2.9,1-4.4,1.5c0,1.4-0.2,2.5-0.5,3.6
	C49.9,63.7,49.7,64.6,49.6,65.8"/>
<path fill="#D5146E" d="M4.4,22.4c2.9-3,6.7-5.5,10.7-7.2c2.5-5.5,6.2-10.6,11-13.6C15.3,4.7,6.5,12.7,2.4,23.1
	C2.8,22.9,3.2,22.8,4.4,22.4"/>
<path fill="#15A338" d="M45.8,53.5l0,0.1c2.1,0.8,4.4,2.3,4.7,3.9c0,0.1,0,0.2,0,0.3c1.9-0.6,3.7-1.2,5.4-1.9
	c1.5-3.5,2.6-7.4,3.3-11.5c-3.2,0.6-6.7,1.2-10.5,1.5l-0.6,1.5C47.1,50,46.1,52.7,45.8,53.5"/>
<path fill="#0080C7" d="M62.1,18c3.4,2.2,6.5,5,8.5,8.2c-1.3-4.6-3.5-8.7-6.3-12.4c-0.2,0.5-0.6,1.1-0.9,1.7
	C63.1,16.2,62.6,17.1,62.1,18"/>
<path fill="#0089D0" d="M46,1.5c3.4,2.2,6.3,5.4,8.6,9.1c0.4-1.3,0.8-2.8,1-4.8C52.6,4,49.4,2.5,46,1.5"/>
<path fill="#E9BB00" d="M15.1,57C9.5,54.5,4.5,50.8,1.4,46c3.4,11.9,12.8,21.2,24.7,24.6C21.3,67.6,17.6,62.5,15.1,57"/>
<path fill="#007632" d="M57,57c-1.9,4.1-4.4,8-7.5,10.9c0,0.5,0,1-0.1,1.6C59.6,65.4,67.6,56.7,70.7,46C67.6,50.8,62.6,54.5,57,57"
	/>
<path fill="#C51553" d="M14.2,17.1c-2.6,1.3-5,2.8-6.9,4.6c2.1-0.6,4.2-1.2,6.1-1.9C13.6,18.8,13.9,18,14.2,17.1"/>
<path fill="#593872" d="M18.8,17.6c4.5,0.2,8,0.3,8,0.3c0.2-1.7,0.5-3.4,0.9-4.9c-4.2,0.6-8.1,1.8-11.5,3.3
	c-0.4,0.9-0.7,1.8-1.1,2.7C17.1,17.9,16.7,17.6,18.8,17.6"/>
<path fill="#F19000" d="M20.8,42.5c-1.9-1.1-3.4-2.4-4.9-3.7c-1.1-0.9-2.3-2-3.6-2.8c0,2.3,0.2,4.6,0.4,6.9
	c3.1,0.6,6.6,1.2,10.5,1.5c-0.2-0.3-0.4-0.6-0.8-0.9C21.8,43.2,21.3,42.8,20.8,42.5"/>
<path fill="#F9B800" d="M14.2,55.1c-1.3-3.4-2.3-7.1-2.9-11c-5-1.1-8.8-2.7-11-4.6l-0.2,0.2C1.7,45.9,6.9,51.4,14.2,55.1"/>
<path fill="#FDDB00" d="M24.1,46c-4-0.4-7.8-0.9-11.3-1.6c0.6,4.2,1.8,8.1,3.3,11.5c3.5,1.5,7.4,2.6,11.5,3.3
	c-0.6-3-1.1-6.3-1.4-9.9C25.6,48.5,25,47.3,24.1,46"/>
<path fill="#E43311" d="M5.2,35.7L5.2,35.7l-3.7,2.9c1.8,1.5,5.2,2.9,9.7,4c-0.3-2.5-0.4-4.9-0.4-7.4C9.9,34.8,9,34.6,8,34.6
	C6.9,34.6,6,34.9,5.2,35.7"/>
<path fill="#B7C200" d="M28,60.6c-3.9-0.6-7.6-1.5-11-2.9c3.8,7.5,9.3,12.7,15.7,14.1h0c-1.7-1.8-3.3-5.2-4.5-10.1
	C28.2,61.4,28.1,61,28,60.6"/>
<path fill="#E64E10" d="M8,33.1c3.4,0,6.3,2.5,8.8,4.6c1.5,1.2,3,2.5,4.7,3.6c0.7,0.4,1.3,0.9,1.8,1.4c0.8,0.8,0.9,0.9,1.3,1.6
	c0.4,0.6,0.7,1.1,0.9,1.1c0.4,0,1.3-0.4,1.4-1.1c0.3-1.4-1-2.7-2.1-3.6c-1.4-1.4-3.6-3.8-4.2-5c-4.8-9,5.9-16.4,12.3-11.2
	c0.6-0.6,1.3-1.4,1.8-1.9c-3.4-3.7-8.4-2.9-13.4-3.2c-0.7,0-2.7-0.2-3.3,0c-0.6,0.2-1.2,0.5-1.6,0.8c-4.6,2.5-10.9,3.1-14.8,5.2
	C0.6,28.6,0,32.3,0,36.1c0,0.6,0,1.2,0,1.9l4.2-3.3C5.4,33.6,6.6,33.1,8,33.1"/>
<path fill="#079DE1" d="M44.3,18.4c-1.9,0.7-3.5,1.7-4.6,2.1c-2.1,0.8-2.4,1.4-4,3.1c-0.4,0.5-1.1,1.3-1.7,1.9c0,0,0,0.2,0.2,0.5
	c0.6,0.8,1.4,0.5,2.1-0.2c7.6-7.2,13.7-1,14.5,2.8c0.4,1.7,0.5,4.4-1.6,8.8c1,0.4,1.7,1,1.9,2.1c5.6-6.6,4.8-9.7,6.3-13.7
	c2.7-7.8,4.6-10.4,6.1-13.2c-1.9-2.1-4-4.1-6.3-5.8C55.6,18,48.8,16.8,44.3,18.4"/>
<path fill="#93BF1F" d="M48.1,65.8c0.2-3.3,1.5-4.8,0.9-8c-0.2-0.8-2.1-2.5-4.4-3l-0.7-0.1l0.5-1.7c0.3-1.1,1.9-4.9,3.2-8.2
	c0.2-0.4,1.9-4.3,1.8-5c-0.1-0.6-0.8-1-1.3-1c-0.5,0-1,0.9-1.5,1.8c-0.7,1.2-1.2,2.3-1.8,3.4c-0.6,1.2-1.4,2.5-2.1,3.9
	c-0.8,1.4-1.7,3-2.7,4.8c-0.4,0.9-1.2,1.3-2.1,1.3c-0.8,0-1.7-0.2-2-0.4c-0.2-0.2-6.3-7-7.8-8.5c-0.4,0.7-1.2,1.2-2,1.4
	c2.1,3.2,6.3,9.2,7.1,10.5c1.2,1.9,1.2,3.1,1.6,5.2c0.2,1.5,2.7,6.5,3.9,9.7c3.2-0.2,6.3-0.9,9.2-1.9C47.9,68.6,48,67.2,48.1,65.8"
	/>
</svg>
