<?xml version="1.0" standalone="no"?>
<!DOCTYPE svg PUBLIC "-//W3C//DTD SVG 20010904//EN"
 "http://www.w3.org/TR/2001/REC-SVG-20010904/DTD/svg10.dtd">
<svg version="1.0" xmlns="http://www.w3.org/2000/svg"
 width="1080.000000pt" height="1080.000000pt" viewBox="0 0 1080.000000 1080.000000"
 preserveAspectRatio="xMidYMid meet">
<metadata>
Created by potrace 1.15, written by Peter Selinger 2001-2017
</metadata>
<g transform="translate(0.000000,1080.000000) scale(0.100000,-0.100000)"
fill="#000000" stroke="none">
<path d="M0 5400 l0 -5400 5400 0 5400 0 0 5400 0 5400 -5400 0 -5400 0 0
-5400z m3360 1902 c0 -2482 -1 -2618 -17 -2628 -10 -6 -40 -23 -68 -39 -99
-55 -215 -128 -215 -136 0 -8 60 -122 87 -167 14 -23 15 -23 32 -5 9 10 28 34
41 53 14 19 32 42 40 50 8 9 34 38 58 64 l42 49 -2 -419 -3 -418 -245 -122
c-155 -77 -246 -117 -248 -109 -3 11 34 216 139 780 22 116 40 219 42 230 2
19 -6 20 -113 26 -63 4 -179 7 -258 8 l-143 1 6 -57 c12 -123 25 -300 25 -343
0 -44 -2 -47 -37 -59 -21 -7 -51 -19 -68 -26 -16 -8 -84 -34 -150 -60 -66 -26
-187 -74 -270 -107 -82 -33 -162 -64 -177 -68 -28 -9 -23 -13 -105 83 l-33 38
0 655 c0 614 1 655 18 662 9 4 59 35 110 69 51 35 104 66 118 69 22 6 24 4 24
-35 0 -22 -5 -84 -10 -138 -6 -54 -21 -219 -35 -368 -14 -148 -41 -424 -60
-611 -19 -188 -35 -357 -35 -375 l0 -34 58 61 c31 33 131 139 222 235 91 96
192 203 226 239 111 117 159 173 159 184 0 11 -64 125 -215 381 -42 72 -127
219 -190 328 -62 109 -116 194 -119 190 -3 -4 -66 -38 -138 -75 l-133 -67 0
2315 0 2314 820 0 820 0 0 -2618z m5650 1871 c-19 -21 -42 -44 -52 -51 -28
-20 -19 -50 92 -314 30 -69 32 -78 17 -92 -11 -12 -17 -13 -20 -3 -4 9 -7 9
-14 -1 -6 -7 -8 11 -5 48 3 40 1 60 -7 60 -6 0 -11 11 -11 25 0 14 -4 25 -10
25 -5 0 -10 11 -10 24 0 14 -4 27 -9 30 -5 4 -12 24 -16 46 -4 22 -12 43 -17
46 -17 10 -40 -28 -35 -56 3 -14 1 -34 -3 -45 -8 -18 -9 -18 -9 -2 -1 13 -7
17 -23 15 -17 -2 -24 3 -26 20 -2 12 -7 22 -12 22 -5 0 -17 8 -26 18 -17 16
-18 16 -11 -2 8 -19 92 -155 217 -349 l70 -109 0 -262 0 -263 -152 -100 c-84
-56 -175 -111 -203 -123 -27 -12 -95 -44 -150 -72 l-100 -50 -318 324 c-175
178 -408 414 -518 524 -124 126 -199 209 -199 221 0 17 15 23 98 43 347 80
441 102 472 110 19 5 87 20 150 35 63 14 142 32 175 40 33 8 112 26 175 40
208 48 234 55 290 76 30 11 64 23 75 26 31 10 63 33 108 79 51 52 63 49 17 -3z
m-780 -2570 c0 -13 590 -1501 608 -1533 5 -8 42 -32 82 -53 40 -20 82 -45 94
-53 20 -15 19 -16 -19 -8 -22 4 -55 7 -72 7 -23 -1 -33 3 -33 13 0 8 -1 14 -2
14 -2 0 -34 -11 -71 -24 -77 -27 -128 -57 -109 -64 6 -2 12 -11 12 -20 1 -15
2 -15 14 1 10 13 15 14 18 5 3 -7 15 -13 29 -13 13 0 23 -5 22 -12 -2 -9 6
-11 27 -6 21 4 30 2 30 -7 0 -10 -16 -11 -67 -6 -38 4 -77 9 -88 11 -11 2 -31
4 -45 4 -20 1 -34 17 -75 86 -27 47 -59 97 -71 113 l-22 27 -31 -65 c-17 -36
-53 -99 -79 -141 -26 -41 -94 -154 -151 -250 -57 -96 -117 -194 -132 -219 -37
-59 -80 -142 -77 -146 2 -1 29 26 60 61 31 35 59 61 62 58 3 -4 6 -1 6 6 0 7
11 22 25 33 14 11 25 26 25 33 0 8 9 16 19 20 20 6 91 81 91 96 0 5 6 9 13 9
7 0 19 10 27 21 19 27 73 79 82 79 4 0 9 -4 13 -10 5 -9 -44 -61 -381 -405
l-146 -150 6 70 c13 141 60 877 57 898 -1 5 -29 -15 -63 -43 -35 -29 -85 -71
-112 -94 -28 -22 -68 -57 -90 -77 -79 -71 -271 -229 -278 -229 -4 0 -3 11 2
24 5 13 55 204 110 423 56 219 137 535 181 702 43 168 77 307 75 309 -2 2 -28
-29 -58 -70 -30 -40 -159 -216 -288 -392 -129 -175 -282 -382 -339 -460 -127
-173 -117 -163 -138 -144 -10 9 -139 91 -288 183 -391 242 -395 244 -395 268
0 17 -78 433 -95 505 -3 13 -10 20 -14 17 -5 -3 -44 -65 -87 -137 -42 -73
-103 -176 -134 -228 -79 -131 -229 -386 -335 -565 -166 -283 -197 -336 -201
-333 -1 2 -24 78 -49 168 -26 91 -49 169 -52 173 -3 5 -10 4 -16 -2 -7 -7 -6
-15 2 -25 10 -12 9 -20 -4 -38 l-17 -23 7 29 c5 26 4 28 -9 17 -9 -8 -14 -22
-11 -35 4 -16 -8 -34 -45 -71 -27 -27 -50 -53 -50 -57 0 -7 -216 101 -440 220
-119 63 -178 92 -190 92 -5 0 -10 4 -10 9 0 5 -12 12 -27 16 -15 3 -30 10 -33
13 -5 8 -113 63 -114 59 -1 -1 2 -29 5 -62 3 -33 6 -46 7 -28 2 39 30 51 69
30 45 -24 100 -47 113 -47 24 0 -38 -82 -149 -198 l-55 -57 -9 -167 -10 -168
-468 0 c-277 0 -469 4 -469 9 0 31 201 201 237 201 5 0 29 14 51 30 23 17 44
30 47 30 11 -1 65 31 72 42 9 15 54 46 96 68 16 8 39 24 53 36 13 13 39 28 59
35 19 7 35 17 35 21 0 4 7 8 15 8 8 0 15 5 15 12 0 6 3 9 6 5 3 -3 11 -1 18 4
29 25 136 89 159 94 22 6 88 85 71 85 -4 0 -46 -25 -94 -55 -48 -30 -92 -55
-99 -55 -6 0 -11 -4 -11 -10 0 -5 -5 -10 -10 -10 -6 0 -39 -18 -74 -40 -35
-22 -68 -40 -75 -40 -6 0 -11 -3 -11 -8 0 -4 -17 -16 -37 -27 -21 -11 -73 -41
-115 -67 -43 -27 -82 -48 -88 -48 -5 0 -10 -4 -10 -10 0 -5 -11 -12 -25 -16
-14 -3 -25 -10 -25 -15 0 -5 -4 -9 -10 -9 -5 0 -39 -18 -76 -41 -36 -22 -68
-39 -70 -37 -2 2 16 28 39 58 24 30 271 355 551 723 l507 667 1419 0 1419 0 3
136 3 135 174 -193 c96 -106 177 -193 181 -193 9 0 230 241 230 250 0 5 29 51
64 105 35 53 71 111 80 128 16 32 46 35 46 5z m-5776 -3059 c34 -8 77 -19 96
-24 19 -5 87 -21 150 -36 63 -14 123 -29 133 -33 19 -7 224 -397 248 -471 7
-19 18 -44 25 -55 8 -11 14 -25 14 -32 0 -21 -18 -15 -26 10 -14 45 -46 107
-56 107 -6 0 -18 -8 -27 -17 -9 -10 -45 -43 -81 -74 -36 -31 -96 -87 -134
-123 -38 -36 -72 -66 -77 -66 -5 0 -9 -7 -9 -15 0 -8 -4 -15 -9 -15 -5 0 -33
-24 -63 -52 -30 -29 -88 -86 -131 -126 -42 -40 -77 -77 -77 -83 0 -5 -10 -14
-22 -20 -18 -7 -13 -8 22 -4 24 3 47 10 50 15 3 5 25 11 48 13 24 3 45 7 49
11 3 3 17 6 30 6 13 0 23 5 23 10 0 6 7 10 15 10 8 0 15 5 15 10 0 6 5 10 10
10 6 0 10 -7 10 -15 0 -18 -26 -29 -145 -61 -93 -26 -100 -27 -125 -36 -16 -6
-173 -54 -230 -70 -19 -6 -43 -14 -52 -19 -10 -5 -26 -9 -35 -10 -13 0 -11 -3
7 -11 39 -16 4 -23 -42 -7 -32 10 -39 17 -35 33 3 12 80 282 171 601 92 319
171 597 177 618 5 20 13 37 16 37 4 0 34 -7 67 -16z m6119 -884 c47 -124 124
-326 172 -450 48 -124 122 -317 165 -430 43 -113 101 -262 129 -333 34 -85 51
-141 51 -170 l-1 -42 -22 38 c-12 21 -118 204 -236 405 -117 202 -246 423
-285 492 -40 69 -107 184 -150 256 l-77 132 77 171 c42 95 80 168 84 164 4 -4
46 -109 93 -233z m-6521 -498 c55 -128 69 -162 65 -162 -2 0 -23 38 -46 85
-23 47 -46 85 -51 85 -21 0 -89 -97 -142 -202 -10 -21 -22 -38 -27 -38 -5 0
-12 -11 -15 -24 -3 -14 -17 -37 -30 -53 -13 -15 -37 -53 -54 -83 -18 -30 -32
-49 -32 -43 0 14 55 115 180 333 43 74 84 148 91 163 7 15 15 27 18 27 3 0 23
-40 43 -88z"/>
<path d="M8716 8892 c-27 -161 -93 -527 -126 -702 -26 -135 -80 -442 -80 -453
0 -14 50 9 55 24 4 11 10 17 15 14 4 -3 13 2 20 10 7 9 22 14 34 13 14 -2 24
5 31 20 8 19 29 27 57 23 3 0 10 23 14 52 l7 52 13 -40 c11 -35 12 -17 9 140
-11 439 -26 948 -29 952 -1 1 -10 -46 -20 -105z"/>
<path d="M2862 3275 c-11 -14 -24 -25 -30 -25 -5 0 -28 -20 -51 -45 -23 -25
-46 -45 -51 -45 -6 0 -16 -11 -22 -25 -6 -14 -15 -25 -19 -25 -12 0 -129 -119
-129 -131 0 -6 -4 -7 -10 -4 -13 8 -40 -19 -83 -85 -20 -30 -44 -64 -54 -75
-10 -11 -45 -60 -78 -110 -33 -49 -67 -96 -76 -102 -10 -7 -37 -44 -60 -83
-24 -38 -47 -70 -51 -70 -5 0 -8 -5 -8 -11 0 -6 -11 -24 -25 -41 -45 -53 -29
-65 25 -18 19 16 38 30 43 30 4 0 7 7 7 15 0 8 5 15 10 15 6 0 10 7 10 15 0 8
4 14 8 12 5 -1 28 15 52 36 23 20 47 37 51 37 5 0 9 6 9 13 1 6 15 23 32 37
18 14 53 46 78 73 26 26 50 47 54 47 4 0 38 32 75 70 37 39 69 70 72 70 3 0
55 47 114 105 60 58 110 105 113 105 2 0 24 21 48 47 34 35 43 51 38 67 -4 12
-10 22 -15 24 -4 2 -5 10 -2 18 3 8 0 14 -6 14 -6 0 -14 14 -19 32 -10 41 -25
45 -50 13z"/>
</g>
</svg>
