<svg xmlns="http://www.w3.org/2000/svg" width="72" height="72" viewBox="0 0 400 400"><path d="M173 1.6c-4.1.7-12.7 3.2-19 5.4-6.3 2.3-12.6 4.5-14 4.8-3.3.9-24.4 12-26.7 14.1-1.8 1.5-12.8 9-18.7 12.6-1.6.9-5.2 3.9-8 6.5s-8.2 7.4-12.1 10.8c-9.3 8.1-10.7 9.6-24.1 24.6-6.3 7.1-12.1 14.1-12.9 15.6-.8 1.6-4.7 7.5-8.7 13.3C22 119 13.8 134.1 11 142c-.7 1.9-2.7 7.8-4.6 13C1.1 169.7 0 177.6 0 200c0 25.4.9 29.9 11.1 58 3 8.2 13.6 28.4 15.7 30 .4.3 2.6 3.2 4.8 6.5l4.1 6-1.9 6.5c-1 3.6-3.6 13.2-5.9 21.5-2.2 8.2-4.3 15.3-4.5 15.7-.9 1.5 2.2.8 10.9-2.2 4.7-1.6 10.5-3.2 12.9-3.6 2.4-.3 7.1-1.2 10.6-2 6.1-1.5 6.3-1.5 9.1.8 3 2.4 15.7 13.7 22.5 20 2.2 2 5.1 4.2 6.5 5 1.4.7 6.9 4.3 12.2 7.9 9.8 6.9 28.5 17.2 32.9 18.2 1.4.3 7.5 2.3 13.5 4.5 14.8 5.3 26.4 7.2 44.9 7.2 18.7 0 29.9-1.8 44.7-7 6.3-2.3 12.8-4.5 14.6-4.9 6.2-1.6 23.1-11.2 35.8-20.3 3.3-2.4 7.3-5 8.9-5.8 1.6-.8 8.4-6.5 15.2-12.7 6.7-6.2 12.7-11.3 13.3-11.3.5 0 2-1.4 3.3-3 1.3-1.7 7.5-8.9 13.9-16.1 6.4-7.1 12.3-14.2 13-15.7 1.5-2.8 9-14.3 9.9-15.2 2.5-2.3 16-26.8 16-29.1 0-.6 1.6-5.4 3.5-10.5 7-18.5 7.9-24.4 7.9-48.4.1-23.6-.8-29.1-7.4-47-1.7-4.7-3.5-9.9-3.9-11.7-1.2-4.4-11.6-24-15.2-28.5l-3-3.8 1.6-5.9c1.8-6.9 1.9-19.2.2-23.9-.7-1.8-3.3-6.1-5.9-9.6-4.3-5.8-5.4-6.6-12-9.1-5.7-2.1-9.6-2.9-17.8-3.3l-10.5-.5-9.8-8.8c-5.4-4.9-11.6-9.9-13.8-11.1-2.1-1.3-8.3-5.3-13.7-8.9-10.3-7.1-25.1-15.2-29.2-16.2-1.4-.3-7.6-2.4-13.8-4.6-6.3-2.3-15.2-4.8-19.9-5.6-11-1.9-41.8-1.9-52.3.1zM158.2 69c-.1 1.3-4.7 16.2-10.1 33-5.5 16.8-10.3 32.1-10.7 34-.3 1.9-5.3 18.1-11.1 36-5.7 17.9-11.7 37.6-13.4 43.9-1.6 6.3-4.5 16.2-6.3 22-3.1 9.8-6.7 21.3-14.5 46.6-1.7 5.5-3.6 12.5-4.2 15.5-.6 3-2.2 9-3.6 13.2-1.9 6.1-2.9 7.8-4.4 7.8-1 0-10.9 2.3-22 5.1-11 2.8-20.2 4.9-20.5 4.7-.6-.7 11-43.4 20.6-75.3 1.1-3.9 3.2-11.7 4.6-17.5 1.3-5.7 5.2-19.4 8.5-30.5 3.4-11 7.9-25.7 9.9-32.7 2.1-7 4.1-13.2 4.5-13.7.3-.6 1-3.6 1.6-6.8.6-3.2 6.4-22.6 13-43.2 6.5-20.6 11.9-38 11.9-38.7 0-.7.4-2.4 1-3.9l1-2.5 22.2.2 22.3.3-.3 2.5zm187.9-1c4.8 1.4 9.5 4.7 13.3 9.3 2.8 3.5 3.1 4.7 3.4 11.5.3 8-.1 10-7.7 35.2-6.8 22.7-7.6 24.5-10.2 24.4-24.6-1.5-40.6-2.8-41.5-3.3-.8-.4.5-5.4 3.7-15.4 2.6-8.2 5.1-16.8 5.4-19.2l.7-4.3-28.4-.7c-15.6-.4-29.2-.6-30.3-.4-1.6.3-3.3 4.6-9.2 22.4-9.6 28.9-9.6 32.3 0 37.9 4.3 2.5 9.7 3.6 26.6 5.6 38.1 4.4 59.2 31 49.7 62.6-6.9 23.3-10 33.8-12.4 41.9-3.3 11.4-6.4 18-11.1 22.8-4.7 5-13.2 10.1-20 12.1-6.4 1.9-20.7 2.1-35.6.5-5.5-.6-25.1-1.2-43.5-1.3-31.8-.3-33.7-.4-37.6-2.4-5.3-2.7-10-8.2-11.4-13.2-1.3-4.7-1.1-5.7 6.5-29 2.9-9.1 5.9-19 6.5-22.1 1.9-9.8.6-9.4 26.4-9.7 15.1-.2 22.6 0 22.6.7 0 1-9.9 31.4-11.5 35.3-.7 1.6.2 1.8 9.6 1.8 11.4 0 42.3 1.7 48 2.6 3.5.5 3.7.4 4.3-2.8.3-1.8 3.6-12.3 7.2-23.3 7.2-21.7 7.6-25.6 3.6-31.3-3.1-4.3-11.8-7.1-25.7-8.3-20.9-1.8-34.1-6.5-45.3-16.2-10.3-8.9-14.4-19.5-12.2-31.9.6-3.5 5.9-20.7 11.7-38.3l10.6-32 6.1-6.1c6.3-6.2 16.6-12.7 23.9-15 5.3-1.6 98.1-2 103.8-.4z" fill="#FFF"/></svg>