<?xml version="1.0" encoding="utf-8"?>
<!-- Generator: Adobe Illustrator 24.2.3, SVG Export Plug-In . SVG Version: 6.00 Build 0)  -->
<svg version="1.1"
	 id="svg66" inkscape:version="1.1.1 (eb90963e84, 2021-10-02)" sodipodi:docname="jubilee.svg" xmlns:inkscape="http://www.inkscape.org/namespaces/inkscape" xmlns:sodipodi="http://sodipodi.sourceforge.net/DTD/sodipodi-0.dtd" xmlns:svg="http://www.w3.org/2000/svg"
	 xmlns="http://www.w3.org/2000/svg" xmlns:xlink="http://www.w3.org/1999/xlink" x="0px" y="0px" viewBox="0 0 72 72"
	 style="enable-background:new 0 0 72 72;" xml:space="preserve">
<style type="text/css">
	.st0{fill:#FFFFFF;}
	.st1{fill:none;}
</style>
<sodipodi:namedview  bordercolor="#666666" borderopacity="1.0" fit-margin-bottom="0" fit-margin-left="5.518465" fit-margin-right="5.518465" fit-margin-top="0" height="492.96371px" id="namedview68" inkscape:current-layer="svg66" inkscape:cx="17.235728" inkscape:cy="35.797281" inkscape:pagecheckerboard="0" inkscape:pageopacity="0.0" inkscape:pageshadow="2" inkscape:window-height="1016" inkscape:window-maximized="1" inkscape:window-width="1920" inkscape:window-x="2560" inkscape:window-y="27" inkscape:zoom="5.6568542" pagecolor="#ffffff" showgrid="false" width="72.96307px">
	</sodipodi:namedview>
<g id="g24">
	<path id="path2" class="st0" d="M24.5,65.1c3.2,1.3,6.6,2,10.3,2v-2.4c-3.3,0-6.5-0.7-9.3-1.8h0c-3-1.2-5.7-3-7.9-5.3
		c-2.2-2.2-4.1-4.9-5.3-7.9L10,50.6c1.4,3.3,3.3,6.2,5.8,8.7C18.3,61.7,21.2,63.7,24.5,65.1z"/>
	<path id="path4" class="st0" d="M10,30c1.4-3.3,3.3-6.2,5.8-8.7l-1.7-1.7c-2.7,2.7-4.9,5.9-6.3,9.5c-1.4,3.4-2.2,7.2-2.2,11.2
		s0.8,7.8,2.2,11.2l2.3-0.9c-1.3-3.2-2-6.6-2-10.3C8,36.7,8.7,33.2,10,30z"/>
	<path id="path6" class="st0" d="M12.2,49.6l2.3-0.9c-1.1-2.6-1.7-5.4-1.7-8.4h-2.4C10.4,43.6,11.1,46.8,12.2,49.6z"/>
	<path id="path8" class="st0" d="M17.7,40.3c0-2.3,0.5-4.5,1.3-6.5l-2.3-0.9c-1,2.3-1.5,4.8-1.5,7.5H17.7z"/>
	<path id="path10" class="st0" d="M30.1,51.6c1.4,0.6,3,0.9,4.7,0.9c1.7,0,3.2-0.3,4.7-0.9l-0.9-2.3c-1.2,0.5-2.4,0.7-3.7,0.7
		c-1.3,0-2.6-0.3-3.7-0.7c-1.2-0.5-2.3-1.2-3.2-2.1v0c-0.9-0.9-1.6-2-2.1-3.2L23.5,45c0.6,1.5,1.5,2.8,2.6,4
		C27.3,50,28.6,50.9,30.1,51.6z"/>
	<path id="path12" class="st0" d="M19,46.8c0.9,2.1,2.1,4,3.7,5.5c1.6,1.6,3.4,2.8,5.5,3.7c2,0.8,4.2,1.3,6.5,1.3s4.5-0.5,6.5-1.3
		c2.1-0.9,4-2.1,5.5-3.7c1.6-1.6,2.8-3.4,3.7-5.5l-2.3-0.9c-0.7,1.8-1.8,3.4-3.2,4.7c-1.3,1.3-3,2.4-4.7,3.2
		c-1.7,0.7-3.6,1.1-5.6,1.1s-3.9-0.4-5.6-1.1c-1.8-0.7-3.4-1.8-4.7-3.2c-1.3-1.3-2.4-3-3.2-4.7c-0.7-1.7-1.1-3.6-1.1-5.6h-2.4
		C17.7,42.6,18.2,44.8,19,46.8z"/>
	<path id="path14" class="st0" d="M42.2,58.3c-2.3,1-4.8,1.5-7.5,1.5c-2.6,0-5.2-0.5-7.5-1.5c-2.4-1-4.5-2.4-6.3-4.2
		c-1.8-1.8-3.2-3.9-4.2-6.3l-2.3,0.9c1.1,2.7,2.7,5.1,4.8,7.1c2,2,4.4,3.6,7.1,4.8c2.6,1.1,5.4,1.7,8.4,1.7c3,0,5.8-0.6,8.4-1.7
		c2.7-1.1,5.1-2.7,7.1-4.8c2-2,3.7-4.4,4.8-7.1c1.1-2.6,1.7-5.4,1.7-8.4V5.1c-0.8-0.5-1.6-1-2.4-1.4c0,0,0,0,0,0v36.6
		c0,1.3-0.1,2.6-0.4,3.9c-0.3,1.2-0.6,2.5-1.1,3.6c-1,2.4-2.4,4.5-4.2,6.3S44.6,57.3,42.2,58.3L42.2,58.3z"/>
	<path id="path16" class="st0" d="M44.1,62.8l0.9,2.3c3.3-1.4,6.2-3.3,8.7-5.8c2.5-2.5,4.5-5.4,5.8-8.7c1.3-3.2,2-6.6,2-10.3V8.7
		C60.8,8,60,7.4,59.2,6.8c0,0,0,0,0,0v33.5c0,1.7-0.2,3.3-0.5,4.8c-0.3,1.6-0.8,3.1-1.4,4.5c-1.2,3-3,5.7-5.3,7.9
		C49.8,59.8,47.1,61.6,44.1,62.8z"/>
	<path id="path18" class="st0" d="M64.1,11C64.1,11,64.1,11,64.1,11L64,40.3h0c0,4-0.8,7.8-2.2,11.2c-1.5,3.6-3.7,6.8-6.3,9.5
		c-2.7,2.7-5.9,4.9-9.5,6.3c-3.4,1.4-7.2,2.2-11.2,2.2c-4,0-7.8-0.8-11.2-2.2c-3.6-1.5-6.8-3.7-9.5-6.3l-1.7,1.7
		C18.1,68.5,26,72,34.8,72c8.8,0,16.7-3.5,22.4-9.3c5.7-5.7,9.3-13.7,9.3-22.4V13.6C65.7,12.7,64.9,11.8,64.1,11z"/>
	<path id="path20" class="st0" d="M51.9,2.5c-0.8-0.4-1.6-0.7-2.4-1c0,0,0,0,0,0v38.8h2.4V2.5z"/>
	<path id="path22" class="st0" d="M46,45c0.6-1.4,0.9-3,0.9-4.7h0V0.7c-0.8-0.2-1.6-0.5-2.4-0.7v40.3h0c0,1.3-0.3,2.6-0.7,3.7
		c-0.5,1.2-1.2,2.3-2.1,3.2l1.7,1.7C44.5,47.8,45.4,46.5,46,45z"/>
</g>
<path id="path26" class="st1" d="M48.3,34.7c-0.4-0.9-0.8-1.7-1.3-2.5v8.1h0c0,1.7-0.3,3.2-0.9,4.7c-0.6,1.5-1.5,2.8-2.6,4l-1.7-1.7
	c0.9-0.9,1.6-2,2.1-3.2c0.5-1.2,0.7-2.4,0.7-3.7V29.4c-1.2-1.1-2.6-2-4.2-2.6c-1.7-0.7-3.6-1.1-5.6-1.1s-3.9,0.4-5.6,1.1
	c-1.8,0.7-3.4,1.8-4.7,3.2c-1.3,1.3-2.4,3-3.2,4.7c-0.7,1.7-1.1,3.6-1.1,5.6c0,2,0.4,3.9,1.1,5.6c0.7,1.8,1.8,3.4,3.2,4.7
	c1.3,1.3,3,2.4,4.7,3.2c1.7,0.7,3.6,1.1,5.6,1.1s3.9-0.4,5.6-1.1c1.8-0.7,3.4-1.8,4.7-3.2c1.3-1.3,2.4-3,3.2-4.7
	c0.7-1.7,1.1-3.6,1.1-5.6C49.4,38.3,49,36.4,48.3,34.7L48.3,34.7z M34.8,52.5c-1.7,0-3.2-0.3-4.7-0.9c-1.5-0.6-2.8-1.5-4-2.6
	c-1.1-1.1-2-2.5-2.6-4l2.3-0.9c0.5,1.2,1.2,2.3,2.1,3.2v0c0.9,0.9,2,1.6,3.2,2.1c1.2,0.5,2.4,0.7,3.7,0.7c1.3,0,2.6-0.3,3.7-0.7
	l0.9,2.3C38,52.2,36.4,52.5,34.8,52.5z"/>
<path id="path28" class="st1" d="M49.4,40.3v-8.8c-0.7-1.2-1.5-2.2-2.4-3.2v11.9h0c0,1.7-0.3,3.2-0.9,4.7c-0.6,1.5-1.5,2.8-2.6,4
	l-1.7-1.7c0.9-0.9,1.6-2,2.1-3.2c0.5-1.2,0.7-2.4,0.7-3.7v-14c-1-0.7-2.1-1.3-3.2-1.8c-2-0.8-4.2-1.3-6.5-1.3s-4.5,0.5-6.5,1.3
	c-2.1,0.9-4,2.1-5.5,3.7c-1.6,1.6-2.8,3.4-3.7,5.5c-0.8,2-1.3,4.2-1.3,6.5h2.4c0,2,0.4,3.9,1.1,5.6c0.7,1.8,1.8,3.4,3.2,4.7
	c1.3,1.3,3,2.4,4.7,3.2c1.7,0.7,3.6,1.1,5.6,1.1s3.9-0.4,5.6-1.1c1.8-0.7,3.4-1.8,4.7-3.2c1.3-1.3,2.4-3,3.2-4.7l2.3,0.9
	c0.8-2,1.3-4.2,1.3-6.5L49.4,40.3z M34.8,52.5c-1.7,0-3.2-0.3-4.7-0.9c-1.5-0.6-2.8-1.5-4-2.6c-1.1-1.1-2-2.5-2.6-4l2.3-0.9
	c0.5,1.2,1.2,2.3,2.1,3.2v0c0.9,0.9,2,1.6,3.2,2.1c1.2,0.5,2.4,0.7,3.7,0.7c1.3,0,2.6-0.3,3.7-0.7l0.9,2.3
	C38,52.2,36.4,52.5,34.8,52.5L34.8,52.5z"/>
<path id="path30" class="st1" d="M47,28.4v11.9h0c0,1.7-0.3,3.2-0.9,4.7c-0.6,1.5-1.5,2.8-2.6,4l-1.7-1.7c0.9-0.9,1.6-2,2.1-3.2
	c0.5-1.2,0.7-2.4,0.7-3.7V23.4c-0.7-0.4-1.5-0.8-2.3-1.1c-2.3-1-4.8-1.5-7.5-1.5c-2.6,0-5.2,0.5-7.5,1.5c-2.4,1-4.5,2.4-6.3,4.2
	c-1.8,1.8-3.2,3.9-4.2,6.3l2.3,0.9c-0.8,2-1.3,4.2-1.3,6.5h2.4c0,2,0.4,3.9,1.1,5.6c0.7,1.8,1.8,3.4,3.2,4.7c1.3,1.3,3,2.4,4.7,3.2
	c1.7,0.7,3.6,1.1,5.6,1.1s3.9-0.4,5.6-1.1c1.8-0.7,3.4-1.8,4.7-3.2c1.3-1.3,2.4-3,3.2-4.7l2.3,0.9c-0.9,2.1-2.1,4-3.7,5.5
	c-1.6,1.6-3.4,2.8-5.5,3.7c-2,0.8-4.2,1.3-6.5,1.3s-4.5-0.5-6.5-1.3c-2.1-0.9-4-2.1-5.5-3.7c-1.6-1.6-2.8-3.4-3.7-5.5
	c-0.8-2-1.3-4.2-1.3-6.5h-2.4c0,2.6,0.5,5.2,1.5,7.5c1,2.4,2.4,4.5,4.2,6.3c1.8,1.8,3.9,3.2,6.3,4.2c2.3,1,4.8,1.5,7.5,1.5
	c2.6,0,5.2-0.5,7.5-1.5c2.4-1,4.5-2.4,6.3-4.2s3.2-3.9,4.2-6.3c1-2.3,1.5-4.8,1.5-7.5c0-2.6-0.5-5.2-1.5-7.5
	c-0.3-0.7-0.6-1.3-0.9-1.9v9.4h-2.4V27.4c-0.3-0.3-0.6-0.6-0.9-0.9c-0.5-0.5-1-1-1.6-1.4v3 M34.8,52.5c-1.7,0-3.2-0.3-4.7-0.9
	c-1.5-0.6-2.8-1.5-4-2.6c-1.1-1.1-2-2.5-2.6-4l2.3-0.9c0.5,1.2,1.2,2.3,2.1,3.2v0c0.9,0.9,2,1.6,3.2,2.1c1.2,0.5,2.4,0.7,3.7,0.7
	c1.3,0,2.6-0.3,3.7-0.7l0.9,2.3C38,52.2,36.4,52.5,34.8,52.5z"/>
<path id="path32" class="st1" d="M45.1,50.6c1.3-1.3,2.4-3,3.2-4.7l2.3,0.9c-0.9,2.1-2.1,4-3.7,5.5c-1.6,1.6-3.4,2.8-5.5,3.7
	c-2,0.8-4.2,1.3-6.5,1.3s-4.5-0.5-6.5-1.3c-2.1-0.9-4-2.1-5.5-3.7c-1.6-1.6-2.8-3.4-3.7-5.5c-0.8-2-1.3-4.2-1.3-6.5h-2.4
	c0-2.6,0.5-5.2,1.5-7.5l2.3,0.9c-0.8,2-1.3,4.2-1.3,6.5h2.4c0,2,0.4,3.9,1.1,5.6c0.7,1.8,1.8,3.4,3.2,4.7c1.3,1.3,3,2.4,4.7,3.2
	c1.7,0.7,3.6,1.1,5.6,1.1c2,0,3.9-0.4,5.6-1.1C42.2,53.1,43.8,52,45.1,50.6z M39.4,51.6c-1.4,0.6-3,0.9-4.7,0.9
	c-1.7,0-3.2-0.3-4.7-0.9c-1.5-0.6-2.8-1.5-4-2.6c-1.1-1.1-2-2.5-2.6-4l2.3-0.9c0.5,1.2,1.2,2.3,2.1,3.2v0c0.9,0.9,2,1.6,3.2,2.1
	c1.2,0.5,2.4,0.7,3.7,0.7c1.3,0,2.6-0.3,3.7-0.7L39.4,51.6z"/>
<path id="path34" class="st1" d="M48.3,34.7c-0.4-0.9-0.8-1.7-1.3-2.5v8.1h0c0,1.7-0.3,3.2-0.9,4.7c-0.6,1.5-1.5,2.8-2.6,4l-1.7-1.7
	c0.9-0.9,1.6-2,2.1-3.2c0.5-1.2,0.7-2.4,0.7-3.7V29.4c-1.2-1.1-2.6-2-4.2-2.6c-1.7-0.7-3.6-1.1-5.6-1.1s-3.9,0.4-5.6,1.1
	c-1.8,0.7-3.4,1.8-4.7,3.2c-1.3,1.3-2.4,3-3.2,4.7c-0.7,1.7-1.1,3.6-1.1,5.6c0,2,0.4,3.9,1.1,5.6c0.7,1.8,1.8,3.4,3.2,4.7
	c1.3,1.3,3,2.4,4.7,3.2c1.7,0.7,3.6,1.1,5.6,1.1s3.9-0.4,5.6-1.1c1.8-0.7,3.4-1.8,4.7-3.2c1.3-1.3,2.4-3,3.2-4.7
	c0.7-1.7,1.1-3.6,1.1-5.6C49.4,38.3,49,36.4,48.3,34.7L48.3,34.7z M34.8,52.5c-1.7,0-3.2-0.3-4.7-0.9c-1.5-0.6-2.8-1.5-4-2.6
	c-1.1-1.1-2-2.5-2.6-4l2.3-0.9c0.5,1.2,1.2,2.3,2.1,3.2v0c0.9,0.9,2,1.6,3.2,2.1c1.2,0.5,2.4,0.7,3.7,0.7c1.3,0,2.6-0.3,3.7-0.7
	l0.9,2.3C38,52.2,36.4,52.5,34.8,52.5z"/>
<path id="path36" class="st1" d="M49.4,40.3v-8.8c-0.7-1.2-1.5-2.2-2.4-3.2v11.9h0c0,1.7-0.3,3.2-0.9,4.7c-0.6,1.5-1.5,2.8-2.6,4
	l-1.7-1.7c0.9-0.9,1.6-2,2.1-3.2c0.5-1.2,0.7-2.4,0.7-3.7v-14c-1-0.7-2.1-1.3-3.2-1.8c-2-0.8-4.2-1.3-6.5-1.3s-4.5,0.5-6.5,1.3
	c-2.1,0.9-4,2.1-5.5,3.7c-1.6,1.6-2.8,3.4-3.7,5.5c-0.8,2-1.3,4.2-1.3,6.5h2.4c0,2,0.4,3.9,1.1,5.6c0.7,1.8,1.8,3.4,3.2,4.7
	c1.3,1.3,3,2.4,4.7,3.2c1.7,0.7,3.6,1.1,5.6,1.1s3.9-0.4,5.6-1.1c1.8-0.7,3.4-1.8,4.7-3.2c1.3-1.3,2.4-3,3.2-4.7l2.3,0.9
	c0.8-2,1.3-4.2,1.3-6.5L49.4,40.3z M34.8,52.5c-1.7,0-3.2-0.3-4.7-0.9c-1.5-0.6-2.8-1.5-4-2.6c-1.1-1.1-2-2.5-2.6-4l2.3-0.9
	c0.5,1.2,1.2,2.3,2.1,3.2v0c0.9,0.9,2,1.6,3.2,2.1c1.2,0.5,2.4,0.7,3.7,0.7c1.3,0,2.6-0.3,3.7-0.7l0.9,2.3
	C38,52.2,36.4,52.5,34.8,52.5L34.8,52.5z"/>
<path id="path38" class="st1" d="M47,28.4v11.9h0c0,1.7-0.3,3.2-0.9,4.7c-0.6,1.5-1.5,2.8-2.6,4l-1.7-1.7c0.9-0.9,1.6-2,2.1-3.2
	c0.5-1.2,0.7-2.4,0.7-3.7V23.4c-0.7-0.4-1.5-0.8-2.3-1.1c-2.3-1-4.8-1.5-7.5-1.5c-2.6,0-5.2,0.5-7.5,1.5c-2.4,1-4.5,2.4-6.3,4.2
	c-1.8,1.8-3.2,3.9-4.2,6.3l2.3,0.9c-0.8,2-1.3,4.2-1.3,6.5h2.4c0,2,0.4,3.9,1.1,5.6c0.7,1.8,1.8,3.4,3.2,4.7c1.3,1.3,3,2.4,4.7,3.2
	c1.7,0.7,3.6,1.1,5.6,1.1s3.9-0.4,5.6-1.1c1.8-0.7,3.4-1.8,4.7-3.2c1.3-1.3,2.4-3,3.2-4.7l2.3,0.9c-0.9,2.1-2.1,4-3.7,5.5
	c-1.6,1.6-3.4,2.8-5.5,3.7c-2,0.8-4.2,1.3-6.5,1.3s-4.5-0.5-6.5-1.3c-2.1-0.9-4-2.1-5.5-3.7c-1.6-1.6-2.8-3.4-3.7-5.5
	c-0.8-2-1.3-4.2-1.3-6.5h-2.4c0,2.6,0.5,5.2,1.5,7.5c1,2.4,2.4,4.5,4.2,6.3c1.8,1.8,3.9,3.2,6.3,4.2c2.3,1,4.8,1.5,7.5,1.5
	c2.6,0,5.2-0.5,7.5-1.5c2.4-1,4.5-2.4,6.3-4.2s3.2-3.9,4.2-6.3c1-2.3,1.5-4.8,1.5-7.5c0-2.6-0.5-5.2-1.5-7.5
	c-0.3-0.7-0.6-1.3-0.9-1.9v9.4h-2.4V27.4c-0.3-0.3-0.6-0.6-0.9-0.9c-0.5-0.5-1-1-1.6-1.4v3 M34.8,52.5c-1.7,0-3.2-0.3-4.7-0.9
	c-1.5-0.6-2.8-1.5-4-2.6c-1.1-1.1-2-2.5-2.6-4l2.3-0.9c0.5,1.2,1.2,2.3,2.1,3.2v0c0.9,0.9,2,1.6,3.2,2.1c1.2,0.5,2.4,0.7,3.7,0.7
	c1.3,0,2.6-0.3,3.7-0.7l0.9,2.3C38,52.2,36.4,52.5,34.8,52.5z"/>
</svg>
