<svg version="1.1" id="svg66" xmlns="http://www.w3.org/2000/svg" x="0" y="0" viewBox="0 0 72 72" style="enable-background:new 0 0 72 72" xml:space="preserve"><style>.st0{fill:#fff}.st1{fill:none}</style><g id="g24"><path id="path2" class="st0" d="M24.5 65.1c3.2 1.3 6.6 2 10.3 2v-2.4c-3.3 0-6.5-.7-9.3-1.8-3-1.2-5.7-3-7.9-5.3-2.2-2.2-4.1-4.9-5.3-7.9l-2.3.9c1.4 3.3 3.3 6.2 5.8 8.7 2.5 2.4 5.4 4.4 8.7 5.8z"/><path id="path4" class="st0" d="M10 30c1.4-3.3 3.3-6.2 5.8-8.7l-1.7-1.7c-2.7 2.7-4.9 5.9-6.3 9.5-1.4 3.4-2.2 7.2-2.2 11.2s.8 7.8 2.2 11.2l2.3-.9c-1.3-3.2-2-6.6-2-10.3-.1-3.6.6-7.1 1.9-10.3z"/><path id="path6" class="st0" d="m12.2 49.6 2.3-.9c-1.1-2.6-1.7-5.4-1.7-8.4h-2.4c0 3.3.7 6.5 1.8 9.3z"/><path id="path8" class="st0" d="M17.7 40.3c0-2.3.5-4.5 1.3-6.5l-2.3-.9c-1 2.3-1.5 4.8-1.5 7.5h2.5z"/><path id="path10" class="st0" d="M30.1 51.6c1.4.6 3 .9 4.7.9 1.7 0 3.2-.3 4.7-.9l-.9-2.3c-1.2.5-2.4.7-3.7.7-1.3 0-2.6-.3-3.7-.7-1.2-.5-2.3-1.2-3.2-2.1-.9-.9-1.6-2-2.1-3.2l-2.4 1c.6 1.5 1.5 2.8 2.6 4 1.2 1 2.5 1.9 4 2.6z"/><path id="path12" class="st0" d="M19 46.8c.9 2.1 2.1 4 3.7 5.5 1.6 1.6 3.4 2.8 5.5 3.7 2 .8 4.2 1.3 6.5 1.3s4.5-.5 6.5-1.3c2.1-.9 4-2.1 5.5-3.7 1.6-1.6 2.8-3.4 3.7-5.5l-2.3-.9c-.7 1.8-1.8 3.4-3.2 4.7-1.3 1.3-3 2.4-4.7 3.2-1.7.7-3.6 1.1-5.6 1.1s-3.9-.4-5.6-1.1c-1.8-.7-3.4-1.8-4.7-3.2-1.3-1.3-2.4-3-3.2-4.7-.7-1.7-1.1-3.6-1.1-5.6h-2.4c.1 2.3.6 4.5 1.4 6.5z"/><path id="path14" class="st0" d="M42.2 58.3c-2.3 1-4.8 1.5-7.5 1.5-2.6 0-5.2-.5-7.5-1.5-2.4-1-4.5-2.4-6.3-4.2-1.8-1.8-3.2-3.9-4.2-6.3l-2.3.9c1.1 2.7 2.7 5.1 4.8 7.1 2 2 4.4 3.6 7.1 4.8 2.6 1.1 5.4 1.7 8.4 1.7s5.8-.6 8.4-1.7c2.7-1.1 5.1-2.7 7.1-4.8 2-2 3.7-4.4 4.8-7.1 1.1-2.6 1.7-5.4 1.7-8.4V5.1c-.8-.5-1.6-1-2.4-1.4v36.6c0 1.3-.1 2.6-.4 3.9-.3 1.2-.6 2.5-1.1 3.6-1 2.4-2.4 4.5-4.2 6.3s-4 3.2-6.4 4.2z"/><path id="path16" class="st0" d="m44.1 62.8.9 2.3c3.3-1.4 6.2-3.3 8.7-5.8 2.5-2.5 4.5-5.4 5.8-8.7 1.3-3.2 2-6.6 2-10.3V8.7c-.7-.7-1.5-1.3-2.3-1.9v33.5c0 1.7-.2 3.3-.5 4.8-.3 1.6-.8 3.1-1.4 4.5-1.2 3-3 5.7-5.3 7.9-2.2 2.3-4.9 4.1-7.9 5.3z"/><path id="path18" class="st0" d="M64.1 11 64 40.3c0 4-.8 7.8-2.2 11.2-1.5 3.6-3.7 6.8-6.3 9.5-2.7 2.7-5.9 4.9-9.5 6.3-3.4 1.4-7.2 2.2-11.2 2.2-4 0-7.8-.8-11.2-2.2-3.6-1.5-6.8-3.7-9.5-6.3l-1.7 1.7C18.1 68.5 26 72 34.8 72c8.8 0 16.7-3.5 22.4-9.3 5.7-5.7 9.3-13.7 9.3-22.4V13.6c-.8-.9-1.6-1.8-2.4-2.6z"/><path id="path20" class="st0" d="M51.9 2.5c-.8-.4-1.6-.7-2.4-1v38.8h2.4V2.5z"/><path id="path22" class="st0" d="M46 45c.6-1.4.9-3 .9-4.7V.7c-.8-.2-1.6-.5-2.4-.7v40.3c0 1.3-.3 2.6-.7 3.7-.5 1.2-1.2 2.3-2.1 3.2l1.7 1.7c1.1-1.1 2-2.4 2.6-3.9z"/></g><path id="path26" class="st1" d="M48.3 34.7c-.4-.9-.8-1.7-1.3-2.5v8.1c0 1.7-.3 3.2-.9 4.7-.6 1.5-1.5 2.8-2.6 4l-1.7-1.7c.9-.9 1.6-2 2.1-3.2.5-1.2.7-2.4.7-3.7v-11c-1.2-1.1-2.6-2-4.2-2.6-1.7-.7-3.6-1.1-5.6-1.1s-3.9.4-5.6 1.1c-1.8.7-3.4 1.8-4.7 3.2-1.3 1.3-2.4 3-3.2 4.7-.7 1.7-1.1 3.6-1.1 5.6 0 2 .4 3.9 1.1 5.6.7 1.8 1.8 3.4 3.2 4.7 1.3 1.3 3 2.4 4.7 3.2 1.7.7 3.6 1.1 5.6 1.1s3.9-.4 5.6-1.1c1.8-.7 3.4-1.8 4.7-3.2 1.3-1.3 2.4-3 3.2-4.7.7-1.7 1.1-3.6 1.1-5.6 0-2-.4-3.9-1.1-5.6zM34.8 52.5c-1.7 0-3.2-.3-4.7-.9-1.5-.6-2.8-1.5-4-2.6-1.1-1.1-2-2.5-2.6-4l2.3-.9c.5 1.2 1.2 2.3 2.1 3.2.9.9 2 1.6 3.2 2.1 1.2.5 2.4.7 3.7.7 1.3 0 2.6-.3 3.7-.7l.9 2.3c-1.4.5-3 .8-4.6.8z"/><path id="path28" class="st1" d="M49.4 40.3v-8.8c-.7-1.2-1.5-2.2-2.4-3.2v11.9c0 1.7-.3 3.2-.9 4.7-.6 1.5-1.5 2.8-2.6 4l-1.7-1.7c.9-.9 1.6-2 2.1-3.2.5-1.2.7-2.4.7-3.7v-14c-1-.7-2.1-1.3-3.2-1.8-2-.8-4.2-1.3-6.5-1.3s-4.5.5-6.5 1.3c-2.1.9-4 2.1-5.5 3.7-1.6 1.6-2.8 3.4-3.7 5.5-.8 2-1.3 4.2-1.3 6.5h2.4c0 2 .4 3.9 1.1 5.6.7 1.8 1.8 3.4 3.2 4.7 1.3 1.3 3 2.4 4.7 3.2 1.7.7 3.6 1.1 5.6 1.1s3.9-.4 5.6-1.1c1.8-.7 3.4-1.8 4.7-3.2 1.3-1.3 2.4-3 3.2-4.7l2.3.9c.8-2 1.3-4.2 1.3-6.5l-2.6.1zM34.8 52.5c-1.7 0-3.2-.3-4.7-.9-1.5-.6-2.8-1.5-4-2.6-1.1-1.1-2-2.5-2.6-4l2.3-.9c.5 1.2 1.2 2.3 2.1 3.2.9.9 2 1.6 3.2 2.1 1.2.5 2.4.7 3.7.7 1.3 0 2.6-.3 3.7-.7l.9 2.3c-1.4.5-3 .8-4.6.8z"/><path id="path30" class="st1" d="M47 28.4v11.9c0 1.7-.3 3.2-.9 4.7-.6 1.5-1.5 2.8-2.6 4l-1.7-1.7c.9-.9 1.6-2 2.1-3.2.5-1.2.7-2.4.7-3.7v-17c-.7-.4-1.5-.8-2.3-1.1-2.3-1-4.8-1.5-7.5-1.5-2.6 0-5.2.5-7.5 1.5-2.4 1-4.5 2.4-6.3 4.2-1.8 1.8-3.2 3.9-4.2 6.3l2.3.9c-.8 2-1.3 4.2-1.3 6.5h2.4c0 2 .4 3.9 1.1 5.6.7 1.8 1.8 3.4 3.2 4.7 1.3 1.3 3 2.4 4.7 3.2 1.7.7 3.6 1.1 5.6 1.1s3.9-.4 5.6-1.1c1.8-.7 3.4-1.8 4.7-3.2 1.3-1.3 2.4-3 3.2-4.7l2.3.9c-.9 2.1-2.1 4-3.7 5.5-1.6 1.6-3.4 2.8-5.5 3.7-2 .8-4.2 1.3-6.5 1.3s-4.5-.5-6.5-1.3c-2.1-.9-4-2.1-5.5-3.7-1.6-1.6-2.8-3.4-3.7-5.5-.8-2-1.3-4.2-1.3-6.5h-2.4c0 2.6.5 5.2 1.5 7.5 1 2.4 2.4 4.5 4.2 6.3 1.8 1.8 3.9 3.2 6.3 4.2 2.3 1 4.8 1.5 7.5 1.5 2.6 0 5.2-.5 7.5-1.5 2.4-1 4.5-2.4 6.3-4.2s3.2-3.9 4.2-6.3c1-2.3 1.5-4.8 1.5-7.5 0-2.6-.5-5.2-1.5-7.5-.3-.7-.6-1.3-.9-1.9v9.4h-2.4V27.4l-.9-.9c-.5-.5-1-1-1.6-1.4v3M34.8 52.5c-1.7 0-3.2-.3-4.7-.9-1.5-.6-2.8-1.5-4-2.6-1.1-1.1-2-2.5-2.6-4l2.3-.9c.5 1.2 1.2 2.3 2.1 3.2.9.9 2 1.6 3.2 2.1 1.2.5 2.4.7 3.7.7 1.3 0 2.6-.3 3.7-.7l.9 2.3c-1.4.5-3 .8-4.6.8z"/><path id="path32" class="st1" d="M45.1 50.6c1.3-1.3 2.4-3 3.2-4.7l2.3.9c-.9 2.1-2.1 4-3.7 5.5-1.6 1.6-3.4 2.8-5.5 3.7-2 .8-4.2 1.3-6.5 1.3s-4.5-.5-6.5-1.3c-2.1-.9-4-2.1-5.5-3.7-1.6-1.6-2.8-3.4-3.7-5.5-.8-2-1.3-4.2-1.3-6.5h-2.4c0-2.6.5-5.2 1.5-7.5l2.3.9c-.8 2-1.3 4.2-1.3 6.5h2.4c0 2 .4 3.9 1.1 5.6.7 1.8 1.8 3.4 3.2 4.7 1.3 1.3 3 2.4 4.7 3.2 1.7.7 3.6 1.1 5.6 1.1 2 0 3.9-.4 5.6-1.1 1.6-.6 3.2-1.7 4.5-3.1zm-5.7 1c-1.4.6-3 .9-4.7.9-1.7 0-3.2-.3-4.7-.9-1.5-.6-2.8-1.5-4-2.6-1.1-1.1-2-2.5-2.6-4l2.3-.9c.5 1.2 1.2 2.3 2.1 3.2.9.9 2 1.6 3.2 2.1 1.2.5 2.4.7 3.7.7 1.3 0 2.6-.3 3.7-.7l1 2.2z"/><path id="path34" class="st1" d="M48.3 34.7c-.4-.9-.8-1.7-1.3-2.5v8.1c0 1.7-.3 3.2-.9 4.7-.6 1.5-1.5 2.8-2.6 4l-1.7-1.7c.9-.9 1.6-2 2.1-3.2.5-1.2.7-2.4.7-3.7v-11c-1.2-1.1-2.6-2-4.2-2.6-1.7-.7-3.6-1.1-5.6-1.1s-3.9.4-5.6 1.1c-1.8.7-3.4 1.8-4.7 3.2-1.3 1.3-2.4 3-3.2 4.7-.7 1.7-1.1 3.6-1.1 5.6 0 2 .4 3.9 1.1 5.6.7 1.8 1.8 3.4 3.2 4.7 1.3 1.3 3 2.4 4.7 3.2 1.7.7 3.6 1.1 5.6 1.1s3.9-.4 5.6-1.1c1.8-.7 3.4-1.8 4.7-3.2 1.3-1.3 2.4-3 3.2-4.7.7-1.7 1.1-3.6 1.1-5.6 0-2-.4-3.9-1.1-5.6zM34.8 52.5c-1.7 0-3.2-.3-4.7-.9-1.5-.6-2.8-1.5-4-2.6-1.1-1.1-2-2.5-2.6-4l2.3-.9c.5 1.2 1.2 2.3 2.1 3.2.9.9 2 1.6 3.2 2.1 1.2.5 2.4.7 3.7.7 1.3 0 2.6-.3 3.7-.7l.9 2.3c-1.4.5-3 .8-4.6.8z"/><path id="path36" class="st1" d="M49.4 40.3v-8.8c-.7-1.2-1.5-2.2-2.4-3.2v11.9c0 1.7-.3 3.2-.9 4.7-.6 1.5-1.5 2.8-2.6 4l-1.7-1.7c.9-.9 1.6-2 2.1-3.2.5-1.2.7-2.4.7-3.7v-14c-1-.7-2.1-1.3-3.2-1.8-2-.8-4.2-1.3-6.5-1.3s-4.5.5-6.5 1.3c-2.1.9-4 2.1-5.5 3.7-1.6 1.6-2.8 3.4-3.7 5.5-.8 2-1.3 4.2-1.3 6.5h2.4c0 2 .4 3.9 1.1 5.6.7 1.8 1.8 3.4 3.2 4.7 1.3 1.3 3 2.4 4.7 3.2 1.7.7 3.6 1.1 5.6 1.1s3.9-.4 5.6-1.1c1.8-.7 3.4-1.8 4.7-3.2 1.3-1.3 2.4-3 3.2-4.7l2.3.9c.8-2 1.3-4.2 1.3-6.5l-2.6.1zM34.8 52.5c-1.7 0-3.2-.3-4.7-.9-1.5-.6-2.8-1.5-4-2.6-1.1-1.1-2-2.5-2.6-4l2.3-.9c.5 1.2 1.2 2.3 2.1 3.2.9.9 2 1.6 3.2 2.1 1.2.5 2.4.7 3.7.7 1.3 0 2.6-.3 3.7-.7l.9 2.3c-1.4.5-3 .8-4.6.8z"/><path id="path38" class="st1" d="M47 28.4v11.9c0 1.7-.3 3.2-.9 4.7-.6 1.5-1.5 2.8-2.6 4l-1.7-1.7c.9-.9 1.6-2 2.1-3.2.5-1.2.7-2.4.7-3.7v-17c-.7-.4-1.5-.8-2.3-1.1-2.3-1-4.8-1.5-7.5-1.5-2.6 0-5.2.5-7.5 1.5-2.4 1-4.5 2.4-6.3 4.2-1.8 1.8-3.2 3.9-4.2 6.3l2.3.9c-.8 2-1.3 4.2-1.3 6.5h2.4c0 2 .4 3.9 1.1 5.6.7 1.8 1.8 3.4 3.2 4.7 1.3 1.3 3 2.4 4.7 3.2 1.7.7 3.6 1.1 5.6 1.1s3.9-.4 5.6-1.1c1.8-.7 3.4-1.8 4.7-3.2 1.3-1.3 2.4-3 3.2-4.7l2.3.9c-.9 2.1-2.1 4-3.7 5.5-1.6 1.6-3.4 2.8-5.5 3.7-2 .8-4.2 1.3-6.5 1.3s-4.5-.5-6.5-1.3c-2.1-.9-4-2.1-5.5-3.7-1.6-1.6-2.8-3.4-3.7-5.5-.8-2-1.3-4.2-1.3-6.5h-2.4c0 2.6.5 5.2 1.5 7.5 1 2.4 2.4 4.5 4.2 6.3 1.8 1.8 3.9 3.2 6.3 4.2 2.3 1 4.8 1.5 7.5 1.5 2.6 0 5.2-.5 7.5-1.5 2.4-1 4.5-2.4 6.3-4.2s3.2-3.9 4.2-6.3c1-2.3 1.5-4.8 1.5-7.5 0-2.6-.5-5.2-1.5-7.5-.3-.7-.6-1.3-.9-1.9v9.4h-2.4V27.4l-.9-.9c-.5-.5-1-1-1.6-1.4v3M34.8 52.5c-1.7 0-3.2-.3-4.7-.9-1.5-.6-2.8-1.5-4-2.6-1.1-1.1-2-2.5-2.6-4l2.3-.9c.5 1.2 1.2 2.3 2.1 3.2.9.9 2 1.6 3.2 2.1 1.2.5 2.4.7 3.7.7 1.3 0 2.6-.3 3.7-.7l.9 2.3c-1.4.5-3 .8-4.6.8z"/></svg>