<svg id="Layer_1" xmlns="http://www.w3.org/2000/svg" viewBox="0 0 72 72"><style>.st0{fill:#fff}</style><path class="st0" d="M59.6 18.1c-.3-.4-.7-.8-1-1.2-6.2-6.5-15.8-8.6-24.1-5.3s-14 11.5-14 20.5c0 .9.1 1.9.2 2.8-5.1-1.5-10.5.1-14 4s-4.5 9.5-2.6 14.4c2 4.9 6.5 8.2 11.8 8.6v.1h38.4C63 62 70 55.2 70 46.9V18.1H59.6zm6.7 28.8c0 4.8-3.2 8.9-7.6 10.5v-7.7H51v8.5H39.6c1-1.2 1.8-2.6 2.4-4 .1-.1.1-.3.1-.4.1-.3.3-.7.4-1 .1-.2.1-.4.2-.6.1-.4.3-.9.4-1.3 0-.2.1-.4.1-.7 0-.2.1-.3.1-.5v.1c.2-1 .3-1.9.3-2.9V21.8h22.7v25.1z"/><path class="st0" d="M46.6 25.3h4.1v4.1h-4.1zm6.2 0h4.1v4.1h-4.1zm6.2 0h4.1v4.1H59zm-12.4 7h4.1v4.1h-4.1zm6.2 0h4.1v4.1h-4.1zm6.2 0h4.1v4.1H59zm-12.4 7.5h4.1v4.1h-4.1zm6.2 0h4.1v4.1h-4.1zm6.2 0h4.1v4.1H59z"/></svg>