<?xml version="1.0" encoding="utf-8"?>
<!-- Generator: Adobe Illustrator 20.0.0, SVG Export Plug-In . SVG Version: 6.00 Build 0)  -->
<svg version="1.1" id="Layer_1" xmlns="http://www.w3.org/2000/svg" xmlns:xlink="http://www.w3.org/1999/xlink" x="0px" y="0px"
	 viewBox="0 0 72 72" style="enable-background:new 0 0 72 72;" xml:space="preserve">
<style type="text/css">
	.st0{fill:#FFFFFF;}
</style>
<title>Bordered</title>
<desc>Created with Sketch.</desc>
<g>
	<path class="st0" d="M59.6,18.1c-0.3-0.4-0.7-0.8-1-1.2c-6.2-6.5-15.8-8.6-24.1-5.3S20.5,23.1,20.5,32.1c0,0.9,0.1,1.9,0.2,2.8
		c-5.1-1.5-10.5,0.1-14,4s-4.5,9.5-2.6,14.4c2,4.9,6.5,8.2,11.8,8.6V62h8.3h30.1C63,62,70,55.2,70,46.9V18.1H59.6z M66.3,46.9
		c0,4.8-3.2,8.9-7.6,10.5v-7.7H51v8.5H39.6c1-1.2,1.8-2.6,2.4-4c0.1-0.1,0.1-0.3,0.1-0.4c0.1-0.3,0.3-0.7,0.4-1
		c0.1-0.2,0.1-0.4,0.2-0.6c0.1-0.4,0.3-0.9,0.4-1.3c0-0.2,0.1-0.4,0.1-0.7c0-0.2,0.1-0.3,0.1-0.5l0,0.1c0.2-1,0.3-1.9,0.3-2.9V21.8
		h22.7V46.9z"/>
	<rect x="46.6" y="25.3" class="st0" width="4.1" height="4.1"/>
	<rect x="52.8" y="25.3" class="st0" width="4.1" height="4.1"/>
	<rect x="59" y="25.3" class="st0" width="4.1" height="4.1"/>
	<rect x="46.6" y="32.3" class="st0" width="4.1" height="4.1"/>
	<rect x="52.8" y="32.3" class="st0" width="4.1" height="4.1"/>
	<rect x="59" y="32.3" class="st0" width="4.1" height="4.1"/>
	<rect x="46.6" y="39.8" class="st0" width="4.1" height="4.1"/>
	<rect x="52.8" y="39.8" class="st0" width="4.1" height="4.1"/>
	<rect x="59" y="39.8" class="st0" width="4.1" height="4.1"/>
</g>
</svg>
