<?xml version="1.0" encoding="UTF-8"?>
<svg width="40px" height="40px" viewBox="0 0 40 40" version="1.1" xmlns="http://www.w3.org/2000/svg" xmlns:xlink="http://www.w3.org/1999/xlink">
    <!-- Generator: Sketch 48.2 (47327) - http://www.bohemiancoding.com/sketch -->
    <title>tenancy Logo</title>
    <desc>Created with Sketch.</desc>
    <defs></defs>
    <g id="Page-1" stroke="none" stroke-width="1" fill="none" fill-rule="evenodd">
        <g id="tenancy-Logo" fill-rule="nonzero">
            <g id="Logo" transform="translate(-70.312500, 0.000000)">
                <g id="Tenancy-logo" transform="translate(132.812500, 54.687500)">
                    <polygon id="Shape" fill="#40AADA" points="307.1875 76.015625 231.171875 76.015625 231.171875 122.109375 244.609375 135.546875 244.609375 89.375 320.625 89.375 320.625 79.84375 307.1875 66.40625"></polygon>
                    <polygon id="Shape" fill="#40AADA" points="180.546875 64.0625 180.546875 71.484375 198.4375 89.375 219.296875 89.375 219.296875 25.3125 134.375 25.3125 147.8125 38.75 205.859375 38.75 205.859375 76.015625 193.984375 76.015625 193.984375 50.703125 159.765625 50.703125 173.125 64.0625"></polygon>
                    <polygon id="Shape" fill="#40AADA" points="210.390625 101.328125 219.296875 110.234375 219.296875 101.328125"></polygon>
                    <polygon id="Shape" fill="#40AADA" points="122.5 13.4375 231.171875 13.4375 231.171875 64.0625 269.921875 64.0625 269.921875 29.140625 256.5625 15.78125 256.5625 50.703125 244.609375 50.703125 244.609375 3.828125 240.78125 0 109.0625 0"></polygon>
                    <polygon id="Shape" fill="#921A7C" points="129.921875 25.3125 129.921875 50.703125 117.96875 50.703125 117.96875 25.3125 67.265625 25.3125 67.265625 13.4375 122.5 13.4375 109.0625 0 53.90625 0 53.90625 38.75 104.53125 38.75 104.53125 64.0625 143.28125 64.0625 143.28125 38.75 147.8125 38.75 134.375 25.3125"></polygon>
                    <polygon id="Shape" fill="#921A7C" points="231.171875 216.09375 244.609375 216.09375 244.609375 135.546875 231.171875 122.109375"></polygon>
                    <polygon id="Shape" fill="#921A7C" points="231.171875 241.40625 231.171875 253.90625 244.609375 267.265625 244.609375 241.40625 244.609375 227.96875 231.171875 227.96875 205.3125 227.96875 218.75 241.40625"></polygon>
                    <polygon id="Shape" fill="#921A7C" points="180.546875 89.375 198.4375 89.375 180.546875 71.484375"></polygon>
                    <polygon id="Shape" fill="#921A7C" points="16.640625 13.4375 28.59375 13.4375 28.59375 51.25 41.40625 64.0625 41.953125 64.0625 41.953125 0 3.203125 0 3.203125 25.859375 16.640625 39.296875"></polygon>
                    <polygon id="Shape" fill="#921A7C" points="168.59375 101.328125 168.59375 64.0625 173.125 64.0625 159.765625 50.703125 155.234375 50.703125 155.234375 114.765625 205.859375 114.765625 205.859375 151.953125 193.984375 151.953125 193.984375 126.640625 155.234375 126.640625 155.234375 177.890625 168.046875 190.703125 205.859375 190.703125 205.859375 202.65625 180 202.65625 193.4375 216.09375 219.296875 216.09375 219.296875 177.34375 168.59375 177.34375 168.59375 140.078125 180.546875 140.078125 180.546875 165.390625 219.296875 165.390625 219.296875 110.234375 210.390625 101.328125"></polygon>
                    <polygon id="Shape" fill="#921A7C" points="143.28125 76.015625 92.65625 76.015625 92.65625 50.703125 53.90625 50.703125 53.90625 76.015625 53.359375 76.015625 66.71875 89.375 67.265625 89.375 67.265625 64.0625 79.21875 64.0625 79.21875 89.375 129.921875 89.375 129.921875 152.578125 143.28125 165.9375"></polygon>
                    <polygon id="Shape" fill="#46A534" points="244.609375 0 240.78125 0 244.609375 3.828125"></polygon>
                    <polygon id="Shape" fill="#46A534" points="269.921875 13.4375 281.875 13.4375 281.875 38.75 320.625 38.75 320.625 13.4375 357.890625 13.4375 357.890625 76.015625 345.9375 76.015625 345.9375 50.703125 307.1875 50.703125 307.1875 66.40625 320.625 79.84375 320.625 64.0625 332.5 64.0625 332.5 89.375 371.25 89.375 371.25 0 307.1875 0 307.1875 25.3125 295.3125 25.3125 295.3125 0 256.5625 0 256.5625 15.78125 269.921875 29.140625"></polygon>
                    <polygon id="Shape" fill="#E23735" points="168.59375 317.421875 168.59375 303.984375 149.609375 303.984375 162.96875 317.421875"></polygon>
                    <polygon id="Shape" fill="#E23735" points="231.171875 380 225.625 380 238.984375 393.359375 244.609375 393.359375 244.609375 267.265625 231.171875 253.90625"></polygon>
                    <polygon id="Shape" fill="#E23735" points="16.640625 76.015625 16.640625 39.296875 3.203125 25.859375 3.203125 89.375 66.71875 89.375 53.359375 76.015625"></polygon>
                    <polygon id="Shape" fill="#E23735" points="28.59375 64.0625 41.40625 64.0625 28.59375 51.25"></polygon>
                    <polygon id="Shape" fill="#E23735" points="143.28125 202.65625 143.28125 165.9375 129.921875 152.578125 129.921875 202.65625 129.921875 216.09375 129.921875 241.40625 218.75 241.40625 205.3125 227.96875 143.28125 227.96875 143.28125 216.09375 193.4375 216.09375 180 202.65625"></polygon>
                    <polygon id="Shape" fill="#E23735" points="219.296875 368.046875 219.296875 317.421875 219.296875 303.984375 219.296875 253.359375 129.921875 253.359375 129.921875 284.296875 137.65625 292.03125 180.546875 292.03125 180.546875 329.296875 174.921875 329.296875 188.359375 342.734375 193.984375 342.734375 193.984375 278.671875 143.28125 278.671875 143.28125 266.71875 205.859375 266.71875 205.859375 303.984375 205.859375 317.421875 205.859375 354.6875 200.234375 354.6875 213.671875 368.046875"></polygon>
                    <polygon id="Shape" fill="#E23735" points="168.046875 190.703125 155.234375 177.890625 155.234375 190.703125"></polygon>
                    <polygon id="Shape" fill="#F7B243" points="155.234375 329.296875 155.234375 380 143.28125 380 143.28125 317.421875 162.96875 317.421875 149.609375 303.984375 129.921875 303.984375 129.921875 393.359375 168.59375 393.359375 168.59375 342.734375 188.359375 342.734375 174.921875 329.296875"></polygon>
                    <polygon id="Shape" fill="#F7B243" points="129.921875 292.03125 137.65625 292.03125 129.921875 284.296875"></polygon>
                    <polygon id="Shape" fill="#F7B243" points="193.984375 380 193.984375 368.046875 213.671875 368.046875 200.234375 354.6875 180.546875 354.6875 180.546875 393.359375 238.984375 393.359375 225.625 380"></polygon>
                </g>
            </g>
        </g>
    </g>
</svg>