<?xml version="1.0" encoding="UTF-8"?>
<svg width="40px" height="40px" viewBox="0 0 40 40" version="1.1" xmlns="http://www.w3.org/2000/svg" xmlns:xlink="http://www.w3.org/1999/xlink">
    <!-- Generator: Sketch 48.2 (47327) - http://www.bohemiancoding.com/sketch -->
    <title>tenancy Logo</title>
    <desc>Created with Sketch.</desc>
    <defs></defs>
    <g id="Page-1" stroke="none" stroke-width="1" fill="none" fill-rule="evenodd">
        <g id="tenancy-Logo" fill-rule="nonzero">
            <g id="Logo" transform="translate(-0.665000, 0.000000)">
                <g id="Tenancy-logo" transform="translate(5.665000, 4.375000)">
                    <polygon id="Shape" fill="#40AADA" points="24.575 6.08125 18.49375 6.08125 18.49375 9.76875 19.56875 10.84375 19.56875 7.15 25.65 7.15 25.65 6.3875 24.575 5.3125"></polygon>
                    <polygon id="Shape" fill="#40AADA" points="14.44375 5.125 14.44375 5.71875 15.875 7.15 17.54375 7.15 17.54375 2.025 10.75 2.025 11.825 3.1 16.46875 3.1 16.46875 6.08125 15.51875 6.08125 15.51875 4.05625 12.78125 4.05625 13.85 5.125"></polygon>
                    <polygon id="Shape" fill="#40AADA" points="16.83125 8.10625 17.54375 8.81875 17.54375 8.10625"></polygon>
                    <polygon id="Shape" fill="#40AADA" points="9.8 1.075 18.49375 1.075 18.49375 5.125 21.59375 5.125 21.59375 2.33125 20.525 1.2625 20.525 4.05625 19.56875 4.05625 19.56875 0.30625 19.2625 0 8.725 0"></polygon>
                    <polygon id="Shape" fill="#921A7C" points="10.39375 2.025 10.39375 4.05625 9.4375 4.05625 9.4375 2.025 5.38125 2.025 5.38125 1.075 9.8 1.075 8.725 0 4.3125 0 4.3125 3.1 8.3625 3.1 8.3625 5.125 11.4625 5.125 11.4625 3.1 11.825 3.1 10.75 2.025"></polygon>
                    <polygon id="Shape" fill="#921A7C" points="18.49375 17.2875 19.56875 17.2875 19.56875 10.84375 18.49375 9.76875"></polygon>
                    <polygon id="Shape" fill="#921A7C" points="18.49375 19.3125 18.49375 20.3125 19.56875 21.38125 19.56875 19.3125 19.56875 18.2375 18.49375 18.2375 16.425 18.2375 17.5 19.3125"></polygon>
                    <polygon id="Shape" fill="#921A7C" points="14.44375 7.15 15.875 7.15 14.44375 5.71875"></polygon>
                    <polygon id="Shape" fill="#921A7C" points="1.33125 1.075 2.2875 1.075 2.2875 4.1 3.3125 5.125 3.35625 5.125 3.35625 0 0.25625 0 0.25625 2.06875 1.33125 3.14375"></polygon>
                    <polygon id="Shape" fill="#921A7C" points="13.4875 8.10625 13.4875 5.125 13.85 5.125 12.78125 4.05625 12.41875 4.05625 12.41875 9.18125 16.46875 9.18125 16.46875 12.15625 15.51875 12.15625 15.51875 10.13125 12.41875 10.13125 12.41875 14.23125 13.44375 15.25625 16.46875 15.25625 16.46875 16.2125 14.4 16.2125 15.475 17.2875 17.54375 17.2875 17.54375 14.1875 13.4875 14.1875 13.4875 11.20625 14.44375 11.20625 14.44375 13.23125 17.54375 13.23125 17.54375 8.81875 16.83125 8.10625"></polygon>
                    <polygon id="Shape" fill="#921A7C" points="11.4625 6.08125 7.4125 6.08125 7.4125 4.05625 4.3125 4.05625 4.3125 6.08125 4.26875 6.08125 5.3375 7.15 5.38125 7.15 5.38125 5.125 6.3375 5.125 6.3375 7.15 10.39375 7.15 10.39375 12.20625 11.4625 13.275"></polygon>
                    <polygon id="Shape" fill="#46A534" points="19.56875 0 19.2625 0 19.56875 0.30625"></polygon>
                    <polygon id="Shape" fill="#46A534" points="21.59375 1.075 22.55 1.075 22.55 3.1 25.65 3.1 25.65 1.075 28.63125 1.075 28.63125 6.08125 27.675 6.08125 27.675 4.05625 24.575 4.05625 24.575 5.3125 25.65 6.3875 25.65 5.125 26.6 5.125 26.6 7.15 29.7 7.15 29.7 0 24.575 0 24.575 2.025 23.625 2.025 23.625 0 20.525 0 20.525 1.2625 21.59375 2.33125"></polygon>
                    <polygon id="Shape" fill="#E23735" points="13.4875 25.39375 13.4875 24.31875 11.96875 24.31875 13.0375 25.39375"></polygon>
                    <polygon id="Shape" fill="#E23735" points="18.49375 30.4 18.05 30.4 19.11875 31.46875 19.56875 31.46875 19.56875 21.38125 18.49375 20.3125"></polygon>
                    <polygon id="Shape" fill="#E23735" points="1.33125 6.08125 1.33125 3.14375 0.25625 2.06875 0.25625 7.15 5.3375 7.15 4.26875 6.08125"></polygon>
                    <polygon id="Shape" fill="#E23735" points="2.2875 5.125 3.3125 5.125 2.2875 4.1"></polygon>
                    <polygon id="Shape" fill="#E23735" points="11.4625 16.2125 11.4625 13.275 10.39375 12.20625 10.39375 16.2125 10.39375 17.2875 10.39375 19.3125 17.5 19.3125 16.425 18.2375 11.4625 18.2375 11.4625 17.2875 15.475 17.2875 14.4 16.2125"></polygon>
                    <polygon id="Shape" fill="#E23735" points="17.54375 29.44375 17.54375 25.39375 17.54375 24.31875 17.54375 20.26875 10.39375 20.26875 10.39375 22.74375 11.0125 23.3625 14.44375 23.3625 14.44375 26.34375 13.99375 26.34375 15.06875 27.41875 15.51875 27.41875 15.51875 22.29375 11.4625 22.29375 11.4625 21.3375 16.46875 21.3375 16.46875 24.31875 16.46875 25.39375 16.46875 28.375 16.01875 28.375 17.09375 29.44375"></polygon>
                    <polygon id="Shape" fill="#E23735" points="13.44375 15.25625 12.41875 14.23125 12.41875 15.25625"></polygon>
                    <polygon id="Shape" fill="#F7B243" points="12.41875 26.34375 12.41875 30.4 11.4625 30.4 11.4625 25.39375 13.0375 25.39375 11.96875 24.31875 10.39375 24.31875 10.39375 31.46875 13.4875 31.46875 13.4875 27.41875 15.06875 27.41875 13.99375 26.34375"></polygon>
                    <polygon id="Shape" fill="#F7B243" points="10.39375 23.3625 11.0125 23.3625 10.39375 22.74375"></polygon>
                    <polygon id="Shape" fill="#F7B243" points="15.51875 30.4 15.51875 29.44375 17.09375 29.44375 16.01875 28.375 14.44375 28.375 14.44375 31.46875 19.11875 31.46875 18.05 30.4"></polygon>
                </g>
            </g>
        </g>
    </g>
</svg>