<svg viewBox="0 0 72 72" xmlns="http://www.w3.org/2000/svg" fill-rule="evenodd" clip-rule="evenodd" stroke-linejoin="round" stroke-miterlimit="2"><path d="M22.071 64.144l-1.162 2.414 2.155.949.903-2.254-1.896-1.109zM54.961 42.817v1.534l12.377 5.96.949-2.155-13.326-5.339zM27.57 31.159L4.662 20.126l-.949 2.158 23.16 9.279.697-.404z" fill="#fff" fill-rule="nonzero"/><path d="M27.57 31.159L4.662 20.126l-.949 2.158 23.16 9.279.697-.404zM54.961 53.744v2.693l4.218 4.719 1.701-1.629-5.919-5.783zM30.735 29.328L12.821 9.283 11.12 10.91l19.134 18.696.481-.278zM15.934 53.15l-5.871 5.246L11.69 60.1l4.244-4.343V53.15zM41.166 29.932l.454.266 20.317-18.157-1.627-1.702-19.144 19.593zM49.926 35.057l1.786 1.045 19.016 1.068.053-2.356-20.855.243zM21.923 34.428L1.272 33.267l-.053 2.356 19.022-.221 1.085-.628.597-.346zM35.633 3.759l-.038-3.32 2.355.053-.199 3.536a10.345 10.345 0 00-.465-.095 10.482 10.482 0 00-1.653-.174zM26.526 8.143a11.107 11.107 0 00-1.251 2.013l-2.958-6.914 2.195-.854 2.014 5.755zM31.651 4.413a11.38 11.38 0 00-1.956.93l-.878-4.158 2.321-.408.513 3.636zM41.523 5.656l.865-4.628 2.299.512-1.43 5.546a11.466 11.466 0 00-1.734-1.43zM24.194 15.207c.017 1.311.26 2.603.712 3.821L16.34 6.525l1.987-1.264 5.867 9.946z" fill="#fff" fill-rule="nonzero"/><path d="M36.395 3.806l.042-3.367 2.356.109-.297 3.677a10.998 10.998 0 00-2.101-.419zM29.475 30.057l-.54.312L7.324 15.533l1.398-1.897 20.753 16.421zM46.064 11.764l3.651-8.509 2.131 1-5.297 10.351a11.187 11.187 0 00-.485-2.842zM27.054 7.513a11.239 11.239 0 00-1.373 1.878l-2.585-6.472 2.216-.8 1.742 5.394zM32.383 4.175a11.29 11.29 0 00-2.006.791l-.733-3.943 2.331-.352.408 3.504zM40.07 29.291L55.687 6.544l1.897 1.398-17.089 21.597-.425-.248z" fill="#fff" fill-rule="nonzero"/><path d="M29.285 30.166L8.207 14.303l-1.352 1.928 21.879 14.255.551-.32zM16.642 60.939l-1.559 2.071 1.931 1.352 1.499-2.299-1.547-.905a2.023 2.023 0 01-.324-.219zM39.92 29.203l.422.247L56.917 7.427l-1.929-1.352L39.92 29.203zM46.438 33.017l1.005.587 23-3.247-.409-2.32-23.596 4.98zM16.214 38.013L1.557 40.082l.409 2.321 13.968-2.948v-.361a1.954 1.954 0 01.28-1.081zM42.816 67.514l-2.088 1.196.134.952 2.321-.408-.367-1.74zM44.204 31.709l.684.401 23.943-8.378-.853-2.195-23.774 10.172zM15.934 42.241L3.169 46.708l.853 2.195 11.912-5.097v-1.565zM48.44 64.292l-1.889 1.082.937 2.677 2.195-.853-1.243-2.906zM45.752 10.88l3.184-7.948 2.155.947-4.639 9.636a11.25 11.25 0 00-.7-2.635zM30.903 29.23L13.456 8.728l-1.739 1.587 18.711 19.19.475-.275zM15.934 52.294l-6.425 5.467 1.587 1.742 4.838-4.717v-2.492zM41.327 30.026l.46.269 20.704-17.619-1.587-1.739-19.577 19.089zM50.516 35.402l1.955 1.145 18.201 1.465.109-2.355-20.265-.255zM22.442 34.128L1.328 32.427l-.109 2.353 19.667.249.44-.255 1.116-.646zM42.543 30.738l.53.31 22.886-13.502-1.264-1.984-22.152 15.176zM15.934 47.057l-9.893 5.836 1.264 1.985 8.629-5.911v-1.91zM53.81 61.217l-1.849 1.059 1.712 2.903 1.985-1.265-1.848-2.697zM27.692 67.431l-.379 1.471 2.299.51.144-.774-2.064-1.207zM54.92 38.755a2 2 0 01.041.496v.859l14.721 3.797.51-2.299-15.272-2.853zM25.316 32.464L2.32 26.533l-.512 2.296 22.517 4.209.991-.574zM54.961 47.573v1.917l8.832 6.647 1.352-1.929-10.184-6.635z" fill="#fff" fill-rule="nonzero"/><path d="M16.144 60.312l-1.728 2.183 1.897 1.401 1.528-2.226-.875-.512a1.967 1.967 0 01-.822-.846zM46.779 33.216l1.065.623 22.705-2.647-.352-2.328-23.418 4.352zM16.703 37.468L1.451 39.245l.352 2.331 14.131-2.627a1.958 1.958 0 01.769-1.481zM42.081 67.935l-2.125 1.217.072.617 2.328-.352-.275-1.482zM44.44 31.848l.713.417 23.948-7.733-.8-2.216-23.861 9.532zM15.934 41.699L2.899 45.908l.8 2.216 12.235-4.888v-1.537zM47.768 64.677l-1.904 1.091.824 2.553 2.216-.8-1.136-2.844zM21.411 63.758l-.012-.007-1.245 2.433 2.131 1 1-2.33-1.874-1.096zM54.961 43.356v1.567l12.003 6.143 1.001-2.131-13.004-5.579zM27.803 31.024L5.036 19.371l-1.001 2.134 23.095 9.909.673-.39zM54.961 54.664v2.837l3.583 4.21 1.739-1.59-5.322-5.457zM42.728 30.846l.544.318L66.38 18.277l-1.216-2.016-22.436 14.585zM15.934 46.409L5.62 52.16l1.219 2.019 9.095-5.913v-1.857zM53.148 61.596l-1.849 1.059 1.641 2.942 2.019-1.216-1.811-2.785zM24.232 14.115a11.351 11.351 0 00.214 3.331l-7.405-11.39L19.06 4.84l5.172 9.275zM42.17 6.123l1.045-4.93 2.288.566-1.685 5.935a11.448 11.448 0 00-1.648-1.571zM26.973 67.011l-.474 1.67 2.286.565.222-1.046-2.034-1.189zM54.962 39.24l-.001.011v1.354l14.5 4.118.565-2.288-15.064-3.195zM25.638 32.278L2.539 25.719l-.565 2.286 22.722 4.818.942-.545zM54.961 48.237v1.986l8.317 6.58 1.398-1.896-9.715-6.67z" fill="#fff" fill-rule="nonzero"/><g><path d="M25.853 32.153c-1.179-1.127-2.195-2.465-3.072-3.983a17.688 17.688 0 01-2.075-5.734c-.075-.417-.195-.611-.624-.534-.366.064-.515-.088-.464-.456.021-.147 0-.301 0-.448.072-.494-.043-.8-.633-.683-.229.045-.33-.061-.328-.312 0-.763.019-1.528 0-2.291 0-.323.144-.392.406-.352.496.08.619-.16.555-.598-.022-.146 0-.301 0-.445-.08-.552.032-.904.704-.784.336.058.32-.216.363-.435a18 18 0 014.235-8.839c6.023-6.778 15.78-6.461 21.477.696a18.258 18.258 0 013.649 8.108c.059.315.107.534.496.478.24-.04.339.074.323.317-.016.243 0 .448 0 .67-.03.501-.088 1.008.696.834.192-.042.267.086.267.267v2.401c0 .266-.136.325-.347.285-.55-.101-.672.173-.611.648.021.182 0 .374 0 .558.027.266-.061.429-.368.381-.307-.048-.381.12-.437.408-.675 3.489-2.108 6.612-4.572 9.213-.189.206-.383.406-.583.6l-4.847-2.836c1.047-2.273 2.292-4.446 3.589-6.585.633-1.045 1.457-1.971 1.953-3.11.625-1.429.948-2.973.948-4.533 0-5.439-3.923-10.146-9.273-11.126-6.302-1.161-12.491 3.579-13.035 9.978a11.415 11.415 0 002.934 8.85c.731.827 1.155 1.867 1.683 2.822.674 1.223 1.345 2.448 1.94 3.706l-.758.438-4.191 2.426z" fill="#fff" fill-rule="nonzero"/><path d="M30.342 28.344c-5.628-1.938-9.652-7.05-9.652-13.043 0-7.658 6.568-13.876 14.659-13.876 8.091 0 14.66 6.218 14.66 13.876 0 5.925-3.933 10.987-9.459 12.975.939-1.91 2.004-3.754 3.108-5.574.632-1.045 1.456-1.971 1.952-3.11.625-1.429.948-2.973.948-4.533 0-5.439-3.923-10.146-9.272-11.126-6.303-1.169-12.502 3.577-13.035 9.978a11.412 11.412 0 002.934 8.85c.73.827 1.149 1.862 1.683 2.822a92.524 92.524 0 011.474 2.761z" fill="#fff"/></g><g><path d="M30.804 29.286c.186.392.365.788.533 1.188l-.05.03c-4.209 2.433-8.41 4.868-12.603 7.306-.587.338-.587.776 0 1.12 1.334.787 2.667 1.56 4.001 2.339.195.107.41.173.632.192a1.447 1.447 0 001.091-.6 241.69 241.69 0 013.345-4.324c1.331-1.681 2.64-3.383 3.984-5.057.134.36.259.724.373 1.093l-6.608 8.432c-.16.206-.368.416-.24.699s.45.267.725.267h9.285l.005.01h9.285c.267 0 .587.022.733-.266.147-.288-.056-.496-.216-.707l-6.438-8.487c.106-.228.258-.483.473-.992l2.746 3.517c1.51 1.932 3.027 3.857 4.534 5.794a1.45 1.45 0 001.129.608v.013c.232-.027.457-.102.658-.221 1.313-.768 2.628-1.528 3.937-2.299.606-.358.606-.785 0-1.142a5956.201 5956.201 0 00-12.563-7.279l-.024-.014c.172-.408.351-.813.536-1.215l13.822 8.087a2.03 2.03 0 011.067 1.867v20.092a1.975 1.975 0 01-1.067 1.825L36.301 71.236c-.194.109-.397.211-.594.317l-.939.008C28.839 68.098 22.91 64.63 16.98 61.159a1.97 1.97 0 01-1.03-1.798V39.09a1.957 1.957 0 011.022-1.784c4.609-2.674 9.22-5.347 13.832-8.02zm4.857 37.285v2.438c.027.645.39.853.955.557.088-.045.176-.098.267-.149l8.38-4.788a659.754 659.754 0 004.481-2.587c.241-.141.619-.339.51-.624-.109-.286-.534-.227-.827-.192-1.128.128-2.256.266-3.382.424-3.035.397-6.068.8-9.103 1.197-.83.107-1.275.579-1.281 1.414-.005.771-.002 1.539 0 2.31zm-.96-.024v-2.401a1.228 1.228 0 00-1.115-1.283 321.386 321.386 0 00-4.142-.549c-1.489-.187-2.982-.363-4.468-.563-1.101-.149-2.208-.296-3.307-.475a2.564 2.564 0 00-.995-.024c-.115.027-.251.022-.296.144-.046.123.045.254.144.339.193.176.4.335.619.478 4.196 2.443 8.394 4.883 12.594 7.319.598.346.953.141.963-.55.011-.808.003-1.622.003-2.435zm-17.135-7.602a.804.804 0 00.758.907c.688.101 1.379.187 2.07.267l10.135 1.355 2.718.373a.482.482 0 00.534-.773c-.046-.091-.099-.179-.147-.267l-2.264-4.001c-1.508-2.655-3.02-5.31-4.535-7.964-.832-1.467-1.666-2.934-2.502-4.401-.101-.179-.234-.358-.466-.344-.232.013-.337.202-.427.389-.04.077-.067.16-.099.24a9361.866 9361.866 0 01-5.636 13.792c-.064.163-.109.331-.139.414v.013zm19.448 2.934c.717-.09 1.424-.176 2.133-.266l8.413-1.115c1.6-.211 3.201-.414 4.801-.633.696-.096.947-.533.691-1.184-.181-.459-.376-.912-.568-1.365-1.77-4.231-3.54-8.459-5.311-12.686-.096-.229-.189-.483-.475-.515-.285-.032-.424.219-.533.43-.827 1.413-1.654 2.822-2.47 4.241-1.778 3.092-3.55 6.187-5.316 9.284-.573 1.003-1.155 2.001-1.718 3.009-.301.475-.136.792.353.792v.008zm-1.756-18.937h-9.335c-.159-.007-.319 0-.477.021a.507.507 0 00-.425.707c.061.147.134.289.219.424l5.663 9.991 3.694 6.511c.381.667.8.667 1.182 0l.106-.189 9.157-15.929c.161-.258.306-.525.435-.8a.498.498 0 00-.422-.731c-.144-.016-.289-.021-.434-.016l-9.363.011zm18.423 4.854v-7.452c0-.729-.37-.947-1.008-.598-1.408.774-2.817 1.547-4.217 2.337-.736.418-.912.955-.592 1.72l4.801 11.469c.109.286.268.549.47.779.178.192.314.184.408-.074a2.69 2.69 0 00.141-.942 3494.7 3494.7 0 01-.003-7.239zm-36.507-7.319v14.427c-.008.276.017.552.072.822.04.171.062.397.235.437.173.04.312-.176.411-.328.127-.194.235-.4.32-.616.349-.904.741-1.79 1.123-2.667.592-1.387 1.139-2.79 1.723-4.183.659-1.568 1.334-3.123 2-4.694a1.169 1.169 0 00-.554-1.526c-.283-.162-.611-.248-.875-.432-1.118-.768-2.382-1.269-3.516-2a.784.784 0 00-.242-.102.493.493 0 00-.633.305 1.383 1.383 0 00-.064.557z" fill="#fff" fill-rule="nonzero"/><path d="M30.257 47.065h1.651c.174 0 .331 0 .315-.243-.016-.242.123-.25.304-.25h8.714c.246 0 .342.069.326.32-.02.33.093.72-.046.984s-.579.101-.883.15a7.89 7.89 0 00-2.667.778c-.6.334-1.17.744-1.176 1.502-.006.757.557 1.17 1.155 1.515.088.05.178.096.266.141.766.366.827.491.726 1.334-.021.184-.099.267-.267.267h-1.742a.8.8 0 01-.394-.166 2.187 2.187 0 00-2.203-.034c-.263.148-.563.22-.865.205a9.615 9.615 0 00-1.176 0c-.363.03-.403-.125-.432-.446-.056-.616.056-1.03.744-1.216a1.98 1.98 0 001.112-.867c.385-.597.22-1.179-.418-1.483-.333-.156-.7-.23-1.067-.213a5.637 5.637 0 01-1.931-.25 3.307 3.307 0 01-1.95-1.74c-.107-.216-.035-.288.19-.285h1.698l.016-.003zm6.636.232h3.873c.123 0 .347.094.336-.133 0-.174-.21-.099-.325-.099h-7.748c-.123 0-.344-.096-.336.13 0 .172.21.105.328.105l3.872-.003zm-7.439.203a.712.712 0 00.435.163c.68.028 1.36.054 2.04.077.107 0 .267.043.267-.125 0-.168-.173-.115-.266-.115h-2.476zM45.01 54.936c-.384.702-.734 1.3-1.043 1.915-.152.307-.299.384-.63.243-.717-.299-.728-.267-.346-.939.69-1.192 1.382-2.387 2.08-3.574.072-.123.102-.37.294-.315.192.056.45.128.507.454.133.781.325 1.552.488 2.328.06.428.203.84.421 1.214a.761.761 0 00.726.392c.336-.037.488-.29.589-.574a.608.608 0 00-.232-.768c-.213-.138-.205-.266-.099-.464.153-.28.29-.57.414-.864.096-.227.2-.245.376-.088.477.376.725.975.653 1.579a4.364 4.364 0 01-.99 2.286 1.66 1.66 0 01-1.4.661c-.576-.021-.893-.36-1.115-.819-.381-.805-.49-1.685-.693-2.667zM25.339 55.094c-1.11-.192-2.243-.387-3.377-.593-.328-.058-.36-.392-.499-.613-.362-.581-.352-.592.203-.958.456-.301.915-.602 1.384-.882.208-.123.267-.24.112-.435-.154-.195-.16-.37.107-.494.105-.05.2-.117.285-.197.214-.187.385-.224.494.099.093.28.237.248.45.104.214-.144.491-.48.753-.411.261.07.312.459.459.707.296.51.29.512-.22.8-.068.05-.143.094-.22.13-.305.11-.35.267-.169.534.286.45.534.928.8 1.395.289.507.211.672-.36.784a1.4 1.4 0 01-.202.03zm-2.497-1.334l1.678.237c-.165-.29-.288-.498-.403-.714-.074-.14-.16-.187-.31-.094-.29.182-.589.352-.967.574l.002-.003zM25.278 58.145l1.424 1.067-.928.31c-.267.085-.355-.16-.507-.267-.616-.42-1.27-.8-1.625-1.513-.093-.187-.106-.296.123-.387 1.36-.533 2.719-1.074 4.076-1.624.197-.083.285-.032.373.139.142.266.286.533.45.8.166.267.062.28-.156.352-1.051.352-2.094.726-3.23 1.123zM34.125 36.647c-.664-.328-.76-.878-.643-1.494a1.603 1.603 0 011.23-1.152 2.934 2.934 0 011.867.157c.68.294 1.029 1.067.8 1.771-.112.387-.43.56-.774.715 1.227.69 1.475 1.96.59 2.934-.236.237-.537.4-.864.47a3.83 3.83 0 01-1.98 0 1.604 1.604 0 01-1.298-1.454 1.663 1.663 0 01.872-1.817.66.66 0 01.2-.13zm2.03 1.456a.785.785 0 00-.779-.846.785.785 0 00-.779.846.724.724 0 00.779.784.707.707 0 00.779-.795v.011zM36 35.532a.536.536 0 00-.565-.573l-.027-.001a.536.536 0 00-.531.585.565.565 0 00.55.608.579.579 0 00.573-.63v.01zM18.43 46.385c.02-.392.11-.777.267-1.136.192-.347.395-.368.614-.038.304.482.506 1.022.595 1.585a5.21 5.21 0 01-.03 2.374c-.043.185-.11.364-.197.533-.243.443-.48.437-.755 0-.496-.784-.627-1.68-.8-2.56a6.016 6.016 0 01-.085-2.494c.04-.199.102-.393.18-.58.073-.167.161-.397.401-.287.195.09.39.301.267.533-.123.232.048.712-.486.688-.08 0-.096.195-.104.312-.015.362.03.723.134 1.07zm.302.72c.032.368.122.728.267 1.067.048.104.096.24.232.221.136-.018.123-.149.15-.248a2.027 2.027 0 00-.113-1.152c-.061-.195-.101-.533-.328-.49-.227.042-.192.357-.208.602zM20.78 46.868c-.029.16 0 .4-.192.437-.192.038-.248-.203-.304-.357a.905.905 0 01.016-.8.12.12 0 01.187-.038c.196.203.301.476.293.758zM28.292 63.912l.416-.06-.905-.989c.665.014 1.243.086 1.58.705.4.736 1.165.602 1.803.725.861.168 1.09.408 1.066 1.294 0 .317 0 .637-.018.955 0 .117 0 .266-.179.218-.36-.077-.741-.07-1.019-.405-.33-.4-.704-.768-1.067-1.15a1.559 1.559 0 00-.8-.533c-.373-.083-.555-.478-.877-.76zm3.054 1.96c.056-.835.056-.835-.755-.872l.755.872zM52.58 45.318c-.171.07-.152.237-.267.339-.136-.406-.435-.766-.104-1.214.23-.315.381-.325.56.019.152.298.243.624.267.957.096 1.16.072 2.284-1.04 3.025-.198.133-.16.29-.064.45.421.689.333 1.401.106 2.135a.54.54 0 01-.048.114.188.188 0 01-.056.046c-.34-.825-.68-1.652-1.019-2.48a.97.97 0 01.451-1.257c.216-.117.435-.232.648-.355a1.369 1.369 0 00.566-1.779zM50.238 47.076c-.16-.382-.286-.702-.432-1.014-.083-.181.024-.31.088-.445.432-.918.856-1.838 1.31-2.742a.444.444 0 00-.12-.654c-.446-.362-.44-.584-.06-1.008.067-.075.105-.104.209-.045.652.355.94 1.15.667 1.84l-1.662 4.068zM37.472 65.83c-.515-.235-.408-.574-.224-.894.614-1.067 1.6-1.6 2.772-1.822.31-.082.633-.097.95-.045.388.088.49.253.335.621a3.425 3.425 0 01-1.587 1.6c-.139.078-.373.075-.219.385.078.154-.138.362-.266.506a3.662 3.662 0 01-2.4 1.083.444.444 0 01-.465-.17.484.484 0 01.096-.534 2.22 2.22 0 011.008-.73zm1.105-.563a1.72 1.72 0 001.248-.88c.08-.227-.032-.294-.227-.297a1.525 1.525 0 00-1.182.851c-.088.246.003.323.16.326zm-.171.842c.021-.093-.027-.125-.11-.144-.232-.05-.8.323-.818.534a.123.123 0 00.112.15c.221.066.792-.318.818-.54h-.002zM44.37 62.786l-2.686 2.537c.44.152.661-.222.987-.19-.294.534-1.651 1.262-2.72 1.457-.03-.12.074-.169.13-.233.91-.999 1.819-2 2.726-3 .584-.64.581-.643 1.49-.675l.073.104zM23.573 36.855c-.325 0-.605.032-.701-.227-.096-.259.125-.397.266-.552a4.462 4.462 0 011.662-1.067c.112-.045.165-.11.181.112.016.221.19.016.251-.024a6.847 6.847 0 012.489-.976c.306-.059.69-.163.861.165.152.288-.154.534-.344.731-.444.46-.982.82-1.579 1.051-.984.414-2.024.68-3.086.787zm3.286-1.934c-.502.07-.978.267-1.381.573-.075.06-.174.134-.11.251.064.118.155.067.235.054a2.954 2.954 0 001.422-.58c.074-.06.178-.133.114-.247-.064-.115-.152-.056-.28-.051zm-2.278.627a1.362 1.362 0 00-.682.341c-.062.056-.15.115-.1.216.052.102.126.043.193.054.448.077.552-.222.59-.611zm.144-.136s-.02-.019-.026-.016c-.006.002-.043.04 0 .058.042.02.021 0 .03-.013 0-.01-.001-.02-.004-.03zM20.746 39.453c.04-.504.246-.981.584-1.358.07-.1.178-.17.299-.192 1.461-.195 2.934-.397 4.385-.597a2.52 2.52 0 01.317 0c-.33.626-.707 1.053-1.49 1.045-.881 0-1.761.12-2.644.182-.182.013-.32.029-.384.266-.208.72-.216.718-1.067.654zM48.75 39.58c-1.283 0-2.468-.303-3.439-1.197a2.612 2.612 0 01-.632-.824c-.17-.381-.072-.598.339-.715.68-.192 1.352-.021 2.016.096 1.025.184 1.998.51 2.742 1.294.251.267.627.533.478.95-.15.415-.616.354-.984.394-.173.01-.347.011-.52.003zm-.286-.935c.178.01.356.01.534 0 .12-.014.288 0 .312-.171.018-.123-.096-.208-.19-.267a1.368 1.368 0 00-.339-.19 6.773 6.773 0 00-2.261-.317c-.139 0-.358-.032-.4.174-.043.205.128.266.266.365.121.079.251.142.387.19.55.157 1.12.233 1.691.224v-.008zM46.232 35.417l-.878-.61c1.174.114 1.918.93 2.763 1.578l-.048.11-2.934-.632c-.362-.08-.722-.184-1.09-.23-.7-.082-1.26-.355-1.553-1.04l3.67.893a.11.11 0 00.166.032l-.096-.1z" fill="#fff" fill-rule="nonzero"/></g></svg>