<?xml version="1.0" encoding="UTF-8" standalone="no"?>
<!DOCTYPE svg PUBLIC "-//W3C//DTD SVG 1.1//EN" "http://www.w3.org/Graphics/SVG/1.1/DTD/svg11.dtd">
<svg width="100%" height="100%" viewBox="0 0 72 72" version="1.1" xmlns="http://www.w3.org/2000/svg" xmlns:xlink="http://www.w3.org/1999/xlink" xml:space="preserve" xmlns:serif="http://www.serif.com/" style="fill-rule:evenodd;clip-rule:evenodd;stroke-linejoin:round;stroke-miterlimit:2;">
    <g transform="matrix(0.266727,0,0,0.266727,1.21874,0.438561)">
        <g id="Layer_1">
            <g transform="matrix(3.74915,0,0,3.74915,-4.56923,-1.64423)">
                <path d="M22.071,64.144L20.909,66.558L23.064,67.507L23.967,65.253L22.071,64.144Z" style="fill:white;fill-rule:nonzero;"/>
            </g>
            <g transform="matrix(3.74915,0,0,3.74915,-4.56923,-1.64423)">
                <path d="M54.961,42.817L54.961,44.351L67.338,50.311L68.287,48.156L54.961,42.817Z" style="fill:white;fill-rule:nonzero;"/>
            </g>
            <g transform="matrix(3.74915,0,0,3.74915,-4.56923,-1.64423)">
                <path d="M27.57,31.159L4.662,20.126L3.713,22.284L26.873,31.563L27.57,31.159Z" style="fill:white;fill-rule:nonzero;"/>
            </g>
            <g transform="matrix(3.74915,0,0,3.74915,-4.56923,-1.64423)">
                <path d="M27.57,31.159L4.662,20.126L3.713,22.284L26.873,31.563L27.57,31.159Z" style="fill:white;fill-rule:nonzero;"/>
            </g>
            <g transform="matrix(3.74915,0,0,3.74915,-4.56923,-1.64423)">
                <path d="M54.961,53.744L54.961,56.437L59.179,61.156L60.88,59.527L54.961,53.744Z" style="fill:white;fill-rule:nonzero;"/>
            </g>
            <g transform="matrix(3.74915,0,0,3.74915,-4.56923,-1.64423)">
                <path d="M30.735,29.328L12.821,9.283L11.12,10.91L30.254,29.606L30.735,29.328Z" style="fill:white;fill-rule:nonzero;"/>
            </g>
            <g transform="matrix(3.74915,0,0,3.74915,-4.56923,-1.64423)">
                <path d="M15.934,53.15L10.063,58.396L11.69,60.1L15.934,55.757L15.934,53.15Z" style="fill:white;fill-rule:nonzero;"/>
            </g>
            <g transform="matrix(3.74915,0,0,3.74915,-4.56923,-1.64423)">
                <path d="M41.166,29.932L41.62,30.198L61.937,12.041L60.31,10.339L41.166,29.932Z" style="fill:white;fill-rule:nonzero;"/>
            </g>
            <g transform="matrix(3.74915,0,0,3.74915,-4.56923,-1.64423)">
                <path d="M49.926,35.057L51.712,36.102L70.728,37.17L70.781,34.814L49.926,35.057Z" style="fill:white;fill-rule:nonzero;"/>
            </g>
            <g transform="matrix(3.74915,0,0,3.74915,-4.56923,-1.64423)">
                <path d="M21.923,34.428L1.272,33.267L1.219,35.623L20.241,35.402L21.326,34.774L21.923,34.428Z" style="fill:white;fill-rule:nonzero;"/>
            </g>
            <g transform="matrix(3.74915,0,0,3.74915,-4.56923,-1.64423)">
                <path d="M35.633,3.759L35.595,0.439L37.95,0.492L37.751,4.028C37.597,3.993 37.442,3.961 37.286,3.933C36.733,3.83 36.181,3.773 35.633,3.759Z" style="fill:white;fill-rule:nonzero;"/>
            </g>
            <g transform="matrix(3.74915,0,0,3.74915,-4.56923,-1.64423)">
                <path d="M26.526,8.143C26.041,8.765 25.62,9.439 25.275,10.156L22.317,3.242L24.512,2.388L26.526,8.143Z" style="fill:white;fill-rule:nonzero;"/>
            </g>
            <g transform="matrix(3.74915,0,0,3.74915,-4.56923,-1.64423)">
                <path d="M31.651,4.413C30.97,4.66 30.314,4.973 29.695,5.343L28.817,1.185L31.138,0.777L31.651,4.413Z" style="fill:white;fill-rule:nonzero;"/>
            </g>
            <g transform="matrix(3.74915,0,0,3.74915,-4.56923,-1.64423)">
                <path d="M41.523,5.656L42.388,1.028L44.687,1.54L43.257,7.086C42.729,6.556 42.149,6.076 41.523,5.656Z" style="fill:white;fill-rule:nonzero;"/>
            </g>
            <g transform="matrix(3.74915,0,0,3.74915,-4.56923,-1.64423)">
                <path d="M24.194,15.207C24.211,16.518 24.454,17.81 24.906,19.028L16.34,6.525L18.327,5.261L24.194,15.207Z" style="fill:white;fill-rule:nonzero;"/>
            </g>
            <g transform="matrix(3.74915,0,0,3.74915,-4.56923,-1.64423)">
                <path d="M36.395,3.806L36.437,0.439L38.793,0.548L38.496,4.225C38.102,4.106 37.698,4.008 37.286,3.933C36.988,3.878 36.691,3.836 36.395,3.806Z" style="fill:white;fill-rule:nonzero;"/>
            </g>
            <g transform="matrix(3.74915,0,0,3.74915,-4.56923,-1.64423)">
                <path d="M29.475,30.057L28.935,30.369L7.324,15.533L8.722,13.636L29.475,30.057Z" style="fill:white;fill-rule:nonzero;"/>
            </g>
            <g transform="matrix(3.74915,0,0,3.74915,-4.56923,-1.64423)">
                <path d="M46.064,11.764L49.715,3.255L51.846,4.255L46.549,14.606C46.51,13.626 46.343,12.672 46.064,11.764Z" style="fill:white;fill-rule:nonzero;"/>
            </g>
            <g transform="matrix(3.74915,0,0,3.74915,-4.56923,-1.64423)">
                <path d="M27.054,7.513C26.535,8.088 26.073,8.717 25.681,9.391L23.096,2.919L25.312,2.119L27.054,7.513Z" style="fill:white;fill-rule:nonzero;"/>
            </g>
            <g transform="matrix(3.74915,0,0,3.74915,-4.56923,-1.64423)">
                <path d="M32.383,4.175C31.689,4.374 31.018,4.64 30.377,4.966L29.644,1.023L31.975,0.671L32.383,4.175Z" style="fill:white;fill-rule:nonzero;"/>
            </g>
            <g transform="matrix(3.74915,0,0,3.74915,-4.56923,-1.64423)">
                <path d="M40.07,29.291L55.687,6.544L57.584,7.942L40.495,29.539L40.07,29.291Z" style="fill:white;fill-rule:nonzero;"/>
            </g>
            <g transform="matrix(3.74915,0,0,3.74915,-4.56923,-1.64423)">
                <path d="M29.285,30.166L8.207,14.303L6.855,16.231L28.734,30.486L29.285,30.166Z" style="fill:white;fill-rule:nonzero;"/>
            </g>
            <g transform="matrix(3.74915,0,0,3.74915,-4.56923,-1.64423)">
                <path d="M16.642,60.939L15.083,63.01L17.014,64.362L18.513,62.063L16.966,61.158C16.85,61.095 16.741,61.021 16.642,60.939Z" style="fill:white;fill-rule:nonzero;"/>
            </g>
            <g transform="matrix(3.74915,0,0,3.74915,-4.56923,-1.64423)">
                <path d="M39.92,29.203L40.342,29.45L56.917,7.427L54.988,6.075L39.92,29.203Z" style="fill:white;fill-rule:nonzero;"/>
            </g>
            <g transform="matrix(3.74915,0,0,3.74915,-4.56923,-1.64423)">
                <path d="M46.438,33.017L47.443,33.604L70.443,30.357L70.034,28.037L46.438,33.017Z" style="fill:white;fill-rule:nonzero;"/>
            </g>
            <g transform="matrix(3.74915,0,0,3.74915,-4.56923,-1.64423)">
                <path d="M16.214,38.013L1.557,40.082L1.966,42.403L15.934,39.455L15.934,39.094C15.92,38.707 16.021,38.333 16.214,38.013Z" style="fill:white;fill-rule:nonzero;"/>
            </g>
            <g transform="matrix(3.74915,0,0,3.74915,-4.56923,-1.64423)">
                <path d="M42.816,67.514L40.728,68.71L40.862,69.662L43.183,69.254L42.816,67.514Z" style="fill:white;fill-rule:nonzero;"/>
            </g>
            <g transform="matrix(3.74915,0,0,3.74915,-4.56923,-1.64423)">
                <path d="M44.204,31.709L44.888,32.11L68.831,23.732L67.978,21.537L44.204,31.709Z" style="fill:white;fill-rule:nonzero;"/>
            </g>
            <g transform="matrix(3.74915,0,0,3.74915,-4.56923,-1.64423)">
                <path d="M15.934,42.241L3.169,46.708L4.022,48.903L15.934,43.806L15.934,42.241Z" style="fill:white;fill-rule:nonzero;"/>
            </g>
            <g transform="matrix(3.74915,0,0,3.74915,-4.56923,-1.64423)">
                <path d="M48.44,64.292L46.551,65.374L47.488,68.051L49.683,67.198L48.44,64.292Z" style="fill:white;fill-rule:nonzero;"/>
            </g>
            <g transform="matrix(3.74915,0,0,3.74915,-4.56923,-1.64423)">
                <path d="M45.752,10.88L48.936,2.932L51.091,3.879L46.452,13.515C46.325,12.6 46.087,11.717 45.752,10.88Z" style="fill:white;fill-rule:nonzero;"/>
            </g>
            <g transform="matrix(3.74915,0,0,3.74915,-4.56923,-1.64423)">
                <path d="M30.903,29.23L13.456,8.728L11.717,10.315L30.428,29.505L30.903,29.23Z" style="fill:white;fill-rule:nonzero;"/>
            </g>
            <g transform="matrix(3.74915,0,0,3.74915,-4.56923,-1.64423)">
                <path d="M15.934,52.294L9.509,57.761L11.096,59.503L15.934,54.786L15.934,52.294Z" style="fill:white;fill-rule:nonzero;"/>
            </g>
            <g transform="matrix(3.74915,0,0,3.74915,-4.56923,-1.64423)">
                <path d="M41.327,30.026L41.787,30.295L62.491,12.676L60.904,10.937L41.327,30.026Z" style="fill:white;fill-rule:nonzero;"/>
            </g>
            <g transform="matrix(3.74915,0,0,3.74915,-4.56923,-1.64423)">
                <path d="M50.516,35.402L52.471,36.547L70.672,38.012L70.781,35.657L50.516,35.402Z" style="fill:white;fill-rule:nonzero;"/>
            </g>
            <g transform="matrix(3.74915,0,0,3.74915,-4.56923,-1.64423)">
                <path d="M22.442,34.128L1.328,32.427L1.219,34.78L20.886,35.029L21.326,34.774L22.442,34.128Z" style="fill:white;fill-rule:nonzero;"/>
            </g>
            <g transform="matrix(3.74915,0,0,3.74915,-4.56923,-1.64423)">
                <path d="M42.543,30.738L43.073,31.048L65.959,17.546L64.695,15.562L42.543,30.738Z" style="fill:white;fill-rule:nonzero;"/>
            </g>
            <g transform="matrix(3.74915,0,0,3.74915,-4.56923,-1.64423)">
                <path d="M15.934,47.057L6.041,52.893L7.305,54.878L15.934,48.967L15.934,47.057Z" style="fill:white;fill-rule:nonzero;"/>
            </g>
            <g transform="matrix(3.74915,0,0,3.74915,-4.56923,-1.64423)">
                <path d="M53.81,61.217L51.961,62.276L53.673,65.179L55.658,63.914L53.81,61.217Z" style="fill:white;fill-rule:nonzero;"/>
            </g>
            <g transform="matrix(3.74915,0,0,3.74915,-4.56923,-1.64423)">
                <path d="M27.692,67.431L27.313,68.902L29.612,69.412L29.756,68.638L27.692,67.431Z" style="fill:white;fill-rule:nonzero;"/>
            </g>
            <g transform="matrix(3.74915,0,0,3.74915,-4.56923,-1.64423)">
                <path d="M54.92,38.755C54.954,38.916 54.968,39.083 54.961,39.251L54.961,40.11L69.682,43.907L70.192,41.608L54.92,38.755Z" style="fill:white;fill-rule:nonzero;"/>
            </g>
            <g transform="matrix(3.74915,0,0,3.74915,-4.56923,-1.64423)">
                <path d="M25.316,32.464L2.32,26.533L1.808,28.829L24.325,33.038L25.316,32.464Z" style="fill:white;fill-rule:nonzero;"/>
            </g>
            <g transform="matrix(3.74915,0,0,3.74915,-4.56923,-1.64423)">
                <path d="M54.961,47.573L54.961,49.49L63.793,56.137L65.145,54.208L54.961,47.573Z" style="fill:white;fill-rule:nonzero;"/>
            </g>
            <g transform="matrix(3.74915,0,0,3.74915,-4.56923,-1.64423)">
                <path d="M16.144,60.312L14.416,62.495L16.313,63.896L17.841,61.67L16.966,61.158C16.605,60.963 16.322,60.665 16.144,60.312Z" style="fill:white;fill-rule:nonzero;"/>
            </g>
            <g transform="matrix(3.74915,0,0,3.74915,-4.56923,-1.64423)">
                <path d="M46.779,33.216L47.844,33.839L70.549,31.192L70.197,28.864L46.779,33.216Z" style="fill:white;fill-rule:nonzero;"/>
            </g>
            <g transform="matrix(3.74915,0,0,3.74915,-4.56923,-1.64423)">
                <path d="M16.703,37.468L1.451,39.245L1.803,41.576L15.934,38.949C15.956,38.364 16.241,37.82 16.703,37.468Z" style="fill:white;fill-rule:nonzero;"/>
            </g>
            <g transform="matrix(3.74915,0,0,3.74915,-4.56923,-1.64423)">
                <path d="M42.081,67.935L39.956,69.152L40.028,69.769L42.356,69.417L42.081,67.935Z" style="fill:white;fill-rule:nonzero;"/>
            </g>
            <g transform="matrix(3.74915,0,0,3.74915,-4.56923,-1.64423)">
                <path d="M44.44,31.848L45.153,32.265L69.101,24.532L68.301,22.316L44.44,31.848Z" style="fill:white;fill-rule:nonzero;"/>
            </g>
            <g transform="matrix(3.74915,0,0,3.74915,-4.56923,-1.64423)">
                <path d="M15.934,41.699L2.899,45.908L3.699,48.124L15.934,43.236L15.934,41.699Z" style="fill:white;fill-rule:nonzero;"/>
            </g>
            <g transform="matrix(3.74915,0,0,3.74915,-4.56923,-1.64423)">
                <path d="M47.768,64.677L45.864,65.768L46.688,68.321L48.904,67.521L47.768,64.677Z" style="fill:white;fill-rule:nonzero;"/>
            </g>
            <g transform="matrix(3.74915,0,0,3.74915,-4.56923,-1.64423)">
                <path d="M21.411,63.758L21.399,63.751L20.154,66.184L22.285,67.184L23.285,64.854L21.411,63.758Z" style="fill:white;fill-rule:nonzero;"/>
            </g>
            <g transform="matrix(3.74915,0,0,3.74915,-4.56923,-1.64423)">
                <path d="M54.961,43.356L54.961,44.923L66.964,51.066L67.965,48.935L54.961,43.356Z" style="fill:white;fill-rule:nonzero;"/>
            </g>
            <g transform="matrix(3.74915,0,0,3.74915,-4.56923,-1.64423)">
                <path d="M27.803,31.024L5.036,19.371L4.035,21.505L27.13,31.414L27.803,31.024Z" style="fill:white;fill-rule:nonzero;"/>
            </g>
            <g transform="matrix(3.74915,0,0,3.74915,-4.56923,-1.64423)">
                <path d="M54.961,54.664L54.961,57.501L58.544,61.711L60.283,60.121L54.961,54.664Z" style="fill:white;fill-rule:nonzero;"/>
            </g>
            <g transform="matrix(3.74915,0,0,3.74915,-4.56923,-1.64423)">
                <path d="M42.728,30.846L43.272,31.164L66.38,18.277L65.164,16.261L42.728,30.846Z" style="fill:white;fill-rule:nonzero;"/>
            </g>
            <g transform="matrix(3.74915,0,0,3.74915,-4.56923,-1.64423)">
                <path d="M15.934,46.409L5.62,52.16L6.839,54.179L15.934,48.266L15.934,46.409Z" style="fill:white;fill-rule:nonzero;"/>
            </g>
            <g transform="matrix(3.74915,0,0,3.74915,-4.56923,-1.64423)">
                <path d="M53.148,61.596L51.299,62.655L52.94,65.597L54.959,64.381L53.148,61.596Z" style="fill:white;fill-rule:nonzero;"/>
            </g>
            <g transform="matrix(3.74915,0,0,3.74915,-4.56923,-1.64423)">
                <path d="M24.232,14.115C24.138,15.24 24.213,16.362 24.446,17.446L17.041,6.056L19.06,4.84L24.232,14.115Z" style="fill:white;fill-rule:nonzero;"/>
            </g>
            <g transform="matrix(3.74915,0,0,3.74915,-4.56923,-1.64423)">
                <path d="M42.17,6.123L43.215,1.193L45.503,1.759L43.818,7.694C43.323,7.118 42.771,6.591 42.17,6.123Z" style="fill:white;fill-rule:nonzero;"/>
            </g>
            <g transform="matrix(3.74915,0,0,3.74915,-4.56923,-1.64423)">
                <path d="M26.973,67.011L26.499,68.681L28.785,69.246L29.007,68.2L26.973,67.011Z" style="fill:white;fill-rule:nonzero;"/>
            </g>
            <g transform="matrix(3.74915,0,0,3.74915,-4.56923,-1.64423)">
                <path d="M54.962,39.24L54.961,39.251L54.961,40.605L69.461,44.723L70.026,42.435L54.962,39.24Z" style="fill:white;fill-rule:nonzero;"/>
            </g>
            <g transform="matrix(3.74915,0,0,3.74915,-4.56923,-1.64423)">
                <path d="M25.638,32.278L2.539,25.719L1.974,28.005L24.696,32.823L25.638,32.278Z" style="fill:white;fill-rule:nonzero;"/>
            </g>
            <g transform="matrix(3.74915,0,0,3.74915,-4.56923,-1.64423)">
                <path d="M54.961,48.237L54.961,50.223L63.278,56.803L64.676,54.907L54.961,48.237Z" style="fill:white;fill-rule:nonzero;"/>
            </g>
        </g>
        <g id="Layer_4">
            <g transform="matrix(3.74915,0,0,3.74915,-4.56923,-1.64423)">
                <path d="M25.853,32.153C24.674,31.026 23.658,29.688 22.781,28.17C21.763,26.393 21.06,24.453 20.706,22.436C20.631,22.019 20.511,21.825 20.082,21.902C19.716,21.966 19.567,21.814 19.618,21.446C19.639,21.299 19.618,21.145 19.618,20.998C19.69,20.504 19.575,20.198 18.985,20.315C18.756,20.36 18.655,20.254 18.657,20.003C18.657,19.24 18.676,18.475 18.657,17.712C18.657,17.389 18.801,17.32 19.063,17.36C19.559,17.44 19.682,17.2 19.618,16.762C19.596,16.616 19.618,16.461 19.618,16.317C19.538,15.765 19.65,15.413 20.322,15.533C20.658,15.591 20.642,15.317 20.685,15.098C21.252,11.817 22.718,8.756 24.92,6.259C30.943,-0.519 40.7,-0.202 46.397,6.955C48.263,9.315 49.516,12.101 50.046,15.063C50.105,15.378 50.153,15.597 50.542,15.541C50.782,15.501 50.881,15.615 50.865,15.858C50.849,16.101 50.865,16.306 50.865,16.528C50.835,17.029 50.777,17.536 51.561,17.362C51.753,17.32 51.828,17.448 51.828,17.629L51.828,20.03C51.828,20.296 51.692,20.355 51.481,20.315C50.931,20.214 50.809,20.488 50.87,20.963C50.891,21.145 50.87,21.337 50.87,21.521C50.897,21.787 50.809,21.95 50.502,21.902C50.195,21.854 50.121,22.022 50.065,22.31C49.39,25.799 47.957,28.922 45.493,31.523C45.304,31.729 45.11,31.929 44.91,32.123L40.063,29.287C41.11,27.014 42.355,24.841 43.652,22.702C44.285,21.657 45.109,20.731 45.605,19.592C46.23,18.163 46.553,16.619 46.553,15.059C46.553,9.62 42.63,4.913 37.28,3.933C30.978,2.772 24.789,7.512 24.245,13.911C23.918,17.143 24.987,20.365 27.179,22.761C27.91,23.588 28.334,24.628 28.862,25.583C29.536,26.806 30.207,28.031 30.802,29.289L30.044,29.727L25.853,32.153Z" style="fill:white;fill-rule:nonzero;"/>
            </g>
            <g transform="matrix(3.74915,0,0,3.74915,-4.56923,-1.64423)">
                <path d="M30.342,28.344C24.714,26.406 20.69,21.294 20.69,15.301C20.69,7.643 27.258,1.425 35.349,1.425C43.44,1.425 50.009,7.643 50.009,15.301C50.009,21.226 46.076,26.288 40.55,28.276C41.489,26.366 42.554,24.522 43.658,22.702C44.29,21.657 45.114,20.731 45.61,19.592C46.235,18.163 46.558,16.619 46.558,15.059C46.558,9.62 42.635,4.913 37.286,3.933C30.983,2.764 24.784,7.51 24.251,13.911C23.924,17.143 24.992,20.365 27.185,22.761C27.915,23.588 28.334,24.623 28.868,25.583C29.37,26.498 29.872,27.414 30.342,28.344Z" style="fill:white;"/>
            </g>
        </g>
        <g id="Layer_2">
            <g transform="matrix(3.74915,0,0,3.74915,-4.56923,-1.64423)">
                <path d="M30.804,29.286C30.99,29.678 31.169,30.074 31.337,30.474C31.32,30.484 31.304,30.494 31.287,30.504C27.078,32.937 22.877,35.372 18.684,37.81C18.097,38.148 18.097,38.586 18.684,38.93C20.018,39.717 21.351,40.49 22.685,41.269C22.88,41.376 23.095,41.442 23.317,41.461C23.752,41.436 24.154,41.215 24.408,40.861C25.507,39.407 26.622,37.965 27.753,36.537C29.084,34.856 30.393,33.154 31.737,31.48C31.871,31.84 31.996,32.204 32.11,32.573L25.502,41.005C25.342,41.211 25.134,41.421 25.262,41.704C25.39,41.987 25.712,41.971 25.987,41.971L35.272,41.971L35.277,41.981L44.562,41.981C44.829,41.981 45.149,42.003 45.295,41.715C45.442,41.427 45.239,41.219 45.079,41.008C42.933,38.179 40.786,35.35 38.641,32.521C38.747,32.293 38.899,32.038 39.114,31.529L41.86,35.046C43.37,36.978 44.887,38.903 46.394,40.84C46.655,41.207 47.073,41.432 47.523,41.448L47.523,41.461C47.755,41.434 47.98,41.359 48.181,41.24C49.494,40.472 50.809,39.712 52.118,38.941C52.724,38.583 52.724,38.156 52.118,37.799C47.934,35.368 43.747,32.942 39.555,30.52L39.531,30.506C39.703,30.098 39.882,29.693 40.067,29.291L53.889,37.378C54.571,37.744 54.987,38.471 54.956,39.245L54.956,59.337C54.984,60.1 54.567,60.812 53.889,61.162L36.301,71.236C36.107,71.345 35.904,71.447 35.707,71.553L34.768,71.561C28.839,68.098 22.91,64.63 16.98,61.159C16.324,60.804 15.925,60.106 15.95,59.361L15.95,39.09C15.925,38.351 16.322,37.658 16.972,37.306C21.581,34.632 26.192,31.959 30.804,29.286ZM35.661,66.571L35.661,69.009C35.688,69.654 36.051,69.862 36.616,69.566C36.704,69.521 36.792,69.468 36.883,69.417L45.263,64.629C46.761,63.772 48.254,62.91 49.744,62.042C49.985,61.901 50.363,61.703 50.254,61.418C50.145,61.132 49.72,61.191 49.427,61.226C48.299,61.354 47.171,61.492 46.045,61.65C43.01,62.047 39.977,62.45 36.942,62.847C36.112,62.954 35.667,63.426 35.661,64.261C35.656,65.032 35.659,65.8 35.661,66.571ZM34.701,66.547L34.701,64.146C34.736,63.492 34.239,62.92 33.586,62.863C32.207,62.669 30.825,62.49 29.444,62.314C27.955,62.127 26.462,61.951 24.976,61.751C23.875,61.602 22.768,61.455 21.669,61.276C21.342,61.203 21.004,61.195 20.674,61.252C20.559,61.279 20.423,61.274 20.378,61.396C20.332,61.519 20.423,61.65 20.522,61.735C20.715,61.911 20.922,62.07 21.141,62.213C25.337,64.656 29.535,67.096 33.735,69.532C34.333,69.878 34.688,69.673 34.698,68.982C34.709,68.174 34.701,67.36 34.701,66.547ZM17.566,58.945C17.562,58.981 17.559,59.017 17.559,59.053C17.559,59.478 17.899,59.833 18.324,59.852C19.012,59.953 19.703,60.039 20.394,60.119L30.529,61.474L33.247,61.847C33.303,61.869 33.363,61.88 33.423,61.88C33.687,61.88 33.905,61.662 33.905,61.397C33.905,61.278 33.861,61.162 33.781,61.074C33.735,60.983 33.682,60.895 33.634,60.807L31.37,56.806C29.862,54.151 28.35,51.496 26.835,48.842C26.003,47.375 25.169,45.908 24.333,44.441C24.232,44.262 24.099,44.083 23.867,44.097C23.635,44.11 23.53,44.299 23.44,44.486C23.4,44.563 23.373,44.646 23.341,44.726C21.463,49.331 19.585,53.929 17.705,58.518C17.641,58.681 17.596,58.849 17.566,58.932L17.566,58.945ZM37.014,61.879C37.731,61.789 38.438,61.703 39.147,61.613L47.56,60.498C49.16,60.287 50.761,60.084 52.361,59.865C53.057,59.769 53.308,59.332 53.052,58.681C52.871,58.222 52.676,57.769 52.484,57.316C50.714,53.085 48.944,48.857 47.173,44.63C47.077,44.401 46.984,44.147 46.698,44.115C46.413,44.083 46.274,44.334 46.165,44.545C45.338,45.958 44.511,47.367 43.695,48.786C41.917,51.878 40.145,54.973 38.379,58.07C37.806,59.073 37.224,60.071 36.661,61.079C36.36,61.554 36.525,61.871 37.014,61.871L37.014,61.879ZM35.258,42.942L25.923,42.942C25.764,42.935 25.604,42.942 25.446,42.963C25.184,42.982 24.978,43.203 24.978,43.466C24.978,43.536 24.993,43.605 25.021,43.67C25.082,43.817 25.155,43.959 25.24,44.094C27.129,47.426 29.016,50.757 30.903,54.085C32.135,56.257 33.367,58.427 34.597,60.596C34.978,61.263 35.397,61.263 35.779,60.596L35.885,60.407L45.042,44.478C45.203,44.22 45.348,43.953 45.477,43.678C45.516,43.606 45.536,43.525 45.536,43.443C45.536,43.176 45.322,42.955 45.055,42.947C44.911,42.931 44.766,42.926 44.621,42.931L35.258,42.942ZM53.681,47.796L53.681,40.344C53.681,39.615 53.311,39.397 52.673,39.746C51.265,40.52 49.856,41.293 48.456,42.083C47.72,42.501 47.544,43.038 47.864,43.803C49.464,47.624 51.065,51.448 52.665,55.272C52.774,55.558 52.933,55.821 53.135,56.051C53.313,56.243 53.449,56.235 53.543,55.977C53.646,55.674 53.693,55.355 53.684,55.035C53.68,52.62 53.68,50.207 53.681,47.796ZM17.174,40.477L17.174,54.904C17.166,55.18 17.191,55.456 17.246,55.726C17.286,55.897 17.308,56.123 17.481,56.163C17.654,56.203 17.793,55.987 17.892,55.835C18.019,55.641 18.127,55.435 18.212,55.219C18.561,54.315 18.953,53.429 19.335,52.552C19.927,51.165 20.474,49.762 21.058,48.369C21.717,46.801 22.392,45.246 23.058,43.675C23.316,43.104 23.068,42.422 22.504,42.149C22.221,41.987 21.893,41.901 21.629,41.717C20.511,40.949 19.247,40.448 18.113,39.717C18.039,39.67 17.957,39.635 17.871,39.615C17.817,39.596 17.76,39.586 17.703,39.586C17.493,39.586 17.306,39.721 17.238,39.92C17.179,40.099 17.157,40.289 17.174,40.477Z" style="fill:white;fill-rule:nonzero;"/>
            </g>
            <g transform="matrix(1,0,0,1,-21.94,-22.25)">
                <path d="M130.81,197.06L137,197.06C137.65,197.06 138.24,197.06 138.18,196.15C138.12,195.24 138.64,195.21 139.32,195.21L171.99,195.21C172.91,195.21 173.27,195.47 173.21,196.41C173.14,197.65 173.56,199.11 173.04,200.1C172.52,201.09 170.87,200.48 169.73,200.66C166.25,201.034 162.864,202.023 159.73,203.58C157.48,204.83 155.34,206.37 155.32,209.21C155.3,212.05 157.41,213.6 159.65,214.89C159.98,215.08 160.32,215.25 160.65,215.42C163.52,216.79 163.75,217.26 163.37,220.42C163.29,221.11 163,221.42 162.37,221.42L155.84,221.42C155.3,221.352 154.788,221.137 154.36,220.8C151.835,219.272 148.672,219.222 146.1,220.67C145.114,221.227 143.991,221.494 142.86,221.44C141.391,221.35 139.919,221.35 138.45,221.44C137.09,221.55 136.94,220.97 136.83,219.77C136.62,217.46 137.04,215.91 139.62,215.21C141.361,214.676 142.846,213.518 143.79,211.96C145.23,209.72 144.61,207.54 142.22,206.4C140.971,205.813 139.598,205.539 138.22,205.6C135.77,205.709 133.321,205.391 130.98,204.66C127.753,203.583 125.107,201.224 123.67,198.14C123.27,197.33 123.54,197.06 124.38,197.07L130.75,197.07L130.81,197.06ZM155.69,197.93L170.21,197.93C170.67,197.93 171.51,198.28 171.47,197.43C171.47,196.78 170.68,197.06 170.25,197.06L141.2,197.06C140.74,197.06 139.91,196.7 139.94,197.55C139.94,198.19 140.73,197.94 141.17,197.94C146,197.94 150.85,197.93 155.69,197.93ZM127.8,198.69C128.26,199.07 128.834,199.284 129.43,199.3C131.977,199.407 134.527,199.503 137.08,199.59C137.48,199.59 138.08,199.75 138.08,199.12C138.08,198.49 137.43,198.69 137.08,198.69L127.8,198.69Z" style="fill:white;fill-rule:nonzero;"/>
            </g>
            <g transform="matrix(1,0,0,1,-21.94,-22.25)">
                <path d="M186.12,226.57C184.68,229.2 183.37,231.44 182.21,233.75C181.64,234.9 181.09,235.19 179.85,234.66C177.16,233.54 177.12,233.66 178.55,231.14C181.14,226.67 183.73,222.19 186.35,217.74C186.62,217.28 186.73,216.35 187.45,216.56C188.17,216.77 189.14,217.04 189.35,218.26C189.85,221.19 190.57,224.08 191.18,226.99C191.406,228.595 191.943,230.14 192.76,231.54C193.298,232.52 194.365,233.097 195.48,233.01C196.74,232.87 197.31,231.92 197.69,230.86C198.167,229.823 197.791,228.58 196.82,227.98C196.02,227.46 196.05,226.98 196.45,226.24C197.021,225.187 197.538,224.105 198,223C198.36,222.15 198.75,222.08 199.41,222.67C201.2,224.08 202.13,226.327 201.86,228.59C201.482,231.746 200.193,234.725 198.15,237.16C196.918,238.801 194.95,239.731 192.9,239.64C190.74,239.56 189.55,238.29 188.72,236.57C187.29,233.55 186.88,230.25 186.12,226.57Z" style="fill:white;fill-rule:nonzero;"/>
            </g>
            <g transform="matrix(1,0,0,1,-21.94,-22.25)">
                <path d="M112.37,227.16C108.21,226.44 103.96,225.71 99.71,224.94C98.48,224.72 98.36,223.47 97.84,222.64C96.48,220.46 96.52,220.42 98.6,219.05C100.31,217.92 102.03,216.79 103.79,215.74C104.57,215.28 104.79,214.84 104.21,214.11C103.63,213.38 103.61,212.72 104.61,212.26C105.002,212.068 105.362,211.819 105.68,211.52C106.48,210.82 107.12,210.68 107.53,211.89C107.88,212.94 108.42,212.82 109.22,212.28C110.02,211.74 111.06,210.48 112.04,210.74C113.02,211 113.21,212.46 113.76,213.39C114.87,215.3 114.85,215.31 112.94,216.39C112.68,216.58 112.402,216.744 112.11,216.88C110.97,217.29 110.8,217.88 111.48,218.88C112.55,220.57 113.48,222.36 114.48,224.11C115.56,226.01 115.27,226.63 113.13,227.05C112.88,227.105 112.626,227.142 112.37,227.16ZM103.01,222.16L109.3,223.05C108.68,221.96 108.22,221.18 107.79,220.37C107.51,219.85 107.19,219.67 106.63,220.02C105.54,220.7 104.42,221.34 103,222.17L103.01,222.16Z" style="fill:white;fill-rule:nonzero;"/>
            </g>
            <g transform="matrix(1,0,0,1,-21.94,-22.25)">
                <path d="M112.14,238.6L117.48,242.6L114,243.76C113,244.08 112.67,243.16 112.1,242.76C109.79,241.19 107.34,239.76 106.01,237.09C105.66,236.39 105.61,235.98 106.47,235.64C111.57,233.64 116.663,231.61 121.75,229.55C122.49,229.24 122.82,229.43 123.15,230.07C123.68,231.07 124.22,232.07 124.84,233.07C125.46,234.07 125.07,234.12 124.25,234.39C120.31,235.71 116.4,237.11 112.14,238.6Z" style="fill:white;fill-rule:nonzero;"/>
            </g>
            <g transform="matrix(1,0,0,1,-21.94,-22.25)">
                <path d="M145.31,158C142.82,156.77 142.46,154.71 142.9,152.4C143.492,150.206 145.282,148.528 147.51,148.08C149.845,147.506 152.304,147.714 154.51,148.67C157.061,149.771 158.369,152.668 157.51,155.31C157.09,156.76 155.9,157.41 154.61,157.99C159.21,160.58 160.14,165.34 156.82,168.99C155.934,169.879 154.808,170.491 153.58,170.75C151.15,171.4 148.59,171.4 146.16,170.75C143.498,170.247 141.491,168.001 141.29,165.3C140.721,162.561 142.066,159.758 144.56,158.49C144.74,158.31 144.92,158.19 145.31,158ZM152.92,163.46C152.927,163.38 152.93,163.299 152.93,163.218C152.93,161.611 151.607,160.288 150,160.288C148.393,160.288 147.07,161.611 147.07,163.218C147.07,163.299 147.073,163.38 147.08,163.46C147.072,163.543 147.068,163.626 147.068,163.71C147.068,165.191 148.287,166.41 149.768,166.41C149.846,166.41 149.923,166.407 150,166.4C150.101,166.412 150.203,166.418 150.304,166.418C151.753,166.418 152.944,165.226 152.944,163.778C152.944,163.658 152.936,163.539 152.92,163.42L152.92,163.46ZM152.34,153.82C152.344,153.769 152.346,153.717 152.346,153.666C152.346,152.569 151.443,151.666 150.346,151.666C150.304,151.666 150.262,151.667 150.22,151.67C150.187,151.668 150.154,151.668 150.121,151.668C149.024,151.668 148.121,152.57 148.121,153.668C148.121,153.732 148.124,153.796 148.13,153.86C148.125,153.917 148.123,153.975 148.123,154.033C148.123,155.151 149.013,156.085 150.13,156.14C150.15,156.141 150.17,156.141 150.189,156.141C151.374,156.141 152.349,155.166 152.349,153.981C152.349,153.914 152.346,153.847 152.34,153.78L152.34,153.82Z" style="fill:white;fill-rule:nonzero;"/>
            </g>
            <g transform="matrix(1,0,0,1,-21.94,-22.25)">
                <path d="M86.47,194.51C86.543,193.041 86.882,191.598 87.47,190.25C88.19,188.95 88.95,188.87 89.77,190.11C90.91,191.917 91.669,193.939 92,196.05C92.649,198.985 92.611,202.031 91.89,204.95C91.728,205.645 91.479,206.317 91.15,206.95C90.24,208.61 89.35,208.59 88.32,206.95C86.46,204.01 85.97,200.65 85.32,197.35C84.561,194.29 84.452,191.105 85,188C85.155,187.256 85.383,186.529 85.68,185.83C85.95,185.2 86.28,184.34 87.18,184.75C87.91,185.09 88.64,185.88 88.18,186.75C87.72,187.62 88.36,189.42 86.36,189.33C86.06,189.33 86,190.06 85.97,190.5C85.911,191.855 86.08,193.211 86.47,194.51ZM87.6,197.21C87.718,198.588 88.056,199.938 88.6,201.21C88.78,201.6 88.96,202.11 89.47,202.04C89.98,201.97 89.93,201.48 90.03,201.11C90.313,199.66 90.167,198.158 89.61,196.79C89.38,196.06 89.23,194.79 88.38,194.95C87.53,195.11 87.66,196.29 87.6,197.21Z" style="fill:white;fill-rule:nonzero;"/>
            </g>
            <g transform="matrix(1,0,0,1,-21.94,-22.25)">
                <path d="M95.28,196.32C95.17,196.92 95.28,197.82 94.56,197.96C93.84,198.1 93.63,197.2 93.42,196.62C92.973,195.666 92.995,194.556 93.48,193.62C93.556,193.466 93.713,193.369 93.884,193.369C93.993,193.369 94.098,193.408 94.18,193.48C94.913,194.24 95.31,195.264 95.28,196.32Z" style="fill:white;fill-rule:nonzero;"/>
            </g>
            <g transform="matrix(1,0,0,1,-21.94,-22.25)">
                <path d="M123.44,260.22L125,260L121.61,256.29C124.1,256.34 126.27,256.61 127.53,258.93C129.03,261.69 131.9,261.19 134.29,261.65C137.52,262.28 138.38,263.18 138.29,266.5C138.29,267.69 138.29,268.89 138.22,270.08C138.22,270.52 138.22,271.08 137.55,270.9C136.2,270.61 134.77,270.64 133.73,269.38C132.49,267.88 131.09,266.5 129.73,265.07C128.966,264.104 127.916,263.404 126.73,263.07C125.33,262.76 124.65,261.28 123.44,260.22ZM134.89,267.57C135.1,264.44 135.1,264.44 132.06,264.3L134.89,267.57Z" style="fill:white;fill-rule:nonzero;"/>
            </g>
            <g transform="matrix(1,0,0,1,-21.94,-22.25)">
                <path d="M214.5,190.51C213.86,190.77 213.93,191.4 213.5,191.78C212.99,190.26 211.87,188.91 213.11,187.23C213.97,186.05 214.54,186.01 215.21,187.3C215.78,188.418 216.12,189.639 216.21,190.89C216.57,195.24 216.48,199.45 212.31,202.23C211.57,202.73 211.71,203.32 212.07,203.92C213.65,206.5 213.32,209.17 212.47,211.92C212.427,212.07 212.366,212.214 212.29,212.35C212.232,212.42 212.16,212.477 212.08,212.52C210.807,209.427 209.533,206.327 208.26,203.22C207.478,201.461 208.228,199.37 209.95,198.51C210.76,198.07 211.58,197.64 212.38,197.18C214.724,195.873 215.659,192.931 214.5,190.51Z" style="fill:white;fill-rule:nonzero;"/>
            </g>
            <g transform="matrix(1,0,0,1,-21.94,-22.25)">
                <path d="M205.72,197.1C205.12,195.67 204.65,194.47 204.1,193.3C203.79,192.62 204.19,192.14 204.43,191.63C206.05,188.19 207.64,184.74 209.34,181.35C209.57,181.057 209.696,180.696 209.696,180.323C209.696,179.741 209.389,179.2 208.89,178.9C207.22,177.54 207.24,176.71 208.67,175.12C208.92,174.84 209.06,174.73 209.45,174.95C211.894,176.283 212.973,179.261 211.95,181.85C209.91,186.86 207.86,191.86 205.72,197.1Z" style="fill:white;fill-rule:nonzero;"/>
            </g>
            <g transform="matrix(1,0,0,1,-21.94,-22.25)">
                <path d="M157.86,267.41C155.93,266.53 156.33,265.26 157.02,264.06C159.32,260.06 163.02,258.06 167.41,257.23C168.572,256.924 169.785,256.866 170.97,257.06C172.43,257.39 172.81,258.01 172.23,259.39C170.981,262.003 168.883,264.119 166.28,265.39C165.76,265.68 164.88,265.67 165.46,266.83C165.75,267.41 164.94,268.19 164.46,268.73C162.068,271.152 158.859,272.6 155.46,272.79C154.805,272.95 154.115,272.696 153.72,272.15C153.42,271.474 153.563,270.679 154.08,270.15C155.053,268.895 156.364,267.944 157.86,267.41ZM162,265.3C163.989,264.992 165.722,263.77 166.68,262C166.98,261.15 166.56,260.9 165.83,260.89C163.91,261.133 162.239,262.336 161.4,264.08C161.07,265 161.41,265.29 162,265.3ZM161.36,268.46C161.44,268.11 161.26,267.99 160.95,267.92C160.08,267.73 157.95,269.13 157.88,269.92C157.873,269.953 157.869,269.987 157.869,270.021C157.869,270.262 158.059,270.465 158.3,270.48C159.13,270.73 161.27,269.29 161.37,268.46L161.36,268.46Z" style="fill:white;fill-rule:nonzero;"/>
            </g>
            <g transform="matrix(1,0,0,1,-21.94,-22.25)">
                <path d="M183.72,256L173.65,265.51C175.3,266.08 176.13,264.68 177.35,264.8C176.25,266.8 171.16,269.53 167.15,270.26C167.04,269.81 167.43,269.63 167.64,269.39C171.053,265.643 174.46,261.893 177.86,258.14C180.05,255.74 180.04,255.73 183.45,255.61L183.72,256Z" style="fill:white;fill-rule:nonzero;"/>
            </g>
            <g transform="matrix(1,0,0,1,-21.94,-22.25)">
                <path d="M105.75,158.78C104.53,158.78 103.48,158.9 103.12,157.93C102.76,156.96 103.59,156.44 104.12,155.86C105.872,154.078 108.001,152.711 110.35,151.86C110.77,151.69 110.97,151.45 111.03,152.28C111.09,153.11 111.74,152.34 111.97,152.19C114.809,150.369 117.98,149.125 121.3,148.53C122.45,148.31 123.89,147.92 124.53,149.15C125.1,150.23 123.95,151.15 123.24,151.89C121.576,153.617 119.556,154.962 117.32,155.83C113.632,157.384 109.732,158.379 105.75,158.78ZM118.07,151.53C116.188,151.791 114.404,152.531 112.89,153.68C112.61,153.9 112.24,154.18 112.48,154.62C112.72,155.06 113.06,154.87 113.36,154.82C115.297,154.579 117.136,153.83 118.69,152.65C118.97,152.42 119.36,152.15 119.12,151.72C118.88,151.29 118.55,151.51 118.07,151.53ZM109.53,153.88C108.572,154.054 107.684,154.498 106.97,155.16C106.74,155.37 106.41,155.59 106.6,155.97C106.79,156.35 107.07,156.13 107.32,156.17C109,156.46 109.39,155.34 109.53,153.88ZM110.07,153.37C110.07,153.37 109.99,153.3 109.97,153.31C109.95,153.32 109.81,153.46 109.97,153.53C110.13,153.6 110.05,153.53 110.08,153.48C110.082,153.443 110.078,153.406 110.07,153.37Z" style="fill:white;fill-rule:nonzero;"/>
            </g>
            <g transform="matrix(1,0,0,1,-21.94,-22.25)">
                <path d="M95.15,168.52C95.304,166.63 96.074,164.842 97.34,163.43C97.605,163.054 98.007,162.795 98.46,162.71C103.94,161.98 109.46,161.22 114.9,160.47C115.296,160.445 115.694,160.445 116.09,160.47C114.85,162.82 113.44,164.42 110.5,164.39C107.2,164.39 103.9,164.84 100.59,165.07C99.91,165.12 99.39,165.18 99.15,166.07C98.37,168.77 98.34,168.76 95.15,168.52Z" style="fill:white;fill-rule:nonzero;"/>
            </g>
            <g transform="matrix(1,0,0,1,-21.94,-22.25)">
                <path d="M200.14,169C195.33,169 190.89,167.86 187.25,164.51C186.261,163.649 185.455,162.598 184.88,161.42C184.24,159.99 184.61,159.18 186.15,158.74C188.7,158.02 191.22,158.66 193.71,159.1C197.55,159.79 201.2,161.01 203.99,163.95C204.93,164.95 206.34,165.95 205.78,167.51C205.22,169.07 203.47,168.84 202.09,168.99C201.441,169.028 200.79,169.032 200.14,169ZM199.07,165.49C199.736,165.527 200.404,165.527 201.07,165.49C201.52,165.44 202.15,165.49 202.24,164.85C202.31,164.39 201.88,164.07 201.53,163.85C201.142,163.554 200.715,163.315 200.26,163.14C197.521,162.266 194.654,161.864 191.78,161.95C191.26,161.95 190.44,161.83 190.28,162.6C190.12,163.37 190.76,163.6 191.28,163.97C191.733,164.264 192.22,164.502 192.73,164.68C194.79,165.272 196.927,165.555 199.07,165.52L199.07,165.49Z" style="fill:white;fill-rule:nonzero;"/>
            </g>
            <g transform="matrix(1,0,0,1,-21.94,-22.25)">
                <path d="M190.7,153.39L187.41,151.1C191.81,151.53 194.6,154.59 197.77,157.02L197.59,157.43L186.59,155.06C185.23,154.76 183.88,154.37 182.5,154.2C179.88,153.89 177.78,152.87 176.68,150.3L190.44,153.65C190.512,153.781 190.65,153.863 190.8,153.863C190.895,153.863 190.987,153.83 191.06,153.77L190.7,153.39Z" style="fill:white;fill-rule:nonzero;"/>
            </g>
        </g>
    </g>
</svg>
