<svg xmlns="http://www.w3.org/2000/svg" viewBox="0 0 72 72"><path fill="#fff" d="M40.228 24.855l6.917 6.917-2.722 2.767-6.917-6.917zm12.65-12.628l6.917 6.916-2.744 2.767-6.917-6.917zm-.445 24.855L59.393 44l-2.743 2.766-7.14-6.916zm12.65-12.628L72 31.37l-2.722 2.767-6.917-6.917zm-27.376-5.132l6.961-6.917 2.744 2.745-6.916 6.916zm12.227 12.227l6.916-6.917 2.767 2.722-6.917 6.917zm12.204 12.227l6.917-6.962 2.767 2.745-7.14 6.916zM25.056 32.017l6.917-6.916 2.766 2.722-6.916 6.916zm12.205 12.205l6.96-6.917 2.723 2.722-6.917 6.917zm12.226 12.227l6.917-6.962 2.767 2.745-6.962 7.14zM14.949 50.112l6.961 6.917-2.722 2.766-6.961-6.96zm12.65-12.628l6.917 6.916-2.722 2.745-6.916-6.917zm-.379 24.855l6.917 6.917L31.393 72l-6.917-6.917zm12.606-12.628l6.917 6.916-2.722 2.745-6.917-6.917zM2.744 37.885l6.917 6.917-2.744 2.722L0 40.607zm12.651-12.628l6.917 6.917-2.745 2.744L12.651 28zm12.606-12.629l6.917 6.917-2.678 2.767-6.916-6.917zM40.607 0l6.962 6.917-2.745 2.744-7.14-6.917zM25.502 7.14L32.42.223l2.744 2.722-6.916 6.917zm-12.65 12.65l6.916-6.916 2.767 2.744-6.917 6.917zM.223 32.442l6.917-6.916 2.744 2.677-6.917 6.961zm12.182 12.182l6.917-6.916 2.767 2.744-6.917 6.917zM24.632 56.85l6.917-6.916 2.744 2.722-6.916 6.916zm12.182 12.227l6.962-6.916 2.744 2.677-6.917 6.961z"/></svg>