<svg width="72" height="72" version="1.1" xmlns="http://www.w3.org/2000/svg"><defs><clipPath clipPathUnits="userSpaceOnUse"/></defs><path d="M36 580.5c-1.3 0-2.1.6-2.8 1.3-1 1-1.9 3.9-1.9 3.9l-1 3c4.1 2.1 7.1 2.3 11.4 0l-1-3s-.9-3-1.9-4a3.8 3.8 0 0 0-2.8-1.2zm-9.3 19.1L22.6 612c4 4.2 8.6 5.2 13.4 5.2 4.8 0 9.3-1 13.4-5.2l-4-12.4a15 15 0 0 1-9.4 3.5 15 15 0 0 1-9.3-3.5zM16 618.3c-1.4 0-2.7 1.2-3.1 2.5l-4.5 15.6c-.6 2-.4 4.1 2.4 4.1H61c3 0 3.1-2 2.5-4.1L59 620.8c-.4-1.3-1.7-2.5-3-2.5h-4.5l1 3c.6 1.6.8 2.3 0 3.2-4 4.1-10.7 5.7-16.5 5.7a24 24 0 0 1-16.6-5.7c-.7-.8-.5-1.6 0-3.1l1-3.1z" fill="#fff" stroke-width="1" transform="translate(0 -574.5)"/></svg>