<svg xmlns="http://www.w3.org/2000/svg" width="72" height="72"><path d="M34.15 0a7.15 7.15 0 0 0-2.87 2.14c-1.1 1.22-1.12 3.38-2.52 4.22a4.98 4.98 0 0 1-4.5.2c-1.06-.51-1.21-2.03-2.01-2.9a8.58 8.58 0 0 0-2.3-1.88c-.4-.2-.83-.37-1.26-.34-.4.04-.86.2-1.1.5-.56.73-.47 1.79-.5 2.7-.09 1.4.6 2.8.33 4.19a11.56 11.56 0 0 1-2.16 4.43 20.23 20.23 0 0 1-1.9 2.28l-.23.3s-3.24 5.4-6.48 11.34c-1.6 2.87-3.09 5.8-4.49 8.76a43.47 43.47 0 0 0-1.5 3.64c-.4.91-.61 1.89-.66 2.88 0 2.84.42 4.96 1.2 6.58s2 2.68 3.27 3.23c2.53 1.08 3.55 1.34 4.8.34.8-.65-.1-2.2.44-3.08.4-.66 1.14-1.36 1.92-1.32.82.04 1.64.8 1.88 1.6.36 1.18-.67 2.38-1 3.57-.13.47-.72 1.05-.4 1.4.87.97 2.8 0 3.83-.63a6.53 6.53 0 0 0 2.42-2.38c4.4-9.03 11.23-12.15 16.8-23.29.37 3.05-.18 8.2-.92 12.22a30.17 30.17 0 0 1-1.37 4.65 28.12 28.12 0 0 1-1.75 4.17c-1.86 3.4-4.3 5.1-7.39 9.31-2.73 3.74-3.23 7.07-4.55 12.42 0 .89.89.74 1.78.74h49.43c.87 0 1.53.15 1.55-.72.54-22.72-2.33-38.89-8.5-49C57.51 12.6 46.96 7.71 36 6.37c-.04-.6-.03-1.17-.1-1.76-.09-.91-.1-1.86-.4-2.73-.18-.5-.48-.95-.8-1.36-.16-.2-.32-.43-.55-.52zM21.4 15.45c.3 0 .6.1.9.26.58.34.9.93 1 1.4.12.48.1.9.02 1.33-.14.85-.5 1.75-1.1 2.8-.48.9-1.12 1.7-1.88 2.36-.33.27-.7.5-1.15.65s-1.14.16-1.73-.17c-.58-.34-.89-.93-1-1.4-.1-.48-.09-.9-.02-1.33a8.6 8.6 0 0 1 1.11-2.8 8.32 8.32 0 0 1 1.89-2.36c.33-.27.68-.5 1.15-.65.23-.07.5-.11.8-.1zM8.07 38.7c.62 0 1.27.2 1.8.67.53.47.88 1.25.88 2s-.34 1.55-.88 2.02a2.72 2.72 0 0 1-3.61 0 2.79 2.79 0 0 1-.89-2c0-.77.36-1.54.89-2.02a2.65 2.65 0 0 1 1.8-.67z" color="#000" fill="#fff" fill-rule="evenodd" style="font-feature-settings:normal;font-variant-alternates:normal;font-variant-caps:normal;font-variant-ligatures:normal;font-variant-numeric:normal;font-variant-position:normal;isolation:auto;mix-blend-mode:normal;shape-padding:0;text-decoration-color:#000;text-decoration-line:none;text-decoration-style:solid;text-indent:0;text-orientation:mixed;text-transform:none"/></svg>