<svg width="72" height="72" viewBox="0 0 72 72" fill="none" xmlns="http://www.w3.org/2000/svg">
<g clip-path="url(#clip0)">
<path fill-rule="evenodd" clip-rule="evenodd" d="M66.9854 13.6282V42.6963L71.9998 45.7708V16.7337L66.9854 13.6282Z" fill="white"/>
<path fill-rule="evenodd" clip-rule="evenodd" d="M0 45.771L5.01449 42.6965V13.6284L0 16.734V45.771Z" fill="white"/>
<path fill-rule="evenodd" clip-rule="evenodd" d="M24.4922 45.4914L47.5067 59.7149V53.5348L25.9704 40.2119L24.4922 41.1125V41.1436V45.4914Z" fill="white"/>
<path fill-rule="evenodd" clip-rule="evenodd" d="M48.8114 67.9445L24.4925 52.9136V59.0937L30.9853 63.0998L23.1882 67.9445C22.6664 68.2551 22.6664 69.0936 23.1882 69.4041L27.0143 71.7644L35.9998 66.2054L44.9853 71.7644L48.8114 69.4041C49.3331 69.0936 49.3331 68.2861 48.8114 67.9445Z" fill="white"/>
<path fill-rule="evenodd" clip-rule="evenodd" d="M66.9854 30.9574V56.7025C66.9854 57.3547 67.652 57.7584 68.1738 57.4479L71.594 55.3361C71.8259 55.1808 71.9998 54.9013 71.9998 54.5907V27.8518L66.9854 30.9574Z" fill="white"/>
<path fill-rule="evenodd" clip-rule="evenodd" d="M57.1884 64.2491L60.4058 62.2615C60.7826 62.0441 60.9855 61.6094 60.9855 61.1746V34.6841L56 37.7896V63.5348C56 64.1559 56.6377 64.5596 57.1884 64.2491Z" fill="white"/>
<path fill-rule="evenodd" clip-rule="evenodd" d="M44.9854 71.7645L49.594 68.9074C49.8259 68.7521 49.9998 68.4726 49.9998 68.162V41.4231L45.0143 44.5287V71.7645H44.9854Z" fill="white"/>
<path fill-rule="evenodd" clip-rule="evenodd" d="M22.4059 68.9386L27.0146 71.7957V44.5909L22.029 41.4854V68.2243C22.0001 68.5038 22.145 68.7833 22.4059 68.9386Z" fill="white"/>
<path fill-rule="evenodd" clip-rule="evenodd" d="M11.5944 62.2613L14.8117 64.2489C15.3335 64.5595 16.0002 64.1557 16.0002 63.5036V37.7584L11.0146 34.6528V61.1433C11.0146 61.6092 11.2175 62.0129 11.5944 62.2613Z" fill="white"/>
<path fill-rule="evenodd" clip-rule="evenodd" d="M0.608695 55.4608L3.82609 57.4484C4.34782 57.7589 5.01449 57.3552 5.01449 56.703V30.9579L0 27.8523V54.3428C0 54.8086 0.231884 55.2123 0.608695 55.4608Z" fill="white"/>
<path fill-rule="evenodd" clip-rule="evenodd" d="M72.0002 16.734L66.9857 13.6284L58.0002 19.1874L52.0002 15.4917L59.8263 10.6471C60.3481 10.3365 60.3481 9.498 59.8263 9.18744L56.6089 7.19988C56.2321 6.98249 55.7973 6.98249 55.4205 7.19988L47.0147 12.3862L41.0147 8.69055L48.8408 3.84587C49.3626 3.53531 49.3626 2.69681 48.8408 2.38625L45.6234 0.398688C45.2466 0.181298 44.8118 0.181298 44.435 0.398688L36.0292 5.58499L27.6234 0.367632C27.2466 0.150242 26.8119 0.150242 26.435 0.367632L23.1887 2.38625C22.6669 2.69681 22.6669 3.53531 23.1887 3.84587L66.9857 30.9575L71.9713 27.8519L62.9857 22.2929L72.0002 16.734Z" fill="white"/>
<path fill-rule="evenodd" clip-rule="evenodd" d="M15.4199 7.19991L12.1735 9.18747C11.6518 9.49803 11.6518 10.3365 12.1735 10.6471L55.9706 37.7587L60.9851 34.6531L16.6083 7.19991C16.2315 6.98252 15.7677 6.98252 15.4199 7.19991Z" fill="white"/>
<path fill-rule="evenodd" clip-rule="evenodd" d="M0 16.7337L9.01449 22.2927L0 27.8827L5.01449 30.9572L14 25.3983L20 29.0939L11.0145 34.6839L16 37.7584L25.0145 32.1995L30.9855 35.8951L22 41.4851L27.0145 44.5596L36 39.0007L44.9855 44.5596L50 41.4851L5.01449 13.6282L0 16.7337Z" fill="white"/>
</g>
<defs>
<clipPath id="clip0">
<rect width="72" height="72" fill="white"/>
</clipPath>
</defs>
</svg>
