<svg id="Layer_1" xmlns="http://www.w3.org/2000/svg" viewBox="0 0 40 40"><style>.st0{fill:#fff}</style><path class="st0" d="M13.4 25.9v2.5h12.8v-2.5H13.4zm0 3v2.5h12.8v-2.5H13.4zm0 3.1v2.5h12.8V32H13.4zm6.2-8.6c0 .1-.1.2-.2.2s-.2-.1-.2-.2.1-.2.2-.2.2.1.2.2zm.9 0c0 .1-.1.2-.2.2s-.2-.1-.2-.2.1-.2.2-.2.2.1.2.2zm-7.1-.6v2.5h12.8v-2.5H13.4zm3.3-1v.4c0 .1.2.3.3.3h5.5c.1 0 .3-.2.3-.3v-.4h-6.1zm2.8-5.1c-.1 0-.3.3-.3.3v.2c0 2.1.2 1.2.2 3 0 0 .2.2.3.2v.4h-.1v.1H17c-.1 0-.3.2-.3.3v.4h6.2v-.4c0-.1-.2-.3-.3-.3h-.5v-.2H22v-.1h-.9v.1H21v.2h-1v-.5s.3-.1.3-.2c0-1.8.2-.9.2-3V17l-.3-.3h-.7z"/><path class="st0" d="M16.7 21.6v-.4c0-.1.2-.3.3-.3h5.5c.1 0 .3.2.3.3v.4h-6.1zM12.1 27.9c-.2 0-.4.1-.6.1-1.3.5-.7 1.7-1.3 2.4-.6.7-1.7.4-2.1 1.9-.4 1.5 5.3 8.8 8.3 7.5 3-1.2 1.9-10.4.6-11.2-1.3-.8-1.9.3-2.8.2-.8-.1-1.2-1-2.1-.9zm15.3 0c-.8 0-1.2.8-2 .9-.9.1-1.5-1-2.8-.2s-2.4 10 .6 11.2c3 1.2 8.7-6.1 8.3-7.5-.4-1.5-1.5-1.1-2.1-1.9-.6-.7 0-1.9-1.3-2.4-.3-.1-.5-.1-.7-.1z"/><path class="st0" d="M19.8 0c-3.9 0-6.2 2.4-6.6 5.6-.4 3.2.3 3.8-.8 7.1s-5.9 8.9-5.8 14.1c0 1.6.2 3 .5 4.3.4-.7 1-1.1 1.4-1.3.3-.2.5-.3.5-.3 0-.1.1-.3.1-.6.1-.5.5-1.3 1.2-1.8v-.5c-.1-4 4.1-8.4 4.9-11 .8-2.6.4-2.8.6-3.5.1-.6.6-1.4 1.3-2 .1-.1.1-.1.2-.1.6 0 1.3 2.3 2.5 2.3s1.9-2.9 2.6-2.3c.7.6 1.2 1.3 1.3 2 .1.6-.2.9.6 3.5s4.9 6.9 4.9 11v.5c.7.5 1.1 1.3 1.2 1.9.1.4.1.6.1.6.1 0 .2.1.6.3.4.2 1 .7 1.4 1.3.3-1.2.5-2.6.6-4.3.1-5.2-4.7-10.9-5.8-14.1-1.1-3.3-.4-3.9-.8-7.1C26 2.4 23.7 0 19.8 0zm-.2 36.8c-.1.4-.2.8-.3 1.3-.2.7-.5 1.3-.9 1.9H21c-.4-.6-.7-1.2-.9-1.9-.1-.4-.2-.8-.3-1.3h-.2c.1 0 .1 0 0 0z"/></svg>