<svg xmlns="http://www.w3.org/2000/svg" xmlns:xlink="http://www.w3.org/1999/xlink" width="40" height="40"><defs><linearGradient id="a"><stop offset="0"/><stop offset="1" stop-color="#4c4c4c"/></linearGradient><linearGradient xlink:href="#a" id="b" gradientUnits="userSpaceOnUse" gradientTransform="translate(-152.316 -675.947) scale(3.00129)" x1="140.001" y1="230.004" x2="140.001" y2="497.714"/></defs><path d="M13.375 25.855v2.482h12.82v-2.482zm0 3.091v2.482h12.82v-2.482zm0 3.091v2.482h12.82v-2.482zm6.195-8.619a.23.193 0 0 1-.228.193.23.193 0 0 1-.23-.193.23.193 0 0 1 .23-.193.23.193 0 0 1 .229.193zm.887-.012a.23.193 0 0 1-.229.193.23.193 0 0 1-.23-.193.23.193 0 0 1 .23-.193.23.193 0 0 1 .23.193zm-7.082-.643v2.482h12.82v-2.482zm3.344-.943v.351c0 .135.199.345.342.345h5.51c.143 0 .342-.21.342-.345v-.35h-3.097zm2.74-5.088c-.06 0-.316.262-.316.3v.238h.046c0 2.101.181 1.212.16 2.997 0 .04.216.187.263.187v.405h-.054v.052h-.156v.028H17.04c-.139 0-.337.236-.337.346v.35h6.211v-.35c0-.135-.2-.346-.344-.346h-.403v-.038h-.104v-.153h-.056v-.062h-.865v.062h-.056v.153h-.104v.038h-.795v-.028h-.155v-.052h-.054v-.405c.047 0 .262-.147.262-.187-.02-1.785.16-.896.16-2.997h.047v-.238c0-.038-.256-.3-.316-.3h-.336z"/><path d="M16.719 21.636v-.351c0-.135.199-.345.342-.345h5.51c.143 0 .342.21.342.345v.35h-3.097z" fill="none"/><g color="#000"><path style="marker:none" d="M12.1 27.882a1.75 1.75 0 0 0-.562.14c-1.329.547-.745 1.699-1.326 2.426-.58.727-1.746.377-2.113 1.864-.367 1.488 5.272 8.79 8.303 7.543 3.032-1.247 1.905-10.404.598-11.203-1.307-.8-1.886.27-2.81.163-.78-.092-1.184-.985-2.09-.933zm15.27 0c-.838.015-1.244.844-1.995.933-.924.108-1.503-.962-2.81-.163-1.307.799-2.434 9.956.598 11.203 3.031 1.247 8.67-6.055 8.303-7.543-.367-1.487-1.528-1.137-2.109-1.864-.58-.727.004-1.879-1.326-2.425a1.66 1.66 0 0 0-.66-.14z" overflow="visible" fill="#f6bd0e"/><path style="marker:none" d="M275.315 0c-81.049 0-128.63 49.443-137.59 116.112-8.961 66.67 5.466 78.886-16.976 147.157C98.306 331.54-2.312 448.571.04 556.551c.732 33.618 4.604 62.727 11.348 88.163 8.27-13.701 20.521-23.357 29.45-27.48 6.971-3.219 10.34-4.766 11.912-5.347.228-1.727 1.112-5.66 2.72-13.412 2.209-10.647 10.675-27.318 25.136-38.266-.148-3.317-.307-6.6-.376-10.036-1.67-83.752 84.892-174.487 100.825-227.441 15.933-52.952 9.002-58.405 11.63-71.562 2.628-13.157 12.775-28.482 27.387-40.705 1.392-1.165 2.746-1.675 4.126-1.688 13.322-.126 26.653 48.371 52.43 48.396 25.775.03 39.184-59.12 54.022-46.708 14.612 12.223 24.759 27.548 27.387 40.705s-4.303 18.61 11.63 71.562c15.933 52.953 102.4 143.689 100.73 227.441-.068 3.404-.23 6.655-.374 9.942 14.525 10.946 23.015 27.687 25.229 38.36 1.608 7.753 2.492 11.685 2.72 13.412 1.567.58 4.95 2.217 11.911 5.44 8.932 4.136 21.11 13.774 29.357 27.48 6.763-25.462 10.709-54.59 11.442-88.256 2.353-107.98-98.359-225.012-120.802-293.282C407.44 195 421.96 182.781 413 116.112 404.039 49.443 356.364 0 275.315 0zm-3.376 763.546c-1.374 8.871-3.217 17.577-5.628 25.98-3.93 13.696-9.665 27.422-18.195 39.11 8.84.549 17.902.62 27.199.187 9.297.433 18.356.36 27.2-.186-8.531-11.69-14.267-25.415-18.196-39.111-2.411-8.403-4.254-17.109-5.628-25.98-1.125.03-2.24.093-3.376.093-1.136 0-2.251-.072-3.376-.093z" overflow="visible" fill="url(#b)" transform="translate(6.5) scale(.04824)"/></g></svg>