<svg xmlns="http://www.w3.org/2000/svg" width="72" height="72" fill="#fff"><path d="M30.936 71.694c-7.655-.967-14.574-4.4-20.249-10.045-4.405-4.382-6.876-8.285-8.763-13.841-1.536-4.52-2.017-8.06-1.812-13.331C.597 22.022 6.726 11.744 17.813 4.79 21.015 2.782 27.063.86 32.018.276 44.04-1.14 55.786 3.502 63.713 12.803c3.649 4.281 5.884 8.603 7.44 14.384 1.216 4.522 1.221 13.175.01 17.658-2.272 8.412-6.385 14.666-12.988 19.751-7.705 5.932-17.097 8.38-27.237 7.099zm11.428-6.007c17.216-3.593 28.211-20.79 24.071-37.652-.877-3.573-3.883-9.47-6.273-12.304C53.427 7.74 42.925 3.557 32.485 4.7 15.77 6.536 3.633 20.749 4.65 37.3c.29 4.726.978 7.235 3.23 11.788 4.288 8.665 11.757 14.419 21.52 16.575 2.978.658 9.862.67 12.964.022zm-2.252-6.008c-.194-.356-.537-2.47-.765-4.697-.9-8.834-2.234-15.121-3.141-14.815-.246.083-.425.715-.4 1.405.026.69.088 3.502.138 6.25.102 5.634-.241 6.775-2.751 9.148-1.244 1.177-1.436 1.238-3.22 1.03-2.684-.313-3.756-.935-4.879-2.833-.976-1.651-.991-1.659-3.528-1.908-2.084-.205-2.749-.44-3.658-1.29-1.758-1.643-2.652-3.669-2.44-5.524.231-2.02.53-2.355 4.187-4.714 3.582-2.31 5.167-3.135 6.077-3.16.37-.012 1.802-.47 3.181-1.02 1.905-.761 2.43-1.124 2.189-1.51-.24-.383-.857-.452-2.508-.28-11.335 1.174-11.164 1.18-13.972-.52-2.317-1.405-2.791-2.353-2.48-4.961.32-2.672.714-3.359 2.307-4.014 1.384-.57 2.124-1.859 2-3.489-.208-2.759.98-4.87 3.446-6.125 1.524-.776 4.16-.683 5.282.186 2.383 1.846 6.772 8.947 8.037 13.002.22.708.445.778 1.13.35.352-.221.324-.74-.125-2.298-2.725-9.474-2.899-10.65-1.943-13.165 1.214-3.197 1.992-3.767 5.136-3.767 2.584 0 2.644.023 4.105 1.52L43 14l2.424-.256c2.042-.216 2.661-.137 3.934.503 3.189 1.601 4.624 5.075 3.1 7.502-.955 1.522-6.956 7.262-7.592 7.262-.712 0-4.77 2.714-4.787 3.202-.032.845.587.78 3.92-.41 5.261-1.88 8.493-2.803 9.8-2.797.66.003 2.136.35 3.279.77 2.543.937 3.189 1.976 3.189 5.13 0 2.097-.088 2.326-1.307 3.426-1.4 1.264-1.563 1.951-1.118 4.744.365 2.296.045 3.355-1.538 5.08-1.496 1.63-3.369 2.394-5.004 2.04-1.048-.226-5.376-3.51-7.57-5.743-.554-.565-1.35-1.66-1.768-2.432-.418-.773-1.108-1.806-1.534-2.296-.71-.818-.824-.843-1.375-.3-.551.543-.43.934 1.477 4.767 3.334 6.698 5.85 13.497 5.441 14.704-.085.252-1.155.665-2.377.92-2.96.614-3.076.61-3.482-.138z" stroke-width=".371"/></svg>