<svg xmlns="http://www.w3.org/2000/svg" width="72" height="72" fill="#ffffff" viewBox="0 0 72 72"><path d="m30.936 71.694c-7.6555-0.96743-14.574-4.3995-20.249-10.045-4.4054-4.3824-6.8764-8.2852-8.7635-13.841-1.5353-4.5202-2.0162-8.0602-1.8111-13.331 0.48461-12.455 6.6132-22.733 17.701-29.687 3.2018-2.008 9.2502-3.93 14.205-4.5139 12.022-1.4168 23.768 3.2259 31.695 12.527 3.6484 4.2811 5.8833 8.6025 7.4389 14.384 1.2167 4.5215 1.2222 13.175 0.0113 17.658-2.2725 8.412-6.3858 14.666-12.989 19.751-7.7044 5.932-17.097 8.38-27.237 7.0986zm11.428-6.0073c17.216-3.5927 28.211-20.79 24.071-37.652-0.87701-3.5726-3.8831-9.4688-6.2728-12.304-6.7347-7.989-17.237-12.174-27.677-11.029-16.716 1.8335-28.852 16.046-27.836 32.598 0.29013 4.7262 0.97776 7.2356 3.2302 11.788 4.2871 8.6651 11.757 14.419 21.519 16.575 2.9786 0.65795 9.8622 0.66979 12.965 0.0223zm-2.2524-6.0082c-0.19318-0.35539-0.53708-2.469-0.76422-4.6969-0.90066-8.834-2.234-15.121-3.1417-14.815-0.24534 0.0829-0.42502 0.71519-0.39928 1.405 0.0257 0.68986 0.0875 3.5023 0.13725 6.2499 0.10203 5.6343-0.24109 6.7755-2.7508 9.1487-1.244 1.1764-1.4358 1.2377-3.2208 1.0295-2.6834-0.31291-3.7547-0.93512-4.8777-2.8329-0.97679-1.6508-0.99154-1.6588-3.5281-1.9079-2.0844-0.20472-2.7492-0.439-3.6586-1.2894-1.7572-1.6431-2.6519-3.6693-2.4396-5.5245 0.23117-2.0193 0.52966-2.3554 4.1867-4.7139 3.5822-2.3102 5.1677-3.1349 6.0775-3.161 0.37034-0.0106 1.8017-0.46962 3.1808-1.02 1.9048-0.76022 2.4308-1.1229 2.1886-1.5088-0.24045-0.38306-0.85711-0.45219-2.5075-0.28109-11.335 1.1752-11.164 1.1815-13.972-0.51993-2.3172-1.4038-2.7913-2.3523-2.48-4.9606 0.31894-2.6719 0.71356-3.3586 2.3065-4.014 1.3845-0.56955 2.1239-1.8587 2.0008-3.4883-0.20839-2.7593 0.97866-4.8697 3.4455-6.1257 1.5244-0.77614 4.1591-0.68308 5.282 0.18655 2.3829 1.8455 6.7724 8.9469 8.0368 13.002 0.22078 0.7081 0.44492 0.77731 1.1297 0.34886 0.35226-0.22039 0.32428-0.73815-0.1241-2.2968-2.7256-9.4744-2.8993-10.651-1.9438-13.165 1.2149-3.197 1.9921-3.767 5.1367-3.767 2.5833 0 2.6442 0.02254 4.105 1.5194l1.4828 1.5194 2.4238-0.25556c2.0426-0.21537 2.6614-0.1362 3.9346 0.50334 3.1882 1.6014 4.6236 5.0752 3.1001 7.5024-0.95526 1.5218-6.9567 7.262-7.5925 7.262-0.71162 0-4.7695 2.7137-4.7875 3.2016-0.0312 0.84508 0.58721 0.78031 3.9202-0.41055 5.2613-1.8798 8.4936-2.8022 9.7996-2.7964 0.66108 0.0029 2.1367 0.34968 3.2792 0.77054 2.5431 0.93684 3.189 1.9757 3.189 5.1295 0 2.0967-0.0876 2.3264-1.3062 3.4259-1.4008 1.2639-1.5629 1.9514-1.1186 4.7441 0.36538 2.2964 0.0449 3.3551-1.538 5.0802-1.4962 1.6306-3.3684 2.3939-5.0041 2.0401-1.0478-0.22658-5.376-3.5105-7.5692-5.743-0.55488-0.5648-1.3508-1.6594-1.7687-2.4324-0.41792-0.773-1.1082-1.8063-1.534-2.2962-0.71066-0.81772-0.82335-0.84226-1.3747-0.2994-0.55136 0.54287-0.43027 0.93359 1.4772 4.7664 3.3334 6.6979 5.8494 13.497 5.4409 14.704-0.0853 0.25197-1.155 0.66579-2.3772 0.91959-2.9608 0.61487-3.0759 0.61033-3.4824-0.13742z" stroke-width=".37126"/></svg>
