<svg id="Layer_1" data-name="Layer 1" xmlns="http://www.w3.org/2000/svg" viewBox="0 0 900 900"><defs><style>.cls-1{fill:#ed1651;}</style></defs><title>pink, no bg</title><path class="cls-1" d="M567,262.76a170.85,170.85,0,0,0-91.06,26.17,204.38,204.38,0,0,1,55.33,96.53,60.76,60.76,0,0,1,96.54,49.16V637.13H738.87V434.62C738.87,339.86,661.77,262.76,567,262.76Z"/><rect class="cls-1" x="161.13" y="573.67" width="111.05" height="63.57"/><path class="cls-1" d="M333,262.87c-94.77,0-171.87,77.1-171.87,171.87V544H272.19V434.74a60.81,60.81,0,0,1,121.62,0V544H504.86V434.74C504.86,340,427.77,262.87,333,262.87Z"/><rect class="cls-1" x="393.81" y="573.67" width="111.05" height="63.57"/></svg>