<?xml version="1.0" encoding="UTF-8"?>
<svg width="72" height="72" version="1.1" viewBox="0 0 72 72" xmlns="http://www.w3.org/2000/svg" xmlns:cc="http://creativecommons.org/ns#" xmlns:dc="http://purl.org/dc/elements/1.1/" xmlns:rdf="http://www.w3.org/1999/02/22-rdf-syntax-ns#" xmlns:xlink="http://www.w3.org/1999/xlink">
 <metadata>
  <rdf:RDF>
   <cc:Work rdf:about="">
    <dc:format>image/svg+xml</dc:format>
    <dc:type rdf:resource="http://purl.org/dc/dcmitype/StillImage"/>
    <dc:title/>
   </cc:Work>
  </rdf:RDF>
 </metadata>
 <g transform="translate(-51.036 -64.103)">
  <g transform="translate(674.78 -185.34)">
   <path transform="matrix(.92393 0 0 .92393 -59.585 -31.91)" d="m-609.07 317.58c-0.46339 0-0.8534 0.01-1.0762 0.0918-0.11139 0.0409-0.17859 0.0901-0.22656 0.16211-0.048 0.072-0.084 0.18098-0.084 0.36133 0 0.34647 0.13269 0.44725 0.31446 0.52734 0.18176 0.0801 0.41543 0.0879 0.53124 0.0879 0.65711 0 1.9724 0.15495 3.0918 0.55469a0.23521 0.23521 0 0 1 0.15625 0.2207v26.258c0 0.5407 7e-3 1.4024-0.44726 2.1836-0.45431 0.78123-1.377 1.4444-3.0879 1.6035a0.23521 0.23521 0 0 1-2e-3 0c-0.40519 0.0337-0.54888 0.17686-0.6289 0.31054-0.08 0.13368-0.082 0.26503-0.082 0.30469 0 0.17674 0.039 0.28095 0.0918 0.35352 0.0528 0.0726 0.12881 0.12563 0.25196 0.16796 0.24628 0.0847 0.6577 0.0937 1.1211 0.0937h7.5684c0.46339 0 0.8534-0.01 1.0762-0.0918 0.11139-0.0409 0.17859-0.0901 0.22656-0.16211 0.048-0.072 0.084-0.18099 0.084-0.36133 0-0.33298-0.30786-0.61523-0.53711-0.61523a0.23521 0.23521 0 0 1-0.0195 0c-1.9349-0.15796-2.9685-0.7865-3.4883-1.5606-0.51978-0.77405-0.51171-1.6473-0.51171-2.2266v-24.482a0.23521 0.23521 0 0 1 0.0703-0.16796l0.0781-0.0762a0.23521 0.23521 0 0 1 0.38086 0.0781l11.961 28.783c0.22409 0.41081 0.40438 0.63987 0.54102 0.75391s0.21675 0.1289 0.33203 0.1289c0.25991 0 0.33057-0.0497 0.43164-0.17968 0.10106-0.12996 0.20156-0.37586 0.36133-0.69532l12.043-28.791a0.23521 0.23521 0 0 1 0.38282-0.0762l0.0762 0.0762a0.23521 0.23521 0 0 1 0.0684 0.16601v24.482c0 0.54062 8e-3 1.4039-0.45703 2.1855-0.46479 0.78161-1.4059 1.4426-3.1543 1.6016a0.23521 0.23521 0 0 1-2e-3 0c-0.40514 0.0337-0.54887 0.17685-0.62891 0.31054-0.08 0.13369-0.082 0.26514-0.082 0.30469 0 0.17674 0.039 0.28095 0.0918 0.35352 0.0528 0.0726 0.12881 0.12563 0.25195 0.16796 0.24628 0.0847 0.6577 0.0937 1.1211 0.0937h13.129c0.46335 0 0.85339-0.01 1.0762-0.0918 0.1114-0.0409 0.17858-0.0901 0.22656-0.16211 0.048-0.072 0.084-0.18099 0.084-0.36133 0-0.33298-0.30787-0.61523-0.53711-0.61523a0.23521 0.23521 0 0 1-0.0195 0c-1.9349-0.15796-2.9685-0.7865-3.4883-1.5606s-0.51172-1.6473-0.51172-2.2266v-23.246c0-0.54071-7e-3 -1.4024 0.44726-2.1836 0.45431-0.78123 1.377-1.4444 3.0879-1.6035a0.23521 0.23521 0 0 1 0.0215 0c0.22549 0 0.39714-0.0645 0.50976-0.16406 0.11263-0.0995 0.18165-0.23672 0.18164-0.45117 0-0.18035-0.036-0.2893-0.084-0.36133-0.048-0.072-0.11518-0.12123-0.22656-0.16211-0.22277-0.0817-0.61278-0.0918-1.0762-0.0918h-9.5c-0.61781 0-0.93858 0.0168-1.0977 0.0996s-0.26964 0.26167-0.45898 0.75391a0.23521 0.23521 0 0 1-2e-3 8e-3l-9.4219 22.396a0.23521 0.23521 0 0 1-0.4336 0l-9.4219-22.396a0.23521 0.23521 0 0 1-2e-3 -8e-3c-0.0965-0.25096-0.16816-0.43355-0.23243-0.55273-0.0643-0.11919-0.11035-0.16815-0.17578-0.20508-0.13086-0.0739-0.45533-0.0957-1.1504-0.0957zm5.0742 1.2305a0.23521 0.23521 0 0 1 0.0234 0h4.248a0.23521 0.23521 0 0 1 0.2168 0.14258l9.4941 22.615c0.19172 0.38339 0.30072 0.57414 0.4082 0.68164 0.10749 0.10749 0.23899 0.16921 0.54297 0.2832a0.23521 0.23521 0 0 1 0.13477 0.31445l-2.2402 5.1758a0.23521 0.23521 0 0 1-0.21679 0.14063h-0.0762a0.23521 0.23521 0 0 1-0.2168-0.14453l-11.199-26.801a0.23521 0.23521 0 0 1-4e-3 -8e-3c-0.22039-0.58766-0.67457-1.4167-1.2578-2a0.23521 0.23521 0 0 1 0.14258-0.40039zm27.438 0a0.23521 0.23521 0 0 1 2e-3 0h5.252a0.23521 0.23521 0 0 1 0.17187 0.39453c-1.1016 1.175-1.0957 2.3887-1.0957 3.2383v23.555c0 0.8496-6e-3 2.0633 1.0957 3.2383a0.23521 0.23521 0 0 1-0.17187 0.39454h-6.332a0.23521 0.23521 0 0 1-0.17773-0.38868c1.0269-1.1735 1.0234-2.3944 1.0234-3.2441v-26.953a0.23521 0.23521 0 0 1 0.23242-0.23438zm6.5039 9.6387v12.721c7.2271 0.71464 12.902 6.7049 13.115 14.066h12.652v-26.787zm0 13.588v3.8066c0 0.57606 0.0201 1.2272 0.36718 1.7441 0.35024 0.52177 1.059 1.0345 2.8379 1.1797a0.23521 0.23521 0 0 1 0.0918 0.0293c0.71224 0.081 1.2598 0.699 1.2598 1.4492 0 0.29968-0.0632 0.59389-0.22852 0.8418-0.16695 0.25041-0.41111 0.40836-0.65039 0.49609-0.45883 0.16824-0.91791 0.14258-1.375 0.14258h-13.129c-0.45814 0-0.93343 0.0225-1.4023-0.13867-0.24155-0.0831-0.49214-0.2314-0.67187-0.47852-0.18022-0.24783-0.25586-0.55251-0.25586-0.86328 0-0.0215-8e-3 -0.39528 0.20507-0.75 0.21946-0.36579 0.67109-0.6756 1.2988-0.72852 1.566-0.14331 2.1619-0.64252 2.4824-1.1816 0.31623-0.53183 0.33789-1.205 0.33789-1.7422v-1.7109c-3.7968 2.4385-6.3262 6.68-6.3262 11.529 0 7.5761 6.1368 13.713 13.713 13.713 7.5761 0 13.713-6.1368 13.713-13.713 0-7.087-5.374-12.902-12.268-13.625zm-3.0391 0.0195c-0.97818 0.11369-1.9258 0.3243-2.8301 0.63281v3.3086c0 0.66996-0.15194 1.7037-0.69921 2.7676h4.2754c-0.58042-1.0623-0.7461-2.0975-0.7461-2.7676zm29.672 1.5137v12.299a0.23521 0.23521 0 0 1-0.23438 0.23437h-8.2617l-3.5059 6.0684h22.74z" color="#000000" color-rendering="auto" dominant-baseline="auto" fill="#fff" image-rendering="auto" shape-rendering="auto" solid-color="#000000" stop-color="#000000" style="font-feature-settings:normal;font-variant-alternates:normal;font-variant-caps:normal;font-variant-east-asian:normal;font-variant-ligatures:normal;font-variant-numeric:normal;font-variant-position:normal;font-variation-settings:normal;inline-size:0;isolation:auto;mix-blend-mode:normal;shape-margin:0;shape-padding:0;text-decoration-color:#000000;text-decoration-line:none;text-decoration-style:solid;text-indent:0;text-orientation:mixed;text-transform:none;white-space:normal" xlink:href="#path1131"/>
  </g>
 </g>
</svg>
