<svg width="72" height="72" xmlns="http://www.w3.org/2000/svg" xmlns:xlink="http://www.w3.org/1999/xlink"><path d="M1.421 12.069c-.428 0-.789.009-.994.085a.392.392 0 00-.21.15c-.044.066-.077.166-.077.333 0 .32.122.413.29.487.168.074.384.082.491.082.607 0 1.822.143 2.857.512a.217.217 0 01.144.204v24.26c0 .5.006 1.296-.413 2.018-.42.722-1.272 1.335-2.853 1.482a.217.217 0 01-.002 0c-.374.03-.507.163-.581.286a.55.55 0 00-.076.282c0 .163.036.26.085.327a.446.446 0 00.233.155c.227.078.607.086 1.036.086h6.992c.428 0 .789-.009.995-.084a.392.392 0 00.209-.15c.044-.067.077-.167.077-.334 0-.308-.284-.569-.496-.569a.217.217 0 01-.018 0c-1.787-.145-2.742-.726-3.223-1.441-.48-.716-.473-1.522-.473-2.058v-22.62a.217.217 0 01.065-.154l.073-.07a.217.217 0 01.351.071l11.052 26.594c.207.38.373.591.5.696s.2.12.306.12c.24 0 .306-.046.4-.167.092-.12.185-.347.333-.642l11.127-26.6a.217.217 0 01.353-.071l.07.07a.217.217 0 01.064.154v22.62c0 .499.007 1.296-.422 2.018-.43.723-1.3 1.333-2.915 1.48a.217.217 0 01-.001 0c-.375.031-.507.164-.581.287a.55.55 0 00-.076.282c0 .163.036.26.085.326a.446.446 0 00.232.155c.228.079.608.087 1.036.087h12.13c.429 0 .789-.01.995-.085a.392.392 0 00.21-.15c.043-.066.077-.167.077-.333 0-.308-.285-.569-.496-.569a.217.217 0 01-.019 0c-1.787-.146-2.742-.727-3.222-1.442s-.473-1.522-.473-2.057V16.704c0-.5-.007-1.295.413-2.017s1.272-1.335 2.853-1.482a.217.217 0 01.02 0c.208 0 .367-.06.47-.151.105-.092.169-.219.169-.417 0-.167-.034-.267-.078-.334a.392.392 0 00-.21-.15c-.205-.075-.565-.085-.994-.085h-8.777c-.57 0-.867.016-1.014.092s-.25.242-.424.697a.217.217 0 01-.002.007l-8.705 20.693a.217.217 0 01-.4 0l-8.706-20.693a.217.217 0 01-.002-.007 5.04 5.04 0 00-.215-.51c-.059-.11-.102-.156-.162-.19-.12-.068-.42-.089-1.063-.089zm4.688 1.137a.217.217 0 01.022 0h3.925a.217.217 0 01.2.131l8.772 20.895c.177.354.278.53.377.63.1.1.22.156.502.261a.217.217 0 01.124.291l-2.07 4.782a.217.217 0 01-.2.13h-.07a.217.217 0 01-.2-.134L7.142 15.43a.217.217 0 01-.003-.007c-.204-.543-.624-1.31-1.163-1.848a.217.217 0 01.132-.37zm25.351 0a.217.217 0 01.002 0h4.852a.217.217 0 01.16.364c-1.019 1.086-1.013 2.207-1.013 2.992v21.763c0 .785-.006 1.907 1.012 2.992a.217.217 0 01-.159.365h-5.85a.217.217 0 01-.164-.36c.949-1.084.945-2.212.945-2.997V13.423a.217.217 0 01.215-.217zm6.01 8.905v11.753c6.676.66 11.92 6.195 12.116 12.996h11.69V22.111zm0 12.554v3.517c0 .533.018 1.134.338 1.612.324.482.979.956 2.622 1.09a.217.217 0 01.085.027c.658.075 1.164.646 1.164 1.339 0 .277-.058.549-.211.778-.154.231-.38.377-.6.458-.425.155-.849.132-1.271.132h-12.13c-.424 0-.863.02-1.296-.128a1.264 1.264 0 01-.621-.443 1.342 1.342 0 01-.236-.797c0-.02-.008-.365.19-.693.202-.338.62-.624 1.2-.673 1.446-.133 1.997-.594 2.293-1.092.292-.491.312-1.113.312-1.61v-1.58c-3.508 2.253-5.845 6.172-5.845 10.652 0 7 5.67 12.67 12.67 12.67s12.67-5.67 12.67-12.67c0-6.548-4.966-11.92-11.335-12.589zm-2.809.018c-.904.105-1.78.3-2.615.585v3.057c0 .619-.14 1.574-.646 2.557h3.95c-.536-.981-.689-1.938-.689-2.557zm27.415 1.399v11.363a.217.217 0 01-.217.217h-7.633l-3.239 5.607h21.01z" color="#000" fill="#fff" style="font-feature-settings:normal;font-variant-alternates:normal;font-variant-caps:normal;font-variant-east-asian:normal;font-variant-ligatures:normal;font-variant-numeric:normal;font-variant-position:normal;font-variation-settings:normal;inline-size:0;isolation:auto;mix-blend-mode:normal;shape-margin:0;shape-padding:0;text-decoration-color:#000;text-decoration-line:none;text-decoration-style:solid;text-indent:0;text-orientation:mixed;text-transform:none;white-space:normal" xlink:href="#path1131"/></svg>