<svg xmlns="http://www.w3.org/2000/svg" xmlns:xlink="http://www.w3.org/1999/xlink" width="72" height="72" viewBox="0 0 72 72">
  <defs>
    <style>
      .cls-1, .cls-6 {
        fill: none;
      }

      .cls-2 {
        fill: #fff;
      }

      .cls-3 {
        clip-path: url(#clip-path);
      }

      .cls-4 {
        clip-path: url(#clip-path-2);
      }

      .cls-5 {
        clip-path: url(#clip-path-3);
      }

      .cls-6 {
        stroke: #fff;
        stroke-miterlimit: 10;
        stroke-width: 0.1px;
      }
    </style>
    <clipPath id="clip-path">
      <polygon class="cls-1" points="67.177 18 36 36 36 72 67.177 54 67.177 18"/>
    </clipPath>
    <clipPath id="clip-path-2">
      <polygon class="cls-1" points="4.823 18 36 36 67.177 18 36 0 4.823 18"/>
    </clipPath>
    <clipPath id="clip-path-3">
      <polygon class="cls-1" points="4.823 18 36 36 36 72 4.823 54 4.823 18"/>
    </clipPath>
  </defs>
  <title>MCMMO Vector 72 x 72</title>
  <g id="Layer_11" data-name="Layer 11">
    <rect class="cls-1" width="72" height="72"/>
  </g>
  <g id="Layer_8" data-name="Layer 8">
    <polyline class="cls-2" points="4.823 18 17.314 25.677 17.686 25.375 17.591 24.55 4.823 18"/>
    <polyline class="cls-2" points="36 72 35 55.478 35.963 55.206 36.746 55.849 36 72"/>
    <polyline class="cls-2" points="67.177 18 54.74 24.626 54.58 25.243 55.377 25.399 67.177 18"/>
  </g>
  <g id="Layer_2" data-name="Layer 2">
    <g class="cls-3">
      <path class="cls-2" d="M66.083,26.1l-11.6,6.7q.012.33.014.66c.008.2.006.408,0,.613l11.588-6.691Z"/>
      <path class="cls-2" d="M53.43,24.621c.244.105.494.2.742.292a.712.712,0,0,1,.253.165.489.489,0,0,1,.155.165.7.7,0,0,1,.118.323,8.522,8.522,0,0,1,.041.86l11.268-6.5V53.36L37.048,70.079V56.907a4.55,4.55,0,0,1-1.4.342,1.6,1.6,0,0,1-.815-.137L36,72,67.177,54V18Z"/>
    </g>
    <g class="cls-4">
      <path class="cls-2" d="M36,0,4.823,18l13.03,8.808a1.761,1.761,0,0,1-.013-.477.543.543,0,0,1-.422-.156.562.562,0,0,1,0-.784c.026-.025.054-.048.082-.072a.6.6,0,0,1,.121-.206,1.678,1.678,0,0,1,.684-.394,1.272,1.272,0,0,1,.122-.062h0a.616.616,0,0,1,.063-.041L7.041,18,36,1.285,64.959,18,53.65,24.533a.74.74,0,0,1,.27.136A1.588,1.588,0,0,1,54.5,25.68c.047.275.09.569.114.861L67.177,18Z"/>
    </g>
    <g class="cls-5">
      <polygon class="cls-2" points="5.664 25.991 5.664 27.271 18.468 34.664 18.468 33.383 5.664 25.991"/>
      <path class="cls-2" d="M36.945,50.511a.549.549,0,0,1,.164.148v-.715a.505.505,0,0,1-.354.326.557.557,0,0,1-.231.008.606.606,0,0,1-.044.189A.6.6,0,0,1,36.945,50.511Z"/>
      <path class="cls-2" d="M36.591,52.408a4.086,4.086,0,0,1-.132,3.081.522.522,0,0,1-.405.263.563.563,0,0,1-.468-.007,2.215,2.215,0,0,1-.7-.487V70.079L5.932,53.36V19.921l10.922,6.305.739.427a2.941,2.941,0,0,1,.073-.693.6.6,0,0,1-.086-.106.556.556,0,0,1,.2-.758,2.862,2.862,0,0,0,.381-.234l.02-.014.018-.015.082-.068c.051-.044.1-.089.151-.135.013-.012.027-.02.04-.031l-.785-.453L4.823,18V54L36,72l1.109-20.649A7.5,7.5,0,0,1,36.591,52.408Z"/>
    </g>
    <polygon class="cls-6" points="46.798 42.234 36 48.468 25.202 42.234 25.202 29.766 36 23.532 46.798 29.766 46.798 42.234"/>
    <g>
      <polygon class="cls-2" points="35.186 47.935 37.935 44.503 34.923 47.783 35.186 47.935"/>
      <polygon class="cls-2" points="34.119 47.319 37.957 42.776 33.795 47.131 34.119 47.319"/>
      <path class="cls-2" d="M36,14.073,17.01,25.036V46.964L36,57.927,54.99,46.964V25.036ZM21.148,27.489l4,2.309V42.2L19.71,45.341V26.659Zm-1.383-.926,16.18-9.341V23.5L25.2,29.7l-5.226-3.017Zm16.18,28.215-16.18-9.341L25.2,42.3l10.743,6.2ZM32.857,46.59l6.64-7.469-7.015,7.252.2.116-1.128-.652,8.959-9.6-9.395,9.353-1.389-.8L39.854,34.117,29.37,44.576l.186.108-1.511-.872,8.969-9.732-9.351,9.511-1.108-.64L38.087,31.039,26.262,42.782l-.946-.546L38.678,28.708,25.257,41.79V40.319L36,29.226,25.257,39.613V38.528l8.577-8.762-8.577,8.25V36.877L31.2,30.26l-5.944,6.015V35.127l4.993-4.979-4.993,4.6V29.8L36,23.6l10.743,6.2V42.2L36,48.4Zm3.2-23.09V17.222l16.18,9.341-4.987,2.879-.45.26Zm0,31.278V48.5L46.8,42.3l5.437,3.139ZM52.29,45.341,46.854,42.2V29.8l3.09-1.785,2.346-1.354ZM54.272,46.5l-1.048-.6V25.98L35.979,16.024,18.734,25.98l-1.048-.605L35.979,14.814,54.272,25.375Z"/>
    </g>
  </g>
</svg>
