<svg xmlns="http://www.w3.org/2000/svg" width="72" height="72" viewBox="0 0 19.05 19.05"><style><![CDATA[.B{stroke-width:.441}.C{fill-opacity:0}.D{stroke-linejoin:round}.E{stroke-dashoffset:0.5}]]></style><g stroke="#fff" class="B C"><path d="M2.451 12.113l-.885-.509v2.644l4.789 2.753v-.881l-.767-.441v-.881l-.924-.531v-1.763l-2.213-1.272z"/><path d="M10.189 6.865l2.443 1.404v.881l2.919 1.681 3.278-1.882v1.119-1.763l-5.573-3.204z" class="D"/></g><path d="M13.517 4.371L9.684 6.575l.767.441 3.067-1.763z" fill="#fff" stroke="#fffefe" class="B D E"/><g stroke="#fff" class="B"><path d="M10.189 2.458L.222 8.188l6.213 3.572 6.197-3.489-2.948-1.695 3.833-2.204z" class="C D"/><path d="M6.435 12.641v.881l.687.395v.881l2.411 1.386 5.312-3.117v-.946l.885-.509v-.681l-3.098-1.781z" class="C"/><g fill="#fff"><path d="M4.055 8.628l.767.441.767-.441V5.984l-.767-.441-.767.441z"/><path d="M1.566 5.434l3.256 1.872 2.941-1.691v-3.67L4.822.254 1.566 2.126zm13.279 3.227l.71.408.617-.355V5.017l-.617-.355-.71.473z"/></g><path d="M18.828 10.273l-1.771 1.018v.441l-.885.509v.881l-.885.509v1.763l3.541-2.036z" class="C E"/><path d="M.222 8.188v5.289l1.344.772v-2.644l.885.509v-.881l2.213 1.272v1.763l.924.531v.881l.767.441v.881l3.177 1.828 5.755-3.437V13.63l.885-.509v-.881l.885-.509v-.441l1.771-1.018V8.95l-3.278 1.882.18.1v.681l-.885.509v.946l-5.312 3.117-2.411-1.386v-.881l-.687-.395v-.881l6.197-3.489V8.27l-6.197 3.489z" fill="#fff" fill-opacity="1" fill-rule="evenodd" class="D"/></g></svg>
