<?xml version="1.0" encoding="UTF-8" standalone="no"?>
<!-- Created with Inkscape (http://www.inkscape.org/) -->

<svg
   xmlns:dc="http://purl.org/dc/elements/1.1/"
   xmlns:cc="http://creativecommons.org/ns#"
   xmlns:rdf="http://www.w3.org/1999/02/22-rdf-syntax-ns#"
   xmlns:svg="http://www.w3.org/2000/svg"
   xmlns="http://www.w3.org/2000/svg"
   xmlns:sodipodi="http://sodipodi.sourceforge.net/DTD/sodipodi-0.dtd"
   xmlns:inkscape="http://www.inkscape.org/namespaces/inkscape"
   width="72"
   height="72"
   viewBox="0 0 72 72"
   version="1.1"
   id="svg8"
   inkscape:version="0.92.1 r15371"
   sodipodi:docname="MO2 Logo - White.svg"
   inkscape:export-filename="C:\Users\user1\Desktop\MO2 13.png"
   inkscape:export-xdpi="96"
   inkscape:export-ydpi="96">
  <defs
     id="defs2" />
  <sodipodi:namedview
     id="base"
     pagecolor="#505050"
     bordercolor="#666666"
     borderopacity="1.0"
     inkscape:pageopacity="0"
     inkscape:pageshadow="2"
     inkscape:zoom="5.6568542"
     inkscape:cx="74.817243"
     inkscape:cy="19.159399"
     inkscape:document-units="px"
     inkscape:current-layer="layer2"
     showgrid="false"
     units="px"
     borderlayer="true"
     inkscape:showpageshadow="false"
     inkscape:snap-page="true"
     inkscape:snap-bbox="true"
     inkscape:bbox-paths="true"
     inkscape:snap-bbox-midpoints="true"
     inkscape:snap-bbox-edge-midpoints="true"
     showguides="false"
     inkscape:guide-bbox="true"
     inkscape:object-paths="true"
     inkscape:snap-intersection-paths="true"
     inkscape:snap-center="true"
     inkscape:snap-object-midpoints="true"
     inkscape:window-width="1920"
     inkscape:window-height="1027"
     inkscape:window-x="-8"
     inkscape:window-y="-8"
     inkscape:window-maximized="1"
     inkscape:snap-smooth-nodes="true"
     inkscape:bbox-nodes="true"
     inkscape:snap-midpoints="true"
     inkscape:measure-start="214.19,638.808"
     inkscape:measure-end="214.19,687.902"
     inkscape:snap-nodes="false"
     inkscape:snap-global="true">
    <sodipodi:guide
       position="36,36"
       orientation="1,0"
       id="guide3853"
       inkscape:locked="false"
       inkscape:label=""
       inkscape:color="rgb(0,0,255)" />
    <sodipodi:guide
       position="36,36.000004"
       orientation="0,1"
       id="guide3855"
       inkscape:locked="false" />
  </sodipodi:namedview>
  <metadata
     id="metadata5">
    <rdf:RDF>
      <cc:Work
         rdf:about="">
        <dc:format>image/svg+xml</dc:format>
        <dc:type
           rdf:resource="http://purl.org/dc/dcmitype/StillImage" />
        <dc:title />
      </cc:Work>
    </rdf:RDF>
  </metadata>
  <g
     inkscape:groupmode="layer"
     id="layer2"
     inkscape:label="Logo"
     style="display:inline"
     transform="translate(0,-928)">
    <path
       style="color:#000000;font-style:normal;font-variant:normal;font-weight:normal;font-stretch:normal;font-size:medium;line-height:normal;font-family:sans-serif;font-variant-ligatures:normal;font-variant-position:normal;font-variant-caps:normal;font-variant-numeric:normal;font-variant-alternates:normal;font-feature-settings:normal;text-indent:0;text-align:start;text-decoration:none;text-decoration-line:none;text-decoration-style:solid;text-decoration-color:#000000;letter-spacing:normal;word-spacing:normal;text-transform:none;writing-mode:lr-tb;direction:ltr;text-orientation:mixed;dominant-baseline:auto;baseline-shift:baseline;text-anchor:start;white-space:normal;shape-padding:0;clip-rule:nonzero;display:inline;overflow:visible;visibility:visible;opacity:1;isolation:auto;mix-blend-mode:normal;color-interpolation:sRGB;color-interpolation-filters:linearRGB;solid-color:#000000;solid-opacity:1;vector-effect:none;fill:#ffffff;fill-opacity:1;fill-rule:nonzero;stroke:none;stroke-width:15.00000095;stroke-linecap:butt;stroke-linejoin:round;stroke-miterlimit:4;stroke-dasharray:none;stroke-dashoffset:0;stroke-opacity:1;color-rendering:auto;image-rendering:auto;shape-rendering:auto;text-rendering:auto;enable-background:accumulate"
       d="m 7.498026,942.86328 a 7.5007505,7.5007505 0 0 0 -7.5,7.5 v 13.63671 13.63672 a 7.5007505,7.5007505 0 0 0 7.5,7.5 h 17.509766 13.861332 a 7.5007505,7.5007505 0 0 0 4.43164,-1.45898 c 2.3373,0.85584 4.77489,1.45702 7.33203,1.45898 a 7.5007505,7.5007505 0 0 0 0.0059,0 c 11.64351,3.8e-4 21.36321,-9.48484 21.36328,-21.13672 -7e-5,-11.65188 -9.71977,-21.13709 -21.36328,-21.13671 a 7.5007505,7.5007505 0 0 0 -0.0039,0 c -4.74444,0.002 -9.16416,1.6828 -12.8125,4.42187 -3.64793,-2.7384 -8.06686,-4.4194 -12.810546,-4.42187 a 7.5007505,7.5007505 0 0 0 -0.0039,0 z m -0.039063,7.5 h 17.509766 a 13.861566,13.637404 0 0 1 12.814455,8.45703 13.861566,13.637404 0 0 1 12.8164,-8.45703 13.861566,13.637404 0 0 1 13.86329,13.63671 13.861566,13.637404 0 0 1 -13.86329,13.63672 13.861566,13.637404 0 0 1 -11.76953,-6.45117 v 6.45117 H 24.968729 7.458963 v -13.63672 z"
       id="path4176"
       inkscape:connector-curvature="0" />
  </g>
</svg>
