<svg xmlns="http://www.w3.org/2000/svg" width="72" height="72"><path style="line-height:normal;font-variant-ligatures:normal;font-variant-position:normal;font-variant-caps:normal;font-variant-numeric:normal;font-variant-alternates:normal;font-feature-settings:normal;text-indent:0;text-align:start;text-decoration-line:none;text-decoration-style:solid;text-decoration-color:#000;text-transform:none;text-orientation:mixed;shape-padding:0;isolation:auto;mix-blend-mode:normal" d="M7.498 14.863a7.5 7.5 0 0 0-7.5 7.5v27.274a7.5 7.5 0 0 0 7.5 7.5H38.869a7.5 7.5 0 0 0 4.432-1.46c2.337.857 4.775 1.458 7.332 1.46a7.5 7.5 0 0 0 .006 0c11.643 0 21.363-9.485 21.363-21.137 0-11.652-9.72-21.137-21.363-21.137a7.5 7.5 0 0 0-.004 0c-4.745.002-9.164 1.683-12.813 4.422-3.648-2.738-8.067-4.42-12.81-4.422a7.5 7.5 0 0 0-.004 0zm-.039 7.5h17.51a13.862 13.637 0 0 1 12.814 8.457A13.862 13.637 0 0 1 50.6 22.363 13.862 13.637 0 0 1 64.463 36 13.862 13.637 0 0 1 50.6 49.637a13.862 13.637 0 0 1-11.77-6.451v6.45H7.46V36z" color="#000" font-weight="400" font-family="sans-serif" white-space="normal" overflow="visible" fill="#fff" stroke-width="15" stroke-linejoin="round"/></svg>