<svg width="72" height="72" fill="none" xmlns="http://www.w3.org/2000/svg"><path d="M71.825 31.473V21.78c0-11.553-9.4-20.957-20.954-20.957-5.642 0-10.773 2.244-14.546 5.882C32.553 3.066 27.422.822 21.78.822 10.225.822.825 10.226.825 21.779v29.085c0 11.558 9.4 20.958 20.955 20.958h29.09c11.555 0 20.955-9.4 20.955-20.959V36.776H29.913v12.827h29.085v1.262c0 4.484-3.648 8.131-8.127 8.131H21.78c-4.481 0-8.129-3.647-8.129-8.131V21.779c0-4.484 3.648-8.132 8.128-8.132 4.485 0 8.133 3.648 8.133 8.132v9.694h12.826V21.78c0-4.484 3.648-8.132 8.132-8.132 4.48 0 8.127 3.648 8.127 8.132v9.694h12.827z" fill="#fff"/></svg>