<svg version="1.1" viewBox="0 0 72 72" xmlns="http://www.w3.org/2000/svg"><path d="m58.56 19.971c1.5641 1.3202 2.8085 3.0016 3.954 4.6979 0.70571 1.045 1.2858 2.1784 1.7748 3.3407 0.62304 1.4811 1.1685 3.0136 1.4616 4.5935 0.32423 1.748 0.41043 3.5491 0.31319 5.3242-0.10233 1.868-0.41082 3.7386-0.93957 5.5331-0.52435 1.7795-1.2796 3.5004-2.1923 5.1155-0.82795 1.4651-1.8168 2.8527-2.9492 4.0976-1.2364 1.3591-2.6987 2.5008-4.1498 3.6278-1.6009 1.2433-3.2482 2.4446-5.0111 3.4451-1.4152 0.8032-2.6878 1.3365-4.4369 2.0358-0.76636 0.30637-2.4279 0.85868-3.2106 1.1235-0.78272 0.26481-0.7989 0.30012-1.5996 0.50044-1.2071 0.30203-2.4287 0.54724-3.6577 0.75093m-4.5902 0.90849c-2.2816 0.13874-4.0221 0.16969-6.0343 0.21223-1.7263 0.0365-3.4549 0.11054-5.18 0.0369-1.257-0.0537-2.5373-0.0449-3.7583-0.34839-1.3171-0.32736-2.8135-0.59163-3.7583-1.566-0.54438-0.56142-0.80168-1.411-0.83518-2.1924-0.0325-0.75932 0.27299-1.5195 0.62639-2.1923 0.71269-1.357 1.9946-2.33 2.9231-3.5495 0.95328-1.2521 2.0416-2.4401 2.7143-3.8627 0.27792-0.58769 0.60931-1.2349 0.52198-1.8791-0.10903-0.8043-0.5502-1.6815-1.2528-2.088-1.0849-0.62757-2.1943-0.40159-3.1841 0.0522-1.576 0.72255-2.9904 1.7585-4.4369 2.7143-1.1762 0.77721-2.2418 1.7188-3.4451 2.4533-0.96975 0.59201-1.9085 1.3695-3.0275 1.566-0.795 0.13959-1.7575 0.17388-2.4011-0.31319-1.0567-0.79962-1.346-2.3472-1.566-3.6539-0.32435-1.9266 0.13202-3.9135 0.41759-5.8462 0.32331-2.1881 0.78265-4.3675 1.4616-6.4726 0.46424-1.4394 1.0636-2.8411 1.7748-4.1759 0.83963-1.5759 1.8281-3.0786 2.9231-4.4891 1.0724-1.3812 2.3115-2.6278 3.5495-3.8627 1.1684-1.1655 2.365-2.3101 3.6539-3.3407 1.8548-1.483 3.7797-2.9015 5.8462-4.0715 1.6265-0.92089 3.3741-1.6176 5.1155-2.2967 1.7429-0.67977 3.497-1.3734 5.3242-1.7748 1.8467-0.40561 3.7496-0.52183 5.6374-0.62639 1.911-0.10584 3.8365-0.18154 5.7418 0 1.8344 0.17479 3.6712 0.48992 5.4287 1.044 1.7674 0.5572 3.4272 1.4221 5.0744 2.271" fill="none" stroke="#fff" stroke-linecap="round" stroke-width="2.2335"/><path d="m33.327 65.066c3.7626-10.845 7.6641-21.593 12.066-32.254 0.48128-1.1655 1.0882-2.283 1.7748-3.3407 0.76941-1.1853 1.9352-2.0991 2.6099-3.3407 1.9862-3.6551 4.0715-11.797 4.0715-11.797l-1.9836-12.423s2.5734-0.22614 3.8627-0.2088c1.2917 0.0174 2.5932 0.0741 3.8627 0.31319 1.0711 0.20176 2.1397 0.4885 3.1319 0.93958 1.0108 0.45951 1.9406 1.0953 2.8187 1.7748 0.64253 0.49714 1.228 1.0695 1.7748 1.6704 0.53411 0.58688 1.0344 1.2104 1.4616 1.8792 0.69531 1.0887 1.7748 3.4451 1.7748 3.4451l-10.231 5.6374s-5.0917 6.8469-6.2638 10.857c-0.21499 0.73559 0.0157 1.5398-0.10439 2.2967-0.16399 1.034-0.37176 2.0888-0.83518 3.0275-5.9268 12.005-12.404 24.774-18.061 36.33-0.17907 0.36584-0.74267 0.38144-1.1484 0.41759-0.30918 0.0275-0.63929-0.0211-0.91764-0.1585-0.29667-0.14643-0.58319-0.3766-0.72897-0.6736-0.1238-0.25224-0.12572-0.56356-0.0738-0.83971 0.22675-1.2064 0.73027-2.3782 1.1379-3.5532z" fill="none" stroke="#fff" stroke-width="2.2335"/><path d="m53.849 14.334s1.6253 0.3748 2.405 0.66411c0.68884 0.2556 1.3559 0.57545 1.9931 0.94121 0.72712 0.41736 2.0745 1.4222 2.0745 1.4222" fill="none" stroke="#fff" stroke-width="2.2335"/><path d="m49.778 26.131s1.3941 0.33638 2.0473 0.62306c0.4444 0.19504 0.85042 0.47006 1.2549 0.7382 0.33853 0.2244 0.97803 0.72669 0.97803 0.72669" fill="none" stroke="#fff" stroke-width="2.2335"/><path transform="matrix(.22335 0 0 .22335 .78493 1.366)" d="m108.71 177.79c-2.4315 5.0777-2.4775 11.238-0.12207 16.351 2.3554 5.1134 7.0672 9.0822 12.506 10.534 5.4393 1.4521 11.502 0.35987 16.093-2.8992 4.5906-3.259 7.6211-8.6226 8.0439-14.237 0.36294-4.8187-1.1735-9.755-4.207-13.517s-7.5323-6.3088-12.318-6.975c-4.0078-0.55783-8.187 0.19113-11.752 2.106s-6.4965 4.9859-8.2441 8.6355z" fill="none" stroke="#fff" stroke-width="10"/><path d="m7.0164 37.642c0.29514-0.88929 0.72085-1.7932 1.4026-2.436 0.72058-0.67945 1.6808-1.1647 2.6575-1.3288 0.93008-0.15622 1.9245 0.0316 2.8052 0.3691 0.97512 0.37367 1.8417 1.0368 2.5837 1.7717 0.42682 0.42272 0.82923 0.91146 1.0335 1.4764 0.2015 0.55729 0.21262 1.1826 0.14764 1.7717-0.0452 0.41-0.15556 0.82822-0.3691 1.1811-0.41434 0.68479-1.2573 1.0297-1.6979 1.6979-0.29178 0.4425-0.26814 1.0557-0.59056 1.4764-0.37419 0.48827-0.90888 0.8699-1.4764 1.1073-0.45909 0.19205-0.98706 0.31191-1.4764 0.22146-0.63927-0.11816-1.246-0.49232-1.6979-0.95966-0.44375-0.45889-0.4024-1.281-0.88584-1.6979-0.51273-0.44211-1.3455-0.30514-1.9193-0.66438-0.35396-0.22157-0.74916-0.49125-0.88584-0.88584-0.34066-0.98345 0.0413-2.1126 0.3691-3.1004z" fill="none" stroke="#fff" stroke-linecap="round" stroke-width="2.2335"/><path d="m17.425 25.314c-0.28305 0.42097-0.61032 0.89569-0.59056 1.4026 0.0334 0.85777 0.99402 1.4506 1.1811 2.2884 0.14491 0.64885-0.23542 1.3482-0.0738 1.9931 0.16619 0.66319 0.57657 1.2631 1.0335 1.7717 0.38811 0.432 0.86085 0.82422 1.4026 1.0335 0.89989 0.3476 1.9201 0.40096 2.879 0.29528 0.92814-0.1023 1.9-0.33986 2.6575-0.88584 0.49904-0.35969 0.89894-0.89759 1.1073-1.4764 0.35044-0.97349-0.0369-2.0824 0.14764-3.1004 0.12906-0.7121 0.56856-1.3496 0.66438-2.067 0.0717-0.53713 0.095-1.1091-0.0738-1.624-0.16579-0.50584-0.47788-0.9868-0.88584-1.3288-0.32935-0.27605-0.75157-0.50397-1.1811-0.51674-0.49803-0.0148-0.94341 0.32331-1.4026 0.51674-0.52745 0.2222-0.98372 0.6567-1.5502 0.7382-0.61664 0.0887-1.2259-0.23041-1.8455-0.29528-0.49007-0.0513-0.99298-0.16926-1.4764-0.0738-0.45356 0.0896-0.8767 0.32472-1.2549 0.59056-0.2847 0.2001-0.54402 0.44942-0.7382 0.7382z" fill="none" stroke="#fff" stroke-linecap="round" stroke-width="2.2335"/><path d="m31.968 19.852c-0.37125 0.69484-0.45494 1.5124-0.59056 2.2884-0.13616 0.77906-0.36074 1.5837-0.22147 2.3622 0.12017 0.6717 0.37938 1.3882 0.88585 1.8455 0.48527 0.43816 1.2602 0.37311 1.8455 0.66439 0.60493 0.30101 1.1142 0.76682 1.6979 1.1073 0.64642 0.37712 1.2569 0.89904 1.9932 1.0335 0.82869 0.15133 1.7058-0.0441 2.5099-0.29528 0.8511-0.26581 1.7076-0.64965 2.3622-1.2549 0.47116-0.4356 0.90772-0.99483 1.0335-1.624 0.11258-0.56331-0.20127-1.1312-0.29529-1.6979-0.0775-0.46694-0.27617-0.93244-0.22146-1.4026 0.0676-0.58097 0.60864-1.0418 0.66439-1.624 0.0598-0.6245-0.0806-1.2884-0.36911-1.8455-0.29618-0.57187-0.7541-1.1118-1.3288-1.4026-0.53106-0.26869-1.187-0.33259-1.7717-0.22147-0.37188 0.0707-0.61827 0.5574-0.99658 0.54443-0.65661-0.0225-1.1024-0.71526-1.661-1.0612-0.48794-0.30216-0.90253-0.89277-1.4764-0.88584-0.87373 0.0106-1.5481 0.8375-2.2146 1.4026-0.7045 0.59734-1.4102 1.2523-1.8455 2.067z" fill="none" stroke="#fff" stroke-linecap="round" stroke-width="2.2335"/></svg>
