<svg width="72" height="72" viewBox="0 0 19.05 19.05" xmlns="http://www.w3.org/2000/svg"><g fill="#f9f9f9"><path d="M17.066 10.778c-.114-.423-.324-.292-2.039-.292-2.287 0-2.434.118-1.432-1.326 1.326-1.912 1.884-3.211 1.515-3.776-.254-.39-.546-.338-1.04.185-.458.486-1.008.227-1.008-.518 0-1.09 1.514-2.168 2.908-2.164.871.003 1.315.22 1.736.846.605.901.395 2.09-.612 3.467-.833 1.14-.396 1.959.516.966.79-.915.841.466.804.923-.124 1.461-1.12 2.524-1.348 1.689z" fill="#999"/><path d="M.786 12.985c-.165-.108-.045-.467.465-1.39.854-1.547 2.818-5.757 3.647-7.817.492-1.223.532-1.537.226-1.785-.163-.133-.184-.185-.12-.293.239-.398 1.613-.57 2.193-.273.647.33.944 1.129 1.334 3.582.311 1.957.541 3.272.584 3.342.115.187.343-.27 1.211-2.425 1.216-3.019 1.752-3.989 2.384-4.316.28-.144.486-.187 1.026-.21.865-.038.89-.018.89.702-.002.935-.044 1.066-.413 1.283-.688.405-1.17 1.088-1.17 1.66-.002.786.581 1.03 1.118.468.112-.118.23-.214.262-.214.033 0 .06.301.06.67 0 .368.03.86.068 1.09.078.477.089.454-.99 2.096-.6.913-.652 1.042-.49 1.204.098.1.324.123 1.343.142l1.225.023.301.401c.369.49.392.759.1 1.143-.266.351-.801.735-1.167.838-.535.15-1.201-.145-1.781-.79-.744-.826-1.077-2.136-1.176-4.629-.035-.864-.075-1.243-.13-1.225-.044.015-.538 1.086-1.097 2.382-1.774 4.108-1.989 4.491-2.45 4.375-.29-.073-.729-.576-1.032-1.181-.598-1.197-.936-2.738-1.1-5.018-.046-.657-.112-1.225-.145-1.263-.073-.082-.315.447-1.124 2.454-1.088 2.698-1.51 3.547-2.062 4.15-.47.51-1.694 1.018-1.99.824z"/><g fill="#333"><path d="M10.27 16.591c-.176-.138-.192-.192-.173-.561l.022-.409h.247c.24 0 .248.009.253.29l.004.29.38.022c.29.016.39-.005.422-.091.087-.226-.058-.487-.532-.965a10.727 10.727 0 01-.648-.7c-.208-.273-.22-.75-.025-.993.127-.157.192-.17.786-.17.74 0 .906.086.974.505.062.385-.037.653-.24.653-.144 0-.185-.053-.25-.326-.073-.298-.1-.328-.32-.35a1.478 1.478 0 00-.412.02c-.322.081-.204.314.514 1.013l.686.667v.489c0 .747-.024.769-.823.769-.575 0-.7-.022-.866-.153zM13.14 17.782c.026-.153.065-.57.088-.93.038-.61.019-.734-.298-1.955-.186-.717-.355-1.377-.375-1.467-.032-.141-.008-.163.179-.163.119 0 .252.044.296.098.045.053.164.469.265.923.225 1.014.244 1.08.318 1.08.086 0 .192-.306.403-1.159.21-.848.262-.942.517-.942.212 0 .249-.236-.379 2.41-.253 1.068-.502 2.03-.553 2.138a.355.355 0 01-.3.22c-.202.024-.205.018-.16-.253zM17.097 15.498l-.001.565s.022.54-.059.617c-.082.077-.393.064-.827.064-.752 0-.792-.008-.9-.175-.078-.118-.108-.299-.093-.561.022-.376.028-.387.238-.387.16 0 .22.037.237.145.07.47.072.47.441.47.719 0 .64-.402-.226-1.174-.533-.474-.704-.73-.703-1.049.003-.555.239-.746.923-.746.78 0 1.024.2 1.024.835 0 .46-.436.55-.508.103-.061-.376-.119-.431-.456-.431-.319 0-.478.095-.48.286 0 .062.317.414.704.782"/></g></g></svg>