<?xml version="1.0" encoding="UTF-8"?><svg version="1.1" viewBox="0 0 72 72" xmlns="http://www.w3.org/2000/svg" xmlns:cc="http://creativecommons.org/ns#" xmlns:dc="http://purl.org/dc/elements/1.1/" xmlns:rdf="http://www.w3.org/1999/02/22-rdf-syntax-ns#" xmlns:xlink="http://www.w3.org/1999/xlink"><metadata><rdf:RDF><cc:Work rdf:about=""><dc:format>image/svg+xml</dc:format><dc:type rdf:resource="http://purl.org/dc/dcmitype/StillImage"/><dc:title/></cc:Work></rdf:RDF></metadata><g transform="translate(0 3.7333)" fill="#fff"><path transform="translate(0 -3.7333)" d="m4 0c-2 0-4 2-4 4v64c0 2 2 4 4 4h64c2 0 4-2 4-4v-64c0-2-2-4-4-4zm20 4h4v8h4v-4h4v8h4v-4h4v4h4.002v-4h3.998v-4h4.002v4h8v-4h3.998v60h-64v-56h4v-4h4v4h8v4h4z"/><g transform="matrix(.9478 0 0 .9478 3.6478 -.092946)"><path d="m19.578 21.323c-4.4088 3.3e-5 -7.9302 1.137-10.538 3.359-2.7966 2.4033-4.241 5.3405-4.358 8.8331-0.0051 0.15227-0.021955 0.29932-0.021955 0.45373-4.283e-4 0.04461-0.00732 0.08695-0.00732 0.13173-1.04e-5 3.8501 1.4596 6.9401 4.3781 9.2721 0.080505 0.06474 0.1671 0.1201 0.24882 0.18296 0.030045 0.02443 0.055628 0.05075 0.085989 0.07501 0.04232 0.03402 0.08907 0.06528 0.13173 0.0988-0.015513-0.01544-0.028504-0.03207-0.043909-0.04757 2.6938 2.0079 6.025 3.0242 10.009 3.0242 3.5705 7e-6 6.5044-0.70326 8.802-2.1113 1.8318-1.166 3.7889-3.0699 5.8692-5.71 1.5213 1.8481 2.7624 3.169 3.725 3.961 1.6144 1.386 3.2595 2.3754 4.9361 2.9694 1.6765 0.66002 3.6484 0.98979 5.9149 0.98979 4.4087 6e-6 7.9173-1.1114 10.525-3.3334 2.9184-2.508 4.378-5.609 4.3781-9.3051-5.5e-5 -3.018-0.91079-5.5623-2.7041-7.6475 0.10724 0.08141 0.22051 0.15329 0.32566 0.23784-0.17038-0.2157-0.36568-0.41512-0.55252-0.62022 0.01822 0.01441 0.03856 0.02575 0.05672 0.04025-0.03942-0.04014-0.08257-0.07598-0.12258-0.11526-0.41324-0.44597-0.85113-0.87749-1.3557-1.2807-2.7633-2.222-6.248-3.359-10.439-3.359-3.5706 3.2e-5 -6.4953 0.73257-8.7928 2.1406-1.7946 1.1423-3.8726 3.2478-5.9058 5.8052-0.74606-0.9112-1.4933-1.7418-2.2394-2.5101 0.1678 0.14226 0.34528 0.27631 0.50496 0.42628 0.06753 0.06103 0.13005 0.1354 0.19759 0.19759-0.30739-0.33477-0.61559-0.6547-0.92392-0.96783 0.01 0.0089 0.02113 0.0167 0.0311 0.02561-0.016-0.01573-0.03328-0.02836-0.0494-0.04391-0.41091-0.4167-0.82164-0.81726-1.2313-1.1874-1.3351-1.254-2.9509-2.2378-4.9068-2.9639-1.6766-0.65998-3.6613-1.0209-5.9277-1.0209zm-0.62754 4.4934c4.2425 2.8e-5 8.3298 2.8702 12.263 8.6044-3.0676 5.2188-7.1357 7.8469-12.229 7.8469-1.8518 7e-6 -3.3785-0.18863-4.7074-0.72999-0.04654-0.01896-0.09482-0.03504-0.14088-0.05489-0.0293-0.01283-0.0569-0.02714-0.08599-0.04025-0.21026-0.09476-0.41393-0.19825-0.6129-0.30736-0.19975-0.11281-0.396-0.2321-0.58728-0.36591 0.0032 0.0046 6e-3 0.0064 0.0091 0.01098-0.32907-0.21662-0.64776-0.44726-0.94217-0.70803-1.7077-1.518-2.5614-3.5076-2.5614-5.9716-1.5e-5 -2.244 0.85371-4.2135 2.5614-5.9076 1.5834-1.584 3.928-2.3766 7.0328-2.3766zm30.365 0.06586c2.9495 2.9e-5 5.294 0.77071 7.0328 2.3107 1.7076 1.5181 2.5613 3.5094 2.5614 5.9735-8e-6 0.28051-0.01356 0.55687-0.04025 0.82878-0.02616 0.22676-0.05571 0.45226-0.10063 0.67327-4.55e-4 0.0025-0.0014 0.0049-0.0018 0.0073-0.32323 1.5828-1.1253 3.0181-2.404 4.2866-1.5835 1.584-3.9098 2.3711-7.0145 2.3711-2.6217 8e-6 -5.2568-1.0198-7.739-3.1779 0.01395 0.01561 0.02812 0.02837 0.04208 0.04391-1.5716-1.368-3.1149-3.1638-4.6306-5.3972 3.5705-5.2801 7.6684-7.9201 12.295-7.9201z" fill="#fff"/></g></g></svg>
