<svg xmlns="http://www.w3.org/2000/svg" width="40" height="40" viewBox="0 0 40 40"><defs><style>.a{opacity:0.9;}.b{fill:#4e8195;}.c{fill:#88aab8;}.d{fill:#a2bdc7;}.e{fill:#95b3bf;}.f{fill:#628fa1;}.g{fill:#6a95a6;}.h{fill:#206079;}.i{fill:#326d84;}.j{fill:#3e768b;}.k{fill:#c7d7dd;}.l{fill:#bbced6;}</style></defs><title>myst-circle</title><g class="a"><g class="a"><path class="b" d="M11.328,27.3a11.051,11.051,0,0,0,4.256,2.828,11.781,11.781,0,0,1-1.282.023,2.653,2.653,0,0,1-.964-0.369,6.24,6.24,0,0,1-.775-0.717l-0.634-.879A8.079,8.079,0,0,0,11.328,27.3Z"/><path class="b" d="M8.968,23.158l0.013,0.007a10.651,10.651,0,0,0,1.869,3.561,2.746,2.746,0,0,0-.208-0.189A3.807,3.807,0,0,1,8.968,23.158Z"/><path class="c" d="M21.117,1.785a18.926,18.926,0,0,0-5.15,6.846c-0.355.26-.641,0.69-0.937,0.854,0.028,0.042-.5.328-1.092,0.791a19.23,19.23,0,0,0-1.723,1.436c-0.151-1.19-.271-2.465-0.487-3.907-0.31.095-.751,0.286-1.155,0.416a0.96,0.96,0,0,1-.889.07,3.418,3.418,0,0,1-.4-2.4,6.846,6.846,0,0,1,.367-1.3,14.1,14.1,0,0,1,.655-1.286,22.306,22.306,0,0,1,4.262-1.166A35.578,35.578,0,0,1,21.117,1.785Z"/><path class="d" d="M28.971,4.445a10.388,10.388,0,0,1,2.59,2.518,18.489,18.489,0,0,1,1.466,2.385l-3.442.368a14.611,14.611,0,0,0,.258,1.854l-0.636.009a11.707,11.707,0,0,0-6.851-3.25,3.6,3.6,0,0,1,.79-0.777,11.4,11.4,0,0,1,1.746-1.18c0.348-.2.72-0.4,1.1-0.59l1.116-.5C27.847,4.961,28.533,4.684,28.971,4.445Z"/><path class="e" d="M22.611,2.382a19.421,19.421,0,0,1,2.407.129,18.014,18.014,0,0,1,2.056.8,14.982,14.982,0,0,1,1.9,1.138c-1.786,1-3.594,1.938-5.169,2.7a7.752,7.752,0,0,1,.311.764c-0.939.117-1.475-.11-1.758,0.421a14,14,0,0,0-3.44.1,13.79,13.79,0,0,0-3.208.984,1.52,1.52,0,0,1,1.306-.653,0.654,0.654,0,0,0-1.046-.129,18.926,18.926,0,0,1,5.15-6.846l0.742,0.054A0.744,0.744,0,0,0,22.611,2.382Z"/><path class="f" d="M7.32,25.566c-0.8-.567-1.673-1.065-2.5-1.561-0.874-.485-1.741-0.949-2.627-1.416a6.186,6.186,0,0,0-.083-2.756c0.026-.408.082-0.926,0.146-1.479,0.081-.551.226-1.133,0.321-1.684a5.892,5.892,0,0,0,.323-2.4c-0.086-.179-0.066,0,0.03.377a15.887,15.887,0,0,0,.614,1.6A11.713,11.713,0,0,0,5.732,19.5a2.938,2.938,0,0,1,1.159.558,8.712,8.712,0,0,1,1.053.9c-0.046.226-.589,0.083-0.661,0.32a7.734,7.734,0,0,1,.738.317l0.119,0.89a13.04,13.04,0,0,0,.386,1.443,0.663,0.663,0,0,0-.08.933,0.925,0.925,0,0,0,.6.352c0.1,0.2.2,0.418,0.305,0.62l0,0.023a10.756,10.756,0,0,1-1.15-.478A2.056,2.056,0,0,0,7.32,25.566Z"/><path class="g" d="M9.684,8.292a3.418,3.418,0,0,1-.4-2.4,6.846,6.846,0,0,1,.367-1.3,14.1,14.1,0,0,1,.655-1.286C10,3.444,9.431,3.674,8.945,3.926L7.96,4.479c0.4,0.173.906,0.3,0.692,0.666-0.364.389-.729,0.861-1.074,1.3L6.649,7.553C5.886,8.171,4.831,8.7,3.988,9.475A14.71,14.71,0,0,0,3.1,12.005a1.764,1.764,0,0,0,.582.828A10.111,10.111,0,0,1,2.9,14.271c0.032,0.026.052,0.353,0.18,0.849A12,12,0,0,0,3.6,16.874a7.6,7.6,0,0,0,.955,1.71,2.671,2.671,0,0,0,1.174.916,2.938,2.938,0,0,1,1.159.558,8.712,8.712,0,0,1,1.053.9c0.013-.02-0.01-0.513.021-1.11l0.1-.93c0.031-.306.119-0.586,0.158-0.81a1.5,1.5,0,0,0-.647.4,10.264,10.264,0,0,1,.878-1.276c0.145-.561.665-1.868,0.69-2a2.668,2.668,0,0,0-.887-0.194,9.005,9.005,0,0,0,1.163-.689,6.788,6.788,0,0,0,.972-0.705c0.115-.163.258-0.3,0.383-0.458,0.174,0.052.291,0.087,0.243,0.152a2.3,2.3,0,0,1-.129.358c0.131-.124.424-0.488,0.766-0.808,0.358-.308.685-0.64,0.859-0.741a9.787,9.787,0,0,1-1.243.478c0.32-.285.575-0.629,0.916-0.885l0.032-.041c-0.151-1.188-.27-2.456-0.484-3.893-0.31.095-.751,0.286-1.155,0.416A0.96,0.96,0,0,1,9.684,8.292Z"/><path class="h" d="M30.6,24.175c1.167-.526,1.45-2.008,2.631-2.776a7.432,7.432,0,0,1,3.239-.923A13.825,13.825,0,0,0,39.924,20a22.41,22.41,0,0,1-3.274,8.9,20.978,20.978,0,0,1-6.492,6.348,12.363,12.363,0,0,1,1.617-2.281,2.953,2.953,0,0,0,.735-2.549,2.11,2.11,0,0,0-.95.063c0.221-.688.532-1.525,0.71-2.217a1.388,1.388,0,0,0-.391-1.588c-0.591-.327-1.4-0.411-2.214-0.759l0.181-.3a0.771,0.771,0,0,0,.467-0.548C30.4,24.8,30.517,24.5,30.6,24.175Z"/><path class="i" d="M25.812,28.834c0.317-.254.62-0.526,0.92-0.793,0.263-.311.583-0.559,0.815-0.892a5.4,5.4,0,0,0,.481.371,16.154,16.154,0,0,1-2.186,2.053A4.353,4.353,0,0,0,25.812,28.834Z"/><path class="i" d="M31.561,30.478a2.11,2.11,0,0,1,.95-0.063,2.953,2.953,0,0,1-.735,2.549,12.363,12.363,0,0,0-1.617,2.281,19.308,19.308,0,0,1-6.409,2.5q0.521-.4,1-0.809c-1.215.331-1.751-1.162-2.843-1a21.81,21.81,0,0,0,4.308-3.223,5.145,5.145,0,0,0,1.667-4.279,16.342,16.342,0,0,0,1.782-2.521c0.815,0.348,1.623.432,2.214,0.759a1.388,1.388,0,0,1,.391,1.588C32.093,28.952,31.782,29.79,31.561,30.478Z"/><path class="j" d="M21.908,35.937c1.092-.159,1.628,1.335,2.843,1q-0.481.407-1,.809a18.957,18.957,0,0,1-7.878-.122l-0.5-.2A17.166,17.166,0,0,1,10.4,34.978a17.136,17.136,0,0,0,4.26-.766,10.429,10.429,0,0,0,6.729,3.769c-1.026-.167-0.8-1.286-1.272-1.484a5.109,5.109,0,0,1-1.831-2.575,2.8,2.8,0,0,1,.132-2.37,11.561,11.561,0,0,0,3.762-.358,11.731,11.731,0,0,0,3.343-1.543,1.792,1.792,0,0,0,.853.345,15.07,15.07,0,0,0,1.508-1.56,5.145,5.145,0,0,1-1.667,4.279A21.81,21.81,0,0,1,21.908,35.937Z"/><path class="b" d="M14.659,34.212a17.136,17.136,0,0,1-4.26.766,7.435,7.435,0,0,1-1.076-1,0.763,0.763,0,0,0-.215.566c-0.284-.216-0.589-0.41-0.853-0.65C8,33.509,8.185,32.757,7.167,32.931c-0.355-.359-0.694-0.733-1.038-1.1a2.292,2.292,0,0,1,.1-1.61l-0.532.4c-0.667-.139-0.6-0.811-0.843-1.239a1.719,1.719,0,0,1-.4.2A9.263,9.263,0,0,0,4.105,28.7c-0.119-.3-0.236-0.606-0.37-0.9C3.452,27.2,3.2,26.6,2.963,26.039a22.466,22.466,0,0,1-.9-2.368c0.055-.365.1-0.726,0.133-1.081,0.886,0.468,1.753.932,2.627,1.416,0.829,0.5,1.705.993,2.5,1.561a2.056,2.056,0,0,1,.888-0.191,10.756,10.756,0,0,0,1.15.478,3.212,3.212,0,0,0,1.381,2.516,4.709,4.709,0,0,0,1.406.731,5.248,5.248,0,0,0,.634.469c0.279,0.248.572,0.566,0.925,0.869a6.025,6.025,0,0,0,1.169.9,3.837,3.837,0,0,0,1.428.506,2.64,2.64,0,0,0,1.518-.346l0.6,0.051a2.8,2.8,0,0,0-.132,2.37A5.109,5.109,0,0,0,20.116,36.5c0.422,0.2,2.132,1.369,1.272,1.484a8.469,8.469,0,0,1-4.831-1.831A9.459,9.459,0,0,1,14.659,34.212Z"/><path class="k" d="M35.168,17.783A17.842,17.842,0,0,1,34.956,20c-0.049-.78.175-1.615-0.426-1.957a2.292,2.292,0,0,0-.013-1.142A3.3,3.3,0,0,1,35.168,17.783Z"/><path class="k" d="M31.838,17.121l-0.127-.5c0.423-.129.938,0.11,0.816,0.514,0.43-.1-0.091-0.351.123-0.4,0.569-.149.646,0.06,0.642,0.327-0.969.2-1.995,0.178-2.053-.049l-0.08-.312A2.4,2.4,0,0,0,31.838,17.121Z"/><path class="l" d="M29.844,11.571a14.611,14.611,0,0,1-.258-1.854l3.442-.368a17.566,17.566,0,0,1,1.921,5.922,4.01,4.01,0,0,0-.817-0.778,2.375,2.375,0,0,1,.227,1.143,0.96,0.96,0,0,0-.424-0.076l-0.012,0c-0.027-.285-0.131-0.5-0.683-0.3-0.21.072,0.345,0.3-.075,0.439a0.586,0.586,0,0,0-.884-0.488l0.19,0.52a2.5,2.5,0,0,1-.737-0.4,11.132,11.132,0,0,0-2.526-3.755Z"/></g></g></svg>