<svg xmlns="http://www.w3.org/2000/svg" width="40" height="40"><defs><style>.a{opacity:.9}.b{fill:#4e8195}</style></defs><g class="a"><g class="a"><path class="b" d="M11.328 27.3a11.051 11.051 0 0 0 4.256 2.828 11.781 11.781 0 0 1-1.282.023 2.653 2.653 0 0 1-.964-.369 6.24 6.24 0 0 1-.775-.717l-.634-.879a8.079 8.079 0 0 0-.601-.886zm-2.36-4.142l.013.007a10.651 10.651 0 0 0 1.869 3.561 2.746 2.746 0 0 0-.208-.189 3.807 3.807 0 0 1-1.674-3.379z"/><path d="M21.117 1.785a18.926 18.926 0 0 0-5.15 6.846c-.355.26-.641.69-.937.854.028.042-.5.328-1.092.791a19.23 19.23 0 0 0-1.723 1.436c-.151-1.19-.271-2.465-.487-3.907-.31.095-.751.286-1.155.416a.96.96 0 0 1-.889.07 3.418 3.418 0 0 1-.4-2.4 6.846 6.846 0 0 1 .367-1.3 14.1 14.1 0 0 1 .655-1.286 22.306 22.306 0 0 1 4.262-1.166 35.578 35.578 0 0 1 6.549-.354z" fill="#88aab8"/><path d="M28.971 4.445a10.388 10.388 0 0 1 2.59 2.518 18.489 18.489 0 0 1 1.466 2.385l-3.442.368a14.611 14.611 0 0 0 .258 1.854l-.636.009a11.707 11.707 0 0 0-6.851-3.25 3.6 3.6 0 0 1 .79-.777 11.4 11.4 0 0 1 1.746-1.18c.348-.2.72-.4 1.1-.59l1.116-.5c.739-.321 1.425-.598 1.863-.837z" fill="#a2bdc7"/><path d="M22.611 2.382a19.421 19.421 0 0 1 2.407.129 18.014 18.014 0 0 1 2.056.8 14.982 14.982 0 0 1 1.9 1.138 99.961 99.961 0 0 1-5.169 2.7 7.752 7.752 0 0 1 .311.764c-.939.117-1.475-.11-1.758.421a14 14 0 0 0-3.44.1 13.79 13.79 0 0 0-3.208.984 1.52 1.52 0 0 1 1.306-.653.654.654 0 0 0-1.046-.129 18.926 18.926 0 0 1 5.15-6.846l.742.054a.744.744 0 0 0 .749.538z" fill="#95b3bf"/><path d="M7.32 25.566c-.8-.567-1.673-1.065-2.5-1.561-.874-.485-1.741-.949-2.627-1.416a6.186 6.186 0 0 0-.083-2.756c.026-.408.082-.926.146-1.479.081-.551.226-1.133.321-1.684a5.892 5.892 0 0 0 .323-2.4c-.086-.179-.066 0 .03.377a15.887 15.887 0 0 0 .614 1.6A11.713 11.713 0 0 0 5.732 19.5a2.938 2.938 0 0 1 1.159.558 8.712 8.712 0 0 1 1.053.9c-.046.226-.589.083-.661.32a7.734 7.734 0 0 1 .738.317l.119.89a13.04 13.04 0 0 0 .386 1.443.663.663 0 0 0-.08.933.925.925 0 0 0 .6.352c.1.2.2.418.305.62v.023a10.756 10.756 0 0 1-1.15-.478 2.056 2.056 0 0 0-.881.188z" fill="#628fa1"/><path d="M9.684 8.292a3.418 3.418 0 0 1-.4-2.4 6.846 6.846 0 0 1 .367-1.3 14.1 14.1 0 0 1 .655-1.286c-.306.138-.875.368-1.361.62l-.985.553c.4.173.906.3.692.666-.364.389-.729.861-1.074 1.3l-.929 1.108c-.763.618-1.818 1.147-2.661 1.922a14.71 14.71 0 0 0-.888 2.53 1.764 1.764 0 0 0 .582.828 10.111 10.111 0 0 1-.782 1.438c.032.026.052.353.18.849a12 12 0 0 0 .52 1.754 7.6 7.6 0 0 0 .955 1.71 2.671 2.671 0 0 0 1.174.916 2.938 2.938 0 0 1 1.159.558 8.712 8.712 0 0 1 1.053.9c.013-.02-.01-.513.021-1.11l.1-.93c.031-.306.119-.586.158-.81a1.5 1.5 0 0 0-.647.4 10.264 10.264 0 0 1 .878-1.276c.145-.561.665-1.868.69-2a2.668 2.668 0 0 0-.887-.194 9.005 9.005 0 0 0 1.163-.689 6.788 6.788 0 0 0 .972-.705c.115-.163.258-.3.383-.458.174.052.291.087.243.152a2.3 2.3 0 0 1-.129.358c.131-.124.424-.488.766-.808.358-.308.685-.64.859-.741a9.787 9.787 0 0 1-1.243.478c.32-.285.575-.629.916-.885l.032-.041c-.151-1.188-.27-2.456-.484-3.893-.31.095-.751.286-1.155.416a.96.96 0 0 1-.893.07z" fill="#6a95a6"/><path d="M30.6 24.175c1.167-.526 1.45-2.008 2.631-2.776a7.432 7.432 0 0 1 3.239-.923A13.825 13.825 0 0 0 39.924 20a22.41 22.41 0 0 1-3.274 8.9 20.978 20.978 0 0 1-6.492 6.348 12.363 12.363 0 0 1 1.617-2.281 2.953 2.953 0 0 0 .735-2.549 2.11 2.11 0 0 0-.95.063c.221-.688.532-1.525.71-2.217a1.388 1.388 0 0 0-.391-1.588c-.591-.327-1.4-.411-2.214-.759l.181-.3a.771.771 0 0 0 .467-.548c.087-.269.204-.569.287-.894z" fill="#206079"/><path d="M25.812 28.834c.317-.254.62-.526.92-.793.263-.311.583-.559.815-.892a5.4 5.4 0 0 0 .481.371 16.154 16.154 0 0 1-2.186 2.053 4.353 4.353 0 0 0-.03-.739zm5.749 1.644a2.11 2.11 0 0 1 .95-.063 2.953 2.953 0 0 1-.735 2.549 12.363 12.363 0 0 0-1.617 2.281 19.308 19.308 0 0 1-6.409 2.5q.521-.4 1-.809c-1.215.331-1.751-1.162-2.843-1a21.81 21.81 0 0 0 4.308-3.223 5.145 5.145 0 0 0 1.667-4.279 16.342 16.342 0 0 0 1.782-2.521c.815.348 1.623.432 2.214.759a1.388 1.388 0 0 1 .391 1.588c-.176.692-.487 1.53-.708 2.218z" fill="#326d84"/><path d="M21.908 35.937c1.092-.159 1.628 1.335 2.843 1q-.481.407-1 .809a18.957 18.957 0 0 1-7.878-.122l-.5-.2a17.166 17.166 0 0 1-4.973-2.446 17.136 17.136 0 0 0 4.26-.766 10.429 10.429 0 0 0 6.729 3.769c-1.026-.167-.8-1.286-1.272-1.484a5.109 5.109 0 0 1-1.831-2.575 2.8 2.8 0 0 1 .132-2.37 11.561 11.561 0 0 0 3.762-.358 11.731 11.731 0 0 0 3.343-1.543 1.792 1.792 0 0 0 .853.345 15.07 15.07 0 0 0 1.508-1.56 5.145 5.145 0 0 1-1.667 4.279 21.81 21.81 0 0 1-4.309 3.222z" fill="#3e768b"/><path class="b" d="M14.659 34.212a17.136 17.136 0 0 1-4.26.766 7.435 7.435 0 0 1-1.076-1 .763.763 0 0 0-.215.566c-.284-.216-.589-.41-.853-.65-.255-.385-.07-1.137-1.088-.963-.355-.359-.694-.733-1.038-1.1a2.292 2.292 0 0 1 .1-1.61l-.532.4c-.667-.139-.6-.811-.843-1.239a1.719 1.719 0 0 1-.4.2 9.263 9.263 0 0 0-.349-.882c-.119-.3-.236-.606-.37-.9-.283-.6-.535-1.2-.772-1.761a22.466 22.466 0 0 1-.9-2.368c.055-.365.1-.726.133-1.081.886.468 1.753.932 2.627 1.416.829.5 1.705.993 2.5 1.561a2.056 2.056 0 0 1 .888-.191 10.756 10.756 0 0 0 1.15.478 3.212 3.212 0 0 0 1.381 2.516 4.709 4.709 0 0 0 1.406.731 5.248 5.248 0 0 0 .634.469c.279.248.572.566.925.869a6.025 6.025 0 0 0 1.169.9 3.837 3.837 0 0 0 1.428.506 2.64 2.64 0 0 0 1.518-.346l.6.051a2.8 2.8 0 0 0-.132 2.37 5.109 5.109 0 0 0 1.826 2.58c.422.2 2.132 1.369 1.272 1.484a8.469 8.469 0 0 1-4.831-1.831 9.459 9.459 0 0 1-1.898-1.941z"/><path d="M35.168 17.783A17.842 17.842 0 0 1 34.956 20c-.049-.78.175-1.615-.426-1.957a2.292 2.292 0 0 0-.013-1.142 3.3 3.3 0 0 1 .651.882zm-3.33-.662l-.127-.5c.423-.129.938.11.816.514.43-.1-.091-.351.123-.4.569-.149.646.06.642.327-.969.2-1.995.178-2.053-.049l-.08-.312a2.4 2.4 0 0 0 .679.42z" fill="#c7d7dd"/><path d="M29.844 11.571a14.611 14.611 0 0 1-.258-1.854l3.442-.368a17.566 17.566 0 0 1 1.921 5.922 4.01 4.01 0 0 0-.817-.778 2.375 2.375 0 0 1 .227 1.143.96.96 0 0 0-.424-.076h-.012c-.027-.285-.131-.5-.683-.3-.21.072.345.3-.075.439a.586.586 0 0 0-.884-.488l.19.52a2.5 2.5 0 0 1-.737-.4 11.132 11.132 0 0 0-2.526-3.755z" fill="#bbced6"/></g></g></svg>