<svg width="72" height="72" xmlns="http://www.w3.org/2000/svg">
<path d="M19.8412 0L26.6701 2.2268L29.9361 2.74639L36.3196 4.89897H38.9175L43.0742 3.78557L48.3443 1.70722L55.3216 1.9299L55.6186 2.00412L59.7753 3.56289L63.6351 7.79381L64.9711 11.8021V12.6928L64.5258 16.4041L64.8227 19.2247L63.6351 24.3464L62.1505 36.3711L59.701 40.1567L57.1773 48.3959L53.1691 54.1113L47.6763 64.7258L44.7072 67.3979L36.0227 72L32.0887 70.1443L30.0103 68.8082L27.4866 65.5423L22.8103 60.4948L19.9155 54.7794L19.099 53.5918L15.0165 46.466L11.3052 37.0392L7.37113 27.5381L7 16.3299L7.66804 10.9856L9.52371 7.49691L12.7155 4.37938L16.2784 2.52371L17.0948 1.85567L19.8412 0Z" fill="white"/>
</svg>
