<?xml version="1.0" standalone="no"?>
<!DOCTYPE svg PUBLIC "-//W3C//DTD SVG 20010904//EN"
 "http://www.w3.org/TR/2001/REC-SVG-20010904/DTD/svg10.dtd">
<svg version="1.0" xmlns="http://www.w3.org/2000/svg"
 width="400.000000pt" height="400.000000pt" viewBox="0 0 400.000000 400.000000"
 preserveAspectRatio="xMidYMid meet">
<metadata>
Created by potrace 1.15, written by Peter Selinger 2001-2017
</metadata>
<g transform="translate(0.000000,400.000000) scale(0.100000,-0.100000)"
fill="#000000" stroke="none">
<path d="M980 3846 c0 -2 9 -25 21 -51 l21 -48 104 6 c80 5 104 4 104 -6 0 -6
-34 -34 -75 -61 -75 -49 -83 -58 -65 -86 10 -16 11 -15 78 28 20 13 22 13 22
-2 0 -15 5 -15 39 5 27 15 47 20 65 15 35 -9 33 -23 -4 -31 -23 -5 -30 -13
-34 -38 -8 -51 -4 -68 13 -63 9 3 57 15 106 27 50 12 93 25 98 28 4 4 -33 40
-83 80 -86 69 -104 91 -78 91 6 0 3 9 -8 21 -13 15 -26 19 -45 15 -26 -5 -227
44 -261 64 -10 6 -18 8 -18 6z"/>
<path d="M1495 3812 c6 -5 43 -32 84 -60 53 -37 83 -67 109 -108 33 -53 36
-56 66 -49 17 4 59 9 93 11 47 3 77 12 119 35 l56 32 -29 12 c-17 7 -45 16
-64 20 -19 4 -38 11 -44 15 -9 6 -50 19 -80 25 -5 1 -12 3 -15 4 -3 1 -21 4
-40 6 -46 4 -157 30 -195 46 -40 16 -72 22 -60 11z"/>
<path d="M3110 3776 c0 -9 97 -56 115 -56 9 0 15 -9 15 -22 0 -38 -59 -115
-165 -212 l-103 -96 -110 0 c-97 0 -111 -2 -116 -17 -2 -10 -7 -69 -11 -131
l-7 -112 24 9 c12 4 44 11 71 15 39 6 47 5 47 -9 0 -10 5 -13 12 -9 13 8 -15
-40 -81 -136 -56 -83 -77 -110 -82 -106 -2 3 -5 -8 -6 -22 -2 -27 34 -92 50
-92 11 0 57 -36 53 -41 -2 -2 9 -14 24 -26 l27 -22 -1 27 c0 15 -5 30 -11 34
-6 5 -6 8 2 8 6 0 14 -4 18 -9 3 -6 14 -8 25 -6 11 2 20 0 20 -4 0 -4 7 -8 15
-8 8 0 12 4 9 9 -12 19 -9 203 4 216 6 7 12 19 11 25 0 9 -2 8 -6 0 -2 -7 -10
-13 -16 -13 -7 1 2 12 18 26 21 17 24 23 10 18 -21 -8 -21 -6 9 16 13 10 17
10 12 3 -4 -8 -2 -13 6 -13 8 0 9 -3 3 -8 -12 -9 -16 -52 -4 -52 5 0 9 5 9 11
0 5 4 8 8 5 9 -6 8 36 -2 52 -5 8 -2 10 8 6 9 -3 16 -10 16 -14 0 -4 7 -11 16
-14 12 -5 15 -2 10 11 -4 10 -4 14 -1 11 4 -4 18 -3 32 3 16 6 22 6 18 -1 -3
-6 4 -10 17 -11 13 0 17 -3 11 -6 -7 -2 -13 -9 -13 -15 0 -6 7 -8 15 -4 9 3
16 -1 16 -9 1 -8 2 -21 3 -27 1 -7 -2 -19 -7 -26 -7 -9 -6 -11 5 -7 9 4 18 -1
21 -9 4 -10 1 -16 -8 -16 -8 0 -15 -5 -15 -11 0 -5 4 -8 9 -4 6 3 15 -3 21
-14 9 -18 8 -20 -7 -15 -13 4 -12 0 5 -12 l22 -17 -27 -36 c-43 -59 -101 -119
-107 -113 -3 3 -6 0 -6 -6 0 -7 -10 -23 -22 -37 -21 -25 -23 -25 -185 -25 -90
0 -163 4 -163 8 0 13 23 32 39 32 8 0 23 -7 33 -16 14 -14 20 -14 33 -4 23 19
19 31 -40 110 -30 40 -55 70 -55 66 0 -5 -6 -3 -14 3 -18 15 -24 12 -156 -75
-83 -54 -106 -64 -183 -80 -62 -12 -86 -21 -83 -30 6 -14 -296 -21 -692 -16
l-224 3 -50 107 c-27 59 -66 141 -87 182 -21 41 -40 84 -44 95 -9 27 -29 58
-44 68 -18 11 -17 48 0 41 8 -3 14 2 14 11 0 9 -6 14 -14 11 -8 -3 -11 -1 -8
4 9 15 17 67 19 123 1 52 7 58 25 25 6 -13 10 -16 8 -8 -2 8 3 21 10 29 8 7
11 16 8 19 -3 4 -10 0 -15 -8 -9 -14 -14 -7 -11 13 2 11 -17 9 -22 -3 -3 -6
-4 -5 -3 2 2 7 15 13 31 13 34 0 47 24 13 27 -12 0 -31 0 -41 0 -11 -1 -16 2
-11 10 5 7 0 9 -14 6 -12 -3 -20 -3 -19 1 1 3 -2 7 -6 8 -4 1 -17 12 -27 25
-11 13 -19 20 -20 16 0 -5 -9 0 -19 10 -55 50 -71 63 -120 91 l-53 32 -17 -23
c-42 -59 -150 -262 -145 -270 4 -6 8 -29 9 -52 1 -22 7 -61 13 -85 5 -25 7
-54 2 -65 -4 -12 -6 -31 -5 -43 1 -12 -3 -21 -8 -20 -5 1 -13 -8 -18 -20 -6
-16 -5 -23 4 -24 7 0 1 -5 -12 -10 -13 -5 -32 -7 -42 -4 -15 5 -19 1 -20 -17
0 -14 -3 -18 -6 -9 -6 14 -48 -144 -73 -272 -6 -31 -15 -55 -20 -52 -4 3 -6
130 -3 282 4 230 8 291 25 357 10 43 17 80 15 82 -2 2 -25 -50 -51 -116 -26
-66 -52 -120 -56 -120 -5 0 -7 -37 -5 -82 2 -46 7 -152 10 -235 l6 -153 -225
0 -226 0 0 -495 0 -495 400 0 c262 0 400 -3 400 -10 0 -25 76 -199 108 -246
19 -29 34 -55 33 -59 -2 -4 2 -11 7 -14 19 -12 71 -104 65 -114 -3 -6 -1 -7 5
-3 7 4 12 2 12 -3 0 -20 3 -26 18 -37 9 -7 12 -16 7 -25 -5 -8 -4 -11 0 -6 5
4 16 0 26 -9 17 -15 20 -13 41 30 12 25 24 46 27 46 4 0 25 -34 48 -75 38 -66
43 -82 43 -138 0 -43 -5 -69 -16 -83 -14 -17 -15 -17 -10 -1 3 10 2 16 -3 13
-10 -6 -34 18 -26 26 3 3 -1 11 -10 18 -28 23 -17 -8 47 -132 56 -108 75 -134
173 -237 61 -63 122 -126 137 -139 15 -14 25 -29 21 -35 -3 -6 -2 -7 4 -4 6 4
25 -14 42 -38 18 -25 30 -45 27 -45 -6 0 31 -44 62 -76 13 -13 88 -55 167 -95
l143 -72 233 123 c197 104 246 135 312 194 86 78 86 78 262 421 75 146 143
260 222 374 119 172 114 161 194 419 l11 32 384 0 384 0 0 495 0 495 -255 0
c-140 0 -255 3 -255 6 0 3 12 56 27 117 23 96 27 135 28 272 1 88 5 187 9 220
8 68 -8 60 -20 -10 l-7 -40 -8 35 c-4 19 -13 97 -20 175 l-12 140 -101 110
c-79 86 -107 111 -130 112 -25 3 -76 14 -128 29 -10 3 -18 3 -18 0z m-2146
-358 c15 -14 22 -15 34 -6 11 10 13 8 10 -7 -3 -21 18 -28 40 -12 9 7 11 5 6
-8 -5 -12 -4 -16 3 -12 6 4 16 0 23 -8 10 -12 9 -24 -4 -58 -10 -26 -16 -73
-16 -120 0 -50 -4 -76 -10 -72 -6 4 -10 -12 -10 -40 0 -41 -2 -45 -15 -31 -18
18 -20 30 -2 20 7 -4 9 -3 4 2 -5 5 -10 7 -12 4 -6 -8 -55 43 -55 57 0 7 -6
12 -12 11 -7 -2 -13 4 -13 13 0 8 -16 29 -35 46 -32 29 -34 34 -22 53 10 17
10 20 1 14 -9 -5 -10 -2 -6 10 4 10 10 30 13 44 4 15 10 32 14 37 9 12 24 67
22 78 -3 12 21 3 42 -15z m2323 -507 c40 -11 41 -13 33 -39 -5 -15 -19 -76
-31 -136 -26 -123 -34 -119 -45 21 -4 48 -10 93 -14 98 -9 12 -1 77 9 71 3 -2
25 -9 48 -15z m-1724 -397 c3 -3 1 -18 -4 -32 -5 -14 -7 -33 -3 -41 5 -13 12
-254 18 -659 l1 -62 213 6 c116 4 212 4 212 0 0 -4 -9 -25 -21 -47 -28 -57
-19 -59 11 -2 l25 45 110 -4 c61 -2 137 -1 170 2 44 5 19 7 -92 9 l-153 1 0
390 0 390 59 0 59 0 8 -62 c4 -35 7 -181 7 -325 l-1 -263 21 5 c12 3 69 6 127
8 l105 2 5 -67 5 -67 -60 -58 -60 -58 42 -3 c34 -3 62 7 152 52 95 48 119 56
167 56 l56 0 -26 -47 c-15 -25 -24 -48 -22 -51 3 -2 83 -4 178 -3 95 0 179 -3
186 -8 19 -12 0 -52 -43 -90 -24 -21 -40 -29 -44 -22 -5 7 -31 -7 -72 -39 -35
-27 -68 -50 -72 -50 -11 0 -78 -52 -74 -57 2 -2 45 10 96 27 50 17 96 28 101
25 5 -3 19 -1 31 5 11 7 23 10 25 8 2 -3 -13 -53 -33 -113 -29 -89 -52 -133
-123 -239 -84 -127 -147 -225 -165 -256 -4 -8 6 -2 23 14 28 26 47 26 23 0 -8
-9 -25 -41 -137 -266 -38 -75 -55 -100 -76 -108 -16 -5 -41 -15 -58 -21 -23
-9 -30 -18 -30 -39 0 -39 -16 -48 -106 -60 -122 -16 -121 -15 -217 -111 -88
-87 -93 -90 -127 -84 -19 4 -38 12 -42 18 -29 50 -33 52 -79 34 -24 -9 -54
-14 -66 -11 -35 9 -145 177 -160 244 -24 110 -31 127 -91 238 -34 62 -62 115
-62 118 0 3 18 -9 40 -26 29 -23 40 -27 40 -16 0 25 -20 119 -31 141 -5 11
-19 69 -31 130 l-23 110 -150 127 -150 127 -62 117 c-35 65 -63 122 -63 126 0
5 71 9 158 8 86 -1 178 -1 203 -1 l47 1 4 45 c2 29 -1 46 -9 50 -10 3 -13 48
-14 177 l-1 173 -16 -65 c-23 -90 -40 -89 -76 5 -16 42 -31 74 -33 71 -2 -2 1
-41 7 -87 6 -46 10 -127 8 -179 l-3 -95 -64 0 c-62 0 -65 1 -72 27 -4 15 -8
190 -10 390 l-4 363 65 0 64 0 31 -82 c17 -45 33 -85 37 -88 3 -3 21 37 39 89
l34 96 56 0 c31 0 58 -3 62 -6z m-1204 -14 c10 -5 21 -24 25 -42 3 -18 16 -52
28 -77 11 -24 22 -53 24 -65 5 -34 9 -47 39 -138 16 -49 32 -88 35 -88 3 0 3
37 -1 83 -4 45 -7 138 -6 207 l2 125 59 -2 c33 -1 66 -5 73 -8 12 -4 14 -67
12 -380 l-2 -375 -62 0 -61 0 -76 193 -77 192 0 -192 -1 -193 -70 0 c-59 0
-70 3 -72 18 0 9 -3 31 -5 47 -2 17 -6 182 -10 368 l-5 337 67 0 c36 0 74 -4
84 -10z m1651 -50 c0 -33 1 -63 3 -67 1 -5 -53 -10 -120 -13 -149 -6 -153 -9
-146 -97 l5 -63 57 -1 c31 -1 70 -4 86 -8 29 -6 30 -8 31 -63 1 -55 1 -56 -29
-62 -16 -3 -56 -6 -88 -6 l-58 0 -3 -32 c-2 -18 -1 -59 0 -92 l4 -59 116 6
c65 3 127 9 140 13 24 7 24 7 19 -72 l-5 -79 -185 -3 -184 -2 -6 91 c-4 51 -7
187 -7 303 0 116 -4 216 -8 222 -4 7 -5 42 -4 78 l4 66 189 0 189 0 0 -60z
m822 -2 c2 -36 -1 -66 -7 -70 -5 -4 -41 -8 -80 -8 -97 0 -173 -11 -177 -24 -2
-6 -2 -39 0 -73 l4 -63 56 -1 c32 -1 71 -4 87 -8 29 -6 30 -8 31 -64 1 -35 -3
-58 -10 -58 -6 -1 -18 -3 -26 -4 -8 -1 -43 -3 -77 -4 l-63 -1 0 -91 0 -92 118
6 c64 3 127 9 140 13 22 6 22 5 20 -75 l-1 -81 -191 2 -191 3 -1 60 c0 33 -6
199 -12 368 -7 170 -9 313 -6 318 3 5 90 9 194 9 l188 0 4 -62z m468 -73 c0
-133 0 -135 -23 -141 -13 -3 -41 -4 -63 -2 l-39 3 -5 80 -5 80 -80 -4 c-44 -1
-82 -5 -84 -7 -2 -1 0 -27 3 -56 l7 -54 149 -94 149 -95 0 -176 1 -176 -37 -6
c-61 -9 -377 -8 -391 2 -11 6 -11 17 -3 45 6 22 7 88 4 162 l-6 124 66 0 67 0
0 -110 0 -110 83 0 84 0 -5 83 c-2 45 -9 87 -16 93 -6 6 -56 39 -111 74 -55
34 -117 76 -137 92 l-38 30 0 142 c0 79 3 146 7 149 3 4 100 7 215 7 l208 0 0
-135z m478 -2 l-3 -138 -61 -3 -61 -3 -7 32 c-3 17 -6 53 -6 79 0 57 -6 60
-89 53 l-61 -6 0 -56 0 -56 150 -95 149 -95 1 -182 0 -183 -174 0 c-95 0 -194
3 -220 6 l-47 7 7 56 c4 31 7 104 7 164 l-1 107 64 0 64 0 0 -110 0 -110 83 0
82 0 -9 85 -10 86 -142 94 -141 95 -4 82 c-1 46 -3 112 -3 148 l-1 65 165 5
c91 3 189 7 218 8 l53 2 -3 -137z m-2799 111 c13 -15 68 -257 96 -424 14 -85
35 -195 45 -245 20 -102 19 -105 -51 -105 l-46 0 -12 58 c-21 99 -14 92 -96
92 l-73 0 -7 -52 c-11 -82 -17 -88 -82 -88 l-56 0 7 68 c14 137 66 482 86 566
11 48 20 97 20 110 0 12 3 25 6 29 9 9 154 1 163 -9z"/>
<path d="M2609 1237 c-31 -34 -63 -76 -72 -92 -22 -43 -69 -85 -134 -120 -31
-16 -58 -35 -60 -40 -2 -6 25 -27 59 -48 59 -34 64 -35 76 -19 8 9 50 91 94
182 44 91 84 173 90 183 14 28 6 21 -53 -46z"/>
<path d="M2414 821 c-26 -39 -51 -71 -55 -71 -4 0 -29 -27 -54 -60 l-46 -59
15 -57 c8 -31 17 -58 19 -60 2 -3 12 22 22 53 10 32 20 63 24 68 3 6 7 19 8
29 5 27 13 33 23 16 5 -8 11 -12 13 -10 9 12 86 214 83 218 -3 2 -26 -28 -52
-67z"/>
<path d="M901 2245 c-1 -16 -12 -81 -25 -142 l-23 -113 57 0 58 0 -19 83 c-38
172 -47 203 -48 172z"/>
<path d="M870 3734 c-26 -18 -46 -24 -78 -22 -40 2 -47 -2 -100 -56 -51 -52
-53 -56 -24 -41 32 15 35 15 53 -1 23 -21 24 -47 3 -79 -16 -25 -16 -25 12
-25 47 1 102 51 145 132 55 105 52 135 -11 92z"/>
<path d="M520 3444 c-28 -53 -50 -97 -48 -99 2 -2 25 1 51 7 40 8 56 19 100
69 28 33 55 73 58 89 l6 30 -57 0 -58 0 -52 -96z"/>
<path d="M2050 3384 c-175 -29 -173 -28 -430 -54 -113 -12 -212 -22 -220 -23
-8 -1 91 -26 221 -56 l235 -53 180 102 c98 56 181 104 183 106 7 6 -12 4 -169
-22z"/>
<path d="M2283 3370 c6 -16 13 -27 15 -25 3 2 14 -1 26 -7 11 -7 28 -11 36
-10 21 3 32 -7 63 -53 15 -22 32 -41 37 -41 6 -1 11 -2 13 -3 13 -9 89 -7 103
4 16 11 3 20 -115 80 -73 36 -140 64 -148 61 -8 -3 -12 -2 -9 3 3 5 -1 12 -10
15 -23 9 -23 9 -11 -24z"/>
<path d="M1418 2957 c41 -41 93 -84 115 -96 23 -11 73 -50 112 -86 l69 -65 47
81 c27 45 53 87 58 92 21 21 11 27 -18 13 -28 -15 -30 -14 -59 18 -25 28 -47
38 -143 63 -63 17 -132 34 -154 37 -22 4 -53 9 -70 12 -28 6 -24 0 43 -69z"/>
</g>
</svg>
