<svg xmlns="http://www.w3.org/2000/svg" xmlns:xlink="http://www.w3.org/1999/xlink" viewBox="0 0 72 72">
  <defs>
    <path id="a" d="M51 67.7H21c-2 0-3.9-1.1-5-2.9l-15-26c-1-1.8-1-4 0-5.7l15-26c1-1.8 2.9-2.9 5-2.9h30c2 0 3.9 1.1 4.9 2.9l15 26c1 1.8 1 4 0 5.7l-15 26c-1 1.8-2.9 2.9-4.9 2.9zM21 8.5c-.5 0-1 .3-1.3.8l-15 26c-.3.5-.3 1 0 1.5l15 26c.3.5.8.8 1.3.8h30c.5 0 1-.3 1.3-.8l15-26c.3-.5.3-1 0-1.5l-15-26c-.3-.5-.8-.8-1.3-.8H21zM48.7 14v19.6c0 .3-.3.6-.6.6-.2 0-.4-.1-.5-.3L37.1 15.7c-.7-1-1.9-1.7-3.1-1.7h-8.6c-1.3 0-2.5.7-3.1 1.8L11.7 34.2c-.6 1.1-.6 2.5 0 3.6L23.3 58V38.4c0-.3.3-.6.6-.6.2 0 .4.1.5.3l10.5 18.2c.7 1.1 1.8 1.7 3.1 1.7h8.6c1.3 0 2.5-.7 3.1-1.8l10.6-18.4c.6-1.1.6-2.5 0-3.6L48.7 14z"/>
  </defs>
  <use xlink:href="#a" overflow="visible" fill="#fff"/>
  <clipPath id="b">
    <use xlink:href="#a" overflow="visible"/>
  </clipPath>
  <path d="M75.3 30.6l-15-26C58.4 1.3 54.8-.8 51-.8H21c-3.8 0-7.4 2.1-9.3 5.4l-15 26c-1.9 3.3-1.9 7.4 0 10.7l15 26c1.9 3.3 5.5 5.4 9.3 5.4h30c3.8 0 7.4-2.1 9.3-5.4l15-26c1.9-3.2 1.9-7.4 0-10.7z" clip-path="url(#b)" fill="#fff"/>
</svg>
