<svg xmlns="http://www.w3.org/2000/svg" fill="none" viewBox="0 0 72 72"><path fill="#fff" d="M18.84 26.512H31.5v1.001H20v7.537h10.814v1.002H20v8.275h11.632v1.002H18.84V26.512zm13.795 0h1.345l5.961 8.275 6.093-8.275L54.322 16 40.706 35.657l7.016 9.672h-1.398l-6.383-8.803-6.41 8.803H32.16l7.068-9.672-6.593-9.145zm15.588 1.001v-1.001h14.428v1.001h-6.646V45.33h-1.16V27.513h-6.622zM3 26.512h1.45l20.006 29.791-8.268-10.974L4.213 27.935l-.052 17.394H3V26.512zM62.535 44.025c.24 0 .415-.183.415-.42a.407.407 0 00-.415-.418.41.41 0 00-.415.419c0 .236.178.42.415.42zm1.14-1.102c0 .697.505 1.153 1.242 1.153.785 0 1.26-.47 1.26-1.286v-2.872h-.633v2.87c0 .452-.229.694-.633.694-.361 0-.606-.225-.615-.56h-.62zm3.328-.037c.046.725.652 1.19 1.556 1.19.965 0 1.57-.487 1.57-1.263 0-.61-.345-.948-1.181-1.142l-.448-.11c-.531-.124-.746-.29-.746-.58 0-.365.333-.604.833-.604.474 0 .801.233.86.607h.616c-.037-.683-.64-1.164-1.468-1.164-.89 0-1.481.48-1.481 1.204 0 .596.335.95 1.072 1.122l.525.127c.54.126.776.312.776.621 0 .36-.372.622-.88.622-.545 0-.924-.245-.977-.63h-.627z"/></svg>