<svg viewBox="0 0 72 72" fill="none" xmlns="http://www.w3.org/2000/svg"><path fill-rule="evenodd" clip-rule="evenodd" d="M36.004.025L36.076 0v.05l33.492 11.626L64.753 56.3 36.076 71.921V72l-.072-.04-.072.04v-.079L7.255 56.301 2.44 11.675 35.932.05V0l.072.025zm16.76 24.594l.006.019c1.905 6.833-.402 12.812-6.921 17.937 2.407.412 4.68-.242 6.853-1.971-3.764 3.848-7.76 5.813-11.994 5.916 1.646 1.887 3.834 2.775 6.595 2.679-6.264 1.467-11.854-.706-16.763-6.518-.338 1.613.667 3.56 3.027 5.876-4.842-2.27-7.269-5.913-7.265-10.928-.095-5.465 2.75-9.017 8.537-10.656 11.059 4.542 16.855 4.655 17.365.34-.435-3.28-3.031-6.34-7.788-9.166-3.347-1.884-6.65-2.754-9.876-2.587-1.295-1.307-2.798-1.94-4.45-1.863-1.173.007-2.104.34-2.732 1.024-.094.101-.194.215-.303.338-.988 1.115-2.63 2.97-5.334 3.182-2.001.159-2.996 1.134-2.986 2.926.038 1.825-.027 2.857-.195 3.095-.22.436-.828 1.07-1.819 1.894-.99.825-1.486 1.608-1.486 2.35.078 1.537.378 2.665.897 3.385.21 1.1.113 1.955-.294 2.549-.098.143-.19.27-.274.386-.436.604-.654.906-.473 1.67l.014.062c.203.86.27 1.146 2.308 3.372 1.305 4.114 3.705 7.537 7.194 10.252-.004-.003 5.494 5.097 13.98 5.1 8.781-.437 14.812-4.603 18.092-12.5-3.074 2.29-5.552 3.52-7.418 3.691 5.846-3.302 8.411-8.125 7.72-14.474-1.598 3.133-3.011 5.187-4.236 6.139 1.638-2.6 2.427-5.08 2.385-7.43-.042-2.35-.83-4.38-2.366-6.09zm-10.87-1.727a.957.957 0 11-1.914 0 .957.957 0 011.914 0z" fill="#fff"/></svg>