<svg viewBox="0 0 72 72" fill="none" xmlns="http://www.w3.org/2000/svg"><path fill-rule="evenodd" clip-rule="evenodd" d="M36.076 0L2.44 11.676 7.255 56.3 36.076 72V0z" fill="#4A4A4A"/><path fill-rule="evenodd" clip-rule="evenodd" d="M35.932 0l33.636 11.676L64.753 56.3 35.932 72V0z" fill="#626262"/><path fill-rule="evenodd" clip-rule="evenodd" d="M52.77 24.638l-.006-.02c1.535 1.71 2.324 3.74 2.366 6.09.042 2.35-.747 4.83-2.385 7.43 1.225-.952 2.638-3.006 4.237-6.139.69 6.35-1.875 11.172-7.721 14.474 1.866-.172 4.344-1.4 7.418-3.69-3.28 7.896-9.31 12.062-18.092 12.498-8.487-.002-13.984-5.102-13.98-5.099-3.489-2.715-5.89-6.138-7.194-10.252-2.086-2.28-2.107-2.523-2.322-3.434-.216-.91.136-1.165.747-2.056.408-.594.504-1.449.294-2.549-.52-.72-.819-1.848-.897-3.385 0-.742.495-1.525 1.486-2.35.991-.824 1.599-1.458 1.82-1.894.167-.238.232-1.27.194-3.095-.01-1.792.985-2.768 2.986-2.926 3.001-.236 4.694-2.494 5.637-3.52.628-.684 1.559-1.017 2.732-1.024 1.652-.077 3.155.556 4.45 1.863 3.225-.167 6.529.703 9.876 2.587 4.757 2.826 7.353 5.886 7.788 9.165-.51 4.316-6.306 4.203-17.365-.34-5.787 1.64-8.631 5.192-8.537 10.657-.004 5.015 2.423 8.659 7.265 10.928-2.36-2.316-3.365-4.264-3.027-5.876 4.909 5.813 10.5 7.985 16.763 6.518-2.761.096-4.949-.792-6.595-2.68 4.234-.102 8.23-2.067 11.994-5.915-2.173 1.729-4.446 2.383-6.853 1.971 6.52-5.125 8.826-11.104 6.92-17.937zm-11.833-.789a.957.957 0 100-1.914.957.957 0 000 1.914z" fill="#fff"/></svg>