<svg xmlns="http://www.w3.org/2000/svg" viewBox="0 0 40 40"><g fill="#FFF"><path d="M22.4 27.6c1.3-.3 2.4-.9 3.4-1.8H14c2.4 1.1 5.6 2.3 8.4 1.8zm1.4-14.4l2 3.3h3.9l-2-3.3z"/><path d="M39.7 18.8L30.9 3.5c-.4-.7-1.2-1.2-2-1.2H11.2c-.8 0-1.6.4-2 1.2L.3 18.8c-.4.7-.4 1.6 0 2.3l8.8 15.3c.4.7 1.2 1.2 2 1.2h17.7c.8 0 1.6-.4 2-1.2l8.8-15.3c.5-.7.5-1.5.1-2.3zM7.8 11.1c.2-.5.7-.7 1.2-.7h7.2c.8 0 1.4.6 1.4 1.4 0 .8-.6 1.4-1.4 1.4h-4.7l1.9 3.3h6.4c.8 0 1.4.7 1.4 1.5s-.6 1.5-1.4 1.5h-7.1c-.6 0-1.1-.3-1.4-.9l-3.6-6.2c-.2-.4-.2-.9.1-1.3zm24.4 14.7h-2.8c-1.6 2.4-3.8 4.1-6.5 4.6-.7.1-1.4.2-2.1.2-6.2 0-12.4-4.9-12.7-5.1-.6-.5-.7-1.3-.4-1.8.3-.6.8-.8 1.3-.8h18.7l1.9-3.3h-4.7c-.5 0-1-.3-1.3-.8L20 12.5c-.3-.4-.3-1 0-1.4.3-.4.7-.7 1.3-.7h7.2c.5 0 1 .2 1.3.7l3.6 6.2s0 .1.1.1c0 .1 0 .1.1.2v.8c0 .1 0 .1-.1.2l-2.4 4.1h1.1c.8 0 1.4.6 1.4 1.4 0 1-.6 1.7-1.4 1.7z"/></g></svg>