<?xml version="1.0" encoding="utf-8"?>
<svg version="1.1" xmlns="http://www.w3.org/2000/svg" xmlns:xlink="http://www.w3.org/1999/xlink" viewBox="0 0 40 40" xml:space="preserve">
<g fill="#FFFFFF">
	<path d="M22.4,27.6c1.3-0.3,2.4-0.9,3.4-1.8H14C16.4,26.9,19.6,28.1,22.4,27.6z"/>
	<polygon points="23.8,13.2 25.8,16.5 29.7,16.5 27.7,13.2"/>
	<path d="M39.7,18.8L30.9,3.5c-0.4-0.7-1.2-1.2-2-1.2H11.2c-0.8,0-1.6,0.4-2,1.2L0.3,18.8c-0.4,0.7-0.4,1.6,0,2.3l8.8,15.3c0.4,0.7,1.2,1.2,2,1.2h17.7c0.8,0,1.6-0.4,2-1.2l8.8-15.3C40.1,20.4,40.1,19.6,39.7,18.8z M7.8,11.1C8,10.6,8.5,10.4,9,10.4h7.2c0.8,0,1.4,0.6,1.4,1.4c0,0.8-0.6,1.4-1.4,1.4h-4.7l1.9,3.3h6.4c0.8,0,1.4,0.7,1.4,1.5c0,0.8-0.6,1.5-1.4,1.5h-7.1c-0.6,0-1.1-0.3-1.4-0.9l-3.6-6.2C7.5,12,7.5,11.5,7.8,11.1z M32.2,25.8h-2.8c-1.6,2.4-3.8,4.1-6.5,4.6c-0.7,0.1-1.4,0.2-2.1,0.2c-6.2,0-12.4-4.9-12.7-5.1c-0.6-0.5-0.7-1.3-0.4-1.8C8,23.1,8.5,22.9,9,22.9c0.2,0,18.7,0,18.7,0l1.9-3.3h-4.7c-0.5,0-1-0.3-1.3-0.8l-3.6-6.3c-0.3-0.4-0.3-1,0-1.4c0.3-0.4,0.7-0.7,1.3-0.7h7.2c0.5,0,1,0.2,1.3,0.7l3.6,6.2c0,0,0,0,0,0c0,0,0,0.1,0.1,0.1c0,0,0,0,0,0c0,0.1,0,0.1,0.1,0.2c0,0,0,0,0,0c0,0.1,0,0.1,0,0.2c0,0,0,0,0,0c0,0,0,0.1,0,0.1c0,0,0,0,0,0c0,0.1,0,0.2,0,0.3c0,0,0,0,0,0c0,0,0,0.1,0,0.1c0,0,0,0,0,0.1c0,0.1,0,0.1-0.1,0.2l-2.4,4.1h1.1c0.8,0,1.4,0.6,1.4,1.4C33.6,25.1,33,25.8,32.2,25.8z"/>
</g>
</svg>
