<svg xmlns:serif="http://www.serif.com/" xmlns="http://www.w3.org/2000/svg" width="40" height="40" clip-rule="evenodd" fill-rule="evenodd" stroke-linejoin="round" stroke-miterlimit="1.414"><g serif:id="OBS Logo" fill="#fff"><g serif:id="Circles Plain"><path serif:id="Outer Circle" d="M20 0c11.038 0 20 8.962 20 20s-8.962 20-20 20S0 31.038 0 20 8.962 0 20 0zm0 1.884c9.998 0 18.116 8.118 18.116 18.116S29.998 38.116 20 38.116 1.884 29.998 1.884 20 10.002 1.884 20 1.884z"/></g><g serif:id="Blades Discord" transform="translate(-3.126 -3.126) scale(.04283)"><clipPath id="a"><path d="M308.5 121.75H540v469.5H308.5z"/></clipPath><g clip-path="url(#a)"><path d="M621.027 134.962C712.413 167.085 778 254.193 778 356.5c0 38.821-9.444 75.454-26.158 107.724A194.28 194.28 0 0 0 742.5 464c-82.871 0-153.518 52.754-180.162 126.483-6.296.508-12.662.767-19.088.767-8.369 0-16.636-.439-24.779-1.295C491.681 516.502 421.173 464 338.5 464c-1.316 0-2.629.013-3.938.04-16.654-32.226-26.062-68.793-26.062-107.54 0-91.081 51.984-170.117 127.875-209.03l-.045.029-.557.361-.017.011-.049.032-.345.225-.164.107-.059.039-.066.043-.193.127-.29.192-.066.043-.03.02c-.387.257-.774.514-1.16.774l-.035.024-.07.047-.267.18-.205.139-.069.046-.054.037-.149.101-.367.251-.038.026-.012.007-.588.404-.007.005-.028.02-.386.266-.139.097-.053.037-.07.048-.21.147-.252.176-.071.05-.04.028c-.379.266-.758.533-1.135.802l-.027.019-.065.047-.292.208-.177.127-.065.047-.061.044-.165.118-.312.226-.059.042-.021.016c-.375.271-.749.544-1.122.819l-.045.032-.072.053-.229.169-.219.162-.072.053-.047.036-.125.092-.406.303-.011.009-.003.001-.567.426-.019.014-.054.041-.321.242-.152.116-.059.045-.067.051-.18.136-.269.206-.069.052-.031.025c-.366.28-.732.562-1.096.845l-.037.029-.071.055-.249.194-.189.149-.07.054-.055.044-.139.108-.338.267-.045.036-.014.01-.553.439-.009.007-.035.028-.357.286-.129.103-.053.042-.071.057-.196.158-.233.188-.072.058-.041.033c-.357.29-.714.581-1.07.873l-.028.023-.067.055-.271.223-.164.135-.065.054-.062.052-.152.126-.288.24-.063.052-.023.019-.54.452-.001.001-.407.344-.108.091-.045.038-.073.062-.212.18-.202.172-.072.062-.049.042-.115.098-.373.32-.021.018-.005.004-.531.459-.02.017-.058.051-.297.258-.139.122-.06.051-.067.059-.166.146-.248.217-.071.063-.032.028c-.344.303-.687.608-1.029.913l-.037.033-.073.066-.229.206-.174.156-.07.063-.056.05-.127.115-.311.281-.051.046-.015.014-.516.471-.011.01-.041.038-.329.301-.118.109-.053.049-.071.065-.18.167-.214.198-.074.068-.04.039c-.335.311-.669.624-1.002.938l-.029.027-.069.065-.25.236-.149.142-.065.062-.062.059-.14.133-.263.252-.066.062-.025.024-.502.483-.002.002-.011.01-.373.362-.098.095-.045.044-.074.071-.195.19-.184.181-.073.071-.048.047-.105.103-.339.334-.031.03-.007.007-.494.49-.02.02-.061.061-.272.272-.128.127-.058.059-.067.067-.153.153-.226.228-.072.073-.033.033c-.32.324-.64.65-.958.976l-.037.038-.074.075-.21.217-.159.164-.069.071-.055.057-.117.121-.282.293-.055.057-.017.017-.478.501-.013.013-.046.048-.3.316-.107.113-.052.055-.07.075-.166.175-.194.206-.073.078-.041.044c-.311.332-.622.665-.931.999l-.029.032-.07.076-.228.247-.135.148-.064.069-.061.067-.128.139-.239.262-.067.074-.025.028-.465.512-.003.004-.019.021-.339.377-.089.098-.044.05-.073.081-.178.199-.167.187-.071.08-.048.055-.096.107-.306.346-.037.042-.009.01c-.152.172-.304.344-.455.518l-.021.023-.063.073-.247.282-.115.133-.058.066-.065.075-.139.16-.205.237-.072.083-.033.038c-.296.344-.591.689-.885 1.035l-.037.043-.072.085-.191.226-.144.17-.067.079-.054.065-.106.125-.254.304-.058.069-.018.021-.44.528-.012.015-.05.06-.272.329-.096.117-.051.061-.068.083-.15.183-.175.214-.072.088-.041.049-.076.094-.341.419-.006.007-.001.002-.432.534-.029.036-.069.087-.206.257-.123.153-.061.077-.059.074-.116.145-.215.271-.068.085-.025.032-.425.539-.005.006-.025.032-.306.39-.079.102-.043.055-.07.09-.161.207-.15.194-.07.089-.046.061-.086.111-.274.356-.042.055-.01.012-.416.544-.021.028-.063.083-.223.293-.103.137-.055.073-.063.084-.125.166-.184.244-.07.093-.033.044c-.271.362-.541.725-.809 1.089l-.036.048-.07.095-.172.234-.128.176-.065.088-.052.071-.095.13-.227.312-.059.081-.018.025-.4.553-.013.018-.051.071-.244.34-.086.12-.048.067-.066.093-.135.189-.156.221-.069.097-.039.055-.069.097-.302.429-.015.021-.002.003-.392.56-.028.04-.067.097-.185.265-.109.158-.058.084-.057.082-.104.15-.191.279-.066.096-.025.036-.384.564-.006.008-.029.043-.273.403-.07.104-.041.06-.067.1-.144.214-.134.2-.066.097-.044.067-.077.115-.242.364-.045.068-.01.015-.376.569-.02.03-.061.094-.199.303-.092.14-.052.08-.059.092-.112.171-.163.252-.067.103-.031.048c-.246.379-.489.76-.732 1.141l-.033.052-.067.105-.153.242-.114.18-.061.096-.049.078-.084.134-.201.32-.058.093-.017.027-.36.578-.013.021-.05.081-.217.351-.075.123-.045.073-.062.1-.12.196-.138.227-.065.106-.037.06-.06.1-.266.438-.02.033-.003.006c-.118.194-.235.388-.351.583l-.026.044-.064.106-.164.275-.096.161-.054.092-.053.089-.092.155-.168.286-.063.106-.024.04-.343.587-.006.01-.031.053-.241.414-.061.106-.038.066-.063.108-.127.221-.118.205-.061.106-.041.073-.068.118-.212.373-.045.078-.01.018-.334.592-.019.034-.058.103-.176.313-.08.143-.048.086-.055.099-.098.177-.143.258-.062.112-.03.053c-.218.395-.435.791-.65 1.188l-.031.057-.061.114-.135.249-.1.185-.055.103-.045.084-.075.138-.175.328-.055.103-.016.031-.318.6-.012.023-.048.091-.19.36-.065.126-.041.078-.057.109-.105.201-.121.233-.059.115-.034.065-.053.102-.229.446-.023.045-.004.008a68.8 68.8 0 0 0-.309.605l-.024.047-.059.116-.143.282-.083.166-.049.098-.048.095-.08.16-.147.293-.057.115-.022.044-.302.609-.006.011-.03.062-.209.426-.053.108-.034.07-.057.116-.111.228-.102.21-.055.113-.037.078-.059.122-.183.381-.043.088-.009.021a115.3 115.3 0 0 0-.292.613l-.018.036-.053.113-.152.321-.069.147-.043.091-.049.106-.086.182-.122.264-.057.121-.026.057c-.191.41-.38.821-.567 1.233l-.028.06-.055.122-.117.257-.085.19-.049.109-.04.089-.065.143-.149.335-.05.111-.015.034c-.093.207-.184.414-.276.622l-.011.025-.043.099-.163.371-.056.128-.037.083-.05.115-.09.208-.103.238-.053.122-.03.07-.045.104-.195.455-.024.055-.004.009-.266.627-.021.05-.052.123-.122.291-.071.169-.044.103-.042.102-.068.164-.125.3-.051.123-.019.047-.259.629-.005.013-.028.07-.178.437-.045.111-.03.073-.049.123-.095.235-.086.215-.048.12-.033.082-.05.125-.154.389-.039.097-.009.023-.248.633-.015.039-.047.12-.129.33-.058.151-.037.095-.043.112-.072.188-.103.27-.049.128-.023.06-.242.639-.001.001-.204.543-.034.092-.024.064-.047.128-.099.265-.071.194-.042.114-.035.095-.054.146-.125.343-.043.119-.014.037-.231.64-.01.027-.038.106-.136.381-.046.131-.031.087-.043.122-.076.213-.085.244-.045.128-.026.073-.038.108-.161.464-.022.063-.003.011-.222.645-.018.053-.044.13-.102.299-.059.173-.036.108-.036.106-.057.169-.102.307-.043.13-.017.05-.214.648-.005.014-.024.075-.147.45-.037.112-.025.077-.041.129-.078.241-.071.221-.04.125-.027.086-.041.128-.126.397-.033.105-.008.025-.204.652-.013.041-.038.126-.106.339-.047.154-.03.1-.036.117-.059.193-.084.276-.04.134-.019.063-.198.657v.001l-.001.004-.165.558-.028.094-.019.066-.039.135-.08.271-.057.199-.035.119-.028.099-.044.15-.1.35-.036.126-.011.038-.186.66-.008.028-.031.111-.11.392-.036.133-.026.091-.034.126-.061.219-.068.25-.036.133-.021.077-.03.111-.127.472-.019.069-.003.013c-.06.221-.118.442-.177.664l-.014.054-.036.136-.08.307-.046.177-.029.112-.029.11-.045.174-.08.313-.035.136-.013.052-.169.667-.003.014-.02.079-.115.462-.028.115-.02.08-.033.134-.061.247-.054.225-.032.13-.021.09-.032.132-.097.405-.027.11-.006.026-.158.671-.01.041-.03.131-.082.349-.036.157-.023.103-.028.121-.046.198-.063.283-.032.138-.015.067-.15.674-.001.001-.001.005-.126.574-.02.096-.015.068-.03.139-.061.279-.043.202-.026.124-.022.102-.033.154-.075.358-.027.13-.008.041-.14.677-.006.028-.024.116-.081.402-.028.136-.018.093-.026.131-.045.225-.05.255-.028.137-.015.08-.022.114-.094.481-.014.074-.003.014-.129.681-.01.055-.027.141-.058.315-.034.18-.021.116-.021.114-.032.178-.058.319-.026.141-.009.054-.122.684-.002.015-.014.081-.083.474-.02.117-.014.082-.023.138-.044.254-.038.23-.023.133-.015.093-.023.135-.068.413-.019.115-.004.028-.11.686-.007.043-.022.135-.056.358-.025.16-.016.105-.019.125-.032.204-.043.288-.022.143-.01.068-.103.691v.001l-.001.004-.085.59-.014.097-.01.07-.02.143-.041.286-.028.206-.018.127-.014.105-.022.158-.05.364-.018.136-.006.042-.091.692-.004.029-.015.119-.053.412-.018.139-.012.095-.017.135-.029.23-.031.26-.018.141-.01.082-.014.117-.058.489-.01.079-.001.014-.081.696-.007.057-.016.144-.036.323-.02.184-.013.118-.013.117-.02.183-.035.325-.015.144-.006.056-.072.699-.002.015-.008.083-.049.486-.011.119-.009.084-.013.142-.025.259-.022.235-.013.136-.009.095-.013.139-.038.42-.011.119-.002.028-.062.702-.004.044-.011.138-.031.366-.013.162-.009.108-.01.129-.017.208-.023.293-.011.146-.006.07-.053.706v.003l-.043.605-.007.099-.005.071-.01.146-.019.293-.014.21-.009.129-.007.108-.01.162-.023.371-.009.138-.002.043-.042.707-.002.03-.006.121-.024.421-.007.141-.005.098-.007.137-.013.236-.013.264-.007.144-.004.084-.006.12-.023.496-.003.082-.001.015a86.06 86.06 0 0 0-.03.71l-.003.058-.005.147-.013.33-.007.187-.005.12-.004.12-.007.187-.011.331-.005.147-.002.058c-.007.237-.015.475-.021.713l-.001.015-.002.083-.013.498-.003.12-.003.085-.003.145-.006.265-.005.238-.003.139-.002.098-.003.142-.007.426-.002.122-.001.03-.01.714-.001.045-.001.14-.004.374-.001.165-.002.11v.131l-.002.212-.001.298-.001.149-.001.072-.001.719a194.16 194.16 0 0 0 .706 16.545l.053.606c.04.45.082.899.125 1.348l.045.466.06.603.132 1.254a191.108 191.108 0 0 0 1.979 13.647l.108.588a187.587 187.587 0 0 0 1.775 8.494l.059.253.109.462a187.735 187.735 0 0 0 1.333 5.286l.154.571a190.188 190.188 0 0 0 8.079 23.574l.116.276.226.538c.151.357.304.715.458 1.072l.231.534a188.59 188.59 0 0 0 1.566 3.509l.096.211.244.528a188.525 188.525 0 0 0 2.986 6.151 189.93 189.93 0 0 0 1.664 3.202l.286.536c.361.673.725 1.343 1.093 2.011l.281.506a189 189 0 0 0 2.669 4.652l.214.36.204.342a191.971 191.971 0 0 0 7.635 11.76l.331.471a191.324 191.324 0 0 0 6.602 8.795 193.377 193.377 0 0 0 8.722 10.203c.62.676 1.244 1.347 1.874 2.014l.294.312.341.358c.414.435.831.869 1.25 1.3l.4.412a281.344 281.344 0 0 0 1.587 1.605 184.258 184.258 0 0 0 3.959 3.849 182.523 182.523 0 0 0 4.138 3.798 191.688 191.688 0 0 0 4.208 3.642l.441.369a192.245 192.245 0 0 0 35.135 23.327c1.645.848 3.304 1.673 4.977 2.474l.086.041.525.25.153.073c.649.307 1.3.611 1.954.912l.528.242a189.737 189.737 0 0 0 11.3 4.721l.547.207c.368.139.736.276 1.104.412.366.136.734.27 1.101.404l.542.196.552.197a187.611 187.611 0 0 0 10.062 3.269l.566.166.567.164a190.002 190.002 0 0 0 11.482 2.918l.581.128a190.924 190.924 0 0 0 20.734 3.334l.603.063a195.179 195.179 0 0 0 8.187.655A191.47 191.47 0 0 0 540 500l.619-.001a191.47 191.47 0 0 0 14.106-.558 191.746 191.746 0 0 0 4.843-.43l.603-.063a191.085 191.085 0 0 0 19.57-3.084l.121-.026 1.043-.224.581-.128a190.302 190.302 0 0 0 7.495-1.818l.571-.152a193.25 193.25 0 0 0 3.416-.948l.567-.164.509-.149a188.904 188.904 0 0 0 10.119-3.286l.552-.197.551-.199a227.054 227.054 0 0 0 2.743-1.02l.546-.209 1.09-.422.544-.214a189.78 189.78 0 0 0 10.176-4.362l.528-.245a207.426 207.426 0 0 0 4.545-2.198 191.021 191.021 0 0 0 4.063-2.092l.729-.388.51-.275c.57-.307 1.138-.617 1.704-.931l.327-.181.37-.206a190.978 190.978 0 0 0 17.746-11.224 198.427 198.427 0 0 0 3.66-2.671l.46-.346a192.439 192.439 0 0 0 20.39-17.717 192.584 192.584 0 0 0 27.724-35.061 190.227 190.227 0 0 0 5.527-9.571l.275-.51a190.598 190.598 0 0 0 11.135-24.924l.015-.04.072-.2a189.998 189.998 0 0 0 7.489-26.626l.091-.451.043-.213a188.755 188.755 0 0 0 1.045-5.657l.002-.009c.1-.591.197-1.183.291-1.776l.094-.593c.062-.396.122-.792.182-1.188.118-.793.232-1.587.341-2.383l.081-.598a193.197 193.197 0 0 0 1.694-24.771l.002-.801-.002-.8v-.099l-.001-.113-.001-.226-.004-.476v-.083l-.001-.023-.009-.792-.001-.081-.002-.122-.003-.276-.007-.384-.002-.114-.001-.047-.016-.787-.002-.061-.003-.122-.008-.333-.008-.316-.003-.123-.002-.067-.024-.786-.001-.04-.004-.108-.013-.405-.01-.26-.004-.119-.003-.086-.031-.788-.001-.017-.003-.066-.021-.504-.01-.211-.005-.108-.005-.103-.008-.19-.028-.565-.002-.031v-.007a103.67 103.67 0 0 0-.042-.787l-.005-.094-.006-.114-.013-.237-.026-.441-.006-.094-.001-.03-.049-.781-.005-.075-.008-.121-.019-.287-.024-.359-.008-.117-.004-.052a101.38 101.38 0 0 0-.055-.777l-.004-.055-.009-.118-.026-.347-.023-.296-.009-.121-.006-.071-.062-.777-.003-.033-.009-.099-.035-.423-.021-.243-.01-.115-.008-.089-.07-.779-.001-.011-.005-.045-.05-.534-.018-.195-.01-.103-.011-.105-.019-.201-.052-.517-.005-.054-.002-.013-.08-.775-.009-.087-.013-.116-.026-.246-.045-.411-.011-.102-.004-.035c-.028-.256-.057-.513-.087-.769l-.008-.069-.014-.119-.034-.299-.041-.336-.013-.118-.007-.056-.094-.766-.006-.048-.014-.114-.046-.361-.035-.276-.015-.119-.01-.075-.101-.767-.004-.026-.012-.087-.06-.444-.031-.225-.015-.111-.013-.093-.109-.769v-.004l-.003-.019-.082-.567-.027-.181-.014-.097-.016-.107-.031-.21-.072-.476-.011-.071-.003-.019-.118-.762-.013-.081-.018-.115-.041-.257-.061-.382-.017-.107-.007-.04-.124-.757-.01-.062-.02-.117-.052-.311-.054-.313-.02-.117-.01-.061-.131-.755-.008-.041-.019-.107-.066-.376-.047-.258-.02-.115-.015-.079-.138-.756-.004-.019-.014-.073-.086-.465-.04-.21-.02-.105-.019-.096-.033-.176-.11-.568-.002-.012-.001-.002-.149-.757-.018-.091-.022-.108-.044-.219-.089-.44-.017-.082-.005-.025-.155-.749-.015-.074-.024-.115-.056-.267-.076-.356-.023-.108-.01-.046-.161-.744-.012-.055-.025-.114-.071-.322-.065-.293-.026-.115-.014-.065-.168-.742-.008-.035-.022-.098-.09-.392-.056-.24-.026-.111-.019-.082-.175-.744-.003-.013-.013-.054-.118-.489-.047-.195-.024-.1-.023-.097-.045-.185-.128-.518-.009-.036-.002-.008-.185-.742-.021-.085-.028-.108-.057-.228-.105-.408-.023-.09-.007-.029-.191-.735-.018-.068-.029-.113-.073-.277-.088-.332-.029-.109-.014-.049-.196-.731-.013-.049-.03-.108-.091-.335-.076-.273-.03-.112-.019-.068-.204-.73-.008-.028-.024-.086-.116-.409-.064-.224-.03-.105-.024-.085-.212-.732-.001-.007-.009-.029-.152-.519-.053-.18-.028-.093-.029-.098-.057-.194-.142-.474-.016-.055-.004-.013-.221-.727-.024-.078-.033-.107-.072-.238-.117-.378-.03-.094-.01-.034-.226-.721-.019-.061-.035-.109-.091-.288-.099-.309-.034-.108-.017-.053-.232-.718-.014-.041-.033-.101-.113-.348-.084-.254-.036-.108-.023-.071-.239-.717-.007-.021-.025-.072-.144-.428-.071-.208-.033-.1-.03-.086c-.163-.48-.329-.959-.496-1.437l-.031-.087-.034-.098-.071-.202-.155-.437-.023-.066-.007-.018a85.88 85.88 0 0 0-.255-.712l-.025-.071-.038-.105-.089-.247-.129-.351-.035-.096-.014-.038-.26-.707-.019-.053-.039-.105-.111-.298-.109-.288-.039-.105-.021-.057-.266-.703-.013-.035-.036-.091-.138-.362-.091-.237-.04-.103-.028-.072-.274-.705-.005-.014-.021-.054-.177-.449-.076-.193-.037-.093-.035-.087-.067-.17-.208-.518-.004-.013-.002-.002-.284-.704-.032-.08-.04-.096-.086-.211-.165-.404-.03-.073-.01-.023c-.095-.232-.192-.464-.288-.695l-.027-.064-.042-.102-.108-.256-.137-.327-.041-.096-.017-.042-.294-.691-.02-.046-.042-.098-.133-.31-.116-.269-.043-.1-.026-.059-.3-.69-.012-.027-.035-.08-.166-.377-.098-.22-.042-.097-.033-.073c-.103-.231-.205-.461-.309-.691l-.003-.008-.014-.031-.213-.474-.082-.178-.039-.087-.039-.086-.081-.179-.217-.473-.014-.03-.003-.007-.317-.687-.034-.072-.044-.095-.102-.22-.176-.373-.036-.077-.012-.026-.322-.68-.027-.057-.046-.097-.127-.266-.146-.304-.045-.094-.021-.044-.327-.676-.019-.039-.044-.09-.157-.321-.123-.251-.047-.095-.029-.06-.335-.676-.01-.02-.032-.064-.197-.394-.103-.206-.045-.089-.037-.074-.343-.677v-.001l-.001-.002-.257-.504-.085-.165-.04-.079-.044-.084-.096-.187-.225-.434-.022-.042-.006-.011-.35-.67-.034-.065-.048-.091-.12-.229-.184-.346-.041-.078-.016-.029c-.117-.222-.236-.443-.354-.664l-.026-.049-.049-.091-.149-.276-.153-.284-.049-.089-.025-.046c-.119-.221-.24-.441-.36-.661l-.017-.032-.044-.079-.183-.334-.13-.233-.049-.09-.034-.061-.368-.66-.007-.013-.026-.046-.231-.413-.108-.191-.047-.082-.041-.073c-.249-.44-.499-.878-.751-1.315l-.041-.071-.048-.082-.112-.195-.233-.4-.028-.049-.008-.014-.383-.653-.033-.057-.052-.087-.139-.236-.191-.323-.046-.076-.019-.032a84.97 84.97 0 0 0-.387-.647l-.024-.042-.05-.083-.172-.285-.161-.265-.051-.085-.028-.047-.394-.645-.014-.024-.041-.066-.213-.347-.135-.218-.051-.083-.038-.06-.401-.646-.004-.006-.015-.023-.272-.435-.111-.177-.047-.075-.046-.071c-.27-.428-.541-.854-.814-1.279l-.041-.063-.051-.079-.13-.202-.239-.37-.034-.053-.011-.017-.415-.635-.032-.049-.053-.081-.161-.245-.198-.3-.049-.073-.022-.033-.419-.631-.022-.034-.05-.073-.198-.296-.166-.247-.053-.079-.032-.047-.426-.629-.011-.017-.035-.05-.247-.362-.139-.203-.052-.075-.041-.06c-.287-.417-.576-.834-.866-1.248l-.047-.067-.048-.069-.121-.172-.304-.433-.008-.011-.002-.002a98.931 98.931 0 0 0-.443-.624l-.039-.056-.053-.074-.15-.21-.246-.342-.038-.053-.014-.019c-.148-.207-.297-.412-.446-.618l-.03-.041-.053-.073-.185-.254-.204-.279-.051-.069-.025-.034-.451-.614-.019-.026-.046-.061-.228-.308-.171-.229-.054-.073-.035-.046-.459-.613-.007-.009-.024-.032-.286-.379-.143-.188-.052-.068-.043-.057c-.308-.405-.617-.808-.928-1.21l-.045-.059-.051-.065-.139-.179-.309-.396-.014-.019-.004-.005a140.46 140.46 0 0 0-.475-.605l-.037-.047-.053-.068-.172-.218-.252-.317-.041-.052-.016-.021-.478-.599-.027-.033-.052-.064-.211-.263-.209-.259-.052-.064-.027-.034-.484-.596-.016-.018-.039-.049-.261-.318-.176-.214-.053-.065-.038-.046a219.78 219.78 0 0 0-.492-.595l-.002-.002-.008-.01-.331-.397-.146-.174-.05-.06-.046-.055c-.328-.391-.658-.781-.989-1.169l-.043-.051-.052-.06-.159-.187-.312-.364-.02-.023-.006-.007a141.38 141.38 0 0 0-.506-.585l-.034-.039-.053-.061-.196-.226-.256-.293-.043-.049-.019-.021a91.956 91.956 0 0 0-.51-.58l-.022-.026-.048-.054-.24-.271-.215-.241-.051-.058-.03-.033-.517-.578-.01-.011-.029-.032-.298-.331-.18-.199-.052-.057-.039-.044c-.345-.38-.691-.758-1.039-1.136l-.048-.052-.047-.051c-.349-.377-.698-.753-1.05-1.127l-.04-.043-.052-.055-.18-.192-.317-.335-.023-.025-.008-.008-.537-.565-.03-.032-.051-.052-.222-.232-.261-.272-.044-.045-.02-.021-.542-.561-.018-.018-.041-.042-.272-.28-.219-.223-.051-.052-.031-.032-.549-.558-.005-.004-.014-.015-.341-.344-.183-.183-.05-.05-.041-.041c-.364-.365-.73-.729-1.098-1.091l-.044-.044-.048-.047c-.368-.363-.738-.724-1.11-1.084l-.036-.035-.05-.048-.205-.199-.32-.308-.025-.024-.009-.009-.569-.544-.025-.024-.046-.043-.251-.239-.266-.251-.043-.041-.021-.02-.574-.539-.013-.012-.03-.028-.309-.289-.223-.206-.048-.046-.033-.03a194.24 194.24 0 0 0-1.149-1.056l-.047-.043-.041-.037c-.384-.35-.769-.698-1.156-1.045l-.041-.037-.046-.041a163.94 163.94 0 0 0-1.171-1.039l-.031-.028-.047-.041-.231-.203-.323-.283-.026-.023-.011-.009-.6-.521-.019-.017-.039-.034-.283-.244-.27-.231-.041-.036-.023-.019c-.201-.173-.403-.346-.606-.518l-.006-.005-.016-.014-.35-.296-.225-.191-.046-.038-.033-.028c-.4-.337-.802-.673-1.205-1.007l-.043-.035-.041-.034c-.403-.334-.808-.666-1.214-.996l-.036-.03-.045-.035c-.408-.333-.818-.663-1.23-.992l-.026-.021-.041-.033-.26-.207-.326-.259-.026-.021-.012-.009-.631-.497-.013-.011-.029-.022-.318-.25-.272-.212-.039-.03-.024-.018c-.418-.325-.837-.649-1.258-.97l-.042-.032-.032-.025c-.42-.32-.84-.639-1.262-.955l-.038-.029-.039-.029c-.423-.317-.847-.633-1.272-.946l-.031-.023-.04-.03c-.429-.315-.859-.629-1.29-.942l-.02-.014-.034-.025-.291-.21-.329-.236-.024-.018-.012-.008-.663-.473-.006-.005-.015-.01-.358-.254-.274-.193-.036-.025-.023-.017a236.42 236.42 0 0 0-1.312-.914l-.038-.027-.031-.021c-.438-.303-.876-.603-1.316-.901l-.034-.023-.036-.025c-.442-.299-.885-.597-1.329-.892l-.024-.017-.036-.023c-.448-.299-.898-.595-1.35-.89l-.013-.009-.024-.016-.325-.211-.33-.214-.023-.015-.012-.008c-.454-.293-.91-.585-1.367-.875l-.032-.021-.023-.014c-.453-.288-.908-.573-1.363-.857l-.033-.021-.03-.018c-.456-.283-.912-.565-1.371-.844l-.027-.017-.033-.02c-.46-.281-.922-.56-1.385-.837l-.018-.011-.028-.017c-.469-.28-.939-.558-1.41-.835l-.006-.003-.013-.008-.361-.211-.33-.192-.021-.012-.012-.007c-.471-.273-.942-.545-1.416-.814l-.028-.016-.022-.012c-.47-.268-.942-.533-1.414-.797l-.029-.016-.027-.015c-.473-.263-.947-.525-1.423-.785l-.022-.011-.027-.015c-.479-.262-.959-.521-1.441-.778l-.011-.007-.02-.01a176.25 176.25 0 0 0-2.196-1.155l-.019-.01-.011-.006c-.487-.252-.974-.501-1.463-.749l-.025-.013-.02-.01c-.486-.246-.974-.49-1.464-.733l-.023-.011-.024-.012c-.49-.243-.981-.484-1.474-.722l-.016-.008-.021-.011c-.498-.24-.996-.479-1.495-.716l-.005-.002-.009-.004-.363-.172z"/></g><clipPath id="b"><path d="M460.5 403.75H930V655.5H460.5z"/></clipPath><g clip-path="url(#b)"><path d="M705.996 403.992c114.306 5.161 207.431 92.23 222.016 203.852-.082-.321-.165-.641-.249-.961l-.001-.007-.003-.01c-.251-.958-.51-1.914-.776-2.867l-.004-.014-.005-.017a177.52 177.52 0 0 0-.815-2.836l-.006-.021-.006-.019c-.278-.941-.564-1.878-.856-2.812l-.008-.023-.006-.02c-.096-.308-.194-.616-.292-.923l-.001-.004-.003-.009c-.198-.62-.399-1.239-.603-1.856l-.007-.024-.006-.017-.303-.909-.005-.015-.008-.022c-.206-.612-.415-1.223-.627-1.833l-.007-.02-.004-.012-.316-.899-.008-.023-.011-.031c-.215-.608-.433-1.215-.655-1.82l-.004-.011-.002-.006-.328-.891-.012-.031-.012-.034c-.336-.903-.678-1.803-1.027-2.699l-.014-.037-.014-.033c-.114-.293-.228-.585-.344-.877l-.003-.008-.006-.016c-.235-.593-.472-1.185-.713-1.775l-.015-.039-.013-.032c-.118-.287-.235-.575-.354-.861l-.008-.019-.013-.032c-.241-.583-.485-1.165-.732-1.745l-.017-.039-.011-.027c-.121-.283-.242-.567-.364-.849l-.012-.029-.018-.04c-.249-.577-.501-1.153-.756-1.727l-.015-.035-.01-.02c-.124-.28-.249-.561-.375-.84l-.017-.037-.02-.045c-.259-.573-.52-1.146-.784-1.716l-.012-.026-.006-.013a155.53 155.53 0 0 0-.388-.834l-.02-.043-.022-.046-.393-.834-.004-.008-.009-.018-.199-.417-.211-.44-.005-.01-.002-.004c-.133-.277-.267-.554-.402-.83l-.024-.048-.021-.043-.401-.818-.01-.019-.018-.037c-.275-.557-.553-1.111-.834-1.665l-.025-.051-.02-.038c-.136-.269-.273-.537-.41-.804l-.015-.03-.025-.048a195.33 195.33 0 0 0-.853-1.638l-.026-.051-.017-.032-.421-.794-.02-.038-.028-.053c-.29-.543-.582-1.083-.876-1.623l-.025-.045-.014-.026c-.143-.262-.287-.523-.432-.785l-.025-.046-.03-.054-.442-.794-.003-.006-.01-.017-.238-.425-.211-.373-.021-.036-.009-.017-.444-.779-.03-.053-.031-.052c-.148-.259-.297-.518-.447-.776l-.01-.018-.023-.038-.213-.367-.245-.418-.011-.02-.005-.008-.458-.776-.033-.057-.029-.048-.455-.761-.017-.028-.031-.051c-.313-.521-.628-1.04-.946-1.558l-.036-.058-.026-.043-.463-.749-.023-.038-.037-.057c-.319-.514-.641-1.025-.965-1.535l-.036-.058-.023-.035-.472-.74-.03-.046-.039-.06-.488-.755-.002-.003-.006-.01-.285-.436-.208-.317-.034-.052-.018-.027c-.161-.245-.322-.489-.484-.732l-.035-.053-.039-.059-.492-.736-.01-.015-.024-.036-.252-.373-.24-.355-.029-.042-.013-.019-.496-.727-.04-.058-.038-.056-.498-.72-.017-.025-.036-.051-.224-.322-.28-.4-.017-.024-.006-.009-.511-.724-.044-.062-.036-.05a90.084 90.084 0 0 0-.504-.707l-.025-.035-.042-.06c-.349-.485-.7-.969-1.053-1.452l-.046-.063-.032-.043c-.17-.233-.341-.465-.513-.696l-.031-.043-.047-.063c-.355-.48-.713-.957-1.072-1.433l-.046-.061-.027-.036-.522-.687-.039-.051-.048-.062-.536-.698-.008-.01-.021-.028-.297-.383-.234-.301-.043-.056-.022-.027-.533-.68-.045-.057-.048-.06-.539-.681-.016-.02-.038-.047-.263-.329-.271-.338-.035-.044-.015-.019-.546-.675-.05-.061-.045-.056-.545-.666-.024-.03-.048-.058-.234-.284-.315-.381-.022-.026-.007-.009a181.35 181.35 0 0 0-.561-.672l-.054-.064-.041-.05-.552-.654-.032-.039-.054-.063c-.382-.451-.767-.9-1.153-1.347l-.056-.064-.036-.043-.56-.644-.04-.046-.056-.064-.58-.661-.004-.004-.014-.015-.348-.394-.228-.256-.054-.061-.031-.035c-.19-.212-.379-.424-.57-.635l-.047-.053-.056-.063-.582-.642-.013-.015-.036-.039-.306-.336-.263-.286-.05-.055-.023-.025-.582-.63-.053-.058-.055-.058-.584-.627-.023-.024-.05-.053-.271-.289-.304-.321-.04-.043-.016-.017-.594-.624-.059-.062-.051-.053-.59-.614-.031-.032-.059-.06-.242-.25-.353-.363-.022-.023-.007-.007c-.203-.208-.407-.416-.611-.622l-.062-.064-.046-.046c-.198-.201-.397-.402-.597-.602l-.04-.041-.062-.063c-.415-.416-.832-.83-1.25-1.242l-.064-.063-.04-.039c-.201-.198-.402-.395-.605-.592l-.048-.047-.064-.063-.623-.604-.009-.009-.028-.026-.358-.344-.253-.242-.061-.059-.033-.032-.615-.584-.056-.053-.063-.059-.624-.587-.019-.018-.048-.045-.315-.294-.292-.271-.056-.051-.024-.023-.627-.578-.062-.057-.06-.055-.628-.573-.029-.026-.06-.055-.28-.253-.337-.304-.043-.038-.016-.015-.641-.573-.066-.059-.056-.049c-.21-.188-.421-.374-.633-.561l-.038-.033-.067-.06-.249-.218-.393-.344-.021-.018-.006-.005a334.62 334.62 0 0 0-.657-.571l-.07-.06-.049-.042-.64-.55-.047-.04-.071-.06c-.221-.189-.443-.378-.666-.566l-.003-.003-.011-.009-.418-.353-.244-.204-.07-.059-.042-.035-.648-.54-.056-.046-.071-.058-.664-.548-.014-.012-.041-.033-.365-.298-.28-.228-.067-.054-.034-.028-.658-.532-.063-.051-.069-.054c-.221-.178-.443-.355-.666-.532l-.024-.02-.058-.046-.323-.256-.322-.254-.059-.046-.025-.02-.671-.525-.069-.054-.064-.05-.669-.518-.035-.027-.069-.053-.286-.22-.373-.286-.043-.032-.015-.011-.686-.521-.073-.056-.059-.043c-.224-.17-.449-.338-.674-.507l-.045-.033-.074-.056-.254-.189-.437-.324-.015-.011-.004-.003c-.234-.172-.468-.345-.703-.516l-.076-.056-.052-.038-.681-.495-.054-.039-.076-.055-.706-.508-.007-.005-.025-.018-.424-.303-.268-.19-.075-.053-.043-.031-.69-.486-.063-.043-.075-.053-.704-.491-.019-.013-.051-.035-.371-.257-.309-.211-.07-.049-.034-.023-.701-.478-.069-.047-.073-.049a123.73 123.73 0 0 0-.705-.475l-.029-.02-.068-.045-.328-.22-.355-.236-.059-.04-.024-.015-.714-.471-.075-.05-.067-.044-.709-.462-.04-.026-.076-.049-.292-.189-.411-.265-.04-.025-.012-.009-.729-.465-.08-.051-.06-.038-.714-.45-.05-.032-.081-.05-.258-.162-.484-.301-.004-.003h-.002c-.248-.155-.498-.308-.747-.461l-.081-.051-.053-.031-.72-.44-.06-.036-.081-.049-.743-.448-.011-.007-.037-.022-.429-.256-.294-.174-.079-.048-.043-.025-.729-.43-.069-.04-.079-.046-.741-.431-.023-.014-.061-.035-.376-.217-.338-.194-.072-.041-.033-.019-.74-.421-.076-.043-.075-.042c-.247-.14-.494-.279-.742-.417l-.035-.02-.074-.041-.333-.185-.389-.216-.058-.032-.022-.012-.754-.414-.081-.044-.069-.037-.745-.404-.046-.025-.082-.044-.295-.159-.453-.241-.032-.018-.011-.005-.77-.407-.085-.045-.061-.032-.75-.392-.056-.029-.086-.044-.781-.403-.003-.002-.013-.006-.496-.254-.279-.141-.085-.043-.052-.027-.758-.38-.066-.033-.084-.043a187.47 187.47 0 0 0-.778-.385l-.015-.008-.048-.023-.431-.212-.32-.157-.082-.04-.042-.02-.767-.371-.074-.036-.082-.039-.775-.37-.028-.013-.069-.032-.379-.18-.368-.172-.072-.034-.031-.015c-.259-.121-.519-.242-.779-.361l-.081-.038-.076-.035-.777-.356-.04-.018-.08-.037-.336-.153-.425-.191-.054-.024-.019-.009-.793-.353-.086-.039-.069-.03-.78-.343-.051-.023-.087-.037-.298-.13-.494-.214-.024-.01-.006-.003c-.27-.116-.54-.232-.81-.346l-.089-.038-.06-.026-.785-.331-.062-.025-.089-.037c-.271-.114-.542-.226-.813-.338l-.008-.003-.025-.011-.496-.203-.303-.124-.088-.036-.051-.02-.792-.32-.071-.028-.088-.035-.809-.322-.02-.008-.056-.022-.433-.17-.347-.135-.083-.032-.04-.016-.802-.309-.079-.03-.084-.032-.807-.306-.033-.013-.075-.028-.381-.143-.399-.148-.071-.026-.028-.011-.814-.299-.086-.031-.077-.028-.808-.293-.045-.016-.086-.03-.337-.121-.462-.163-.048-.018-.016-.005-.828-.29-.09-.032-.07-.023-.811-.28-.056-.019-.092-.031-.298-.101-.539-.182-.011-.003-.002-.001c-.282-.095-.564-.189-.847-.282l-.092-.03-.06-.02c-.272-.09-.544-.178-.817-.267l-.066-.022-.092-.029-.843-.27-.011-.004-.037-.012-.493-.156-.328-.102-.09-.028-.049-.016-.824-.255-.076-.023-.09-.027c-.279-.086-.558-.17-.838-.255l-.024-.007-.065-.02-.432-.129-.375-.111-.082-.024-.039-.012c-.277-.081-.555-.163-.833-.243l-.084-.025-.085-.024-.836-.239-.038-.011-.081-.023-.381-.108-.431-.12-.067-.019-.025-.007-.847-.233-.09-.025-.077-.02-.837-.226-.05-.013-.091-.024-.336-.09-.499-.131-.04-.01-.013-.004-.861-.222-.094-.024-.069-.018-.84-.212-.061-.016-.095-.023-.876-.216-.001-.001-.007-.001-.566-.137-.307-.074-.094-.023-.059-.014-.846-.199-.071-.017-.095-.022a220.58 220.58 0 0 0-.868-.2l-.015-.003-.048-.011-.489-.111-.352-.078-.091-.02-.048-.011-.853-.187-.081-.018-.09-.019-.864-.185-.029-.006-.073-.015-.429-.09-.403-.083-.08-.017-.036-.007-.863-.175-.088-.018-.085-.017-.862-.17-.042-.008-.088-.017-.378-.073-.464-.088-.061-.012-.023-.004c-.292-.055-.584-.11-.876-.163l-.094-.018-.077-.014-.863-.155-.054-.01-.095-.017-.334-.059-.538-.094-.029-.005-.009-.001a127.56 127.56 0 0 0-.892-.152l-.097-.016-.068-.011-.866-.143-.066-.01-.097-.016a279.09 279.09 0 0 0-.898-.143l-.006-.001-.021-.003-.557-.086-.329-.05-.096-.014-.057-.009c-.291-.043-.581-.087-.872-.129l-.076-.011-.096-.014-.89-.127-.02-.002-.058-.008-.483-.067-.377-.051-.09-.013-.046-.006c-.293-.039-.586-.078-.879-.115l-.085-.012-.092-.011-.886-.112-.034-.004-.079-.01-.425-.052-.431-.051-.078-.01-.032-.004c-.296-.034-.593-.069-.89-.102l-.092-.011-.085-.009-.884-.098-.047-.005-.093-.009-.374-.04-.496-.052-.055-.005-.019-.002-.903-.09-.098-.009-.076-.008-.885-.083-.06-.005-.098-.009-.33-.03-.578-.05-.016-.002h-.004l-.92-.077-.1-.008-.066-.005c-.296-.024-.592-.047-.889-.069l-.07-.006-.1-.007c-.305-.023-.611-.045-.917-.066l-.01-.001-.035-.002-.546-.037-.351-.023-.097-.007-.055-.003c-.298-.019-.596-.038-.894-.055l-.081-.005-.097-.006-.909-.051-.025-.001-.067-.004-.476-.025-.4-.019-.09-.005-.043-.002-.902-.041-.089-.004-.092-.004c-.302-.012-.603-.025-.905-.036l-.039-.002-.086-.003-.418-.015-.459-.015-.074-.003-.029-.001-.913-.026-.097-.003-.084-.002c-.301-.008-.602-.016-.903-.022l-.052-.001-.097-.002-.369-.008-.529-.009-.046-.001h-.015l-.927-.012-.101-.002h-.075c-.301-.004-.603-.006-.905-.008h-.165l-.325-.002-.619-.001c-1.445 0-2.886.016-4.324.048l-.615.015a195.662 195.662 0 0 0-6.479.273l-.263.015-.183.011c-.396.025-.792.05-1.188.077a190.182 190.182 0 0 0-15.887 1.738c-.945.143-1.888.294-2.828.451l-.343.057-.173.03c-1.809.308-3.61.641-5.402.999l-.304.061c-1.933.389-3.855.808-5.766 1.255l-.049.012-.204.048a188.182 188.182 0 0 0-6.363 1.615c-.419.115-.838.23-1.256.347-.504.141-1.007.284-1.51.429-.355.103-.711.206-1.065.311-.532.157-1.063.316-1.592.477l-.564.172c-58.616 18.049-105.269 63.503-124.974 121.376-.136.398-.27.796-.403 1.195l-.07.209-.184.558-.191.585a190.458 190.458 0 0 0-8.614 42.591c-.03.354-.06.708-.088 1.062a193.928 193.928 0 0 0-.346 25.764l.009.179.034.611a192.75 192.75 0 0 0 1.339 14.183 191.19 191.19 0 0 0 2.732 15.651l.128.581a189.292 189.292 0 0 0 2.124 8.637l.155.571.003.01a189.915 189.915 0 0 0 9.563 26.805 190.975 190.975 0 0 0 11.337 21.686l.375.615.272.443.304.492a188.894 188.894 0 0 0 5.822 8.831l.217.309.14.199a189.703 189.703 0 0 0 7.279 9.674 190.756 190.756 0 0 0 3.867 4.665l.374.436a193.199 193.199 0 0 0 21.819 21.594l.668.56.442.368a197.222 197.222 0 0 0 3.165 2.573c1.253.996 2.519 1.977 3.797 2.943l.256.192.099.075a189.467 189.467 0 0 0 6.441 4.638c.317.217.634.435.952.651.953.648 1.912 1.288 2.877 1.919l.483.315.386.25a194.686 194.686 0 0 0 6.981 4.304 190.653 190.653 0 0 0 8.686 4.804l.437.227.487.25a189.78 189.78 0 0 0 9.343 4.474l.118.053.199.088c1.529.679 3.069 1.338 4.618 1.977.3.124.6.246.9.368.727.296 1.456.587 2.187.874l.168.066 1.012.392.078.03a190.216 190.216 0 0 0 15.458 5.186c1.744.503 3.498.982 5.262 1.437l.69.176a186.064 186.064 0 0 0 8.571 1.963l.585.119.419.084a188.713 188.713 0 0 0 5.759 1.056l.292.049.592.097c.395.064.79.127 1.186.189l.594.092a193.216 193.216 0 0 0 10.182 1.279 193.683 193.683 0 0 0 16.027.907l.465.006.617.007a191.228 191.228 0 0 0 2.734.007h.107l.084-.001.858-.007h.041l.096-.001.409-.005.374-.005.103-.001.051-.001.854-.015.076-.002.109-.002.284-.006.548-.013.039-.001h.011c.289-.007.577-.015.866-.024l.102-.003.091-.003.855-.028.031-.001.084-.003.447-.017.338-.013.107-.004.06-.003c.283-.011.565-.023.848-.036l.067-.003.109-.005.309-.014.49-.024.066-.004.021-.001c.286-.014.571-.029.856-.045l.095-.005.097-.006.854-.049.021-.001.064-.005.491-.03.307-.02.107-.007.068-.004.842-.058.059-.004.106-.007.337-.025.441-.032.083-.006.031-.003.846-.066.089-.007.1-.008.855-.072h.01l.037-.004.542-.047.278-.025.106-.01.075-.007.837-.078.05-.005.101-.01.367-.035.398-.04.094-.009.041-.004.836-.087.082-.009.103-.011.254-.027.599-.065.002-.001c.285-.031.569-.064.853-.097l.103-.012.082-.009.833-.099.04-.005.092-.012.4-.048.361-.046.1-.012.05-.007c.276-.035.553-.07.829-.107l.073-.009.105-.014.277-.037.529-.071.04-.006.01-.001c.281-.039.561-.077.841-.117l.098-.014.087-.013.831-.119.029-.005.079-.012.437-.064.327-.05.103-.015.058-.009.822-.127.065-.01.104-.017.302-.048.473-.076.064-.01.02-.003.829-.137.092-.015.093-.016.828-.141.019-.003.059-.01.48-.084.296-.052.103-.018.066-.012.816-.147.055-.01.101-.019.329-.061.426-.079.079-.015.03-.006.819-.156.085-.016.096-.019.828-.162.008-.001.031-.007.53-.106.269-.054.1-.021.072-.014c.271-.056.541-.111.811-.168l.046-.009.095-.02.359-.075.384-.082.089-.019.039-.009c.27-.057.54-.116.81-.175l.077-.017.098-.021c.551-.122 1.102-.245 1.651-.371l.097-.022.078-.018.806-.188.036-.008.085-.02.391-.092.349-.084.094-.022.047-.012.802-.194.068-.017.098-.024.272-.067.512-.128.033-.008.01-.002.813-.206.091-.023.082-.022.804-.208.026-.006.07-.019.428-.112.317-.084.095-.026.054-.014.795-.214.059-.016.096-.026.297-.081.458-.127.056-.015.018-.005c.268-.074.535-.149.802-.225l.085-.023.085-.025.803-.229.015-.004.048-.014.471-.136.288-.084.094-.028.06-.018.79-.233.049-.015.091-.027.324-.097.413-.126.07-.02.026-.008.793-.244.076-.023.088-.027.802-.251.004-.001.017-.005.523-.166.261-.084.091-.028.065-.021.785-.254.04-.013.083-.027.353-.115.375-.124.077-.025.034-.012c.261-.086.523-.174.784-.262l.068-.022.088-.03c.532-.18 1.064-.361 1.593-.545l.086-.03.069-.024.782-.274.029-.01.07-.025.387-.137.342-.122.08-.029.04-.014.777-.281.059-.022.085-.031.27-.098.502-.185.018-.006.004-.002.789-.294.079-.03.072-.027c.26-.097.52-.196.78-.295l.019-.007.051-.019.425-.163.312-.12.08-.031.045-.018c.258-.099.515-.199.772-.3l.049-.019.081-.032.295-.116.452-.179.037-.015.012-.005c.26-.103.519-.207.779-.312l.071-.028.073-.03c.26-.105.52-.21.78-.317l.007-.003.025-.01.471-.193.286-.119.077-.031.049-.021.768-.321.039-.016.072-.03.324-.137.41-.174.048-.021.018-.008.771-.33.063-.027.071-.031a214.84 214.84 0 0 0 1.554-.681l.072-.032.052-.023c.256-.113.51-.227.765-.342l.029-.012.059-.027.356-.16.375-.171.053-.024.023-.011.765-.35.053-.024.068-.032c.515-.238 1.029-.478 1.542-.72l.066-.031.053-.026c.255-.12.51-.242.764-.363l.017-.009.042-.02.392-.188.344-.166.055-.027.027-.013.76-.371.043-.021.062-.031a155.98 155.98 0 0 0 1.533-.762l.058-.029.053-.027.764-.386.007-.003.017-.009.435-.222.316-.163.053-.027.03-.016.756-.391.032-.017.053-.028.304-.158.459-.242.001-.001.765-.405.049-.027.051-.027c.508-.271 1.016-.545 1.522-.821l.048-.027.032-.017.754-.414.022-.012.039-.022.335-.186.42-.234.01-.005.004-.003.759-.426.04-.022.045-.026a172.96 172.96 0 0 0 1.51-.863l.042-.024.031-.018.754-.438.011-.006.021-.013.37-.217.387-.228.014-.008.007-.004c.252-.148.503-.298.754-.448l.03-.017.038-.023c.501-.3 1.002-.602 1.5-.906l.035-.021.029-.018c.508-.31 1.015-.623 1.52-.938l.015-.009.007-.004.752-.472.019-.011.027-.017c.5-.316.998-.633 1.495-.953l.026-.017.024-.015c.503-.324 1.004-.65 1.503-.978l.012-.007.006-.005.752-.496.007-.005.012-.008c.5-.332.998-.666 1.494-1.003l.017-.011.017-.012c.498-.337.995-.677 1.489-1.019l.007-.005.004-.003c.75-.519 1.496-1.043 2.239-1.573l.006-.005.008-.005c.494-.353.987-.708 1.479-1.066-41.915 38.972-98.079 62.819-159.769 62.819-83.611 0-157.072-43.807-198.662-109.701C517.665 732.786 530 695.572 530 655.5c0-46.621-16.696-89.373-44.43-122.599a235.059 235.059 0 0 1 22.186-35.609A192.42 192.42 0 0 0 540 500c70.928 0 132.901-38.644 165.996-96.008z"/></g><clipPath id="c"><path d="M213.5 638.5H610V858H213.5z"/></clipPath><g clip-path="url(#c)"><path d="M339.433 846.998c1.751-.009 3.497-.041 5.237-.096l.614-.02.614-.023c.614-.023 1.226-.049 1.838-.078l.063-.003c1.927-.093 3.846-.213 5.757-.363l.276-.021.096-.008.511-.041.378-.032.228-.019.372-.033c.874-.076 1.746-.159 2.617-.247l.637-.066.602-.064.44-.048.162-.018.173-.019.429-.049.041-.005a185.216 185.216 0 0 0 6.535-.863 187.524 187.524 0 0 0 3.456-.55l.101-.017.205-.035c.55-.094 1.1-.19 1.649-.288.497-.09.994-.181 1.49-.274l.191-.035.587-.112c.453-.087.906-.176 1.358-.266l.399-.08.575-.116c.782-.161 1.562-.326 2.341-.495l.581-.128.027-.006a190.525 190.525 0 0 0 14.845-3.921l.073-.023c.441-.136.882-.274 1.322-.413l.907-.289a197.99 197.99 0 0 0 3.768-1.257l.075-.026.554-.192a190.631 190.631 0 0 0 9.815-3.733l.024-.01.423-.175a190.922 190.922 0 0 0 20.395-9.932l.738-.417a194.829 194.829 0 0 0 8.646-5.223 192.536 192.536 0 0 0 39.399-33.49l.384-.428c.893-1 1.775-2.009 2.647-3.028l.374-.438c.241-.283.481-.568.721-.852a191.747 191.747 0 0 0 3.005-3.665l.292-.366.358-.451c.238-.3.475-.602.711-.904l.13-.167a193.694 193.694 0 0 0 6.109-8.285l.246-.354.328-.474.205-.3.121-.176.266-.389a193.7 193.7 0 0 0 4.478-6.888l.285-.461.075-.122a192.586 192.586 0 0 0 4.023-6.855l.281-.505.027-.048.254-.458.082-.15c.252-.457.501-.916.749-1.375l.275-.51c.141-.264.282-.528.421-.792a187.737 187.737 0 0 0 2.371-4.628l.125-.252.256-.521.345-.708a189.762 189.762 0 0 0 6.472-14.955l.14-.365.092-.242a193.6 193.6 0 0 0 2.755-7.778 190.8 190.8 0 0 0 2.713-8.957 188.841 188.841 0 0 0 2.783-11.444 189.49 189.49 0 0 0 1.669-8.997c.713-4.435 1.274-8.92 1.677-13.451l.052-.595.035-.422.065-.791.047-.607c.139-1.823.252-3.652.34-5.489l.028-.612a179.63 179.63 0 0 0 .136-3.998l.02-.919.011-.616c.005-.356.01-.712.013-1.069a170.131 170.131 0 0 0 .006-3.433l-.004-.445-.006-.513a143.469 143.469 0 0 0-.048-2.57l-.016-.616a190.589 190.589 0 0 0-.225-5.309c-.09-1.614-.201-3.223-.331-4.826l-.02-.249-.021-.243a190.827 190.827 0 0 0-4.641-28.777l-.027-.113a184.848 184.848 0 0 0-1.606-6.191 189.098 189.098 0 0 0-1.041-3.609l-.107-.359-.081-.267a190.775 190.775 0 0 0-4.257-12.482l-.279-.728a197.277 197.277 0 0 0-1.669-4.188 190.289 190.289 0 0 0-2.888-6.639l-.382-.83-.245-.528a192.978 192.978 0 0 0-2.098-4.345l-.44-.878-.262-.517a197.055 197.055 0 0 0-3.551-6.651c-.62-1.11-1.251-2.212-1.893-3.308l-.116-.196-.114-.195a191.85 191.85 0 0 0-9.312-14.312l-.336-.468a191.942 191.942 0 0 0-6.856-8.951l-.625-.764a185.51 185.51 0 0 0-2.319-2.768c-.187-.22-.375-.438-.563-.657a192.625 192.625 0 0 0-13.02-13.692l-.416-.396a191.377 191.377 0 0 0-4.658-4.272l-.43-.381a191.94 191.94 0 0 0-11.585-9.445l-.46-.346c-.932-.697-1.87-1.386-2.815-2.066l-.437-.314-.278-.199-.759-.538a188.581 188.581 0 0 0-3.447-2.377l-.251-.169-.274-.184-.205-.137-.327-.217a192.531 192.531 0 0 0-11.397-7.01l-.072-.041-.426-.24c-.362-.205-.725-.408-1.088-.609l-.506-.281-.343-.188-.165-.09-.372-.204c-.318-.173-.636-.345-.955-.516l-.2-.108-.159-.084a189.555 189.555 0 0 0-4.789-2.474l-.204-.102-.244-.12a199.066 199.066 0 0 0-6.055-2.87l-.531-.239-.531-.237a176.004 176.004 0 0 0-3.259-1.414c-.543-.23-1.087-.457-1.633-.682l-.469-.192-.11-.045a189.962 189.962 0 0 0-11.83-4.377l-.137-.046a198.773 198.773 0 0 0-3.921-1.254l-.336-.102c-.827-.253-1.656-.501-2.487-.743l-.567-.164-.277-.079-.859-.244-.569-.159-1.081-.296a183.78 183.78 0 0 0-6.378-1.612c-.385-.09-.771-.18-1.157-.268l-.58-.131-.21-.046-.952-.211-.582-.126a192.14 192.14 0 0 0-8.804-1.674l-.592-.097-.593-.095-.593-.094a189.893 189.893 0 0 0-8.832-1.169l-.738-.079-.603-.063-.885-.087a189.9 189.9 0 0 0-5.249-.437l-.534-.036-.609-.04a194.573 194.573 0 0 0-11.672-.388L338.5 464a193.697 193.697 0 0 0-18.683.902l-.282.027-.535.054a185.196 185.196 0 0 0-8.304 1.025l-.154.022-.595.088-.319.048c-.937.142-1.872.291-2.805.447l-.433.072-.591.101c-1.574.272-3.142.562-4.703.872l-.585.117-.585.119-.122.025c-.544.111-1.086.225-1.627.341l-.582.126c-1.039.227-2.074.462-3.107.705l-.37.087-.038.009a197.54 197.54 0 0 0-3.291.814l-.124.032-.35.091a194.399 194.399 0 0 0-7.578 2.135l-.595.182c-1.688.52-3.366 1.063-5.034 1.628l-.556.189-.159.055-.396.136-.169.058-.385.134-.349.123a189.495 189.495 0 0 0-12.428 4.861c-.35.152-.7.304-1.049.458-.655.287-1.308.579-1.96.873l-.466.212-.409.187-.758.35a191.915 191.915 0 0 0-9.242 4.599l-.512.273-.109.059c-.308.165-.615.331-.922.498l-.496.271-.27.148-.238.13-.506.281c-.475.263-.949.529-1.422.797l-.092.052-.031.018a195.873 195.873 0 0 0-3.142 1.823l-.325.193-.496.296a192.308 192.308 0 0 0-7.475 4.721l-.327.217-.216.144-.263.177-.251.169a191.273 191.273 0 0 0-3.536 2.44l-.789.56a232.197 232.197 0 0 0-2.487 1.807l-.463.343a192.862 192.862 0 0 0-11.916 9.618l-.158.138-.432.379a196.946 196.946 0 0 0-3.832 3.473l-.42.392a197.406 197.406 0 0 0-4.946 4.801l-.582.588a193.04 193.04 0 0 0-18.259 21.46 191.836 191.836 0 0 0-12.905 20.159l-.033.059a189.692 189.692 0 0 0-5.536 10.768l-.249.525-.348.744-.144.31-.053.114-.191.414-.242.528a185.848 185.848 0 0 0-1.554 3.502l-.097.224a187.775 187.775 0 0 0-3.483 8.669l-.204.549a196.296 196.296 0 0 0-1.256 3.5l-.125.362-.128.372a190.133 190.133 0 0 0-9.392 43.166l-.058.604a194.624 194.624 0 0 0-.583 7.775l-.007.126-.032.612a189.468 189.468 0 0 0-.163 4.07l-.007.223-.006.245a195.97 195.97 0 0 0-.073 5.31l.001.585v.034l.001.158.001.316.001.078v.067l.001.16.002.241.001.119.001.098.001.141.002.187.002.163.002.126.001.114.002.142.003.211.002.151.002.083.001.1.005.27.003.163.001.052.001.06.008.373.003.132v.018l.014.582.001.015.003.124.01.387.002.056.001.049.005.164.008.274.003.096.003.081.005.153.007.212.004.137.004.112.005.129.006.164.006.182.006.139.004.1.004.121.01.232.006.16.003.07.003.08.013.3.007.163.002.037.002.041.022.48.002.058.029.576.001.032.009.163.016.311.004.072.003.066.01.166.013.236.006.111.005.098.009.146.01.184.01.152.007.128.008.119.008.14.012.196.01.155.006.089.006.098.016.248.012.174.003.058.004.058.023.329.011.164.002.025.04.566.002.017.011.153.026.357.004.047.004.051.014.184.02.254.006.084.007.085.014.169.016.198.01.122.009.118.012.143.013.153.007.079c.026.316.054.631.082.947l.004.043.007.077c.06.665.123 1.329.19 1.992l.006.065.004.034c.032.32.065.639.099.958l.008.073.007.065.104.952.005.046.008.069c.037.33.075.66.114.989l.066.553.059.478.003.031.002.013c.041.329.082.657.125.985l.007.06.006.045.128.969.005.041.008.054.137.997.002.01c.096.689.197 1.377.301 2.064l.005.031.003.021.155 1.001.004.027.005.03c.203 1.286.419 2.568.647 3.846l.054.298c-6.213-21.066-9.547-43.36-9.547-66.428 0-126.487 100.254-229.743 225.567-234.573C396.429 454.371 462.928 500 540 500c11.331 0 22.434-.986 33.227-2.878a234.129 234.129 0 0 1 19.889 38.606C566.77 568.535 551 610.19 551 655.5c0 33.291 8.513 64.609 23.48 91.895C532.993 813.792 459.243 858 375.25 858c-33.767 0-65.878-7.145-94.904-20.004l.839.265.022.007.034.01c.552.173 1.104.344 1.658.512l.035.01.044.014c.547.165 1.095.328 1.643.489l.046.014.05.014c.544.159 1.089.316 1.635.471l.056.015.049.014c.544.154 1.089.305 1.636.454l.062.017.046.012c.273.075.547.148.821.222l.497.132.324.085.065.017.041.011.814.211.024.006.054.014.398.102.366.092.063.016.033.008c.27.068.54.136.811.202l.039.01.07.017.343.085.416.101.055.013.023.005c.27.066.539.13.81.194l.053.013.079.018.296.07.477.111.035.008.012.003.811.186.066.015.081.018c.541.122 1.082.242 1.625.36l.076.016.08.017c.54.117 1.081.231 1.623.343l.086.018.074.015.81.166.012.002.04.008.492.098.274.054.093.019.066.012.805.157.028.005.072.014.421.08.313.058.095.018.057.01.803.148.043.008.09.016.364.066.357.063.093.017.045.007c.267.048.535.094.803.14l.057.01.099.017.316.054.41.068.082.014.033.006.805.132.07.011.101.016.275.044.474.075.06.01.019.003c.27.042.54.084.81.124l.082.013.099.015.237.036.56.083.021.003.817.118.093.013.092.013.817.114.581.078.24.032.102.014.084.01c.27.036.541.071.811.105l.023.003.07.009.465.059.278.034.106.013.074.009c.27.032.539.065.809.096l.038.005.094.011.401.046.319.036.108.013.062.006c.269.031.539.06.809.089l.053.006.106.011.349.037.365.038.104.011.049.005.81.081.067.006.111.011.304.029.422.04.091.009.034.003.814.073.08.007.109.01.266.023.49.041.065.006.019.001c.274.023.547.045.821.066l.091.007.104.008.23.018.584.044.018.001.829.059.101.007.096.006c.275.019.551.037.826.054l.013.001.047.003.53.033.25.015.109.006.086.005.822.046.029.002.084.004.453.024.288.014.113.006.075.003.821.038.044.002.103.004.393.017.332.013.113.005.061.002.822.03.058.002.112.004.343.011.382.012.106.003.048.001c.275.008.549.016.824.022l.073.002.114.003.299.007.442.009.09.002.032.001.829.014.085.001.111.002.262.003.516.006.059.001h.016c.279.003.557.005.836.006l.096.001h.105l.845.002.619-.001z"/></g></g></g></svg>