<svg xmlns:serif="http://www.serif.com/" xmlns="http://www.w3.org/2000/svg" width="40" height="40" clip-rule="evenodd" fill-rule="evenodd" stroke-linejoin="round" stroke-miterlimit="1.414"><g serif:id="OBS Logo" fill="#fff"><g serif:id="Circles Plain"><path serif:id="Outer Circle" d="M20 0c11.038 0 20 8.962 20 20s-8.962 20-20 20S0 31.038 0 20 8.962 0 20 0zm0 1.884c9.998 0 18.116 8.118 18.116 18.116S29.998 38.116 20 38.116 1.884 29.998 1.884 20 10.002 1.884 20 1.884z"/></g><g serif:id="Blades Discord" transform="translate(-3.126 -3.126) scale(.04283)"><clipPath id="a"><path d="M308.5 121.75H540v469.5H308.5z"/></clipPath><g clip-path="url(#a)"><path d="M751.842 464.224c-81.911-5.35-162.717 48.783-189.504 126.259l-54.185-23.837c-32.45-63.296-102.407-104.935-173.591-102.606-44.467-83.61-30.789-193.417 33.166-263.358 18.625-21.456 44.853-41.239 68.028-52.811-50.126 32.167-83.525 88.816-86.867 148.338-5.69 74.349 36.887 149.285 103.579 182.631 69.566 36.921 161.225 24.369 218.067-30.272a192.535 192.535 0 0 0 38.388-49.838c-10.58-57.863-22.658-117.329-14.053-176.241-.386-22.735 25.607-43.741 42.197-20.198 31.76 37.015 41.422 88.013 43.224 135.465.81 43.616-8.647 87.53-28.449 126.468z"/></g><clipPath id="b"><path d="M460.5 403.75H930V655.5H460.5z"/></clipPath><g clip-path="url(#b)"><path d="M705.996 403.992c95.83 3.127 185.036 71.473 212.977 163.257 3.423 8.327 10.069 41.088 8.01 36.75-17.196-63.558-69.643-115.861-133.174-133.036-68.713-19.545-147.553 2.974-194.439 57.365-51.602 56.63-64.207 146.465-26.84 213.808 27.23 33.67 70.477 47.979 109.427 63.35 49.104 18.612 100.892 29.313 149.663 48.712 19.316 14.778-24.057 13.848-34.051 15.55-44.302 1.998-88.912 5.68-133.155 1.491-68.29-8.575-131.415-49.364-167.826-107.69 48.203-68.076 43.53-167.48-11.018-230.648 9.594-12.492 14.396-40.63 34.22-33.957 73.906 8.698 149.718-30.19 186.206-94.952z"/></g><clipPath id="c"><path d="M213.5 638.5H610V858H213.5z"/></clipPath><g clip-path="url(#c)"><path d="M339.433 846.998c75.799.58 148.664-48.859 176.483-119.334 30.951-73.188 9.61-164.15-50.824-215.808C430.588 481.191 367.824 428.331 338.5 464c-205.228 249.633 222.091-148.193 247.49 81.184-41.938 57.97-46.484 139.856-11.51 202.211-47.441 78.049-143.163 122.543-233.407 108.13a233.053 233.053 0 0 1-60.727-17.529c19.06 6.086 39.082 9.106 59.087 9.002z"/></g></g></g></svg>