<svg xmlns="http://www.w3.org/2000/svg" height="72" width="72"><path d="M35.973 0c-13.81 0-21.701 5.651-26.85 12.02a153.81 153.81 0 0 1 7.59 2.278l.107-5.971.077-.17.201-.062c1.212.177 27.107 4.004 38.013 10.359 1.348.792 2.013 1.624 2.848 2.478 3.013 3.114 7.014 16.082 7.436 18.762l-.169.277c-.156.058-.535.323-1.031.662-2.545 1.779-8.494 5.94-16.12 5.263-6.86-.61-15.81-4.544-26.605-11.65.475 1.12 2.72 6.446 3.095 7.341l.154.185c1.564.807 16.561 8.451 24.002 8.296 6.005-.12 12.415-3.05 14.98-4.587l.817-.154c.228.179.193.524.123.846-.158.735-.51 2.083-.755 2.71l-.2.523c-.291.775-.578 1.522-1.124 1.97-1.513 1.376-3.933 2.467-7.713 4.124-5.847 2.554-15.321 4.161-24.126 4.11-3.152-.07-6.205-.42-8.883-.724-5.59-.637-10.127-1.15-12.84.955C15.597 67.295 25.234 72 35.973 72 55.861 72 72 55.883 72 36 72 16.118 55.863 0 35.973 0zm9.515 19.054a10.928 10.928 0 0 0-7.375 2.97 10.973 10.973 0 0 0-3.525 7.711c-.198 6.095 4.602 11.239 10.7 11.467a11 11 0 0 0 7.944-2.986 11.011 11.011 0 0 0 3.51-7.695c.21-6.103-4.59-11.247-10.7-11.467-.185-.006-.37-.003-.554 0zm.083 3.254c.125 0 .25.004.38.009 4.26.149 7.609 3.721 7.466 7.988a7.69 7.69 0 0 1-2.448 5.387 7.726 7.726 0 0 1-5.542 2.063c-4.258-.158-7.593-3.743-7.452-8.004a7.67 7.67 0 0 1 2.448-5.372 7.639 7.639 0 0 1 4.773-2.062c.127-.008.25-.01.375-.01zm1.657 3.873c-1.899 0-3.433 1.027-3.433 2.292 0 1.257 1.534 2.294 3.433 2.294 1.892 0 3.418-1.035 3.418-2.294 0-1.265-1.526-2.292-3.418-2.292z" fill="#fff"/></svg>