<svg viewBox="0 0 72 72.022" xmlns="http://www.w3.org/2000/svg" xmlns:xlink="http://www.w3.org/1999/xlink"><defs><linearGradient id="f" x1="82.9" x2="82.9" y1="11.55" y2="154.54" gradientTransform="translate(0 40)" gradientUnits="userSpaceOnUse" xlink:href="#a"/><linearGradient id="a" x1="82.9" x2="82.9" y1="11.55" y2="154.54" gradientUnits="userSpaceOnUse"><stop stop-color="#fff" offset="0"/><stop stop-color="#fff" offset="1"/></linearGradient><linearGradient id="d" x1="81.55" x2="81.55" y1="27.55" y2="158.66" gradientTransform="translate(0 40)" xlink:href="#a"/><linearGradient id="c" x1="156.66" x2="156.66" y1="51.54" y2="154.8" gradientTransform="translate(0 40)" gradientUnits="userSpaceOnUse" xlink:href="#b"/><linearGradient id="b" x1="156.66" x2="156.66" y1="51.54" y2="154.8" gradientUnits="userSpaceOnUse"><stop stop-color="#fff" offset="0"/><stop stop-color="#fff" offset="1"/></linearGradient><linearGradient id="e" x1="158.41" x2="158.41" y1="51.54" y2="154.8" gradientTransform="translate(0 40)" xlink:href="#b"/><style>.cls-1{fill:#a6a8ab}.cls-6{fill:#626366}</style></defs><g data-name="Layer 2"><g data-name="Layer 1"><path d="M65.85 121.86a53.68 53.68 0 0 0 11.61 33.41c-.1.29-.15.6-.22.9a10.81 10.81 0 0 0-.34 2.57 11 11 0 1 0 11-11 10.75 10.75 0 0 0-1.2.07c-.31 0-.61.08-.91.13a42.82 42.82 0 0 1 14.16-64.08V42.07l-.77.21q-3.63.94-7.12 2.2c-1.29.47-2.58 1-3.84 1.48v32.23l-.13.1a53.79 53.79 0 0 0-22.24 43.57z" fill="url(#f)" transform="translate(-16.483 -17.521) scale(.43803)"/><path d="M120.28 136.58a14.54 14.54 0 0 1-14.55-14.37H93.59a26.29 26.29 0 0 0 21 25.65v45.35A71.13 71.13 0 0 1 63.9 78.1c.31.06.63.1 1 .13s.64 0 1 0a10.83 10.83 0 1 0-10.25-7.41 82.23 82.23 0 0 0 64.18 133.6c1.41 0 2.81-.06 4.2-.14l1.63-.09v-68.62a14.47 14.47 0 0 1-5.38 1.01z" fill="url(#d)" transform="translate(-16.483 -17.521) scale(.43803)"/><path d="M171.95 108.54a53.78 53.78 0 0 0-9.85-19.71 11.31 11.31 0 0 0 .32-1.3 10.78 10.78 0 0 0 .24-2.17 11 11 0 1 0-8.89 10.8 42.83 42.83 0 0 1-14.17 64.08V202c1.08-.27 2.14-.56 3.2-.87a82.35 82.35 0 0 0 8.53-3v-32.22a53.91 53.91 0 0 0 20.6-57.37z" fill="url(#c)" transform="translate(-16.483 -17.521) scale(.43803)"/><path d="M184.63 172.75A82.21 82.21 0 0 0 119.79 40c-1.64 0-3.26.06-4.87.16h-.11v68.39a14.53 14.53 0 0 1 5.19-1.07h.27a14.56 14.56 0 0 1 14.6 14.52v.24h11.08a26.21 26.21 0 0 0-20.14-25.44V51.3A71.14 71.14 0 0 1 176 165.83h-.07a11 11 0 0 0-12.58 10.88 11 11 0 0 0 11 11 11 11 0 0 0 10.54-14.13c-.07-.28-.16-.58-.26-.83z" fill="url(#e)" transform="translate(-16.483 -17.521) scale(.43803)"/></g></g></svg>