<?xml version="1.0" encoding="UTF-8" standalone="no"?>
<svg
   xmlns:dc="http://purl.org/dc/elements/1.1/"
   xmlns:cc="http://creativecommons.org/ns#"
   xmlns:rdf="http://www.w3.org/1999/02/22-rdf-syntax-ns#"
   xmlns:svg="http://www.w3.org/2000/svg"
   xmlns="http://www.w3.org/2000/svg"
   id="svg2205"
   version="1.1"
   viewBox="0 0 72 72.000003"
   height="72"
   width="72">
  <defs
     id="defs2199" />
  <metadata
     id="metadata2202">
    <rdf:RDF>
      <cc:Work
         rdf:about="">
        <dc:format>image/svg+xml</dc:format>
        <dc:type
           rdf:resource="http://purl.org/dc/dcmitype/StillImage" />
        <dc:title></dc:title>
      </cc:Work>
    </rdf:RDF>
  </metadata>
  <g
     transform="translate(0,-1050.5197)"
     id="layer1">
    <g
       transform="matrix(0.45,0,0,0.45,0,1050.5197)"
       id="g2761"
       style="fill:#ffffff">
      <path
         style="fill:#ffffff"
         d="m 79.940793,0 c -30.68963,1.3349133e-6 -48.225756,12.55829 -59.668372,26.712379 8.769764,2.404772 14.892242,4.408319 16.866861,5.06158 0.02368,-1.325462 0.239344,-13.270597 0.239344,-13.270597 l 0.171237,-0.377383 0.445606,-0.136168 c 2.694379,0.392902 60.237225,8.897378 84.472461,23.018322 2.99746,1.760966 4.47371,3.608795 6.32995,5.507042 6.6957,6.920831 15.58678,35.737725 16.52438,41.692867 l -0.37556,0.616649 c -0.34568,0.127752 -1.1889,0.717944 -2.29225,1.470621 -5.65393,3.952732 -18.87402,13.202238 -35.82165,11.696868 C 91.589905,100.6336 71.700228,91.892683 47.711232,76.100725 c 1.055966,2.489974 6.043318,14.326717 6.876728,16.314923 l 0.342474,0.410446 c 3.475711,1.79411 36.802792,18.780846 53.338426,18.435286 13.34407,-0.2651 27.58878,-6.77539 33.29007,-10.1932 l 1.81356,-0.34235 c 0.50668,0.39764 0.43064,1.16625 0.27437,1.88107 -0.3504,1.63314 -1.13278,4.62885 -1.67735,6.02059 l -0.44365,1.16327 c -0.64875,1.72311 -1.28626,3.38274 -2.4985,4.37685 -3.36207,3.05803 -8.74083,5.48317 -17.14123,9.16607 -12.99367,5.67583 -34.046601,9.24671 -53.612817,9.13304 -7.003504,-0.15621 -13.788654,-0.93181 -19.740921,-1.60875 C 36.111718,129.44258 26.028028,128.30327 20,132.98026 34.660464,149.54385 56.074906,160 79.940793,160 124.13529,160 160,124.18437 160,79.999019 160,35.818429 124.14003,0 79.940793,0 Z m 21.143897,42.342581 c -6.125405,0.09184 -11.886687,2.379805 -16.388188,6.600294 -4.820512,4.463963 -7.602058,10.565305 -7.834093,17.135841 -0.44038,13.543417 10.226195,24.974506 23.778611,25.481013 6.60099,0.213025 12.84666,-2.133446 17.65301,-6.635294 4.79212,-4.478194 7.55952,-10.539768 7.80103,-17.100827 0.46402,-13.562345 -10.20256,-24.993436 -23.77864,-25.481027 -0.41108,-0.01362 -0.82336,-0.0067 -1.23173,0 z m 0.18486,7.23056 c 0.27688,0.0013 0.55607,0.0093 0.84255,0.01949 9.46586,0.331366 16.90976,8.270669 16.59252,17.752479 -0.14206,4.563401 -2.09283,8.832654 -5.44069,11.971168 -3.35733,3.114834 -7.7175,4.72506 -12.31546,4.583038 -9.461119,-0.350308 -16.871937,-8.317938 -16.559402,-17.785557 0.14678,-4.582317 2.109813,-8.813779 5.438718,-11.93809 2.921081,-2.73792 6.653098,-4.34274 10.606984,-4.583038 0.28242,-0.01722 0.55788,-0.02109 0.83478,-0.01949 z m 3.68159,8.605852 c -4.21914,0 -7.629784,2.282769 -7.629784,5.094643 0,2.792946 3.410644,5.096593 7.629784,5.096593 4.20495,0 7.59476,-2.298908 7.59476,-5.096593 2e-5,-2.811874 -3.38981,-5.094643 -7.59476,-5.094643 z"
         id="path2750" />
    </g>
  </g>
</svg>
