<svg xmlns="http://www.w3.org/2000/svg" width="72" height="72"><defs><linearGradient id="b"><stop offset="0" stop-color="red"/><stop offset="1" stop-color="#400"/></linearGradient><linearGradient id="a"><stop offset="0" stop-color="#ffd300"/><stop offset="1" stop-color="#a07100"/></linearGradient></defs><path d="M36.373 2.895l-4.15 11.142c4.303 1.456 7.196 3.13 9.496 4.602zM32.04 14.529l-4.2 11.276c.373-.335 1.313-1.175 1.4-1.26.177-.175 3.282-.016 5.58-.103 1.627-.062 2.7-.397 2.7-.397.896.595.815.658 1.597 1.597.25.3-4.19 4.689-4.19 4.689a3985.002 3985.002 0 0010.177 10.975c1.79-2.862 2.394-8.68-2.295-14.966-1.326-1.776-3.253-4.37-5.368-6.505-2.367-2.39-4.565-4.357-5.4-5.306zm-5.708 12.633l-24.53.575L21.94 43.112l1.614.09s1.496-1.796 2.494-.699c3.422 3.765 5.189 4.99 8.182 5.288 2.993.3 5.786-1.296 5.786-1.296L29.74 35.42s-3.933 3.62-4.19 3.691c-.466.129-5.687-5.287-5.588-5.786.105-.522 3.648-3.724 6.371-6.163zm24.087.136c3.277 5.282 3.731 9.826 3.221 13.24l16.406-12.701zm.591 19.835a11.1 11.1 0 00-.12.16l.23.224zm-27.376 2.044c-.032-.008-.059-.004-.08.012-.44.313-2.539 4.1-5.004 5.75l-3.976 13.305 18.708-12.848c-6.232-1.247-8.998-6.063-9.648-6.22zm28.794 2.889c-1.617 1.539-4.026 3.62-4.232 3.603-.214-.017-2.394-2.29-2.394-2.29-2.546 1.153-4.825 1.81-6.868 2.11l18.142 12.755z" fill="#fff"/></svg>