<?xml version="1.0" encoding="UTF-8"?>
<svg version="1.1" viewBox="0 0 75 75" xmlns="http://www.w3.org/2000/svg">
<g stroke="#fff">
<path d="m41.595 3.2727c16.997 2.1414 30.144 16.649 30.144 34.227s-13.146 32.086-30.144 34.227" fill="none" stroke-width="5.9185"/>
<path d="m32.884 71.727c-16.997-2.1414-30.144-16.649-30.144-34.227s13.146-32.086 30.144-34.227" fill="none" stroke-width="5.9185"/>
<path d="m39.941 21.106-17.603-0.0933v31.594h6.6744l0.0267-13.223h10.49l-0.0275-4.4387h-10.49v-8.7003h11.582l-0.6531-5.1386z" fill="#fff" stroke-width=".8602"/>
<path d="m49.345 20.829h-6.1325v25.721c0 3.8082 0.4181 6.056 6.0112 6.056h5.1993l0.7917-4.4413h-5.2116c-0.8652-0.1014-0.6206-0.8872-0.6581-1.8736v-25.462z" fill="#fff" stroke-width=".8602"/>
</g>
</svg>
