<svg xmlns="http://www.w3.org/2000/svg" width="72" height="72"><g><path fill="#FFF" d="M2.74,59.56a57.2,57.2,0,0,0,9.42,5.36c1.75.8,3.08-.94,3.08-3.51V13.33c0-2.57-1.27-4.4-3-3.57a56.2,56.2,0,0,0-9.48,5.58A7.74,7.74,0,0,0,0,20.79V54.13A7.65,7.65,0,0,0,2.74,59.56Zm7-4.86c0,.76-.39,1.37-.94,1.16-1-.37-2-.76-2.92-1.18A1.86,1.86,0,0,1,5,53V21.86a1.92,1.92,0,0,1,.8-1.72c1-.45,2-.88,3-1.28.55-.22.83.43.83,1.18Z"/><path fill="#FFF" d="M35,10.81c0-3.17-1.22-6.26-3.29-6.11A56.15,56.15,0,0,0,18.08,7.43V67.19a58.22,58.22,0,0,0,5.8,1.53V49C27.54,45.13,31.27,40.87,35,36.6Zm-6,20.73c-1.73,2.07-3.46,4.12-5.17,6.1V14.82c1.37-.21,2.76-.39,4.15-.53.54-.06,1,.55,1,1.38Z"/><path fill="#FFF" d="M56.24,67.37c-1.84-8.09-3.7-16.91-5.59-26.2,1.54-1.87,3.08-3.67,4.59-5.37V12.91c0-2.62-1.35-5.44-3.21-6a56.82,56.82,0,0,0-14-2.3V71.12a58.56,58.56,0,0,0,6.06-.56V48.32l1.41-1.84C47,54.36,48.47,62,49.92,69.39A56.61,56.61,0,0,0,56.24,67.37ZM49.18,33c-1.71,1.93-3.43,4-5.16,6V15.48q2.05.21,4.08.51c.6.09,1.08,1.06,1.08,2Z"/><path fill="#FFF" d="M66.68,40V53.74a2.22,2.22,0,0,1-1,1.83c-.91.4-1.83.79-2.76,1.15-.56.22-1-.38-1-1.15V44.67q-2.76.36-5.63.64V62.38c0,2.62,1.35,4.47,3.13,3.63a55.64,55.64,0,0,0,9.64-5.66,7.72,7.72,0,0,0,2.73-5.49V36.61a91.83,91.83,0,0,1-9.87-10V20.24c0-.77.45-1.37,1-1.15.93.36,1.85.75,2.76,1.15a2.18,2.18,0,0,1,1,1.82V25c1.76.61,3.48,1.29,5.13,2V21A8.07,8.07,0,0,0,69,15.4,56.09,56.09,0,0,0,59.5,9.83c-1.78-.84-3.19.9-3.19,3.53V29.5A108.39,108.39,0,0,0,66.68,40Z"/></g></svg>
