<svg width="72" height="72" xmlns="http://www.w3.org/2000/svg"><g fill="#fff"><g stroke-miterlimit="10"><path d="M55.371 23.82l12.877-13.366H53.745l-5.96 5.91c3.117 1.83 5.766 4.372 7.586 7.456zM24.345 16.344l-5.94-5.89H3.756L16.74 23.846c1.85-3.102 4.494-5.664 7.604-7.503zM55.796 45.297c-2.213 3.185-4.532 6.18-6.92 8.695l7.665 7.554H72zM16.362 45.229L0 61.547h15.534l7.758-7.618c-2.425-2.562-4.76-5.58-6.93-8.7z"/></g><path d="M35.994 16.845c-8.9-.006-17.141 6.3-18.336 15.337-.4 3.053-1.012 7.23 1.327 10.672 4.987 7.34 11.124 14.302 17.01 14.215 6.025.08 11.98-6.535 17.192-14.215 2.22-3.272 1.487-7.38 1.146-10.672-.945-9.079-9.436-15.344-18.34-15.337zM23.415 32.607c1.081-.057 2.29.212 3.24.864.738.507 1.635 1.463 2.41 2.517 1.478 1.797 2.81 4.266 2.135 5.08-.702.849-3.741.144-5.967-.842-.975-.316-1.865-.712-2.45-1.115-1.9-1.307-2.738-4.123-1.85-5.417.446-.648 1.401-1.03 2.482-1.087zm25.208 0c1.08.057 2.035.439 2.481 1.087.888 1.294.05 4.109-1.85 5.417-.586.403-1.476.799-2.45 1.115-2.225.986-5.266 1.692-5.968.844-.671-.816.658-3.284 2.138-5.082.774-1.054 1.671-2.01 2.408-2.517.953-.652 2.16-.92 3.241-.864z"/></g></svg>