<svg id="Layer_1" xmlns="http://www.w3.org/2000/svg" viewBox="0 0 40 40"><style>.st0{fill:#fff}</style><path class="st0" d="M15.8 36.8h2.1c9.3 0 16.8-7.5 16.8-16.8S27.2 3.2 17.9 3.2h-2.1v33.6zM20 8.4c5.8 0 10.4 5.2 10.4 11.6S25.8 31.6 20 31.6V8.4z"/><path class="st0" d="M15.3 7.6c-3.1.6-5.7 2.3-7.6 4.8-1.3 1.8-2.1 3.9-2.4 6.2-.1.5-.1 2.1 0 2.6.3 3 1.6 5.6 3.6 7.7 1.8 1.8 4.1 3 6.7 3.5.9.2 1.1.2 2.2.2 1.2 0 1.5 0 2.4-.2 4.8-.9 8.6-4.5 9.8-9.3.3-1.1.4-1.9.4-3.2 0-1 0-1.3-.2-2.2-.8-4.5-4-8.3-8.3-9.8-.5-.2-1.1-.3-1.5-.4-.2 0-.3-.1-.4-.1h-.1v4.3l.4.1c2.6.8 4.7 2.8 5.5 5.5 1.1 3.6-.2 7.4-3.3 9.5-1.4 1-3 1.5-4.8 1.5s-3.4-.5-4.8-1.5c-1.6-1.1-2.7-2.6-3.3-4.4-1.1-3.3 0-7 2.8-9.2.9-.7 1.9-1.2 2.9-1.5l.3-.1V9.7 7.6c.2-.1 0 0-.3 0z"/></svg>