<?xml version="1.0" encoding="UTF-8" standalone="no"?>
<svg
   xmlns:dc="http://purl.org/dc/elements/1.1/"
   xmlns:cc="http://creativecommons.org/ns#"
   xmlns:rdf="http://www.w3.org/1999/02/22-rdf-syntax-ns#"
   xmlns:svg="http://www.w3.org/2000/svg"
   xmlns="http://www.w3.org/2000/svg"
   id="svg3737"
   preserveAspectRatio="xMidYMid meet"
   viewBox="0 0 40 40"
   height="40pt"
   width="40pt"
   version="1.0">
  <title
     id="title814">OpenCAD</title>
  <metadata
     id="metadata3743">
    <rdf:RDF>
      <cc:Work
         rdf:about="">
        <dc:format>image/svg+xml</dc:format>
        <dc:type
           rdf:resource="http://purl.org/dc/dcmitype/StillImage" />
        <dc:title>OpenCAD</dc:title>
        <dc:source></dc:source>
      </cc:Work>
    </rdf:RDF>
  </metadata>
  <defs
     id="defs3741" />
  <path
     id="path4550"
     d="M 1.420421,25.385282 C 0.76382811,24.201555 0.65442071,23.942811 0.41610292,23.010112 0.09407633,21.749804 0.01541725,20.94177 0.01447608,18.884358 0.01354444,16.844922 0.08264476,16.079217 0.41692316,14.424906 0.81770363,12.441481 1.4523126,11.090217 2.8353908,9.275297 6.0093526,5.1103212 11.276075,1.6502625 16.234456,0.47256118 19.893907,-0.39662114 27.423353,0.06614783 31.049545,1.3831145 c 1.83391,0.6660426 5.258937,2.6186873 7.49678,4.2739941 0.763007,0.5643873 1.446621,1.1937143 1.446621,1.3317415 0,0.1078176 -0.38928,0.072261 -0.944248,-0.086249 C 38.532681,6.7552153 37.755421,6.4619377 36.263252,5.8515863 33.912912,4.8902121 30.646586,4.3486892 26.788682,4.2808007 22.717051,4.2091507 20.076013,4.5908258 16.971784,5.6995082 12.188029,7.4080374 8.4043389,10.105359 5.7534753,13.696831 4.2068232,15.792283 3.0994629,18.290642 2.6030335,20.804668 2.4050203,21.807451 2.3556609,22.220336 2.1616883,24.496485 2.0735363,25.530896 1.9967444,26.3813 1.9910396,26.386272 c -0.0057,0.005 -0.2624829,-0.445475 -0.5706186,-1.00099 z"
     style="fill:#1e7ebb;fill-opacity:1;stroke-width:0.06111401" />
  <path
     id="path4552"
     d="M 15.000258,36.331941 C 13.6449,35.839259 10.268977,33.375201 8.6245423,31.678359 6.9459743,29.946294 5.7388131,27.853367 5.275405,25.871754 4.9306567,24.397552 4.8155479,23.130706 4.8616593,21.318219 4.929493,18.651911 5.349218,16.999396 6.4143824,15.204934 8.3437237,11.954609 11.863644,9.0061401 15.769737,7.3684025 17.51088,6.6383801 18.956851,6.2693597 20.848301,6.072321 c 1.192604,-0.1242373 4.556611,-0.093429 6.546604,0.059957 0.94285,0.072674 1.760037,0.1341329 1.815971,0.1365784 0.05592,0.00238 -0.646237,0.1943883 -1.560379,0.4265382 -2.613461,0.6637018 -4.358021,1.2817019 -6.001939,2.1261556 -3.539732,1.8183048 -6.491565,4.3688708 -8.451014,7.3021968 -0.549843,0.823123 -1.417275,2.518931 -1.706928,3.337007 -0.586675,1.656953 -0.821478,3.044353 -0.826594,4.884163 -0.0054,1.910661 0.23645,3.491196 0.795795,5.202568 0.724394,2.216352 1.613125,3.804881 3.046589,5.445516 0.700851,0.802141 0.959758,1.187734 0.90021,1.340685 -0.03979,0.102202 -0.121371,0.101854 -0.406358,-0.0018 z"
     style="fill:#fd3035;fill-opacity:1;stroke-width:0.06111401" />
  <path
     id="path4554"
     d="m 30.94387,39.956377 c -4.96694,-0.28877 -10.056907,-2.392376 -13.470135,-5.567003 -1.50571,-1.400453 -2.954499,-3.477442 -3.726493,-5.342314 -1.546128,-3.734921 -1.32609,-7.509413 0.657769,-11.283256 0.421503,-0.801816 1.655329,-2.776156 1.99677,-3.195189 l 0.215978,-0.265055 -0.0397,0.303363 c -0.02182,0.166851 -0.246235,0.904025 -0.498672,1.638168 -0.756235,2.199301 -0.949599,3.149652 -1.000657,4.918059 -0.03855,1.334897 0.03483,2.199474 0.289895,3.416259 0.414482,1.977247 1.199464,3.788687 2.409303,5.559762 2.721545,3.984042 7.146167,6.896262 12.48233,8.215678 1.350759,0.333988 2.477018,0.507798 5.011896,0.773459 1.212488,0.127072 2.154332,0.250678 2.092984,0.274679 -0.175179,0.06854 -3.245282,0.469676 -4.090178,0.534423 -0.722711,0.05538 -1.584165,0.06238 -2.331094,0.01896 z"
     style="fill:#65b5d8;fill-opacity:1;stroke-width:0.06111401" />
</svg>
