<svg xmlns="http://www.w3.org/2000/svg" width="40" height="40" viewBox="0 0 40 40">
  <g fill="none" fill-rule="evenodd">
    <g fill="#FFFFFF" fill-rule="nonzero" transform="translate(2)">
      <path d="M35.113594,19.9478585 C35.113594,22.9869646 35.0986965,26.0335196 35.1284916,29.0726257 C35.1359404,29.7057728 34.8826816,30.0931099 34.3612663,30.3910615 C32.141527,31.6871508 29.9441341,33.0055866 27.7243948,34.2942272 C24.5735568,36.1266294 21.4078212,37.9366853 18.2569832,39.7616387 C17.7653631,40.0446927 17.3258845,40.0297952 16.8268156,39.7541899 C12.141527,37.0949721 7.44878957,34.4581006 2.76350093,31.8063315 C2.13035382,31.4487896 1.4972067,31.0689013 0.86405959,30.7039106 C0.275605214,30.3612663 0,29.8472998 0,29.16946 C0.0223463687,23.6722533 0.0446927374,18.1750466 0.0670391061,12.6703911 C0.0670391061,12.0595903 0.0968342644,11.4487896 0.052141527,10.8454376 C0.00744878957,10.2495345 0.275605214,9.88454376 0.752327747,9.60893855 C2.26443203,8.72253259 3.76163873,7.82122905 5.27374302,6.94227188 C9.05772812,4.73743017 12.849162,2.54748603 16.6256983,0.327746741 C17.2886406,-0.0670391061 17.839851,-0.0595903166 18.5176909,0.327746741 C23.1657356,2.97206704 27.8361266,5.5716946 32.4990689,8.19366853 C33.1024209,8.53631285 33.7057728,8.88640596 34.301676,9.24394786 C34.8454376,9.57914339 35.1359404,10.0484171 35.1284916,10.7188082 C35.113594,13.7951583 35.1210428,16.8789572 35.1210428,19.9553073 C35.1210428,19.9478585 35.113594,19.9478585 35.113594,19.9478585 Z M33.3705773,11.6350093 C33.3780261,11.0018622 33.1471136,10.6368715 32.6108007,10.3314711 C30.0260708,8.87895717 27.4636872,7.38919926 24.8789572,5.93668529 C22.7486034,4.73743017 20.6108007,3.56052142 18.4655493,2.39106145 C17.8696462,2.0707635 17.2588454,2.08566108 16.6554935,2.44320298 C13.8621974,4.08938547 11.0540037,5.73556797 8.25325885,7.37430168 C6.33891993,8.4990689 4.42458101,9.62383613 2.51024209,10.7486034 C2.08566108,10.9944134 1.74301676,11.3296089 1.74301676,11.858473 C1.74301676,13.7728119 1.75046555,15.679702 1.78026071,17.594041 C1.80260708,19.6201117 1.8547486,21.6387337 1.87709497,23.6648045 C1.89199255,25.3184358 1.88454376,26.9646182 1.88454376,28.6182495 C1.88454376,29.0502793 2.06331471,29.3854749 2.40595903,29.6312849 C2.59962756,29.7728119 2.80074488,29.8919926 3.00931099,30.0037244 C7.59776536,32.5810056 12.1936685,35.1582868 16.7895717,37.7430168 C17.2960894,38.0260708 17.7579143,38.0111732 18.2569832,37.7132216 C23.0986965,34.83054 27.9329609,31.9553073 32.7895717,29.0949721 C33.2960894,28.7970205 33.4972067,28.4469274 33.4897579,27.8733706 C33.4674115,25.1396648 33.3407821,14.3165736 33.3705773,11.6350093 Z"/>
      <path d="M31.0391061,19.6648045 C31.0391061,21.7653631 31.0316574,23.858473 31.0465549,25.9590317 C31.0540037,26.443203 30.9124767,26.8454376 30.58473,27.1731844 C30.264432,27.4860335 29.9441341,27.8063315 29.5716946,28.0372439 C26.0856611,30.2271881 22.58473,32.4022346 19.0912477,34.5772812 C18.1005587,35.1955307 17.0875233,35.1806331 16.0819367,34.6517691 C12.6256983,32.8342644 9.18435754,30.9869646 5.7132216,29.1843575 C4.92364991,28.7746741 4.48417132,28.1638734 4.26815642,27.3519553 C4.16387337,26.9571695 4.10428305,26.547486 4.10428305,26.1378026 C4.09683426,22.0782123 4.08938547,18.018622 4.11918063,13.9590317 C4.11918063,13.6014898 4.283054,13.1992551 4.4990689,12.9162011 C4.76722533,12.5586592 5.12476723,12.2383613 5.50465549,11.9925512 C8.96834264,9.80260708 12.4469274,7.64990689 15.9106145,5.45996276 C16.9981378,4.77467412 18.0633147,4.77467412 19.1806331,5.37057728 C22.5996276,7.18063315 26.018622,8.99068901 29.4599628,10.7560521 C30.4953445,11.292365 31.0018622,12.0968343 31.0167598,13.2141527 C31.0391061,15.3594041 31.0242086,17.5121043 31.0242086,19.6573557 C31.0316574,19.6648045 31.0316574,19.6648045 31.0391061,19.6648045 Z M5.6461825,22.9348231 C5.65363128,22.9348231 5.66852886,22.9348231 5.67597765,22.9348231 C5.67597765,23.8510242 5.7132216,24.7746741 5.66852886,25.6908752 C5.60893855,26.9050279 6.13035382,27.7243948 7.17318436,28.283054 C8.27560521,28.8715084 9.36312849,29.5046555 10.4729981,30.0856611 C12.3873371,31.0837989 14.2942272,32.0819367 16.2383613,33.0204842 C17.2886406,33.5270019 18.3165736,33.4674115 19.3594041,32.7672253 C22.3240223,30.7783985 25.3258845,28.8417132 28.3500931,26.9348231 C29.3184358,26.3240223 29.735568,25.5270019 29.698324,24.4394786 C29.6536313,22.8528864 29.6014898,21.2662942 29.556797,19.679702 C29.5046555,17.9292365 29.4748603,16.1787709 29.4003724,14.4357542 C29.3482309,13.2588454 28.9310987,12.3054004 27.7690875,11.7243948 C24.8268156,10.2569832 21.9292365,8.7150838 18.9869646,7.25512104 C17.9590317,6.74115456 16.8789572,6.74860335 15.8808194,7.46368715 C15.5456238,7.70204842 15.2029795,7.9255121 14.8528864,8.141527 C12.2160149,9.75046555 9.57914339,11.3519553 6.94227188,12.9608939 C5.99627561,13.5418994 5.36312849,14.2867784 5.47486034,15.5083799 C5.54189944,16.283054 5.51210428,17.0726257 5.52700186,17.8547486 C5.56424581,19.538175 5.60893855,21.2364991 5.6461825,22.9348231 Z"/>
      <path d="M7.67225326,20.5139665 C7.67225326,19.2625698 7.68715084,18.0037244 7.66480447,16.7523277 C7.64990689,15.7616387 7.96275605,14.9348231 8.77467412,14.3612663 C10.0260708,13.4748603 11.2998138,12.603352 12.5735568,11.7467412 C13.594041,11.0614525 14.6517691,10.4357542 15.6722533,9.75046555 C16.4543762,9.22905028 17.2588454,9.06517691 18.1750466,9.30353818 C20.0446927,9.77281192 21.7653631,10.5996276 23.4636872,11.4636872 C24.3798883,11.9329609 25.2216015,12.5288641 26.1154562,13.0353818 C26.867784,13.4599628 27.150838,14.1303538 27.2178771,14.9348231 C27.3743017,16.8715084 27.538175,18.8156425 27.6722533,20.7523277 C27.7243948,21.4823091 27.7020484,22.2197393 27.7318436,22.9497207 C27.7765363,24.1117318 27.292365,25.0651769 26.4357542,25.7504655 C24.3724395,27.4189944 22.2420857,29.0055866 19.9553073,30.3612663 C19.7243948,30.5027933 19.4711359,30.6145251 19.2253259,30.7337058 C18.6592179,31.009311 18.0782123,31.0391061 17.4823091,30.8528864 C14.4878957,29.9366853 11.6648045,28.6629423 9.04283054,26.9422719 C8.10428305,26.3314711 7.67225326,25.4748603 7.67225326,24.3724395 C7.67225326,23.0912477 7.67225326,21.8026071 7.67225326,20.5139665 Z M25.8994413,16.603352 C25.8249534,15.4860335 25.41527,14.5400372 24.4543762,13.8845438 C22.8379888,12.7746741 21.0949721,11.9329609 19.2402235,11.2998138 C17.735568,10.7858473 16.4022346,11.0316574 15.113594,11.9925512 C13.6461825,13.0875233 12.1042831,14.0931099 10.58473,15.1210428 C10.0707635,15.4711359 9.72811918,15.9255121 9.61638734,16.5139665 C9.47486034,17.2290503 9.36312849,17.9515829 9.29608939,18.6815642 C9.13221601,20.3873371 9.09497207,22.0931099 9.33333333,23.8063315 C9.45251397,24.6703911 9.7877095,25.3556797 10.5772812,25.7951583 C11.7243948,26.4357542 12.8193669,27.1657356 13.9962756,27.7467412 C14.867784,28.1713222 15.8137803,28.4469274 16.7523277,28.7299814 C18.1303538,29.1396648 19.396648,28.849162 20.5363128,27.9776536 C20.8417132,27.7467412 21.1769088,27.5605214 21.4897579,27.3296089 C22.5921788,26.5251397 23.6871508,25.7132216 24.7821229,24.8938547 C25.5865922,24.2905028 25.9962756,23.4711359 25.9888268,22.4581006 C25.9739292,21.6089385 25.981378,17.7206704 25.8994413,16.603352 Z"/>
      <path d="M17.8249534,26.2867784 C14.5996276,26.2793296 11.9478585,23.9851024 11.5530726,20.9310987 C11.3072626,19.0167598 12.0297952,17.41527 13.2886406,16.0446927 C14.6368715,14.5772812 16.2756052,13.7430168 18.3389199,13.9217877 C20.8938547,14.1378026 23.2625698,16.1936685 23.7765363,18.7113594 C24.5288641,22.3463687 22.2271881,25.6685289 18.547486,26.2420857 C18.2718808,26.2942272 17.981378,26.2793296 17.8249534,26.2867784 Z M17.6685289,24.8193669 C20.3054004,24.8342644 22.443203,22.726257 22.4581006,20.0968343 C22.4729981,17.5046555 20.3351955,15.3296089 17.7579143,15.3072626 C15.0837989,15.2849162 12.9236499,17.3929236 12.9162011,20.0223464 C12.9087523,22.689013 15.0018622,24.8119181 17.6685289,24.8193669 Z"/>
    </g>
    <rect width="40" height="40"/>
  </g>
</svg>
