<svg xmlns="http://www.w3.org/2000/svg" width="40" height="40"><g fill="none" fill-rule="evenodd"><g fill="#FFF" fill-rule="nonzero"><path d="M37.114 19.948c0 3.039-.015 6.086.014 9.125.008.633-.245 1.02-.767 1.318-2.22 1.296-4.417 2.615-6.637 3.903-3.15 1.833-6.316 3.643-9.467 5.468-.492.283-.931.268-1.43-.008-4.685-2.659-9.378-5.296-14.063-7.948-.634-.357-1.267-.737-1.9-1.102C2.276 30.36 2 29.847 2 29.169l.067-16.499c0-.61.03-1.221-.015-1.825-.045-.595.224-.96.7-1.236 1.512-.886 3.01-1.788 4.522-2.667 3.784-2.205 7.575-4.395 11.352-6.614.663-.395 1.214-.388 1.892 0 4.648 2.644 9.318 5.244 13.981 7.866.603.342 1.207.692 1.803 1.05.543.335.834.804.826 1.475-.014 3.076-.007 6.16-.007 9.236 0-.007-.007-.007-.007-.007zm-1.743-8.313c.007-.633-.224-.998-.76-1.304-2.585-1.452-5.147-2.942-7.732-4.394-2.13-1.2-4.268-2.376-6.413-3.546-.596-.32-1.207-.305-1.81.052a3103.46 3103.46 0 0 1-8.403 4.931L4.51 10.75c-.424.245-.767.58-.767 1.11 0 1.914.007 3.82.037 5.735.023 2.026.075 4.045.097 6.07.015 1.654.008 3.3.008 4.954 0 .432.178.767.521 1.013.194.142.395.261.603.373 4.589 2.577 9.185 5.154 13.78 7.739.507.283.969.268 1.468-.03a3580.93 3580.93 0 0 1 14.533-8.618c.506-.298.707-.648.7-1.222-.023-2.733-.15-13.556-.12-16.238z"/><path d="M33.04 19.665c0 2.1-.008 4.193.007 6.294.007.484-.135.886-.462 1.214-.32.313-.64.633-1.013.864-3.486 2.19-6.987 4.365-10.48 6.54-.991.619-2.004.604-3.01.075-3.456-1.818-6.898-3.665-10.369-5.468-.79-.41-1.229-1.02-1.445-1.832a4.77 4.77 0 0 1-.164-1.214c-.007-4.06-.015-8.12.015-12.179 0-.358.164-.76.38-1.043a3.966 3.966 0 0 1 1.006-.923c3.463-2.19 6.942-4.343 10.406-6.533 1.087-.685 2.152-.685 3.27-.09 3.419 1.81 6.838 3.62 10.279 5.386 1.035.536 1.542 1.34 1.557 2.458.022 2.145.007 4.298.007 6.443.008.008.008.008.015.008zm-25.394 3.27h.03c0 .916.037 1.84-.007 2.756-.06 1.214.461 2.033 1.504 2.592 1.103.589 2.19 1.222 3.3 1.803 1.914.998 3.821 1.996 5.765 2.934 1.05.507 2.079.447 3.121-.253a378.42 378.42 0 0 1 8.991-5.832c.968-.611 1.386-1.408 1.348-2.496-.044-1.586-.097-3.173-.141-4.76-.052-1.75-.082-3.5-.157-5.243-.052-1.177-.469-2.13-1.63-2.712-2.943-1.467-5.84-3.009-8.783-4.469-1.028-.514-2.108-.506-3.106.209-.335.238-.678.462-1.028.678-2.637 1.608-5.274 3.21-7.91 4.819-.947.58-1.58 1.326-1.468 2.547.067.775.037 1.565.052 2.347.037 1.683.082 3.381.12 5.08z"/><path d="M9.672 20.514c0-1.251.015-2.51-.007-3.762-.015-.99.298-1.817 1.11-2.39a190.507 190.507 0 0 1 3.799-2.615c1.02-.686 2.078-1.311 3.098-1.997.782-.52 1.587-.685 2.503-.446 1.87.469 3.59 1.296 5.289 2.16.916.469 1.758 1.065 2.651 1.571.753.425 1.036 1.095 1.103 1.9.156 1.937.32 3.88.454 5.817.052.73.03 1.468.06 2.198.045 1.162-.44 2.115-1.296 2.8-2.064 1.669-4.194 3.256-6.48 4.611-.232.142-.485.254-.73.373a2.292 2.292 0 0 1-1.744.119c-2.994-.916-5.817-2.19-8.44-3.91-.938-.612-1.37-1.468-1.37-2.57v-3.859zm18.227-3.91c-.074-1.118-.484-2.064-1.445-2.72-1.616-1.11-3.359-1.951-5.214-2.584-1.504-.514-2.838-.268-4.126.693-1.468 1.095-3.01 2.1-4.53 3.128-.513.35-.856.805-.968 1.393a21.109 21.109 0 0 0-.32 2.168c-.164 1.705-.201 3.411.037 5.124.12.864.455 1.55 1.244 1.99 1.147.64 2.242 1.37 3.42 1.95.87.425 1.817.7 2.755.984 1.378.41 2.645.12 3.784-.752.306-.231.64-.417.954-.648a340.772 340.772 0 0 0 3.292-2.436c.805-.603 1.214-1.423 1.207-2.436-.015-.85-.008-4.737-.09-5.855z"/><path d="M19.825 26.287c-3.225-.008-5.877-2.302-6.272-5.356-.246-1.914.477-3.516 1.736-4.886 1.348-1.468 2.987-2.302 5.05-2.123 2.555.216 4.924 2.272 5.438 4.79.752 3.634-1.55 6.957-5.23 7.53-.275.052-.566.037-.722.045zm-.156-1.468a4.748 4.748 0 0 0 4.79-4.722c.014-2.592-2.124-4.767-4.701-4.79-2.674-.022-4.834 2.086-4.842 4.715-.007 2.667 2.086 4.79 4.753 4.797z"/></g><path d="M0 0h40v40H0z"/></g></svg>