<?xml version="1.0" encoding="UTF-8" standalone="no"?>
<!-- Created with Inkscape (http://www.inkscape.org/) -->

<svg
   version="1.1"
   id="svg270"
   xml:space="preserve"
   width="72"
   height="72"
   viewBox="0 0 72.000002 72.000002"
   xmlns="http://www.w3.org/2000/svg"
   xmlns:svg="http://www.w3.org/2000/svg"><defs
     id="defs274"><clipPath
       clipPathUnits="userSpaceOnUse"
       id="clipPath284"><path
         d="M 0,131.614 H 131.12 V 0 H 0 Z"
         id="path282" /></clipPath></defs><g
     id="g276"
     transform="matrix(1.3333333,0,0,-1.3333333,0,175.48533)"><g
       id="g278"
       transform="matrix(0.40588465,0,0,0.40588279,0.37329773,77.904019)"><g
         id="g280"
         clip-path="url(#clipPath284)"><g
           id="g286"
           transform="translate(79.9894,114.814)"><path
             d="m 0,0 c 0.536,3.311 0.21,6.733 -1.001,9.925 0,10e-4 -0.001,0.003 -0.001,0.004 -0.249,0.655 -0.92,1.05 -1.614,0.949 v 0 c -5.096,-0.739 -9.676,-3.512 -12.693,-7.686 -0.343,-0.475 -0.661,-0.965 -0.957,-1.466 0.61,0.018 1.222,0.03 1.836,0.03 C -9.457,1.756 -4.625,1.145 0,0"
             style="fill:#ffffff;fill-opacity:1;fill-rule:nonzero;stroke:none"
             id="path288" /></g><g
           id="g290"
           transform="translate(61.36,120.4078)"><path
             d="M 0,0 C 1.127,1.56 2.445,2.961 3.908,4.182 1.042,7.567 -2.92,9.883 -7.326,10.693 h -0.003 c -0.69,0.127 -1.375,-0.242 -1.649,-0.887 -2.006,-4.744 -2.007,-10.096 0,-14.839 0.035,-0.082 0.075,-0.161 0.111,-0.243 2.116,0.471 4.273,0.832 6.467,1.073 0.648,1.474 1.447,2.886 2.4,4.203"
             style="fill:#ffffff;fill-opacity:1;fill-rule:nonzero;stroke:none"
             id="path292" /></g><g
           id="g294"
           transform="translate(47.3395,96.0425)"><path
             d="m 0,0 c 2.378,1.905 5.017,3.419 7.863,4.499 3.296,1.251 6.77,1.886 10.325,1.886 3.562,0 7.044,-0.637 10.347,-1.894 2.846,-1.083 5.486,-2.599 7.874,-4.516 2.097,1.688 4.406,3.077 6.902,4.133 2.342,0.992 4.78,1.659 7.282,2.007 C 41.451,12.609 30.278,16.43 18.22,16.43 6.163,16.43 -5.01,12.609 -14.152,6.115 -11.65,5.767 -9.212,5.1 -6.87,4.108 -4.387,3.058 -2.089,1.677 0,0"
             style="fill:#ffffff;fill-opacity:1;fill-rule:nonzero;stroke:none"
             id="path296" /></g><g
           id="g298"
           transform="translate(113.3361,46.4332)"><path
             d="m 0,0 c -1.306,-0.553 -2.641,-1.003 -4,-1.356 -3.583,-12.736 -12.229,-23.263 -23.527,-29.081 -6.104,-3.144 -12.98,-4.917 -20.249,-4.917 -7.286,0 -14.175,1.781 -20.289,4.937 -11.278,5.823 -19.909,16.34 -23.487,29.061 -1.359,0.353 -2.695,0.803 -4,1.356 -2.935,1.242 -5.615,2.943 -7.992,5.057 2.528,-28.569 26.547,-51.002 55.768,-51.002 29.221,0 53.239,22.433 55.768,51.002 C 5.614,2.943 2.936,1.242 0,0"
             style="fill:#ffffff;fill-opacity:1;fill-rule:nonzero;stroke:none"
             id="path300" /></g><g
           id="g302"
           transform="translate(81.9504,18.6871)"><path
             d="m 0,0 c -3.844,1.698 -9.771,2.788 -16.419,2.788 -6.632,0 -12.545,-1.085 -16.39,-2.774 5.038,-2.263 10.589,-3.523 16.418,-3.523 5.82,0 11.36,1.255 16.391,3.509"
             style="fill:#ffffff;fill-opacity:1;fill-rule:nonzero;stroke:none"
             id="path304" /></g><g
           id="g306"
           transform="translate(36.1989,63.5074)"><path
             d="m 0,0 c -3.808,0.398 -7.704,0.392 -11.567,-0.028 l -0.006,-0.001 c -0.845,-0.092 -1.604,0.519 -1.696,1.364 -0.085,0.784 0.434,1.494 1.184,1.666 2.066,0.478 4.163,0.842 6.281,1.093 0.189,1.677 0.489,3.721 0.971,5.973 1.579,7.364 5.588,9.651 9.537,8.804 H 4.705 C 4.853,18.84 4.995,18.796 5.139,18.756 4.946,18.197 4.764,17.669 4.601,17.195 4.383,16.562 4.425,15.866 4.719,15.264 5.013,14.661 5.535,14.2 6.168,13.981 6.803,13.764 7.498,13.806 8.1,14.1 c 0.527,0.256 0.935,0.694 1.178,1.221 0.915,-1.914 1.161,-4.589 0.41,-8.096 C 9.435,6.044 9.161,4.93 8.885,3.9 c 1.289,-0.202 2.576,-0.453 3.86,-0.764 0.138,-0.033 0.269,-0.078 0.397,-0.129 0.716,2.13 1.11,4.407 1.11,6.777 0,11.77 -9.555,21.325 -21.324,21.325 -11.769,0 -21.324,-9.555 -21.324,-21.325 0,-3.611 0.9,-7.014 2.491,-9.996 3.582,-6.737 10.676,-11.328 18.833,-11.328 7.266,0 13.681,3.647 17.529,9.205 C 8.894,-1.776 7.282,-1.295 5.63,-0.926 3.788,-0.51 1.905,-0.195 0,0"
             style="fill:#ffffff;fill-opacity:1;fill-rule:nonzero;stroke:none"
             id="path308" /></g><g
           id="g310"
           transform="translate(102.0764,94.6168)"><path
             d="m 0,0 c -11.77,0 -21.324,-9.556 -21.324,-21.325 0,-2.374 0.395,-4.654 1.114,-6.788 0.028,0.011 0.055,0.025 0.085,0.037 0.106,0.039 0.229,0.076 0.337,0.102 1.243,0.301 2.488,0.547 3.735,0.746 -0.277,1.035 -0.552,2.156 -0.807,3.343 -1.522,7.099 1.034,10.8 4.983,11.647 h 0.001 c 0.579,0.125 1.16,0.178 1.734,0.162 -0.228,-0.663 -0.443,-1.286 -0.633,-1.838 -0.218,-0.634 -0.176,-1.329 0.118,-1.932 0.294,-0.602 0.816,-1.063 1.449,-1.282 0.635,-0.218 1.329,-0.176 1.932,0.118 0.603,0.294 1.064,0.816 1.282,1.449 0.143,0.415 0.301,0.873 0.467,1.355 1.38,-1.443 2.508,-3.669 3.187,-6.836 0.482,-2.246 0.781,-4.285 0.97,-5.959 2.162,-0.252 4.303,-0.62 6.413,-1.107 0.828,-0.192 1.344,-1.018 1.153,-1.846 -0.177,-0.769 -0.901,-1.269 -1.666,-1.185 l -0.006,10e-4 c -3.863,0.42 -7.758,0.427 -11.567,0.029 -1.905,-0.196 -3.787,-0.51 -5.63,-0.926 -1.66,-0.371 -3.28,-0.856 -4.85,-1.418 3.848,-5.553 10.26,-9.196 17.523,-9.196 8.157,0 15.25,4.59 18.833,11.328 1.591,2.981 2.491,6.384 2.491,9.996 C 21.324,-9.556 11.769,0 0,0"
             style="fill:#ffffff;fill-opacity:1;fill-rule:nonzero;stroke:none"
             id="path312" /></g><g
           id="g314"
           transform="translate(65.5598,42.4703)"><path
             d="M 0,0 C 8.165,0 15.87,1.896 22.447,5.245 21.894,5.547 21.355,5.872 20.825,6.209 20.729,6.27 20.634,6.33 20.54,6.392 c -0.535,0.347 -1.06,0.709 -1.571,1.091 -0.002,0.002 -0.004,0.004 -0.006,0.005 -0.49,0.368 -0.964,0.757 -1.432,1.157 -0.114,0.096 -0.227,0.195 -0.34,0.293 -0.466,0.412 -0.925,0.833 -1.367,1.275 -2.678,2.678 -4.781,5.795 -6.25,9.266 -1.521,3.594 -2.292,7.411 -2.292,11.342 0,3.933 0.771,7.749 2.292,11.344 0.91,2.149 2.064,4.162 3.446,6.021 -1.593,1.133 -3.32,2.052 -5.156,2.739 -2.522,0.943 -5.179,1.422 -7.896,1.422 -2.709,0 -5.358,-0.476 -7.873,-1.413 -1.826,-0.681 -3.545,-1.591 -5.137,-2.718 1.393,-1.866 2.553,-3.89 3.468,-6.051 1.521,-3.595 2.293,-7.411 2.293,-11.344 0,-3.931 -0.772,-7.748 -2.293,-11.342 -1.469,-3.471 -3.572,-6.588 -6.249,-9.266 -0.442,-0.442 -0.901,-0.862 -1.366,-1.273 -0.114,-0.1 -0.228,-0.199 -0.343,-0.296 -0.468,-0.401 -0.943,-0.79 -1.432,-1.157 -0.002,-0.001 -0.003,-0.003 -0.004,-0.004 -0.511,-0.382 -1.036,-0.743 -1.57,-1.09 -0.095,-0.063 -0.191,-0.124 -0.288,-0.185 -0.529,-0.336 -1.067,-0.66 -1.617,-0.962 -10e-4,0 -0.002,-0.001 -0.003,-0.001 C -15.87,1.896 -8.164,0 0,0"
             style="fill:#ffffff;fill-opacity:1;fill-rule:nonzero;stroke:none"
             id="path316" /></g><g
           id="g318"
           transform="translate(65.5598,38.3726)"><path
             d="M 0,0 C -10.025,0 -19.429,2.662 -27.164,7.284 -28.795,6.735 -30.465,6.329 -32.167,6.079 -24.718,-1.844 -13.08,-6.95 0,-6.95 c 13.08,0 24.719,5.106 32.167,13.029 -1.702,0.25 -3.371,0.656 -5.003,1.205 C 19.429,2.662 10.026,0 0,0"
             style="fill:#ffffff;fill-opacity:1;fill-rule:nonzero;stroke:none"
             id="path320" /></g></g></g></g></svg>
