<svg xmlns="http://www.w3.org/2000/svg" width="72" height="72" viewBox="0 0 72 72"><defs><style>.a{fill:#ffa51d;}</style></defs><path class="a" d="M67,30.26V27.84a6.22,6.22,0,0,0-6-6.12H44a6.22,6.22,0,0,0-6.08,6.12v5.68A6.18,6.18,0,0,0,44,39.6H60.86v4.81H33.64V27.84A5.82,5.82,0,0,0,32,23.56a5.55,5.55,0,0,0-4.07-1.84H11a5.44,5.44,0,0,0-4.05,1.82,5.81,5.81,0,0,0-1.58,4.3v17a5.68,5.68,0,0,0,1.58,4.24A5.39,5.39,0,0,0,11,50.81H61a6.11,6.11,0,0,0,6-6V39.12a5.77,5.77,0,0,0-1.8-4.18A5.83,5.83,0,0,0,61,33.2H44.05V28.13H60.86v2.13ZM28.3,33.73h0a.74.74,0,0,1,0,.14s0,.12-.05.12h0s0-.11,0-.11v-.06s0,0,0,0a.17.17,0,0,0,0,.07.37.37,0,0,1-.05.23.37.37,0,0,0-.05.11.32.32,0,0,1-.08.14.17.17,0,0,0-.06.12.27.27,0,0,1,0,.11.7.7,0,0,0-.11.21.89.89,0,0,1-.14.33.36.36,0,0,0-.07.1,3.08,3.08,0,0,1-.5.63L27,36a.78.78,0,0,1-.22.15h0a1.94,1.94,0,0,0-.29.21v0a3.31,3.31,0,0,0-.27.26l-.08.09-.05.05-.12.13,0,.07-.08.12s0,0,0,0a.16.16,0,0,1-.16.08h0c0,.1,0,.12-.15.14s0,0,0,0a.43.43,0,0,1-.06.2h0l-.05.11s0,.07,0,.11h0a.24.24,0,0,1-.06.08.2.2,0,0,0-.06.13,1.22,1.22,0,0,1-.07.17l0,0v.08s0,0,0,.05a.11.11,0,0,1,.07.08s0,0,0,0a.06.06,0,0,1,.06.05.1.1,0,0,1,0,.09c0,.05-.05.07,0,.11a.12.12,0,0,1,0,.13.14.14,0,0,0,0,.14.39.39,0,0,1,.06.18.43.43,0,0,0,0,.11s0,.06.06.07.14.09.12.22h0s0,0,0,.07h0s0,0,0,0,0,0,0,0h0v.06a1,1,0,0,0,0,.17.49.49,0,0,1,0,.17s0,.07,0,.08a.24.24,0,0,1,0,.08.19.19,0,0,1,0,.08v0a.2.2,0,0,0,0,.11.25.25,0,0,1,0,.15.14.14,0,0,1,0,.06s0,0,0,0a.59.59,0,0,1-.19.29l0,0a.82.82,0,0,1-.22.19.64.64,0,0,1-.26.1h0l-.09.05-.05,0a1.12,1.12,0,0,0-.28.25l0,0v0s-.07.08-.14.08-.05,0-.08.06v0a.37.37,0,0,1-.15.13c-.05,0-.05,0-.06.08h0c0,.05,0,.06,0,.08a.14.14,0,0,1,0,.15s0,0,0,.09a0,0,0,0,1,.05,0s0,0,0,.07h0v0a.08.08,0,0,1-.06.09h0a.08.08,0,0,1,0,.11v0s0,0,0,.07,0,.06,0,.06A.29.29,0,0,0,24,43a.14.14,0,0,1,0,.11l0,0a.31.31,0,0,1-.18.13h0a1.71,1.71,0,0,0-.38.13s-.05,0-.06,0v0a.22.22,0,0,1,0,.14s0,0,0,.06a.61.61,0,0,1-.06.24,1.42,1.42,0,0,0-.05.16.33.33,0,0,1-.17.22l-.1.07,0,0a.53.53,0,0,0-.11.15l-.06.09,0,0a.92.92,0,0,1-.31.34.32.32,0,0,0-.09.08.86.86,0,0,1-.2.18h0l-.08.06-.21.14,0,0a.28.28,0,0,1-.27,0h0s0,0,0,0a0,0,0,0,1,0,0l0,0h-.07c-.06,0-.07,0-.09,0s0,0,0,0a.1.1,0,0,1-.09,0,.24.24,0,0,0-.12,0l-.07,0h0a.08.08,0,0,1-.06,0h-.16a.1.1,0,0,0-.08,0,.18.18,0,0,1-.17.07h-.05a.43.43,0,0,0-.17,0,.22.22,0,0,1-.13.06.34.34,0,0,1-.14-.05s0,0,0,0l0,0h0s-.06,0-.07,0h0l0,0h0l0,0s0,0,0,0v.1h0s0-.16,0-.17a.41.41,0,0,1,0-.11.1.1,0,0,0,0-.09.18.18,0,0,1,0-.11v0a.11.11,0,0,1,0-.07h.07a.06.06,0,0,0,0,0,.35.35,0,0,0-.08-.24,1,1,0,0,1-.19-.33v0a1.33,1.33,0,0,0-.15-.32h0a1,1,0,0,1-.29-.34v0a.41.41,0,0,1-.07-.22h0a.81.81,0,0,1-.08-.34.33.33,0,0,0,0-.14v0a.28.28,0,0,1,0-.21.33.33,0,0,0,0-.1v0h0a.06.06,0,0,1,0-.06c0-.09,0-.16-.07-.23h0a2,2,0,0,1-.12-.19l0,0-.13-.26a3.24,3.24,0,0,0-.17-.32h0l0,0a.54.54,0,0,1-.17-.31.25.25,0,0,1,0-.08.26.26,0,0,0,0-.15h0a.06.06,0,0,1,0-.09.43.43,0,0,1,0-.05v0a.08.08,0,0,1,0-.11.06.06,0,0,0,0,0h0a.84.84,0,0,1,.05-.17.78.78,0,0,0,0-.21.22.22,0,0,1,0-.08.19.19,0,0,0,0-.07s0,0,0,0h0l0,0s0,0,0-.07,0,0,.07-.09a.22.22,0,0,0,.13-.24.17.17,0,0,1,0-.07v0c0-.07-.2-.13-.24-.19s.22-.17-.31-.27h0S18,39,18,39s.15-.1.19-.12.19,0,.18,0,0-.22,0-.33v0s-.16-.05-.18-.07-.11-.06-.12-.1-.05,0-.05-.06a.21.21,0,0,0-.06-.1,0,0,0,0,1,0-.07h0A.1.1,0,0,0,18,38a.56.56,0,0,0-.05-.08.41.41,0,0,0-.05-.09l-.16-.17-.12-.14-.09-.08-.12-.1v0a.7.7,0,0,1-.15-.23,1.06,1.06,0,0,0-.11-.21.12.12,0,0,1,0-.1v0h0a.11.11,0,0,0,.08,0s0,0,0-.12-.07,0-.08,0l-.07,0v0h.08s0,0,0-.08.06,0,.08,0,0,0,0,0,0,0,0,0,0-.06,0-.08h0l.05-.07,0-.05a.11.11,0,0,0,0-.06,1.29,1.29,0,0,1,0-.25.08.08,0,0,0,0-.09.12.12,0,0,1,0-.11.25.25,0,0,1-.13,0,.14.14,0,0,1-.05-.08s0,0,0,0h-.07l0,0a.15.15,0,0,1-.09,0h-.1l-.09,0h-.13l-.2,0a.28.28,0,0,1-.19-.18.72.72,0,0,0-.18-.32.21.21,0,0,0-.17-.07,4.26,4.26,0,0,0-.51,0h-.12l-.09,0s0,0,0,0a.08.08,0,0,1-.1.07.46.46,0,0,0-.3.09h0a.92.92,0,0,1-.27.08l-.05,0-.08,0h0a.1.1,0,0,1-.1,0,.34.34,0,0,0-.14,0H14l-.07,0a.69.69,0,0,0-.25,0h-.13l-.26,0a.3.3,0,0,0-.11,0l-.09,0a.76.76,0,0,0-.16.06l-.05,0a.14.14,0,0,1-.11,0l-.14-.07a1.34,1.34,0,0,1-.24-.12l-.13-.13-.1-.1,0,0s-.05-.06-.09-.06-.09,0-.09-.09a.38.38,0,0,1-.17-.14.54.54,0,0,0-.15-.09h-.05l0,0-.09,0s-.05,0-.05-.06v0h.05s0,0,0,0v0h-.05l-.06,0,0,0s0-.05,0-.05a.07.07,0,0,1,0-.06l0,0a.17.17,0,0,1,0-.07.15.15,0,0,0,0-.07v0c0-.06,0-.07-.08-.06h0s0,.09,0,.09v.18h0s0-.17,0-.16,0-.11,0-.1h0s0-.06,0-.06,0-.08-.06-.09-.07-.07-.09-.09a.1.1,0,0,0,0-.05,0,0,0,0,1,0,0,.19.19,0,0,0,0-.08h0l0,0,0,0s0,0,0,0a.18.18,0,0,1,0-.07l0,0,0,0,0,0h0a.08.08,0,0,1-.08,0,1.11,1.11,0,0,1,0-.19.76.76,0,0,0,0-.15h0s0,.07-.05.08.06,0,.05,0l0,0h0s0,0,0,0h0s0,0,0,0h0s-.15,0-.15-.07h.11a.19.19,0,0,1-.11-.2,1,1,0,0,0,0-.17h0l.08,0h0l0,0h0s0,0,0,0h0v0s0-.07,0-.11l0-.07s0,0,0,0h0a.05.05,0,0,1,0,0s0-.05,0-.05h0a.42.42,0,0,0,.25-.34.1.1,0,0,1,0-.07.08.08,0,0,1,0,0,0,0,0,0,1,0,0,.08.08,0,0,1,0,0s0,0,0,0l0,0s.09-.08.09-.11h0s0,0,0,0a.18.18,0,0,1,0-.1s0-.09,0-.13a.43.43,0,0,1,0-.11.05.05,0,0,1,0,0s0,0,0,0a.08.08,0,0,1,0-.12v0a.28.28,0,0,1,.05-.11s0,0,0,0V30.9h0l0,0s0-.05-.05-.08h0s0,0,0,0a.05.05,0,0,1,0,0,.09.09,0,0,1,0-.07h0s0-.05,0-.07a1.22,1.22,0,0,1,.1-.24v0s0-.09.1-.09h0v0h0l0-.05h0s0,0,0,0a.79.79,0,0,1,0-.09.19.19,0,0,0,.05-.1.16.16,0,0,1,0-.06l0,0,.1-.07a.47.47,0,0,1,.12-.09.11.11,0,0,0,.06-.09.3.3,0,0,1,.08-.19l0-.06s0,0,0,0h0c0-.08.08-.1.13-.12h0l.09,0h0a.83.83,0,0,1,.15-.25l0,0c0-.08.1-.07.14-.07h0a.53.53,0,0,0,.33-.14.2.2,0,0,1,.09-.05h0A.58.58,0,0,0,13,28.4l.06-.07s0,0,0-.06a.15.15,0,0,1,0-.13h0a.07.07,0,0,0,0-.05.28.28,0,0,1,.09-.17l.09-.1,0-.07v0a.22.22,0,0,1,.09-.1l0,0a.48.48,0,0,1,.26-.14l.09,0a.05.05,0,0,1,0,0,.19.19,0,0,1,.08,0,.1.1,0,0,1,.05,0h0A.21.21,0,0,1,14,27.2l.08-.13.1-.17s0,0,.05,0h.12a.08.08,0,0,1,0,.08s0,0,0,0l.06.08,0,0a.29.29,0,0,0,.13,0h.08l.07,0h0l0,0a.05.05,0,0,1,0,0s0,0,0,0,0,.06.07.06h.14l0,0h0s0,0,0,0h0s0,0,0,0,0,0,0,0h0s.06,0,.07,0,0,0,0,0h0a.85.85,0,0,0,.17,0l.21-.08h0s-.11,0-.09,0-.06,0-.05,0h0s0,0,0,0,0,0,0,0h0l.05,0h0a.06.06,0,0,1,.05,0h0a.1.1,0,0,1,.07,0H16a1,1,0,0,1,.17,0h0a.08.08,0,0,1,.11,0,.14.14,0,0,0,.09,0h0a.84.84,0,0,1,.28,0h0l0,0a0,0,0,0,1,0,0h0a0,0,0,0,1,.05,0,.16.16,0,0,0,.07,0h0s0,0,0,0h0l0,0h0a.08.08,0,0,1,.1,0h.06s0,0,0,0,.06,0,.07,0h0l.05,0,0,0h.1a.28.28,0,0,0,.15,0,.25.25,0,0,1,.26,0s0,.05,0,.06h0s0,0,0,0a.59.59,0,0,0,0,.13s0,.09.05.09h0s0-.15,0-.17,0-.07.05-.05l0,0s.05,0,.06,0a.1.1,0,0,1,0,.1l0,0a.23.23,0,0,1-.09.07v0s0,0,0,0a.15.15,0,0,1,.09.13.18.18,0,0,1,0,.16.37.37,0,0,1-.19.16,0,0,0,0,0,0,.05s0,.06.06.06h0v0a.08.08,0,0,1,.07-.07h0s.05,0,.06.09,0,0,0,.06,0,.05,0,.07,0,0,.06,0h0a.31.31,0,0,1,.12,0,.16.16,0,0,0,.16,0,.18.18,0,0,1,.16,0h.07a.43.43,0,0,1,.12,0,.2.2,0,0,0,.08,0h.07c.09,0,.1.07.11.11s.08.21.23.21a.75.75,0,0,1,.34.1.54.54,0,0,1,.15.09h0c.1.08.17.06.27-.07s.05-.07,0-.12a.23.23,0,0,1,.07-.3.79.79,0,0,1,.26-.13.57.57,0,0,1,.26,0,.12.12,0,0,1,.09,0l.09,0a.07.07,0,0,1,0,.06h0s0,.05.06.05a.19.19,0,0,1,.13,0h.08c.12,0,.15,0,.2.1s0,0,0,0a.22.22,0,0,1,.18,0h.08a.38.38,0,0,1,.19,0l.07,0,.09,0s0,0,.05,0h0a.18.18,0,0,1,.13.05c.06,0,.09,0,.13,0l0,0a1.14,1.14,0,0,1,.29-.15.13.13,0,0,1,.09,0h0s.05,0,.07,0h.05l0,0s0,0,.07.05a.16.16,0,0,1,.08.06l0,0,0,0a.1.1,0,0,1,.12,0h0s.08,0,.07,0h.08a.1.1,0,0,0-.07,0s.07,0,.05,0,.08,0,.08,0h0c0,.05.14.12.15.19a.55.55,0,0,1,.12.35v0c-.27.08-.11.17-.1.25a.11.11,0,0,1-.08.1.13.13,0,0,1-.12,0,.07.07,0,0,1,0,.06h0a.12.12,0,0,1,0,.09.31.31,0,0,0,.06.13.2.2,0,0,0,0,.08v0a.57.57,0,0,1,.13.21.28.28,0,0,1,.08.12l0,0a.45.45,0,0,0,.15.16s0,0,0,0h0c0,.05,0,.07,0,.08a2.61,2.61,0,0,1-.28,0s-.24,0-.24,0v0l.26,0s.14.07.17.09.07,0,.07,0h0a.32.32,0,0,1,.16.09l.1.07a.08.08,0,0,1,0,.07.22.22,0,0,0,.08.18.08.08,0,0,1,0,.06.9.9,0,0,0,0,.23c0,.05,0,.1,0,.15a.79.79,0,0,0,0,.13l0,0a0,0,0,0,0,.05,0s.1,0,.12.09a.08.08,0,0,0,0,.05h0A.48.48,0,0,1,25,32h0a1.11,1.11,0,0,1,.07.26.13.13,0,0,0,0,.07.19.19,0,0,1,.05.09h0s0,0,.05,0,.11,0,.14.08h0l.07.05.11,0a.17.17,0,0,1,.12.11.23.23,0,0,0,.09.08.31.31,0,0,1,.09.07h0l0,.05a.16.16,0,0,0,.12.1h0a.41.41,0,0,1,.18.28s0,.07-.06.08l0,0h0c.06,0,.08.07.11.11v0a.35.35,0,0,0,.21.16.25.25,0,0,0,.18,0h0a.41.41,0,0,1,.11-.07.19.19,0,0,1,.16,0,.1.1,0,0,0,.09,0l.1-.06.06,0a.08.08,0,0,1,.09,0s.08,0,.14,0,.08,0,.13,0a.19.19,0,0,0,.15,0l.13,0,.13-.05h0a.16.16,0,0,1,.1-.08.15.15,0,0,1,.13,0s0,.09,0,.12a.29.29,0,0,0,0,.16.22.22,0,0,1,0,.08h0l.06,0Z"/></svg>