<svg xmlns="http://www.w3.org/2000/svg" version="1" width="72" height="72" viewBox="0 0 2000 2000"><path fill="#FFF" d="M1625.4 316.8c16.8 12 24.8 31.2 21.6 51.1l-204.5 1227.2c-2.4 15.2-12 28-25.6 36-7.2 4-16 6.4-24.8 6.4-6.4 0-12.8-1.6-19.2-4L1011 1485.6l-193.3 235.7c-9.6 12-24 18.4-39.2 18.4-5.6 0-12-.8-17.6-3.2-20-7.2-33.6-26.4-33.6-47.9v-278.8l690.3-846.1-854.1 739L248 1173.2c-18.4-7.2-30.4-24-32-43.9-.8-19.2 8.8-37.6 25.6-47.1l1329.4-767c8-4.8 16.8-7.2 25.6-7.2 10.4 0 20.8 3.2 28.8 8.8z"/></svg>