<svg id="svg" version="1.1" width="400" height="400" xmlns="http://www.w3.org/2000/svg" xmlns:xlink="http://www.w3.org/1999/xlink" style="display: block;"><g id="svgg"><path id="path0" d="M167.000 126.816 C 165.680 127.241,164.150 127.588,163.600 127.588 C 159.150 127.589,143.831 134.746,135.984 140.492 C 131.790 143.562,131.296 144.083,130.188 146.600 C 129.607 147.920,128.892 149.540,128.599 150.200 C 128.307 150.860,127.590 152.570,127.006 154.000 C 126.422 155.430,125.792 156.960,125.606 157.400 C 125.420 157.840,125.081 158.920,124.853 159.800 C 124.624 160.680,123.194 165.090,121.673 169.600 C 120.153 174.110,118.517 179.330,118.038 181.200 C 117.559 183.070,116.814 185.783,116.383 187.228 C 115.952 188.674,115.600 190.210,115.600 190.641 C 115.600 191.073,115.331 192.410,115.002 193.613 C 113.635 198.608,111.297 212.364,110.384 220.780 C 110.158 222.860,109.803 225.740,109.595 227.180 C 109.386 228.621,109.212 233.402,109.208 237.805 L 109.200 245.811 110.550 247.805 C 112.855 251.210,117.295 255.875,121.026 258.811 C 122.992 260.358,124.808 261.789,125.062 261.992 C 125.317 262.195,126.937 263.108,128.662 264.020 C 130.388 264.933,131.971 265.842,132.180 266.040 C 132.389 266.238,132.874 266.400,133.259 266.400 C 133.643 266.400,134.804 266.850,135.838 267.400 C 136.873 267.950,138.049 268.400,138.451 268.400 C 138.854 268.400,139.862 268.668,140.692 268.996 C 141.521 269.324,145.080 270.046,148.600 270.602 L 155.000 271.611 156.343 270.106 C 157.082 269.278,158.598 267.250,159.712 265.600 C 160.825 263.950,162.336 261.861,163.068 260.959 C 164.926 258.670,164.235 257.443,160.600 256.576 C 159.940 256.419,159.204 256.136,158.964 255.949 C 158.724 255.761,157.464 255.048,156.164 254.364 C 147.287 249.693,135.545 237.599,139.202 236.895 C 139.791 236.782,145.733 240.444,146.208 241.213 C 146.339 241.426,146.737 241.600,147.092 241.600 C 147.447 241.600,148.021 241.843,148.369 242.140 C 149.128 242.790,153.035 244.828,155.800 246.017 C 156.900 246.490,158.520 247.202,159.400 247.600 C 160.280 247.998,161.630 248.541,162.400 248.806 C 163.170 249.071,165.240 249.819,167.000 250.468 C 174.999 253.418,185.260 255.592,193.400 256.062 C 200.746 256.485,210.831 256.134,214.600 255.323 C 216.140 254.991,218.877 254.484,220.682 254.195 C 222.486 253.906,224.184 253.534,224.453 253.367 C 224.723 253.200,226.216 252.746,227.772 252.357 C 231.053 251.536,234.965 250.216,236.400 249.446 C 236.950 249.150,237.940 248.780,238.600 248.623 C 239.260 248.466,241.267 247.632,243.061 246.769 C 244.854 245.906,246.496 245.200,246.710 245.200 C 247.208 245.200,252.472 242.098,256.615 239.363 C 263.381 234.896,264.095 237.311,257.885 243.662 C 252.608 249.060,249.283 251.747,245.200 253.916 C 241.391 255.940,240.530 256.351,238.316 257.202 C 234.339 258.731,234.192 258.281,242.196 269.084 C 244.309 271.936,243.135 271.818,253.400 270.208 C 257.137 269.622,262.122 268.164,264.200 267.049 C 264.860 266.695,265.628 266.404,265.907 266.402 C 266.635 266.399,273.353 262.594,276.324 260.502 C 280.207 257.768,286.057 251.953,288.390 248.507 L 290.493 245.400 290.232 238.400 C 289.845 228.013,287.713 207.826,286.574 203.772 C 286.261 202.656,285.905 200.856,285.783 199.772 C 285.661 198.687,285.312 196.810,285.006 195.600 C 284.050 191.812,283.133 187.878,282.724 185.809 C 282.508 184.714,282.166 183.510,281.964 183.133 C 281.763 182.757,281.340 181.313,281.024 179.924 C 280.476 177.512,279.727 175.040,278.623 172.000 C 278.343 171.230,277.708 169.250,277.211 167.600 C 276.067 163.804,274.954 160.675,273.970 158.489 C 273.547 157.548,273.200 156.580,273.200 156.337 C 273.200 155.827,270.413 149.241,268.826 146.000 C 267.561 143.417,265.537 141.708,258.046 136.902 C 255.397 135.203,247.497 131.200,246.792 131.200 C 246.586 131.200,245.469 130.768,244.309 130.240 C 241.567 128.991,236.896 127.587,235.508 127.594 C 234.908 127.597,233.648 127.292,232.708 126.916 C 230.010 125.836,225.039 125.929,224.877 127.063 C 224.778 127.755,225.016 127.982,226.077 128.208 C 226.805 128.364,228.155 128.830,229.078 129.245 C 230.001 129.660,230.967 130.000,231.224 130.000 C 231.778 130.000,241.583 134.798,243.600 136.056 C 244.370 136.537,245.967 137.443,247.149 138.069 C 249.797 139.474,256.327 144.003,257.362 145.153 C 257.781 145.619,258.331 146.000,258.584 146.000 C 259.396 146.000,261.682 148.677,261.533 149.453 C 261.297 150.676,260.130 150.537,257.569 148.981 C 254.446 147.084,243.325 141.600,242.601 141.600 C 242.246 141.600,240.795 141.073,236.000 139.201 C 233.867 138.369,229.793 137.276,227.000 136.788 C 225.900 136.595,223.560 136.080,221.800 135.642 C 209.942 132.694,189.814 132.776,175.714 135.829 C 173.247 136.363,170.859 136.800,170.406 136.800 C 169.236 136.800,163.717 138.347,161.689 139.244 C 160.748 139.660,159.661 140.000,159.274 140.000 C 158.886 140.000,157.863 140.360,157.000 140.800 C 156.137 141.240,155.191 141.600,154.897 141.600 C 154.604 141.600,153.518 142.050,152.485 142.600 C 151.452 143.150,150.413 143.600,150.177 143.600 C 149.762 143.600,142.653 147.129,138.610 149.343 C 135.461 151.067,133.874 150.361,135.787 148.088 C 138.834 144.468,148.308 138.333,159.800 132.540 C 160.240 132.318,161.404 131.718,162.386 131.207 C 163.369 130.695,164.719 130.135,165.386 129.962 C 169.238 128.961,174.000 126.982,174.000 126.381 C 174.000 125.727,169.516 126.006,167.000 126.816 M174.615 190.146 C 185.175 192.958,191.356 210.139,185.326 219.921 C 181.834 225.586,180.347 227.072,176.200 229.045 C 172.885 230.621,168.194 230.603,164.608 228.999 C 162.279 227.957,156.800 222.976,156.800 221.900 C 156.800 221.660,156.559 221.179,156.264 220.831 C 153.445 217.510,152.836 207.046,155.131 201.364 C 158.774 192.346,166.397 187.958,174.615 190.146 M232.057 190.172 C 248.247 195.086,248.912 222.643,233.000 229.210 C 220.383 234.416,207.555 219.480,211.415 204.078 C 214.006 193.741,223.265 187.504,232.057 190.172 M82.400 298.800 L 82.400 310.000 84.983 310.000 L 87.566 310.000 87.683 306.900 L 87.800 303.800 90.800 303.594 C 96.927 303.173,100.202 298.968,98.625 293.546 C 97.314 289.034,94.523 287.600,87.054 287.600 L 82.400 287.600 82.400 298.800 M106.877 288.700 C 106.645 289.305,106.227 290.520,105.946 291.400 C 105.666 292.280,105.293 293.171,105.118 293.380 C 104.943 293.589,104.800 294.086,104.800 294.485 C 104.800 294.884,104.642 295.523,104.449 295.905 C 104.256 296.287,103.884 297.320,103.623 298.200 C 103.361 299.080,102.987 300.160,102.790 300.600 C 102.439 301.389,100.623 306.758,99.984 308.900 L 99.656 310.000 102.356 310.000 L 105.055 310.000 105.608 307.971 C 106.280 305.501,106.904 305.128,110.109 305.281 L 112.600 305.400 113.392 307.700 L 114.184 310.000 116.853 310.000 L 119.522 310.000 118.987 308.300 C 118.693 307.365,117.711 304.530,116.805 302.000 C 115.899 299.470,114.504 295.420,113.706 293.000 C 111.901 287.526,111.960 287.600,109.400 287.600 C 107.475 287.600,107.262 287.693,106.877 288.700 M122.800 298.800 L 122.800 310.000 125.400 310.000 L 128.000 310.000 128.000 306.600 C 128.000 301.552,129.996 302.377,134.050 309.100 C 134.542 309.917,134.898 310.000,137.894 310.000 L 141.195 310.000 140.435 309.100 C 135.330 303.052,135.185 302.750,136.837 301.573 C 139.367 299.772,140.331 295.047,138.838 291.760 C 137.398 288.590,134.737 287.600,127.654 287.600 L 122.800 287.600 122.800 298.800 M143.867 287.867 C 143.501 288.232,143.541 291.687,143.916 292.279 C 144.086 292.546,145.364 292.811,146.810 292.879 L 149.400 293.000 149.508 301.500 L 149.616 310.000 152.000 310.000 L 154.384 310.000 154.492 301.500 L 154.600 293.000 157.400 292.800 L 160.200 292.600 160.319 290.100 L 160.438 287.600 152.286 287.600 C 147.802 287.600,144.013 287.720,143.867 287.867 M164.400 298.800 L 164.400 310.000 167.046 310.000 L 169.693 310.000 169.475 304.700 C 169.355 301.785,169.133 298.905,168.982 298.300 C 168.524 296.471,169.427 297.042,170.562 299.300 C 171.874 301.909,173.459 304.667,174.447 306.062 C 174.861 306.646,175.200 307.248,175.200 307.400 C 175.200 308.930,176.943 310.000,179.434 310.000 L 182.013 310.000 181.906 298.900 L 181.800 287.800 179.245 287.679 L 176.690 287.559 176.883 294.584 C 176.989 298.448,177.031 301.562,176.975 301.505 C 176.919 301.447,176.179 300.050,175.330 298.400 C 174.481 296.750,172.744 293.645,171.470 291.500 L 169.153 287.600 166.777 287.600 L 164.400 287.600 164.400 298.800 M187.075 287.858 C 186.924 288.009,186.800 293.053,186.800 299.067 L 186.800 310.000 194.420 310.000 L 202.040 310.000 201.920 307.700 L 201.800 305.400 197.800 305.301 C 192.151 305.161,192.000 305.107,192.000 303.239 C 192.000 301.342,192.348 301.213,197.500 301.205 L 201.200 301.200 201.200 299.200 L 201.200 297.200 197.276 297.200 C 192.549 297.200,191.885 296.866,192.071 294.584 L 192.200 293.000 196.576 292.886 C 201.771 292.750,202.078 292.575,201.919 289.836 L 201.800 287.800 194.575 287.691 C 190.602 287.631,187.227 287.706,187.075 287.858 M206.400 298.800 L 206.400 310.000 209.000 310.000 L 211.600 310.000 211.600 306.643 C 211.600 301.566,212.624 301.742,216.515 307.487 L 218.200 309.975 221.600 309.981 C 223.470 309.985,224.815 309.856,224.590 309.694 C 224.364 309.532,223.557 308.590,222.795 307.600 C 222.034 306.610,221.172 305.550,220.878 305.244 C 219.008 303.294,218.962 302.801,220.525 301.460 C 223.076 299.272,223.915 295.014,222.438 291.760 C 220.998 288.590,218.337 287.600,211.254 287.600 L 206.400 287.600 206.400 298.800 M233.172 288.148 C 225.909 289.946,225.731 298.550,232.918 300.415 C 237.777 301.676,238.400 302.022,238.400 303.459 C 238.400 305.330,234.463 305.714,231.669 304.116 L 230.417 303.400 228.989 304.826 L 227.561 306.252 228.600 307.291 C 233.711 312.401,243.600 309.454,243.600 302.821 C 243.600 299.713,241.333 297.719,236.216 296.328 C 233.029 295.462,232.092 294.418,233.082 292.838 C 233.670 291.900,237.022 291.778,238.617 292.637 C 239.875 293.314,239.911 293.309,241.391 292.180 L 242.890 291.036 241.662 289.939 C 239.495 288.003,236.397 287.349,233.172 288.148 M248.000 298.781 L 248.000 310.000 250.600 310.000 L 253.200 310.000 253.200 305.847 C 253.200 301.147,253.150 301.211,256.800 301.211 C 260.450 301.211,260.400 301.147,260.400 305.847 L 260.400 310.000 263.006 310.000 L 265.613 310.000 265.506 298.900 L 265.400 287.800 262.914 287.681 L 260.427 287.563 260.314 291.881 L 260.200 296.200 256.800 296.200 L 253.400 296.200 253.200 292.000 L 253.000 287.800 250.500 287.681 L 248.000 287.562 248.000 298.781 M270.667 287.867 C 270.520 288.013,270.400 293.053,270.400 299.067 L 270.400 310.000 273.000 310.000 L 275.600 310.000 275.600 298.800 L 275.600 287.600 273.267 287.600 C 271.983 287.600,270.813 287.720,270.667 287.867 M281.600 298.800 L 281.600 310.000 284.183 310.000 L 286.766 310.000 286.883 306.900 L 287.000 303.800 290.000 303.594 C 295.992 303.182,299.184 299.249,297.962 293.785 C 296.942 289.227,293.902 287.616,286.300 287.606 L 281.600 287.600 281.600 298.800 M306.600 288.139 C 298.901 290.356,299.841 300.727,307.749 300.809 C 309.548 300.827,312.067 302.322,311.929 303.290 C 311.646 305.272,307.461 305.732,305.225 304.027 C 304.258 303.289,304.237 303.293,302.725 304.509 C 300.863 306.004,300.829 306.486,302.500 307.653 C 303.215 308.153,303.890 308.661,304.000 308.783 C 304.989 309.878,308.939 310.277,311.172 309.508 C 315.542 308.002,316.945 306.214,316.713 302.447 C 316.484 298.731,315.457 297.931,308.482 296.026 C 306.305 295.432,305.487 294.030,306.599 292.802 C 307.592 291.704,310.703 291.694,312.088 292.784 C 313.037 293.530,313.120 293.534,313.842 292.870 C 314.259 292.486,315.019 291.882,315.531 291.527 L 316.462 290.881 314.731 289.715 C 311.794 287.737,309.524 287.297,306.600 288.139 M93.354 293.786 C 95.159 296.541,93.498 299.200,89.971 299.200 L 87.600 299.200 87.600 296.000 L 87.600 292.800 90.154 292.800 C 92.427 292.800,92.779 292.908,93.354 293.786 M133.843 293.500 C 135.723 295.976,133.997 298.500,130.545 298.321 L 128.200 298.200 128.082 295.500 L 127.963 292.800 130.638 292.800 C 132.715 292.800,133.430 292.956,133.843 293.500 M217.443 293.500 C 219.323 295.976,217.597 298.500,214.145 298.321 L 211.800 298.200 211.682 295.500 L 211.563 292.800 214.238 292.800 C 216.315 292.800,217.030 292.956,217.443 293.500 M292.554 293.786 C 294.391 296.589,292.740 299.200,289.130 299.200 L 286.800 299.200 286.800 296.000 L 286.800 292.800 289.354 292.800 C 291.627 292.800,291.979 292.908,292.554 293.786 M110.750 297.306 C 111.564 300.752,111.075 301.585,108.603 300.965 C 107.683 300.734,107.577 300.556,107.822 299.649 C 107.978 299.072,108.230 297.970,108.383 297.200 C 108.536 296.430,108.917 295.392,109.231 294.893 C 109.886 293.849,109.962 293.969,110.750 297.306 M199.400 336.021 C 192.144 338.375,193.633 351.200,201.163 351.200 C 205.816 351.200,207.800 348.868,207.800 343.400 C 207.800 337.491,204.312 334.427,199.400 336.021 M182.091 343.500 L 182.200 351.000 184.699 351.119 C 190.499 351.395,193.931 346.887,190.086 344.043 C 189.006 343.244,189.004 343.233,189.700 341.987 C 191.738 338.341,189.829 336.000,184.817 336.000 L 181.982 336.000 182.091 343.500 M209.600 336.380 C 209.600 336.589,210.635 336.814,211.900 336.880 L 214.200 337.000 214.400 344.000 C 214.568 349.867,214.697 351.000,215.200 351.000 C 215.705 351.000,215.818 349.954,215.910 344.429 C 216.036 336.949,216.093 336.800,218.849 336.800 C 219.922 336.800,220.800 336.620,220.800 336.400 C 220.800 336.152,218.667 336.000,215.200 336.000 C 211.929 336.000,209.600 336.158,209.600 336.380 M188.471 337.864 C 190.560 339.755,188.780 342.559,185.475 342.584 L 183.400 342.600 183.279 340.266 C 183.099 336.790,185.868 335.508,188.471 337.864 M203.786 337.368 C 207.335 338.851,207.644 347.107,204.235 349.341 C 199.903 352.179,195.105 347.578,196.395 341.823 C 197.364 337.499,200.121 335.837,203.786 337.368 M188.126 344.065 C 191.818 346.031,190.237 350.128,185.867 349.918 L 183.400 349.800 183.276 347.621 C 183.051 343.655,184.862 342.327,188.126 344.065 " stroke="none" fill="#ffffff" fill-rule="evenodd"></path><path id="path1" d="M193.136 343.551 C 193.055 344.405,193.108 345.530,193.254 346.051 C 193.421 346.648,193.535 346.072,193.560 344.500 C 193.605 341.709,193.363 341.169,193.136 343.551 M184.555 345.088 C 184.842 345.375,187.650 345.272,187.967 344.963 C 188.058 344.873,187.263 344.800,186.200 344.800 C 185.137 344.800,184.396 344.930,184.555 345.088 M188.324 347.000 C 188.414 347.770,188.558 348.400,188.644 348.400 C 188.730 348.400,188.800 347.770,188.800 347.000 C 188.800 346.230,188.656 345.600,188.480 345.600 C 188.304 345.600,188.234 346.230,188.324 347.000 " stroke="none" fill="#4c6ad0" fill-rule="evenodd"></path><path id="path2" d="M6.400 200.000 L 6.400 393.600 200.000 393.600 L 393.600 393.600 393.600 200.000 L 393.600 6.400 200.000 6.400 L 6.400 6.400 6.400 200.000 M175.226 125.214 C 177.130 126.233,175.724 127.919,171.876 129.231 C 170.734 129.620,168.270 130.599,166.400 131.406 C 164.530 132.212,162.666 132.972,162.257 133.094 C 160.869 133.508,151.411 138.501,149.072 140.054 C 147.791 140.904,146.654 141.600,146.544 141.600 C 146.216 141.600,142.676 144.096,141.604 145.083 C 140.280 146.302,141.661 146.404,143.200 145.200 C 143.750 144.770,144.431 144.414,144.714 144.409 C 144.997 144.404,145.627 144.143,146.114 143.828 C 146.601 143.514,148.530 142.602,150.400 141.802 C 152.270 141.002,154.340 140.101,155.000 139.800 C 156.460 139.134,159.633 138.092,161.800 137.567 C 162.680 137.354,164.210 136.847,165.200 136.440 C 166.190 136.032,167.963 135.578,169.139 135.431 C 170.316 135.283,171.936 134.911,172.739 134.604 C 173.543 134.297,176.107 133.851,178.438 133.613 C 180.769 133.375,183.289 133.001,184.038 132.783 C 188.836 131.388,209.971 131.506,216.466 132.965 C 217.860 133.278,220.170 133.659,221.600 133.811 C 223.030 133.964,224.778 134.326,225.485 134.617 C 226.191 134.908,227.631 135.272,228.685 135.426 C 229.738 135.579,231.230 136.020,232.000 136.405 C 232.770 136.789,234.210 137.233,235.200 137.391 C 236.190 137.548,237.399 137.930,237.886 138.238 C 238.373 138.547,239.093 138.802,239.486 138.804 C 239.879 138.806,241.100 139.250,242.200 139.791 C 243.300 140.332,244.345 140.781,244.523 140.787 C 244.700 140.794,246.500 141.595,248.523 142.567 C 250.545 143.539,252.785 144.573,253.500 144.865 C 254.215 145.156,254.800 145.531,254.800 145.698 C 254.800 145.864,255.025 145.995,255.300 145.988 C 256.900 145.951,249.473 140.829,242.600 137.230 C 241.280 136.539,239.930 135.811,239.600 135.613 C 239.270 135.414,238.010 134.809,236.800 134.268 C 235.590 133.726,233.607 132.814,232.394 132.242 C 231.181 131.669,229.916 131.200,229.583 131.200 C 229.250 131.200,228.559 130.907,228.047 130.548 C 227.535 130.189,226.280 129.683,225.258 129.424 C 223.120 128.882,222.457 127.084,223.834 125.563 C 224.814 124.480,231.054 124.478,234.313 125.559 C 235.571 125.976,237.410 126.446,238.400 126.603 C 239.390 126.760,240.926 127.216,241.814 127.615 C 242.702 128.015,243.962 128.470,244.614 128.626 C 245.266 128.782,245.980 129.042,246.200 129.203 C 246.420 129.364,247.248 129.704,248.040 129.959 C 255.411 132.331,268.395 141.452,270.233 145.550 C 270.788 146.787,271.491 148.340,271.795 149.000 C 273.965 153.707,274.400 154.724,274.400 155.084 C 274.400 155.307,274.920 156.751,275.556 158.293 C 276.192 159.835,277.632 163.864,278.757 167.248 C 281.753 176.259,281.978 176.981,282.386 178.874 C 282.900 181.264,283.555 183.758,284.444 186.708 C 284.860 188.088,285.200 189.567,285.200 189.994 C 285.200 190.422,285.494 191.633,285.853 192.686 C 286.212 193.739,286.643 195.590,286.812 196.800 C 287.163 199.323,288.181 204.912,289.034 209.000 C 289.356 210.540,289.792 213.600,290.004 215.800 C 290.216 218.000,290.572 220.610,290.794 221.600 C 291.016 222.590,291.373 227.774,291.587 233.119 C 291.801 238.465,292.065 242.982,292.173 243.157 C 293.487 245.282,284.387 256.617,277.369 261.597 C 276.286 262.366,275.304 263.124,275.186 263.282 C 275.068 263.440,274.348 263.853,273.586 264.201 C 272.824 264.548,271.480 265.267,270.600 265.797 C 269.720 266.327,268.550 266.967,268.000 267.219 C 267.450 267.471,266.460 267.923,265.800 268.222 C 263.634 269.206,259.837 270.458,257.800 270.861 C 256.700 271.079,254.990 271.531,254.000 271.867 C 253.010 272.203,250.195 272.574,247.744 272.693 L 243.287 272.908 241.146 269.954 C 239.969 268.329,237.790 265.380,236.304 263.400 C 234.818 261.420,233.602 259.397,233.601 258.905 C 233.600 257.973,236.178 256.000,237.398 256.000 C 238.135 256.000,245.309 252.279,247.000 251.019 C 247.660 250.527,248.421 250.051,248.691 249.962 C 250.684 249.305,259.285 240.751,258.621 240.088 C 258.550 240.017,256.986 240.921,255.146 242.098 C 252.102 244.045,247.447 246.450,241.600 249.097 C 240.390 249.645,238.860 250.365,238.200 250.698 C 237.540 251.031,236.190 251.535,235.200 251.818 C 234.210 252.101,232.860 252.521,232.200 252.751 C 226.964 254.575,219.135 256.394,214.705 256.815 C 212.667 257.009,209.560 257.388,207.800 257.658 C 203.677 258.290,197.901 258.302,193.600 257.688 C 191.730 257.421,188.400 257.026,186.200 256.809 C 184.000 256.593,181.300 256.164,180.200 255.856 C 179.100 255.548,177.300 255.105,176.200 254.871 C 171.850 253.946,165.316 251.887,162.560 250.573 C 161.438 250.038,160.296 249.600,160.022 249.600 C 159.748 249.600,159.046 249.342,158.462 249.027 C 157.878 248.711,155.960 247.786,154.200 246.970 C 152.440 246.154,150.910 245.377,150.800 245.243 C 150.690 245.109,149.746 244.570,148.701 244.045 C 147.657 243.520,145.874 242.492,144.738 241.760 C 138.131 237.503,144.512 244.723,152.056 250.039 C 154.884 252.033,156.810 253.076,164.400 256.727 C 166.705 257.835,166.493 258.799,162.882 263.641 C 161.148 265.966,159.124 268.753,158.386 269.834 C 157.647 270.915,156.763 272.033,156.421 272.318 C 155.506 273.082,147.405 272.733,145.710 271.857 C 145.011 271.496,143.846 271.192,143.120 271.182 C 142.394 271.173,141.080 270.891,140.200 270.557 C 139.320 270.222,137.790 269.711,136.800 269.421 C 123.780 265.602,108.020 251.230,107.648 242.835 C 107.435 238.052,108.320 222.421,109.007 218.800 C 109.321 217.150,109.687 214.450,109.822 212.800 C 109.956 211.150,110.254 209.189,110.483 208.442 C 110.713 207.695,111.131 205.535,111.414 203.642 C 112.070 199.246,113.070 194.340,113.816 191.854 C 114.137 190.784,114.400 189.509,114.400 189.021 C 114.400 188.534,114.738 186.979,115.152 185.567 C 115.566 184.155,116.306 181.560,116.797 179.800 C 118.575 173.429,119.305 170.974,119.830 169.600 C 120.125 168.830,120.543 167.570,120.759 166.800 C 121.122 165.505,121.942 163.288,123.940 158.200 C 124.372 157.100,124.954 155.570,125.234 154.800 C 125.514 154.030,126.070 152.668,126.471 151.774 C 126.872 150.879,127.200 149.993,127.200 149.804 C 127.200 144.230,140.118 134.124,153.800 128.994 C 155.340 128.416,157.140 127.702,157.800 127.407 C 158.460 127.111,159.900 126.741,161.000 126.584 C 162.100 126.427,163.180 126.186,163.400 126.049 C 165.060 125.015,173.713 124.404,175.226 125.214 M164.800 192.400 C 164.250 192.830,163.607 193.186,163.371 193.191 C 163.135 193.196,161.965 194.161,160.771 195.336 C 154.886 201.127,153.142 211.725,156.885 218.955 C 158.445 221.969,159.103 222.857,161.261 224.861 C 167.815 230.946,178.501 229.072,182.987 221.050 C 188.578 211.052,185.785 197.963,176.951 192.762 C 174.384 191.251,166.567 191.018,164.800 192.400 M222.646 191.926 C 222.535 192.105,221.670 192.660,220.722 193.160 C 208.512 199.602,210.332 223.358,223.371 227.738 C 241.831 233.939,251.420 201.970,233.907 192.611 C 231.975 191.579,223.191 191.044,222.646 191.926 M93.200 284.363 C 93.970 284.561,95.111 284.837,95.735 284.977 C 97.045 285.272,100.732 288.570,101.238 289.899 C 101.775 291.312,102.127 290.990,103.202 288.099 C 104.399 284.882,105.645 284.050,109.313 284.019 C 113.865 283.981,114.806 284.844,116.822 290.900 C 118.552 296.099,119.183 295.929,119.195 290.260 C 119.205 284.838,120.375 283.992,127.828 284.014 C 132.750 284.029,136.038 284.578,138.346 285.772 C 139.656 286.449,139.694 286.443,141.302 285.329 L 142.931 284.200 151.765 284.231 C 156.624 284.249,161.140 284.301,161.800 284.347 C 162.460 284.394,164.289 284.315,165.863 284.173 C 169.220 283.869,171.331 284.417,172.257 285.832 L 172.887 286.792 173.975 285.627 C 175.279 284.231,177.029 283.838,180.462 284.172 C 181.858 284.307,183.675 284.402,184.500 284.382 C 186.014 284.345,201.120 284.330,203.900 284.363 C 204.725 284.373,207.650 284.282,210.400 284.161 C 217.687 283.841,221.540 284.790,224.162 287.550 L 225.324 288.773 226.522 287.603 C 230.259 283.948,237.406 283.162,242.277 285.868 C 244.326 287.007,244.649 287.022,244.917 285.995 C 245.569 283.503,253.301 283.262,255.855 285.654 L 256.709 286.454 257.710 285.454 C 258.946 284.218,260.763 283.851,264.062 284.172 C 267.157 284.472,268.500 284.472,272.519 284.170 C 275.067 283.978,275.910 284.070,277.119 284.668 C 278.549 285.375,278.649 285.375,280.000 284.678 C 283.227 283.013,294.806 284.176,297.364 286.422 C 298.620 287.525,300.400 288.018,300.400 287.264 C 300.400 286.616,304.223 284.902,306.720 284.429 C 312.133 283.404,318.884 286.408,319.854 290.273 C 320.146 291.434,319.121 293.902,318.201 294.255 C 317.322 294.592,317.465 295.524,318.600 296.873 C 319.150 297.527,319.703 298.543,319.828 299.131 C 319.953 299.719,320.223 300.613,320.428 301.119 C 320.921 302.337,320.897 303.442,320.339 305.172 C 319.761 306.965,318.275 310.000,317.976 310.000 C 317.852 310.000,317.402 310.321,316.975 310.713 C 311.598 315.658,300.393 313.775,297.849 307.500 C 297.250 306.022,295.985 305.454,295.400 306.400 C 295.264 306.620,294.681 306.800,294.105 306.800 C 291.583 306.800,290.400 307.632,290.400 309.405 C 290.400 313.220,284.730 315.339,280.281 313.187 C 278.555 312.352,278.423 312.366,275.905 313.647 C 274.842 314.188,271.596 314.057,269.700 313.396 C 268.199 312.873,267.801 312.873,266.300 313.396 C 264.362 314.071,260.570 314.198,260.200 313.600 C 260.064 313.380,259.628 313.200,259.231 313.200 C 258.834 313.200,258.037 312.728,257.461 312.152 C 256.596 311.287,256.370 311.212,256.174 311.722 C 255.072 314.595,244.800 314.466,244.800 311.580 C 244.800 310.367,244.079 310.299,242.665 311.378 C 241.928 311.940,241.037 312.400,240.686 312.400 C 240.335 312.400,239.936 312.580,239.800 312.800 C 239.664 313.020,239.035 313.200,238.402 313.200 C 237.770 313.200,236.745 313.393,236.126 313.630 C 234.973 314.069,234.313 313.954,229.929 312.543 C 228.376 312.043,227.900 312.029,227.129 312.458 C 223.741 314.347,217.927 314.461,216.141 312.674 C 215.786 312.319,214.214 312.319,213.859 312.674 C 212.632 313.901,208.341 314.316,205.848 313.448 C 204.680 313.041,203.939 313.011,202.848 313.327 C 200.305 314.064,188.296 314.132,186.203 313.422 C 184.595 312.876,184.201 312.873,182.696 313.398 C 180.761 314.072,176.969 314.198,176.600 313.600 C 176.464 313.380,176.037 313.200,175.652 313.200 C 175.266 313.200,174.564 312.840,174.092 312.400 C 173.191 311.560,172.400 311.353,172.400 311.956 C 172.400 312.684,168.793 314.000,166.800 314.000 C 164.410 314.000,161.200 312.645,161.200 311.636 C 161.200 311.264,161.024 310.784,160.810 310.570 C 160.595 310.355,160.370 307.038,160.310 303.190 C 160.205 296.503,160.165 296.200,159.400 296.200 C 158.633 296.200,158.596 296.500,158.501 303.400 C 158.389 311.531,158.255 312.004,155.746 313.184 C 152.460 314.728,146.638 313.670,146.323 311.471 C 146.148 310.248,144.887 310.119,144.446 311.279 C 143.908 312.694,140.875 314.000,138.128 314.000 C 136.241 314.000,133.293 313.322,132.620 312.733 C 132.131 312.305,130.671 312.303,130.180 312.730 C 129.268 313.524,126.425 314.078,124.558 313.825 C 122.190 313.506,120.573 313.505,117.364 313.823 C 113.574 314.199,111.213 312.883,110.228 309.846 C 109.953 308.997,108.400 309.978,108.400 311.000 C 108.400 313.099,102.899 314.650,99.571 313.490 C 96.363 312.372,95.630 310.933,96.526 307.509 C 96.800 306.459,96.761 306.426,95.505 306.630 C 91.769 307.237,91.200 307.602,91.200 309.389 C 91.200 312.167,88.635 314.000,84.747 314.000 C 82.331 314.000,79.200 312.634,79.200 311.580 C 79.200 311.177,79.020 310.736,78.800 310.600 C 78.549 310.445,78.400 306.212,78.400 299.225 C 78.400 286.701,78.589 285.601,80.916 284.589 C 82.399 283.945,90.953 283.787,93.200 284.363 M143.475 296.717 C 143.104 297.127,142.800 297.913,142.800 298.464 C 142.800 299.014,142.351 300.350,141.802 301.432 C 140.570 303.859,140.511 303.464,142.428 305.600 C 143.317 306.590,144.227 307.850,144.450 308.400 C 145.252 310.375,145.624 308.170,145.511 302.121 C 145.393 295.822,145.067 294.958,143.475 296.717 M225.620 301.163 C 224.946 302.421,225.096 302.872,226.000 302.307 C 226.852 301.775,227.045 300.999,226.420 300.612 C 226.211 300.483,225.851 300.731,225.620 301.163 M218.000 321.858 C 224.802 323.314,230.484 329.255,231.837 336.327 C 234.187 348.611,230.400 358.535,221.715 362.851 L 219.000 364.200 200.000 364.200 C 180.546 364.200,180.556 364.201,177.200 362.660 C 176.650 362.408,176.110 362.102,176.000 361.981 C 175.890 361.860,175.170 361.328,174.400 360.797 C 169.366 357.330,167.609 352.728,167.609 343.000 C 167.609 332.780,169.403 328.532,175.400 324.550 C 177.682 323.035,178.946 322.526,182.600 321.652 C 184.653 321.161,215.586 321.341,218.000 321.858 M180.400 325.200 C 180.400 325.420,180.040 325.600,179.600 325.600 C 179.160 325.600,178.800 325.780,178.800 326.000 C 178.800 326.220,178.532 326.400,178.205 326.400 C 176.762 326.400,173.395 329.893,171.700 333.148 C 169.694 336.998,170.624 353.722,172.900 354.733 C 173.065 354.807,173.200 355.101,173.200 355.387 C 173.200 355.673,173.965 356.567,174.900 357.374 C 177.382 359.515,177.508 359.600,178.183 359.600 C 178.522 359.600,178.800 359.780,178.800 360.000 C 178.800 360.220,179.160 360.400,179.600 360.400 C 180.040 360.400,180.400 360.580,180.400 360.800 C 180.400 361.324,218.133 361.350,219.105 360.826 C 219.487 360.621,220.385 360.217,221.100 359.929 C 221.815 359.640,222.400 359.269,222.400 359.102 C 222.400 358.936,222.598 358.800,222.840 358.800 C 223.450 358.800,226.800 355.194,226.800 354.536 C 226.800 354.241,226.936 354.000,227.102 354.000 C 227.269 354.000,227.640 353.415,227.929 352.700 C 228.217 351.985,228.621 351.087,228.826 350.705 C 229.032 350.323,229.200 346.856,229.200 343.000 C 229.200 339.144,229.032 335.677,228.826 335.295 C 228.621 334.913,228.217 334.015,227.929 333.300 C 227.640 332.585,227.269 332.000,227.102 332.000 C 226.936 332.000,226.800 331.759,226.800 331.464 C 226.800 330.644,223.566 327.418,222.100 326.775 C 221.385 326.461,220.800 326.069,220.800 325.902 C 220.800 325.736,220.451 325.600,220.024 325.600 C 219.597 325.600,219.136 325.420,219.000 325.200 C 218.841 324.942,211.929 324.800,199.576 324.800 C 187.059 324.800,180.400 324.939,180.400 325.200 M188.561 335.758 C 191.054 336.799,192.025 339.844,190.540 341.964 C 189.917 342.853,189.926 342.943,190.693 343.553 C 195.511 347.386,189.843 353.185,182.607 351.828 L 181.200 351.564 181.200 343.649 C 181.200 339.295,181.320 335.613,181.467 335.467 C 181.956 334.977,187.208 335.193,188.561 335.758 M205.112 335.823 C 205.601 336.166,206.226 336.317,206.501 336.159 C 206.775 336.001,206.870 336.015,206.712 336.191 C 206.553 336.366,206.747 336.980,207.142 337.555 C 212.545 345.416,204.286 356.178,197.070 350.679 C 192.275 347.025,193.303 338.019,198.800 335.528 C 199.995 334.987,204.198 335.183,205.112 335.823 M221.399 335.996 C 221.802 337.267,221.298 337.600,218.976 337.600 L 216.800 337.600 216.800 344.386 C 216.800 350.677,216.744 351.202,216.029 351.584 C 213.929 352.708,213.660 351.863,213.668 344.148 L 213.675 337.800 211.537 337.677 C 209.096 337.537,208.611 337.225,208.987 336.040 C 209.391 334.769,220.996 334.728,221.399 335.996 M184.000 339.800 L 184.000 342.000 185.538 342.000 C 187.247 342.000,188.400 341.070,188.400 339.691 C 188.400 338.581,186.951 337.600,185.311 337.600 L 184.000 337.600 184.000 339.800 M198.441 339.014 C 197.293 340.322,197.200 340.648,197.200 343.381 C 197.200 346.737,197.493 347.982,198.082 347.134 C 198.341 346.761,198.381 346.854,198.217 347.444 C 197.299 350.738,204.034 349.872,205.455 346.513 C 207.998 340.505,202.393 334.513,198.441 339.014 M193.560 344.500 C 193.535 346.072,193.421 346.648,193.254 346.051 C 192.991 345.114,193.136 342.000,193.442 342.000 C 193.529 342.000,193.582 343.125,193.560 344.500 M184.000 346.800 L 184.000 349.200 186.191 349.200 C 188.088 349.200,188.470 349.066,189.038 348.198 C 189.856 346.950,189.150 344.648,188.047 344.966 C 187.265 345.192,185.154 345.324,184.600 345.182 C 184.380 345.126,185.010 344.954,186.000 344.800 L 187.800 344.520 185.900 344.460 L 184.000 344.400 184.000 346.800 M188.800 347.000 C 188.800 347.770,188.730 348.400,188.644 348.400 C 188.558 348.400,188.414 347.770,188.324 347.000 C 188.234 346.230,188.304 345.600,188.480 345.600 C 188.656 345.600,188.800 346.230,188.800 347.000 " stroke="none" fill="#7289da" fill-rule="evenodd"></path><path id="path3" d="M0.000 200.000 L 0.000 400.000 200.000 400.000 L 400.000 400.000 400.000 200.000 L 400.000 0.000 200.000 0.000 L 0.000 0.000 0.000 200.000 M393.600 200.000 L 393.600 393.600 200.000 393.600 L 6.400 393.600 6.400 200.000 L 6.400 6.400 200.000 6.400 L 393.600 6.400 393.600 200.000 M165.800 125.345 C 164.700 125.595,163.620 125.912,163.400 126.049 C 163.180 126.186,162.100 126.427,161.000 126.584 C 159.900 126.741,158.460 127.111,157.800 127.407 C 157.140 127.702,155.340 128.416,153.800 128.994 C 147.024 131.535,140.621 135.190,133.322 140.685 C 130.660 142.688,127.200 147.843,127.200 149.804 C 127.200 149.993,126.872 150.879,126.471 151.774 C 126.070 152.668,125.514 154.030,125.234 154.800 C 124.954 155.570,124.372 157.100,123.940 158.200 C 121.942 163.288,121.122 165.505,120.759 166.800 C 120.543 167.570,120.125 168.830,119.830 169.600 C 119.305 170.974,118.575 173.429,116.797 179.800 C 116.306 181.560,115.566 184.155,115.152 185.567 C 114.738 186.979,114.400 188.534,114.400 189.021 C 114.400 189.509,114.137 190.784,113.816 191.854 C 113.070 194.340,112.070 199.246,111.414 203.642 C 111.131 205.535,110.713 207.695,110.483 208.442 C 110.254 209.189,109.956 211.150,109.822 212.800 C 109.687 214.450,109.321 217.150,109.007 218.800 C 108.320 222.421,107.435 238.052,107.648 242.835 C 108.020 251.230,123.780 265.602,136.800 269.421 C 137.790 269.711,139.320 270.222,140.200 270.557 C 141.080 270.891,142.394 271.173,143.120 271.182 C 143.846 271.192,145.011 271.496,145.710 271.857 C 147.405 272.733,155.506 273.082,156.421 272.318 C 156.763 272.033,157.647 270.915,158.386 269.834 C 159.124 268.753,161.148 265.966,162.882 263.641 C 166.493 258.799,166.705 257.835,164.400 256.727 C 156.810 253.076,154.884 252.033,152.056 250.039 C 144.512 244.723,138.131 237.503,144.738 241.760 C 145.874 242.492,147.657 243.520,148.701 244.045 C 149.746 244.570,150.690 245.109,150.800 245.243 C 150.910 245.377,152.440 246.154,154.200 246.970 C 155.960 247.786,157.878 248.711,158.462 249.027 C 159.046 249.342,159.748 249.600,160.022 249.600 C 160.296 249.600,161.438 250.038,162.560 250.573 C 165.316 251.887,171.850 253.946,176.200 254.871 C 177.300 255.105,179.100 255.548,180.200 255.856 C 181.300 256.164,184.000 256.593,186.200 256.809 C 188.400 257.026,191.730 257.421,193.600 257.688 C 197.901 258.302,203.677 258.290,207.800 257.658 C 209.560 257.388,212.667 257.009,214.705 256.815 C 219.135 256.394,226.964 254.575,232.200 252.751 C 232.860 252.521,234.210 252.101,235.200 251.818 C 236.190 251.535,237.540 251.031,238.200 250.698 C 238.860 250.365,240.390 249.645,241.600 249.097 C 247.447 246.450,252.102 244.045,255.146 242.098 C 256.986 240.921,258.550 240.017,258.621 240.088 C 259.285 240.751,250.684 249.305,248.691 249.962 C 248.421 250.051,247.660 250.527,247.000 251.019 C 245.309 252.279,238.135 256.000,237.398 256.000 C 236.178 256.000,233.600 257.973,233.601 258.905 C 233.602 259.397,234.818 261.420,236.304 263.400 C 237.790 265.380,239.969 268.329,241.146 269.954 L 243.287 272.908 247.744 272.693 C 250.195 272.574,253.010 272.203,254.000 271.867 C 254.990 271.531,256.700 271.079,257.800 270.861 C 259.837 270.458,263.634 269.206,265.800 268.222 C 266.460 267.923,267.450 267.471,268.000 267.219 C 268.550 266.967,269.720 266.327,270.600 265.797 C 271.480 265.267,272.824 264.548,273.586 264.201 C 274.348 263.853,275.068 263.440,275.186 263.282 C 275.304 263.124,276.286 262.366,277.369 261.597 C 284.387 256.617,293.487 245.282,292.173 243.157 C 292.065 242.982,291.801 238.465,291.587 233.119 C 291.373 227.774,291.016 222.590,290.794 221.600 C 290.572 220.610,290.216 218.000,290.004 215.800 C 289.792 213.600,289.356 210.540,289.034 209.000 C 288.181 204.912,287.163 199.323,286.812 196.800 C 286.643 195.590,286.212 193.739,285.853 192.686 C 285.494 191.633,285.200 190.422,285.200 189.994 C 285.200 189.567,284.860 188.088,284.444 186.708 C 283.555 183.758,282.900 181.264,282.386 178.874 C 281.978 176.981,281.753 176.259,278.757 167.248 C 277.632 163.864,276.192 159.835,275.556 158.293 C 274.920 156.751,274.400 155.307,274.400 155.084 C 274.400 154.724,273.965 153.707,271.795 149.000 C 271.491 148.340,270.788 146.787,270.233 145.550 C 268.395 141.452,255.411 132.331,248.040 129.959 C 247.248 129.704,246.420 129.364,246.200 129.203 C 245.980 129.042,245.266 128.782,244.614 128.626 C 243.962 128.470,242.702 128.015,241.814 127.615 C 240.926 127.216,239.390 126.760,238.400 126.603 C 237.410 126.446,235.571 125.976,234.313 125.559 C 231.054 124.478,224.814 124.480,223.834 125.563 C 222.457 127.084,223.120 128.882,225.258 129.424 C 226.280 129.683,227.535 130.189,228.047 130.548 C 228.559 130.907,229.250 131.200,229.583 131.200 C 229.916 131.200,231.181 131.669,232.394 132.242 C 233.607 132.814,235.590 133.726,236.800 134.268 C 238.010 134.809,239.270 135.414,239.600 135.613 C 239.930 135.811,241.280 136.539,242.600 137.230 C 249.473 140.829,256.900 145.951,255.300 145.988 C 255.025 145.995,254.800 145.864,254.800 145.698 C 254.800 145.531,254.215 145.156,253.500 144.865 C 252.785 144.573,250.545 143.539,248.523 142.567 C 246.500 141.595,244.700 140.794,244.523 140.787 C 244.345 140.781,243.300 140.332,242.200 139.791 C 241.100 139.250,239.879 138.806,239.486 138.804 C 239.093 138.802,238.373 138.547,237.886 138.238 C 237.399 137.930,236.190 137.548,235.200 137.391 C 234.210 137.233,232.770 136.789,232.000 136.405 C 231.230 136.020,229.738 135.579,228.685 135.426 C 227.631 135.272,226.191 134.908,225.485 134.617 C 224.778 134.326,223.030 133.964,221.600 133.811 C 220.170 133.659,217.860 133.278,216.466 132.965 C 209.971 131.506,188.836 131.388,184.038 132.783 C 183.289 133.001,180.769 133.375,178.438 133.613 C 176.107 133.851,173.543 134.297,172.739 134.604 C 171.936 134.911,170.316 135.283,169.139 135.431 C 167.963 135.578,166.190 136.032,165.200 136.440 C 164.210 136.847,162.680 137.354,161.800 137.567 C 159.633 138.092,156.460 139.134,155.000 139.800 C 154.340 140.101,152.270 141.002,150.400 141.802 C 148.530 142.602,146.601 143.514,146.114 143.828 C 145.627 144.143,144.997 144.404,144.714 144.409 C 144.431 144.414,143.750 144.770,143.200 145.200 C 141.661 146.404,140.280 146.302,141.604 145.083 C 142.676 144.096,146.216 141.600,146.544 141.600 C 146.654 141.600,147.791 140.904,149.072 140.054 C 151.411 138.501,160.869 133.508,162.257 133.094 C 162.666 132.972,164.530 132.212,166.400 131.406 C 168.270 130.599,170.734 129.620,171.876 129.231 C 179.826 126.521,174.789 123.299,165.800 125.345 M175.097 126.288 C 175.304 126.912,173.071 128.290,171.000 128.817 C 168.982 129.331,164.471 131.219,159.200 133.754 C 149.773 138.290,137.600 146.256,137.600 147.890 C 137.600 148.740,138.261 148.511,144.345 145.554 C 147.565 143.989,150.740 142.466,151.400 142.169 C 154.510 140.771,156.751 139.884,158.400 139.396 C 159.390 139.104,161.010 138.597,162.000 138.270 C 166.777 136.691,169.314 136.000,170.337 136.000 C 170.953 136.000,172.255 135.735,173.229 135.411 C 174.203 135.087,177.160 134.551,179.800 134.219 C 182.440 133.888,185.860 133.409,187.400 133.155 C 197.617 131.473,217.750 133.137,230.000 136.676 C 231.210 137.025,233.100 137.545,234.200 137.831 C 236.626 138.460,240.564 139.826,242.200 140.604 C 242.860 140.918,244.660 141.708,246.200 142.360 C 247.740 143.012,250.397 144.278,252.104 145.173 C 253.811 146.068,255.402 146.800,255.640 146.800 C 255.879 146.800,256.531 147.160,257.091 147.600 C 258.297 148.549,259.200 148.634,259.200 147.800 C 259.200 147.470,259.065 147.200,258.900 147.200 C 258.735 147.200,257.839 146.504,256.909 145.654 C 254.345 143.311,240.193 134.400,239.035 134.400 C 238.942 134.400,237.155 133.590,235.064 132.600 C 232.974 131.610,231.049 130.800,230.786 130.800 C 230.524 130.800,229.654 130.440,228.854 130.000 C 228.055 129.561,226.680 129.058,225.800 128.882 C 224.303 128.585,224.200 128.475,224.200 127.182 L 224.200 125.800 227.600 125.680 C 235.989 125.385,253.195 131.822,262.079 138.579 C 262.673 139.031,264.354 140.300,265.814 141.400 C 268.674 143.554,268.655 143.523,272.497 152.419 C 273.095 153.805,274.485 157.387,275.981 161.400 C 280.611 173.816,286.575 196.735,287.797 206.800 C 287.944 208.010,288.229 209.648,288.431 210.439 C 288.633 211.231,289.073 214.561,289.408 217.839 C 289.744 221.118,290.182 224.700,290.383 225.800 C 290.583 226.900,290.855 231.850,290.987 236.800 L 291.227 245.800 288.560 249.512 C 285.036 254.417,277.274 261.477,273.000 263.666 C 272.340 264.004,270.720 264.836,269.400 265.515 C 263.598 268.498,260.220 269.704,254.400 270.869 C 245.822 272.585,243.933 272.501,242.249 270.327 C 238.985 266.115,234.400 259.494,234.400 258.993 C 234.400 258.270,236.984 256.611,238.607 256.294 C 243.206 255.393,256.720 245.260,259.655 240.511 C 261.446 237.614,259.656 238.240,252.378 243.059 C 251.597 243.576,250.766 244.000,250.532 244.000 C 250.299 244.000,249.679 244.335,249.154 244.745 C 248.629 245.155,247.750 245.627,247.200 245.795 C 246.650 245.963,244.769 246.798,243.019 247.650 C 241.270 248.503,239.650 249.201,239.419 249.202 C 239.189 249.204,238.460 249.493,237.800 249.844 C 234.427 251.641,226.969 253.759,216.200 255.978 C 202.057 258.892,178.061 256.204,163.200 250.040 C 162.210 249.630,160.410 248.888,159.200 248.393 C 153.901 246.223,147.933 243.073,143.481 240.096 C 136.158 235.200,141.941 243.394,150.176 249.581 C 153.269 251.905,157.654 254.378,163.595 257.149 C 165.631 258.099,165.535 258.858,162.932 262.391 C 161.649 264.131,159.700 266.843,158.600 268.416 C 157.500 269.990,156.299 271.492,155.932 271.754 C 155.077 272.364,148.969 271.919,145.973 271.029 C 144.808 270.683,143.362 270.400,142.761 270.400 C 142.159 270.400,140.826 270.040,139.800 269.600 C 138.774 269.160,137.667 268.800,137.342 268.800 C 135.982 268.800,128.532 265.026,124.000 262.040 C 120.244 259.566,113.612 253.228,110.566 249.202 L 108.600 246.604 108.477 241.802 C 108.233 232.231,109.087 222.752,111.766 205.299 C 113.116 196.506,116.348 183.286,119.908 172.000 C 120.914 168.810,121.964 165.660,122.240 165.000 C 122.516 164.340,123.488 161.640,124.400 159.000 C 125.312 156.360,126.213 153.907,126.401 153.550 C 126.590 153.192,127.329 151.392,128.044 149.550 C 130.141 144.143,133.061 140.894,138.800 137.582 C 139.570 137.138,141.100 136.218,142.200 135.537 C 146.731 132.731,155.117 128.800,156.569 128.800 C 156.848 128.800,157.600 128.541,158.239 128.225 C 162.138 126.294,174.624 124.859,175.097 126.288 M167.000 190.787 C 159.873 192.328,154.400 200.667,154.400 209.985 C 154.400 226.302,170.184 235.366,180.587 225.023 C 193.806 211.881,183.978 187.117,167.000 190.787 M225.789 190.773 C 223.386 190.957,222.263 191.243,221.327 191.910 C 220.639 192.399,219.898 192.800,219.679 192.800 C 217.992 192.800,212.889 200.774,212.050 204.720 C 207.181 227.636,234.108 239.344,242.401 217.916 C 247.821 203.912,239.153 189.748,225.789 190.773 M176.951 192.762 C 185.785 197.963,188.578 211.052,182.987 221.050 C 178.501 229.072,167.815 230.946,161.261 224.861 C 159.103 222.857,158.445 221.969,156.885 218.955 C 153.142 211.725,154.886 201.127,160.771 195.336 C 161.965 194.161,163.135 193.196,163.371 193.191 C 163.607 193.186,164.250 192.830,164.800 192.400 C 166.567 191.018,174.384 191.251,176.951 192.762 M233.907 192.611 C 249.153 200.759,244.436 228.400,227.800 228.400 C 211.847 228.400,206.298 200.770,220.722 193.160 C 221.670 192.660,222.535 192.105,222.646 191.926 C 223.191 191.044,231.975 191.579,233.907 192.611 M80.916 284.589 C 78.589 285.601,78.400 286.701,78.400 299.225 C 78.400 306.212,78.549 310.445,78.800 310.600 C 79.020 310.736,79.200 311.177,79.200 311.580 C 79.200 312.634,82.331 314.000,84.747 314.000 C 88.635 314.000,91.200 312.167,91.200 309.389 C 91.200 307.602,91.769 307.237,95.505 306.630 C 96.761 306.426,96.800 306.459,96.526 307.509 C 95.630 310.933,96.363 312.372,99.571 313.490 C 102.899 314.650,108.400 313.099,108.400 311.000 C 108.400 309.978,109.953 308.997,110.228 309.846 C 111.213 312.883,113.574 314.199,117.364 313.823 C 120.573 313.505,122.190 313.506,124.558 313.825 C 126.425 314.078,129.268 313.524,130.180 312.730 C 130.671 312.303,132.131 312.305,132.620 312.733 C 133.293 313.322,136.241 314.000,138.128 314.000 C 140.875 314.000,143.908 312.694,144.446 311.279 C 144.887 310.119,146.148 310.248,146.323 311.471 C 146.638 313.670,152.460 314.728,155.746 313.184 C 158.255 312.004,158.389 311.531,158.501 303.400 C 158.596 296.500,158.633 296.200,159.400 296.200 C 160.165 296.200,160.205 296.503,160.310 303.190 C 160.370 307.038,160.595 310.355,160.810 310.570 C 161.024 310.784,161.200 311.264,161.200 311.636 C 161.200 312.645,164.410 314.000,166.800 314.000 C 168.793 314.000,172.400 312.684,172.400 311.956 C 172.400 311.353,173.191 311.560,174.092 312.400 C 174.564 312.840,175.266 313.200,175.652 313.200 C 176.037 313.200,176.464 313.380,176.600 313.600 C 176.969 314.198,180.761 314.072,182.696 313.398 C 184.201 312.873,184.595 312.876,186.203 313.422 C 188.296 314.132,200.305 314.064,202.848 313.327 C 203.939 313.011,204.680 313.041,205.848 313.448 C 208.341 314.316,212.632 313.901,213.859 312.674 C 214.214 312.319,215.786 312.319,216.141 312.674 C 217.927 314.461,223.741 314.347,227.129 312.458 C 227.900 312.029,228.376 312.043,229.929 312.543 C 234.313 313.954,234.973 314.069,236.126 313.630 C 236.745 313.393,237.770 313.200,238.402 313.200 C 239.035 313.200,239.664 313.020,239.800 312.800 C 239.936 312.580,240.335 312.400,240.686 312.400 C 241.037 312.400,241.928 311.940,242.665 311.378 C 244.079 310.299,244.800 310.367,244.800 311.580 C 244.800 314.466,255.072 314.595,256.174 311.722 C 256.370 311.212,256.596 311.287,257.461 312.152 C 258.037 312.728,258.834 313.200,259.231 313.200 C 259.628 313.200,260.064 313.380,260.200 313.600 C 260.570 314.198,264.362 314.071,266.300 313.396 C 267.801 312.873,268.199 312.873,269.700 313.396 C 271.596 314.057,274.842 314.188,275.905 313.647 C 278.423 312.366,278.555 312.352,280.281 313.187 C 284.730 315.339,290.400 313.220,290.400 309.405 C 290.400 307.632,291.583 306.800,294.105 306.800 C 294.681 306.800,295.264 306.620,295.400 306.400 C 295.985 305.454,297.250 306.022,297.849 307.500 C 300.393 313.775,311.598 315.658,316.975 310.713 C 317.402 310.321,317.852 310.000,317.976 310.000 C 318.275 310.000,319.761 306.965,320.339 305.172 C 320.897 303.442,320.921 302.337,320.428 301.119 C 320.223 300.613,319.953 299.719,319.828 299.131 C 319.703 298.543,319.150 297.527,318.600 296.873 C 317.465 295.524,317.322 294.592,318.201 294.255 C 319.121 293.902,320.146 291.434,319.854 290.273 C 318.884 286.408,312.133 283.404,306.720 284.429 C 304.223 284.902,300.400 286.616,300.400 287.264 C 300.400 288.018,298.620 287.525,297.364 286.422 C 294.806 284.176,283.227 283.013,280.000 284.678 C 278.649 285.375,278.549 285.375,277.119 284.668 C 275.910 284.070,275.067 283.978,272.519 284.170 C 268.500 284.472,267.157 284.472,264.062 284.172 C 260.763 283.851,258.946 284.218,257.710 285.454 L 256.709 286.454 255.855 285.654 C 253.301 283.262,245.569 283.503,244.917 285.995 C 244.649 287.022,244.326 287.007,242.277 285.868 C 237.406 283.162,230.259 283.948,226.522 287.603 L 225.324 288.773 224.162 287.550 C 221.540 284.790,217.687 283.841,210.400 284.161 C 207.650 284.282,204.725 284.373,203.900 284.363 C 201.120 284.330,186.014 284.345,184.500 284.382 C 183.675 284.402,181.858 284.307,180.462 284.172 C 177.029 283.838,175.279 284.231,173.975 285.627 L 172.887 286.792 172.257 285.832 C 171.331 284.417,169.220 283.869,165.863 284.173 C 164.289 284.315,162.460 284.394,161.800 284.347 C 161.140 284.301,156.624 284.249,151.765 284.231 L 142.931 284.200 141.302 285.329 C 139.694 286.443,139.656 286.449,138.346 285.772 C 136.038 284.578,132.750 284.029,127.828 284.014 C 120.375 283.992,119.205 284.838,119.195 290.260 C 119.183 295.929,118.552 296.099,116.822 290.900 C 114.806 284.844,113.865 283.981,109.313 284.019 C 105.645 284.050,104.399 284.882,103.202 288.099 C 102.127 290.990,101.775 291.312,101.238 289.899 C 100.732 288.570,97.045 285.272,95.735 284.977 C 95.111 284.837,93.970 284.561,93.200 284.363 C 90.953 283.787,82.399 283.945,80.916 284.589 M95.120 288.162 C 102.785 292.150,99.656 304.000,90.939 304.000 L 88.034 304.000 87.917 307.100 L 87.800 310.200 84.900 310.318 L 82.000 310.435 82.000 299.018 L 82.000 287.600 88.020 287.600 C 92.411 287.600,94.332 287.752,95.120 288.162 M112.515 288.300 C 112.630 288.685,113.836 292.150,115.196 296.000 C 120.714 311.625,120.580 310.400,116.768 310.400 C 113.723 310.400,114.037 310.645,112.781 307.284 L 112.289 305.967 109.508 306.084 L 106.727 306.200 106.039 308.200 L 105.350 310.200 102.615 310.320 C 99.542 310.454,98.838 310.093,99.473 308.708 C 99.702 308.209,100.106 307.080,100.371 306.200 C 100.636 305.320,101.012 304.240,101.205 303.800 C 101.399 303.360,102.581 299.940,103.832 296.200 C 105.082 292.460,106.257 288.995,106.443 288.500 C 106.898 287.284,112.161 287.111,112.515 288.300 M136.717 288.687 C 140.817 291.346,141.140 299.476,137.243 301.907 C 136.669 302.265,136.137 302.600,136.060 302.652 C 135.943 302.731,138.151 305.751,138.800 306.400 C 139.790 307.390,141.510 309.957,141.314 310.153 C 141.178 310.289,139.575 310.400,137.753 310.400 L 134.438 310.400 133.146 308.500 C 132.435 307.455,131.742 306.510,131.607 306.400 C 131.472 306.290,130.953 305.615,130.453 304.900 C 128.927 302.714,128.448 303.163,128.316 306.900 L 128.200 310.200 125.400 310.200 L 122.600 310.200 122.493 299.406 C 122.435 293.469,122.474 288.384,122.581 288.106 C 123.022 286.955,134.792 287.439,136.717 288.687 M160.800 290.157 C 160.800 293.099,160.686 293.200,157.375 293.200 L 155.216 293.200 155.108 301.700 L 155.000 310.200 152.100 310.318 L 149.200 310.435 149.200 301.818 L 149.200 293.200 146.833 293.200 C 143.292 293.200,143.200 293.123,143.200 290.157 L 143.200 287.600 152.000 287.600 L 160.800 287.600 160.800 290.157 M170.373 288.762 C 170.828 289.401,171.200 290.012,171.200 290.121 C 171.200 290.229,171.954 291.552,172.875 293.059 C 173.797 294.567,174.966 296.610,175.474 297.600 L 176.397 299.400 176.398 293.500 L 176.400 287.600 179.200 287.600 L 182.000 287.600 182.000 299.018 L 182.000 310.435 179.142 310.318 C 176.780 310.220,176.207 310.062,175.842 309.407 C 175.599 308.970,174.931 307.890,174.358 307.007 C 173.785 306.123,172.553 304.005,171.622 302.300 C 170.690 300.595,169.899 299.200,169.864 299.200 C 169.829 299.200,169.800 301.675,169.800 304.700 L 169.800 310.200 167.000 310.200 L 164.200 310.200 164.094 298.900 L 163.988 287.600 166.767 287.600 C 169.377 287.600,169.596 287.670,170.373 288.762 M202.400 290.157 C 202.400 293.270,202.530 293.200,196.743 293.200 L 192.352 293.200 192.476 294.700 L 192.600 296.200 196.200 296.300 C 201.720 296.453,201.600 296.388,201.600 299.208 L 201.600 301.600 197.633 301.600 C 192.875 301.600,192.400 301.745,192.400 303.200 C 192.400 304.671,192.855 304.800,198.051 304.800 L 202.437 304.800 202.318 307.500 L 202.200 310.200 194.500 310.309 L 186.800 310.417 186.800 299.009 L 186.800 287.600 194.600 287.600 L 202.400 287.600 202.400 290.157 M220.317 288.687 C 224.165 291.183,224.771 299.574,221.250 301.599 C 219.434 302.644,219.435 302.639,220.846 304.457 C 221.591 305.416,222.290 306.290,222.400 306.400 C 223.390 307.390,225.110 309.957,224.914 310.153 C 224.778 310.289,223.175 310.400,221.353 310.400 L 218.038 310.400 216.746 308.500 C 216.035 307.455,215.342 306.510,215.207 306.400 C 215.072 306.290,214.553 305.615,214.053 304.900 C 212.527 302.714,212.048 303.163,211.916 306.900 L 211.800 310.200 209.000 310.200 L 206.200 310.200 206.093 299.406 C 206.035 293.469,206.074 288.384,206.181 288.106 C 206.622 286.955,218.392 287.439,220.317 288.687 M241.181 288.986 C 243.386 290.515,243.519 290.957,242.138 292.184 C 240.586 293.564,239.400 293.823,238.211 293.044 C 236.518 291.935,233.671 292.180,233.349 293.462 C 233.028 294.742,233.840 295.475,235.969 295.826 C 240.299 296.539,243.319 298.693,243.833 301.434 C 245.300 309.253,233.829 313.604,228.027 307.429 C 226.877 306.204,227.100 305.567,229.219 304.032 L 230.876 302.832 231.976 303.646 C 234.153 305.255,238.000 304.988,238.000 303.229 C 238.000 302.401,237.579 302.181,234.400 301.351 C 227.092 299.441,224.692 293.425,229.585 289.279 C 232.117 287.134,238.285 286.978,241.181 288.986 M253.600 291.817 L 253.600 296.034 256.700 295.917 L 259.800 295.800 259.914 291.700 L 260.028 287.600 262.814 287.600 L 265.600 287.600 265.600 299.018 L 265.600 310.437 262.900 310.318 L 260.200 310.200 260.086 306.104 C 259.955 301.410,259.992 301.449,255.979 301.676 L 253.800 301.800 253.600 306.000 L 253.400 310.200 250.600 310.200 L 247.800 310.200 247.694 298.900 L 247.588 287.600 250.594 287.600 L 253.600 287.600 253.600 291.817 M275.906 298.900 L 275.800 310.200 273.100 310.318 L 270.400 310.437 270.400 299.018 L 270.400 287.600 273.206 287.600 L 276.012 287.600 275.906 298.900 M294.126 288.049 C 301.981 292.084,299.002 304.000,290.139 304.000 L 287.234 304.000 287.117 307.100 L 287.000 310.200 284.100 310.318 L 281.200 310.435 281.200 299.018 L 281.200 287.600 287.226 287.600 C 290.896 287.600,293.594 287.776,294.126 288.049 M313.516 288.361 C 314.332 288.780,315.419 289.571,315.931 290.119 L 316.861 291.117 315.003 292.536 L 313.145 293.955 311.872 293.179 C 309.401 291.672,305.539 292.528,306.660 294.334 C 307.053 294.965,307.788 295.260,311.991 296.472 C 317.837 298.157,319.278 305.631,314.328 308.595 C 309.953 311.215,305.666 310.990,302.215 307.959 C 300.428 306.391,300.443 306.015,302.362 304.282 L 303.924 302.870 305.830 303.835 C 307.948 304.907,309.068 305.025,310.581 304.336 C 312.711 303.365,311.686 302.299,307.586 301.223 C 297.449 298.561,298.513 287.677,308.916 287.618 C 311.219 287.605,312.419 287.799,313.516 288.361 M88.082 295.900 L 88.200 298.600 90.065 298.721 C 93.056 298.914,94.617 296.430,92.977 294.089 C 92.462 293.354,91.974 293.200,90.159 293.200 L 87.963 293.200 88.082 295.900 M128.480 295.500 L 128.600 297.800 130.162 297.928 C 132.480 298.118,133.444 297.743,133.983 296.442 C 134.842 294.366,133.674 293.200,130.734 293.200 L 128.360 293.200 128.480 295.500 M212.080 295.500 L 212.200 297.800 213.762 297.928 C 216.080 298.118,217.044 297.743,217.583 296.442 C 218.442 294.366,217.274 293.200,214.334 293.200 L 211.960 293.200 212.080 295.500 M287.282 295.900 L 287.400 298.600 289.265 298.721 C 292.256 298.914,293.817 296.430,292.177 294.089 C 291.662 293.354,291.174 293.200,289.359 293.200 L 287.163 293.200 287.282 295.900 M109.452 295.916 C 108.987 296.669,108.098 300.364,108.327 300.594 C 108.760 301.026,110.799 300.782,110.783 300.300 C 110.734 298.866,109.711 295.496,109.452 295.916 M145.511 302.121 C 145.624 308.170,145.252 310.375,144.450 308.400 C 144.227 307.850,143.317 306.590,142.428 305.600 C 140.511 303.464,140.570 303.859,141.802 301.432 C 142.351 300.350,142.800 299.014,142.800 298.464 C 142.800 297.259,143.910 295.924,144.775 296.090 C 145.302 296.191,145.417 297.139,145.511 302.121 M226.800 301.327 C 226.800 301.591,226.440 302.032,226.000 302.307 C 225.096 302.872,224.946 302.421,225.620 301.163 C 226.050 300.360,226.800 300.464,226.800 301.327 M182.600 321.652 C 171.596 324.283,167.609 329.961,167.609 343.000 C 167.609 352.728,169.366 357.330,174.400 360.797 C 175.170 361.328,175.890 361.860,176.000 361.981 C 176.110 362.102,176.650 362.408,177.200 362.660 C 180.556 364.201,180.546 364.200,200.000 364.200 L 219.000 364.200 221.715 362.851 C 230.400 358.535,234.187 348.611,231.837 336.327 C 230.484 329.255,224.802 323.314,218.000 321.858 C 215.586 321.341,184.653 321.161,182.600 321.652 M219.000 325.200 C 219.136 325.420,219.597 325.600,220.024 325.600 C 220.451 325.600,220.800 325.736,220.800 325.902 C 220.800 326.069,221.385 326.461,222.100 326.775 C 223.566 327.418,226.800 330.644,226.800 331.464 C 226.800 331.759,226.936 332.000,227.102 332.000 C 227.269 332.000,227.640 332.585,227.929 333.300 C 228.217 334.015,228.621 334.913,228.826 335.295 C 229.032 335.677,229.200 339.144,229.200 343.000 C 229.200 346.856,229.032 350.323,228.826 350.705 C 228.621 351.087,228.217 351.985,227.929 352.700 C 227.640 353.415,227.269 354.000,227.102 354.000 C 226.936 354.000,226.800 354.241,226.800 354.536 C 226.800 355.194,223.450 358.800,222.840 358.800 C 222.598 358.800,222.400 358.936,222.400 359.102 C 222.400 359.269,221.815 359.640,221.100 359.929 C 220.385 360.217,219.487 360.621,219.105 360.826 C 218.133 361.350,180.400 361.324,180.400 360.800 C 180.400 360.580,180.040 360.400,179.600 360.400 C 179.160 360.400,178.800 360.220,178.800 360.000 C 178.800 359.780,178.522 359.600,178.183 359.600 C 177.508 359.600,177.382 359.515,174.900 357.374 C 173.965 356.567,173.200 355.673,173.200 355.387 C 173.200 355.101,173.065 354.807,172.900 354.733 C 171.312 354.027,170.800 351.169,170.800 343.000 C 170.800 335.353,170.853 334.774,171.700 333.148 C 173.395 329.893,176.762 326.400,178.205 326.400 C 178.532 326.400,178.800 326.220,178.800 326.000 C 178.800 325.780,179.160 325.600,179.600 325.600 C 180.040 325.600,180.400 325.420,180.400 325.200 C 180.400 324.939,187.059 324.800,199.576 324.800 C 211.929 324.800,218.841 324.942,219.000 325.200 M181.467 335.467 C 181.320 335.613,181.239 338.988,181.286 342.967 L 181.372 350.200 181.586 343.000 L 181.800 335.800 184.800 335.572 L 187.800 335.344 184.767 335.272 C 183.098 335.232,181.613 335.320,181.467 335.467 M203.683 335.595 C 204.279 335.775,205.314 336.312,205.983 336.788 C 206.653 337.265,207.200 337.559,207.200 337.442 C 207.200 336.971,204.161 335.202,203.407 335.234 C 202.787 335.261,202.851 335.344,203.683 335.595 M208.987 336.040 C 208.611 337.226,209.082 337.511,211.681 337.665 C 212.936 337.739,213.836 337.676,213.681 337.524 C 213.527 337.372,212.500 337.192,211.400 337.124 C 209.944 337.034,209.400 336.837,209.400 336.400 C 209.400 335.435,220.934 335.513,221.120 336.479 C 221.229 337.045,220.862 337.179,218.925 337.279 L 216.600 337.400 216.400 344.463 C 216.290 348.347,216.335 351.442,216.500 351.339 C 216.665 351.237,216.800 348.103,216.800 344.376 L 216.800 337.600 218.976 337.600 C 221.298 337.600,221.802 337.267,221.399 335.996 C 220.996 334.728,209.391 334.769,208.987 336.040 M195.381 338.429 C 194.816 339.325,194.439 340.270,194.545 340.529 C 194.682 340.866,194.746 340.855,194.768 340.492 C 194.786 340.213,195.252 339.268,195.805 338.392 C 196.358 337.516,196.720 336.800,196.610 336.800 C 196.500 336.800,195.947 337.533,195.381 338.429 M183.764 337.751 C 183.647 338.054,183.608 339.179,183.676 340.251 L 183.800 342.200 185.303 342.242 L 186.807 342.284 185.403 342.118 L 184.000 341.952 184.000 339.801 C 184.000 337.675,184.015 337.649,185.300 337.489 L 186.600 337.328 185.287 337.264 C 184.493 337.225,183.891 337.417,183.764 337.751 M200.705 337.483 C 201.202 337.579,201.922 337.575,202.305 337.475 C 202.687 337.375,202.280 337.296,201.400 337.301 C 200.520 337.305,200.207 337.387,200.705 337.483 M187.511 338.223 C 188.564 338.960,188.660 340.250,187.738 341.269 C 186.930 342.161,187.295 342.248,188.171 341.371 C 189.330 340.213,188.575 337.600,187.082 337.600 C 186.829 337.600,187.022 337.880,187.511 338.223 M198.475 338.416 C 197.994 338.864,197.600 339.346,197.600 339.485 C 197.600 339.625,198.050 339.317,198.600 338.800 C 199.538 337.919,199.771 337.600,199.475 337.600 C 199.407 337.600,198.957 337.967,198.475 338.416 M204.434 338.647 C 204.965 339.333,205.480 339.823,205.579 339.735 C 205.677 339.647,205.243 339.086,204.613 338.488 L 203.469 337.400 204.434 338.647 M190.867 339.424 C 190.830 340.316,190.536 341.396,190.213 341.824 C 189.411 342.883,189.457 343.501,190.357 343.786 C 191.333 344.096,192.141 346.057,191.919 347.573 C 191.823 348.225,191.892 348.667,192.072 348.555 C 193.050 347.951,192.166 344.725,190.704 343.561 C 189.940 342.953,189.933 342.873,190.577 341.892 C 191.014 341.224,191.196 340.322,191.093 339.331 L 190.934 337.800 190.867 339.424 M213.757 344.000 C 213.757 346.970,213.820 348.185,213.897 346.700 C 213.974 345.215,213.974 342.785,213.897 341.300 C 213.820 339.815,213.757 341.030,213.757 344.000 M208.304 342.308 C 208.505 346.167,208.701 346.649,208.747 343.400 C 208.770 341.860,208.647 340.379,208.475 340.108 C 208.304 339.838,208.226 340.828,208.304 342.308 M197.067 340.267 C 195.999 341.334,197.332 349.200,198.581 349.200 C 198.686 349.200,198.405 348.577,197.956 347.815 C 197.276 346.663,197.160 345.887,197.269 343.214 C 197.341 341.445,197.385 339.999,197.367 339.999 C 197.348 340.000,197.213 340.120,197.067 340.267 M206.072 343.267 C 206.032 344.294,205.896 345.464,205.770 345.867 C 205.554 346.554,205.568 346.556,205.992 345.897 C 206.240 345.510,206.376 344.340,206.294 343.297 L 206.144 341.400 206.072 343.267 M194.109 343.600 C 194.109 344.590,194.187 344.995,194.282 344.500 C 194.378 344.005,194.378 343.195,194.282 342.700 C 194.187 342.205,194.109 342.610,194.109 343.600 M183.765 344.548 C 183.649 344.849,183.610 346.064,183.677 347.248 L 183.800 349.400 185.902 349.435 L 188.005 349.470 186.002 349.314 L 184.000 349.158 184.000 346.802 L 184.000 344.446 185.700 344.293 L 187.400 344.140 185.687 344.070 C 184.555 344.024,183.904 344.185,183.765 344.548 M194.416 346.720 C 194.391 347.551,195.438 349.334,196.459 350.198 L 197.400 350.994 196.522 349.994 C 196.038 349.444,195.370 348.366,195.037 347.597 C 194.704 346.829,194.424 346.434,194.416 346.720 M204.333 348.166 C 203.376 349.273,203.047 349.395,201.133 349.353 C 199.312 349.313,199.176 349.357,200.200 349.654 C 202.102 350.206,206.709 347.990,205.571 347.070 C 205.477 346.995,204.920 347.488,204.333 348.166 M206.693 349.203 C 206.118 350.081,205.717 350.800,205.803 350.800 C 206.113 350.800,208.107 347.974,207.925 347.792 C 207.823 347.689,207.268 348.324,206.693 349.203 M190.749 349.861 C 190.447 350.225,189.660 350.758,189.000 351.046 C 188.276 351.361,188.075 351.575,188.494 351.584 C 189.116 351.598,192.153 349.240,191.549 349.212 C 191.411 349.205,191.051 349.498,190.749 349.861 M183.507 351.890 C 184.226 351.979,185.306 351.977,185.907 351.886 C 186.508 351.795,185.920 351.722,184.600 351.724 C 183.280 351.726,182.788 351.801,183.507 351.890 M200.100 351.887 C 200.705 351.978,201.695 351.978,202.300 351.887 C 202.905 351.795,202.410 351.720,201.200 351.720 C 199.990 351.720,199.495 351.795,200.100 351.887 " stroke="none" fill="#98b9d8" fill-rule="evenodd"></path><path id="path4" d="M163.600 126.668 C 161.290 127.208,158.877 127.908,158.239 128.225 C 157.600 128.541,156.848 128.800,156.569 128.800 C 155.117 128.800,146.731 132.731,142.200 135.537 C 141.100 136.218,139.570 137.138,138.800 137.582 C 133.061 140.894,130.141 144.143,128.044 149.550 C 127.329 151.392,126.590 153.192,126.401 153.550 C 126.213 153.907,125.312 156.360,124.400 159.000 C 123.488 161.640,122.516 164.340,122.240 165.000 C 120.230 169.803,115.777 185.668,113.566 195.899 C 112.298 201.763,111.923 203.992,110.184 216.000 C 109.015 224.067,108.300 234.872,108.477 241.802 L 108.600 246.604 110.566 249.202 C 113.612 253.228,120.244 259.566,124.000 262.040 C 128.532 265.026,135.982 268.800,137.342 268.800 C 137.667 268.800,138.774 269.160,139.800 269.600 C 140.826 270.040,142.159 270.400,142.761 270.400 C 143.362 270.400,144.808 270.683,145.973 271.029 C 148.969 271.919,155.077 272.364,155.932 271.754 C 156.299 271.492,157.500 269.990,158.600 268.416 C 159.700 266.843,161.649 264.131,162.932 262.391 C 165.535 258.858,165.631 258.099,163.595 257.149 C 157.654 254.378,153.269 251.905,150.176 249.581 C 141.941 243.394,136.158 235.200,143.481 240.096 C 147.933 243.073,153.901 246.223,159.200 248.393 C 160.410 248.888,162.210 249.630,163.200 250.040 C 178.061 256.204,202.057 258.892,216.200 255.978 C 226.969 253.759,234.427 251.641,237.800 249.844 C 238.460 249.493,239.189 249.204,239.419 249.202 C 239.650 249.201,241.270 248.503,243.019 247.650 C 244.769 246.798,246.650 245.963,247.200 245.795 C 247.750 245.627,248.629 245.155,249.154 244.745 C 249.679 244.335,250.299 244.000,250.532 244.000 C 250.766 244.000,251.597 243.576,252.378 243.059 C 259.656 238.240,261.446 237.614,259.655 240.511 C 256.720 245.260,243.206 255.393,238.607 256.294 C 236.984 256.611,234.400 258.270,234.400 258.993 C 234.400 259.494,238.985 266.115,242.249 270.327 C 243.933 272.501,245.822 272.585,254.400 270.869 C 260.220 269.704,263.598 268.498,269.400 265.515 C 270.720 264.836,272.340 264.004,273.000 263.666 C 277.274 261.477,285.036 254.417,288.560 249.512 L 291.227 245.800 290.987 236.800 C 290.855 231.850,290.583 226.900,290.383 225.800 C 290.182 224.700,289.744 221.118,289.408 217.839 C 289.073 214.561,288.633 211.231,288.431 210.439 C 288.229 209.648,287.944 208.010,287.797 206.800 C 286.575 196.735,280.611 173.816,275.981 161.400 C 274.485 157.387,273.095 153.805,272.497 152.419 C 268.655 143.523,268.674 143.554,265.814 141.400 C 264.354 140.300,262.673 139.031,262.079 138.579 C 253.195 131.822,235.989 125.385,227.600 125.680 L 224.200 125.800 224.200 127.182 C 224.200 128.475,224.303 128.585,225.800 128.882 C 226.680 129.058,228.055 129.561,228.854 130.000 C 229.654 130.440,230.524 130.800,230.786 130.800 C 231.049 130.800,232.974 131.610,235.064 132.600 C 237.155 133.590,238.942 134.400,239.035 134.400 C 240.193 134.400,254.345 143.311,256.909 145.654 C 257.839 146.504,258.735 147.200,258.900 147.200 C 259.065 147.200,259.200 147.470,259.200 147.800 C 259.200 148.634,258.297 148.549,257.091 147.600 C 256.531 147.160,255.879 146.800,255.640 146.800 C 255.402 146.800,253.811 146.068,252.104 145.173 C 250.397 144.278,247.740 143.012,246.200 142.360 C 244.660 141.708,242.860 140.918,242.200 140.604 C 240.564 139.826,236.626 138.460,234.200 137.831 C 233.100 137.545,231.210 137.025,230.000 136.676 C 217.750 133.137,197.617 131.473,187.400 133.155 C 185.860 133.409,182.440 133.888,179.800 134.219 C 177.160 134.551,174.203 135.087,173.229 135.411 C 172.255 135.735,170.953 136.000,170.337 136.000 C 169.314 136.000,166.777 136.691,162.000 138.270 C 161.010 138.597,159.390 139.104,158.400 139.396 C 156.751 139.884,154.510 140.771,151.400 142.169 C 150.740 142.466,147.565 143.989,144.345 145.554 C 134.544 150.318,135.599 147.913,146.400 140.870 C 153.344 136.342,166.214 130.036,171.000 128.817 C 179.838 126.566,172.793 124.520,163.600 126.668 M174.000 126.381 C 174.000 126.982,169.238 128.961,165.386 129.962 C 164.719 130.135,163.369 130.695,162.386 131.207 C 161.404 131.718,160.240 132.318,159.800 132.540 C 148.308 138.333,138.834 144.468,135.787 148.088 C 133.874 150.361,135.461 151.067,138.610 149.343 C 142.653 147.129,149.762 143.600,150.177 143.600 C 150.413 143.600,151.452 143.150,152.485 142.600 C 153.518 142.050,154.604 141.600,154.897 141.600 C 155.191 141.600,156.137 141.240,157.000 140.800 C 157.863 140.360,158.886 140.000,159.274 140.000 C 159.661 140.000,160.748 139.660,161.689 139.244 C 163.717 138.347,169.236 136.800,170.406 136.800 C 170.859 136.800,173.247 136.363,175.714 135.829 C 189.814 132.776,209.942 132.694,221.800 135.642 C 223.560 136.080,225.900 136.595,227.000 136.788 C 229.793 137.276,233.867 138.369,236.000 139.201 C 240.795 141.073,242.246 141.600,242.601 141.600 C 243.325 141.600,254.446 147.084,257.569 148.981 C 260.130 150.537,261.297 150.676,261.533 149.453 C 261.682 148.677,259.396 146.000,258.584 146.000 C 258.331 146.000,257.781 145.619,257.362 145.153 C 256.327 144.003,249.797 139.474,247.149 138.069 C 245.967 137.443,244.370 136.537,243.600 136.056 C 241.583 134.798,231.778 130.000,231.224 130.000 C 230.967 130.000,230.001 129.660,229.078 129.245 C 228.155 128.830,226.805 128.364,226.077 128.208 C 225.016 127.982,224.778 127.755,224.877 127.063 C 225.039 125.929,230.010 125.836,232.708 126.916 C 233.648 127.292,234.908 127.597,235.508 127.594 C 236.896 127.587,241.567 128.991,244.309 130.240 C 245.469 130.768,246.586 131.200,246.792 131.200 C 247.497 131.200,255.397 135.203,258.046 136.902 C 265.537 141.708,267.561 143.417,268.826 146.000 C 270.413 149.241,273.200 155.827,273.200 156.337 C 273.200 156.580,273.547 157.548,273.970 158.489 C 274.954 160.675,276.067 163.804,277.211 167.600 C 277.708 169.250,278.343 171.230,278.623 172.000 C 279.727 175.040,280.476 177.512,281.024 179.924 C 281.340 181.313,281.763 182.757,281.964 183.133 C 282.166 183.510,282.508 184.714,282.724 185.809 C 283.133 187.878,284.050 191.812,285.006 195.600 C 285.312 196.810,285.661 198.687,285.783 199.772 C 285.905 200.856,286.261 202.656,286.574 203.772 C 287.713 207.826,289.845 228.013,290.232 238.400 L 290.493 245.400 288.390 248.507 C 286.057 251.953,280.207 257.768,276.324 260.502 C 273.353 262.594,266.635 266.399,265.907 266.402 C 265.628 266.404,264.860 266.695,264.200 267.049 C 262.122 268.164,257.137 269.622,253.400 270.208 C 243.135 271.818,244.309 271.936,242.196 269.084 C 234.192 258.281,234.339 258.731,238.316 257.202 C 240.530 256.351,241.391 255.940,245.200 253.916 C 252.910 249.821,263.838 238.616,261.547 237.157 C 260.812 236.689,260.357 236.892,256.615 239.363 C 252.472 242.098,247.208 245.200,246.710 245.200 C 246.496 245.200,244.854 245.906,243.061 246.769 C 241.267 247.632,239.260 248.466,238.600 248.623 C 237.940 248.780,236.950 249.150,236.400 249.446 C 234.965 250.216,231.053 251.536,227.772 252.357 C 226.216 252.746,224.723 253.200,224.453 253.367 C 224.184 253.534,222.486 253.906,220.682 254.195 C 218.877 254.484,216.140 254.991,214.600 255.323 C 210.831 256.134,200.746 256.485,193.400 256.062 C 185.260 255.592,174.999 253.418,167.000 250.468 C 165.240 249.819,163.170 249.071,162.400 248.806 C 161.630 248.541,160.280 247.998,159.400 247.600 C 158.520 247.202,156.900 246.490,155.800 246.017 C 153.035 244.828,149.128 242.790,148.369 242.140 C 148.021 241.843,147.447 241.600,147.092 241.600 C 146.737 241.600,146.339 241.426,146.208 241.213 C 145.733 240.444,139.791 236.782,139.202 236.895 C 135.545 237.599,147.287 249.693,156.164 254.364 C 157.464 255.048,158.724 255.761,158.964 255.949 C 159.204 256.136,159.940 256.419,160.600 256.576 C 164.235 257.443,164.926 258.670,163.068 260.959 C 162.336 261.861,160.825 263.950,159.712 265.600 C 158.598 267.250,157.082 269.278,156.343 270.106 L 155.000 271.611 148.600 270.602 C 145.080 270.046,141.521 269.324,140.692 268.996 C 139.862 268.668,138.854 268.400,138.451 268.400 C 138.049 268.400,136.873 267.950,135.838 267.400 C 134.804 266.850,133.643 266.400,133.259 266.400 C 132.874 266.400,132.389 266.238,132.180 266.040 C 131.971 265.842,130.388 264.933,128.662 264.020 C 126.937 263.108,125.317 262.195,125.062 261.992 C 124.808 261.789,122.992 260.358,121.026 258.811 C 117.295 255.875,112.855 251.210,110.550 247.805 L 109.200 245.811 109.208 237.805 C 109.212 233.402,109.386 228.621,109.595 227.180 C 109.803 225.740,110.158 222.860,110.384 220.780 C 111.297 212.364,113.635 198.608,115.002 193.613 C 115.331 192.410,115.600 191.073,115.600 190.641 C 115.600 190.210,115.952 188.674,116.383 187.228 C 116.814 185.783,117.559 183.070,118.038 181.200 C 118.517 179.330,120.153 174.110,121.673 169.600 C 123.194 165.090,124.624 160.680,124.853 159.800 C 125.081 158.920,125.420 157.840,125.606 157.400 C 125.792 156.960,126.422 155.430,127.006 154.000 C 127.590 152.570,128.307 150.860,128.599 150.200 C 128.892 149.540,129.607 147.920,130.188 146.600 C 131.296 144.083,131.790 143.562,135.984 140.492 C 143.831 134.746,159.150 127.589,163.600 127.588 C 164.150 127.588,165.680 127.241,167.000 126.816 C 169.516 126.006,174.000 125.727,174.000 126.381 M166.000 190.142 C 161.552 191.597,157.305 195.982,155.131 201.364 C 152.836 207.046,153.445 217.510,156.264 220.831 C 156.559 221.179,156.800 221.660,156.800 221.900 C 156.800 222.976,162.279 227.957,164.608 228.999 C 168.194 230.603,172.885 230.621,176.200 229.045 C 180.347 227.072,181.834 225.586,185.326 219.921 C 193.687 206.358,180.157 185.510,166.000 190.142 M223.600 190.138 C 218.250 191.510,213.084 197.420,211.415 204.078 C 206.223 224.795,228.949 239.563,240.572 223.024 C 251.252 207.827,239.958 185.944,223.600 190.138 M176.741 191.864 C 188.059 197.332,190.166 215.500,180.587 225.023 C 170.184 235.366,154.400 226.302,154.400 209.985 C 154.400 195.950,165.897 186.625,176.741 191.864 M233.848 191.796 C 247.558 197.904,246.881 222.850,232.855 228.378 C 218.787 233.924,206.178 215.133,213.812 200.000 C 215.094 197.458,218.890 192.800,219.679 192.800 C 219.898 192.800,220.639 192.399,221.327 191.910 C 223.682 190.233,230.207 190.174,233.848 191.796 M82.094 298.918 L 82.000 310.435 84.900 310.318 L 87.800 310.200 87.917 307.100 L 88.034 304.000 90.939 304.000 C 95.424 304.000,99.312 300.934,99.159 297.516 C 99.128 296.816,99.019 296.930,98.696 298.000 C 97.606 301.615,95.243 303.289,90.800 303.594 L 87.800 303.800 87.683 306.900 L 87.566 310.000 84.989 310.000 L 82.412 310.000 82.300 298.700 L 82.187 287.400 82.094 298.918 M93.680 288.144 C 95.747 288.787,97.887 290.996,98.557 293.177 C 98.923 294.370,99.131 294.682,99.158 294.080 C 99.280 291.397,95.649 287.527,93.120 287.642 C 92.430 287.673,92.570 287.799,93.680 288.144 M106.623 288.043 C 106.516 288.349,105.882 290.119,105.214 291.977 C 103.903 295.623,103.784 296.181,104.400 295.800 C 104.620 295.664,104.800 295.143,104.800 294.643 C 104.800 294.143,104.922 293.611,105.071 293.462 C 105.462 293.071,107.182 287.849,106.985 287.651 C 106.893 287.560,106.731 287.736,106.623 288.043 M134.428 288.142 C 140.086 289.957,141.566 298.207,136.837 301.573 C 135.185 302.750,135.330 303.052,140.435 309.100 L 141.195 310.000 137.894 310.000 C 134.898 310.000,134.542 309.917,134.050 309.100 C 129.996 302.377,128.000 301.552,128.000 306.600 L 128.000 310.000 125.406 310.000 L 122.813 310.000 122.696 298.900 L 122.580 287.800 122.590 299.000 L 122.600 310.200 125.400 310.200 L 128.200 310.200 128.316 306.900 C 128.448 303.163,128.927 302.714,130.453 304.900 C 130.953 305.615,131.472 306.290,131.607 306.400 C 131.742 306.510,132.435 307.455,133.146 308.500 L 134.438 310.400 137.753 310.400 C 139.575 310.400,141.178 310.289,141.314 310.153 C 141.510 309.957,139.790 307.390,138.800 306.400 C 138.151 305.751,135.943 302.731,136.060 302.652 C 136.137 302.600,136.669 302.265,137.243 301.907 C 142.261 298.776,139.693 287.409,134.020 287.642 C 133.129 287.679,133.180 287.742,134.428 288.142 M143.200 290.157 C 143.200 293.123,143.292 293.200,146.833 293.200 L 149.200 293.200 149.200 301.818 L 149.200 310.435 152.100 310.318 L 155.000 310.200 155.108 301.700 L 155.216 293.200 157.375 293.200 C 160.722 293.200,160.810 293.117,160.731 290.057 L 160.662 287.400 160.431 290.000 L 160.200 292.600 157.400 292.800 L 154.600 293.000 154.492 301.500 L 154.384 310.000 152.000 310.000 L 149.616 310.000 149.508 301.500 L 149.400 293.000 146.703 292.882 C 143.661 292.748,143.364 292.390,143.668 289.204 C 143.752 288.322,143.681 287.600,143.511 287.600 C 143.340 287.600,143.200 288.751,143.200 290.157 M164.190 298.800 L 164.200 310.200 167.000 310.200 L 169.800 310.200 169.800 304.700 C 169.800 301.675,169.829 299.200,169.864 299.200 C 169.899 299.200,170.690 300.595,171.622 302.300 C 172.553 304.005,173.785 306.123,174.358 307.007 C 174.931 307.890,175.599 308.970,175.842 309.407 C 176.218 310.081,176.726 310.205,179.242 310.231 L 182.200 310.263 179.514 310.113 C 176.933 309.970,175.200 308.880,175.200 307.400 C 175.200 307.248,174.861 306.646,174.447 306.062 C 173.459 304.667,171.874 301.909,170.562 299.300 C 169.427 297.042,168.524 296.471,168.982 298.300 C 169.133 298.905,169.355 301.785,169.475 304.700 L 169.693 310.000 167.053 310.000 L 164.412 310.000 164.297 298.700 L 164.181 287.400 164.190 298.800 M170.250 289.400 C 170.855 290.500,171.909 292.300,172.593 293.400 C 173.277 294.500,174.538 296.791,175.395 298.490 C 176.252 300.190,176.984 301.540,177.022 301.490 C 177.060 301.441,176.966 298.250,176.811 294.400 L 176.531 287.400 176.464 293.400 L 176.397 299.400 175.474 297.600 C 174.966 296.610,173.797 294.567,172.875 293.059 C 171.954 291.552,171.199 290.202,171.198 290.059 C 171.197 289.917,170.736 289.260,170.174 288.600 L 169.151 287.400 170.250 289.400 M201.933 289.723 C 202.111 292.580,201.825 292.749,196.576 292.886 L 192.200 293.000 192.071 294.584 C 191.885 296.866,192.549 297.200,197.276 297.200 L 201.200 297.200 201.200 299.200 L 201.200 301.200 197.500 301.205 C 192.348 301.213,192.000 301.342,192.000 303.239 C 192.000 305.107,192.151 305.161,197.800 305.301 L 201.800 305.400 201.920 307.691 L 202.039 309.983 194.419 310.105 L 186.799 310.227 194.500 310.213 L 202.200 310.200 202.318 307.500 L 202.437 304.800 198.051 304.800 C 192.855 304.800,192.400 304.671,192.400 303.200 C 192.400 301.745,192.875 301.600,197.633 301.600 L 201.600 301.600 201.600 299.208 C 201.600 296.388,201.720 296.453,196.200 296.300 L 192.600 296.200 192.476 294.700 L 192.352 293.200 196.743 293.200 C 202.530 293.200,202.400 293.270,202.400 290.157 C 202.400 288.751,202.265 287.600,202.100 287.599 C 201.935 287.599,201.860 288.555,201.933 289.723 M218.028 288.142 C 223.691 289.958,225.110 297.528,220.525 301.460 C 218.962 302.801,219.008 303.294,220.878 305.244 C 221.172 305.550,222.034 306.610,222.795 307.600 C 223.557 308.590,224.364 309.532,224.590 309.694 C 224.815 309.856,223.470 309.985,221.600 309.981 L 218.200 309.975 216.515 307.487 C 212.624 301.742,211.600 301.566,211.600 306.643 L 211.600 310.000 209.006 310.000 L 206.413 310.000 206.296 298.900 L 206.180 287.800 206.190 299.000 L 206.200 310.200 209.000 310.200 L 211.800 310.200 211.916 306.900 C 212.048 303.163,212.527 302.714,214.053 304.900 C 214.553 305.615,215.072 306.290,215.207 306.400 C 215.342 306.510,216.035 307.455,216.746 308.500 L 218.038 310.400 221.353 310.400 C 223.175 310.400,224.778 310.289,224.914 310.153 C 225.110 309.957,223.390 307.390,222.400 306.400 C 222.290 306.290,221.591 305.416,220.846 304.457 C 219.435 302.639,219.434 302.644,221.250 301.599 C 225.944 298.899,222.960 287.422,217.620 287.642 C 216.729 287.679,216.780 287.742,218.028 288.142 M231.400 288.195 C 224.362 291.501,226.114 299.186,234.400 301.351 C 237.579 302.181,238.000 302.401,238.000 303.229 C 238.000 304.988,234.153 305.255,231.976 303.646 L 230.876 302.832 229.219 304.032 C 223.973 307.832,233.321 312.402,239.754 309.182 C 247.102 305.504,244.771 297.277,235.969 295.826 C 233.840 295.475,233.028 294.742,233.349 293.462 C 233.671 292.180,236.518 291.935,238.211 293.044 C 239.723 294.035,243.642 292.128,243.083 290.673 C 242.727 289.744,239.722 287.969,238.155 287.761 C 236.710 287.570,236.752 287.610,238.745 288.331 C 239.924 288.758,241.330 289.548,241.869 290.087 L 242.849 291.067 241.370 292.195 C 239.912 293.308,239.874 293.314,238.617 292.637 C 237.022 291.778,233.670 291.900,233.082 292.838 C 232.092 294.418,233.029 295.462,236.216 296.328 C 241.333 297.719,243.600 299.713,243.600 302.821 C 243.600 309.454,233.711 312.401,228.600 307.291 L 227.561 306.252 228.989 304.826 L 230.417 303.400 231.669 304.116 C 234.463 305.714,238.400 305.330,238.400 303.459 C 238.400 302.022,237.777 301.676,232.918 300.415 C 225.731 298.550,225.909 289.946,233.172 288.148 C 234.708 287.767,234.808 287.690,233.800 287.663 C 233.140 287.646,232.060 287.885,231.400 288.195 M247.790 298.800 L 247.800 310.200 250.600 310.200 L 253.400 310.200 253.600 305.899 C 253.710 303.534,253.665 301.599,253.500 301.599 C 253.335 301.600,253.200 303.490,253.200 305.800 L 253.200 310.000 250.606 310.000 L 248.012 310.000 247.897 298.700 L 247.781 287.400 247.790 298.800 M253.200 291.899 L 253.400 296.200 256.800 296.200 L 260.200 296.200 260.229 291.800 L 260.258 287.400 260.029 291.600 L 259.800 295.800 256.700 295.917 L 253.600 296.034 253.600 291.817 C 253.600 289.498,253.465 287.600,253.300 287.599 C 253.135 287.599,253.090 289.534,253.200 291.899 M275.693 298.682 L 275.600 309.963 272.900 310.103 L 270.200 310.243 272.913 310.322 C 276.308 310.420,276.035 311.508,275.900 298.394 L 275.787 287.400 275.693 298.682 M281.294 298.918 L 281.200 310.435 284.100 310.318 L 287.000 310.200 287.117 307.100 L 287.234 304.000 290.139 304.000 C 294.624 304.000,298.512 300.934,298.359 297.516 C 298.328 296.816,298.219 296.930,297.896 298.000 C 296.806 301.615,294.443 303.289,290.000 303.594 L 287.000 303.800 286.883 306.900 L 286.766 310.000 284.189 310.000 L 281.612 310.000 281.500 298.700 L 281.387 287.400 281.294 298.918 M292.940 288.161 C 293.786 288.424,295.181 289.336,296.040 290.189 C 296.898 291.043,297.600 291.564,297.600 291.349 C 297.600 290.207,293.852 287.573,292.326 287.642 C 291.643 287.673,291.804 287.809,292.940 288.161 M304.321 288.416 C 299.671 290.872,299.487 296.870,303.969 299.890 C 304.711 300.391,305.607 300.793,305.959 300.784 C 306.312 300.775,305.907 300.422,305.060 299.999 C 299.094 297.021,300.001 290.040,306.600 288.139 C 308.092 287.710,308.119 287.677,307.000 287.657 C 306.340 287.645,305.135 287.987,304.321 288.416 M311.637 288.142 C 312.428 288.394,313.842 289.110,314.779 289.733 L 316.483 290.866 315.542 291.519 C 315.024 291.878,314.259 292.486,313.842 292.870 C 313.120 293.534,313.037 293.530,312.088 292.784 C 310.703 291.694,307.592 291.704,306.599 292.802 C 305.487 294.030,306.305 295.432,308.482 296.026 C 315.457 297.931,316.484 298.731,316.713 302.447 C 316.945 306.214,315.542 308.002,311.172 309.508 C 308.939 310.277,304.989 309.878,304.000 308.783 C 303.890 308.661,303.215 308.153,302.500 307.653 C 300.829 306.486,300.863 306.004,302.725 304.509 C 304.237 303.293,304.258 303.289,305.225 304.027 C 307.463 305.734,311.646 305.272,311.929 303.287 C 312.078 302.241,309.072 300.628,307.484 300.901 C 306.838 301.012,307.031 301.138,308.200 301.371 C 311.360 302.000,312.525 303.450,310.581 304.336 C 309.068 305.025,307.948 304.907,305.830 303.835 L 303.924 302.870 302.362 304.282 C 300.443 306.015,300.428 306.391,302.215 307.959 C 305.666 310.990,309.953 311.215,314.328 308.595 C 319.278 305.631,317.837 298.157,311.991 296.472 C 307.788 295.260,307.053 294.965,306.660 294.334 C 305.539 292.528,309.401 291.672,311.872 293.179 L 313.145 293.955 315.003 292.536 L 316.861 291.117 315.931 290.119 C 314.742 288.845,312.298 287.588,311.116 287.642 C 310.415 287.674,310.537 287.791,311.637 288.142 M112.400 288.955 C 112.400 289.595,118.245 306.378,118.587 306.720 C 118.952 307.085,118.812 306.266,118.224 304.600 C 117.913 303.720,116.566 299.865,115.230 296.034 C 113.015 289.680,112.400 288.142,112.400 288.955 M297.646 292.400 C 297.665 292.730,297.824 293.450,298.000 294.000 L 298.320 295.000 298.354 294.000 C 298.373 293.450,298.213 292.730,298.000 292.400 C 297.655 291.867,297.616 291.867,297.646 292.400 M87.600 296.000 L 87.600 299.200 89.971 299.200 C 92.672 299.200,94.000 298.122,94.000 295.932 C 94.000 293.604,93.013 292.800,90.154 292.800 L 87.600 292.800 87.600 296.000 M128.082 295.500 L 128.200 298.200 130.545 298.321 C 133.028 298.450,134.429 297.761,134.373 296.438 C 134.354 295.999,134.209 296.084,133.908 296.709 C 133.399 297.764,132.347 298.107,130.162 297.928 L 128.600 297.800 128.480 295.500 L 128.360 293.200 130.766 293.200 C 132.795 293.200,133.242 293.331,133.618 294.034 C 133.864 294.493,134.153 294.781,134.260 294.673 C 135.140 293.793,133.245 292.800,130.686 292.800 L 127.963 292.800 128.082 295.500 M211.682 295.500 L 211.800 298.200 214.145 298.321 C 216.628 298.450,218.029 297.761,217.973 296.438 C 217.954 295.999,217.809 296.084,217.508 296.709 C 216.999 297.764,215.947 298.107,213.762 297.928 L 212.200 297.800 212.080 295.500 L 211.960 293.200 214.366 293.200 C 216.395 293.200,216.842 293.331,217.218 294.034 C 217.464 294.493,217.753 294.781,217.860 294.673 C 218.740 293.793,216.845 292.800,214.286 292.800 L 211.563 292.800 211.682 295.500 M286.800 296.000 L 286.800 299.200 289.130 299.200 C 291.899 299.200,293.200 298.196,293.200 296.060 C 293.200 293.602,292.253 292.800,289.354 292.800 L 286.800 292.800 286.800 296.000 M92.977 294.089 C 94.617 296.430,93.056 298.914,90.065 298.721 L 88.200 298.600 88.082 295.900 L 87.963 293.200 90.159 293.200 C 91.974 293.200,92.462 293.354,92.977 294.089 M292.177 294.089 C 293.817 296.430,292.256 298.914,289.265 298.721 L 287.400 298.600 287.282 295.900 L 287.163 293.200 289.359 293.200 C 291.174 293.200,291.662 293.354,292.177 294.089 M109.231 294.893 C 108.917 295.392,108.536 296.430,108.383 297.200 C 108.230 297.970,107.972 299.095,107.809 299.700 C 107.616 300.416,107.668 300.800,107.957 300.800 C 108.200 300.800,108.370 300.665,108.333 300.500 C 108.214 299.973,108.890 297.029,109.320 296.201 C 109.672 295.522,109.838 295.823,110.421 298.201 C 110.799 299.740,111.129 300.598,111.154 300.106 C 111.198 299.246,110.569 296.164,110.050 294.693 C 109.825 294.055,109.744 294.075,109.231 294.893 M103.050 298.362 C 102.668 299.532,102.451 300.584,102.568 300.701 C 102.685 300.819,102.892 300.574,103.028 300.157 C 103.164 299.741,103.456 298.914,103.678 298.320 C 103.899 297.727,104.005 297.015,103.913 296.739 C 103.821 296.463,103.433 297.193,103.050 298.362 M101.800 302.000 C 101.650 302.473,101.617 302.950,101.727 303.060 C 101.837 303.170,102.050 302.873,102.200 302.400 C 102.350 301.927,102.383 301.450,102.273 301.340 C 102.163 301.230,101.950 301.527,101.800 302.000 M256.200 301.477 C 260.175 301.740,259.957 301.481,260.086 306.104 L 260.200 310.200 263.000 310.232 L 265.800 310.264 263.100 310.114 L 260.400 309.963 260.400 305.828 C 260.400 301.083,260.462 301.155,256.400 301.278 L 254.200 301.344 256.200 301.477 M100.972 304.243 C 100.836 304.659,100.544 305.486,100.322 306.080 C 100.101 306.673,99.995 307.385,100.087 307.661 C 100.179 307.937,100.567 307.207,100.950 306.038 C 101.332 304.868,101.549 303.816,101.432 303.699 C 101.315 303.581,101.108 303.826,100.972 304.243 M106.750 305.684 C 106.394 305.968,105.860 307.055,105.564 308.100 L 105.025 310.000 102.350 310.000 C 99.778 310.000,99.683 309.965,99.892 309.100 C 100.064 308.386,100.004 308.298,99.601 308.673 C 98.378 309.813,99.472 310.440,102.469 310.318 L 105.350 310.200 106.038 308.200 L 106.727 306.200 109.508 306.084 L 112.289 305.967 112.781 307.284 C 114.037 310.645,113.723 310.400,116.768 310.400 C 118.300 310.400,119.627 310.265,119.718 310.100 C 119.949 309.679,119.204 307.063,118.931 307.336 C 118.808 307.459,118.899 308.108,119.133 308.780 L 119.558 310.000 116.871 310.000 L 114.184 310.000 113.392 307.700 L 112.600 305.400 109.998 305.284 C 108.315 305.209,107.168 305.350,106.750 305.684 M198.469 336.033 C 193.444 338.591,192.886 347.591,197.559 350.697 C 199.862 352.227,204.779 351.756,206.356 349.853 C 206.731 349.402,206.339 349.510,205.156 350.186 C 198.466 354.011,192.076 346.828,195.641 339.490 C 197.942 334.754,205.140 334.424,207.228 338.959 C 207.998 340.629,208.007 346.827,207.242 347.749 C 206.936 348.118,206.778 348.511,206.891 348.624 C 207.452 349.186,208.399 345.852,208.391 343.340 C 208.371 337.007,203.542 333.451,198.469 336.033 M181.863 335.898 C 181.541 336.419,181.474 350.672,181.791 351.185 C 182.166 351.792,187.406 351.692,188.946 351.048 C 192.187 349.694,193.150 344.673,190.339 343.781 C 189.456 343.500,189.416 342.877,190.213 341.824 C 191.197 340.522,190.966 337.896,189.768 336.770 C 188.670 335.738,182.390 335.046,181.863 335.898 M209.385 336.024 C 208.933 336.756,209.683 337.145,211.800 337.276 L 213.800 337.400 214.024 344.400 C 214.281 352.435,214.148 351.691,215.300 351.528 C 216.185 351.402,216.203 351.286,216.400 344.400 L 216.600 337.400 218.925 337.279 C 220.862 337.179,221.229 337.045,221.120 336.479 C 220.960 335.644,209.885 335.215,209.385 336.024 M188.526 336.465 C 190.496 337.515,190.966 339.723,189.700 341.987 C 189.004 343.233,189.006 343.244,190.086 344.043 C 193.931 346.887,190.499 351.395,184.699 351.119 L 182.200 351.000 182.091 343.500 L 181.982 336.000 184.817 336.000 C 186.377 336.000,188.046 336.209,188.526 336.465 M220.800 336.400 C 220.800 336.620,219.922 336.800,218.849 336.800 C 216.093 336.800,216.036 336.949,215.910 344.429 C 215.818 349.954,215.705 351.000,215.200 351.000 C 214.697 351.000,214.568 349.867,214.400 344.000 L 214.200 337.000 211.900 336.880 C 207.269 336.639,209.664 336.000,215.200 336.000 C 218.667 336.000,220.800 336.152,220.800 336.400 M183.664 337.323 C 183.347 337.704,183.203 338.807,183.279 340.266 L 183.400 342.600 185.475 342.584 C 190.354 342.547,190.775 337.620,185.955 336.959 C 184.618 336.776,184.042 336.867,183.664 337.323 M199.349 337.194 C 198.409 337.574,196.580 339.913,196.941 340.275 C 197.067 340.400,197.372 340.060,197.619 339.518 C 199.198 336.052,204.478 336.687,205.870 340.510 C 206.141 341.255,206.352 341.496,206.370 341.080 C 206.492 338.176,202.454 335.941,199.349 337.194 M187.124 337.633 C 190.383 338.770,188.539 342.742,184.943 342.331 C 183.880 342.209,183.791 342.063,183.676 340.251 C 183.476 337.099,184.141 336.594,187.124 337.633 M196.244 342.500 C 196.109 343.435,196.163 344.740,196.365 345.400 C 196.667 346.391,196.737 346.096,196.766 343.700 C 196.804 340.430,196.609 339.982,196.244 342.500 M183.384 344.521 C 183.257 345.028,183.208 346.423,183.276 347.621 L 183.400 349.800 185.867 349.918 C 189.363 350.086,191.306 347.534,189.487 345.165 C 188.096 343.353,183.791 342.899,183.384 344.521 M188.804 345.004 C 191.028 347.016,189.176 349.743,185.735 349.523 L 183.800 349.400 183.677 347.248 C 183.497 344.082,183.657 343.865,186.011 344.091 C 187.139 344.200,188.354 344.597,188.804 345.004 M205.792 346.470 C 205.427 347.674,203.629 349.591,202.825 349.632 C 202.422 349.652,202.375 349.734,202.694 349.863 C 203.839 350.326,207.117 346.584,206.290 345.757 C 206.171 345.638,205.946 345.958,205.792 346.470 M198.525 349.300 C 198.945 349.685,199.674 349.985,200.144 349.966 C 200.838 349.938,200.787 349.867,199.874 349.593 C 199.255 349.408,198.527 349.108,198.256 348.928 C 197.984 348.747,198.106 348.915,198.525 349.300 " stroke="none" fill="#c4d2ec" fill-rule="evenodd"></path></g></svg>