<?xml version="1.0" encoding="UTF-8" standalone="no"?>
<svg
   xmlns:dc="http://purl.org/dc/elements/1.1/"
   xmlns:cc="http://creativecommons.org/ns#"
   xmlns:rdf="http://www.w3.org/1999/02/22-rdf-syntax-ns#"
   xmlns:svg="http://www.w3.org/2000/svg"
   xmlns="http://www.w3.org/2000/svg"
   xmlns:sodipodi="http://sodipodi.sourceforge.net/DTD/sodipodi-0.dtd"
   xmlns:inkscape="http://www.inkscape.org/namespaces/inkscape"
   version="1.1"
   id="Layer_1"
   x="0px"
   y="0px"
   width="72"
   height="72"
   viewBox="0 0 72.000001 71.999999"
   enable-background="new 0 0 128 128"
   xml:space="preserve"
   sodipodi:docname="ps_bw_72.svg"
   inkscape:version="1.0.2 (e86c870879, 2021-01-15, custom)"><metadata
     id="metadata3787"><rdf:RDF><cc:Work
         rdf:about=""><dc:format>image/svg+xml</dc:format><dc:type
           rdf:resource="http://purl.org/dc/dcmitype/StillImage" /><dc:title></dc:title></cc:Work></rdf:RDF></metadata><defs
     id="defs3785" /><sodipodi:namedview
     pagecolor="#000000"
     bordercolor="#666666"
     borderopacity="1"
     objecttolerance="10"
     gridtolerance="10"
     guidetolerance="10"
     inkscape:pageopacity="0"
     inkscape:pageshadow="2"
     inkscape:window-width="1920"
     inkscape:window-height="1017"
     id="namedview3783"
     showgrid="false"
     inkscape:zoom="8.0212425"
     inkscape:cx="22.408607"
     inkscape:cy="34.942832"
     inkscape:window-x="1912"
     inkscape:window-y="-8"
     inkscape:window-maximized="1"
     inkscape:current-layer="Layer_1"
     inkscape:document-rotation="0"
     inkscape:pagecheckerboard="false" /><g
     id="g3746"
     transform="translate(-34.002418,-41.50025)"><line
       x1="0"
       y1="128"
       x2="0"
       y2="0"
       id="line3744"
       style="fill:none" /></g><line
     x1="-34.002419"
     y1="86.499748"
     x2="-34.002419"
     y2="-41.500252"
     id="line3748"
     style="clip-rule:evenodd;opacity:0;fill:#00ff18;fill-rule:evenodd" /><linearGradient
     id="SVGID_1_"
     gradientUnits="userSpaceOnUse"
     x1="95.266701"
     y1="91.9263"
     x2="26.700001"
     y2="30.68"
     gradientTransform="matrix(0.5,0,0,0.5,-2.0011686,-9.5)"><stop
       offset="0"
       style="stop-color:#A9C8FF"
       id="stop3750" /><stop
       offset="1"
       style="stop-color:#C7E6FF"
       id="stop3752" /></linearGradient><path
     d="m 3.1660662,62.776881 c -0.971714,0 -1.8125175,-0.379641 -2.36710251,-1.069897 C 0.2324776,61.001851 0.03789677,60.032517 0.26580032,59.047118 L 10.968341,12.686301 c 0.448667,-1.942238 2.330803,-3.4637771 4.286728,-3.4637771 h 53.330022 c 0.972309,0 1.813112,0.3796409 2.367102,1.0698971 0.566487,0.704537 0.761068,1.674466 0.533164,2.659866 L 60.782816,59.313104 c -0.448071,1.942238 -2.330804,3.464372 -4.286132,3.464372 H 3.1660662 Z"
     id="path3755"
     inkscape:connector-curvature="0"
     style="clip-rule:evenodd;opacity:0.8;fill:none;fill-opacity:1;fill-rule:evenodd;stroke:#ffffff;stroke-width:0.595048;stroke-opacity:1" /><path
     d="m 43.719209,36.865498 c -0.221358,0.445691 -0.680735,0.937201 -1.492976,1.507853 L 18.357056,55.5161 c -1.303156,0.946722 -3.173988,0.595644 -4.177835,-0.784868 -1.003847,-1.380513 -0.761662,-3.266816 0.541494,-4.214133 L 36.245401,34.9304 v -0.320136 l -13.52426,-14.38708 c -1.10322,-1.173435 -0.988375,-3.071045 0.256466,-4.239125 1.244842,-1.167485 3.147806,-1.162725 4.251026,0.01071 l 16.227565,17.263545 c 0.921135,0.980045 0.989565,2.464095 0.263011,3.607184 z"
     id="path3778"
     inkscape:connector-curvature="0"
     style="clip-rule:evenodd;fill:#ffffff;fill-rule:evenodd;stroke-width:0.595048" /><path
     d="m 35.606319,49.685816 h 12.860782 c 1.495356,0 2.70747,1.199023 2.70747,2.677718 0,1.478695 -1.212114,2.677718 -2.70747,2.677718 H 35.606319 c -1.495356,0 -2.70747,-1.199023 -2.70747,-2.677718 0,-1.478695 1.212114,-2.677718 2.70747,-2.677718 z"
     id="path3780"
     inkscape:connector-curvature="0"
     style="clip-rule:evenodd;fill:#ffffff;fill-rule:evenodd;stroke-width:0.595048" /></svg>
