<?xml version="1.0" encoding="UTF-8" standalone="no"?>
<svg xmlns="http://www.w3.org/2000/svg" xmlns:sodipodi="http://sodipodi.sourceforge.net/DTD/sodipodi-0.dtd"
  version="1.1" x="0px" y="0px" width="72" height="72" viewBox="0 0 72 72" enable-background="new 0 0 72 72" xml:space="preserve" sodipodi:docname="powershell.svg">
  <sodipodi:namedview pagecolor="#000000" bordercolor="#000000" borderopacity="0" />
  <path d="m 3.290735,62.861587 c -0.971714,0 -1.8125175,-0.379641 -2.36710254,-1.069897 C 0.35714637,61.086557 0.16256554,60.117223 0.39046909,59.131824 L 11.09301,12.771007 c 0.448667,-1.942238 2.330803,-3.4637772 4.286728,-3.4637772 H 68.70976 c 0.972309,0 1.813112,0.3796409 2.367102,1.0698972 0.566487,0.704537 0.761068,1.674466 0.533164,2.659866 L 60.907485,59.39781 c -0.448071,1.942238 -2.330804,3.464372 -4.286132,3.464372 H 3.290735 Z" id="path3755" style="clip-rule:evenodd;opacity:0.8;fill:none;fill-opacity:1;fill-rule:evenodd;stroke:#ffffff;stroke-width:0.595048;stroke-opacity:1" />
  <path d="m 43.719209,36.865498 c -0.221358,0.445691 -0.680735,0.937201 -1.492976,1.507853 L 18.357056,55.5161 c -1.303156,0.946722 -3.173988,0.595644 -4.177835,-0.784868 -1.003847,-1.380513 -0.761662,-3.266816 0.541494,-4.214133 L 36.245401,34.9304 v -0.320136 l -13.52426,-14.38708 c -1.10322,-1.173435 -0.988375,-3.071045 0.256466,-4.239125 1.244842,-1.167485 3.147806,-1.162725 4.251026,0.01071 l 16.227565,17.263545 c 0.921135,0.980045 0.989565,2.464095 0.263011,3.607184 z" id="path3778" style="clip-rule:evenodd;fill:#ffffff;fill-rule:evenodd;stroke-width:0.595048" />
  <path d="m 35.606319,49.685816 h 12.860782 c 1.495356,0 2.70747,1.199023 2.70747,2.677718 0,1.478695 -1.212114,2.677718 -2.70747,2.677718 H 35.606319 c -1.495356,0 -2.70747,-1.199023 -2.70747,-2.677718 0,-1.478695 1.212114,-2.677718 2.70747,-2.677718 z" id="path3780" style="clip-rule:evenodd;fill:#ffffff;fill-rule:evenodd;stroke-width:0.595048" />
</svg>
