<svg xmlns="http://www.w3.org/2000/svg" width="72" height="72">
  <path d="M3.29 62.862c-.971 0-1.812-.38-2.366-1.07-.567-.705-.761-1.675-.534-2.66L11.093 12.77c.449-1.942 2.33-3.464 4.287-3.464h53.33c.972 0 1.813.38 2.367 1.07.566.705.76 1.675.533 2.66l-10.703 46.36c-.448 1.943-2.33 3.465-4.286 3.465H3.291z" clip-rule="evenodd" opacity=".8" fill="none" stroke="#fff" stroke-width=".595"/>
  <path d="M43.72 36.865c-.222.446-.682.938-1.494 1.508L18.357 55.516c-1.303.947-3.174.596-4.178-.785-1.004-1.38-.761-3.267.542-4.214L36.245 34.93v-.32L22.721 20.223c-1.103-1.173-.988-3.07.257-4.239 1.244-1.167 3.147-1.163 4.25.01l16.228 17.264c.921.98.99 2.464.263 3.607zM35.606 49.686h12.861c1.495 0 2.708 1.199 2.708 2.678 0 1.478-1.213 2.677-2.708 2.677h-12.86c-1.496 0-2.708-1.199-2.708-2.677 0-1.48 1.212-2.678 2.707-2.678z" clip-rule="evenodd" fill="#fff" fill-rule="evenodd"/>
</svg>
