<?xml version="1.0" encoding="UTF-8" standalone="no"?>
<!DOCTYPE svg PUBLIC "-//W3C//DTD SVG 1.1//EN" "http://www.w3.org/Graphics/SVG/1.1/DTD/svg11.dtd">
<svg width="100%" height="100%" viewBox="0 0 4267 4267" version="1.1" xmlns="http://www.w3.org/2000/svg" xmlns:xlink="http://www.w3.org/1999/xlink" xml:space="preserve" xmlns:serif="http://www.serif.com/" style="fill-rule:evenodd;clip-rule:evenodd;stroke-linejoin:round;stroke-miterlimit:1.41421;">
    <g transform="matrix(1.46286,0,0,1.46286,-987.429,-987.429)">
        <g id="Icon">
            <path d="M3591.67,1299.99C3591.67,1184.94 3498.4,1091.67 3383.35,1091.67L883.322,1091.67C768.269,1091.67 675,1184.94 675,1299.99L675,2966.68C675,3081.73 768.269,3175 883.322,3175L3383.35,3175C3498.4,3175 3591.67,3081.73 3591.67,2966.68C3591.67,2567.51 3591.67,1699.15 3591.67,1299.99ZM1083.33,2706.25L1083.33,1560.42L1916.67,2133.33L1083.33,2706.25ZM3239.58,2539.58C3291.36,2539.58 3333.33,2497.61 3333.33,2445.83C3333.33,2394.05 3291.36,2352.08 3239.58,2352.08L2385.42,2352.08C2333.64,2352.08 2291.67,2394.05 2291.67,2445.83C2291.67,2497.61 2333.64,2539.58 2385.42,2539.58L3239.58,2539.58ZM3239.58,2227.08C3291.36,2227.08 3333.33,2185.11 3333.33,2133.33C3333.33,2081.56 3291.36,2039.58 3239.58,2039.58L2385.42,2039.58C2333.64,2039.58 2291.67,2081.56 2291.67,2133.33C2291.67,2185.11 2333.64,2227.08 2385.42,2227.08L3239.58,2227.08ZM2385.49,1727.08L2822.84,1727.08C2874.66,1727.08 2916.66,1768.91 2916.66,1820.5L2916.66,1821.17C2916.66,1872.82 2874.57,1914.66 2822.7,1914.58L2385.34,1913.92C2333.59,1913.84 2291.66,1872.04 2291.66,1820.5C2291.66,1768.91 2333.67,1727.08 2385.49,1727.08Z" style="fill:white;"/>
        </g>
    </g>
</svg>
