<svg id="Layer_1" xmlns="http://www.w3.org/2000/svg" viewBox="0 0 72 72"><style>.st0{fill:#8d4a15}.st1{fill:#a3571f}.st2{fill:#8f4a03}.st6{fill:#bc6f35}</style><path class="st0" d="M47.2 54.8s1.2 1.5 1.8 1.7c.4.1 1.4 0 1.8-.2.5-.3 1.6-1.7 1.6-1.7s-1.7.5-2.3.4c-.4-.1-1.1-.6-1.2-.9-.1-.4.4-1.3.7-1.6.4-.4 1.9-1.4 1.9-1.4s-1.6-.5-2.1-.4c-.8.3-2.2 2.4-2.2 2.4"/><path class="st1" d="M37.7 13c-3.5.4-7.6 1.9-9.9 3.2-2 1.1-5.9 3.8-7.2 5.7-2.1 2.8-4.5 10.1-4.5 10.1l.4 3.6 3.7 6.3 9.5-3.1s-.4-8.5.7-11C32.5 23 45 12.5 45 12.5"/><path class="st2" d="M43.6 13.1S38.2 18 36 19.9c-1.7 1.5-4.9 5-6 7-.9 1.7-1.3 5.6-1.2 7.5 0 1.1-.1 2.5-.1 2.5l-.4.4L17 36l4.5-13.3 1.4 1.5v-2.3l1.7 1.3-.5-3s5.6-3.6 7.7-4.5c1.8-.7 7.6-2 7.6-2l4.2-.6z"/><path class="st0" d="M38.6 53s3.7 2.7 5.1 2.9c1.1.1 4.3-.9 4.3-.9v-1.8h-3.9l-1.7-.9-3.8.7z"/><path class="st1" d="M21.8 37.4l5.9 5.6 4.2-3.5-4.8-3.5-3.7-5.2"/><path fill="#f6921e" d="M51.5 49.2H38.6"/><path class="st1" d="M51 56.3s.8 1.8 1.3 2.1c.4.3 1.3.4 1.7.3.6-.1 2-1.2 2-1.2s-1.8 0-2.3-.3c-.3-.2-.9-.9-.9-1.2 0-.4.8-1.1 1.1-1.4.5-.3 2.2-.9 2.2-.9s-1.4-1-2-.9c-.8 0-2.8 1.7-2.8 1.7"/><path class="st1" d="M46.9 50.9s1.6 2.6 2.4 3.2c.5.3 2.2.7 2.2.7l-.5 1.6s-2.2-.2-2.9-.5c-1.5-.6-5.4-3.6-5.4-3.6l4.2-1.4z"/><path d="M13.1 40.2c-1.2 3.2-4.8 6.3-4.8 6.3" fill="#ec297b"/><path class="st1" d="M62.1 20.1c-6.7-2-9.9-2-13.2-1.7-2.9.3-8.9 1.4-11.5 2.8C33.5 23.4 24 33.1 24 33.1L16 37l10.2 7.4L39 45.8s4.1-10.1 6.7-12.4C50.8 28.8 71 23.3 71 23.3"/><path class="st1" d="M39.7 44.1l6.8 2.4 5 2.7s-9.5.4-12.5-.4c-2.3-.6-8.4-4.2-8.4-4.2"/><path class="st2" d="M69 23.2s-8.9 2.8-12.5 3.9c-2.8.8-8.4 3.3-10.7 5-2 1.5-4.5 5.8-5.5 8.1-.6 1.3-1.5 2.8-1.5 2.8l-.7.3-12.4-7.6L38 22.6l.9 2.5 1.2-2.7 1.2 2.4 1-3.8s8.5-1.2 11.4-1.1c2.5.1 9.9 1.7 9.9 1.7l5.4 1.6z"/><path class="st6" d="M34.7 19.1l-7 6.3s-2.5 2.3-3.1 3.3c-.8 1.3-2.1 5.7-2.1 5.7l-.8 3-1.1 2.3L19 43l-3 1.5-12.3 6s4.5-3.9 5.7-5.2c1.2-1.3 2.8-3 3.9-5.6.2-.4-.7-.6-1.7-.1-.9.4-4.6 2.7-5.5 3.4C4.9 44 1 48.4 1 48.4s1.5-4.1 2.1-5.4c1.1-2.4 2.9-5.6 5.7-8.6 1.6-1.7 7.1-5.6 7.1-5.6s5.9-4.6 8.7-5.8"/><path class="st6" d="M32.2 45.3c-3.1-1.1-10.4-7.9-10.4-7.9L19 43s2 4.1 8.7 7.9c3.4 1.9 8.5 2.1 10.3 2.3 2.4.2 9.4-1.9 9.4-1.9l4.2-2.1-11-1.4"/><circle cx="13.1" cy="34.8" r="1.6" fill="#fff"/><path d="M13.7 35.1c0 .5-.4.9-.9.9s-.9-.4-.9-.9.4-.9.9-.9c.5.1.9.4.9.9z" fill="#231f20"/></svg>