<?xml version="1.0" encoding="utf-8"?>
<!-- Generator: Adobe Illustrator 22.0.1, SVG Export Plug-In . SVG Version: 6.00 Build 0)  -->
<svg version="1.1" id="Layer_1" xmlns="http://www.w3.org/2000/svg" xmlns:xlink="http://www.w3.org/1999/xlink" x="0px" y="0px"
	 viewBox="0 0 72 72" style="enable-background:new 0 0 72 72;" xml:space="preserve">
<style type="text/css">
	.st0{fill:#8D4A15;}
	.st1{fill:#A3571F;}
	.st2{fill:#8F4A03;}
	.st3{fill:#F6921E;}
	.st4{fill:#FBAE17;}
	.st5{fill:#EC297B;}
	.st6{fill:#BC6F35;}
	.st7{fill:#FFFFFF;}
	.st8{fill:#231F20;}
</style>
<path class="st0" d="M47.2,54.8c0,0,1.2,1.5,1.8,1.7c0.4,0.1,1.4,0,1.8-0.2c0.5-0.3,1.6-1.7,1.6-1.7s-1.7,0.5-2.3,0.4
	c-0.4-0.1-1.1-0.6-1.2-0.9c-0.1-0.4,0.4-1.3,0.7-1.6c0.4-0.4,1.9-1.4,1.9-1.4s-1.6-0.5-2.1-0.4c-0.8,0.3-2.2,2.4-2.2,2.4"/>
<path class="st1" d="M37.7,13c-3.5,0.4-7.6,1.9-9.9,3.2c-2,1.1-5.9,3.8-7.2,5.7c-2.1,2.8-4.5,10.1-4.5,10.1l0.4,3.6l3.7,6.3l9.5-3.1
	c0,0-0.4-8.5,0.7-11C32.5,23,45,12.5,45,12.5"/>
<path class="st2" d="M43.6,13.1c0,0-5.4,4.9-7.6,6.8c-1.7,1.5-4.9,5-6,7c-0.9,1.7-1.3,5.6-1.2,7.5c0,1.1-0.1,2.5-0.1,2.5l-0.4,0.4
	L17,36l4.5-13.3l1.4,1.5l0-2.3l1.7,1.3l-0.5-3c0,0,5.6-3.6,7.7-4.5c1.8-0.7,7.6-2,7.6-2L43.6,13.1z"/>
<path class="st0" d="M38.6,53c0,0,3.7,2.7,5.1,2.9C44.8,56,48,55,48,55v-1.8h-3.9l-1.7-0.9L38.6,53z"/>
<polyline class="st1" points="21.8,37.4 27.7,43 31.9,39.5 27.1,36 23.4,30.8 "/>
<line class="st3" x1="51.5" y1="49.2" x2="38.6" y2="49.2"/>
<path class="st4" d="M22.7,38.3"/>
<path class="st1" d="M51,56.3c0,0,0.8,1.8,1.3,2.1c0.4,0.3,1.3,0.4,1.7,0.3c0.6-0.1,2-1.2,2-1.2s-1.8,0-2.3-0.3
	c-0.3-0.2-0.9-0.9-0.9-1.2c0-0.4,0.8-1.1,1.1-1.4c0.5-0.3,2.2-0.9,2.2-0.9s-1.4-1-2-0.9c-0.8,0-2.8,1.7-2.8,1.7"/>
<path class="st1" d="M46.9,50.9c0,0,1.6,2.6,2.4,3.2c0.5,0.3,2.2,0.7,2.2,0.7l-0.5,1.6c0,0-2.2-0.2-2.9-0.5
	c-1.5-0.6-5.4-3.6-5.4-3.6L46.9,50.9z"/>
<path class="st5" d="M13.1,40.2c-1.2,3.2-4.8,6.3-4.8,6.3"/>
<path class="st1" d="M62.1,20.1c-6.7-2-9.9-2-13.2-1.7c-2.9,0.3-8.9,1.4-11.5,2.8c-3.9,2.2-13.4,11.9-13.4,11.9L16,37l10.2,7.4
	L39,45.8c0,0,4.1-10.1,6.7-12.4C50.8,28.8,71,23.3,71,23.3"/>
<path class="st1" d="M39.7,44.1l6.8,2.4l5,2.7c0,0-9.5,0.4-12.5-0.4c-2.3-0.6-8.4-4.2-8.4-4.2"/>
<path class="st2" d="M69,23.2c0,0-8.9,2.8-12.5,3.9c-2.8,0.8-8.4,3.3-10.7,5c-2,1.5-4.5,5.8-5.5,8.1c-0.6,1.3-1.5,2.8-1.5,2.8
	l-0.7,0.3l-12.4-7.6l12.3-13.1l0.9,2.5l1.2-2.7l1.2,2.4l1-3.8c0,0,8.5-1.2,11.4-1.1c2.5,0.1,9.9,1.7,9.9,1.7L69,23.2z"/>
<path class="st6" d="M34.7,19.1l-7,6.3c0,0-2.5,2.3-3.1,3.3c-0.8,1.3-2.1,5.7-2.1,5.7l-0.8,3l-1.1,2.3L19,43l-3,1.5l-12.3,6
	c0,0,4.5-3.9,5.7-5.2c1.2-1.3,2.8-3,3.9-5.6c0.2-0.4-0.7-0.6-1.7-0.1C10.7,40,7,42.3,6.1,43c-1.2,1-5.1,5.4-5.1,5.4s1.5-4.1,2.1-5.4
	c1.1-2.4,2.9-5.6,5.7-8.6c1.6-1.7,7.1-5.6,7.1-5.6s5.9-4.6,8.7-5.8"/>
<path class="st6" d="M32.2,45.3c-3.1-1.1-10.4-7.9-10.4-7.9L19,43c0,0,2,4.1,8.7,7.9c3.4,1.9,8.5,2.1,10.3,2.3
	c2.4,0.2,9.4-1.9,9.4-1.9l4.2-2.1l-11-1.4"/>
<circle class="st7" cx="13.1" cy="34.8" r="1.6"/>
<path class="st8" d="M13.7,35.1c0,0.5-0.4,0.9-0.9,0.9c-0.5,0-0.9-0.4-0.9-0.9c0-0.5,0.4-0.9,0.9-0.9C13.3,34.3,13.7,34.6,13.7,35.1
	z"/>
</svg>
