<svg width="72" height="72" viewBox="0 0 72 72" fill="none" xmlns="http://www.w3.org/2000/svg">
<path d="M9.87 35.475C9.87 49.59 21.36 61.08 35.475 61.08C49.59 61.08 61.08 49.59 61.08 35.475C61.08 21.36 49.59 9.87 35.475 9.87C21.36 9.87 9.87 21.36 9.87 35.475ZM53.205 35.475C53.205 45.27 45.27 53.205 35.475 53.205C25.68 53.205 17.745 45.27 17.745 35.475C17.745 25.68 25.68 17.745 35.475 17.745C45.27 17.73 53.205 25.68 53.205 35.475Z" fill="#0D122A"/>
<path d="M0 35.475C0 55.065 15.885 70.95 35.475 70.95C55.065 70.95 70.95 55.065 70.95 35.475C70.935 15.885 55.065 0 35.475 0C15.885 0 0 15.885 0 35.475ZM63.075 35.475C63.075 50.7 50.685 63.075 35.475 63.075C20.265 63.075 7.875 50.685 7.875 35.475C7.875 20.25 20.265 7.875 35.475 7.875C50.685 7.875 63.075 20.25 63.075 35.475Z" fill="#0D122A"/>
</svg>
