<svg xmlns="http://www.w3.org/2000/svg" width="82mm" height="82mm" viewBox="0 0 82 82"><g style="opacity:1"><path d="M363.038 491.98v65.529l29.24 16.887v-132.06l-29.24-16.874v66.519M388.83 579.912l-29.24-16.887-28.38 16.379-28.366 16.378-28.38-16.378-28.366-16.38-29.24 16.888 42.987 24.822 42.999 24.822 42.987-24.822 42.999-24.822M213.41 574.396l29.24-16.887V491.98l28.367-16.38 28.38-16.379v-33.76l-43 24.822-42.986 24.822v99.29M333.798 475.106l-27.507-15.883v-33.761l27.507 15.871v33.773M302.844 528.199l-27.507 15.87 27.507 15.884 27.507-15.884-27.507-15.87" style="fill:#fff;fill-opacity:1;fill-rule:evenodd;stroke:none;stroke-width:.0459672" transform="matrix(.35278 0 0 -.35278 -65.12 227.311)"/><path d="m271.89 537.174 27.506-15.87v-31.767L271.89 505.42v31.754M306.291 521.304l27.507 15.87V505.42l-27.507-15.883v31.767" style="fill:#fff;fill-opacity:1;fill-rule:evenodd;stroke:none;stroke-width:.0459672" transform="matrix(.35278 0 0 -.35278 -65.12 227.311)"/></g></svg>