<svg id="svg3742" xmlns="http://www.w3.org/2000/svg" viewBox="0 0 140 140"><style>.st2{fill:#1976d2}.st3{fill:#42a5f5}</style><g id="g4636-5-7-7" transform="translate(14.242)"><g id="g4768-9-1-2" transform="translate(-29.799)"><g id="g5443-0-1-3-9-3" transform="translate(-1486.601 -286.796) scale(.55595)"><g id="g8856-6-1-1-9-9-3-3" transform="translate(-1695.272 706.63) scale(.09527)"><circle id="circle8858-1-3-7-6-9-7-2" cx="47504" cy="-678.9" r="1257.7" fill="#fff"/><path id="path8860-5-4-8-2-7-1-8" d="M47709.9-678.9c0 113.6-92.1 205.8-205.8 205.8-113.6 0-205.8-92.1-205.8-205.8 0-113.6 92.1-205.8 205.8-205.8 113.6 0 205.8 92.1 205.8 205.8z" fill="#263238"/><path id="path8862-5-5-9-1-9-2-7" class="st2" d="M48417.4-1206.3c-44.7-77-99-148-161.6-211.3l-237.9 137.3c-74.1-63.3-158.4-111.8-248.3-143.9-81.2 82.3-145.7 174.3-192.2 274.3 264.8-18 538.2 77.8 792.1 276.2l149.7-86.4c-23.4-86.1-57.6-168.8-101.8-246.2z"/><path id="path8864-4-8-1-2-7-3-1" class="st3" d="M48417.5-151.6c44.3-77.2 78.6-159.8 102.2-245.6l-237.9-137.3c17.8-95.9 17.7-193.1.5-287-111.9-29.2-223.8-39.1-333.6-29.3 148 220.3 201.7 505 156.9 824.1l149.7 86.4c62.7-63.4 117.3-134.4 162.2-211.3z"/><path id="path8866-7-5-5-0-3-5-6" class="st2" d="M47504.2 375.8c89-.3 177.7-11.8 263.8-34.3V66.8c91.9-32.5 176.1-81.3 248.8-143.1-30.7-111.5-78.1-213.3-141.4-303.6-116.8 238.3-336.5 427.2-635.2 547.9v172.9c86.1 22.7 174.8 34.4 264 34.9z"/><path id="path8868-6-7-4-7-5-7-1" class="st3" d="M46590.7-151.5c44.7 77 99 148 161.6 211.3l237.9-137.3c74.1 63.3 158.4 111.8 248.3 143.9 81.2-82.3 145.7-174.3 192.2-274.3-264.8 18-538.2-77.8-792.1-276.2l-149.7 86.4c23.5 86.1 57.7 168.8 101.8 246.2z"/><path id="path8870-5-3-9-3-0-0-9" class="st2" d="M46590.7-1206.2c-44.3 77.2-78.6 159.8-102.2 245.6l237.9 137.3c-17.8 95.9-17.7 193.1-.5 287 111.9 29.2 223.8 39.1 333.6 29.3-148-220.3-201.7-505-156.9-824.1l-149.7-86.4c-62.8 63.4-117.3 134.3-162.2 211.3z"/><path id="path8872-6-3-2-1-4-2-1" class="st3" d="M47504-1733.6c-89 .3-177.7 11.8-263.8 34.3v274.7c-91.9 32.5-176.1 81.3-248.8 143.1 30.7 111.5 78.1 213.3 141.4 303.6 116.8-238.3 336.5-427.2 635.2-547.9v-172.9c-86.1-22.7-174.8-34.5-264-34.9z"/></g></g></g></g></svg>