<?xml version="1.0" encoding="utf-8"?>
<!-- Generator: Adobe Illustrator 22.1.0, SVG Export Plug-In . SVG Version: 6.00 Build 0)  -->
<svg version="1.1"
	 id="svg3742" inkscape:version="0.91 r13725" sodipodi:docname="quasar-logo-full-inline-inverted.svg" xmlns:cc="http://creativecommons.org/ns#" xmlns:dc="http://purl.org/dc/elements/1.1/" xmlns:inkscape="http://www.inkscape.org/namespaces/inkscape" xmlns:rdf="http://www.w3.org/1999/02/22-rdf-syntax-ns#" xmlns:sodipodi="http://sodipodi.sourceforge.net/DTD/sodipodi-0.dtd" xmlns:svg="http://www.w3.org/2000/svg"
	 xmlns="http://www.w3.org/2000/svg" xmlns:xlink="http://www.w3.org/1999/xlink" x="0px" y="0px" viewBox="0 0 140 140"
	 style="enable-background:new 0 0 140 140;" xml:space="preserve">
<style type="text/css">
	.st0{fill:#FFFFFF;}
	.st1{fill:#263238;}
	.st2{fill:#1976D2;}
	.st3{fill:#42A5F5;}
</style>
<sodipodi:namedview  bordercolor="#666666" borderopacity="1.0" fit-margin-bottom="0" fit-margin-left="0" fit-margin-right="0" fit-margin-top="0" id="base" inkscape:current-layer="g5519-9-0" inkscape:cx="155.07759" inkscape:cy="-11.279441" inkscape:document-units="px" inkscape:pageopacity="0.0" inkscape:pageshadow="2" inkscape:window-height="1056" inkscape:window-maximized="1" inkscape:window-width="1920" inkscape:window-x="0" inkscape:window-y="24" inkscape:zoom="0.98994949" pagecolor="#ffffff" showgrid="false">
	</sodipodi:namedview>
<g id="g4636-5-7-7" transform="translate(14.241949,-1.4302574e-5)">
	<g id="g4768-9-1-2" transform="translate(-29.798982,0)">
		
			<g id="g5443-0-1-3-9-3" transform="matrix(0.55595317,0,0,0.55595317,-1486.6013,-286.79579)" inkscape:export-filename="/home/emanuele/Desktop/logo1.png" inkscape:export-xdpi="44.860481" inkscape:export-ydpi="44.860481">
			
				<g id="g8856-6-1-1-9-9-3-3" transform="matrix(0.09527033,0,0,0.09527033,-1695.2716,706.62921)" inkscape:export-xdpi="3.4165223" inkscape:export-ydpi="3.4165223">
				
					<circle id="circle8858-1-3-7-6-9-7-2" inkscape:export-xdpi="10.031387" inkscape:export-ydpi="10.031387" class="st0" cx="47504" cy="-678.9" r="1257.7">
				</circle>
				
					<path id="path8860-5-4-8-2-7-1-8" inkscape:connector-curvature="0" inkscape:export-xdpi="10.031387" inkscape:export-ydpi="10.031387" class="st1" d="
					M47709.9-678.9c0,113.6-92.1,205.8-205.8,205.8l0,0c-113.6,0-205.8-92.1-205.8-205.8c0,0,0,0,0,0
					c0-113.6,92.1-205.8,205.8-205.8C47617.7-884.7,47709.9-792.6,47709.9-678.9z"/>
				
					<path id="path8862-5-5-9-1-9-2-7" inkscape:connector-curvature="0" inkscape:transform-center-x="-514.04855" inkscape:transform-center-y="-444.04649" class="st2" d="
					M48417.4-1206.3c-44.7-77-99-148-161.6-211.3l-237.9,137.3c-74.1-63.3-158.4-111.8-248.3-143.9
					c-81.2,82.3-145.7,174.3-192.2,274.3c264.8-18,538.2,77.8,792.1,276.2l149.7-86.4C48495.8-1046.2,48461.6-1128.9,48417.4-1206.3
					L48417.4-1206.3z"/>
				
					<path id="path8864-4-8-1-2-7-3-1" inkscape:connector-curvature="0" inkscape:transform-center-x="-689.63727" inkscape:transform-center-y="265.80217" class="st3" d="
					M48417.5-151.6c44.3-77.2,78.6-159.8,102.2-245.6l-237.9-137.3c17.8-95.9,17.7-193.1,0.5-287c-111.9-29.2-223.8-39.1-333.6-29.3
					c148,220.3,201.7,505,156.9,824.1l149.7,86.4C48318-3.7,48372.6-74.7,48417.5-151.6L48417.5-151.6z"/>
				
					<path id="path8866-7-5-5-0-3-5-6" inkscape:connector-curvature="0" inkscape:transform-center-x="-117.49007" inkscape:transform-center-y="639.34029" class="st2" d="
					M47504.2,375.8c89-0.3,177.7-11.8,263.8-34.3V66.8c91.9-32.5,176.1-81.3,248.8-143.1c-30.7-111.5-78.1-213.3-141.4-303.6
					c-116.8,238.3-336.5,427.2-635.2,547.9v172.9C47326.3,363.6,47415,375.3,47504.2,375.8z"/>
				
					<path id="path8868-6-7-4-7-5-7-1" inkscape:connector-curvature="0" inkscape:transform-center-x="514.04857" inkscape:transform-center-y="444.04652" class="st3" d="
					M46590.7-151.5c44.7,77,99,148,161.6,211.3l237.9-137.3c74.1,63.3,158.4,111.8,248.3,143.9c81.2-82.3,145.7-174.3,192.2-274.3
					c-264.8,18-538.2-77.8-792.1-276.2l-149.7,86.4C46512.4-311.6,46546.6-228.9,46590.7-151.5L46590.7-151.5z"/>
				
					<path id="path8870-5-3-9-3-0-0-9" inkscape:connector-curvature="0" inkscape:transform-center-x="689.63729" inkscape:transform-center-y="-265.80221" class="st2" d="
					M46590.7-1206.2c-44.3,77.2-78.6,159.8-102.2,245.6l237.9,137.3c-17.8,95.9-17.7,193.1-0.5,287
					c111.9,29.2,223.8,39.1,333.6,29.3c-148-220.3-201.7-505-156.9-824.1l-149.7-86.4C46690.1-1354.1,46635.6-1283.2,46590.7-1206.2
					z"/>
				
					<path id="path8872-6-3-2-1-4-2-1" inkscape:connector-curvature="0" inkscape:transform-center-x="117.49005" inkscape:transform-center-y="-639.34032" class="st3" d="
					M47504-1733.6c-89,0.3-177.7,11.8-263.8,34.3v274.7c-91.9,32.5-176.1,81.3-248.8,143.1c30.7,111.5,78.1,213.3,141.4,303.6
					c116.8-238.3,336.5-427.2,635.2-547.9v-172.9C47681.9-1721.4,47593.2-1733.2,47504-1733.6L47504-1733.6z"/>
			</g>
		</g>
	</g>
</g>
</svg>
