<svg xmlns="http://www.w3.org/2000/svg" viewBox="0 0 140 140"><path d="M71.4 3.5C34.6 3.5 4.8 33.3 4.8 70.1s29.8 66.6 66.6 66.6S138 106.9 138 70.1 108.2 3.5 71.4 3.5zm27.2 34.7l12.6-7.3c3.3 3.4 6.2 7.1 8.6 11.2 2.3 4.1 4.2 8.5 5.4 13l-7.9 4.6c-13.4-10.5-27.9-15.6-42-14.6 2.5-5.3 5.9-10.2 10.2-14.5 4.8 1.7 9.2 4.3 13.1 7.6zM82.3 70.1c0 6-4.9 10.9-10.9 10.9s-10.9-4.9-10.9-10.9 4.9-10.9 10.9-10.9 10.9 4.9 10.9 10.9zM57.4 30.6V16.1c4.6-1.2 9.3-1.8 14-1.8 4.7 0 9.4.6 14 1.8v9.2c-15.8 6.4-27.5 16.4-33.6 29-3.4-4.8-5.9-10.2-7.5-16.1 3.8-3.3 8.3-5.9 13.1-7.6zM23 42.2c2.4-4.1 5.3-7.8 8.6-11.2l7.9 4.6c-2.4 16.9.5 32 8.3 43.6-5.8.5-11.7 0-17.7-1.6-.9-5-.9-10.1 0-15.2l-12.6-7.3c1.4-4.5 3.2-8.8 5.5-12.9zM44.2 102l-12.6 7.3c-3.3-3.4-6.2-7.1-8.6-11.2-2.3-4.1-4.1-8.5-5.4-13l7.9-4.6C39 90.9 53.5 96 67.5 95c-2.5 5.3-5.9 10.2-10.2 14.5-4.7-1.6-9.2-4.2-13.1-7.5zm41.2 7.6v14.5c-4.6 1.2-9.3 1.8-14 1.8-4.7 0-9.4-.6-14-1.8V115c15.8-6.4 27.5-16.4 33.6-29 3.4 4.8 5.9 10.2 7.5 16.1-3.8 3.2-8.2 5.8-13.1 7.5zM119.8 98c-2.4 4.1-5.3 7.8-8.6 11.2l-7.9-4.6c2.4-16.9-.5-32-8.3-43.6 5.8-.5 11.7 0 17.7 1.6.9 5 .9 10.1 0 15.2l12.6 7.3c-1.3 4.5-3.1 8.8-5.5 12.9z" fill="#fff"/></svg>