<svg xmlns="http://www.w3.org/2000/svg" style="isolation:isolate" width="72" height="72"><defs><clipPath id="a"><path d="M0 0h72v72H0z"/></clipPath></defs><g clip-path="url(#a)"><path d="M52.333 47.456c0 9.022-7.327 16.363-16.333 16.363-9.006 0-16.333-7.341-16.333-16.363 0-.149.009-.35.035-.603 1.029-1.468 6.278-7.827 15.566-.393 10.417 8.339 16.909 0 16.909 0h.074c.064.452.082.777.082.996zm8.167 0C60.5 60.99 49.51 72 36 72S11.5 60.99 11.5 47.456c0-12.967 22.029-43.993 22.967-45.307L36 0l1.533 2.149C38.471 3.463 60.5 34.489 60.5 47.456zm-3.769 0c0-9.042-13.772-30.849-20.731-40.924-6.959 10.076-20.731 31.886-20.731 40.924 0 11.452 9.3 20.768 20.731 20.768 11.431 0 20.731-9.316 20.731-20.768z" fill="#FFF"/></g></svg>