<?xml version="1.0" standalone="no"?><!-- Generator: Gravit.io --><svg xmlns="http://www.w3.org/2000/svg" xmlns:xlink="http://www.w3.org/1999/xlink" style="isolation:isolate" viewBox="0 0 72 72" width="72" height="72"><defs><clipPath id="_clipPath_Jcmw4oxLcjgtmqU083OZzL0VMxKqXHBm"><rect width="72" height="72"/></clipPath></defs><g clip-path="url(#_clipPath_Jcmw4oxLcjgtmqU083OZzL0VMxKqXHBm)"><path d=" M 52.333 47.456 C 52.333 56.478 45.006 63.819 36 63.819 C 26.994 63.819 19.667 56.478 19.667 47.456 C 19.667 47.307 19.676 47.106 19.702 46.853 C 20.731 45.385 25.98 39.026 35.268 46.46 C 45.685 54.799 52.177 46.46 52.177 46.46 L 52.251 46.46 C 52.315 46.912 52.333 47.237 52.333 47.456 Z  M 60.5 47.456 C 60.5 60.99 49.51 72 36 72 C 22.49 72 11.5 60.99 11.5 47.456 C 11.5 34.489 33.529 3.463 34.467 2.149 L 36 0 L 37.533 2.149 C 38.471 3.463 60.5 34.489 60.5 47.456 Z  M 56.731 47.456 C 56.731 38.414 42.959 16.607 36 6.532 C 29.041 16.608 15.269 38.418 15.269 47.456 C 15.269 58.908 24.569 68.224 36 68.224 C 47.431 68.224 56.731 58.908 56.731 47.456 Z " fill="rgb(255,255,255)"/></g></svg>