<svg xmlns="http://www.w3.org/2000/svg" width="40" height="40"><g fill="none" fill-rule="evenodd"><path d="M8.848 12.914c.09.452.189.902.302 1.348 1.81-.41 3.78-.716 5.835-.908a44.673 44.673 0 0 1 3.727-4.61 25.84 25.84 0 0 0-.656-.607c-3.41-3.029-6.647-4.236-8.11-3.39-1.373.797-1.92 3.967-1.098 8.167zm.276 16.99a28.99 28.99 0 0 0-.32 1.454c-.782 4.12-.207 7.191 1.172 7.988.648.375 1.72.36 3.067-.115 1.498-.53 3.199-1.582 4.896-3.065.283-.25.56-.505.832-.767a45.337 45.337 0 0 1-3.754-4.638c-2.12-.174-4.101-.46-5.893-.856zm21.75-15.623c.071-.289.137-.578.196-.87.92-4.467.351-7.873-1.114-8.717-1.375-.793-4.392.317-7.621 3.126-.343.299-.678.606-1.005.921 1.25 1.346 2.496 2.902 3.697 4.615 2.063.194 4.033.507 5.847.925zM7.84 16.521a26.47 26.47 0 0 0-1.504.474C2.375 18.377 0 20.406 0 22c0 .75.547 1.671 1.633 2.6 1.207 1.033 2.97 1.98 5.102 2.71.357.121.718.234 1.08.34a45.373 45.373 0 0 1 2.16-5.602 44.723 44.723 0 0 1-2.136-5.527zM20 30.953c-.868 0-1.722-.015-2.559-.05a41.548 41.548 0 0 0 2.632 3.15c.857-.941 1.717-2 2.567-3.157-.868.036-1.748.057-2.64.057zm11.21-.073a24.656 24.656 0 0 0-.237-1.058c-1.811.418-3.81.725-5.922.913-1.202 1.74-2.435 3.307-3.667 4.656.368.355.735.69 1.1 1.003 3.179 2.736 6.127 3.772 7.504 2.976.648-.375 1.172-1.31 1.431-2.716.29-1.566.226-3.564-.21-5.774zm2.275-13.92a25.747 25.747 0 0 0-1.3-.41c-.538 1.74-1.257 3.579-2.13 5.46.914 1.925 1.662 3.788 2.215 5.54.25-.073.495-.15.735-.23C37.334 25.885 40 23.69 40 22c0-1.588-2.468-3.647-6.515-5.04zm-10.89-3.775a40.027 40.027 0 0 0-2.573-3.108 41.548 41.548 0 0 0-2.597 3.108 54.835 54.835 0 0 1 5.17 0zm-8.976 2.197a42.466 42.466 0 0 0-3.964.68 41.66 41.66 0 0 0 1.39 3.783 54.237 54.237 0 0 1 2.574-4.463zm.04 13.37a55.256 55.256 0 0 1-2.614-4.51 42.22 42.22 0 0 0-1.418 3.861 40.02 40.02 0 0 0 4.032.648zm12.726-13.366a60.903 60.903 0 0 1 2.588 4.461 39.857 39.857 0 0 0 1.4-3.766 41.522 41.522 0 0 0-3.988-.695zM20 18.093a3.905 3.905 0 1 1 0 7.81 3.905 3.905 0 0 1 0-7.81zm8.991 6.081a61.023 61.023 0 0 1-1.269 2.318c-.432.75-.88 1.492-1.341 2.226a39.47 39.47 0 0 0 4.079-.696 39.955 39.955 0 0 0-1.469-3.848z" fill="#FFF" fill-rule="nonzero"/><path d="M0 0h40v40H0z"/></g></svg>