<svg xmlns="http://www.w3.org/2000/svg" width="40" height="40" viewBox="0 0 40 40">
  <g fill="none" fill-rule="evenodd">
    <g fill="#FFFFFF" fill-rule="nonzero" transform="translate(0 4.444)">
      <path d="M8.84836472 8.46977205C8.93756194 8.92170466 9.03666997 9.3716551 9.14965312 9.81764123 10.9593657 9.40733399 12.9296333 9.10208127 14.9851338 8.90981169 16.1843409 7.21704658 17.4410307 5.66303271 18.7115956 4.29930624 18.4915758 4.08919722 18.2735382 3.88701685 18.0555005 3.69276511 14.6461843.664023786 11.4093162-.543111992 9.94648167.303270565 8.5728444 1.10009911 8.02576809 4.26957384 8.84836472 8.46977205zM9.12388503 25.4608523C9.0049554 25.9425173 8.89791873 26.4261645 8.80475719 26.913776 8.02180377 31.0346878 8.59663033 34.1050545 9.97621407 34.9018831 10.6243806 35.2765114 11.6967294 35.2626363 13.0426165 34.7869177 14.5411298 34.2576809 16.2418236 33.2051536 17.938553 31.7224975 18.222002 31.4727453 18.4995045 31.2170466 18.7710605 30.9554014 17.4945491 29.5857284 16.2259663 28.0198216 15.0168484 26.3171457 12.8979187 26.1427156 10.9157582 25.8572844 9.12388503 25.4608523zM30.8741328 9.83746283C30.9454906 9.54806739 31.0109019 9.25867195 31.0703667 8.96729435 31.9900892 4.49950446 31.4212091 1.09415263 29.9563925.24975223 28.580773-.543111992 25.5639247.566897919 22.3349851 3.37561943 21.9920714 3.67492567 21.6570862 3.98216056 21.3300297 4.29732408 22.580773 5.6432111 23.8255699 7.19920714 25.0267592 8.91179386 27.0901883 9.10604559 29.0604559 9.41922696 30.8741328 9.83746283zM7.839445 12.0773043C7.33399405 12.2200198 6.83052527 12.3785927 6.33498513 12.5510406 2.37462834 13.9326065 0 15.9623389 0 17.555996 0 18.3052527.547076313 19.2269574 1.6333003 20.1565907 2.84043608 21.1892963 4.60257681 22.1367691 6.73538157 22.8662042 7.09217047 22.987116 7.45292369 23.1000991 7.81565907 23.2051536 8.36868186 21.4033697 9.09613479 19.5123885 9.97423191 17.6035679 9.10604559 15.7185332 8.38652131 13.8572844 7.839445 12.0773043zM20 26.5094153C19.1318137 26.5094153 18.2775025 26.493558 17.4410307 26.4598612 18.3032706 27.5976214 19.1873142 28.654113 20.0733399 29.6095144 20.9296333 28.6679881 21.789891 27.6095144 22.6402379 26.4519326 21.7720515 26.4876115 20.8919722 26.5094153 20 26.5094153zM31.2091179 26.4360753C31.1417245 26.0911794 31.0604559 25.7383548 30.9732408 25.3776016 29.1615461 25.7958375 27.1635282 26.1030723 25.0505451 26.2913776 23.8493558 28.0317146 22.6164519 29.5976214 21.3835481 30.9474727 21.7522299 31.3022795 22.1189296 31.6372646 22.4836472 31.950446 25.6630327 34.6858276 28.6105055 35.7224975 29.988107 34.925669 30.6362735 34.5510406 31.1595639 33.6154609 31.419227 32.210109 31.7086224 30.6442022 31.6451933 28.6461843 31.2091179 26.4360753zM33.4846383 12.5153617C33.0664024 12.370664 32.6323092 12.2338949 32.1843409 12.1050545 31.6471754 13.8453915 30.9276511 15.6848365 30.0555005 17.5659068 30.9692765 19.4905847 31.716551 21.3538157 32.2695738 23.1060456 32.5193261 23.0327056 32.765114 22.9554014 33.0049554 22.876115 37.3339941 21.4410307 40 19.246779 40 17.555996 40 15.9682854 37.5322101 13.9088206 33.4846383 12.5153617zM22.5946482 8.74132805C21.7462834 7.60951437 20.8820614 6.56689792 20.0218038 5.6333003 19.1456888 6.57879088 18.2755203 7.62140733 17.4251734 8.74132805 19.147671 8.66005946 20.8721506 8.66005946 22.5946482 8.74132805zM13.6194252 10.9375619C12.2338949 11.1100099 10.9018831 11.3399405 9.65510406 11.617443 10.0356789 12.8424182 10.5014866 14.111001 11.0445986 15.4013875 11.4390486 14.6382557 11.8493558 13.8830525 12.2794846 13.1397423 12.7076313 12.3964321 13.1555996 11.6610505 13.6194252 10.9375619zM13.6590684 24.3072349C13.1833499 23.5698712 12.7254708 22.8206145 12.2854311 22.061447 11.8553023 21.3161546 11.4410307 20.5629336 11.0445986 19.7978196 10.4895937 21.1159564 10.0138751 22.4122894 9.62735382 23.6590684 10.876115 23.9306244 12.2259663 24.1466799 13.6590684 24.3072349zM26.3845391 10.9415263C26.8444004 11.6610505 27.2864222 12.3904856 27.7145689 13.1278494 28.148662 13.877106 28.5688801 14.6362735 28.9732408 15.4033697 29.5262636 14.1090188 29.9960357 12.8444004 30.3726462 11.6372646 29.1179386 11.3518335 27.7799802 11.1179386 26.3845391 10.9415263zM20 13.6491576C22.1565907 13.6491576 23.9048563 15.3974232 23.9048563 17.5540139 23.9048563 19.7106046 22.1565907 21.4588702 20 21.4588702 17.8434093 21.4588702 16.0951437 19.7106046 16.0951437 17.5540139 16.0951437 15.3994054 17.8434093 13.6491576 20 13.6491576zM28.9910803 19.7304262C28.5847374 20.5113974 28.1625372 21.28444 27.7224975 22.0475719 27.2903865 22.7988107 26.8424182 23.5401388 26.3805748 24.2735382 27.8235877 24.1010902 29.1912785 23.8671952 30.4598612 23.5777998 30.0673935 22.3528246 29.5758176 21.0624381 28.9910803 19.7304262z"/>
    </g>
    <rect width="40" height="40"/>
  </g>
</svg>
