<svg xmlns="http://www.w3.org/2000/svg" viewBox="0 0 256 256"><path d="M208.6 172.4H96.7c-10.5 0-19.1-8.6-19.1-19.1 0-10.5 8.6-19.1 19.1-19.1h61.1c17.8 0 32.4-14.5 32.4-32.4s-14.5-32.4-32.4-32.4H47.2c-3.1-9.8-12.2-17-23.1-17C10.8 52.5 0 63.3 0 76.7c0 13.3 10.8 24.2 24.2 24.2 11.2 0 20.7-7.7 23.4-18.1h110.3c10.5 0 19.1 8.6 19.1 19.1 0 10.5-8.6 19.1-19.1 19.1H96.7c-17.8 0-32.4 14.5-32.4 32.4 0 17.8 14.5 32.4 32.4 32.4h111.9c2.9 10.1 12.2 17.5 23.2 17.5 13.3 0 24.2-10.8 24.2-24.2 0-13.3-10.8-24.2-24.2-24.2-11 0-20.3 7.4-23.2 17.5z" fill="#f26b00"/></svg>