<svg width="72" height="72" xmlns="http://www.w3.org/2000/svg"><path fill="none" d="M-1-1h74v74H-1z"/><path stroke="null" d="M12.601 57.655l-5.04 4.727q1.226 1.149 2.559 2.18l4.162-5.485q-.852-.683-1.68-1.422zM31.136 2.868a34.252 34.252 0 0 0-16.16 4.022L10.764 0 7 15.41l15.41 3.763-3.882-6.385a27.385 27.385 0 0 1 11.634-3.02v3.048h1.887V9.769a27.53 27.53 0 0 1 26.562 26.326h-3.03v1.882h3.058a27.53 27.53 0 0 1-42.313 22.518l-3.982 5.6A34.415 34.415 0 1 0 31.136 2.869zm12.082 19.358L30.671 40.89v5.103H43.32v5.954h5.394v-5.949h2.582V40.89h-2.587V22.249l-5.49-.023zm.101 18.664h-6.632l6.632-9.707v9.707zm-26.237-.728l-8.962 9.13v2.638h20.076v-5.086H17.872l3.249-3.428q3.921-4.055 5.366-7.03a12.625 12.625 0 0 0 1.473-5.601 8.436 8.436 0 0 0-1.21-4.263 8.34 8.34 0 0 0-3.232-3.21 10.402 10.402 0 0 0-11.628 1.603q-2.728 2.688-2.946 7.377h5.377a5.473 5.473 0 0 1 1.26-3.585 3.803 3.803 0 0 1 2.952-1.322 3.92 3.92 0 0 1 2.868 1.12 3.72 3.72 0 0 1 1.12 2.767 7.786 7.786 0 0 1-1.12 3.585q-1.059 2.022-4.313 5.31l-.006-.005z" fill="#18b6ed"/></svg>