<svg width="72" height="72" xmlns="http://www.w3.org/2000/svg">
 <defs>
  <style>.cls-1{fill:#18b6ed;}</style>
 </defs>
 <title>RiiConnect24</title>
 <g>
  <title>background</title>
  <rect fill="none" id="canvas_background" height="74" width="74" y="-1" x="-1"/>
 </g>
 <g>
  <title>Layer 1</title>
  <path stroke="null" id="svg_1" d="m12.601351,57.654709l-5.041216,4.72754q1.226696,1.148277 2.559818,2.178926l4.161804,-5.483723q-0.851405,-0.683365 -1.680405,-1.422743zm18.534871,-54.786817a34.252263,34.252263 0 0 0 -16.159898,4.02177l-4.212216,-6.889662l-3.764108,15.409317l15.409317,3.764108l-3.881736,-6.38554a27.385006,27.385006 0 0 1 11.634007,-3.019128l0,3.047135l1.887655,0l0,-3.047135a27.530641,27.530641 0 0 1 26.561608,26.326351l-3.030331,0l0,1.882054l3.058338,0a27.530641,27.530641 0 0 1 -42.312607,22.517432l-3.982561,5.601351a34.414702,34.414702 0 1 0 18.792533,-63.228053zm12.082115,19.35827l-12.547027,18.663702l0,5.102831l12.647851,0l0,5.954236l5.394101,0l0,-5.948635l2.582223,0l0,-5.108432l-2.587824,0l0,-18.641297l-5.489324,-0.022405zm0.100824,18.663702l-6.632,0l6.632,-9.707142l0,9.707142zm-26.236729,-0.728176l-8.962162,9.130203l0,2.638236l20.075243,0l0,-5.086027l-10.32329,0l3.248784,-3.428027q3.920946,-4.055378 5.366095,-7.029696a12.625446,12.625446 0 0 0 1.473155,-5.601351a8.435635,8.435635 0 0 0 -1.209892,-4.262628a8.340412,8.340412 0 0 0 -3.23198,-3.209574a10.401709,10.401709 0 0 0 -11.628405,1.601986q-2.727858,2.688649 -2.946311,7.37698l5.377297,0a5.47252,5.47252 0 0 1 1.260304,-3.584865a3.803318,3.803318 0 0 1 2.951912,-1.321919a3.920946,3.920946 0 0 1 2.867892,1.12027a3.719297,3.719297 0 0 1 1.12027,2.767068a7.785878,7.785878 0 0 1 -1.12027,3.584865q-1.058655,2.022088 -4.31304,5.310081l-0.005601,-0.005601z" class="cls-1"/>
 </g>
</svg>