<?xml version="1.0" standalone="no"?>
<!DOCTYPE svg PUBLIC "-//W3C//DTD SVG 20010904//EN"
 "http://www.w3.org/TR/2001/REC-SVG-20010904/DTD/svg10.dtd">
<svg version="1.0" xmlns="http://www.w3.org/2000/svg"
 width="40.000000pt" height="40.000000pt" viewBox="0 0 40.000000 40.000000"
 preserveAspectRatio="xMidYMid meet">

<g transform="translate(0.000000,40.000000) scale(0.100000,-0.100000)"
fill="#000000" stroke="none">
<path d="M10 220 c0 -56 3 -70 15 -70 12 0 15 13 15 55 0 42 3 55 15 55 8 0
15 7 15 15 0 10 -10 15 -30 15 l-30 0 0 -70z"/>
<path d="M128 283 c-33 -4 -38 -8 -38 -30 0 -23 3 -25 30 -19 17 3 30 1 30 -4
0 -5 -12 -10 -27 -12 -25 -3 -28 -7 -31 -45 -3 -38 -1 -43 17 -43 16 0 21 7
21 28 1 26 1 26 15 8 8 -11 15 -28 15 -38 0 -16 9 -18 80 -18 l80 0 0 90 0 90
-77 -2 c-43 -1 -95 -3 -115 -5z"/>
<path d="M340 275 c0 -10 10 -15 30 -15 20 0 30 5 30 15 0 10 -10 15 -30 15
-20 0 -30 -5 -30 -15z"/>
<path d="M370 195 c0 -42 -3 -55 -15 -55 -8 0 -15 -7 -15 -15 0 -10 10 -15 30
-15 l30 0 0 70 c0 56 -3 70 -15 70 -12 0 -15 -13 -15 -55z"/>
<path d="M10 125 c0 -10 10 -15 30 -15 20 0 30 5 30 15 0 10 -10 15 -30 15
-20 0 -30 -5 -30 -15z"/>
</g>
</svg>
