<svg xmlns="http://www.w3.org/2000/svg" width="40" height="40" viewBox="0 0 200 200"><path d="M165.37 35.444c-.738.007-1.16.04-1.16.04H8.123v20.847h146.464s8.885-.287 8.76 14.379c-.076 16.32-6.976 16.09-8.76 16.09H8.39v21.38h146.197s9.373-1.137 9.296 15.182c-.077 16.32-6.977 16.09-8.762 16.09H8.392l-.268 20.847h149.403s33.699 1.729 33.917-31.802c.217-33.53-2.613-29.612-9.145-33.313 8.492-3.266 8.927-8.71 8.927-35.273 0-23.243-20.685-24.513-25.856-24.467z" fill="#0064e7" stroke="#000" stroke-width=".265" stroke-opacity="0"/></svg>