<?xml version="1.0" standalone="no"?>
<!DOCTYPE svg PUBLIC "-//W3C//DTD SVG 20010904//EN"
 "http://www.w3.org/TR/2001/REC-SVG-20010904/DTD/svg10.dtd">
<svg version="1.0" xmlns="http://www.w3.org/2000/svg"
 width="3000.000000pt" height="3000.000000pt" viewBox="0 0 3000.000000 3000.000000"
 preserveAspectRatio="xMidYMid meet">
<metadata>
Created by potrace 1.15, written by Peter Selinger 2001-2017
</metadata>
<g transform="translate(0.000000,3000.000000) scale(0.100000,-0.100000)"
fill="#000000" stroke="none">
<path d="M6330 20480 c-1070 -1271 -1957 -2325 -1973 -2344 l-27 -34 102 -6
c57 -3 200 -9 320 -12 l216 -6 -221 -262 -220 -261 119 -8 c65 -4 4875 -153
10689 -332 5814 -178 10618 -327 10678 -330 59 -3 107 -2 107 2 0 5 -101 128
-225 275 -124 147 -225 270 -225 274 0 4 55 4 121 1 119 -7 121 -7 108 13 -8
11 -1022 1216 -2254 2679 l-2240 2660 -6565 0 -6565 0 -1945 -2309z"/>
<path d="M18860 16675 c-3809 -96 -8669 -217 -10800 -270 -2131 -53 -3876 -97
-3878 -99 -1 -2 97 -122 219 -267 l222 -264 -121 -3 c-67 -1 -122 -6 -122 -10
0 -13 10649 -12647 10663 -12650 14 -3 11109 13158 11115 13184 4 15 -129 15
-537 -2 l-134 -5 50 58 c27 32 125 148 218 258 92 110 177 210 188 223 l20 22
-89 -1 c-49 -1 -3205 -79 -7014 -174z"/>
</g>
</svg>
