<svg xmlns="http://www.w3.org/2000/svg" xmlns:xlink="http://www.w3.org/1999/xlink" preserveAspectRatio="none" width="72" height="72"><defs><path fill="#FFF" d="M64.3 3.9q-.2-.2-.45-.35-1.95-1.4-4.5-1.4H31.6q-1.35 0-2.6.45-1.65.55-3.15 1.8-2.75 2.25-3.25 5.25l-1.65 12H21v.3l5.85 1.15h-9.5q-.5.05-1 .15-.5.15-1 .35-.5.2-.95.45-.5.3-.95.7-.45.35-.85.8-.35.4-.65.85-.3.45-.5.9-.15.45-.3.95L5.3 69.85h16.25l5-35.5H30q.75-.1 1.5-.35.85-.25 1.65-.75.55-.35 1.05-.8.5-.45.95-1 .5-.5.75-1.2l.3-1.05v-.05l1.75-12.25H49.1l-2.05 14.45h16.5l2.3-16.25h-.05l.8-5.7q.4-2.45-1-4.2-.35-.4-.75-.8-.25-.25-.55-.5m-32 25.65l.6.6q.25.2.55.3.4.25.9.5.146-.018.3-.05l-.65.7q-.147.162-.3.3-.452.408-.95.7-.703.46-1.45.65l-.05.05q-.663.218-1.35.3h-3.25l1.4-10.5 4.25 6.45z" id="a"/></defs><use xlink:href="#a"/></svg>