<?xml version="1.0" encoding="UTF-8"?><!DOCTYPE svg  PUBLIC '-//W3C//DTD SVG 20010904//EN'  'http://www.w3.org/TR/2001/REC-SVG-20010904/DTD/svg10.dtd'><svg width="72pt" height="72pt" version="1.0" viewBox="0 0 72 72" xmlns="http://www.w3.org/2000/svg"><metadata>https://rune-status.net/</metadata><g transform="translate(0 72) scale(.1 -.1)"><path d="m205 601c-65-8-104-33-160-105l-45-58v-120c0-137 9-165 70-232 61-66 111-86 218-86 114 0 168 18 237 82 75 68 115 152 115 242 0 86-29 165-77 207-39 34-99 63-112 55-4-3-17 1-27 9-20 15-122 18-219 6zm185-21c70-13 133-61 165-125 37-75 42-125 16-177-25-52-72-110-111-138l-30-21 10 26c5 14 10 40 10 56s5 29 10 29c6 0 10 11 10 25 0 23-10 30-34 26-4-1-29 12-55 28-91 57-192 76-250 46-16-8-40-28-55-45l-26-32v40c0 141 118 268 251 271 20 1 60-4 89-9zm-60-280c79-26 100-44 100-82 0-43-14-63-70-97-65-40-100-49-100-26 0 28-90 187-103 182-13-4-15-47-4-92l8-30-22 33c-11 17-25 32-30 32-12 0-11-32 1-66 15-38 8-38-19 1-17 26-21 41-16 65 8 35 49 88 79 101 29 12 99 4 176-21z"/></g></svg>