<svg xmlns="http://www.w3.org/2000/svg" data-name="Layer 1" viewBox="0 0 71.11 71.11"><path fill="#fff" d="M70.62 34.68l-3-1.85q0-.44-.08-.87l2.57-2.41a1 1 0 0 0-.34-1.71l-3.28-1.23c-.08-.28-.17-.57-.26-.85l2-2.84a1 1 0 0 0-.67-1.61l-3.46-.56c-.13-.26-.27-.52-.42-.78l1.45-3.19a1 1 0 0 0-1-1.45l-3.51.12-.55-.67.81-3.42a1 1 0 0 0-1.24-1.24l-3.42.81-.67-.55.12-3.51a1 1 0 0 0-1.45-1l-3.1 1.49-.78-.42-.56-3.46a1 1 0 0 0-1.61-.67l-2.84 2-.85-.26-1.23-3.22a1 1 0 0 0-1.7-.34l-2.41 2.56-.87-.08-1.85-3a1 1 0 0 0-1.75 0l-1.85 3-.86.08L29.55.99a1 1 0 0 0-1.71.34l-1.21 3.28-.85.26-2.84-2a1 1 0 0 0-1.61.67l-.57 3.41-.78.42-3.19-1.46a1 1 0 0 0-1.45 1l.12 3.51-.67.55-3.42-.81a1 1 0 0 0-1.24 1.24l.81 3.42-.55.67-3.51-.12a1 1 0 0 0-1 1.45l1.45 3.19c-.14.26-.28.51-.42.78l-3.46.56a1 1 0 0 0-.67 1.61l2 2.84c-.09.28-.18.56-.26.85l-3.19 1.2a1 1 0 0 0-.34 1.7l2.56 2.41c0 .29-.06.58-.08.87l-3 1.85a1 1 0 0 0 0 1.75l3 1.85q0 .44.08.87l-2.56 2.4a1 1 0 0 0 .34 1.71l3.28 1.23c.08.28.17.57.26.85l-2 2.84a1 1 0 0 0 .67 1.61l3.46.56.42.78-1.51 3.18a1 1 0 0 0 1 1.45l3.51-.12.55.67-.81 3.42a1 1 0 0 0 1.24 1.23l3.42-.81.67.55-.12 3.51a1 1 0 0 0 1.45 1l3.19-1.45.78.42.56 3.46a1 1 0 0 0 1.61.67l2.84-2 .85.26 1.23 3.28a1 1 0 0 0 1.71.34l2.37-2.64.87.09 1.85 3a1 1 0 0 0 1.75 0l1.85-3 .87-.09 2.4 2.56a1 1 0 0 0 1.71-.34l1.23-3.28.85-.26 2.84 2a1 1 0 0 0 1.61-.67l.56-3.46.78-.42 3.19 1.45a1 1 0 0 0 1.45-1l-.12-3.51.67-.55 3.42.81a1 1 0 0 0 1.24-1.23l-.81-3.42.55-.67 3.51.12a1 1 0 0 0 1-1.45l-1.45-3.19.42-.78 3.46-.56a1 1 0 0 0 .67-1.61l-2-2.84c.09-.28.17-.56.26-.85l3.28-1.23a1 1 0 0 0 .24-1.62l-2.56-2.41c0-.29.06-.58.08-.87l3-1.85a1 1 0 0 0 0-1.75zm-20 24.76a2.11 2.11 0 1 1 2.51-1.63 2.12 2.12 0 0 1-2.49 1.63zm-1-6.86a1.92 1.92 0 0 0-2.29 1.48l-1.06 4.95a26.07 26.07 0 0 1-21.72-.11l-1-4.94a1.92 1.92 0 0 0-2.29-1.48l-4.37.94a25.91 25.91 0 0 1-2.26-2.66h21.24c.24 0 .4 0 .4-.26v-7.52c0-.22-.16-.26-.4-.26h-6.21v-4.77h6.72a4.22 4.22 0 0 1 4.17 3.6c.27 1 .85 4.46 1.25 5.55s2 3.67 3.76 3.67h10.55a2.17 2.17 0 0 0 .38 0 26.09 26.09 0 0 1-2.4 2.78l-4.47-1zm-29.38 6.76a2.12 2.12 0 1 1 1.62-2.51 2.11 2.11 0 0 1-1.62 2.51zm-8.06-32.68a2.11 2.11 0 1 1-2.79-1.11 2.12 2.12 0 0 1 2.79 1.11zM9.7 32.55l4.55-2a1.93 1.93 0 0 0 1-2.54l-.94-2.12h3.68v16.56h-7.44a26 26 0 0 1-1-7.13 26.32 26.32 0 0 1 .15-2.77zm20-1.61v-4.92h8.77c.45 0 3.2.52 3.2 2.58 0 1.71-2.11 2.32-3.84 2.32h-8.17zm31.85 4.38q0 1-.07 1.93h-2.67c-.27 0-.37.18-.37.44v1.22c0 2.88-1.63 3.51-3.05 3.67s-2.86-.57-3-1.4c-.8-4.5-2.13-5.46-4.24-7.12 2.61-1.66 5.33-4.11 5.33-7.39a8.35 8.35 0 0 0-4.08-6.86 11.58 11.58 0 0 0-5.58-1.84H16.18a26 26 0 0 1 14.54-8.21l3.25 3.41a1.92 1.92 0 0 0 2.72.06l3.64-3.48a26 26 0 0 1 17.8 12.68l-2.48 5.64a1.93 1.93 0 0 0 1 2.54l4.8 2.13q.12 1.28.13 2.58zM33.98 6.87a2.11 2.11 0 1 1-.07 3 2.11 2.11 0 0 1 .07-3zM58.7 26.76a2.11 2.11 0 1 1 1.07 2.79 2.11 2.11 0 0 1-1.07-2.79z"/></svg>