<?xml version="1.0" encoding="UTF-8"?>
<svg width="106px" height="106px" viewBox="0 0 106 106" version="1.1" xmlns="http://www.w3.org/2000/svg" xmlns:xlink="http://www.w3.org/1999/xlink">
    <!-- Generator: Sketch 55.2 (78181) - https://sketchapp.com -->
    <title>rust-logo-blk</title>
    <desc>Created with Sketch.</desc>
    <g id="Page-1" stroke="none" stroke-width="1" fill="none" fill-rule="evenodd">
        <g id="rust-logo-blk" fill="#FFFFFF" fill-rule="nonzero">
            <path d="M49.743,13.035 C49.743,11.318499 51.134499,9.927 52.851,9.927 C54.567501,9.927 55.959,11.318499 55.959,13.035 C55.959,14.751501 54.567501,16.143 52.851,16.143 C51.134499,16.143 49.743,14.751501 49.743,13.035 L49.743,13.035 Z M12.666,41.175 C12.666,39.458499 14.057499,38.067 15.774,38.067 C17.490501,38.067 18.882,39.458499 18.882,41.175 C18.882,42.891501 17.490501,44.283 15.774,44.283 C14.057499,44.283 12.666,42.891501 12.666,41.175 L12.666,41.175 Z M86.819,41.32 C86.819,39.6034991 88.2104991,38.2120003 89.927,38.2120003 C91.6435009,38.2120003 93.035,39.6034991 93.035,41.32 C93.035,43.0365009 91.6435009,44.4279997 89.927,44.4279997 C88.2104991,44.4279997 86.819,43.0365009 86.819,41.32 L86.819,41.32 Z M21.663,45.578 C23.093,44.943 23.739,43.267 23.104,41.834 L21.725,38.716 L27.148,38.716 L27.148,63.16 L16.207,63.16 C14.8564783,58.4163523 14.4357591,53.4563481 14.968,48.553 L21.663,45.578 Z M44.348,46.179 L44.348,38.974 L57.262,38.974 C57.929,38.974 61.972,39.745 61.972,42.768 C61.972,45.278 58.871,46.178 56.321,46.178 L44.348,46.179 Z M26.717,84.972 C26.717,83.255499 28.108499,81.864 29.825,81.864 C31.541501,81.864 32.933,83.255499 32.933,84.972 C32.933,86.688501 31.541501,88.08 29.825,88.08 C28.108499,88.08 26.717,86.688501 26.717,84.972 L26.717,84.972 Z M72.768,85.117 C72.768,83.400499 74.159499,82.009 75.876,82.009 C77.592501,82.009 78.984,83.400499 78.984,85.117 C78.984,86.833501 77.592501,88.225 75.876,88.225 C74.159499,88.225 72.768,86.833501 72.768,85.117 L72.768,85.117 Z M73.729,78.069 C72.198,77.741 70.692,78.715 70.364,80.249 L68.804,87.529 C58.6522623,92.1274686 47.0001765,92.0716016 36.893,87.376 L35.334,80.096 C35.006,78.564 33.5,77.588 31.97,77.917 L25.543,79.297 C24.3488491,78.0672371 23.2386817,76.7586228 22.22,75.38 L53.492,75.38 C53.846,75.38 54.082,75.316 54.082,74.994 L54.082,63.932 C54.082,63.61 53.846,63.546 53.492,63.546 L44.346,63.546 L44.346,56.534 L54.238,56.534 C55.141,56.534 59.066,56.792 60.321,61.809 C60.714,63.352 61.577,68.371 62.167,69.978 C62.755,71.78 65.149,75.38 67.7,75.38 L83.846,75.38 C82.7631275,76.8293975 81.5788231,78.2001698 80.302,79.482 L73.729,78.069 Z M91.094,48.862 C91.3135365,51.0697976 91.3406387,53.2925059 91.175,55.505 L87.249,55.505 C86.856,55.505 86.698,55.763 86.698,56.148 L86.698,57.951 C86.698,62.195 84.305,63.118 82.208,63.353 C80.211,63.578 77.997,62.517 77.724,61.295 C76.546,54.669 74.583,53.254 71.483,50.809 C75.33,48.366 79.333,44.762 79.333,39.938 C79.333,34.729 75.762,31.448 73.328,29.839 C69.913,27.588 66.132,27.137 65.112,27.137 L24.509,27.137 C30.1219612,20.8647526 37.6463993,16.618197 45.917,15.055 L50.703,20.076 C51.785,21.209 53.577,21.251 54.709,20.168 L60.064,15.046 C71.1124616,17.1155013 80.6921625,23.9382406 86.26,33.703 L82.594,41.983 C81.961,43.416 82.607,45.092 84.036,45.727 L91.094,48.862 Z M100.237,48.996 L100.112,47.716 L103.888,44.194 C104.656,43.478 104.369,42.037 103.387,41.671 L98.56,39.866 L98.182,38.62 L101.193,34.438 C101.807,33.588 101.243,32.231 100.209,32.061 L95.119,31.233 L94.507,30.09 L96.646,25.395 C97.084,24.439 96.27,23.216 95.218,23.256 L90.052,23.436 L89.236,22.446 L90.423,17.414 C90.663,16.392 89.626,15.354 88.604,15.594 L83.573,16.78 L82.581,15.964 L82.762,10.798 C82.802,9.752 81.578,8.935 80.624,9.369 L75.93,11.509 L74.787,10.896 L73.957,5.805 C73.789,4.773 72.431,4.209 71.581,4.821 L67.396,7.832 L66.152,7.455 L64.347,2.627 C63.981,1.643 62.539,1.36 61.825,2.124 L58.303,5.903 L57.023,5.778 L54.303,1.383 C53.753,0.493 52.28,0.493 51.732,1.383 L49.012,5.778 L47.731,5.903 L44.208,2.124 C43.494,1.36 42.052,1.643 41.686,2.627 L39.881,7.455 L38.636,7.832 L34.452,4.821 C33.602,4.207 32.243,4.773 32.075,5.805 L31.245,10.896 L30.102,11.509 L25.408,9.369 C24.454,8.933 23.23,9.752 23.27,10.798 L23.45,15.964 L22.458,16.78 L17.427,15.594 C16.405,15.356 15.367,16.392 15.607,17.414 L16.792,22.446 L15.978,23.436 L10.812,23.256 C9.77,23.226 8.949,24.439 9.383,25.395 L11.523,30.09 L10.91,31.233 L5.82,32.061 C4.786,32.229 4.226,33.588 4.836,34.438 L7.847,38.62 L7.469,39.866 L2.641,41.671 C1.661,42.037 1.374,43.478 2.14,44.194 L5.917,47.716 L5.792,48.996 L1.398,51.716 C0.508,52.266 0.508,53.739 1.398,54.287 L5.792,57.007 L5.917,58.287 L2.14,61.81 C1.374,62.524 1.661,63.964 2.641,64.332 L7.469,66.137 L7.847,67.383 L4.836,71.566 C4.224,72.418 4.787,73.776 5.821,73.942 L10.91,74.77 L11.523,75.915 L9.383,80.608 C8.947,81.562 9.77,82.789 10.812,82.747 L15.976,82.566 L16.792,83.558 L15.607,88.591 C15.367,89.611 16.405,90.647 17.427,90.407 L22.458,89.222 L23.45,90.036 L23.27,95.203 C23.23,96.249 24.454,97.067 25.408,96.631 L30.102,94.492 L31.245,95.105 L32.075,100.193 C32.243,101.229 33.602,101.789 34.452,101.179 L38.634,98.166 L39.88,98.545 L41.685,103.371 C42.051,104.351 43.493,104.64 44.207,103.872 L47.73,100.095 L49.011,100.223 L51.731,104.617 C52.279,105.503 53.752,105.505 54.302,104.617 L57.022,100.223 L58.302,100.095 L61.824,103.872 C62.538,104.64 63.98,104.351 64.346,103.371 L66.151,98.545 L67.397,98.166 L71.58,101.179 C72.43,101.789 73.788,101.227 73.956,100.193 L74.786,95.105 L75.929,94.492 L80.623,96.631 C81.577,97.067 82.799,96.251 82.761,95.203 L82.581,90.036 L83.572,89.222 L88.603,90.407 C89.625,90.647 90.662,89.611 90.422,88.591 L89.237,83.558 L90.051,82.566 L95.217,82.747 C96.259,82.789 97.083,81.562 96.645,80.608 L94.506,75.915 L95.118,74.77 L100.208,73.942 C101.244,73.776 101.806,72.418 101.192,71.566 L98.181,67.383 L98.559,66.137 L103.386,64.332 C104.368,63.964 104.655,62.524 103.887,61.81 L100.111,58.287 L100.236,57.007 L104.63,54.287 C105.52,53.739 105.521,52.266 104.631,51.716 L100.237,48.996 Z" id="Shape"></path>
        </g>
    </g>
</svg>