<svg width="72" height="72" xmlns="http://www.w3.org/2000/svg"><defs><clipPath id="a"><path d="M102.55 386.54h306.91V45.59H102.55z"/></clipPath><clipPath id="b"><path d="M102.55 386.54h306.91V45.59H102.55z"/></clipPath></defs><path d="M35.211 0c5.605 0 10.634 1.017 15.084 3.048 4.45 2.032 8.673 5.046 12.667 9.038l-6.047 9.173c-.352.534-.898.814-1.46.814a1.8 1.8 0 01-1.17-.447 31.726 31.726 0 00-3.202-2.363 45.437 45.437 0 00-4.94-2.736c-1.612-.756-3.119-1.325-4.521-1.703-1.402-.378-2.628-.57-3.678-.57-1.262 0-2.192.31-2.786.93-.596.62-.893 1.411-.893 2.376 0 1.238.717 2.393 2.155 3.46 1.434 1.068 3.24 2.17 5.412 3.306a238.374 238.374 0 016.992 3.822 38.239 38.239 0 016.99 5.113c2.172 2 3.978 4.393 5.415 7.181 1.436 2.789 2.156 6.112 2.156 9.968 0 3.719-.79 6.939-2.366 9.658-1.577 2.722-3.627 4.958-6.15 6.716-2.522 1.755-5.38 3.063-8.567 3.925A36.864 36.864 0 0136.683 72c-6.448 0-11.863-1.172-16.242-3.511-4.38-2.341-8.32-5.889-11.826-10.64l7.469-9.285c.357-.444.843-.667 1.332-.667.457 0 .916.195 1.274.59.043.047.858.942 2.33 2.08a28.994 28.994 0 004.784 2.994 33.81 33.81 0 005.255 2.118c1.787.553 3.451.827 4.993.827 1.54 0 2.716-.275 3.522-.827.805-.55 1.21-1.584 1.21-3.099 0-1.308-.722-2.546-2.156-3.719-1.437-1.17-3.225-2.391-5.363-3.667l-6.938-4.133a40.34 40.34 0 01-6.937-5.215 27.89 27.89 0 01-5.362-6.87c-1.436-2.582-2.154-5.56-2.154-8.936 0-3.306.63-6.197 1.892-8.675 1.26-2.48 2.96-4.562 5.098-6.251 2.137-1.686 4.607-2.96 7.41-3.822C29.077.432 32.056 0 35.21 0" fill="#fff"/></svg>