<svg xmlns="http://www.w3.org/2000/svg" xmlns:xlink="http://www.w3.org/1999/xlink" data-name="Layer 1" viewBox="0 0 72 72"><defs><linearGradient id="a" x1="32.96" x2="46.95" y1="76.62" y2="-2.24" gradientUnits="userSpaceOnUse"><stop offset="0" stop-color="#434343"/><stop offset="1" stop-color="#7c7c7c"/></linearGradient><linearGradient id="b" x1="66.67" x2="11.72" y1="39.68" y2="4.37" gradientUnits="userSpaceOnUse"><stop offset="0" stop-color="#787878"/><stop offset=".04" stop-color="#878787"/><stop offset=".13" stop-color="#9c9c9c"/><stop offset=".23" stop-color="#adadad"/><stop offset=".35" stop-color="#b9b9b9"/><stop offset=".53" stop-color="silver"/><stop offset="1" stop-color="#c2c2c2"/></linearGradient><linearGradient xlink:href="#a" id="c" x1="3.74" x2="32.52" y1="77.07" y2="31.72"/><linearGradient id="d" x1="-23.11" x2="31.7" y1="56.68" y2="26.45" gradientUnits="userSpaceOnUse"><stop offset="0" stop-color="#434343"/><stop offset=".35" stop-color="#5d5d5d"/><stop offset=".75" stop-color="#747474"/><stop offset="1" stop-color="#7c7c7c"/></linearGradient></defs><path d="M71.36 36A35.38 35.38 0 0 1 5.29 53.6a23.09 23.09 0 0 0 18.78 9.64c.59 0 1.17 0 1.75-.07A23.11 23.11 0 0 0 28 17.36a28.58 28.58 0 0 1 43.2 15.21c.11 1.12.16 2.27.16 3.43Z" style="fill:url(#a);fill-rule:evenodd"/><path d="M71.23 32.58a28.56 28.56 0 0 0-43.18-15.2 23.09 23.09 0 0 1 19.09 21 .76.76 0 0 1-.08.11 30.6 30.6 0 0 1-30.55-5.32A30.61 30.61 0 0 1 8.66 23a30.92 30.92 0 0 1-2.2-6.39 35.38 35.38 0 0 1 64.77 16Z" style="fill:url(#b);fill-rule:evenodd"/><path d="M47.21 40.14a23.11 23.11 0 0 1-21.36 23c-.58 0-1.16.06-1.75.06a23.09 23.09 0 0 1-18.78-9.59 35.28 35.28 0 0 1-4.06-10.94A30.49 30.49 0 0 0 17 50.62a30.82 30.82 0 0 0 5.3.46 30.53 30.53 0 0 0 24.74-12.6h.09c.06.52.08 1.09.08 1.66Z" style="fill:url(#c);fill-rule:evenodd"/><path d="M47.06 38.48a30.53 30.53 0 0 1-24.74 12.6 30.82 30.82 0 0 1-5.3-.46 30.49 30.49 0 0 1-15.76-7.95c-.09-.48-.17-1-.24-1.46A34.45 34.45 0 0 1 .64 36a35.16 35.16 0 0 1 5.82-19.44A30.92 30.92 0 0 0 8.66 23a30.61 30.61 0 0 0 7.85 10.21 30.6 30.6 0 0 0 30.55 5.32Z" style="fill:url(#d);fill-rule:evenodd"/></svg>