<svg xmlns="http://www.w3.org/2000/svg" width="40" height="40"><path fill="#fff" fill-opacity="0" pointer-events="none" d="M0 0h40v40H0z"/><path d="M7.808 24.583c0 .837.006 1.673-.002 2.509-.009.913.403 1.545 1.281 1.933 3.264 1.442 6.525 2.887 9.773 4.362.804.365 1.535.36 2.328-.001 2.053-.936 4.124-1.839 6.183-2.762.168-.076.456-.092.433-.335-.02-.18-.275-.205-.436-.277-3.757-1.67-7.516-3.335-11.272-5.005-2.542-1.13-5.08-2.269-7.621-3.398-.58-.258-.662-.204-.667.408-.006.855-.001 1.711 0 2.567m24.873-10.17c0-.815-.007-1.63.001-2.446.011-.93-.393-1.58-1.3-1.979a1132.729 1132.729 0 0 1-9.772-4.36c-.78-.352-1.5-.35-2.275.003-2.054.935-4.123 1.839-6.183 2.76-.176.08-.461.108-.469.317-.008.228.286.237.459.314 3.093 1.377 6.19 2.746 9.284 4.12 3.186 1.417 6.369 2.84 9.556 4.254.634.28.693.239.697-.419.006-.854.002-1.708.002-2.563M8.3 13.899c0 .805.026 1.61-.006 2.415-.037.94.398 1.55 1.297 1.945 7.48 3.288 14.954 6.59 22.431 9.886.569.25.634.216.636-.364.008-1.553-.048-3.107.02-4.658.058-1.294-.522-2.035-1.765-2.564-4.058-1.725-8.08-3.525-12.114-5.304-3.296-1.453-6.587-2.917-9.882-4.374-.566-.25-.611-.224-.616.372-.007.883-.002 1.764 0 2.646" fill="#FFF" fill-rule="evenodd"/></svg>