<svg width="72" height="72" viewBox="0 0 19 19.1" xmlns="http://www.w3.org/2000/svg"><path transform="matrix(.264 0 0 .264 -.00272 -.0022)" d="M36.7 2.04c-.234-.00679-.469-.00439-.709.00781-2.98.152-6.47 1.8-11.7 5.54l-2.33 1.69-11.6 8.46c-8.47 6.16-11.6 8.16-7.19 22.1l.758 2.34.131.406.203.617 1.37 4.22.201.629.158.484.732 2.25.887 2.73.00195.0078.889 2.74c.436 1.34.832 2.55 1.22 3.67.308.882.618 1.7.941 2.45 2.32 5.37 5.53 7.51 16.7 7.57h17.3c1.46 0 2.77-.0073 3.99-.0371.872-.0205 1.69-.0594 2.46-.129 1.52-.14 2.87-.396 4.07-.9.0013-.000567.0026-.0014.0039-.002.755-.317 1.45-.73 2.12-1.26h.002c2.32-1.87 4.18-5.25 6.19-11.3l.381-1.2.504-1.55.678-2.09.215-.652.273-.848.613-1.88 2.67-8.21c3.24-9.96 4.63-13.4-7.19-22.1l-9.31-6.76-4.65-3.38c-4.47-3.25-7.38-5.45-10.9-5.55zm-.551 5.48c.186.00374.375.0143.568.0293 3.14.242 4.89 1.86 6.81 3.26l.0566.0547-6.2 23.8h-2.7l-6.18-23.8c.0198-.0174.0351-.0385.0566-.0547 2.25-1.73 4.44-3.12 7.02-3.28.184-.0114.368-.0135.555-.00977zm11.9 6.62h.002l.262.186 1.61 1.18 1.61 1.16 1.61 1.18 1.61 1.16 1.61 1.18 3.24 2.34c2.68 1.84 4.89 3.72 5.62 6.74.74 3.06-.275 5.23-1.01 7.49l-.6 1.89-.617 1.89-.619 1.89-.617 1.91-1.23 3.78-.619 1.89-.617 1.89-.6 1.91-.617 1.89c-.922 3.12-2.04 5.79-4.68 7.41-2.68 1.65-5.05 1.37-7.43 1.37h-19.9c-3.25.0873-6.13-.121-8.5-2.13-2.4-2.04-2.86-4.38-3.59-6.64l-.619-1.89-.617-1.91-.6-1.89-1.85-5.67-.619-1.91-1.85-5.67c-1.09-3.07-1.77-5.88-.582-8.76 1.2-2.91 3.28-4.07 5.21-5.47l1.61-1.16 3.22-2.36 1.63-1.16 1.61-1.18 1.61-1.16 1.61-1.18.242-.17 2.43 9.34-.617.449-1.61 1.16-1.61 1.18-1.61 1.16-1.63 1.18-1.61 1.16c-1.64 1.19-1.94 1.48-2.08 1.59.0347.174.105.832.691 2.47l.656 2.02 1.23 3.78.6 1.89.617 1.89.617 1.91.619 1.89 1.85 5.67c.579 1.96.802 2.34.861 2.49.19.0241.833.144 2.55.0938h20c1.83 0 2.41-.0512 2.62-.0566.0769-.166.412-.734.898-2.4l.656-2.02 1.23-3.78.619-1.89.617-1.91.598-1.89.619-1.89 1.23-3.78.619-1.91c.565-1.74.7-2.34.748-2.51-.14-.131-.59-.626-2-1.59l-1.72-1.23-1.61-1.18-1.61-1.16-1.61-1.18-1.61-1.16-.637-.469z" style="fill:#fff"/></svg>