<svg xmlns="http://www.w3.org/2000/svg" xmlns:xlink="http://www.w3.org/1999/xlink" width="36.8" height="36.8" viewBox="0 0 36.8 36.8"><defs><style>.a{fill:url(#a);}.b{fill:url(#b);}.c{fill:url(#c);}.d{fill:url(#d);}.e{fill:url(#e);}.f{fill:url(#f);}.g{fill:url(#g);}.h{fill:url(#h);}</style><radialGradient id="a" cx="27.94" cy="-16358" r="12.58" gradientTransform="matrix(1, 0, 0, -1, 0, -16342)" gradientUnits="userSpaceOnUse"><stop offset="0" stop-color="#14e620"/><stop offset="1" stop-color="#00a822"/></radialGradient><radialGradient id="b" cx="24.14" cy="-16358" r="11.22" gradientTransform="matrix(1, 0, 0, -1, 0, -16342)" gradientUnits="userSpaceOnUse"><stop offset="0.21" stop-color="#59d941"/><stop offset="1" stop-color="#148200"/></radialGradient><radialGradient id="c" cx="12.06" cy="-16366" r="12.58" gradientTransform="matrix(1, 0, 0, -1, 0, -16342)" gradientUnits="userSpaceOnUse"><stop offset="0" stop-color="#ff5042"/><stop offset="1" stop-color="#f71812"/></radialGradient><radialGradient id="d" cx="15.86" cy="-16366" r="11.22" gradientTransform="matrix(1, 0, 0, -1, 0, -16342)" gradientUnits="userSpaceOnUse"><stop offset="0.4" stop-color="#d94343"/><stop offset="1" stop-color="#a00"/></radialGradient><radialGradient id="e" cx="24" cy="-16369.94" r="12.58" gradientTransform="matrix(1, 0, 0, -1, 0, -16342)" gradientUnits="userSpaceOnUse"><stop offset="0" stop-color="#f6ff00"/><stop offset="1" stop-color="#ffab00"/></radialGradient><radialGradient id="f" cx="24" cy="-16366.14" r="11.22" gradientTransform="matrix(1, 0, 0, -1, 0, -16342)" gradientUnits="userSpaceOnUse"><stop offset="0.22" stop-color="#f7ff1e"/><stop offset="1" stop-color="#d6751d"/></radialGradient><radialGradient id="g" cx="16" cy="-16354.06" r="12.58" gradientTransform="matrix(1, 0, 0, -1, 0, -16342)" gradientUnits="userSpaceOnUse"><stop offset="0" stop-color="#00bacf"/><stop offset="1" stop-color="#3675ff"/></radialGradient><radialGradient id="h" cx="16" cy="-16357.86" r="11.22" gradientTransform="matrix(1, 0, 0, -1, 0, -16342)" gradientUnits="userSpaceOnUse"><stop offset="0.24" stop-color="#38a8eb"/><stop offset="1" stop-color="#2155c7"/></radialGradient></defs><title>ShareX_Discord</title><path class="a" d="M25.6,1.6a11.51,11.51,0,0,0-4.38.87c5.28,1.83,9.06,6.35,9.18,11.66,0,0.09,0,.18,0,0.27a11.92,11.92,0,0,1-3.27,8.12,15,15,0,0,1-9.65,4.61A11.92,11.92,0,0,0,25.6,30.4h0.27c5.32-.12,9.84-3.89,11.66-9.18A16,16,0,0,0,38.4,16C38.4,8,32.67,1.6,25.6,1.6Z" transform="translate(-1.6 -1.6)"/><path class="b" d="M17.88,27.13a15,15,0,0,0,9.65-4.61A11.92,11.92,0,0,0,30.8,14.4c0-.09,0-0.18,0-0.27C30.67,8.81,26.9,4.29,21.62,2.47a11.52,11.52,0,0,1,4.17-.86H25.6a11.51,11.51,0,0,0-4.38.87c5.28,1.83,9.06,6.35,9.18,11.66,0,0.09,0,.18,0,0.27a11.92,11.92,0,0,1-3.27,8.12,15,15,0,0,1-9.65,4.61A11.92,11.92,0,0,0,25.6,30.4h0.19A11.94,11.94,0,0,1,17.88,27.13Z" transform="translate(-1.6 -1.6)"/><path class="c" d="M9.6,25.87c0-.09,0-0.18,0-0.27a11.92,11.92,0,0,1,3.27-8.12,15,15,0,0,1,9.65-4.61A11.92,11.92,0,0,0,14.4,9.6H14.13c-5.32.12-9.84,3.89-11.66,9.18A16,16,0,0,0,1.6,24c0,8,5.73,14.4,12.8,14.4a11.51,11.51,0,0,0,4.38-.87C13.5,35.71,9.73,31.19,9.6,25.87Z" transform="translate(-1.6 -1.6)"/><path class="d" d="M9.6,25.87c0-.09,0-0.18,0-0.27a11.92,11.92,0,0,1,3.27-8.12,15,15,0,0,1,9.65-4.61A11.92,11.92,0,0,0,14.4,9.6H14.21a11.94,11.94,0,0,1,7.9,3.26,15,15,0,0,0-9.65,4.61A11.92,11.92,0,0,0,9.2,25.6c0,0.09,0,.18,0,0.27,0.12,5.32,3.89,9.84,9.18,11.66a11.52,11.52,0,0,1-4.17.86H14.4a11.51,11.51,0,0,0,4.38-.87C13.5,35.71,9.73,31.19,9.6,25.87Z" transform="translate(-1.6 -1.6)"/><path class="e" d="M37.53,21.22c-1.83,5.28-6.35,9.06-11.66,9.18H25.6a11.92,11.92,0,0,1-8.12-3.27,15,15,0,0,1-4.61-9.65A11.92,11.92,0,0,0,9.6,25.6c0,0.09,0,.18,0,0.27,0.12,5.32,3.89,9.84,9.18,11.66A16,16,0,0,0,24,38.4c8,0,14.4-5.73,14.4-12.8A11.51,11.51,0,0,0,37.53,21.22Z" transform="translate(-1.6 -1.6)"/><path class="f" d="M12.87,17.88a15,15,0,0,0,4.61,9.65A11.92,11.92,0,0,0,25.6,30.8h0.27c5.32-.12,9.84-3.89,11.66-9.18a11.52,11.52,0,0,1,.86,4.17c0-.06,0-0.12,0-0.19a11.51,11.51,0,0,0-.87-4.38c-1.83,5.28-6.35,9.06-11.66,9.18H25.6a11.92,11.92,0,0,1-8.12-3.27,15,15,0,0,1-4.61-9.65A11.92,11.92,0,0,0,9.6,25.6c0,0.06,0,.12,0,0.19A11.94,11.94,0,0,1,12.87,17.88Z" transform="translate(-1.6 -1.6)"/><path class="g" d="M30.4,14.13C30.27,8.81,26.5,4.29,21.22,2.47A16,16,0,0,0,16,1.6C8,1.6,1.6,7.33,1.6,14.4a11.51,11.51,0,0,0,.87,4.38C4.29,13.5,8.81,9.73,14.13,9.6H14.4a11.92,11.92,0,0,1,8.12,3.27,13.7,13.7,0,0,1,1.42,1.53,15.25,15.25,0,0,1,3.2,8.12A11.92,11.92,0,0,0,30.4,14.4C30.4,14.31,30.4,14.22,30.4,14.13Z" transform="translate(-1.6 -1.6)"/><path class="h" d="M27.13,22.12A15.25,15.25,0,0,0,23.94,14a13.7,13.7,0,0,0-1.42-1.53A11.92,11.92,0,0,0,14.4,9.2H14.13c-5.32.12-9.84,3.89-11.66,9.18a11.52,11.52,0,0,1-.86-4.17c0,0.06,0,.12,0,0.19a11.51,11.51,0,0,0,.87,4.38C4.29,13.5,8.81,9.73,14.13,9.6H14.4a11.92,11.92,0,0,1,8.12,3.27,13.7,13.7,0,0,1,1.42,1.53,15.25,15.25,0,0,1,3.2,8.12A11.92,11.92,0,0,0,30.4,14.4c0-.06,0-0.12,0-0.19A11.94,11.94,0,0,1,27.13,22.12Z" transform="translate(-1.6 -1.6)"/></svg>