<svg xmlns="http://www.w3.org/2000/svg" width="72" height="72"><defs><style>.a{fill:#fff}</style></defs><path class="a" d="M1.7 32.05c3.57-10.34 12.42-17.72 22.82-18H25a23.32 23.32 0 0 1 15.88 6.39 26.8 26.8 0 0 1 2.78 3A29.83 29.83 0 0 1 50 39.36a23.38 23.38 0 0 0 6.38-15.1C56 14 48.64 5.24 38.38 1.7A31.22 31.22 0 0 0 28.17 0C12.9 0 .47 10.81 0 24.29a22.54 22.54 0 0 0 1.7 7.76z"/><path class="a" d="M32.05 70.3c-10.34-3.57-17.72-12.42-18-22.82v-.53a23.32 23.32 0 0 1 6.39-15.88 29.27 29.27 0 0 1 18.88-9 23.38 23.38 0 0 0-15.1-6.38c-10.29.36-19 7.7-22.56 18A31.22 31.22 0 0 0 0 43.83C0 59.1 10.81 71.53 24.29 72a22.54 22.54 0 0 0 7.76-1.7z"/><path class="a" d="M70.3 39.95c-3.57 10.34-12.42 17.72-22.82 18H47a23.32 23.32 0 0 1-15.88-6.39 29.27 29.27 0 0 1-9-18.88 23.38 23.38 0 0 0-6.38 15.1c.36 10.29 7.7 19 18 22.56A31.22 31.22 0 0 0 43.83 72C59.1 72 71.53 61.19 72 47.71a22.54 22.54 0 0 0-1.7-7.76z"/><path class="a" d="M47.71 0a22.54 22.54 0 0 0-7.76 1.7c10.34 3.57 17.72 12.42 18 22.82v.53a23.32 23.32 0 0 1-6.39 15.88 29.27 29.27 0 0 1-18.88 9 23.38 23.38 0 0 0 15.1 6.38c10.29-.36 19-7.7 22.56-18A31.22 31.22 0 0 0 72 28.17C72 12.9 61.19.47 47.71 0z"/></svg>