<svg xmlns="http://www.w3.org/2000/svg" width="40" height="40"><g fill="none" fill-rule="evenodd"><path fill="#FFF" fill-rule="nonzero" d="M30.396 39.797c-2.152 0-4.325.02-6.477 0-1.848-.04-3.635-.487-5.32-1.259-4.04-1.827-6.843-4.832-8.284-9.035a14.352 14.352 0 0 1-.752-5.483c.102-1.908.528-3.756 1.32-5.502.447-.975.71-2.01.69-3.087-.02-1.705-.548-3.248-1.705-4.487a81.04 81.04 0 0 0-3.716-3.756c-.69-.67-1.583-.894-2.517-.731C1.929 6.74.285 5.523.04 3.797-.203 2.193.873.447 2.78.223a3.106 3.106 0 0 1 3.475 2.762c.02.325.02.65-.02.974-.102.914.121 1.726.75 2.376 1.219 1.259 2.458 2.518 3.737 3.716 1.157 1.096 2.599 1.624 4.183 1.726 1.198.08 2.314-.183 3.39-.67a14.527 14.527 0 0 1 5.056-1.3c5.137-.325 9.381 1.482 12.752 5.38 1.705 1.99 2.802 4.285 3.208 6.864.162 1.015.264 2.05.264 3.066.04 3.919.02 7.837.02 11.776a2.924 2.924 0 0 1-2.457 2.904c-.101.02-.203.02-.325.02-2.111-.02-4.264-.02-6.416-.02zm2.7-12.366h.041c-.04-1.38-.04-2.76-.162-4.121a8.294 8.294 0 0 0-.508-2.315c-1.503-3.756-5.604-6.335-10.01-5.482-4.792.913-7.94 5.32-7.229 10.091.427 2.802 1.91 4.934 4.325 6.416 1.462.894 3.087 1.239 4.792 1.26 1.95.02 3.878 0 5.828 0 .203 0 .406-.021.609-.041a2.652 2.652 0 0 0 2.314-2.64v-3.168z"/><path d="M0 0h40v40H0z"/></g></svg>