<svg xmlns="http://www.w3.org/2000/svg" width="72" height="72" viewBox="0 0 400 400"><path d="M161.523 379.374v-.81l1.23-1.712 1.23-1.712h.644v-1.024l.97-.843.97-.844.01-.681.011-.681 1.754-1.889 1.754-1.888-.246-.245-.247-.246-.708.873-.707.873h-.789l-1.095 1.297-1.095 1.298-1.94.992-1.94.993-1.034.473-1.034.474-.19.728-.19.728h-1.525l-.923 1.355-.923 1.355-.873.003-.873.003v-2.564l1.365-1.49 1.364-1.49.238-1.01.237-1.01 1.004-1.08 1.005-1.08-1.662.587-1.662.586-1.101.784-1.101.784h-1.626v.776h-.742l-1.666 1.547-1.665 1.547-.873.005-.873.005v-2.183l1.088-1.042 1.088-1.042h.595l.554-.555.554-.554V368.59l1.071-.633 1.072-.633.424-.899.424-.899-3.144-.605-3.144-.604-4.268-.657-4.267-.657-4.461-.935-4.461-.935-2.134-.323-2.134-.323-2.715-.61-2.716-.611-5.625-1.19-5.625-1.189-1.466-.34-1.467-.338-2.025.539-2.025.539-.872.005-.873.005v.714l-1.212.266-1.212.266-1.32.779-1.32.779-.391.731-.392.732h-1.912l.004-1.067.004-1.067 1.379-1.454 1.379-1.455H95.576v-1.506l.394-.244.394-.243-.223-.362-.223-.36H94.4l-.673.379-.674.38-2.489.784-2.488.784h-1.34l-.224.582-.223.582h-1.964v-1.966l.562-1.345.562-1.345h.924l.483-.66.483-.662-1.022-.594-1.023-.595-6.321.031-6.321.032-1.131.836-1.13.836H68.42v-1.848l1.261-.972 1.26-.971.923-.811.921-.811-.921-.357-.922-.358-1.996-.794-1.996-.793-.623.687-.622.688v.909h-1.94v-2.56l.466-.466.465-.466H62.989V345.295l-.562 1.345-.562 1.346H60.03l-.752.692-.752.692-1.678.868-1.678.87-2.243.234-2.243.234-2.092-.68-2.092-.68-1.312-.98-1.311-.98-1.132-2.495-1.131-2.495-.467.374-.466.375-2.58 1.94-2.58 1.941-3.194 1.064-3.193 1.063-2.13-.22-2.13-.22-.862-.81-.862-.81-.502-2.659-.501-2.66.181-1.887.181-1.888 1.23-2.577 1.23-2.577v-.471h-1.28l-2.068-1.012-2.068-1.012-1.352-1.495-1.351-1.496-1.017-2.007-1.017-2.007-.178-1.983-.177-1.984.313-3.103.313-3.104-2.106-2.521-2.107-2.522-.245-.194-.245-.194-1.759-2.715-1.758-2.716-.625-1.745-.624-1.746-.27-1.94-.27-1.94-.33-.886-.33-.886.351-3.398.352-3.398.665-1.535.666-1.535.94-2.057.94-2.058 2.161-2.597 2.16-2.598 1.794-1.653 1.794-1.652 1.649-1.043 1.648-1.044v-.703l-.563-2.19-.563-2.19-.773-5.624-.773-5.625-.14-5.916-.138-5.916h2.089l.205 1.26.204 1.261.51 1.746.51 1.746.492.31.492.31v1.746l.372.372.372.372.537 2.098.536 2.097.053-12.381.052-12.381.237-1.994.238-1.995 1.226-.626 1.226-.626 4.461-1.155 4.462-1.156.97-.234.97-.234 4.46-1.361 4.462-1.36 1.274-.546 1.274-.545h1.36l.468-4.946.466-4.947.578-6.207.578-6.207.233-1.07.233-1.071.547-1.097.548-1.097.696-.63.696-.63 1.731-.756 1.732-.756 3.685-.84 3.685-.839 1.358-.329 1.358-.33 2.843-.628 2.842-.63 4.48-.409 4.48-.41 1.6-.462 1.6-.464-.01-6.965-.01-6.966-.292-7.466-.292-7.465.603-1.166.603-1.166h1.2l1.62-.935 1.621-.934 1.868-.621 1.869-.622 3.682-.798 3.683-.797 2.596-.323 2.595-.322 4.072-.652 4.072-.652.132-.133.133-.132.02-15.566.022-15.566.742-.943.741-.943 1.628-.483 1.628-.483 2.03-1.078 2.029-1.078.492-.002.492-.002.97-.497.97-.498 1.746-.615 1.745-.615 3.686-1.03 3.685-1.03 2.134-.598 2.133-.597 1.358-.414 1.358-.415 1.358-1.215 1.358-1.215-.488-6.587-.487-6.587.212-7.871.211-7.871.338-.887.337-.887 1.102-.73 1.102-.728 2.134-1.104 2.133-1.105 2.522-.716 2.522-.716 1-.393 1.002-.393 2.684-.64 2.684-.639 1.94-.412 1.94-.412 2.002-.577 2.003-.578 1.495-1.437 1.496-1.437.695-5.212.695-5.213.4-3.491.4-3.491.543-4.034.542-4.034.683-1.39.684-1.389 1.163-.254 1.164-.254 2.134-.601 2.134-.601 1.163-.394 1.164-.393 4.073-.994 4.074-.994 3.297-.776 3.298-.775 2.652-.635 2.653-.634 3.942.28 3.942.28 3.686-.054 3.685-.054 8.68-.333 8.682-.333 4.897.178 4.897.178 19.008.575 19.01.574 2.52.382 2.522.38 4.462.375 4.46.375 7.372.8 7.37.8 3.104.59 3.103.59 2.134.316 2.134.315 1.842.671 1.843.671v.703H336.157l-.276 25.12-.277 25.118.067 1.94.067 1.94-.589 8.534-.588 8.534.16 31.617.158 31.617.38 7.952.378 7.953-.01.582-.012.582.293 6.207.292 6.207 1.191.581 1.19.582.37 1.164.37 1.164.02 7.177.02 7.177-.857 4.267-.857 4.267-.001.679v.679h1.883l.222-2.23.222-2.231.388-2.157.388-2.157v-2.691l.526-.765.527-.765.482-2.037.482-2.036h1.903l-.03 2.23-.03 2.231.3 2.32.3 2.32.874-.939.873-.938v-.629h2.327v1.94h.855l-.09 3.2-.09 3.2.072.776.072.776.658-1.613.657-1.613.97-1.103.97-1.102.687-1.067.688-1.067h4.321l2.402 2.425 2.401 2.424 1.4 2.716 1.4 2.715.894 2.813.895 2.813h.623V229l2.303-1.422 2.303-1.421 2.061-.35 2.061-.348 3.347-.24 3.346-.241 1.002 1.191 1.003 1.192.299 1.443.299 1.443.008 3.492.008 3.491-.707 2.328-.706 2.327-.606 1.552-.606 1.552-.822 1.673-.82 1.672-2.24 2.146-2.24 2.146 1.473 1.519 1.474 1.519.836 1.645.835 1.646.772 2.133.771 2.134.274 1.164.274 1.163.102-.387.103-.388.493-2.231.494-2.23h4.019l.504 1.527.504 1.528-.192 4.68-.193 4.678H392.733v1.164h1.164v6.918l.462.154.463.155-.389 2.6-.388 2.601.463 2.612.464 2.611.438 1.746.437 1.745.245 5.464.245 5.464-.875 3.459-.875 3.458-.912 1.424-.912 1.423-.265 1.098-.265 1.099-1.124 2.251-1.124 2.252-1.633 1.754-1.632 1.753-.97.535-.97.535-1.68 1.582-1.679 1.583-3.156 2.218-3.156 2.218-2.907 1.842-2.908 1.843h-.549l-2.845 1.681-2.844 1.682-1.164.387-1.164.388-.125.646-.126.647h1.086l.843.898.844.898v2.084h-1.94v-.749l-.816-.437-.816-.436-2.326-.33-2.325-.328-.991.377-.991.377 1.306 1.054 1.306 1.053 1.273 1.358 1.273 1.358.002.679.002.679.485.004.485.004.686 2.227.686 2.227-.007.485-.007.485h-1.84l-.923-1.355-.923-1.356-.656-.003-.656-.003-.208-.337-.21-.338-1.204-.241-1.204-.241-1.154-.822-1.155-.822-2.91-1.12-2.912-1.122h-.301l.903.976.904.975.242 1.207.241 1.207v3.782h-1.94v-1.576l-.678-.25-.68-.251-.193-.234-.194-.234L339 354.28l-3.883-1.25h-1.286l-1.681.715-1.681.715-1.358.252-1.358.253-1.551.37-1.552.37-6.983 1.984-6.983 1.984-3.491.596-3.492.596-.368.35-.369.35h.931v1.85l.735.192.735.192.266 1.21.266 1.212h.712l1.158 1.842 1.157 1.843.008.873.008.873h-2.328v-.837l-1.536-1.521-1.537-1.522h-.521l-.628-.718-.627-.718-1.455-.524-1.455-.523v-.62h-1.068l-.483-.582-.483-.582h-1.392l-.229-.485-.229-.485.222 1.14.222 1.14.514.412.513.412.46 1.45.458 1.448.36.223.36.222v2.333l-1.035-.122-1.034-.123-.614-1.216-.615-1.217-1.331-.483-1.332-.483-.778-.725-.778-.725h-.63v1.94h.776V369.202l.776.702.776.702V372.476l-1.261-.122-1.261-.121-.383-.873-.383-.873h-.944l-1.085-1.01-1.084-1.011-1.991-1.95-1.99-1.95-1.307.245-1.307.245-4.85.592-4.849.59-4.267.387-4.267.386-5.665.373-5.665.374-1.04.54-1.04.539-18.684.061-18.685.062-.1.099-.099.099-.042 1.925-.042 1.926.26 1.454.261 1.455H208.468l-.551-1.26-.552-1.261-.031 1.648-.032 1.649h-1.94v1.164h-2.174l-.424-4.292-.424-4.291-.263-.263-.263-.263-1.938 2.033-1.94 2.033h-1.764l-.667.737-.667.737.413.256.413.255v1.859l-1.391.26-1.392.262-.63-.63-.63-.63-.015-3.685-.015-3.684-1.746-.017-1.746-.016-5-.342-5.001-.342-3.578 2.878-3.579 2.877h-1.657v.654l-1.287.694-1.287.693-.362.665-.361.665-1.164 1.597-1.164 1.598-1.066.015-1.067.015v-.81zm-1.552-11.41v-.195h-.388v.388h.388zm224.614-97.395v-.605l-.394.244-.394.243.223.361.223.361h.342zM32.73 263.22v-.194h-.388v.388h.388z" fill="#fff"/></svg>