<svg version="1.0" xmlns="http://www.w3.org/2000/svg" width="72" height="72" viewBox="0 0 72 72"><g transform="translate(0,72) scale(0.1,-0.1)" fill="#FFF"><path d="M31 697 c-9 -12 -15 -638 -5 -668 4 -15 38 -17 325 -17 239 0 323 3 332 12 9 10 12 96 12 347 l0 334 -327 2 c-238 1 -330 -2 -337 -10z m576 -72 c14 -5 16 -532 2 -541 -4 -2 -117 -5 -250 -5 -184 0 -244 3 -250 13 -4 7 -7 130 -6 273 l2 260 178 2 c99 1 182 4 185 8 6 5 113 -2 139 -10z"/><path d="M438 469 c-22 -16 -28 -29 -28 -59 0 -31 6 -42 34 -64 19 -14 39 -26 44 -26 23 0 72 59 72 87 0 33 -6 43 -40 66 -32 22 -49 21 -82 -4z"/><path d="M186 447 c-31 -41 -31 -39 -3 -82 18 -29 28 -35 59 -35 28 0 42 6 57 26 26 34 26 58 0 95 -30 43 -79 41 -113 -4z"/></g></svg>