<svg width="72" height="72" version="1.1" xmlns="http://www.w3.org/2000/svg" fill="#fff">
  <path d="m43.34 29.54c-1.0694-.89344-1.2116-2.5043-.31135-3.5738l16.136-19.223c.89344-1.0694 2.5043-1.2116 3.5738-.31135 1.0153.85283 1.1506 2.3825.29781 3.3978l-16.292 19.412c-.85283 1.022-2.3825 1.1506-3.4046.29781z"/>
  <path d="m38.176 28.484c-1.3537.4941-2.8631-.20982-3.3572-1.5635l-2.7412-7.5266c-.4941-1.3537.20982-2.8631 1.5635-3.3572 1.2048-.43995 2.545.18952 2.9781 1.3875l2.9443 8.0816c.43995 1.198-.18952 2.5382-1.3875 2.9781z"/>
  <path d="m44.382 37.669c1.3131-.4738 2.7751.20306 3.2489 1.5161l8.5825 23.581c.4738 1.3131-.20306 2.7751-1.5161 3.2489-1.2454.45349-2.6397-.19629-3.0932-1.4417l-8.6705-23.818c-.44672-1.2386.20306-2.6329 1.4485-3.0864z"/>
  <path d="m40.186 39.896c1.1033.92728 1.2522 2.5856.32489 3.6956l-5.1508 6.1323c-.92728 1.1033-2.5856 1.2522-3.6956.32489-.98143-.81899-1.11-2.2945-.28428-3.276l5.5299-6.5858c.82576-.98143 2.2945-1.11 3.276-.29105z"/>
  <path d="m38.155 34.969c-.24367 1.374-1.5635 2.3013-2.9375 2.0576l-24.719-4.3589c-1.374-.24367-2.3013-1.5635-2.0576-2.9375.23013-1.3063 1.4891-2.1862 2.7954-1.9561l24.955 4.3995c1.3131.23013 2.193 1.4891 1.9629 2.7954z"/>
  <path d="m60.816 34.359c-.25044 1.4214-1.6177 2.3757-3.0391 2.1253l-7.8853-1.3875c-1.4214-.25044-2.3757-1.6177-2.1253-3.0391.22336-1.2589 1.4349-2.1118 2.6939-1.8884l8.4674 1.4958c1.2589.21659 2.1118 1.4282 1.8884 2.6939z"/>
</svg>
