<svg enable-background="new 0 0 72 72" viewBox="0 0 72 72" xmlns="http://www.w3.org/2000/svg"><path d="m71.4 16.1s-23.5-18.7-41.7-14.4c-.5.1-1.1.3-1.6.5-2.8.9-4.9 2.6-6.2 4.6-.3.4-.4.8-.7 1.2l-6.7 12 11.6 2.4c4.6 3.5 11.1 4.9 16.6 3.4l20.7 4.3z" fill="#bbbdbf"/><path d="m71.4 16.1s-23.5-18.7-41.7-14.4c-.5.1-1.1.3-1.6.5-2.8.9-4.9 2.6-6.2 4.6-.3.4-.4.8-.7 1.2l-6.7 12 11.6 2.4c4.6 3.5 11.1 4.9 16.6 3.4l20.7 4.3z" fill="#ccc"/><path d="m21.7 15.9c-.5.1-1.1.3-1.6.5-7.4 2.5-10 9.9-5.7 16.3s13.8 9.7 21.2 7.1l27.8-9.5c.1-.1-23.4-18.8-41.7-14.4z" fill="#929497"/><path d="m21.7 15.9c-.5.1-1.1.3-1.6.5-7.4 2.5-10 9.9-5.7 16.3s13.8 9.7 21.2 7.1l27.8-9.5c.1-.1-23.4-18.8-41.7-14.4z" fill="#a5a5a5"/><path d="m58.3 37c-4.3-6.4-13.8-9.7-21.2-7.1l-27.8 9.5-8.7 16.5 49.7 9 8.9-16.8c1.8-3.2 1.6-7.3-.9-11.1z" fill="#5e5e5e"/><path d="m49.6 53.5c-4.3-6.4-13.8-9.7-21.2-7.1l-27.8 9.5s23.5 18.7 41.7 14.4c.5-.1 1.1-.3 1.6-.5 7.4-2.5 10-9.9 5.7-16.3z" fill="#7c7c7c"/></svg>