<?xml version="1.0" encoding="UTF-8" standalone="no"?>
<!-- Created with Inkscape (http://www.inkscape.org/) -->

<svg
   xmlns:dc="http://purl.org/dc/elements/1.1/"
   xmlns:cc="http://creativecommons.org/ns#"
   xmlns:rdf="http://www.w3.org/1999/02/22-rdf-syntax-ns#"
   xmlns:svg="http://www.w3.org/2000/svg"
   xmlns="http://www.w3.org/2000/svg"
   xmlns:sodipodi="http://sodipodi.sourceforge.net/DTD/sodipodi-0.dtd"
   xmlns:inkscape="http://www.inkscape.org/namespaces/inkscape"
   version="1.1"
   id="svg986"
   width="72"
   height="72"
   viewBox="0 0 72 72"
   sodipodi:docname="monochromatic.svg"
   inkscape:version="0.92.5 (0.92.5+68)">
  <metadata
     id="metadata992">
    <rdf:RDF>
      <cc:Work
         rdf:about="">
        <dc:format>image/svg+xml</dc:format>
        <dc:type
           rdf:resource="http://purl.org/dc/dcmitype/StillImage" />
        <dc:title></dc:title>
      </cc:Work>
    </rdf:RDF>
  </metadata>
  <defs
     id="defs990" />
  <sodipodi:namedview
     pagecolor="#ffffff"
     bordercolor="#666666"
     borderopacity="1"
     objecttolerance="10"
     gridtolerance="10"
     guidetolerance="10"
     inkscape:pageopacity="0"
     inkscape:pageshadow="2"
     inkscape:window-width="1850"
     inkscape:window-height="1016"
     id="namedview988"
     showgrid="false"
     inkscape:pagecheckerboard="true"
     inkscape:zoom="4.8888888"
     inkscape:cx="25.182321"
     inkscape:cy="13.170334"
     inkscape:window-x="70"
     inkscape:window-y="27"
     inkscape:window-maximized="1"
     inkscape:current-layer="svg986" />
  <path
     style="fill:#ffffff;fill-opacity:1;stroke:none;stroke-width:1;stroke-linejoin:round;stroke-miterlimit:4;stroke-dasharray:none;stroke-opacity:1"
     d="M 36 0 A 36 36 0 0 0 0 36 A 36 36 0 0 0 36 72 A 36 36 0 0 0 72 36 A 36 36 0 0 0 36 0 z M 21.083984 12.736328 L 29.287109 12.736328 L 29.287109 45.673828 C 29.287109 46.393474 29.301813 47.010675 29.332031 47.527344 C 29.362249 48.02556 29.431346 48.571631 29.537109 49.162109 C 29.657981 49.752588 29.817255 50.241404 30.013672 50.628906 C 30.210089 50.997956 30.488947 51.310025 30.851562 51.568359 C 31.229287 51.808241 31.675747 51.929687 32.189453 51.929688 C 32.703159 51.929687 33.14129 51.808241 33.503906 51.568359 C 33.866522 51.310025 34.14538 50.997956 34.341797 50.628906 C 34.538214 50.241404 34.689159 49.752588 34.794922 49.162109 C 34.915794 48.571631 34.991266 48.016669 35.021484 47.5 C 35.037256 47.230338 35.037487 46.866641 35.044922 46.546875 L 35.044922 12.736328 L 35.066406 12.736328 L 43.292969 12.736328 L 48.365234 12.736328 C 51.898166 12.736328 54.540609 13.804037 56.291016 15.939453 C 58.041423 18.07487 58.916016 21.181858 58.916016 25.261719 C 58.916016 26.876302 58.780812 28.326606 58.507812 29.611328 C 58.250872 30.89605 57.865443 31.981771 57.351562 32.867188 C 56.837682 33.752604 56.242828 34.507813 55.568359 35.132812 C 54.893891 35.740451 54.106323 36.217231 53.207031 36.564453 C 52.30774 36.911675 51.384968 37.164063 50.4375 37.320312 C 49.506091 37.459201 48.470251 37.527344 47.330078 37.527344 L 43.861328 37.527344 L 43.861328 55.914062 L 40.578125 55.914062 C 39.792194 56.959215 38.795895 57.772212 37.560547 58.322266 C 36.110083 58.949649 34.319822 59.263672 32.189453 59.263672 C 30.482136 59.263672 28.985437 59.05136 27.701172 58.626953 C 26.432016 58.184094 25.373448 57.566892 24.527344 56.773438 C 23.696349 55.979982 23.017096 54.955939 22.488281 53.701172 C 21.974575 52.427952 21.611917 51.034586 21.400391 49.521484 C 21.188865 47.98993 21.083984 46.209459 21.083984 44.179688 L 21.083984 12.736328 z M 43.861328 19.429688 L 43.861328 30.886719 L 46.679688 30.886719 C 48.269507 30.886719 49.322057 30.453993 49.835938 29.585938 C 50.365877 28.700521 50.630859 27.206163 50.630859 25.105469 C 50.630859 24.358941 50.60677 23.733941 50.558594 23.230469 C 50.526476 22.726997 50.430119 22.216146 50.269531 21.695312 C 50.125002 21.174479 49.908199 20.765842 49.619141 20.470703 C 49.346141 20.158203 48.960713 19.905816 48.462891 19.714844 C 47.965068 19.523872 47.362836 19.429688 46.65625 19.429688 L 43.861328 19.429688 z "
     id="path996" />
</svg>
