<svg xmlns="http://www.w3.org/2000/svg" viewBox="0 0 16 16" width="72" height="72">
	<path fill="#fff" d="M7.982 0C3.807 0 .383 1.49.015 3.393l4.446.842c.36-.107.777-.164 1.198-.167l2.09-1.252c-.024-.313.168-.632.589-.905.597-.387 1.534-.598 2.487-.606a5.662 5.662 0 011.876.274c1.396.47 1.717 1.387.71 2.038-.637.413-1.659.624-2.677.604l-2.752.981c-.024.196-.165.39-.428.56-.739.48-2.177.588-3.202.243-.453-.152-.751-.37-.879-.606L.316 4.802c.287.448.749.86 1.348 1.22C.62 6.621 0 7.373 0 8.188c0 .8.598 1.538 1.606 2.131C.597 10.914 0 11.655 0 12.456 0 14.413 3.579 16 7.998 16 12.417 16 16 14.413 16 12.456c0-.8-.598-1.542-1.607-2.136C15.402 9.727 16 8.989 16 8.19c0-.82-.628-1.577-1.68-2.178 1.042-.63 1.664-1.42 1.664-2.279C15.984 1.671 12.401 0 7.982 0zm2.856 1.774c-.644.013-1.273.146-1.681.41-.688.445-.476 1.06.478 1.382.954.32 2.269.22 2.956-.226.688-.445.476-1.058-.478-1.379a3.971 3.971 0 00-1.275-.187zm.036.213c.92 0 1.663.349 1.663.778 0 .428-.744.775-1.663.775-.92 0-1.662-.347-1.662-.775 0-.429.743-.778 1.662-.778zM5.659 4.3c-.198.014-.393.02-.578.052l1.138.214a1.345.628 0 11-1.011 1.162l-1.107-.21c.125.113.305.216.543.296.803.27 1.92.186 2.5-.19.58-.374.398-.893-.406-1.164A3.38 3.38 0 005.66 4.3zm7.967 2.08v1.16c0 1.377-2.52 2.49-5.628 2.49S2.374 8.917 2.374 7.54V6.394c1.443.663 3.422 1.073 5.608 1.073 2.202 0 4.197-.416 5.644-1.088zm0 4.328v1.099c0 1.376-2.52 2.49-5.628 2.49s-5.624-1.114-5.624-2.49v-1.098c1.444.633 3.43 1.024 5.624 1.024 2.194 0 4.182-.391 5.628-1.025z"/>
</svg>
