<svg width="72" height="72" viewBox="0 0 72 72" fill="none" xmlns="http://www.w3.org/2000/svg">
<path fill-rule="evenodd" clip-rule="evenodd" d="M50.09 8.84995L50.4345 0.690391L10.1972 3.16653C8.2063 3.28905 6.67782 4.95246 6.75263 6.91521L9.0179 66.3456C9.08965 68.228 10.6156 69.7417 12.5269 69.8262L61.6012 71.9964C61.6561 71.9988 61.7111 72 61.7661 72C63.7966 72 65.4427 70.3793 65.4427 68.38V3.62009C65.4427 3.54477 65.4403 3.46946 65.4355 3.39429C65.3089 1.39892 63.5633 -0.117538 61.5368 0.00717246L57.5002 0.255582L57.7948 8.56415C57.8054 8.8622 57.5686 9.11226 57.2659 9.12267C57.1362 9.12712 57.0092 9.08621 56.9073 9.00718L54.1885 6.89829L50.9694 9.30261C50.728 9.48285 50.384 9.43634 50.201 9.19873C50.1239 9.09871 50.0847 8.97538 50.09 8.84995ZM52.0009 27.5788C50.7075 28.5681 41.0726 29.2431 41.0726 27.8347C41.2763 22.4606 38.8327 22.225 37.4751 22.225C36.1855 22.225 34.0134 22.6089 34.0134 25.4878C34.0134 28.4217 37.1876 30.0779 40.9134 32.022C46.2061 34.7836 52.6118 38.126 52.6118 46.5364C52.6118 54.5976 45.9598 59.0505 37.4751 59.0505C28.7189 59.0505 21.0669 55.5624 21.9312 43.4693C22.2706 42.0492 33.4025 42.3867 33.4025 43.4693C33.2667 48.4595 34.4206 49.9272 37.3394 49.9272C39.5793 49.9272 40.5975 48.7117 40.5975 46.6644C40.5975 43.5661 37.2902 41.7378 33.4855 39.6345C28.334 36.7867 22.2706 33.4348 22.2706 25.7438C22.2706 18.0665 27.6329 12.9483 37.2036 12.9483C46.7744 12.9483 52.0009 17.9881 52.0009 27.5788Z" fill="white"/>
<mask id="mask0" mask-type="alpha" maskUnits="userSpaceOnUse" x="6" y="0" width="60" height="72">
<path fill-rule="evenodd" clip-rule="evenodd" d="M50.09 8.84995L50.4345 0.690391L10.1972 3.16653C8.2063 3.28905 6.67782 4.95246 6.75263 6.91521L9.0179 66.3456C9.08965 68.228 10.6156 69.7417 12.5269 69.8262L61.6012 71.9964C61.6561 71.9988 61.7111 72 61.7661 72C63.7966 72 65.4427 70.3793 65.4427 68.38V3.62009C65.4427 3.54477 65.4403 3.46946 65.4355 3.39429C65.3089 1.39892 63.5633 -0.117538 61.5368 0.00717246L57.5002 0.255582L57.7948 8.56415C57.8054 8.8622 57.5686 9.11226 57.2659 9.12267C57.1362 9.12712 57.0092 9.08621 56.9073 9.00718L54.1885 6.89829L50.9694 9.30261C50.728 9.48285 50.384 9.43634 50.201 9.19873C50.1239 9.09871 50.0847 8.97538 50.09 8.84995ZM52.0009 27.5788C50.7075 28.5681 41.0726 29.2431 41.0726 27.8347C41.2763 22.4606 38.8327 22.225 37.4751 22.225C36.1855 22.225 34.0134 22.6089 34.0134 25.4878C34.0134 28.4217 37.1876 30.0779 40.9134 32.022C46.2061 34.7836 52.6118 38.126 52.6118 46.5364C52.6118 54.5976 45.9598 59.0505 37.4751 59.0505C28.7189 59.0505 21.0669 55.5624 21.9312 43.4693C22.2706 42.0492 33.4025 42.3867 33.4025 43.4693C33.2667 48.4595 34.4206 49.9272 37.3394 49.9272C39.5793 49.9272 40.5975 48.7117 40.5975 46.6644C40.5975 43.5661 37.2902 41.7378 33.4855 39.6345C28.334 36.7867 22.2706 33.4348 22.2706 25.7438C22.2706 18.0665 27.6329 12.9483 37.2036 12.9483C46.7744 12.9483 52.0009 17.9881 52.0009 27.5788Z" fill="white"/>
</mask>
<g mask="url(#mask0)">
</g>
</svg>
