<svg width="72" height="66" fill="none" xmlns="http://www.w3.org/2000/svg"><g clip-path="url(#a)"><path d="M30.59 65.202c-.165 0-.333-.005-.5-.014-2.014-.123-4.04-.86-6.022-2.192-.505-.339-1.01-.703-1.497-1.056l-.044-.031c-1.042-.754-2.106-1.522-3.224-2.106a12.073 12.073 0 0 0-5.847-1.385c-.763.016-1.505.044-2.195.222-1.026.732-1.526 1.682-1.487 2.824.018.589.175 1.221.484 1.933.34.784.478 1.119.449 1.163h-.002c-.055 0-.2-.177-.474-.513-1.09-1.343-3.984-4.906-7.861-5.666a2.89 2.89 0 0 1-2.116-1.734 2.879 2.879 0 0 1 .285-2.719c9.664-14.193 10.871-19.264 15.369-38.13l.39-1.632c.286-1.2.586-2.457.903-3.77a2.903 2.903 0 0 1 1.7-2.003l5.45-2.265a2.89 2.89 0 0 1 1.56-.186c2.2-.878 5.083-1.32 8.565-1.32h3.773c3.49 0 6.372.444 8.564 1.32-.639.1-1.226.41-1.668.882L28.732 8.065h-.001l-.002-.001-1.152-1.24a2.91 2.91 0 0 0-1.665-.882c-1.181.47-2.183 1.074-2.977 1.8-2.146 1.96-3.235 5.49-3.235 10.494v20.52c0 5.007 1.089 8.539 3.235 10.498 2.26 2.067 6.142 3.115 11.54 3.115h3.774c5.399 0 9.28-1.048 11.54-3.115 2.147-1.962 3.236-5.494 3.236-10.498v-20.52c0-5.001-1.089-8.532-3.235-10.494-.791-.722-1.79-1.328-2.977-1.8a2.874 2.874 0 0 1 1.557.186l5.45 2.265a2.91 2.91 0 0 1 1.7 2.002A874.148 874.148 0 0 1 58 21.047c3.453 15.136 4.744 20.797 13.462 33.6a2.878 2.878 0 0 1-1.83 4.454c-3.956.778-6.55 4.122-7.402 5.221-.176.227-.254.324-.275.324-.02-.026.068-.23.32-.802l.194-.447c.304-.704.461-1.337.48-1.933.031-.98-.331-1.82-1.077-2.497-1.407-.312-2.568-.459-3.65-.459-.13 0-.26.003-.389.007-2.302.085-3.807.695-4.737 1.92-.177.239-.341.487-.491.744l-.021.036a7.12 7.12 0 0 1-.6.89c-.476.586-1.057.871-1.776.871-.986 0-2.066-.544-3.017-1.025-.397-.2-.723-.364-1.037-.496-1.368-.577-2.566-.857-3.67-.857-.353 0-.706.03-1.055.09-1.64.285-3.117 1.253-4.546 2.19-.317.206-.633.413-.95.612-1.82 1.152-3.569 1.712-5.341 1.712Z" fill="#DCDCDC"/><path d="m39.081 61.463.267-4.468 4.037-1.168 1.65 5.21s-3.034-1.149-5.953.426ZM15.555 56.768c0 .105.005 1.669.01 1.795-3.234-.573-5.874.486-5.791 2.9h-.028v-.69c-.133-4.663 2.168-8.567 3.463-12.88 1.063-3.564 1.547-14.41 2.407-10.826.745 3.104.399 5.811-.061 9.196-.241 1.772 0 3.446 0 5.242v5.263ZM57.177 56.768c0 .105-.006 1.669-.012 1.795 2.829.148 5.876.486 5.793 2.9h.027v-.69c.133-4.663-2.168-8.567-3.462-12.88-1.063-3.563-1.547-14.41-2.407-10.827-.746 3.105-.4 5.812.061 9.197.24 1.772 0 3.446 0 5.241v5.264Z" fill="#B7B7B7"/><path d="M38.244 9.246c5.715 0 7.788 1.332 8.414 1.903 1.101 1.007 1.733 3.592 1.733 7.09v20.517c0 3.498-.632 6.081-1.735 7.09-.625.572-2.696 1.902-8.412 1.902h-3.769c-5.716 0-7.787-1.33-8.415-1.905-1.1-1.006-1.732-3.59-1.732-7.087V18.24c0-3.498.631-6.082 1.733-7.09.626-.571 2.699-1.902 8.414-1.902h3.769m0-9.246h-3.769c-6.62 0-11.51 1.443-14.67 4.33-3.159 2.89-4.739 7.526-4.738 13.908v20.517c0 6.384 1.58 11.02 4.738 13.907 3.157 2.888 8.047 4.332 14.67 4.332h3.769c6.623 0 11.513-1.444 14.67-4.332 3.159-2.888 4.738-7.524 4.738-13.907V18.24c0-6.385-1.58-11.02-4.738-13.908-3.157-2.887-8.047-4.33-14.67-4.33Z" fill="#fff"/><path d="M36.36 33.136a4.009 4.009 0 0 0 4.012-4.005 4.009 4.009 0 0 0-4.012-4.006 4.009 4.009 0 0 0-4.012 4.006 4.009 4.009 0 0 0 4.012 4.005Z" fill="#fff"/><path d="M38.235 39.546h-3.75a.85.85 0 0 1-.843-.928l.77-7.922a.845.845 0 0 1 .845-.764h2.206a.848.848 0 0 1 .843.764l.772 7.922a.844.844 0 0 1-.843.928Z" fill="#fff"/></g><defs><clipPath id="a"><path fill="#fff" d="M0 0h72v65.238H0z"/></clipPath></defs></svg>