<svg width="107" height="128" xmlns="http://www.w3.org/2000/svg"><path d="M65.055 8.006c-5.807.112-11.584 1.726-16.689 4.978L22.284 29.607A29.923 29.923 0 008.764 49.65a31.514 31.514 0 003.107 20.232 30.006 30.006 0 00-4.476 11.182 31.889 31.889 0 005.447 24.117c10.402 14.886 30.944 19.296 45.793 9.834l26.082-16.623A29.918 29.918 0 0098.235 78.35a31.526 31.526 0 00-3.103-20.232 30 30 0 004.472-11.182 31.88 31.88 0 00-5.447-24.117C87.332 13.05 76.141 7.792 65.055 8.006zm.281 12.773a20.718 20.718 0 0118.084 8.88 19.174 19.174 0 013.278 14.505 18.4 18.4 0 01-.623 2.435l-.493 1.498-1.336-.98a33.618 33.618 0 00-10.203-5.1l-.968-.295.088-.966a5.859 5.859 0 00-1.051-3.88 6.239 6.239 0 00-6.696-2.484 5.745 5.745 0 00-1.603.703L37.731 51.718a5.422 5.422 0 00-2.45 3.631 5.786 5.786 0 00.987 4.371 6.244 6.244 0 006.697 2.487 5.765 5.765 0 001.602-.703l9.953-6.344a18.978 18.978 0 015.295-2.328 20.718 20.718 0 0122.236 8.244 19.172 19.172 0 013.277 14.502 17.998 17.998 0 01-8.13 12.053l-26.08 16.62a19.004 19.004 0 01-5.301 2.33A20.718 20.718 0 0123.58 98.34a19.174 19.174 0 01-3.278-14.504 18.189 18.189 0 01.623-2.436l.493-1.498 1.335.983a33.644 33.644 0 0010.203 5.097l.97.293-.089.969a5.847 5.847 0 001.051 3.877 6.239 6.239 0 006.695 2.486 5.745 5.745 0 001.604-.705l26.082-16.62a5.43 5.43 0 002.451-3.632 5.795 5.795 0 00-.988-4.37 6.244 6.244 0 00-6.698-2.487 5.743 5.743 0 00-1.6.703l-9.952 6.346a19.033 19.033 0 01-5.297 2.324 20.718 20.718 0 01-22.236-8.242 19.172 19.172 0 01-3.277-14.502 17.988 17.988 0 018.13-12.051l26.08-16.623a19.004 19.004 0 015.301-2.33 20.718 20.718 0 014.153-.64z" fill="#ff3e00"/></svg>
