<svg width="77" height="77" xmlns="http://www.w3.org/2000/svg"><path fill="#ff3e00" d="M59.549 15.83c-5.768-8.255-17.16-10.702-25.397-5.454l-14.466 9.22a16.596 16.596 0 00-7.498 11.116 17.478 17.478 0 001.724 11.22 16.642 16.642 0 00-2.483 6.203 17.686 17.686 0 003.022 13.375c5.769 8.257 17.16 10.703 25.396 5.455l14.466-9.22a16.593 16.593 0 007.498-11.116 17.485 17.485 0 00-1.722-11.221 16.639 16.639 0 002.481-6.202 17.681 17.681 0 00-3.02-13.375"/><path fill="#fff" d="M32.739 62.287a11.49 11.49 0 01-12.333-4.572 10.634 10.634 0 01-1.818-8.043 10.088 10.088 0 01.346-1.35l.273-.831.74.544a18.66 18.66 0 005.66 2.827l.537.163-.05.537a3.243 3.243 0 00.584 2.15 3.46 3.46 0 003.713 1.379 3.186 3.186 0 00.889-.39l14.466-9.22a3.012 3.012 0 001.36-2.013 3.214 3.214 0 00-.548-2.424 3.463 3.463 0 00-3.715-1.38 3.185 3.185 0 00-.887.39l-5.52 3.52a10.556 10.556 0 01-2.938 1.29 11.49 11.49 0 01-12.333-4.572 10.633 10.633 0 01-1.817-8.043 9.977 9.977 0 014.509-6.684l14.465-9.22a10.54 10.54 0 012.94-1.291 11.49 11.49 0 0112.332 4.571 10.634 10.634 0 011.817 8.044 10.205 10.205 0 01-.345 1.35l-.273.831-.74-.543a18.645 18.645 0 00-5.66-2.829l-.537-.163.05-.536a3.25 3.25 0 00-.584-2.151 3.46 3.46 0 00-3.713-1.379 3.186 3.186 0 00-.889.391l-14.466 9.22a3.007 3.007 0 00-1.359 2.012 3.21 3.21 0 00.547 2.425 3.463 3.463 0 003.715 1.379 3.197 3.197 0 00.888-.39l5.52-3.518a10.526 10.526 0 012.937-1.291 11.49 11.49 0 0112.333 4.571 10.633 10.633 0 011.817 8.044 9.982 9.982 0 01-4.509 6.685l-14.465 9.218a10.54 10.54 0 01-2.94 1.292"/></svg>