<?xml version="1.0" standalone="no"?>
<!DOCTYPE svg PUBLIC "-//W3C//DTD SVG 20010904//EN"
 "http://www.w3.org/TR/2001/REC-SVG-20010904/DTD/svg10.dtd">
<svg version="1.0" xmlns="http://www.w3.org/2000/svg"
 width="300.000000pt" height="300.000000pt" viewBox="0 0 300.000000 300.000000"
 preserveAspectRatio="xMidYMid meet">
<metadata>
Created by potrace 1.15, written by Peter Selinger 2001-2017
</metadata>
<g transform="translate(0.000000,300.000000) scale(0.100000,-0.100000)"
fill="#000000" stroke="none">
<path d="M2421 2694 c8 -9 14 -29 15 -45 2 -29 -13 -30 -45 -5 -11 8 -15 8
-18 -1 -3 -7 -11 -13 -19 -13 -9 0 -12 5 -9 10 3 6 -3 10 -14 10 -12 0 -21 5
-21 10 0 6 8 10 17 10 15 0 14 2 -3 15 -26 19 -50 19 -58 -2 -6 -14 -9 -15
-15 -4 -7 10 -10 9 -14 -3 -4 -9 -12 -16 -18 -16 -8 0 -8 4 1 15 11 13 10 14
-4 9 -9 -3 -16 -1 -16 6 0 6 -5 8 -10 5 -6 -4 -8 -10 -5 -15 3 -5 1 -11 -5
-15 -6 -3 -13 1 -16 9 -8 20 -31 20 -50 1 -14 -13 -14 -16 1 -21 9 -4 25 -24
36 -46 15 -29 24 -38 38 -33 22 7 36 -10 44 -51 6 -29 4 -31 -24 -30 -20 1
-29 6 -29 17 0 18 -27 45 -36 37 -9 -9 8 -88 20 -89 6 -1 16 -2 21 -4 6 -1 15
-3 21 -3 11 -2 15 -27 8 -50 -3 -11 -6 -11 -18 0 -7 7 -11 19 -8 27 3 9 1 12
-6 7 -7 -4 -12 -14 -12 -21 0 -9 -6 -12 -15 -9 -8 4 -15 13 -15 21 0 9 5 11
13 7 6 -4 3 2 -7 14 -11 12 -16 25 -13 29 4 3 2 12 -4 19 -8 10 -7 22 5 45 12
24 13 35 5 45 -6 8 -15 11 -20 8 -5 -3 -6 2 -3 10 7 19 -4 20 -43 5 -20 -7
-24 -12 -14 -18 17 -11 -2 -23 -23 -15 -19 7 -22 34 -3 34 6 0 12 10 13 23 0
12 4 31 9 41 7 16 5 18 -8 13 -9 -4 -24 -10 -32 -13 -9 -4 -15 -3 -13 2 2 5
-1 9 -7 9 -5 0 -8 -11 -6 -25 l3 -25 -22 23 c-12 12 -25 20 -31 17 -16 -10
-10 -25 11 -25 15 0 19 -5 16 -22 -2 -17 -10 -23 -28 -23 -23 0 -24 -2 -22
-53 2 -47 -1 -54 -20 -62 -37 -14 -49 -35 -31 -53 16 -17 11 -42 -10 -51 -12
-4 -30 19 -27 36 1 3 -5 12 -13 18 -21 18 -18 33 5 27 13 -3 20 0 20 9 0 8 -9
14 -19 14 -11 0 -23 5 -26 10 -9 15 23 24 39 11 10 -8 16 -8 25 3 9 11 9 15 0
18 -6 2 -12 26 -13 54 -1 28 -9 60 -18 73 -15 22 -20 23 -43 13 -14 -7 -34 -9
-43 -5 -15 7 -44 9 -62 4 -3 -1 -32 -4 -65 -6 -75 -5 -135 -14 -146 -21 -5 -3
-9 -15 -9 -27 -1 -20 -2 -20 -11 -4 -5 9 -8 21 -5 26 3 4 -6 6 -19 3 -16 -3
-25 0 -25 8 0 9 -3 10 -14 1 -15 -12 -127 -11 -137 2 -9 13 -38 -4 -32 -19 6
-16 -8 -19 -23 -4 -19 19 -53 19 -93 -1 -49 -23 -53 -23 -49 -2 3 16 -7 18
-82 19 -83 1 -146 -14 -180 -41 -18 -15 -43 -8 -34 8 3 7 -4 1 -16 -13 -20
-23 -29 -25 -104 -24 -44 0 -88 3 -96 5 -8 3 -27 9 -42 14 -16 4 -28 11 -28
16 0 21 -19 6 -31 -23 -7 -18 -14 -36 -17 -40 -2 -5 4 -8 12 -8 9 0 19 -7 22
-15 4 -8 12 -15 20 -15 20 0 17 -37 -3 -49 -19 -10 -18 -11 35 -27 30 -9 -11
-74 -47 -74 -13 0 -14 -2 -2 -9 9 -6 11 -18 7 -36 -6 -22 -9 -25 -21 -15 -8 7
-15 9 -15 4 0 -5 -5 -2 -11 6 -8 12 -10 12 -8 -5 1 -11 0 -22 -1 -25 -1 -3 -3
-24 -4 -47 -2 -31 2 -43 12 -43 18 0 37 -20 45 -49 4 -18 1 -24 -13 -28 -16
-4 -19 -12 -14 -39 3 -22 1 -34 -6 -34 -6 0 -8 -4 -5 -10 3 -5 -1 -25 -10 -44
-19 -39 -13 -72 13 -79 12 -3 11 -5 -5 -6 -13 0 -23 4 -23 10 0 8 -5 7 -15 -1
-9 -7 -19 -10 -22 -6 -4 4 -3 10 3 14 6 4 11 15 11 26 0 18 -1 18 -14 0 -7
-10 -13 -24 -13 -31 0 -14 6 -17 51 -27 22 -5 28 -13 33 -46 3 -23 13 -43 21
-47 13 -5 13 -7 -2 -20 -14 -11 -15 -16 -5 -20 10 -4 9 -8 -5 -19 -17 -13 -17
-13 0 -14 9 0 17 -7 17 -15 0 -17 -32 -20 -61 -5 -16 9 -19 7 -20 -10 -3 -37
-4 -41 -18 -49 -11 -7 -11 -10 0 -17 14 -8 19 -10 52 -12 11 -1 17 -10 17 -25
0 -13 5 -28 12 -35 9 -9 8 -12 -5 -13 -9 -1 -21 -3 -27 -4 -5 -1 -15 -3 -21
-4 -5 0 -7 -6 -4 -12 4 -6 -2 -13 -14 -16 -25 -6 -28 -23 -3 -24 9 -1 22 -2
27 -4 6 -1 16 -3 23 -3 6 -1 12 -7 12 -13 0 -11 -16 -9 -70 7 -24 7 -24 7 -7
-10 9 -10 17 -24 17 -31 0 -8 4 -17 10 -20 6 -3 7 1 4 9 -8 20 5 20 30 1 12
-9 17 -22 13 -35 -3 -11 -1 -23 4 -26 6 -4 6 -11 -1 -19 -18 -22 8 -65 39 -65
25 0 53 -23 58 -47 1 -6 -13 -18 -31 -28 -28 -15 -32 -22 -28 -49 3 -17 9 -37
14 -43 13 -17 -4 -17 -20 -1 -9 9 -12 6 -12 -15 0 -15 -4 -27 -10 -27 -5 0
-10 -7 -10 -15 0 -8 9 -15 20 -15 24 0 26 -13 5 -30 -21 -17 -19 -36 5 -53 13
-9 21 -30 25 -62 4 -27 10 -56 16 -66 15 -29 10 -33 -13 -13 l-22 19 16 -26
c11 -17 16 -42 14 -72 -2 -32 1 -47 10 -51 8 -3 13 -11 12 -18 -2 -9 6 -12 22
-10 33 5 35 8 20 27 -16 19 -14 22 32 30 25 5 38 3 38 -3 0 -6 12 -11 27 -10
63 2 240 -16 273 -28 31 -11 15 -13 -133 -13 l-169 -1 7 -28 c7 -36 -13 -55
-57 -54 -44 1 -53 -7 -28 -25 17 -12 24 -13 30 -3 8 13 50 5 50 -11 0 -5 25
-6 58 -3 46 5 61 3 74 -10 20 -20 36 -2 18 19 -15 18 -10 18 25 5 25 -10 26
-9 23 22 -2 17 2 33 7 35 16 5 33 -50 24 -75 -8 -20 -5 -22 31 -22 35 0 40 3
46 27 7 25 8 25 20 8 8 -11 14 -28 14 -39 1 -20 1 -20 15 -2 12 16 17 17 30 6
12 -10 15 -10 15 3 0 13 8 12 62 -5 36 -11 64 -15 66 -9 2 5 16 2 33 -7 25
-14 31 -15 38 -3 9 13 24 12 64 -4 12 -5 17 -2 17 9 0 14 6 16 35 10 21 -4 41
-2 49 5 11 9 22 7 50 -10 24 -14 36 -17 36 -8 0 9 5 8 18 -2 9 -8 31 -21 47
-29 17 -8 34 -16 39 -19 5 -2 6 1 3 6 -4 6 1 18 11 26 16 15 21 15 47 1 16 -8
33 -21 37 -27 5 -8 8 -5 8 9 0 11 6 28 13 38 12 16 14 16 14 2 0 -9 -5 -16
-10 -16 -6 0 -3 -8 7 -19 20 -22 63 -17 87 10 9 11 20 15 28 9 11 -6 8 -11 -9
-20 -18 -10 -20 -14 -9 -21 8 -5 26 -9 41 -9 21 0 26 4 21 16 -5 14 -3 15 15
5 18 -10 22 -9 22 4 0 18 11 20 27 4 8 -8 17 -8 32 0 17 10 30 8 67 -9 53 -23
75 -25 92 -8 8 8 15 8 27 -2 12 -10 15 -10 15 3 0 9 9 15 23 15 111 1 237 25
237 45 0 5 5 5 12 1 7 -4 8 -3 4 4 -4 7 -2 20 3 29 10 17 10 16 11 -2 0 -16 2
-17 9 -6 7 11 10 9 13 -10 l4 -24 14 27 c9 19 22 28 39 29 14 1 33 2 43 3 28
2 33 16 6 16 -32 0 -39 16 -21 50 7 14 14 36 16 48 2 11 11 30 22 42 10 11 15
23 12 27 -4 3 -7 1 -7 -5 0 -7 -5 -12 -11 -12 -6 0 -9 6 -6 13 2 6 -5 18 -17
25 -20 13 -20 13 -1 8 17 -5 18 -4 4 6 -17 15 -32 48 -21 48 5 0 14 -6 22 -13
8 -6 6 -2 -4 11 -20 23 -9 31 12 10 7 -7 12 -8 12 -2 0 5 5 2 11 -6 8 -12 9
-9 5 11 -3 14 -3 29 1 32 9 9 9 87 1 88 -5 1 -13 2 -19 3 -16 2 -39 37 -39 59
0 11 9 21 20 24 17 5 18 8 8 21 -11 13 -10 14 9 8 12 -4 24 -3 27 2 3 6 -2 9
-12 8 -12 -1 -16 6 -14 24 1 14 3 37 4 52 1 15 7 29 13 32 10 4 13 26 6 57 0
4 -11 10 -23 14 -21 7 -22 7 -4 12 12 3 25 -2 32 -11 10 -15 12 -15 18 -1 3 9
0 18 -9 20 -8 3 -22 7 -30 10 -10 3 -14 16 -13 41 1 24 -4 41 -15 49 -15 11
-15 13 1 29 15 15 15 18 2 26 -13 8 -13 10 -1 10 12 0 12 3 3 12 -30 30 9 53
48 28 11 -7 16 -4 20 12 4 17 7 18 17 7 7 -10 8 -21 1 -39 -19 -45 -19 -72 0
-68 12 2 19 17 23 48 6 40 4 47 -19 66 -24 20 -24 52 1 38 7 -4 9 -4 5 1 -4 4
-3 15 4 22 9 11 9 17 -3 24 -12 8 -12 10 1 19 13 8 13 12 -4 27 -10 10 -16 12
-12 6 4 -8 1 -13 -8 -13 -20 0 -20 -14 -1 -30 21 -17 19 -30 -6 -30 -35 0 -58
18 -52 41 4 12 0 25 -8 30 -10 6 -6 10 18 15 20 4 33 14 37 26 3 14 10 19 20
15 9 -4 16 -2 16 3 0 6 -3 11 -7 11 -5 1 -24 3 -43 5 -19 2 -37 10 -39 16 -6
18 -58 68 -70 68 -6 0 -11 -9 -11 -20 0 -11 -5 -20 -11 -20 -6 0 -9 6 -6 13 2
6 -1 19 -8 27 -17 20 -29 80 -17 80 11 0 26 -30 23 -47 -1 -6 4 -15 10 -19 9
-5 10 -2 6 9 -4 11 -1 17 9 17 8 0 18 -8 21 -17 10 -26 25 -39 56 -47 15 -3
27 -13 27 -21 0 -8 3 -14 8 -13 4 1 17 -3 29 -10 14 -8 24 -9 28 -2 3 5 2 10
-4 10 -5 0 -13 9 -16 20 -4 11 -10 18 -15 15 -5 -3 -21 1 -34 10 -14 9 -28 15
-32 13 -4 -2 -9 8 -11 22 -2 14 -8 37 -13 51 -8 19 -7 32 4 53 9 18 16 23 19
14 3 -7 6 -2 6 11 1 17 -3 22 -14 17 -18 -7 -18 1 -1 33 12 21 12 27 0 39 -8
7 -14 22 -14 33 0 11 -5 29 -10 39 -7 13 -7 21 0 25 5 3 10 1 10 -4 0 -6 5
-11 11 -11 6 0 9 9 6 20 -3 12 1 23 9 28 21 12 7 42 -19 42 -21 0 -21 0 1 20
27 26 27 32 1 56 -21 19 -22 39 -3 102 4 14 2 22 -5 22 -7 0 -9 -5 -5 -11 4
-7 1 -10 -7 -7 -8 2 -15 18 -17 34 -2 28 -2 28 13 10 20 -27 19 -12 -2 20 -11
17 -13 28 -6 32 11 8 11 41 -1 60 -4 6 -4 17 -1 22 3 6 -1 10 -9 10 -18 0 -21
16 -6 25 8 5 7 11 0 20 -7 8 -9 19 -5 24 9 15 -14 53 -30 48 -7 -3 -25 1 -40
9 -35 18 -41 18 -24 -2z m-1234 -322 c10 -10 95 -74 188 -142 94 -68 224 -164
289 -212 110 -81 120 -86 133 -70 13 15 13 15 7 -7 -4 -17 -3 -22 6 -16 8 5
11 4 6 -3 -8 -13 160 -141 187 -142 12 0 17 8 17 31 0 24 -3 30 -16 25 -11 -4
-18 1 -21 14 -3 11 -12 20 -19 20 -17 0 -18 11 -3 44 l12 24 23 -21 c31 -30
52 -95 43 -132 -9 -32 -1 -54 12 -34 7 11 9 9 9 -6 1 -13 24 -36 63 -64 131
-95 207 -153 206 -159 0 -9 -1160 -825 -1165 -820 -7 8 -9 1688 -2 1688 4 0
15 -8 25 -18z m828 -1752 c6 -4 64 -11 130 -15 66 -4 136 -10 155 -12 19 -2
43 -4 52 -4 10 0 20 -4 23 -8 2 -5 27 -6 55 -3 29 3 50 0 50 -5 0 -13 -304
-37 -361 -28 -24 3 -57 8 -74 10 -16 2 -32 5 -35 6 -3 1 -9 3 -15 4 -5 1 -17
4 -25 8 -20 7 -189 30 -219 30 -17 -1 -20 2 -12 10 21 21 251 27 276 7z"/>
</g>
</svg>
