<svg xmlns="http://www.w3.org/2000/svg" fill-rule="evenodd" stroke-linejoin="round" stroke-miterlimit="2" clip-rule="evenodd" viewBox="0 0 72 72"><defs/><defs><linearGradient id="a" x2="1" gradientTransform="scale(301.227) rotate(-60 6.342 .666)" gradientUnits="userSpaceOnUse"><stop offset="0" stop-color="#0096f2"/><stop offset="1" stop-color="#4cffc4"/></linearGradient></defs><g fill="#fff" transform="matrix(.16514 0 0 .16514 4.338 0)"><circle cx="163.089" cy="222.495" r="32" transform="rotate(-19.354)"/><path d="M225.771.01c-16.556.18-33.355 3.023-49.822 8.808-36.734 12.9-65.607 38.26-83.553 69.67h.002c-11.773 20.613-18.83 43.835-20.33 67.858a157.369 157.369 0 0125.54-12.912c7.851-45.548 39.484-85.53 86.294-101.975 68.831-24.18 143.904 11.86 168.084 80.69 18.807 53.534 1.174 110.846-39.974 145.052a156.506 156.506 0 011.572 28.623c58.129-38.469 85.173-112.937 61.043-181.625C351.932 39.597 290.724-.698 225.77.01zM96.023 164.875a129.247 129.247 0 00-22.441 14.717 156.056 156.056 0 006.988 27.896 155.438 155.438 0 0017.215 34.551 12.002 12.002 0 004.455 4.53c5.701 3.29 13.102 1.31 16.393-4.39a12.023 12.023 0 00-.469-12.72l.027-.02a132.398 132.398 0 01-14.98-29.9 132.493 132.493 0 01-7.188-34.664zm189.575 109.377a133.88 133.88 0 01-14.31 5.986c-17.277 6.06-34.942 8.32-52.099 7.23h-.052a12.02 12.02 0 00-11.82 5.91c-3.292 5.71-1.309 13.101 4.392 16.401a12.068 12.068 0 006.268 1.59c20.21 1.28 40.987-1.37 61.263-8.49 1.622-.57 3.224-1.172 4.815-1.79a129.027 129.027 0 001.543-26.837z"/><circle cx="54.199" cy="315.975" r="32" transform="rotate(-19.354)"/><path fill-rule="nonzero" d="M20.642 202.779c-21.659 37.92-27.397 84.66-11.824 129 28.476 81.07 117.602 123.86 198.67 95.39 81.069-28.48 123.859-117.61 95.389-198.68a155.073 155.073 0 00-16.991-34.21 12.034 12.034 0 00-4.659-4.91c-5.701-3.29-13.101-1.31-16.392 4.39a12.018 12.018 0 00.467 12.72l-.058.04a132.443 132.443 0 0114.989 29.92c24.174 68.83-11.866 143.91-80.697 168.08-68.831 24.18-143.899-11.86-168.076-80.7-24.178-68.83 11.859-143.9 80.69-168.08 17.493-6.14 35.388-8.39 52.75-7.2l.001-.03c4.572.33 8.949-1.99 11.246-5.95 3.291-5.7 1.309-13.1-4.392-16.39a11.932 11.932 0 00-6.682-1.58c-20.088-1.23-40.73 1.43-60.877 8.51-36.734 12.9-65.609 38.26-83.554 69.67z"/></g></svg>