<svg xmlns="http://www.w3.org/2000/svg" width="72" height="72"><path d="M24.77 59.23H4.512l5.281-12.476H24l15.84-36.676H22.848L10.368 39.07h7.679c.578.867 1.539 1.54 2.594 1.54 1.726 0 3.07-1.344 3.07-3.075 0-1.726-1.344-2.976-3.07-2.976-1.25 0-2.305.671-2.786 1.73h-3.648l10.367-23.426h11.137L22.367 43.97H8.257L.575 61.922h26.114l3.457-7.488h11.328l3.742 7.488h26.21L47.712 10.078zm6.718-7.68l4.13-8.925 4.413 8.926zm15.457 7.97l-2.593-5.184h8.062c.578.96 1.54 1.633 2.691 1.633 1.727 0 3.07-1.344 3.07-3.074a3.032 3.032 0 00-3.07-3.07c-1.25 0-2.304.769-2.785 1.823h-9.215l-6.144-12 4.512-9.886 5.086 10.367h2.402c.48 1.055 1.535 1.726 2.781 1.726 1.73 0 3.074-1.343 3.074-3.07 0-1.73-1.343-3.074-3.074-3.074-1.246 0-2.398.77-2.879 1.922H48l-5.281-10.754 4.992-11.04 19.68 43.68H46.945zm0 0" fill="#fff"/></svg>
