<svg width="72" height="72" viewBox="0 0 72 72" fill="none" xmlns="http://www.w3.org/2000/svg">
<path fill-rule="evenodd" clip-rule="evenodd" d="M72 36C72 55.8822 55.8822 72 36 72C16.1177 72 0 55.8822 0 36C0 16.1177 16.1177 0 36 0C55.8822 0 72 16.1177 72 36ZM33.865 38.3267V26.2074H39.1959V38.7869C39.1959 43.2741 35.7634 46.0739 30.7201 46.0739C25.6384 46.0739 22.2442 43.2741 22.2442 38.7869V26.2074H27.5752V38.3267C27.5752 40.158 28.8888 41.4716 30.7201 41.4716C32.5514 41.4716 33.865 40.158 33.865 38.3267ZM44.4296 26.2074H49.7606V45.8438H44.4296V26.2074Z" fill="white"/>
</svg>
