<?xml version="1.0" encoding="UTF-8" standalone="no"?>
<!DOCTYPE svg PUBLIC "-//W3C//DTD SVG 1.1//EN" "http://www.w3.org/Graphics/SVG/1.1/DTD/svg11.dtd">
<svg width="100%" height="100%" viewBox="0 0 40 40" version="1.1" xmlns="http://www.w3.org/2000/svg" xmlns:xlink="http://www.w3.org/1999/xlink" xml:space="preserve" xmlns:serif="http://www.serif.com/" style="fill-rule:evenodd;clip-rule:evenodd;stroke-linejoin:round;stroke-miterlimit:1.41421;">
    <g id="Layer1" transform="matrix(0.114295,0,0,0.114295,-0.25096,-2.98889)">
        <path d="M108.462,158.047L139.449,158.047C143.772,124.07 154.493,94.881 183.5,79.377C230.569,123.984 216.173,188.107 192.392,246.369L212.759,265.21C251.79,196.924 271.686,104.911 183.5,37.831C140.502,59.743 112.513,96.81 108.462,158.047Z" style="fill:rgb(85,61,184);"/>
        <g transform="matrix(-0.5,-0.866025,0.866025,-0.5,78.8004,477.289)">
            <path d="M108.462,158.047L139.449,158.047C143.772,124.07 154.493,94.881 183.5,79.377C230.569,123.984 216.173,188.107 192.392,246.369L212.759,265.21C251.79,196.924 271.686,104.911 183.5,37.831C140.502,59.743 112.513,96.81 108.462,158.047Z" style="fill:rgb(122,98,221);"/>
        </g>
        <g transform="matrix(-0.5,0.866025,-0.866025,-0.5,452.744,170.401)">
            <path d="M108.462,158.047L139.449,158.047C143.772,124.07 154.493,94.881 183.5,79.377C230.569,123.984 216.173,188.107 192.392,246.369L212.759,265.21C251.79,196.924 271.686,104.911 183.5,37.831C140.502,59.743 112.513,96.81 108.462,158.047Z" style="fill:rgb(84,72,130);"/>
        </g>
    </g>
</svg>
