<svg id="Layer_1" xmlns="http://www.w3.org/2000/svg" viewBox="0 0 123.8 123.4"><style>.st0{fill:#fff}</style><path class="st0" d="M105.6 60.7l-1.4-.4v-3.2l1.3-.5c9.5-3.5 14.2-9.7 14.2-19 0-7.4-3-13.1-8.8-17-.6-.4-1.2-.8-1.8-1.1 0 0-.1-.1-.2-.1-.6-.4-1.3-.7-2-1-6.7-3-16.1-4.5-28.2-4.5h-28v99h28.6c10.8 0 19.4-1.3 26.2-3.9 12.2-4.6 18.3-13.1 18.3-25.2 0-11.7-6.2-19.5-18.2-23.1zM69.3 50.4V29.2h9c8.3 0 13.6.9 16.9 2.8 3.8 2.1 5.8 5.8 5.8 10.7 0 8.8-6.5 13.8-17.8 13.8H69.3v-6.1zm28.2 45c-3.5 1.5-9.1 2.1-17.8 2.1H69.3V68h15.5c13.5 0 20.3 5.1 20.3 15.1 0 6.1-2.5 10.2-7.6 12.3z"/><path class="st0" d="M46.7 116.9V9.9h32c11.7 0 21.1 1.4 28.2 4.2V0H0v20.5h41.4V123.4h24.1v-6.5H46.7z"/><path class="st0" d="M11 46.4h21.6v66.5h4.8V34.5H11z"/></svg>