<?xml version="1.0" encoding="utf-8"?>
<!-- Generator: Adobe Illustrator 22.0.1, SVG Export Plug-In . SVG Version: 6.00 Build 0)  -->
<svg version="1.1" id="Layer_1" xmlns="http://www.w3.org/2000/svg" xmlns:xlink="http://www.w3.org/1999/xlink" x="0px" y="0px"
	 viewBox="0 0 123.8 123.4" style="enable-background:new 0 0 123.8 123.4;" xml:space="preserve">
<style type="text/css">
	.st0{fill:#FFFFFF;}
</style>
<g>
	<path class="st0" d="M105.6,60.7l-1.4-0.4v-3.2l1.3-0.5c9.5-3.5,14.2-9.7,14.2-19c0-7.4-3-13.1-8.8-17c-0.6-0.4-1.2-0.8-1.8-1.1
		c0,0-0.1-0.1-0.2-0.1c-0.6-0.4-1.3-0.7-2-1c-6.7-3-16.1-4.5-28.2-4.5h-28v16.7v2v2v11.8v2v2v62.5h14.8h2h2h9.8
		c10.8,0,19.4-1.3,26.2-3.9c12.2-4.6,18.3-13.1,18.3-25.2C123.8,72.1,117.6,64.3,105.6,60.7z M69.3,50.4v-2v-2V34.5v-2v-2v-1.3h0.2
		h8.8c8.3,0,13.6,0.9,16.9,2.8c3.8,2.1,5.8,5.8,5.8,10.7c0,8.8-6.5,13.8-17.8,13.8H69.5h-0.2V50.4z M97.5,95.4
		c-3.5,1.5-9.1,2.1-17.8,2.1H69.5h-0.2V68h0.2h15.3c13.5,0,20.3,5.1,20.3,15.1C105.1,89.2,102.6,93.3,97.5,95.4z"/>
	<path class="st0" d="M46.7,116.9v-2v-2V46.4V34.5v-2v-2V9.9h32c11.7,0,21.1,1.4,28.2,4.2V0H0v20.5h41.4v10.1v2v2v78.3v2v2v6.5h24.1
		v-6.5H50.7H46.7z"/>
	<polygon class="st0" points="11,46.4 32.6,46.4 32.6,112.9 37.4,112.9 37.4,34.5 11,34.5 	"/>
</g>
</svg>
