<svg width="72" height="72" viewBox="0 0 72 72" fill="none" xmlns="http://www.w3.org/2000/svg">
<path fill-rule="evenodd" clip-rule="evenodd" d="M10 0C4.47715 0 0 4.47715 0 10V62C0 67.5229 4.47715 72 10 72H62C67.5229 72 72 67.5229 72 62V10C72 4.47715 67.5229 0 62 0H10ZM41.7725 63.8401V55.9507C43.1982 57.1506 44.7468 58.0505 46.4183 58.6504C48.0898 59.2503 49.7776 59.5503 51.4819 59.5503C52.4815 59.5503 53.3541 59.4599 54.0998 59.2791C54.8454 59.0983 55.4681 58.8476 55.9679 58.5271C56.4677 58.2066 56.8405 57.8286 57.0863 57.393C57.3321 56.9575 57.455 56.4849 57.455 55.9754C57.455 55.2851 57.2584 54.6687 56.8651 54.1263C56.4718 53.5839 55.9351 53.0826 55.2551 52.6224C54.575 52.1622 53.7679 51.7184 52.8338 51.291C51.8998 50.8637 50.892 50.4281 49.8104 49.9844C47.0573 48.8338 45.0049 47.4285 43.6529 45.7685C42.301 44.1084 41.625 42.1032 41.625 39.7528C41.625 37.9119 41.9937 36.3299 42.7311 35.0068C43.4686 33.6837 44.4723 32.5948 45.7423 31.7401C47.0123 30.8854 48.483 30.2567 50.1545 29.854C51.826 29.4513 53.5958 29.25 55.464 29.25C57.2994 29.25 58.9258 29.3609 60.3433 29.5828C61.7608 29.8047 63.0676 30.1458 64.2639 30.606V37.9777C63.674 37.5668 63.0308 37.2052 62.3343 36.8929C61.6379 36.5806 60.9209 36.3217 60.1835 36.1163C59.4461 35.9108 58.7127 35.7588 57.9835 35.6601C57.2543 35.5615 56.5619 35.5122 55.9064 35.5122C55.0051 35.5122 54.1858 35.5985 53.4484 35.7711C52.7109 35.9437 52.0882 36.1861 51.5802 36.4984C51.0722 36.8107 50.6789 37.1846 50.4003 37.6202C50.1218 38.0557 49.9825 38.5447 49.9825 39.0871C49.9825 39.6788 50.1381 40.2089 50.4495 40.6773C50.7609 41.1458 51.2033 41.5895 51.7769 42.0087C52.3504 42.4278 53.0469 42.8387 53.8662 43.2414C54.6856 43.6441 55.6115 44.0591 56.6439 44.4864C58.0532 45.0781 59.3191 45.7068 60.4416 46.3725C61.5641 47.0382 62.5269 47.7901 63.3298 48.6284C64.1328 49.4666 64.7473 50.424 65.1734 51.5006C65.5995 52.5772 65.8125 53.8304 65.8125 55.2604C65.8125 57.2328 65.4397 58.8887 64.6941 60.2283C63.9485 61.5678 62.9366 62.6526 61.6583 63.4827C60.3801 64.3127 58.893 64.9085 57.1969 65.2701C55.5009 65.6317 53.7106 65.8125 51.826 65.8125C49.8923 65.8125 48.0529 65.6481 46.3076 65.3194C44.5624 64.9907 43.0507 64.4976 41.7725 63.8401ZM38.8125 36.3118H28.5202V65.25H20.3669V36.3118H10.125V29.8125H38.8125V36.3118Z" fill="white"/>
</svg>
