<svg xmlns="http://www.w3.org/2000/svg" width="40" height="40" viewBox="0 0 40 40">
  <g fill="none" fill-rule="evenodd">
    <g fill="#FFFFFF" fill-rule="nonzero" transform="translate(2)">
      <path d="M.0724346076 26.6317907C.0482897384 26.6317907.0241448692 26.639839 0 26.639839 0 21.2474849 0 15.8551308 0 10.4627767.0965794769 10.4144869.193158954 10.3661972.281690141 10.3179074 6.1167002 7.03420523 11.943662 3.75050302 17.7706237.458752515 18.0201207.3138833 18.3018109.217303823 18.5110664 0 18.5352113 0 18.5674044 0 18.5915493 0 18.5915493 5.18309859 18.5915493 10.3661972 18.5995976 15.5492958 18.5995976 15.8148893 18.5110664 15.9517103 18.2857143 16.0804829 16.3219316 17.1991952 14.3661972 18.334004 12.4104628 19.4607646 12.2816901 19.5331992 12.1368209 19.5734406 12.056338 19.7102616 10.77666 20.3299799 9.58551308 21.0945674 8.35412475 21.7947686 6.32595573 22.945674 4.3138833 24.1126761 2.30181087 25.2877264 1.55331992 25.722334.772635815 26.1006036.0724346076 26.6317907zM34.7686117 13.3682093C34.7927565 13.3682093 34.8249497 13.3682093 34.8490946 13.360161 34.8490946 18.7525151 34.8490946 24.1448692 34.8490946 29.5372233 34.7686117 29.5774648 34.6800805 29.6177062 34.5995976 29.665996 29.0623742 32.7887324 23.5251509 35.9034205 17.9879276 39.0261569 17.4325956 39.3400402 16.8531187 39.6136821 16.3380282 40 16.3138833 40 16.2816901 40 16.2575453 40 16.2575453 34.8169014 16.2575453 29.6338028 16.249497 24.4426559 16.249497 24.1690141 16.3541247 24.0482897 16.5714286 23.9195171 18.4949698 22.8169014 20.4185111 21.7062374 22.3420523 20.5955734 22.5030181 20.5070423 22.6961771 20.4587525 22.7927565 20.2736419 22.9778672 20.193159 23.1710262 20.1287726 23.3400402 20.0321932 26.6317907 18.1327968 29.9315895 16.2414487 33.2152918 14.3259557 33.7384306 14.0201207 34.3179074 13.7947686 34.7686117 13.3682093z"/>
      <path d="M23.5814889 7.5331992C23.6136821 7.54929577 23.6458753 7.57344064 23.6780684 7.58953722L24.5714286 8.12877264C27.4768612 9.87525151 30.3822938 11.6297787 33.2796781 13.3762575 33.1267606 13.4567404 32.9657948 13.5372233 32.804829 13.6338028 29.8591549 15.3480885 26.8490946 17.0784708 23.943662 18.7605634L23.5895372 18.9617706 23.5895372 18.0362173C23.5895372 16.305835 23.5814889 14.5754527 23.5814889 12.8370221 23.5814889 11.38833 23.5814889 9.93963783 23.5814889 8.48289738 23.5814889 8.17706237 23.5814889 7.85513078 23.5814889 7.5331992zM22.77666 6.1167002C22.77666 6.31790744 22.77666 6.44668008 22.77666 6.57545272 22.77666 8.66800805 22.77666 10.7605634 22.77666 12.8450704 22.77666 15.3239437 22.7847082 17.8028169 22.7847082 20.2816901 22.9698189 20.2012072 23.1629779 20.1368209 23.331992 20.0402414 26.6237425 18.1408451 29.9235412 16.249497 33.2072435 14.334004 33.7303823 14.028169 34.3179074 13.8028169 34.7605634 13.3682093 34.6639839 13.2957746 34.5674044 13.22334 34.4708249 13.167002 31.0100604 11.082495 27.5492958 8.99798793 24.0885312 6.91348089 23.6700201 6.64788732 23.2515091 6.39839034 22.77666 6.1167002zM11.2595573 21.0382294C11.2595573 21.1589537 11.2595573 21.2796781 11.2595573 21.4004024 11.2595573 22.6559356 11.2676056 23.943662 11.2676056 25.22334 11.2676056 27.1468813 11.2676056 29.0623742 11.2676056 30.9859155 11.2676056 31.4768612 11.2676056 31.9758551 11.2676056 32.4668008 11.1468813 32.3943662 11.0261569 32.3219316 10.8973843 32.249497 7.79074447 30.3661972 4.68410463 28.4909457 1.57746479 26.6237425 1.73038229 26.5352113 1.8832998 26.4547284 2.04426559 26.3661972 2.26156942 26.2454728 2.49496982 26.1167002 2.71227364 25.9879276 5.15090543 24.5633803 7.01006036 23.4929577 8.75653924 22.5030181 9.15090543 22.277666 9.54527163 22.0442656 9.92354125 21.8189135 10.3581489 21.5533199 10.8008048 21.2957746 11.2595573 21.0382294zM12.056338 19.7102616C10.77666 20.3299799 9.58551308 21.0945674 8.35412475 21.7947686 6.32595573 22.945674 4.3138833 24.1126761 2.30181087 25.2877264 1.55331992 25.722334.764587525 26.1006036.0724346076 26.6237425.160965795 26.6881288.241448692 26.7525151.329979879 26.8088531 3.71026157 28.8450704 7.09859155 30.889336 10.4788732 32.9255533 10.9939638 33.2313883 11.501006 33.5372233 12.0643863 33.8832998 12.0643863 33.6820926 12.0643863 33.5533199 12.0643863 33.4245473 12.0643863 30.6881288 12.0643863 27.9517103 12.0643863 25.22334 12.0643863 23.3802817 12.0643863 21.5452716 12.056338 19.7102616z"/>
    </g>
    <rect width="40" height="40"/>
  </g>
</svg>
