<svg xmlns="http://www.w3.org/2000/svg" width="40" height="40"><g fill="none" fill-rule="evenodd"><g fill="#FFF" fill-rule="nonzero"><path d="M2.072 26.632c-.024 0-.048.008-.072.008V10.463c.097-.049.193-.097.282-.145C8.117 7.034 13.944 3.75 19.77.458c.25-.144.53-.24.74-.458h.08c0 5.183 0 10.366.009 15.55 0 .265-.089.402-.314.53-1.964 1.12-3.92 2.254-5.876 3.38-.128.073-.273.113-.354.25-1.28.62-2.47 1.385-3.702 2.085a562.097 562.097 0 0 0-6.052 3.493c-.749.434-1.53.813-2.23 1.344zM36.77 13.368c.024 0 .056 0 .08-.008v16.177c-.08.04-.169.08-.25.129-5.537 3.123-11.074 6.237-16.611 9.36-.555.314-1.135.588-1.65.974h-.08c0-5.183 0-10.366-.009-15.557 0-.274.105-.395.322-.523 1.924-1.103 3.848-2.214 5.771-3.324.161-.089.354-.137.45-.322.186-.08.379-.145.548-.242 3.292-1.9 6.592-3.79 9.875-5.706.523-.306 1.103-.531 1.554-.958z"/><path d="M25.581 7.533c.033.016.065.04.097.057l.893.539c2.906 1.746 5.811 3.5 8.709 5.247-.153.08-.314.161-.475.258-2.946 1.714-5.956 3.444-8.861 5.127l-.354.2v-.925c0-1.73-.009-3.46-.009-5.199V7.533zm-.804-1.416v6.728c0 2.479.008 4.958.008 7.437.185-.08.378-.145.547-.242 3.292-1.9 6.592-3.79 9.875-5.706.523-.306 1.11-.531 1.554-.966a3.138 3.138 0 0 0-.29-.201L26.089 6.913a50.667 50.667 0 0 0-1.312-.796zM13.26 21.038v.362c0 1.256.008 2.544.008 3.823v7.243c-.121-.072-.242-.144-.37-.217a2866.587 2866.587 0 0 0-9.32-5.625c.152-.089.305-.17.466-.258.218-.12.451-.25.668-.378a522.994 522.994 0 0 1 6.045-3.485c.394-.225.788-.459 1.167-.684.434-.266.877-.523 1.336-.78zm.796-1.328c-1.28.62-2.47 1.385-3.702 2.085a562.097 562.097 0 0 0-6.052 3.493c-.749.434-1.537.813-2.23 1.336.089.064.17.129.258.185 3.38 2.036 6.769 4.08 10.149 6.117.515.305 1.022.611 1.585.957v-8.66c0-1.843 0-3.678-.008-5.513z"/></g><path d="M0 0h40v40H0z"/></g></svg>