<svg viewBox="0 0 72 72" xmlns="http://www.w3.org/2000/svg" xml:space="preserve" style="fill-rule:evenodd;clip-rule:evenodd;stroke-linejoin:round;stroke-miterlimit:2"><path d="M256.3 31C132 30.9 31.1 131.5 31 255.7 30.9 380 131.7 480.9 256 481c124.2 0 224.8-100.4 225-224.7C481.2 132 380.6 31.2 256.3 31Zm131.6 241.4c-.7 24.6-4.9 44.3-12.7 59-7.8 14.7-20.9 25.3-39.5 31.8-18.5 6.5-44.4 9.6-77.5 9.5H254c-33.1.1-59-3-77.5-9.5S144.8 346 137 331.3c-7.8-14.7-12-34.4-12.7-59-.6-9.3-.6-18.6 0-27.9.4-13.3 1.5-26.6 3.3-39.8 1.7-12.1 3.2-20.5 4.9-29 .9-4.4 1.2-5.8 1.7-7.7.5-2.1 2.3-3.5 4.4-3.5h.6l29 4.5c2.2.4 3.8 2.3 3.8 4.5v.7l-1.5 8c-1.5 8-2.9 18.2-4.4 30.6-1.5 12.7-2.3 25.5-2.4 38.2-.2 24.5 2.3 42.5 7.4 54.3 5.2 11.8 15.8 20.3 28.4 22.8 17.1 3.6 34.6 5.2 52 4.7h9.3c17.4.5 34.9-1.1 52-4.7 12.6-2.6 23.1-11.1 28.3-22.9 5.2-11.7 7.6-29.8 7.4-54.2-.1-12.8-.9-25.5-2.4-38.2-1.5-12.3-3-22.5-4.4-30.6l-1.5-8v-.7c0-2.2 1.6-4.2 3.8-4.5l29-4.5h.7c2.1 0 4 1.5 4.4 3.5.5 1.9.7 3.2 1.7 7.7 1.7 8.7 3.2 17 4.9 29 1.8 13.2 2.9 26.5 3.3 39.8.5 9.4.5 18.7-.1 28Z" style="fill-rule:nonzero" transform="matrix(.14035 0 0 .14035 -.008 .065)"/></svg>