<svg version="1.1" id="Layer_1" xmlns="http://www.w3.org/2000/svg" xmlns:xlink="http://www.w3.org/1999/xlink" x="0px" y="0px"
	 viewBox="0 0 512 512" style="enable-background:new 0 0 512 512;" xml:space="preserve">
<g>
	<path d="M256.3,31C132,30.9,31.1,131.5,31,255.7C30.9,380,131.7,480.9,256,481c124.2,0,224.8-100.4,225-224.7S380.6,31.2,256.3,31z
		 M387.9,272.4c-0.7,24.6-4.9,44.3-12.7,59c-7.8,14.7-20.9,25.3-39.5,31.8c-18.5,6.5-44.4,9.6-77.5,9.5H254c-33.1,0.1-59-3-77.5-9.5
		S144.8,346,137,331.3c-7.8-14.7-12-34.4-12.7-59c-0.6-9.3-0.6-18.6,0-27.9c0.4-13.3,1.5-26.6,3.3-39.8c1.7-12.1,3.2-20.5,4.9-29
		c0.9-4.4,1.2-5.8,1.7-7.7c0.5-2.1,2.3-3.5,4.4-3.5h0.6l29,4.5c2.2,0.4,3.8,2.3,3.8,4.5c0,0.2,0,0.5,0,0.7l-1.5,8
		c-1.5,8-2.9,18.2-4.4,30.6c-1.5,12.7-2.3,25.5-2.4,38.2c-0.2,24.5,2.3,42.5,7.4,54.3c5.2,11.8,15.8,20.3,28.4,22.8
		c17.1,3.6,34.6,5.2,52,4.7h9.3c17.4,0.5,34.9-1.1,52-4.7c12.6-2.6,23.1-11.1,28.3-22.9c5.2-11.7,7.6-29.8,7.4-54.2
		c-0.1-12.8-0.9-25.5-2.4-38.2c-1.5-12.3-3-22.5-4.4-30.6l-1.5-8c0-0.2,0-0.5,0-0.7c0-2.2,1.6-4.2,3.8-4.5l29-4.5h0.7
		c2.1,0,4,1.5,4.4,3.5c0.5,1.9,0.7,3.2,1.7,7.7c1.7,8.7,3.2,17,4.9,29c1.8,13.2,2.9,26.5,3.3,39.8
		C388.5,253.8,388.5,263.1,387.9,272.4L387.9,272.4z"/>
</g>
</svg>
