<svg width="28" height="27" fill="none" xmlns="http://www.w3.org/2000/svg"><path d="M15.59 9.56c.01-.072.015-.154.015-.234 0-.778.186-1.594 2.08-1.594h6.334C26.876 7.732 28 6.408 28 3.7V1.397C28 .625 27.45 0 26.68 0s-1.356.625-1.356 1.397l.012.785c0 .872-.54 1.47-1.845 1.47h-6.21c-2.825 0-3.042 2.102-3.135 3.215h-.062c-.094-1.113-.31-3.215-3.137-3.215h-6.21c-1.303 0-2.023-.606-2.023-1.477v-.778C2.714.625 2.13 0 1.36 0 .59 0 0 .625 0 1.397V3.7c0 2.708 1.353 4.032 4.21 4.032h6.333c1.895 0 2.081.816 2.081 1.594 0 .08.006.159.015.232a1.482 1.482 0 001.476 1.399A1.48 1.48 0 0015.59 9.56M13.999 26.997c.668 0 1.242-.398 1.502-.97l.039-.069 5.763-10.677A1.853 1.853 0 0019.7 12.51c-.82 0-1.376.401-1.752 1.263l-3.949 7.373-3.943-7.365c-.38-.87-.937-1.271-1.756-1.271a1.852 1.852 0 00-1.605 2.769l5.764 10.678.026.046a1.65 1.65 0 001.514.994" fill="#fff"/></svg>