<?xml version="1.0" encoding="utf-8"?>
<!-- Generator: Adobe Illustrator 25.2.3, SVG Export Plug-In . SVG Version: 6.00 Build 0)  -->
<svg version="1.1" id="Layer_1" xmlns="http://www.w3.org/2000/svg" xmlns:xlink="http://www.w3.org/1999/xlink" x="0px" y="0px"
	 viewBox="0 0 72 72" style="enable-background:new 0 0 72 72;" xml:space="preserve">
<style type="text/css">
	.st0{fill:#FFFFFF;}
</style>
<path class="st0" d="M71.7,26c-0.2-2.8-0.6-5.7-1.2-8.5c-0.8-3.2-3.2-5.7-6.4-6.5c-0.3-0.1-0.6-0.1-1-0.2L62,10.6h-0.4
	c-2-0.2-4.7-0.5-7.6-0.6l-3.4-0.1h-1.9l-2.4-0.1C40.7,9.7,36,9.7,36,9.7h-2.8C26.9,9.8,12.3,10,7.9,11.2c-3.2,0.8-5.6,3.3-6.4,6.4
	C0,23.3,0,36,0,36s0,12.8,1.5,18.4c0.9,3.1,3.3,5.6,6.4,6.4c5,1.3,23.5,1.5,27.4,1.5H36c0,0,6.5,0,13.4-0.2
	c5.9-0.2,12.1-0.6,14.7-1.3c3.2-0.8,5.6-3.3,6.4-6.4c0.5-2.1,0.8-4.2,1-6.3c0.2-2.5,0.3-5.2,0.4-7.4c0.1-2.8,0.1-4.8,0.1-4.8
	s0-0.9,0-2.5C72,31.5,71.9,28.8,71.7,26z M3.6,47.9c0-0.4,0.3-0.7,0.7-0.7S5,47.5,5,47.9s-0.3,0.7-0.7,0.7S3.6,48.3,3.6,47.9z
	 M13.6,58.2c-0.8-0.1-1.4-0.2-1.5-0.2l-1-0.2c-0.7-0.2-1.4-0.5-2-0.8c-2.3-1.2-4-3.4-4.7-5.9c-0.1-0.2-0.1-0.4-0.2-0.7
	c-0.1-0.3,0.1-0.7,0.4-0.8h0.2v-0.1c0.3,0,0.6,0.2,0.7,0.5c0,0.2,0.1,0.4,0.2,0.6c0.6,2.2,2,4,4,5.1c0.6,0.3,1.1,0.5,1.7,0.7
	c0.3,0.1,0.6,0.2,0.9,0.2s0.9,0.2,1.5,0.2c0.4,0.1,0.6,0.4,0.6,0.8C14.3,58,14,58.2,13.6,58.2z M44.4,37.7l-11.7,6.8
	c-0.4,0.2-0.7,0.3-1.1,0.3c-1.2,0.1-2.2-0.9-2.2-2.1V29.2c0-0.4,0.1-0.8,0.3-1.1c0.5-1,1.9-1.4,2.9-0.8l11.7,6.8
	c0.3,0.2,0.6,0.5,0.9,0.7C45.8,35.8,45.4,37.1,44.4,37.7z M65.9,22c-0.1-0.2-0.1-0.4-0.2-0.6c-0.6-2.2-2-4-4-5.1
	c-0.5-0.3-1.1-0.5-1.7-0.7c-0.3-0.1-0.7-0.1-1-0.2c-0.3-0.1-0.8-0.1-1.5-0.2C57.3,15,57,14.7,57,14.3c0.1-0.4,0.4-0.6,0.8-0.6
	c0.8,0.1,1.4,0.2,1.5,0.2c0.3,0.1,0.7,0.1,1,0.2c0.7,0.2,1.4,0.5,2,0.8c2.3,1.3,4,3.4,4.7,5.9c0.1,0.2,0.1,0.4,0.2,0.7
	c0.1,0.5-0.2,0.8-0.6,1C66.3,22.5,66,22.3,65.9,22z M67.1,24.7c-0.4,0-0.7-0.3-0.7-0.7s0.3-0.7,0.7-0.7c0.4,0,0.7,0.3,0.7,0.7
	S67.5,24.7,67.1,24.7z"/>
</svg>
