<svg xmlns="http://www.w3.org/2000/svg" viewBox="0 0 72 72"><path d="M71.7 26c-.2-2.8-.6-5.7-1.2-8.5-.8-3.2-3.2-5.7-6.4-6.5-.3-.1-.6-.1-1-.2l-1.1-.2h-.4c-2-.2-4.7-.5-7.6-.6l-3.4-.1h-1.9l-2.4-.1C40.7 9.7 36 9.7 36 9.7h-2.8c-6.3.1-20.9.3-25.3 1.5-3.2.8-5.6 3.3-6.4 6.4C0 23.3 0 36 0 36s0 12.8 1.5 18.4c.9 3.1 3.3 5.6 6.4 6.4 5 1.3 23.5 1.5 27.4 1.5h.7s6.5 0 13.4-.2c5.9-.2 12.1-.6 14.7-1.3 3.2-.8 5.6-3.3 6.4-6.4.5-2.1.8-4.2 1-6.3.2-2.5.3-5.2.4-7.4.1-2.8.1-4.8.1-4.8v-2.5c0-1.9-.1-4.6-.3-7.4zM3.6 47.9c0-.4.3-.7.7-.7s.7.3.7.7-.3.7-.7.7-.7-.3-.7-.7zm10 10.3c-.8-.1-1.4-.2-1.5-.2l-1-.2c-.7-.2-1.4-.5-2-.8-2.3-1.2-4-3.4-4.7-5.9-.1-.2-.1-.4-.2-.7-.1-.3.1-.7.4-.8h.2v-.1c.3 0 .6.2.7.5 0 .2.1.4.2.6.6 2.2 2 4 4 5.1.6.3 1.1.5 1.7.7.3.1.6.2.9.2s.9.2 1.5.2c.4.1.6.4.6.8-.1.4-.4.6-.8.6zm30.8-20.5l-11.7 6.8c-.4.2-.7.3-1.1.3-1.2.1-2.2-.9-2.2-2.1V29.2c0-.4.1-.8.3-1.1.5-1 1.9-1.4 2.9-.8l11.7 6.8c.3.2.6.5.9.7.6 1 .2 2.3-.8 2.9zM65.9 22c-.1-.2-.1-.4-.2-.6-.6-2.2-2-4-4-5.1-.5-.3-1.1-.5-1.7-.7-.3-.1-.7-.1-1-.2-.3-.1-.8-.1-1.5-.2-.2-.2-.5-.5-.5-.9.1-.4.4-.6.8-.6.8.1 1.4.2 1.5.2.3.1.7.1 1 .2.7.2 1.4.5 2 .8 2.3 1.3 4 3.4 4.7 5.9.1.2.1.4.2.7.1.5-.2.8-.6 1-.3 0-.6-.2-.7-.5zm1.2 2.7c-.4 0-.7-.3-.7-.7s.3-.7.7-.7c.4 0 .7.3.7.7s-.3.7-.7.7z" fill="#fff"/></svg>