<svg width="72px" height="72px" xmlns="http://www.w3.org/2000/svg" viewBox="0 0 184.73 184.73"><defs><style>.cls-1{isolation:isolate;}.cls-2{fill:#fff;}.cls-3{opacity:0.28;}.cls-4{fill:#f1f2f2;}.cls-5{opacity:0.27;mix-blend-mode:overlay;}</style></defs><g class="cls-1"><g id="Layer_2" data-name="Layer 2"><g id="Layer_1-2" data-name="Layer 1"><path class="cls-2" d="M92.36,5A87.37,87.37,0,1,1,5,92.36,87.37,87.37,0,0,1,92.36,5m0-5a92.37,92.37,0,1,0,92.37,92.36A92.46,92.46,0,0,0,92.36,0Z"/><g class="cls-3"><path class="cls-4" d="M92.36,5A87.37,87.37,0,1,1,5,92.36,87.37,87.37,0,0,1,92.36,5m0-2a89.37,89.37,0,1,0,89.37,89.36A89.47,89.47,0,0,0,92.36,3Z"/></g><path class="cls-2" d="M147.85,59.07,99.47,169.93a2.62,2.62,0,0,1-2.32,1.66H87.37c-1.33,0-1.82-.5-2.32-1.83L36.67,59.07a2.36,2.36,0,0,1,2.15-3.48H58.7a4.2,4.2,0,0,1,3.48,2.49l30.16,70.09,29.83-70.09a4.44,4.44,0,0,1,3.48-2.49h20A2.47,2.47,0,0,1,147.85,59.07Z"/><path class="cls-2" d="M119.41,46.81c-.85-.66-19.82-15-19.82-15S97.18,29.94,96,29a.64.64,0,0,1-.28-.56c0-2.28-.08-4.57-.14-6.86a35.58,35.58,0,0,0-.43-5,7.16,7.16,0,0,0-.75-2.43,2,2,0,0,0-1.86-1,2,2,0,0,0-1.86,1,7.17,7.17,0,0,0-.76,2.43,34.16,34.16,0,0,0-.42,5c-.07,2.29-.1,4.58-.14,6.86A.62.62,0,0,1,89,29L85.4,31.78s-19,14.37-19.81,15a3.09,3.09,0,0,0-1.35,2.91c.08.76.11,1.51.16,2.3l1.66-.8L83.33,43a4.91,4.91,0,0,1,3.46-.44,3.35,3.35,0,0,1,2.38,2.06,15.07,15.07,0,0,1,1.07,4.57c.09,1.39.07,2.8.1,4.19,0,2.07.08,4.13.13,6.18a.55.55,0,0,1-.19.46c-.91.73-1.81,1.47-2.72,2.19-1.12.87-2.26,1.72-3.4,2.58-.31.24-.62.5-1,.72a.64.64,0,0,0-.33.49l-.54,3.3c0,.14,0,.29-.06.47l9.38-2.64c.29.76.56,1.51.84,2.26.28-.75.55-1.5.83-2.26,3.13.89,6.25,1.76,9.39,2.64,0-.18,0-.33-.06-.47l-.54-3.3a.7.7,0,0,0-.33-.49c-.33-.22-.64-.48-1-.72-1.13-.86-2.27-1.71-3.39-2.58-.92-.72-1.81-1.46-2.72-2.19a.5.5,0,0,1-.19-.46c0-2.05.09-4.11.13-6.18,0-1.39,0-2.8.09-4.19a15.69,15.69,0,0,1,1.07-4.57,3.38,3.38,0,0,1,2.38-2.06,4.89,4.89,0,0,1,3.46.44l17.27,8.25,1.66.8c.06-.79.08-1.54.16-2.3A3.08,3.08,0,0,0,119.41,46.81Z"/><g class="cls-5"><path class="cls-2" d="M101.6,165.1a99.35,99.35,0,0,1-17.9-57V108l-2.44-5.68c-.11,1.91-.18,3.84-.18,5.77a101.94,101.94,0,0,0,19.3,59.77Z"/><path class="cls-2" d="M63.07,108.12a120.2,120.2,0,0,1,5.36-35.57L66.86,68.9a122.74,122.74,0,0,0-6.4,39.22c0,1.89,0,3.77.13,5.64L63.76,121A122,122,0,0,1,63.07,108.12Z"/><path class="cls-2" d="M104.32,108.12a78.94,78.94,0,0,1,.58-9.4l-3.14,7.37c0,.68-.05,1.35-.05,2a81.36,81.36,0,0,0,8.73,36.73l1.37-3.14A78.85,78.85,0,0,1,104.32,108.12Z"/><path class="cls-2" d="M43.68,75.06l1.77,4.06a139.48,139.48,0,0,1,7.14-23.53H49.77A141,141,0,0,0,43.68,75.06Z"/><path class="cls-2" d="M123.51,56.48a5.19,5.19,0,0,0-1.22,1.43C122.69,57.43,123.1,57,123.51,56.48Z"/><path class="cls-2" d="M125,108.12A58.56,58.56,0,0,1,146.17,63l1.71-3.92a3,3,0,0,0,.2-.83,60.94,60.94,0,0,0-25.18,58.07l2.14-4.92Q125,109.77,125,108.12Z"/></g></g></g></g></svg>