<svg width="72" height="72" xmlns="http://www.w3.org/2000/svg" viewBox="0 0 72 72" fill="#fff"><path d="M66 48.7h-8.1c-.3 0-.4-.1-.5-.4l-1-2.7c-.1-.3-.3-.5-.6-.5h-8.2c-.3 0-.5.1-.6.4l-1 2.7c-.1.2-.2.3-.5.3h-8.1l1.5-3.9 8.3-21.7c.1-.4.3-.5.7-.5h7.4c.3 0 .5.1.7.4l9.7 25.4c.2.3.2.4.3.5zM51.8 33.5l-2.4 6.2h4.5c.4 0 .2-.2.2-.4l-1.2-3.2c-.4-.8-.7-1.6-1.1-2.6zm-17-10.9L25 48.3c-.1.4-.3.5-.7.5h-7.4c-.4 0-.6-.1-.7-.5L6.6 23.1c-.1-.1-.1-.3-.2-.5h7.8c.4 0 .6.1.8.5l5.6 14.4s0 .1.1.1c.3-.5.5-1 .7-1.5l5-13.1c.1-.2.1-.5.5-.5l7.9.1zm-7.1 26.1l1.9-5 7.7-20.5c.2-.5.4-.6.9-.6h6.6l-1.9 5.2-7.7 20.4c-.2.5-.4.6-.9.6l-6.6-.1z"/></svg>