<svg xmlns="http://www.w3.org/2000/svg" width="40" height="40"><g fill="none" fill-rule="evenodd"><g fill="#FFF" fill-rule="nonzero"><path d="M1.726 4.007H3.42l3.99.01c.01.01.02.03.02.04.22.39.45.788.679 1.187.967 1.666 1.935 3.342 2.902 5.008a1108.56 1108.56 0 0 1 2.684 4.638l.25.43a2831.47 2831.47 0 0 1 5.126 8.867l.868 1.506.858-1.516c.509-.908 1.047-1.825 1.566-2.713.17-.28.33-.569.489-.848l1.815-3.132c1.407-2.434 2.813-4.858 4.23-7.292.888-1.546 1.795-3.112 2.673-4.628l.898-1.557 5.666-.01c-.22.37-.43.739-.629 1.108-.18.309-.359.638-.538.947-4.569 7.87-9.207 15.88-13.696 23.631-1.107 1.916-2.225 3.84-3.332 5.756C13.975 25.145 7.81 14.5 1.726 4.007zM31.91 3.03c-1.287 2.224-2.573 4.459-3.86 6.683-1.976 3.404-9.008 10.748-19.072-4.957-.362-.565-.659-1.157-.988-1.726-2.663-.01-5.327-.01-7.99-.02.15.19.2.36.28.499 6.533 11.272 13.067 22.553 19.6 33.825 6.065-10.254 12-20.509 17.955-30.763.699-1.197 1.337-2.424 2.135-3.561-2.683.01-5.376.01-8.06.02z"/><path d="M7.99 3.03c2.354-.01 4.718-.01 7.072-.03.3 0 .39.17.51.38a828.17 828.17 0 0 0 4.423 7.47c1.978-3.398 3.413-5.872 4.304-7.421.17-.29.34-.419.689-.419 2.304.02 4.618.02 6.922.03-1.287 2.224-2.573 4.459-3.86 6.683-2.015 3.472-4.03 6.943-6.035 10.424a332.506 332.506 0 0 0-1.845 3.192c-.16.28-.27.28-.44 0-1.715-2.972-3.44-5.945-5.156-8.918a2773.26 2773.26 0 0 0-5.596-9.665c-.33-.579-.659-1.157-.988-1.726z"/></g><path d="M0 0h40v40H0z"/></g></svg>