<svg xmlns="http://www.w3.org/2000/svg" width="40" height="40" viewBox="0 0 40 40">
  <g fill="none" fill-rule="evenodd">
    <g fill="#FFFFFF" fill-rule="nonzero" transform="translate(0 3)">
      <path d="M1.72568579,1.0074813 L3.42144638,1.0074813 L7.41147132,1.01745636 C7.42144638,1.02743142 7.43142145,1.04738155 7.43142145,1.05735661 C7.65087282,1.44638404 7.88029925,1.84538653 8.10972569,2.24438903 C9.07730673,3.91022444 10.0448878,5.58603491 11.0124688,7.25187032 C11.9102244,8.79800499 12.80798,10.3441397 13.6957606,11.8902743 L13.9451372,12.319202 C15.6309227,15.2219451 17.3665835,18.2244389 19.0723192,21.1870324 L19.9401496,22.6932668 L20.798005,21.1770574 C21.3067332,20.2693267 21.8453865,19.3516209 22.3640898,18.4638404 C22.5336658,18.1845387 22.6932668,17.8952618 22.8528678,17.6159601 L24.6683292,14.4837905 C26.074813,12.0498753 27.4812968,9.62593516 28.8977556,7.19201995 C29.7855362,5.64588529 30.6932668,4.0798005 31.5710723,2.56359102 C31.8703242,2.04488778 32.1695761,1.52618454 32.4688279,1.0074813 L38.1346633,0.997506234 C37.915212,1.36658354 37.7057357,1.73566085 37.5062344,2.10473815 C37.3266833,2.41396509 37.1471322,2.74314214 36.967581,3.05236908 C32.3990025,10.9226933 27.7605985,18.9326683 23.2718204,26.6832918 C22.1645885,28.5985037 21.0473815,30.5236908 19.9401496,32.4389027 C13.9750623,22.1446384 7.81047382,11.5012469 1.72568579,1.0074813 Z M31.9102244,0.029925187 C30.6234414,2.25436409 29.3366584,4.48877805 28.0498753,6.71321696 C26.0740221,10.1171622 19.0422786,17.4613451 8.97755611,1.75561097 C8.61605557,1.19149891 8.319202,0.598503741 7.99002494,0.029925187 C5.32668329,0.0199501247 2.66334165,0.0199501247 0,0.00997506234 C0.149625935,0.199501247 0.199501247,0.369077307 0.279301746,0.50872818 C6.81296758,11.7805486 13.3466334,23.0623441 19.8802993,34.3341646 C25.9451372,24.0798005 31.8802993,13.8254364 37.8354115,3.57107232 C38.5336658,2.37406484 39.1720698,1.14713217 39.9700748,0.00997506234 C37.286783,0.0199501247 34.5935162,0.0199501247 31.9102244,0.029925187 Z"/>
      <path d="M7.99002494,0.029925187 C10.3441397,0.0199501247 12.7082294,0.0199501247 15.0623441,0 C15.361596,0 15.4513716,0.16957606 15.5710723,0.379052369 C16.475478,1.93516209 17.9501247,4.42560266 19.9950125,7.85037406 C21.9733998,4.45220283 23.4081463,1.97838736 24.2992519,0.428927681 C24.4688279,0.139650873 24.638404,0.00997506234 24.9875312,0.00997506234 C27.2917706,0.029925187 29.605985,0.029925187 31.9102244,0.0399002494 C30.6234414,2.26433915 29.3366584,4.49875312 28.0498753,6.72319202 C26.0349127,10.1945137 24.0199501,13.6658354 22.0149626,17.1471322 C21.3965087,18.2044888 20.7780549,19.2718204 20.1695761,20.3391521 C20.0099751,20.6184539 19.9002494,20.6184539 19.7306733,20.3391521 C18.0149626,17.3665835 16.2892768,14.394015 14.5735661,11.4214464 C12.7082294,8.17955112 10.8428928,4.96758105 8.97755611,1.75561097 C8.64837905,1.17705736 8.319202,0.598503741 7.99002494,0.029925187 Z"/>
    </g>
    <rect width="40" height="40"/>
  </g>
</svg>
