<svg id="Layer_1" data-name="Layer 1" xmlns="http://www.w3.org/2000/svg" viewBox="0 0 72 72"><defs><style>.cls-1{fill:gray;}.cls-2{fill:#7f7f7f;}</style></defs><title>logo-minified</title><path class="cls-1" d="M52.3717,49.36a35.0359,35.0359,0,0,1-1.647,3.31l6.4489,6.328L61.8259,61.3l-2.2451-4.5938L52.3717,49.36M7.2263,3.0737l-.3.1094A5.1883,5.1883,0,0,0,3.7083,6.4014l-.1094.3L5.1018,8.2041l1.3159.3745,4.8633,4.8638-.0991.1113a17.0916,17.0916,0,0,0-3.17,4.352,1.5174,1.5174,0,0,0-.0855.9742,2.4869,2.4869,0,0,0,.4893,1.2085,4.1675,4.1675,0,0,0,2.1665,1.186l.9243.23-.3359-.8911a2.5236,2.5236,0,0,1,.3012-2.895,7.9015,7.9015,0,0,1,1.6573-1.939l2.6229,2.5738q.0039-.3645.0085-.7338l.0182-1.4479,1.4477-.0328q1.192-.0278,2.3924-.1569l-3.3145-3.3777A7.8244,7.8244,0,0,1,18.2219,10.96a2.9535,2.9535,0,0,1,1.5851-.63,3.8721,3.8721,0,0,1,1.3309.3146l.8174.2818-.1543-.8653A4.1775,4.1775,0,0,0,20.6135,7.89a2.4855,2.4855,0,0,0-1.209-.4887,1.51,1.51,0,0,0-.3637-.0445,1.484,1.484,0,0,0-.61.13,17.0842,17.0842,0,0,0-4.3515,3.1694l-.1114.0991L9.1042,5.8926,8.7293,4.5762,7.2263,3.0737"/><path class="cls-1" d="M19.6277,49.36l-7.1519,7.2884L10.1741,61.3l4.5942-2.2451,6.5057-6.3839A34.6837,34.6837,0,0,1,19.6277,49.36M64.7732,3.0737,63.27,4.5762l-.375,1.3164L58.032,10.7558l-.1113-.0986a17.0682,17.0682,0,0,0-4.3516-3.17,1.4848,1.4848,0,0,0-.61-.1291,1.5665,1.5665,0,0,0-.3646.0432,2.486,2.486,0,0,0-1.209.4892A4.1663,4.1663,0,0,0,50.2,10.0561l-.2314.9253.8926-.3364a3.8971,3.8971,0,0,1,1.3346-.3147,2.8984,2.8984,0,0,1,1.5609.6165,7.903,7.903,0,0,1,1.9385,1.6567l-3.3144,3.3777q1.2007.13,2.3923.1569l1.4477.0328.0182,1.4479q.0046.37.0085.7343l2.6234-2.5743a7.82,7.82,0,0,1,1.6426,1.918,2.54,2.54,0,0,1,.3155,2.916l-.2823.8174.8662-.1543a4.1723,4.1723,0,0,0,2.1709-1.1875,2.4606,2.4606,0,0,0,.4883-1.2071,1.5086,1.5086,0,0,0-.0849-.976,17.0628,17.0628,0,0,0-3.1661-4.3472l-.1025-.1157,4.8633-4.8638,1.3164-.3745,1.5029-1.5029-.1094-.3A5.1891,5.1891,0,0,0,65.073,3.1831l-.3-.1094"/><path class="cls-1" d="M21.7966,18.2006A37.4937,37.4937,0,0,0,36,12.36a37.4914,37.4914,0,0,0,14.2031,5.8408,30.8091,30.8091,0,0,0,3.5469.4q.011,1.1182.0138,2.19.0009.35.0009.6948c.0017,12.1423-.8585,19.7827-3.2951,25.936q-.1846.4663-.3814.9216c-.3708.8586-.7749,1.6923-1.2151,2.51a39.5688,39.5688,0,0,1-4.3861,6.4141A107.4762,107.4762,0,0,1,36,66.1587a107.4623,107.4623,0,0,1-8.4871-8.8921,39.7155,39.7155,0,0,1-4.3862-6.413A32.0485,32.0485,0,0,1,21.53,47.4205a35.875,35.875,0,0,1-1.3447-4.1452c-1.4186-5.4447-1.952-12.2287-1.9507-21.79q0-.3453.0009-.6953.0027-1.0714.0138-2.1893a30.8334,30.8334,0,0,0,3.5469-.4M36,9.9535l-.5587.3763a35.0415,35.0415,0,0,1-15.3783,6.1038q-1.4187.173-2.825.2043l-.9651.0219-.0121.9653q-.0078.6135-.0132,1.2135-.0123,1.3566-.0124,2.6465c.0018,12.7323.9213,20.7852,3.7711,27.4888.023.054.0459.1076.0691.1614a34.2012,34.2012,0,0,0,1.5691,3.1727,42.2738,42.2738,0,0,0,4.3245,6.23,115.1439,115.1439,0,0,0,9.34,9.7287l.6907.66.6907-.66a115.1571,115.1571,0,0,0,9.34-9.7287,42.0855,42.0855,0,0,0,4.3245-6.2309,34.4134,34.4134,0,0,0,1.6381-3.333,36.7185,36.7185,0,0,0,1.7561-5.195c1.4876-5.723,2.0139-12.6623,2.0151-22.2939q0-1.29-.0124-2.646-.0054-.6-.0132-1.214l-.0121-.9653-.9651-.0219q-1.407-.0324-2.825-.2043A35.042,35.042,0,0,1,36.5584,10.33L36,9.9535"/><path class="cls-2" d="M36,20.7266l-8.9549,2.8225-2.03.64q-.0233,1.6794-.01,3.2431c.0537,5.8566.5319,10.5672,1.7749,14.6388a26.9542,26.9542,0,0,0,1.4576,3.7675A30.047,30.047,0,0,0,36,55.6089a30.0459,30.0459,0,0,0,7.7624-9.7713A26.9724,26.9724,0,0,0,45.22,42.0709c1.2431-4.0716,1.7215-8.7821,1.7754-14.6386q.0142-1.5657-.01-3.2434l-2.03-.64L36,20.7266"/></svg>