<svg width="40px" height="40px" viewBox="0 0 938 1638" version="1.1" xmlns="http://www.w3.org/2000/svg"><path d=" M 208.04 325.35 C 294.86 217.12 381.91 109.08 468.78 0.89 C 555.66 109.04 642.61 217.14 729.51 325.28 C 660.25 411.35 591.05 497.49 521.83 583.60 C 544.24 611.49 566.66 639.38 589.08 667.26 C 615.14 635.23 640.85 602.90 666.78 570.76 C 687.04 545.37 707.67 520.29 727.95 494.92 C 797.70 581.61 867.31 668.41 937.13 755.04 C 925.95 769.58 914.18 783.68 902.78 798.05 C 868.21 841.46 833.26 884.56 798.57 927.89 C 837.84 976.71 877.07 1025.57 916.36 1074.38 C 818.09 1197.79 720.05 1321.39 621.79 1444.81 C 570.83 1508.94 519.77 1573.01 468.86 1637.18 C 369.51 1512.58 270.43 1387.74 171.19 1263.05 C 121.21 1200.14 71.28 1137.18 21.18 1074.38 C 60.49 1025.59 99.70 976.72 138.96 927.89 C 92.73 870.36 46.55 812.78 0.35 755.22 C 70.05 668.46 139.88 581.79 209.47 494.95 C 256.13 552.14 302.02 609.97 348.51 667.29 C 370.75 639.40 393.25 611.71 415.49 583.82 C 415.32 583.48 415.00 582.79 414.83 582.45 C 345.85 496.79 277.08 410.97 208.04 325.35 M 468.66 133.04 C 417.55 196.91 366.20 260.59 314.95 324.34 C 366.21 388.52 417.63 452.58 468.98 516.69 C 520.27 452.69 571.53 388.67 622.81 324.66 C 571.41 260.80 520.21 196.78 468.66 133.04 M 185.78 656.67 C 159.34 689.53 132.94 722.43 106.48 755.29 C 134.99 790.81 163.54 826.30 192.08 861.80 C 226.55 818.96 260.99 776.09 295.44 733.24 C 266.99 697.77 238.41 662.40 210.02 626.89 C 201.58 636.49 193.92 646.79 185.78 656.67 M 642.11 733.19 C 676.43 776.12 711.08 818.80 745.32 861.80 C 748.55 858.19 751.42 854.28 754.51 850.55 C 779.99 818.74 805.70 787.10 831.04 755.18 C 796.50 712.45 762.19 669.55 727.73 626.76 C 699.14 662.19 670.69 697.74 642.11 733.19 M 464.30 698.40 C 364.10 824.33 263.98 950.31 163.75 1076.22 C 166.28 1079.68 169.06 1082.96 171.70 1086.34 C 270.70 1210.87 369.79 1335.34 468.76 1459.90 C 570.44 1332.03 672.14 1204.17 773.83 1076.31 C 672.19 948.47 570.46 820.72 468.90 692.83 C 467.23 694.58 465.78 696.50 464.30 698.40 Z" /><path d=" M 260.90 1076.26 C 330.24 989.18 399.48 902.03 468.79 814.94 C 538.08 902.09 607.37 989.24 676.71 1076.34 C 607.29 1163.39 538.08 1250.60 468.75 1337.72 C 399.55 1250.50 330.11 1163.47 260.90 1076.26 Z" /></svg>