<svg clip-rule="evenodd" fill-rule="evenodd" stroke-linejoin="round" stroke-miterlimit="2" viewBox="0 0 72 72" xmlns="http://www.w3.org/2000/svg"><g fill="#fff" fill-rule="nonzero"><path d="m0 377.896c16.856 29.98 35.953 63.955 55.303 102.662 66.689 133.37 61.154 250.341 26.078 307.09-17.342 28.066-42.31 42.907-72.196 42.907-.346 0-.701.01-1.046.038l-538.334 39.257c6.151-6.477 11.788-13.823 16.838-21.99 47.173-76.322 37.195-210.943-24.828-334.97-12.176-24.349-24.13-46.564-35.562-67.292-.111-.231-.245-.446-.368-.671-6.905-12.509-13.66-24.606-20.026-35.93-65.569-116.636-102.27-181.944-53.762-323.49l126.153-9.201c.021-.002.044-.001.067-.002l12.818-.938 257.281-18.764 1.308-.095 190.138-13.868.304.372c-46.345 145.98-3.528 222.175 59.834 334.885m-596.875 496.817-13.59.99c-26.014-.093-44.252-7.056-55.751-21.282-26.826-33.218-17.884-107.132-2.221-185.732.037-.205.083-.41.121-.615 2.343-11.742 4.835-23.587 7.383-35.422 14.691-68.305 9.11-119.062-16.577-150.861-2.48-3.073-5.082-5.795-7.733-8.32l90.484-6.597c10.036 18.336 20.425 37.836 30.925 58.84 66.689 133.37 61.155 250.323 26.088 307.073-14.757 23.875-35.021 38.174-59.129 41.926m-92.097-248.09c-1.839 8.586-3.64 17.061-5.367 25.443l-131.046 9.558c-16.175-79.001 3.09-124.895 22.709-149.779 19.62-24.884 43.748-33.919 55.172-33.919 9.026 0 31.735 2.128 47.696 21.888 19.684 24.38 23.437 68.229 10.836 126.809m112.274-768.14c-15.457 66.788-45.81 152.274-63.39 197.701l-2.112.153c9.905-86.103 25.712-156.435 41.026-205.745zm7.637-82.614c.047.168.103.345.149.522 2.52 9 2.339 22.561.252 39.006l-17.888-6.165c6.578-16.078 12.619-27.43 17.487-33.363m63.105 105.421c-15.48 60.628-25.711 131.05-29.786 167.285l-72.77 5.306c14.647-38.683 43.423-118.407 59.085-186.606zm57.991-75.843c2.394 7.574.255 25.568-4.97 49.837l-14.323-4.937c7.019-21.478 13.763-37.212 19.293-44.9m-30.78 84.616 15.993 5.156c-10.601 39.277-25.525 86.356-41.803 132.4 6.447-51.639 15.911-99.272 25.81-137.556m93.734 30.22c-10.104 42.601-16.061 89.954-19.041 118.689l-76.074 5.547c12.537-35.002 31.366-90.041 44.841-140.444zm53.121-61.475c.859 1.447 1.951 3.594 3.164 6.692 2.438 6.204 1.662 17.658-1.246 32.164l-17.113-5.899c5.712-17.153 11.084-28.116 15.195-32.957m-25.582 70.354 17.648 5.689c-8.969 28.742-21.542 61.43-33.825 89.846 4.529-38.617 10.248-70.34 16.177-95.535m83.642 26.966c-4.841 20.57-8.946 45.333-12.296 74.245l-60.642 4.421c9.908-22.903 23.974-57.48 34.283-91.129zm48.037-45.573c1.288 1.484 3.314 4.368 5.74 9.716.686 2.677.011 7.809-1.722 14.683l-14.311-4.932c4.128-10.785 7.801-16.848 10.293-19.467m-20.525 54.442 12.895 4.157c-6.049 15.224-13.756 32.587-22.481 50.345 2.931-22.021 6.233-39.928 9.586-54.502m158.03 50.949-138.866 10.126c7.339-15.069 14.925-31.781 21.237-48.05zm-92.493-182.187c51.301-1.214 103.684 1.674 130.453 34.075 36.572 44.278 18.406 96.72 2.105 126.937l-9.49-3.271zm-119.766-37.533c-7.733-7.369-2.231-22.516 7.558-40.016l41.178 50.653c-22.042-.365-40.49-2.794-48.736-10.637m28.44-171.079c12.96 16.412.123 42.722-16.745 70.097l-57.832-74.127c36.667-5.132 66.694-5.984 74.577 4.03m402.332 431.126-150.96-52.029c21.321-42.34 34.414-103.936-7.491-154.667-39.271-47.55-110.409-46.202-174.408-43.826l-67.452-86.455c23.805-37.474 46.775-78.612 20.492-111.921-17.496-22.154-61.185-21.371-117.388-12.274l-48.056-61.594c3.634-12.439 2.192-26.277-5.476-37.922-6.72-10.192-16.997-17.165-28.953-19.629-11.938-2.436-24.156-.121-34.358 6.599-10.193 6.72-17.165 16.997-19.629 28.953-2.455 11.966-.112 24.165 6.599 34.358 8.774 13.319 23.372 20.553 38.24 20.553 3.442 0 6.884-.502 10.286-1.291l31.842 39.168c-12.941 2.627-26.223 5.419-39.804 8.288-70.609 14.896-177.322 37.428-189.129 13.095-3.454-7.122-12.032-10.09-19.163-6.637-7.121 3.463-10.089 12.041-6.636 19.163 21.636 44.503 113.947 25.005 220.846 2.427 17.093-3.606 35.751-7.542 54.372-11.135l83.703 102.961c-18.329 30.5-31.665 62.009-8.018 84.526 18.77 17.882 52.096 19.411 91.641 18.338l109.838 135.111-76.01-26.198c3.657-14.869 4.627-27.464 1.097-35.314-11.63-25.873-25.864-29.317-35.721-27.824-13.1 2.102-24.344 15.444-33.72 39.583l-39.736-13.696c4.37-21.418 5.546-40.133.896-51.975-9.623-24.482-22.971-28.038-32.37-26.675-16.558 2.346-29.637 24.356-39.855 54.066l-51.492-17.747c6.629-31.434 9.275-57.542 4.217-70.425-8.158-20.74-20.862-22.214-27.778-21.244-17.297 2.452-32.39 30.274-44.984 68.045l-47.061-16.219c3.265-23.006 3.813-42.725.052-56.147-6.552-23.391-19.89-25.864-27.218-25.202-15.265 1.302-30.593 22.719-44.764 56.556l-63.591-21.916c-.364-1.206-.562-2.438-1.027-3.623-4.461-11.369-13.067-20.32-24.258-25.211-11.201-4.881-23.624-5.124-34.974-.672-11.368 4.462-20.32 13.068-25.21 24.259-4.882 11.191-5.125 23.605-.673 34.973 4.462 11.369 13.068 20.32 24.259 25.201 5.936 2.595 12.125 3.827 18.229 3.827 12.39 0 24.312-5.152 32.95-14.12l59.253 19.103c-19.629 62.568-35.675 146.61-44.078 226.933-56.568 158.819-12.834 236.678 53.267 354.282 2.933 5.218 6.014 10.721 9.073 16.186l-137.372 10.014c-.021 0-.047-.001-.068-.001-21.076 0-53.267 13.862-77.694 44.84-24.501 31.081-48.816 88.596-25.434 186.069 1.642 6.823 7.97 11.47 14.989 10.958l135.527-9.885c-15.485 82.351-20.469 151.515 11.602 191.202 17.09 21.159 43.467 31.902 78.394 31.94h.299c5.45-.009 10.799-.392 16.026-1.138l603.521-44.009c39.538-.178 73.633-20.235 96.053-56.507 47.173-76.331 37.196-210.952-24.828-334.988-19.666-39.323-38.94-73.625-55.955-103.885-60.766-108.103-96.502-172.306-62.838-293.785l125.524 154.404c2.837 3.481 6.963 5.292 11.134 5.292 3.127 0 6.282-1.017 8.923-3.127 6.152-4.891 7.206-13.833 2.371-20.03l-132.066-169.271 143.117 46.14c1.456.466 2.941.691 4.397.691 6.01 0 11.601-3.799 13.599-9.801 2.492-7.458-1.494-15.531-8.932-18.089" transform="matrix(.0503708 0 0 .0503722 54.1385754508 26.4445990448)"/><path d="m0 1.746 40.478-48.769c2.079-2.506 2.46-6.021.968-8.917-1.5-2.904-4.618-4.626-7.839-4.372l-56.527 4.308c-2.19.167-4.229 1.214-5.633 2.912l-45.5 54.814c-2.801 3.372-2.42 8.354.857 11.266l53.282 47.277c1.492 1.325 3.412 2.047 5.395 2.047.207 0 .413-.008.619-.024l56.528-4.308c3.253-.246 6.038-2.42 7.077-5.506 1.047-3.094.135-6.506-2.301-8.672z" transform="matrix(.0503708 0 0 .0503722 26.0077429208 36.7813774624)"/><path d="m0 118.791c1.491 1.325 3.411 2.047 5.395 2.047.206 0 .412-.008.619-.024l56.527-4.308c3.253-.246 6.038-2.42 7.077-5.506 1.047-3.094.135-6.506-2.301-8.671l-47.403-42.057 40.477-48.769c2.079-2.506 2.46-6.021.968-8.917-1.507-2.904-4.657-4.633-7.838-4.372l-56.528 4.308c-2.19.167-4.229 1.214-5.633 2.912l-45.5 54.814c-2.8 3.372-2.42 8.354.857 11.266z" transform="matrix(.0503708 0 0 .0503722 32.285405354 33.325995659)"/><path d="m0-205.872-112.809 8.013c-39.605 3.451-69.031 38.487-65.588 78.099 3.451 39.614 38.597 69.039 77.79 65.613l44.817-2.23 66.191 57.789c1.508 1.324 3.412 2.007 5.339 2.007 1.222 0 2.444-.277 3.587-.833 2.935-1.444 4.72-4.515 4.522-7.791l-3.555-58.099c35.567-7.06 60.947-40.025 57.734-76.972-3.451-39.589-38.582-69.015-78.028-65.596" transform="matrix(.0503708 0 0 .0503722 45.5527718492 50.52835382)"/><path d="m0 20.856c12.678-14.574 18.93-33.139 17.605-52.282-1.333-19.145-10.084-36.67-24.658-49.348-14.566-12.671-33.099-18.906-52.41-17.589l-112.547 9.608c-39.637 2.784-69.635 37.28-66.889 76.932 1.333 19.145 10.091 36.67 24.658 49.348 12.543 10.917 28.053 17.065 44.341 17.716l5.53 57.94c.309 3.261 2.547 6.022 5.672 6.989.794.247 1.611.366 2.412.366 2.365 0 4.657-1.032 6.228-2.912l56.393-67.373 44.317-4.737c19.144-1.333 36.67-10.084 49.348-24.658" transform="matrix(.0503708 0 0 .0503722 42.7294885092 55.455762424)"/><path d="m0-102.788c-1.047 3.094-.135 6.505 2.301 8.671l47.404 42.064-40.478 48.761c-2.079 2.507-2.46 6.022-.968 8.918 1.404 2.713 4.197 4.395 7.22 4.395.206 0 .412-.008.618-.024l56.528-4.307c2.189-.167 4.229-1.214 5.633-2.913l45.5-54.813c2.801-3.372 2.42-8.355-.858-11.267l-53.282-47.276c-1.65-1.468-3.871-2.23-6.014-2.023l-56.527 4.308c-3.253.245-6.038 2.419-7.077 5.506" transform="matrix(.0503708 0 0 .0503722 50.2356947544 64.349981778)"/><path d="m0-118.404c-1.65-1.459-3.8-2.197-6.014-2.022l-56.527 4.307c-3.253.246-6.038 2.42-7.077 5.506-1.047 3.095-.135 6.506 2.301 8.672l47.403 42.064-40.477 48.761c-2.079 2.507-2.46 6.022-.968 8.917 1.404 2.714 4.197 4.396 7.22 4.396.206 0 .412-.008.618-.024l56.528-4.308c2.19-.166 4.229-1.214 5.633-2.912l45.5-54.814c2.8-3.372 2.42-8.355-.857-11.266z" transform="matrix(.0503708 0 0 .0503722 46.4616625644 65.251644158)"/></g></svg>