<svg xmlns="http://www.w3.org/2000/svg" width="40" height="40"><g fill="none" fill-rule="evenodd"><path fill="#FFF" fill-rule="nonzero" d="M20.244 0C14.659-.045 9.883 1.946 5.875 5.813 2.086 9.692.057 14.33.001 19.764c-.057 5.587 1.91 10.409 5.854 14.359 3.874 3.881 8.617 5.79 13.978 5.876 5.63-.061 10.35-2.017 14.294-5.854 3.815-3.916 5.835-8.602 5.856-14.074C40.027 8.866 30.985.09 20.243.001zm12.2 26.39c-.019.372-.28.69-.665.8-.183.052-.37.094-.556.144-.814.215-1.553.596-2.26 1.043-.632.398-1.258.805-1.923 1.15a21.167 21.167 0 0 1-3.452 1.426.823.823 0 0 0-.35.196c-.166.163-.381.248-.602.311-.346.098-.701.135-1.057.182-.606.077-1.215.122-1.822.175-.435.04-.874.058-1.311.086-.467.031-.936.072-1.404.074-.235 0-.469.003-.702-.035a4.484 4.484 0 0 1-.415-.095c-.977-.257-1.02-1.407-.498-1.928.115-.115.237-.215.372-.302.115-.074.119-.096.015-.168a1.89 1.89 0 0 1-.489-.474c-.024-.035-.05-.082-.096-.076-.06.007-.067.068-.08.115-.04.148-.081.298-.116.448a6.616 6.616 0 0 1-.311 1.026c-.23.557-.645.87-1.236.966-.56.093-1.092-.018-1.613-.21a2.286 2.286 0 0 1-.387-.178c-.274-.165-.383-.41-.324-.72a1.53 1.53 0 0 1 .213-.53l.152-.24c-.413.091-.65-.101-.831-.396a3.847 3.847 0 0 1-.523-1.587 4.04 4.04 0 0 1-.016-.885c.042-.402.183-.766.38-1.113.257-.453.588-.853.96-1.216a.411.411 0 0 0 .136-.393 4.345 4.345 0 0 1-.01-.85 9.255 9.255 0 0 1 .282-1.77c.257-.969.737-1.812 1.402-2.556.45-.504.946-.954 1.474-1.372.126-.1.13-.104.028-.234a5.784 5.784 0 0 1-.756-1.246c-.213-.487-.339-.99-.294-1.528.013-.148.035-.294.077-.437a6.33 6.33 0 0 1 .34-.84.85.85 0 0 1 .527-.484c.343-.11.657-.28.94-.507.112-.089.208-.193.308-.295.682-.701 1.51-1.118 2.467-1.292.324-.06.65-.06.978-.056.198.002.198.002.266-.18.213-.553.44-1.1.758-1.605.113-.178.239-.344.389-.492a.85.85 0 0 1 .307-.2.42.42 0 0 1 .502.127c.122.141.21.306.298.467.294.535.556 1.087.81 1.644.001.006.005.012.007.017.11.245.11.245.346.124.17-.087.34-.174.52-.24l.545.129c.213.457.322.944.404 1.439.109.665.155 1.335.142 2.01a9.306 9.306 0 0 1-.8 3.644c-.337.753-.78 1.442-1.248 2.118-.098.143-.193.287-.289.43-.057.085-.05.16.024.231.067.065.13.132.2.193a6.433 6.433 0 0 1 1.404 1.754c.428.772.74 1.588.876 2.464a6.74 6.74 0 0 1 .076 1.549c-.035.487-.11.968-.174 1.45-.006.042-.015.085-.013.127.003.078.044.128.126.132.092.005.185-.002.276-.019.668-.124 1.283-.396 1.88-.71.523-.277 1.012-.616 1.532-.899.573-.311 1.16-.58 1.795-.73a4.22 4.22 0 0 1 1.044-.124c.158.004.308.032.452.087.402.154.613.491.593.934z"/><path d="M0 0h40v40H0z"/></g></svg>